<svg xmlns="http://www.w3.org/2000/svg" xmlns:xlink="http://www.w3.org/1999/xlink" width="1920" height="1080" viewBox="0 0 1920 1080"><defs><path fill="#1775b8" d="M123.67 827.52l6.72 37.44 1.92-5.76 2.24 11.2 25.88 25.28-2.2-.96-32.64-28.48-1.92-38.72z" id="reuse-52"/><path d="M122.88 826.88c0 1.86 3.37 39.68 3.37 39.68l34.18 29.12h26.42S189.49 881.1 175 883c-6 .62-8.32.19-8.32.19L158 863v-34.52z" fill="#ede0c2" id="reuse-51"/><path d="M191.36 791c-.41-1.79-1.52-2.46-3.71-2.09-6 1.49 5 12 3.83 2.75a6.45 6.45 0 00-.12-.66zM214.87 808.32l4.16 7.52-5.28-4s-4.64 1-5.92-.64c-1-2.08.8-4.32.8-4.32zM231.83 824.32l-4.48 2.08 1.44 6.24 4.74-3.48-1.7-4.84zM-8.17 857l-.65.49a5.85 5.85 0 000-3.37c-2.28-6.25-3.54-11.59-6-30.09l-4.49-11.63a38.32 38.32 0 011.71-31.48c-6.04 19.08 4.6 35.4 4.6 35.4l5.44-2.56c-4.48 7.36-3.2 19.52-3.2 19.52s.64-5.76 6.4-6.08c-7.36 9.6-1.6 18.56 4.48 21.76-6.69 3.84-8.29 8.04-8.29 8.04zM30.23 861.76c-13.74 5.68-26 12.76-31.8 17.62l-.2-.34c9.28-9 35.52-22.08 35.52-22.08s6.4-2.24 3.2-5.44C46.23 847.68 53.27 840 53.27 840s-2.56-.64-7.68-2.24c6.72-3.2 10.88-14.08 10.88-14.08l6.08 14.4a119.15 119.15 0 0027.2 13.76c27.2 6.4 32-.32 32-.32a39.48 39.48 0 00-2.56-4.8c8.32-4.16 6.08-17.92 6.08-17.92l8.24 27.32a89 89 0 01-14.8 3.56c-14.73 2.17-41.55 0-63.23-13.85-5.18 4.82-13.11 10.25-25.25 15.93zM184.92 824.08L148.22 850s-2.74 1.51-7.23 3.38l14.36-24.55 3.2 10.56 22.72-25.92 3.52 6.4a139.26 139.26 0 0114.4 8.32c5.12 3.84 27.33 6.71 27.33 6.71l-26.26-3.45z" fill="#1775b8" id="reuse-50"/><path d="M195 788.64s-4.32-4.32-10.08-3.36c-3.84 1-6.24 7.68 2.88 12.48a96.12 96.12 0 017.2-9.12z" fill="#ede0c2" id="reuse-49"/><path d="M182.39 786.88l5.44 10.88s-5.28 2.4-5.12 6.72c-3.71-5.12-6.56-13.12-.32-17.6z" fill="#1775b8" id="reuse-48"/><path d="M-8.81 854.08c-2.28-6.25-3.54-11.59-6-30.09l-4.49-11.63a38.11 38.11 0 015.93-38 55.87 55.87 0 0133.57-19.6c37.37-7.07 57.57 15.88 72.15 18 10.7 1.58 23.29-1.3 33.8-.16 9.68 1.05 19.33 5.38 28.82 7.57 5.6 1.29 11.46.62 17.29-.34a137.23 137.23 0 0114-2c13.09-.75 25.47 10.83 34.87 19l12.42 32.31-7 5.71-26.26-3.45-15.34-7.34L148.22 850a97.2 97.2 0 01-29.51 9.71c-14.73 2.17-41.55 0-63.23-13.85-5.18 4.82-13.11 10.25-25.25 15.93C11.67 869.44-4.33 879.68-5 883.52c3.84 5.12 7 9 7 9L1.43 897l-14.4-.64-10.56-19.2s17.28-16.04 14.72-23.08z" fill="url(#f)" id="reuse-47"/><path d="M-1.67 832.69L23 878.07l37.15 9.69 3.75 9.92 11.76-1.12L71.72 882l-23.53-11.77-2.8-39.23s-44.26-5-47.06 1.69zM92.41 836.88c0 1.86 5.74 48 5.74 48l12.22 10.84h21.75s3.66-12.38-10.87-10.52c-5.94.62-7.08-5.1-7.08-5.1l17-26.22v-24zM215.67 793s1.92-6.72-3.84-10.08-9.12 2.4-6.72 8.16c2.89 4.76 10.56 1.92 10.56 1.92z" fill="#1775b8" id="reuse-46"/><path d="M1532.16 61.12a20.48 20.48 0 11-20.48-20.48 20.48 20.48 0 0120.48 20.48z" fill="#fff9db" id="reuse-45"/><path fill="#c4eeff" d="M1004.16 841.92l163.2-23.04 107.52 12.48-107.52-2.88-163.2 13.44zM1078.28 881.17c-6.13-3.41-6-7.95-14-9.49-11-2.1-24.45 0-35.65 0 3.86 0 51.61-8.59 52.19-5.67 1.89 9.53 41.7 4.19 49.72 3.83 37.09-1.63 74.33-4 111.49-3.91-11-.7-26.48 1.7-36.29 6.49 23.44 5.73 49.8 2.16 73.82 6.2-9.5 4.68-89.43 9.93-86.52-2-17.4-1-35 2.12-52.29 4-9.37 1-18.54 1.6-28 1.68-8.13.02-27 3.02-34.47-1.13zM1093 896.64c-16.46 0-51.36 11.84-65.5 1.17 6-1.67 10.68-5 16.92-5.57 5.64-.51 12.31 1.1 18.4.51a58.53 58.53 0 00-18.75 4.92c16.27-.27 32.58-1.06 48.93-1.03zM1634.52 797.62c5.46-1.25 13.75.87 19.47 1 6.63.1 13.26 0 19.88-.08 7.4-.08 21 3.68 25.08-4.52-8-3-16.7-1-24.92-.06-12.82 1.47-27.03.82-39.51 3.66zM1619.74 836.16a366.16 366.16 0 0049.74-3.13c10.68-1.44 26.1 1.67 34.85-6.34a16.17 16.17 0 01-6.45-1.91c9.36-3.18 20.91-2.25 30.78-4.14-8.25-1.78-18.32.17-27 .16-7.71 0-15.48.08-23.17 0 4.21.14 7.48 1.85 4.66 5.31-6.54 8-26.71 1.66-35.33 2.24-21.24 1.44-46 1.6-66.46 6.7 10.64 4.27 26.98 1.09 38.38 1.11zM1568.42 881.61c5.14 0 13.3 1.1 17.93-1.37 3.43-1.83 1.92-3.69 4.35-5.57 1.57-1.21 9.88-4.35 11.33-4-8.83-2.23-14.33-.44-22.61 1-9.87 1.78-21.51.3-31.54.25 11.77.85 23.53 1.9 34.83 2.71-9.86 2.3-21 1.59-31.37 3.06-12.72 1.82-25.7 3.91-38.54 4.49 18.55-.04 37.06-.43 55.62-.57zM1868.61 876.93c5.11-1.21 10.33.78 15.46.43 3.71-.26 7.59-2.62 11.52-1.49-13-3.73-20.18-3.52-33.13-.7-13.29 2.89-26 4.83-39.45 6.57-17 2.2-36.7 2.42-53 6.92a471.17 471.17 0 0088-7.7c3.76-.69 7.12-3.2 10.6-4.03zM1940.48 902.08c-1.92 0-113.92 1.28-113.92 1.28l-90.88 10.24 85.76-3.2 114.56 1.28zM1929.6 928.32l-62.72-7.68-37.12 14.08 34.56-8.32 41.6 6.4-18.56 18.56 28.16-14.72 21.12 7.68-7.04-16zM1624.32 941.76l-46.08-.64-19.2 6.4 23.04-4.48 40.32 3.84 10.88 3.84-10.88 3.2 14.08-1.92-12.16-10.24zM1509.12 949.44h-34.56l-12.16 6.4 16-3.84 30.72-2.56zM866.56 814.4l179.84-19.2-174.08 23.04-5.76-3.84zM942.08 825.92l67.84-12.8 67.2-4.48-63.36 8.96-71.68 8.32zM1125.12 790.72l55.04-5.76 72.32 9.6-72.32-5.76-55.04 1.92zM716.8 884.16l43.52 9.6 24.96 3.84 12.8-1.92-9.6-3.2-27.52-1.92 23.68-1.92-32.64.64-35.2-5.12zM749.44 879.04L864 877.12l-30.08 4.48-84.48-2.56zM755.84 937.92l-21.12-11.2-151.68 12.96-55.68-2.16 67.84 5 56.96-1.34 66.56-10.91-1.92 8.31-35.84 10.87-58.88-.65 47.36 5.12 34.56-1.6 24.96-14.4h26.88zM512.64 905.28L432 901.44l-122.88 5.12-94.72-12.16 94.08 8.32 120.96-6.4 54.4 1.28-39.68-7.68-84.48-3.2L448 884.8l49.92 10.88 14.72 9.6zM-30.72 1017.92c3.84 0 157.44 4.48 157.44 4.48h30.72l-120.32-7.68 7-12.16 159.36 2.56 92.8-3.84 60.16 10.88 65.96-5.16h-69.12l-68.48-18.52-93.44 9L57 991l-35.84-5.12 80-2.56 85.76 1.92 42.88-12.16-51.84 7-77.44-5.76-113.92 7zM387.84 986.56c1.92 0 136.32 3.2 136.32 3.2l42.24-11.52-36.48 4.48-63.36-1.28zM289.28 973.76l72.32-3.2 90.88-2.56-94.08 8.96-69.12-3.2zM-13.44 944.96L99.2 927.04l89.6 11.52 113.28-3.2L192 945.6l-85.76-14.08-119.68 13.44zM0 909.12l81.28-8.32 70.4-10.88 65.28 20.48-62.72-12.16-67.84 8.96L0 909.12zM-14.72 851.52L83.84 856l163.84 7.68-163.2-.64L0 862.4l-13.44 12.8 42.24 4.48 62.72-1.28-69.76 14.08-40.32-2.56 3.84-38.4zM353.28 928.64l93.44-1.76 127.36-8.24 70.4 6.44-72.32-3.18-126.08 10.25-32 3.21 35.84 8.96-41.6-5.12-30.72 2.56h-58.88l44.8-.96 19.2-6.72H345.6l7.68-5.44zM17.28 791.36l71.36-4.8 42.08-1.76 127.2 3.36H130.56l-42.24 1.92 20.48 5.76 100.48-2.56-52.48 8.32-92.8-3.84-46.72-6.4zM30.72 807.36l93.44 5.12 71.68 8 65.28-6.88-66.56 2-67.84-8.24h-96zM291.84 818.88l-19.2-8.32 31.36 2.56 24.32 2.56 59.52-7.68 83.2-12.16-82.56 7.68-55.04 6.4-25.6-1.92 23.04-5.12-32.64 2.56-35.84 1.28 8.96 8.32 20.48 3.84z" id="reuse-44"/><path fill="#fff" d="M699.84 876.48l77.28-8.16 106.08 5.28v10.56l-43.2 5.76-54.72 7.68 9.6 5.76-22.08 1.92-84.48-8.64L700.8 888l-.96-11.52zM695.04 1094.08L902.4 1080l250.88-16.64 161.28 2.56 225.28-5.12 102.4-7.68 40.96 10.24 286.72 48.64-488.96 99.84-785.92-117.76z" id="reuse-43"/><path fill="#1775b8" d="M1336.32 849.6h76.8l85.44-1.92 39.49 2.56 24.83 4.16-65.28 4.8-140.16-2.88-21.12-6.72z" id="reuse-42"/><path fill="#fff" d="M-10.56 768.96l112.32 11.52h71.04l291.84 1.92 53.76 13.44-48 9.6-71.04 15.36-107.52-1.92 30.72 11.52-74.88-1.92-130.56 3.84-138.24-17.28 10.56-46.08z" id="reuse-41"/><path d="M467.2 814.4l10.24-8.32 40-10-115.16 9-399.13 2.76c-8.41 3.47-13.35 7.17-12.75 11 .3 1.94 106.6 15.72 106.6 15.72l1.76 5.6 7-5.84 24.24 3.16 46.7.62 66.87-2.57 13.75 3.83v-1.28h1.92l1.28-4.48 28.48 2.24 33.6 1.44v.12l-.32-7 7.2-3.83 12.32 1.29v6.4l4.48-5.12 53.72-2.58 5.12-3.2 60.8-14.08zM688.32 896.64l-.48 7.2 82.56 9.6 9.12 7.2 4.32-5.76 13.92-.96-1.44-7.68 16.8-6.72 16.32 2.4 12.96-5.28 40.8-2.88 3.84-3.84-3.84-16.32-194.88 23.04z" fill="#4cc4f5" id="reuse-40"/><path d="M1620.48 932.16c-5.76-1.92-140.16 13.44-140.16 13.44l-49.92 21.12 119-9.6 103.68 15.36zM-23 838.08c5.76 3.84 505 32.64 505 32.64l61.44 26.88-30.72 7.68 36.48 1.92h73l115.2 9.6 36.36 19.2-69.12 28.8-138.24 13.44 40.32 9.6-59.52 11.52-140.2 19.2-280.32 3.84 80.64 15.36-245.72 13.44z" fill="#fff" id="reuse-39"/><path fill="#4cc4f5" d="M1430.4 966.72l.5 5.2 26.38-2.64 60.16-2.56 30.08-3.84 4.48-2.56 1.92 5.12 19.84 3.2 35.84 9.6 10.88-5.76 1.92 7.68 22.75 3.33 7.97-11.01-94.54-22.6-17.7-.11-110.48 16.95z" id="reuse-38"/><path d="M1946.88 863c-7.68-1.92-136.32-3.84-136.32-3.84L1674.24 911l44.16 23 117.12 30.72 51.84-13.44 5.76 25 82.56 5.76z" fill="#fff" id="reuse-37"/><path fill="#4cc4f5" d="M1955.89 926.7l-1.33-6.06-280.32-9.6-.36 8.92 24.12 8.2 10.8 9.76h15.36l8.32 10.24 16.64-.64 4.48 6.4 56.96 22.4 8.32-12.16 3.2 16.64 14.08 9.6 1.92-20.48 13.44-1.92 1.28 14.08 8.96-3.2 23.04-21.12-3.84 28.16 6.4 27.52 5.12-25.6 10.24 6.4.64 25.6 7.68-22.4 4.48 23.04 21.12-29.44 19.25-64.34zM638.4 982.08l21.12 6.72 16.32-13.44 24 1.92 12.48-8.64 60.3-16.32 1.14-16.32-508.16 39.68-279.04 49.28-8.15 51.5 228.95-13.74v-24.96l91.2-2.88 10.56-7.68 12.48 13.44 48-6.72 67.2-3.84 22.08-12.48 14.4 8.64 38.4-3.84 66.24-10.56 33.92-8-5.12-16 31.68-5.76z" id="reuse-36"/><path d="M1153 766.08c-5.76 0-322.08 44.64-322.08 44.64l123.36 35h36.48l-57.6 11.52L985 874.56 856.32 916.8s-32.64 30.72 99.84 19.2 299.52 1.92 299.52 1.92l211.2-28.8 119-5.76 149.76-53.76 63.36-26.88-76.8-19.2-23-19.2zM1939.2 803.52l-90.24-3.84 1.92 23.04 92.16 24.96-3.84-44.16z" fill="#fff" id="reuse-35"/><path fill="#4cc4f5" d="M1590.4 913.6l8.32 5.76 6.4-13.44 3.84 11.52 14.72-3.84.64-8.96 7.04 5.76 12.8-3.84 13.44-22.4 19.2 5.12 40.32-22.4 14.72-10.88 27.52-5.12 39.16-24.34.52-3.82-969.12-12.64-6.36 17.91 28.28 3.69 6.4-6.4 2.56 12.8 38.4 7.04 3.84-7.68 7.04 14.72 24.96 6.4-5.76 17.92 8.96-3.2 3.84 8.96 15.36-8.32-5.12 20.48-37.68 10.62-.11 6-62.06 13.45-3.86 18.42 24.35 2.71 3.2 12.8 10.24-9.6 56.96-1.28 5.12 14.72 6.4-12.8 28.8-1.92 40.32-2.56 8.32 15.36 6.4-15.36 11.52-1.28 1.76 17.12.8-3.68 8.32-18.56 36.48 8.32 7.68 10.88 45.44-11.52 18.56 11.52 19.84-10.88 69.12 3.84 61.44-5.76 3.2-8.32 9.6 4.48 14.08-4.48L1440 923.2l3.84-7.04 7.04 5.12 16.64-7.68 17.92 9.6 104.96-9.6z" id="reuse-34"/><path d="M2013.44 715.2l-2035.2 2.56-5.12 10.24 2019.84 43.52 20.48-56.32zM0 931.45l1920-67.46V781.6L0 744.13v37.58l1415.26 47.12L0 844.58v86.87zM-121.6 1106.88L2026.24 984l-2176 79.36 28.16 43.52z" id="reuse-33"/><path d="M-21.12 808c1.92 0 423.36-2.88 423.36-2.88L518.56 796l1.2 21h-54.44l-5.16 13.4H441.6l-32.6.6-13.44 7.68-72.32-1.28-1.28 17.28-63.36-7 .64-8.32-9.6 8.32-26.88 5.76-95.36-5.12L57 838.08l-2-6.4-9.6 6.4-66.56-12.16z" fill="#0f72db" id="reuse-32"/><path fill="#0b529e" d="M1430.4 966.72l1.92 19.84 16.64 5.76 18.56-19.84 32.64.64 29.44 2.56 21.76-5.76 32.64 8.96 55.68 12.16 13.44-18.56-101.76-24.32-120.96 18.56zM773.76 936l-1.92 27.52-30.08 13.44-26.24 8.96-5.12-10.24-1.28 8.96-28.8 9.6-68.48 9.6-3.2 24.96-83.2 5.76-3.84-8.32-5.12 10.88-61.44 7.04-2.56-19.2-3.2 20.48-25.6 3.2-104.32 6.4-21.76-9.6-7.04 10.88-81.28.64-3.2 13.44-1.92 19.2-229.76 12.16 12.16-76.8 279.04-49.28L773.76 936zM543.36 897.6l2.56 23.68-46.72-5.76 1.28-19.84 42.88 1.92z" id="reuse-31"/><path fill="#0b529e" d="M829.92 810.08l-11.2 31.52 34.8 11.04 45.56 2L915.14 879l-.61 32.02-62.06 13.45-5.76 27.53 37.13 28.16h45.44l53.12 7.04 17.92 12.8 24.32-18.56 23.68-3.84 4.48-20.48 8.32-18.56-.64 20.48 6.4 17.92 123.52 9.6 57.6-23.04 42.88-7.04 78.72-4.48 93.44-20.48 4.48-17.92 1.92 19.2 71.68 1.28 48.64 18.56 39.68-27.52 19.2-4.48 10.24-29.44 5.12 18.56 51.84-30.08 8.32-14.72 14.08 5.76 17.28-12.8 30.08-7.68 3.2-14.08 8.32.64 1.92-14.08-969.12-12.64zM1848.96 799.68l-5.76 14.08-1.92 19.84 10.88-1.28 16 8.96 17.92 12.16 55.68 7.68-1.28-33.92-91.52-27.52zM1674.24 911.04l-.64 16 14.72 3.84 22.4 14.72 10.88-3.2.64 7.68 22.4 7.68 3.84-4.48 1.28 5.76 62.08 28.16 6.4-7.04 4.48 8.96 12.8 8.32 39.04-10.24 8.96 21.76.64 23.04 8.96-3.84 9.6 5.12 25.6 7.04 44.8-35.2-18.56-84.48-280.32-9.6z" id="reuse-30"/><path d="M217.2 123l1297.92-92.16s117.12-32.64 59.52-38.4-138.24 0-138.24 0 61.44-5.76 69.12-42.24S768.24 53.88 768.24 53.88s59.52-23 30.72-44.16S217.2 123 217.2 123zM105.84 217.08l339.84-34.56s7.68-40.32-107.52-5.76c1.92-26.88-17.28-44.16-128.64 17.28-23.04-11.52-55.68-3.84-103.68 23.04zM827.76 222.84s576-38.4 616.32-49.92 90.24-26.88 51.84-48-282.24 38.4-282.24 38.4 142.08-44.16 145.92-59.52-313 69.12-349.44 88.32c9.6-24.96-134.4 3.88-182.4 30.72z" fill="#fff" opacity=".49" id="reuse-29"/><path fill="url(#e)" style="mix-blend-mode:multiply" d="M0 684.83h1920V1080H0z" id="reuse-28"/><path d="M473.25 614.29c1.05-23.36 6.4-46.29 7.93-69.61.89-13.62 1.82-42.07-11.7-51.09-10 13.46-7.34 29.12-4.62 44.45 4.48 25.34 5.04 50.89 8.39 76.25zM542.35 619.16c6.36-6.46 5.65-18.45 5.52-26.73 0-1.37-3.31-27-6.24-24.65-9.04 7.13-7.14 43.65.72 51.38zM120.68 434c-10.88-9.27-29.55-15.73-43-7.68C67 432.7 65.92 446.45 65.3 457.8c-1.41 25.88-.1 52-1.1 77.95 6.4-24.87 6-49.95 9.72-75 2.42-16.38 13.73-11.25 26.71-14.28 7 30.69.69 65.44 2.24 96.7 16 5.86 8.44 37.83 11.11 50.36 1.74-12.21 8.82-34.95 4.09-47.13-2.65-6.84-7.91-6.94-9.6-14-2.29-9.51 1-24.6 1.69-34.18.53-7.37.23-15.16 3.27-22a27 27 0 0010.28-1.14c1 14.84-3.72 33.84 1 47.65 7.49-26.73 20.48-67.82-4.03-88.73zM670.46 426.83c13.3-2.72 19.73-9.19 18.24-23.26-10.22.25-18 8.1-27.59 10.9-2.49.73-25.91 7.42-27.23 5.94 11 10.17 10.62 40.26 12.23 55.46-.26-11-.77-26.25 2.11-37.05 2.92-10.98 11.22-9.74 22.24-11.99zM1119.34 478.56c.89-5.69 6.54-38.24-8.64-27-7.65 5.65-2.36 20-2.15 27.62.46 16.06.71 32.21.21 48.27 3.9-15.94 8.12-33.19 10.58-48.89zM1081.43 523.27c-.6-4.31-3.28-20.25-2.21-23.83-3 10.13-3.21 16.68-3.47 27.41-.09 4 1.5 31.15-1.33 32.75 6.37-3.59 10.19-2.11 12.13-9.2s-4.08-19.61-5.12-27.13zM1298.78 435.07c-22-10.23-35.23 15-36.61 32.35-1.41 17.87 2.77 36 3.09 53.56-.21-11.75 8.81-20.8 9.62-32.67.78-11.53-1.18-18.81 9.91-25.17 2.79 10.64 1.5 21.5 6.16 32 7.53-17.77-4.33-45.72 7.83-60.07zM1538.9 491.79c-6.66 1.27-24.09 6.56-25.55 5.37 6.33 5.19 10.56 19.33 18.69 21.33 1.29 14.48-2.3 29.73-1.7 44.45 8.25-12.69 11.28-39.47 6.41-54.25 5.48-1.61 22.17-2.43 17.18-13.1-2.16-4.6-8.79-4.07-13-4.06a12.18 12.18 0 00-2.03.26zM1777 514.89c3-11 18-8.17 14.22-22.58-7.81-1.29-15.71 1.46-23.45 2.38-3.16.38-9.12.43-11.62 2.77-.09.09-5.07 5.32-2.62 5.44 5.84.28 11.9-.23 17.61.44 1.29 28-7.42 62.31 3 89 .68-13.83 2.74-27.49 2.87-41.47.07-10.55-2.91-25.6-.01-35.98zM1906.7 508.82c1.12-11.55 10.08-25.88-4.8-30.88-14-4.72-32.8 9.32-36.51 22.52-1.74 6.21 1 5.76 1.65 10.65 2.17 16.77 4.42 32.65 5 49.71.79 25.07 5.68 50.38.2 75.7-1.52-10.44 3.71-22.16 5.16-32.56 1.48-10.61 3.67-21.26 4.8-31.9s3.19-20.84 1.12-31.32c-2.3-11.63-3.18-20.37-.44-31.78.93-3.86 0-6.62 2.73-9.78 1.67-1.93 14.57-5.36 14.26-7.5 2.18 15.29-.86 34.84 3.81 49.24 3.72-10.43 1.97-21.27 3.02-32.1z" fill="#c4eeff" id="reuse-27"/><path d="M311.69 666a55.78 55.78 0 00-2.58-10.82c-4.71-12.46-1.85-41.52-17.53-46.94-4.69 7.67-1 21.71-.59 30.38.75 14.51-4.21 32.93-12.38 45.91h36.62c-1.92-5.73-2.55-12.31-3.54-18.53zM357.74 684.48h19.81a.09.09 0 010-.05c-3.71-18.74-4.13-39.06-9.62-57.18-.89 10.22-11 18.6-10.88 27.47.08 6 7.26 9.45 6.69 16.91-.34 4.53-3.53 9.2-6 12.8zM761.11 493.86c-1.3 10.37-2.7 19.12-2.71 29.72a156.93 156.93 0 003.89 36.29c-.64-7.17 1.81-13.89 5-21.16 1.59-3.61 4.2-5.49 3.53-10.27 3.61 12.43 1.38 26.68 4.75 39.38 12.53-15.29 3.54-48.05 1.22-65.91-1.15-8.88-2.29-18.3-5.43-26.73-1.28-3.43-9.18-13.1-8.8-15.71-1.75 12.04.04 22.53-1.45 34.39zM1713.39 684.48a29.42 29.42 0 00-.54-6.81c-2.22-11.13-6.78-21.39-7.36-33.24-.21-4.33 5-22.21-3-21.36-4.81.52-2.81 27.21-4.25 30.69-1 2.32-2.3 7.3-1.79 10.39 1.11 6.7 4.69 6 7.26 11.86a19.26 19.26 0 011.32 8.47zM1077.62 629.87c-1.73-6.43-5.25-12.87-7.6-19.12-1.16-3.09-11.22-16.66-11.2-17.7-.29 17.14 13.78 38.66-1.62 52.93-6.29 5.83-20.17 6.21-25-.82-1.29 13.5 5.54 26.05 6.41 39.32h38.58c.5-17.57 4.98-37.75.43-54.61zM35 664.25c-6.15 5.86-14.28 10.15-21 15.39a73.54 73.54 0 00-5.64 4.84h52.11a45.74 45.74 0 00-3.67-14.1c-1.67-3.9-12.06-19.33-8-23.42-5.32 5.37-8.46 12.16-13.8 17.29zM1388.19 546a118.77 118.77 0 0116.45 15.3 11.73 11.73 0 012.3-3.56c1 3.24 1.84 6.53 2.56 9.84a55.55 55.55 0 015.35 9.77c4.61 11 5.55 23.82 8.51 35.09-2-8.29-2.92-22.14 3.3-27.83 1.75 2.45 1.55 5.2 2.75 8.51 4.62 12.77 7.11 24.78 14.89 36.79l.21.32c-4.61-12.81-10.27-29.2-8.38-43.14 2-14.56 14.31-25.94 17.52-39.73-6.27 1.68-13.83 1-20.31.65-2.35-7.34-.42-16-2.87-23.09a29.09 29.09 0 01-14.4 5.83c-2.46-6-17.23-18-22.06-23.06-1.26 7.35 1.19 11.64 3.72 18.08 5.27 13.44 3.06 13.65-9.54 20.23zM1453.39 607.2c.41 13.89 3 27.31 2.89 41.51 2.32-18.94 13-34.87 14.77-53.77.21-2.37 5-43.47-.49-42-11 2.88-9.32 20.14-11.87 29-2.43 8.42-5.56 16.26-5.3 25.26zM1547.59 684.48c-6.86-8.11-16.5-15.57-21.25-20.91-6.72 4.81-3.39 13.92-3.89 20.91zM1318.61 684.48c-1.51-16 1-30.84.43-47.05-.42-12-2.92-23.9-3.36-36-.25-6.94-1.55-14.17 2.32-20.38 1.63-2.61 5.32-3.41 6.71-5.7s1.55-7.37 2.79-8.9c-6.83 8.45-15 9.88-17.14 21.26-2.36 12.71.64 27.07 1.21 39.87.59 13.29 3.79 30.44-1.6 43-2.24 5.23-6.72 9.55-11.18 13.88zM918.48 684.48c-3.65-12.85-13.31-24.31-14.16-37.44-.68-10.58 9.77-22 6.57-32.2-1.63-5.2-11.87-15.93-16-18.87-4 10.62 7.35 19.37 7.27 29.87-.09 12.93-10.08 23.21-8.4 36.93 1 8.09 3.17 13.91 1.77 21.71zM1423.36 612.44l.51 2-.51-2z" fill="#4cc4f5" id="reuse-26"/><path d="M896.11 592.08a10.5 10.5 0 01-.15-5.7 10.69 10.69 0 01-7.83-10.78c.25-21.65-1.37-42.28-2.54-63.84-1.13-20.68 1.58-41.31 4-61.86-3.36.16-6.69.36-9.92.63-2.42 44.29 1.48 90.52 3.36 135 .24 5.88-2.88 10.9-1.09 17.21 2.81 9.94 12.71 13.36 12.79 25.1.09 11.58-7.4 14.73-11.83 24.54-1.94 4.31-.88 13.41-2.45 18.47-19.37-9.16-43.77-1.73-64.56-9.54-1.87 2.32-2.92 6.07-4 8.85-14.64-1.64-35.49-5.73-48.08-14.47-12.92-9-13.53-24.84-17-40.09-7.17 13.31 0 26.54 1.68 40.18-17.65 0-32.63 9.41-42.13-2.09a11.82 11.82 0 01-7.37 2.74c.22 2.57.36 5.14.37 7.71 0 .45 0 .88-.06 1.32 17.94-5.25 41.79-9 48.6 9.88 7.57-1.76 14.51-5.49 22.41-5.64 10.75-.19 15.29 7 24.39 10.07 10.77 3.63 27.27.65 40.12-1.43C838.8 669.51 850 667.82 862 671c12.24 3.23 24.74 4.82 37.34 6.15-.43-12.17-1-24.52.81-36.4 1.3-8.65 6.14-17.54 4.37-26.49-1.44-7.26-6.28-14.84-8.41-22.18zM630.81 684.48h37.28c4.25-9.4 8.73-17.8 6.87-30-3-19.44-7.17-38-7.63-57.8a11.22 11.22 0 01.69-4.2c-3.33-27.95 3.59-63.15 1.78-85.88-14.87 29.73 1.41 67.93-10.08 97.62-4.05 10.49-9.27 9.56-8.66 22 .31 6.36 6.89 13.83 8.21 20 3.23 14.92.67 19-7 32-22-2.79-44.8.68-63.88-1.29a543.6 543.6 0 0042.42 7.55zM107.39 651.28c.63 11.06.37 22.13.16 33.2h23.5c-1-12.44-3.71-24.07-9.9-35.94-3.89-7.45-7.34-14.51-9.2-22.13-5.25 6.11-4.64 15.38-4.84 23.07a11.46 11.46 0 01.28 1.8zM1632.64 673.29c3.32 1 10.27 3.69 13.65 7.47.58-1.9 1.33-3.86 1.71-5.45 1.12-4.7 4.24-7.07 7.78-7.68-2.55-12.9-8.54-27.28-8.62-38.42-19.26 1.48-8 20.91-5.81 32.95-27.36-5.42-28.69-.56-42 15.17a9.26 9.26 0 00-1.36 2c10.57-6.03 22.52-9.65 34.65-6.04zM209.41 489.2c-.13-26.86-1.31-53.69-1.74-80.54-3-.16-6.1-.32-9.15-.53l-2.42-.13a53.12 53.12 0 00.59 10.3c3 20.13-.85 38.83-.85 59.13 0 35.3 6.79 70.64 6.19 105.32 3.69-19.14 16.61-42.79 18.79-62.38.91-8.21-2.92-13.82-3.73-20.43a10.91 10.91 0 01-7.68-10.74zM245.67 469a19.85 19.85 0 01-3.67 1.1l-.44.07c-2.35.34-4.64.71-7 1-.12 1.51-.27 3-.48 4.45a12.19 12.19 0 01-.85 3c2.94 11.75.71 24.93 3.19 37 9.67-13.83 10.24-29.24 9.3-45.73.02-.23-.01-.53-.05-.89z" fill="#66d3ff" id="reuse-25"/><path d="M1010.7 513.37c.15-1.55.23-3.1.41-4.65 1.4-12.35 7.48-25.72-.07-36.18-4.3-6-7.74-12-8.86-17.45-2 1.24-3.33 3.61-3.23 7.91.09 4 4.82 7.37 6.53 10.87 3.53 7.23 4.1 16.2 4.77 24.09.43 4.92.45 10.13.45 15.41zM975.22 545.91c.6 10.74 1.12 21.63 1.37 32.49 3.15-24.65 4.34-49.8-.48-72.48-2.92-13.75-11.21-26.4-14.56-39.55-5.29 3.85-6.79 16.09-1.64 21 6 5.7 9.75 7.25 10.87 16.42 1.69 13.83 3.64 28.04 4.44 42.12zM756 545.33c3-17.5 8.9-28.26 7.13-46.81-1.52-16-3.52-29.88 3.1-44.95a158.71 158.71 0 019.25-17.49 67 67 0 01-10.69-2.37c-17.07-5.35-25.4-21.87-24.62-37.61-.65-.13-1.28-.2-1.92-.32-3.66 7.9-4.71 17.92-1.51 30.05 6.65 25.23 8.72 45.52 10.54 72.11 2.31 33.67 1.75 68.72 4.24 101.52a26 26 0 004.84-6.31c-.78-15.93-3.04-32.01-.36-47.82zM779.17 546.14a49.05 49.05 0 00-1.26 6.43c-1.75 14.88.88 30.2 1.41 45.13 8.21 13.8 10.23 32.3 11.67 48.13 4-16.79 3.71-34.22 2.81-51.62-4.35-16.21-10.47-31.91-14.63-48.07zM1390.21 506.48c0-13.73 18.64-13.69 22.48-2.24 9.63 28.67 7.74 58.9 15.17 87.92 2.81 11 6.43 21.76 8.48 32.59l2.76-2.45c12.92-11.57 22.47-25.34 27.46-42s4.79-34.75 10.22-51.46a160.11 160.11 0 015.93-15c-11.77 9.76-29.81 11.33-42.93 2.95-22.42-14.32-39.21-33.83-55.79-54.26-7.4-9.12-15.61-20.57-25-29.16-3.22 11.36 4 18.33 8.13 30.31 3 8.61 11 83.57 11.28 115.58 11.92-22.12 11.83-47.01 11.81-72.78zM1184.32 533.23c6.47-14.33 5.61-29.17 2.5-44a39.71 39.71 0 00-3.84-6.44c-2.28 4.49-.75 9.3-.17 14 .78 6.3-.09 12.93-.09 19.28 0 8.9-.49 18 .12 26.91.42-.46.88-1 1.34-1.6a9.24 9.24 0 01.14-8.15zM1239.81 617.57c1-13.63 3.74-27.91 1.08-41.21-2.09-10.52-9.65-19.64-10-30.52s4.36-21.71 4.36-32.84c0-10.35-1.09-20.67-1.83-31-.44 4.49 0 9.49-.18 13.33-.54 13.21-4 25.38-5.87 38.31-1 6.71-4.53 17.76-1.35 24.18 1.82 3.7 5.9 6.22 8 10.24 8.1 15.69 4.04 32.94 5.79 49.51zM1791 684.48c-.48-2-1-3.93-1.43-5.9l-1.78-.07a196.67 196.67 0 01-6.69-28.38c-3.32-13.26-5.55-26.84-7.58-40.53-2.14 22.23-.31 44.72-1.65 67-16.41-.12-37.92 8.91-47.78-6.45-7.54-11.72-5.2-47.43-5.61-61.57-.92-31.76-.41-64-2.17-95.69-21.45-8.27-14.39 35.47-14.84 46.59-.41 10.3 3.63 18.7 4.85 27.84.73.68 1.48 1.35 2.2 2.06 5.29 5.17 3.67 11.65-.58 15.51a12.1 12.1 0 01-5.86 5.5c-3.49 7.86-7.84 15.34-8.85 24-29.55 9.78-9.78 20-3.92 44.44-6.11 1.27-12.62 1.85-19.07 5.69zM1824.53 682.8l.21 1.68h9.84c-2.82-8.76-5.72-17.48-7.57-26.45a45.33 45.33 0 01-12.56-3.7c2.61 6.88 4.4 15.53 6.59 22.65a9.44 9.44 0 013.49 5.82zM1650.67 531.6a11.22 11.22 0 017.28-13.21 67.42 67.42 0 0110.57-26.12l-3.77 1c-9.56 2.54-20.11.09-28.59-5.46-2 11.62-5 23.16-4.84 34.89.17 15.13-.28 32.28.43 47.91a205.85 205.85 0 004 34.22c3.58-11.58 8.57-22.54 9.07-34.87.45-10.82-.47-21.52 3.13-31.92a11.43 11.43 0 013.11-4.77c-.06-.56-.26-1.1-.39-1.67zM1667.09 583.73c-.27-.09-.56-.16-.83-.26-.06.28-.09.57-.15.85 4.05 12.3 7.84 24.72 10 37.5a71.92 71.92 0 005.34-17.73c-6.24-5.22-10.81-12.57-14.36-20.36zM1828.56 591.39a.53.53 0 00.06-.1c4.85-29.84 10.31-59.24 4-89.22-2.19-10.37-4.06-21.08-2.83-30.83-2.51.3-5 .61-7.54.88.67 6.7 2.08 13.43 3.08 19.84 5.03 32.75-1.15 66.5 3.23 99.43zM18.75 684.48h49.06C61.17 667.29 52.1 650.91 50 632.35c-1.54-13.74-.09-27.37 1.89-41-3.46 8.68-7.19 17.18-8.79 23.39-2.7 10.52-4.56 19.6-9.81 26.5-4.07 14.67-9.54 28.87-14.54 43.24zM291.06 578.79a11.42 11.42 0 01.14 6.38c-3.92 15.28-14 28.18-17.69 43.34-4.12 17-1.75 37.77-1.14 56h49.41c-3.16-24.89-10.8-48.8-12.4-74.22-1.81-28.73-4.78-57.27-10.26-85.52a156.92 156.92 0 00-10.78-24.27c-1.52 22 1.74 42.76 3.59 64.5.59 6.87.24 10.81-.87 13.79zM151.19 663a116.52 116.52 0 012.92 21.53h49.21c-20.23-7.1-42.15-19.24-52.13-21.53zM385.66 684.48c3.41-7.79 1.81-18-.4-27.64-1.15-.32-2.3-.63-3.43-1 .81-17.35-7.54-34.19-8.39-51.69-1.1-22.74.79-46.26 6.91-68.11-36.8 10.55-14.88 63.94-24 91.76 2.45 17.49-3.3 40.45-7.9 56.67zM544.85 660.54a97.18 97.18 0 00-1-22.09c-6.55 26-21.1 35.5-50.76 30.22-2-10.45-6.25-27.89-18.51-28a358.01 358.01 0 00-6.4 28.75c-18.54-6.3-39.63-6.29-59.75-8.46a91.54 91.54 0 011.11 15.51c7.5-1.36 15.23-.67 23 .2 6.63.74 32.37 7.38 36.82.73 4.67-7 15.65-7.11 19.68.68 4.17 8.07 35.54 1 42.46-2.08 6.5-2.83 10.5-8.68 13.35-15.46zM692.82 620.11q1 5.31 2.06 10.6a28.48 28.48 0 014.39 1.61c-1.16-19.59 6.59-42-.72-59-11.23 11.5-4.12 31.34-5.73 46.79zM1570.18 640.7c1.33-17.36 7.74-31.75 4.5-49.44-2.55-13.9-6.65-28-5.08-42.24a66.77 66.77 0 015.39-18.81c-6.87 3-12.8 5.72-14 16-1 8.71 6.13 29 7.4 39.38 1.25 10.19 1.57 16 .76 26-.38 4.62-6.06 8-6.33 12.45-.32 5.4 5.36 11.43 6 17.55 1.08 11.15 2 36.36-7.37 40.69.29.72.58 1.44.85 2.16h9.57c-1.07-14.55-2.81-29.19-1.69-43.74zM1493.32 684.48h34.43c-1.42-18-12.17-35.05-12.86-53.56-.63-16.76 3-33.19 5.5-49.74-3 8.55-6.27 17.2-6.85 19.68-3.19 13.73-8.89 31.75-6.34 46 2.89 16.23 16.31 21.73-1.75 30.87-6.76 3.41-17.78 2.86-27.53 2 5.08 1.56 10.25 3.27 15.4 4.75zM1389.79 608a15.84 15.84 0 00-6.13 0c-.33.11-.65.21-1 .29-6.45 2.55-1.85 12.87-2.67 20-2.5 21.69-11.5 28.14-24.39 30.87-.08.51-.2 1-.3 1.5 16.31 1.19 29.64-4.76 38.46-20.56-3.05-16.27-4.76-32.25-3.97-32.1zM1275.14 676.23c4 1.38 5.94 5.35 8.26 8.25h12.84C1303 678 1308.1 664 1309.49 659c3.28-11.86 3.8-24.08 3.92-36.31a10.72 10.72 0 011.77-6c-.38-4.31-.78-8.62-1.21-12.89-.86-8.61-1.29-15.83 3.44-23.53 6.25-10.2 15.7-14 16.15-27.77a89.79 89.79 0 00-.42-11.5 50.52 50.52 0 01-4.31-12 164.11 164.11 0 01-2.65-23c-2.11-8-4.31-15.87-6.06-23.08a158.85 158.85 0 01-4.81-31.75c-3.87 8.95-5.08 15.52-3.61 29.27 1.67 15.42 14.91 46.34 11.77 62.11-2.37 11.94-15.16 15.87-18.33 27.54-6.25 23.09 8.45 62.48-3.9 85-6.85 12.48-15.88 14.62-25 11.49-.39 3.21-.75 6.42-1.1 9.65zM1147.73 580.08c3.93 22.48 7.83 45 8.74 67.82 6.65 12.51 7 24.07 4.35 36.58h22.82a107.67 107.67 0 012.6-14.93c3.29-12.06 18.34-8.76 22 .77 2.8 7.36 12.11 13.83 20.15 13.22 9-.68 11.86-9.22 14-16.9 2.22-8 3.4-16.13 4.71-24.28-2.7-3.45-5-6.83-6.92-9.79-2.51 8.14-2.59 29.61-10.21 34.45-11.07 7-25.38-5.16-24.43-16.5-21.6-1.62-32.49-4.26-38.11-21.17-6.31-19-.52-41.48-3.42-61.52a67.82 67.82 0 0024.71-20.65c-25.6 13.4-61 24.82-94.52 27 10.67 8.23 28.21 1.41 39.82-2.53 5.56-1.92 12.72 2.75 13.71 8.43zM959.89 677v.91c16.28-1.31 31.83 3.73 49 5.08 7.84.61 16.18 1.07 23.92-.64 10.63-2.34 6.39-6.61.71-14.52-5.38-7.51 2.77-16.75 10.44-16.8 32.69-.22 20.22-56.75 9.59-79.69a91.42 91.42 0 01-13-4c0 24.75 25.65 88-28.9 67.06-5.22 11.82 1 24.9 7.06 35.2-19.87-2.2-39.46 4.06-58.82 7.4z" fill="#66d3ff" id="reuse-24"/><path d="M1847.09 474.33c-3.46 10.32 1.93 31.43 0 43.76-3.56 23.19-6.34 53.13-18.57 73.3-4.38-32.93 1.8-66.68-3.27-99.43-1-6.41-2.41-13.14-3.08-19.84 9.57-1 19.12-2.24 28.65-3.56a15 15 0 00-3.73 5.77zM747.3 497.94c2.31 33.67 1.75 68.72 4.24 101.52 5.11-4.68 8.07-11.58 9-18.51 24.81 10.41 28.24 40.79 30.43 64.88 10.21-43.23-7.51-90.63 7.65-131.2 7.47-20 16-28.36 12.74-51.54-1.59-11.53-1.14-21.87-.57-32.57-13 7.21-30.32 8.1-46 3.19-17.07-5.35-25.4-21.87-24.62-37.61-.65-.13-1.28-.2-1.92-.32-3.66 7.9-4.71 17.92-1.51 30.05 6.67 25.23 8.74 45.52 10.56 72.11zM202 582.7c3.69-19.14 16.61-42.79 18.79-62.38 1.07-9.64-4.44-15.7-3.86-24 1-14.47 7.54-11.62 13.86-24.55 6.49 13.29 2.65 29.37 5.63 43.88 9.67-13.83 10.24-29.24 9.3-45.73-.28-5-5.11-22.48-3.75-26.41 5.25-15.22 28.28-20.55 30.4-.57 12.44-13.57 14.2-24.46 9-32.7-27.64-.71-55.29-.19-82.91-2.1l-2.36-.14a53.12 53.12 0 00.59 10.3c3 20.13-.85 38.83-.85 59.13 0 35.25 6.79 70.57 6.16 105.27zm1476.43-51.23c-.61-8.31-2.45-20.46.66-27.71a150.35 150.35 0 018.84-16.64c-7.79 2-15.53 4.1-23.21 6.14-9.56 2.54-20.11.09-28.59-5.46-2 11.62-5 23.16-4.84 34.89.17 15.13-.28 32.28.43 47.91.75 16.73 2.71 33.53 8.26 49.42 6.81-17.9 8.42-40.33 19.35-56 6.13 19 13.39 38 16.76 57.85 12.72-27.72 4.5-61.44 2.37-90.4zm-301.73 62.2c8.5-1.51 17.66-1.63 26.49-1.46.6-10.47-3.13-27.45 3.72-34.47 7.14 22.6 5.74 46.88 10 69.87.7 3.73-1.79 10.95.32 14.24 4.81 7.48 12 1.4 18.76 6.64 12.93 10.06 14.84 34.61 36.65 8.2 9.52-11.53 2.24-26.4 4.17-39.38 2.7-18.16 9-37.89 11.41-57.4 2.45-20 14.66-48.88 14.62-72.43a7.23 7.23 0 00-.91.7c-4.89 5.13-8.44 11.22-12.09 17.32-10.08 16.8-33.88 21.66-50.13 11.29-22.42-14.32-39.21-33.83-55.79-54.26-7.4-9.12-15.61-20.57-25-29.16-3.22 11.36 4 18.33 8.13 30.31 3.83 10.93 15.68 128.92 9.68 129.99zm207.38 76.08c.76 2.5 1.62 10.89 3.78 14.73H0v-32.15c7.44.2 14.33.48 17.92-.71 18.64-6.19 20.76-19.62 25.19-36.87 3.5-13.6 17.25-38.24 16-51.59 3.89 40.71-15.9 83.45 28.77 97.94 33.4 10.83 8.49-26.16 27.8-37.86 11.19 22.57 8.53 31.82 36.82 36.36 24.15 3.87 64.06 18.35 88.27 7.67 24.45-10.77 26.4-53.12 40-74 8-12.3 12.64-10.55 11.13-28.28-1.85-21.74-5.11-42.51-3.59-64.5 15.2 27.68 18.73 52.88 23.13 84.39.93 6.65 1.74 33.57 7.12 37.94 4.85 3.94 29.21 6 36.7 7.74 11.73-26.9-13-83.58 25.06-94.49-6.12 21.85-8 45.37-6.91 68.11.85 17.5 9.2 34.34 8.39 51.69 27 8.64 59.38 4.43 86.39 13.6a358.01 358.01 0 016.4-28.75c12.26.08 16.53 17.52 18.51 28 31.13 5.55 45.65-5.11 51.71-34.17 11.19 59.8 61.09 37.82 107.41 43.7 7.69-13 10.25-17.06 7-32-1.32-6.13-7.9-13.6-8.21-20-.61-12.44 4.61-11.51 8.66-22 11.49-29.69-4.79-67.89 10.08-97.62 2.91 36.47-16.75 105.11 19.65 124.33 9.9-15.54-5-43.19 9.1-57.65 9.07 21.11-5.07 50.52 3.44 72.56 8.83 22.88 25.87 9.93 46.53 9.89-1.7-13.64-8.85-26.87-1.68-40.18 3.44 15.25 4 31.12 17 40.09 12.59 8.74 33.44 12.83 48.08 14.47 1.09-2.78 2.14-6.53 4-8.85 20.79 7.81 45.19.38 64.56 9.54 1.57-5.06.51-14.16 2.45-18.47 4.43-9.81 11.92-13 11.83-24.54-.08-11.74-10-15.16-12.79-25.1-1.79-6.31 1.33-11.33 1.09-17.21-1.88-44.47-5.78-90.7-3.36-135 16.41-1.38 34.81-1.61 51.08 1.67a132.07 132.07 0 00-30.11 2c-1 13.34 1.56 26.48 1.78 39.83.35 18.99-7.4 37.19-7.4 55.61 0 16 7.19 29.23 16.22 40.91 4.89 6.32 17.12 12.68 16.34 22.87-.7 9.12-15.84 14.21-15.55 22.54.09 2.87 12.53 20.89 15 25.79 2.61 5.18 3.74 11.47 6.2 16.83 28 2.72 56.5-12.17 85.45-9-6.1-10.3-12.28-23.38-7.06-35.2 54.55 20.92 28.93-42.31 28.9-67.06 43.08 17.32 107.88 1 148.22-20.14a67.82 67.82 0 01-24.72 20.67c2.9 20-2.89 42.5 3.42 61.52 5.62 16.91 16.51 19.55 38.11 21.17-1 11.34 13.36 23.53 24.43 16.5 7.62-4.84 7.7-26.31 10.21-34.45 11.89 18.92 43.58 54.39 61.09 22.5 12.35-22.51-2.35-61.9 3.9-85 3.17-11.67 16-15.6 18.33-27.54 3.14-15.77-10.1-46.69-11.77-62.11-2.09-19.44 1.18-24.51 9.79-42.26 6.86 28.91 1.55 61.63 7.34 90.84 3.44 17.37 21.68 33.57 14.79 50.94-8.23 20.76-19.94 15.64-18.49 41.13.82 14.28 5.07 27.59 2.47 41.66 27.18-4.2 48.35.76 52.41-34.46 1-8.9-6.46-22.83 9.78-20.31-1.51-.23 6 57 14.59 65 16.23 15 41.92 4.71 61.63 5.74 10.79.56 29.64 3.93 39.44-1 18.06-9.14 4.64-14.64 1.75-30.87-2.55-14.23 3.15-32.25 6.34-46 1.17-5 13.6-35.3 11.37-38.87 15.38 24.6-4.48 54 5.31 77.28 6.94 16.53 22.94 25.36 30.74 43.32 9.94-3.62 9-29.61 7.87-41-.6-6.12-6.28-12.15-6-17.55.27-4.41 6-7.83 6.33-12.45.81-10 .49-15.83-.76-26-1.27-10.34-8.38-30.67-7.4-39.38 1.82-16.28 15.56-13.64 26.11-23-10.39 21.39-3.76 47-3.16 69.6.73 26.38-7.83 51.03.14 76.97zm-445.58-89.19a15.4 15.4 0 013.26-4.84c-18.54 4.76-38.42 7.14-57 17 13.75 11.54 9.88 32.47 9.49 49.3 2.59-12.06 9-25 22-24.79 14.13.26 15.42 13.63 21.33 25.12 15.13-18.73-6.64-43.05.92-61.79zm694.91 77.89a42.36 42.36 0 01-19-4.12c2.81 7.41 4.65 16.95 7.09 24.34-11.18.44-22.68.43-33.77-.16-7.81-23.87-9-49.4-13.74-74.1-3 23.92-.73 48.18-2.18 72.16-16.41-.12-37.92 8.91-47.78-6.45-7.54-11.72-5.2-47.43-5.61-61.57-.92-31.76-.41-64-2.17-95.69-21.45-8.27-14.39 35.47-14.84 46.59-.49 12.21 5.33 21.75 5.21 33-.16 15.73-11.72 27.07-13.45 41.88-29.55 9.78-9.78 20-3.92 44.44-6.11 1.27-12.62 1.85-19.07 5.69h171.39c-4.93-3.82-7.73-12.04-8.16-26.01zm-192.06 3.71c-27.36-5.42-28.69-.56-42 15.17-1.75 2.08-2 3.31-2.37 7.15h59.12c4.17-15.36-8.83-38.85-8.94-55.27-19.26 1.48-7.96 20.91-5.81 32.95zm248.38 21c-2 .19-4 1.28-5.92 1.28H1920v-3.2c-6.82-2.17-16.71.69-30.27 1.96zM1010.25 498c1.34 15.55-1.25 33.86 3.61 48.85-.59-31.7-3.11-63.46 9.35-92.43-2.23 5.19-24.65-8.82-24.26 8.62.09 4 4.82 7.37 6.53 10.87 3.52 7.19 4.1 16.16 4.77 24.09zm-35.82 130.88c-.22 2.88-.37 5.77-.35 8.71.02-2.91.17-5.81.35-8.71zm-3.65-125.13c1.69 13.87 3.64 28.08 4.44 42.16 1 17.16 1.81 34.72 1.47 51.91-.21 10.4-1.6 20.71-2.26 31.06 1.16-15 5.21-29.37 8.46-44.16 4.21-19.15 1.19-39.07 3.68-58.47 1.34-10.49 3.14-25.84-4.36-34.62-3.08-3.61-7.82-5.54-9.37-10.23-1.71-5.17 2.21-10.92-3.43-14.71-11-7.39-16.68 13.85-9.5 20.64 6.03 5.67 9.75 7.25 10.87 16.42zm211.94 12.36c0 8.9-.49 18 .12 26.91 5.07-5.43 13.66-21.79 14.33-29.3.48-5.34-3.27-12.74-6.18-17s-5-10.09-8-13.92c-2.28 4.49-.75 9.3-.17 14 .77 6.33-.1 12.96-.1 19.31zm51.28 51.95c10 19.19 1.65 40.75 8.08 60.46 2.7-5.32 2.38-13.15 3.67-19 2.1-9.52 3.68-18 4.09-27.91.54-13.22 1.08-24.54-6-36-2.54-4.08-6.42-8.72-7.58-13.46-1.7-6.92 1.62-13.23 3.29-20 1.57-6.41 1.12-12.67.34-19.1-.33-2.7-5.31-16.7-4.46-18.15-3.11 5.27-1.91 14.35-2.16 20.47-.54 13.21-4 25.38-5.87 38.31-1 6.71-4.53 17.76-1.35 24.18 1.75 3.66 5.83 6.14 7.95 10.2z" fill="#9ee3ff" id="reuse-23"/><path d="M1865.2 466.51a897.65 897.65 0 01-85.32 9.09c-11 .63-22.07.44-33.09 1-27.81 1.54-55.26 9.5-82 16.61-16.34 4.34-35.63-5.81-42.41-21.33-7.34 1.36-14.73 3.28-22.66 5.37a200.58 200.58 0 01-57.26 6.47c-8-.21-16-.58-24-.69-1.7 0-3.44 0-5.17.07-.57.18-3.65.69-5.31 1-.74.64-5.18 3.18-6 4-4.89 5.13-8.44 11.22-12.09 17.32-10.08 16.8-33.88 21.66-50.13 11.29-22.42-14.32-39.21-33.83-55.79-54.26-12.09-14.9-26.32-36-44.42-40.72-20.45-5.29-46.53-2.35-68.42-.59-26.74 2.14-53.39 3.43-80.13 5.3-33.73 2.35-67.26 7.19-101 8.68-34.64 1.52-69.23-1.88-103.75-4.28-58.07-4-116.73-8-174.58-.81-13.08 7.63-30.83 8.61-46.83 3.6-17.07-5.35-25.4-21.87-24.62-37.61a124.91 124.91 0 00-27.55-2.2c-31.32.7-62.26 9.5-92.59 16.55-68.91 16-135.71 17.14-206 10.72-36-3.28-71.85-7.54-107.89-9.88-35.89-2.32-71.81-.68-107.68-3.16-66.39-4.59-132-17.21-198.52-18.79V683.2H1920V455.67c-18 4.62-36.44 8.01-54.8 10.84z" fill="#fff" id="reuse-22"/><path d="M1647.32 294.36c1-14.5 10.09-27.44 9.84-41.82 18.49 12.66 40.8 34.82 64.42 33.57-15-19.46-33.94-34.82-45.11-56.47 19.87-.17 71.74-5.66 29.7-21.28-12.08-4.49-25.47-12.57-39.3-20.21a116 116 0 01-46 2.78c18.19 31.79 29.18 64.25 26.45 103.43z" id="reuse-21"/><path d="M744.45 581.68a516 516 0 00134.67-39.61 204.87 204.87 0 0081.3-46.19c23.21-42.3-38.68-59.74-56.52-92.44-28.95 27.74-42.74 16.2-43.36-21.08-10.08 30.58-44 48.45-70.67 65.29 21.47-23-15.47-98.09-.47-120.47 6.87-10.24 32.15-13.38 41.17-16.07 19.77-5.9 45.8-10.68 64.37-20.93-2.52.36-5.06.76-7.63 1.25-33.11 6.34-65.33 15.71-99.2 17.43-33.64 1.7-68.89-6.93-100.87-16.72-33.34-10.19-67.48-24.12-97-42.91-14.32-9.14-26.24-21.51-38.24-33.42-4.13-4.09-8.83-7.85-12.84-12-.84-.87-5.4-3.39-4.19-3.36a27.42 27.42 0 00-7.94-.75c4.52 20.41 13.76 41 23.75 58.1 20.35 34.88 44.48 53.25 75.77 76.18 36.19 26.53 61.29 67.14 86.42 103.61-29-5.13-52.4-24.45-79.15-35.58 5.37 21.09 22.05 41 40.56 53-24.87-14.43-53.61-21.69-76.45-40-18.29-14.7-29.3-37.28-48.33-50.57-2.53 25.22 21.76 43.44 20.09 68.31-20.33-2.94-26.93 23-34.73 37.55-10.42-26.16-29.08-41.34-33.87-70.42-3.59-21.85-3.82-58.15-14.9-76.85-5.35 18.46-12 23.3-11.94 43.17.05 17 10.1 58.6-8.9 68.62-6.55 3.45-12-4.21-17.94-2.66-7.53 2-13.55 10.72-22.18 13.4-17.17 5.34-32.3 1-35.46-18.37-4.35-26.71 6.07-56.36 3.73-84.12-16.65 18.57-73.16 78.55-95.91 71.48 25.46-25.1 46.95-55.14 70.63-81.87-20.6 16.28-43.74 28.91-64.82 41.88-28.2 17.35-56.12 38.83-88.95 47.87-21.43 5.9-81.15-1.24-38.16-28-18.82-1.42-40.81 4-58.8-2.12 25.18-19.77 58-30.54 85.08-47.88a34.72 34.72 0 01-15.08 3c-9.69 1.42-20.16 1.26-30.06.64 20.87-12.9 49.74-21 73.88-27.76 66.66-18.65 131.36-53 191.58-86.5-42 19.91-85.81 35.46-130.56 47.76C197.77 314.87 100.09 350 0 352.93v248.48l3.21 1.94c2.54 1.53 5.13 4.33 7.73 4.33h605.39c43.35-7.68 86.29-16.6 128.12-26zM1920 588.32v-362a965.44 965.44 0 01-102.94-52c9.65 7.82 18.74 16.23 26.47 26-8.48 1.7-17.53 2.18-25.26 5.67 11.42 6.14 29.45 15.88 28.34 30.63-13.88 0-32.69-9.57-45.81-15 21.38 51.32 36.17 113.66 43.89 169.25 1.41 10.16 3.6 21.55 2.9 31.8-1.07 15.83-6.57 30.29-19.61 40.72-15.61 12.48-21.7 4.88-36 8.18-17.9 4.14-20.6 16.92-41.53 7.31-16.7-7.66-23.08-23-27.89-39.57-.31 31.42-15 78.25-46.86 92.82-25.44 11.62-47-25.28-53.93-47.57-8 7.66-51.75 54.88-67.92 33-4.61-6.24 10.05-43.24 11.91-51.36 9.62-42 20.68-84.49 29.82-126.5-9.19 17.1-22.36 32.66-33.51 49.16-18.49 27.35-34.23 56.8-55.82 81.94-9 10.5-20 24.8-31.45 32.45-3.5 2.34-44.36 16.19-44.25 6 .21-20.19 31-50.26 42-66.66 25.91-38.85 50.43-78.19 75.62-117.71-24.51 31.93-62.15 57.66-97 76.79-27.14 14.89-69.47 45.79-101.54 42.48 32-52.15 81-87.42 123.94-129.26 13.46-13.13 26-27.07 38.55-41-49.4 35.43-102.7 65-160.8 83.64-54.13 17.39-105.22 18-160.25 4.74-71-17.09-138.53-45.44-209.09-63.86q-4.26-1.11-8.44-2.13c9.69 11.17 29.87 18.82 40 23.8 19.84 9.73 36.53 23 52.54 38.35 20.47 19.58 27 45.84 17.34 73.49-3.14 9-15.77 30.42-27.09 32.28-11.12 1.83-15.43-7.86-23.38-15.58-22.35-21.72-44.9-36.69-61.33-63.24 3.76 26.69 29.78 50.65 46.18 70.82 20.88 25.67 38.67 57.11 68.89 73.41 29.59 16 54.41 6 77.49-12.49 22.08-17.67 45.43-24.22 73.71-18.91s30.94 30.63 46.38 51c18 23.68 38.55 46.67 67.13 57.28a10.69 10.69 0 003.41 1.1h533.33c11.03-7.59 21.67-12.27 31.86-19.27z" id="reuse-20"/><path d="M781.52 323.53c16 3 43.45 9.91 64.49 12.85 17.49 2.44 19-.43 38.87 10.05 30.1 15.89 58.36 36.1 91.09 45.68 0-15.88-14.29-29.05-26.5-38.24A124.63 124.63 0 00997 359.1c-3.8-5-5.84-14.9-10.22-19.94 32.93-1.76 67.3 8.66 100.68 4.38-9.89-2.08-18.32-6.82-23.49-15.07a54 54 0 019.93-1.66c-30.43-10.14-60.9-20.17-91.94-28.27-32.33-8.44-61.54-13.45-94.67-7.11-27.14 5.19-53.69 12.37-81 15.75 11.54 2 24.09.09 34.71 2.78a116 116 0 01-59.48 13.57zM1920 226.35c-58.92-25.21-115.77-57.66-168.84-92.94-37.64 41.75-89.73 68.92-142.88 55-25.73 29.76-56 56-87.21 79.09-37.15 27.43-76.55 51.62-118.54 70.43 60.65-12.6 124-37.92 170.31-74.95-10 10.77-32.36 24.45-29.86 39.84 28 .64 50.58-29.52 70.78-45.1-2.22 63 46.38 19.92 52-20.57 16.16 32.06 47.26 43.36 67 4.24 6.27 21.07-10.57 44.86-13.75 66.71 20.91 2.84 48.69-22.76 51.14-44.6.67 12.25 7 28.9 18.76 30.07 21.74 2.16 22.9-30.5 25.48-45.39 22.65 13.5 60 44.15 89.52 34.2-3.58-22.69-21.21-36.62-36.34-53.91 9.9 5.14 32 15.68 52.5 20.27zM372.06 308.2c20.94 10.11 64.63-24.11 87.06-29.94-5.33 42.73 21.39 29 38.63 8.93 18.82 17.36 50.69 32.12 77 33.77-2.14-10.89-5.84-22.35-7.4-32.86 29.1 4.27 58.75 19.6 91.11 23-6.87-7.42-14.48-14.08-22-20.79 15.31 6.87 45.93 10.74 71.48 7.81-7-1.89-14-3.9-20.75-6-33.34-10.19-67.48-24.12-97-42.91-14.27-9.12-26.19-21.49-38.19-33.4-4.13-4.09-8.83-7.85-12.84-12-.84-.87-5.4-3.39-4.19-3.36-8.7-2.16-15.83.48-24.53 2.31a295 295 0 00-35.2 10.09c-46.29 15.89-90.55 36.92-137 52.7-19 6.47-38.17 13.24-57.45 20a121.92 121.92 0 01-27.43 9.61l-.89.31C312 293.91 363.41 277 419.93 262.23c-13.93 15.57-39.69 26.12-47.87 45.97z" fill="#e8f8ff" id="reuse-19"/><path d="M1751.16 133.41c-37.64 41.75-89.73 68.92-142.88 55-25.73 29.76-56 56-87.21 79.09-51.89 38.32-108.13 70.36-169.75 90.15-54.13 17.39-105.22 18-160.25 4.74-71-17.09-138.53-45.44-209.09-63.86-32.33-8.44-61.54-13.45-94.67-7.11s-65.33 15.71-99.2 17.43c-33.64 1.7-68.89-6.93-100.87-16.72-33.34-10.19-67.48-24.12-97-42.91-14.32-9.13-26.24-21.5-38.24-33.41-4.13-4.09-8.83-7.85-12.84-12-.84-.87-5.4-3.39-4.19-3.36-8.7-2.16-15.83.48-24.53 2.31a295 295 0 00-35.2 10.09c-46.29 15.89-90.55 36.92-137 52.7-108.74 37-221.88 84-338.27 87.36v254.83H1920V226.35c-58.92-25.21-115.77-57.66-168.84-92.94z" fill="#aac2e0" id="reuse-18"/><path d="M1751.16 133.41c-37.64 41.75-89.73 68.92-142.88 55-25.73 29.76-56 56-87.21 79.09-51.89 38.32-108.13 70.36-169.75 90.15-54.13 17.39-105.22 18-160.25 4.74-71-17.09-138.53-45.44-209.09-63.86-32.33-8.44-61.54-13.45-94.67-7.11s-65.33 15.71-99.2 17.43c-33.64 1.7-68.89-6.93-100.87-16.72-33.34-10.19-67.48-24.12-97-42.91-14.32-9.13-26.24-21.5-38.24-33.41-4.13-4.09-8.83-7.85-12.84-12-.84-.87-5.4-3.39-4.19-3.36-8.7-2.16-15.83.48-24.53 2.31a295 295 0 00-35.2 10.09c-46.29 15.89-90.55 36.92-137 52.7-108.74 37-221.88 84-338.27 87.36v254.83H1920V226.35c-58.92-25.21-115.77-57.66-168.84-92.94z" fill="#b5b2af" id="reuse-17"/><path d="M473.25 753c1.05 23.37 6.4 46.29 7.93 69.61.89 13.63 1.82 42.08-11.7 51.09-10-13.46-7.34-29.11-4.62-44.44 4.48-25.4 5.04-50.94 8.39-76.26zM542.35 748.08c6.36 6.46 5.65 18.45 5.52 26.73 0 1.38-3.31 27-6.24 24.66-9.04-7.14-7.14-43.66.72-51.39zM120.68 933.22c-10.88 9.27-29.55 15.74-43 7.69-10.68-6.37-11.76-20.12-12.38-31.46-1.41-25.88-.1-52-1.1-78 6.4 24.86 6 50 9.72 75 2.42 16.39 13.73 11.26 26.71 14.28 7-30.69.69-65.43 2.24-96.7 16-5.86 8.44-37.83 11.11-50.35 1.74 12.2 8.82 34.95 4.09 47.13-2.65 6.84-7.91 6.94-9.6 13.95-2.29 9.51 1 24.6 1.69 34.19.53 7.37.23 15.16 3.27 22a27 27 0 0110.28 1.13c1-14.83-3.72-33.84 1-47.65 7.49 26.87 20.48 67.9-4.03 88.79zM670.46 940.42c13.3 2.72 19.73 9.19 18.24 23.25-10.22-.25-18-8.09-27.59-10.89-2.49-.73-25.91-7.43-27.23-5.95 11-10.16 10.62-40.25 12.23-55.45-.26 11-.77 26.25 2.11 37 2.92 11.02 11.22 9.78 22.24 12.04zM1119.34 888.69c.89 5.68 6.54 38.23-8.64 27-7.65-5.66-2.36-20-2.15-27.62.46-16.07.71-32.21.21-48.28 3.9 15.95 8.12 33.21 10.58 48.9zM1081.43 844c-.6 4.31-3.28 20.25-2.21 23.84-3-10.13-3.21-16.68-3.47-27.42-.09-4 1.5-31.14-1.33-32.74 6.37 3.59 10.19 2.1 12.13 9.19s-4.08 19.59-5.12 27.13zM1298.78 932.17c-22 10.23-35.23-15-36.61-32.34-1.41-17.88 2.77-36 3.09-53.57-.21 11.75 8.81 20.81 9.62 32.67.78 11.53-1.18 18.82 9.91 25.17 2.79-10.63 1.5-21.5 6.16-32 7.53 17.78-4.33 45.73 7.83 60.07zM1538.9 875.45c-6.66-1.27-24.09-6.56-25.55-5.36 6.33-5.19 10.56-19.33 18.69-21.34 1.29-14.48-2.3-29.72-1.7-44.45 8.25 12.7 11.28 39.47 6.41 54.26 5.48 1.61 22.17 2.42 17.18 13.09-2.16 4.6-8.79 4.07-13 4.07a12.45 12.45 0 01-2.03-.27zM1777 852.35c3 11 18 8.18 14.22 22.59-7.81 1.29-15.71-1.47-23.45-2.39-3.16-.38-9.12-.42-11.62-2.76-.09-.09-5.07-5.32-2.62-5.44 5.84-.29 11.9.22 17.61-.44 1.29-28-7.42-62.31 3-89 .68 13.84 2.74 27.5 2.87 41.48.07 10.53-2.91 25.61-.01 35.96zM1906.7 858.43c1.12 11.55 10.08 25.87-4.8 30.88-14 4.71-32.8-9.32-36.51-22.52-1.74-6.22 1-5.76 1.65-10.65 2.17-16.78 4.42-32.65 5-49.71.79-25.08 5.68-50.38.2-75.71-1.52 10.45 3.71 22.16 5.16 32.56 1.48 10.61 3.67 21.27 4.8 31.91s3.19 20.84 1.12 31.31c-2.3 11.63-3.18 20.38-.44 31.78.93 3.86 0 6.63 2.73 9.78 1.67 1.93 14.57 5.36 14.26 7.5 2.18-15.28-.86-34.84 3.81-49.23 3.72 10.43 1.97 21.26 3.02 32.1z" fill="#85c7f7" id="reuse-16"/><path d="M311.69 702.15a51.29 51.29 0 01-2.58 10.39c-4.71 12.46-1.85 41.31-17.53 46.73-4.69-7.67-1-21-.59-29.63.75-14.51-4.21-33.64-12.38-45.16h36.62c-1.92 3.84-2.55 11.4-3.54 17.67zM357.74 684.48h19.8c-3.71 19.2-4.13 38.23-9.62 56.35-.89-10.22-11-19-10.88-27.89.08-6 7.26-9.66 6.69-17.12-.34-4.53-3.53-8.44-6-12 .04-.06.02.66.01.66zM761.11 873.38c-1.3-10.36-2.7-19.12-2.71-29.72a157 157 0 013.89-36.29c-.64 7.17 1.81 13.9 5 21.17 1.59 3.6 4.2 5.49 3.53 10.26 3.61-12.42 1.38-26.68 4.75-39.37 12.53 15.29 3.54 48 1.22 65.9-1.15 8.89-2.29 18.31-5.43 26.74-1.28 3.43-9.18 13.1-8.8 15.71-1.75-12.04.04-22.58-1.45-34.4zM1713.39 684.48a33.31 33.31 0 01-.54 6c-2.22 11.12-6.78 21-7.36 32.81-.21 4.32 5 22-3 21.14-4.81-.52-2.81-27.32-4.25-30.8-1-2.32-2.3-7.35-1.79-10.44 1.11-6.7 4.69-5.21 7.26-11 1.21-2.73 1.39-3.8 1.32-7.64zM1077.62 738.23c-1.73 6.43-5.25 12.44-7.6 18.7-1.16 3.09-11.22 16.44-11.2 17.48-.29-17.14 13.78-38.76-1.62-53-6.29-5.83-20.17-5.4-25 1.63-1.29-13.51 5.54-27 6.41-38.52h38.58c.5 15.32 4.98 36.85.43 53.71zM35 703c-6.15-5.85-14.28-9.29-21-14.52-2.18-1.7-4-4-5.64-4h52.11a48 48 0 01-3.67 13.24c-1.67 3.91-12.06 18.9-8 23-5.32-5.37-8.46-12.6-13.8-17.72zM1388.19 821.24a119.32 119.32 0 0016.45-15.24 11.85 11.85 0 002.3 3.56c1-3.25 1.84-6.53 2.56-9.84a55.55 55.55 0 005.35-9.77c4.61-11 5.55-23.83 8.51-35.1-2 8.3-2.92 22.14 3.3 27.84 1.75-2.45 1.55-5.21 2.75-8.51 4.62-12.77 7.11-24.79 14.89-36.79l.21-.33c-4.61 12.81-10.27 29.2-8.38 43.15 2 14.56 14.31 25.94 17.52 39.72-6.27-1.67-13.83-1-20.31-.65-2.35 7.34-.42 16-2.87 23.1a29.19 29.19 0 00-14.4-5.84c-2.46 6-17.23 18-22.06 23.06-1.26-7.35 1.19-11.63 3.72-18.07 5.27-13.53 3.06-13.71-9.54-20.29zM1453.39 760.05c.41-13.89 3-27.31 2.89-41.52 2.32 19 13 34.88 14.77 53.78.21 2.37 5 43.47-.49 42-11-2.89-9.32-20.14-11.87-29-2.43-8.42-5.56-16.26-5.3-25.26zM1547.59 684.48c-6.86 7.68-16.5 15.57-21.25 20.91-6.72-4.81-3.39-13.23-3.89-20.91zM1318.61 684.48c-1.51 15.36 1 30 .43 46.19-.42 12-2.92 23.48-3.36 35.59-.25 6.93-1.55 14 2.32 20.16 1.63 2.61 5.32 3.31 6.71 5.59s1.55 7.32 2.79 8.85c-6.83-8.45-15-9.91-17.14-21.29-2.36-12.7.64-27.08 1.21-39.88.59-13.29 3.79-29.59-1.6-42.18-2.24-5.23-6.72-9.19-11.18-13zM918.48 684.48c-3.65 11.52-13.31 23.46-14.16 36.58-.68 10.58 9.77 21.54 6.57 31.78-1.63 5.2-11.87 15.71-16 18.65-4-10.62 7.35-19.48 7.27-30-.09-12.94-10.08-22.41-8.4-36.13 1-8.1 3.17-13.23 1.77-20.91zM1423.36 754.8l.51-2-.51 2z" fill="#339eee" id="reuse-15"/><path d="M896.11 775.16a10.5 10.5 0 00-.15 5.7 10.7 10.7 0 00-7.83 10.78c.25 21.66-1.37 42.29-2.54 63.84-1.13 20.69 1.58 41.32 4 61.86-3.36-.16-6.69-.35-9.92-.62-2.42-44.3 1.48-90.53 3.36-135 .24-5.88-2.88-10.89-1.09-17.2 2.81-9.94 12.71-13.37 12.79-25.11.09-11.57-7.4-14.72-11.83-24.53-1.94-4.32-.88-13.41-2.45-18.48-19.37 9.16-43.77 1.74-64.56 9.55-1.87-2.33-2.92-6.08-4-8.86-14.64 1.64-35.49 5.74-48.08 14.47-12.92 9-13.53 24.84-17 40.09-7.17-13.3 0-26.54 1.68-40.17-17.65 0-32.63-9.42-42.13 2.08a11.87 11.87 0 00-7.37-2.74c.22-2.57.36-5.14.37-7.71 0-.44 0-.88-.06-1.31 17.94 5.25 41.79 9 48.6-9.88 7.57 1.76 14.51 5.49 22.41 5.63 10.75.2 15.29-7 24.39-10.07 10.77-3.62 27.27-.64 40.12 1.44 3.95 8.82 15.12 10.5 27.16 7.33 12.24-3.23 24.74-4.82 37.34-6.16-.43 12.17-1 24.52.81 36.41 1.3 8.65 6.14 17.54 4.37 26.48-1.42 7.29-6.26 14.85-8.39 22.18zM630.81 682.77h37.28c4.25 9.4 8.73 17.8 6.87 30-3 19.44-7.17 38-7.63 57.79a11.19 11.19 0 00.69 4.2c-3.33 28 3.59 63.16 1.78 85.88-14.87-29.72 1.41-67.93-10.08-97.62-4.05-10.48-9.27-9.55-8.66-22 .31-6.36 6.89-13.82 8.21-20 3.23-14.92.67-19-7-32-22 2.8-44.8-.68-63.88 1.29a553.12 553.12 0 0142.42-7.54zM107.39 716c.63-11.07.37-22.13.16-33.2h23.5c-1 12.43-3.71 24.07-9.9 35.94-3.89 7.45-7.34 14.5-9.2 22.12-5.25-6.1-4.64-15.38-4.84-23.07a11.34 11.34 0 00.28-1.79zM1632.64 694c3.32-1 10.27-3.7 13.65-7.48.58 1.91 1.33 3.87 1.71 5.46 1.12 4.7 4.24 7.07 7.78 7.67-2.55 12.9-8.54 27.29-8.62 38.43-19.26-1.49-8-20.91-5.81-33-27.36 5.42-28.69.56-42-15.17a9.22 9.22 0 01-1.36-2c10.57 6.03 22.52 9.66 34.65 6.09zM209.41 878c-.13 26.86-1.31 53.7-1.74 80.55-3 .15-6.1.31-9.15.52l-2.42.19a53.18 53.18 0 01.59-10.31c3-20.13-.85-38.82-.85-59.12 0-35.31 6.79-70.65 6.19-105.32 3.69 19.14 16.61 42.78 18.79 62.38.91 8.2-2.92 13.82-3.73 20.43a10.9 10.9 0 00-7.68 10.68zM245.67 898.2a19.07 19.07 0 00-3.65-1.05l-.44-.06c-2.35-.35-4.64-.72-7-1-.12-1.51-.27-3-.48-4.44a12.27 12.27 0 00-.85-3c2.94-11.74.71-24.92 3.19-37 9.67 13.82 10.24 29.24 9.3 45.73 0 .21-.03.51-.07.82z" fill="#45acf7" id="reuse-14"/><path d="M1010.7 853.87c.15 1.55.23 3.11.41 4.65 1.4 12.36 7.48 25.72-.07 36.19-4.3 5.95-7.74 11.95-8.86 17.44-2-1.23-3.33-3.61-3.23-7.9.09-4 4.82-7.38 6.53-10.88 3.53-7.23 4.1-16.2 4.77-24.08.43-4.93.45-10.14.45-15.42zM975.22 821.33c.6-10.74 1.12-21.63 1.37-32.49 3.15 24.65 4.34 49.8-.48 72.48-2.92 13.76-11.21 26.41-14.56 39.56-5.29-3.85-6.79-16.09-1.64-21 6-5.7 9.75-7.26 10.87-16.42 1.69-13.83 3.64-28.04 4.44-42.13zM756 821.91c3 17.5 8.9 28.26 7.13 46.82-1.52 16-3.52 29.87 3.1 44.95a157.68 157.68 0 009.25 17.48 68.12 68.12 0 00-10.69 2.38c-17.07 5.34-25.4 21.87-24.62 37.61-.65.12-1.28.2-1.92.32-3.66-7.9-4.71-17.92-1.51-30.05 6.65-25.24 8.72-45.52 10.54-72.12 2.31-33.66 1.75-68.72 4.24-101.51a25.6 25.6 0 014.84 6.31c-.78 15.9-3.04 32-.36 47.81zM779.17 821.1a48.73 48.73 0 01-1.26-6.43c-1.75-14.88.88-30.2 1.41-45.12 8.21-13.81 10.23-32.31 11.67-48.13 4 16.79 3.71 34.21 2.81 51.62-4.35 16.18-10.47 31.9-14.63 48.06zM1390.21 860.76c0 13.73 18.64 13.7 22.48 2.25 9.63-28.68 7.74-58.9 15.17-87.93 2.81-11 6.43-21.76 8.48-32.59l2.76 2.45c12.92 11.57 22.47 25.35 27.46 42s4.79 34.74 10.22 51.45a160.3 160.3 0 005.93 15c-11.77-9.76-29.81-11.33-42.93-2.95-22.42 14.31-39.21 33.83-55.79 54.25-7.4 9.13-15.61 20.57-25 29.17-3.22-11.36 4-18.33 8.13-30.31 3-8.61 11-83.57 11.28-115.58 11.92 22.14 11.83 47.03 11.81 72.79zM1184.32 834c6.47 14.32 5.61 29.17 2.5 44a39.6 39.6 0 01-3.84 6.43c-2.28-4.48-.75-9.29-.17-14 .78-6.29-.09-12.93-.09-19.27 0-8.91-.49-18 .12-26.91.42.45.88 1 1.34 1.6a9.24 9.24 0 00.14 8.15zM1239.81 749.68c1 13.63 3.74 27.9 1.08 41.21-2.09 10.52-9.65 19.63-10 30.51s4.36 21.72 4.36 32.84c0 10.36-1.09 20.67-1.83 31-.44-4.49 0-9.49-.18-13.32-.54-13.21-4-25.39-5.87-38.32-1-6.71-4.53-17.75-1.35-24.18 1.82-3.69 5.9-6.21 8-10.24 8.1-15.68 4.04-32.96 5.79-49.5zM1791 682.77c-.48 2-1 3.92-1.43 5.89-.59 0-1.19 0-1.78.08a196.23 196.23 0 00-6.69 28.37c-3.32 13.26-5.55 26.85-7.58 40.53-2.14-22.23-.31-44.71-1.65-67-16.41.13-37.92-8.9-47.78 6.45-7.54 11.73-5.2 47.44-5.61 61.58-.92 31.76-.41 64-2.17 95.69-21.45 8.27-14.39-35.48-14.84-46.59-.41-10.3 3.63-18.71 4.85-27.85.73-.68 1.48-1.35 2.2-2.05 5.29-5.18 3.67-11.65-.58-15.51a12.12 12.12 0 00-5.86-5.51c-3.49-7.85-7.84-15.33-8.85-24-29.55-9.77-9.78-20-3.92-44.44-6.11-1.26-12.62-1.84-19.07-5.68zM1824.53 684.45l.21-1.68h9.84c-2.82 8.75-5.72 17.48-7.57 26.44a45.67 45.67 0 00-12.56 3.7c2.61-6.88 4.4-15.52 6.59-22.65a9.45 9.45 0 003.49-5.81zM1650.67 835.64a11.21 11.21 0 007.28 13.21 67.47 67.47 0 0010.57 26.15l-3.77-1c-9.56-2.54-20.11-.09-28.59 5.46-2-11.62-5-23.16-4.84-34.89.17-15.13-.28-32.27.43-47.91a205.73 205.73 0 014-34.21c3.58 11.58 8.57 22.54 9.07 34.87.45 10.81-.47 21.51 3.13 31.92a11.45 11.45 0 003.11 4.76c-.06.53-.26 1.07-.39 1.64zM1667.09 783.51c-.27.1-.56.17-.83.27-.06-.28-.09-.57-.15-.85 4.05-12.3 7.84-24.72 10-37.5a72 72 0 015.34 17.72c-6.24 5.23-10.81 12.57-14.36 20.36zM1828.56 775.85a.6.6 0 01.06.11c4.85 29.84 10.31 59.24 4 89.22-2.19 10.36-4.06 21.07-2.83 30.82-2.51-.29-5-.6-7.54-.87.67-6.71 2.08-13.43 3.08-19.84 5.03-32.76-1.15-66.5 3.23-99.44zM18.75 682.77h49.06C61.17 700 52.1 716.33 50 734.9c-1.54 13.73-.09 27.37 1.89 41-3.46-8.68-7.19-17.19-8.79-23.39-2.69-10.51-4.55-19.62-9.8-26.51-4.08-14.67-9.55-28.86-14.55-43.23zM291.06 788.46a11.45 11.45 0 00.14-6.39c-3.92-15.27-14-28.17-17.69-43.33-4.12-17-1.75-37.78-1.14-56h49.41c-3.16 24.88-10.8 48.8-12.4 74.21-1.81 28.74-4.78 57.28-10.26 85.53a157.34 157.34 0 01-10.78 24.27c-1.52-22 1.74-42.76 3.59-64.5.59-6.88.24-10.81-.87-13.79zM151.19 704.3a116.52 116.52 0 002.92-21.53h49.21c-20.23 7.05-42.15 19.23-52.13 21.53zM385.66 682.77c3.41 7.79 1.81 18-.4 27.64-1.15.32-2.3.63-3.43 1 .81 17.35-7.54 34.18-8.39 51.68-1.1 22.75.79 46.26 6.91 68.12-36.8-10.55-14.88-63.94-24-91.77 2.45-17.48-3.3-40.45-7.9-56.66zM544.85 706.7a97.15 97.15 0 01-1 22.09c-6.55-26-21.1-35.5-50.76-30.21-2 10.45-6.25 27.88-18.51 28a356.82 356.82 0 01-6.4-28.74c-18.54 6.29-39.63 6.28-59.75 8.45a91.47 91.47 0 001.11-15.51c7.5 1.37 15.23.67 23-.2 6.63-.74 32.37-7.38 36.82-.72 4.67 7 15.65 7.1 19.68-.69 4.17-8.07 35.54-1 42.46 2.09 6.5 2.81 10.5 8.66 13.35 15.44zM692.82 747.13c.65-3.53 1.34-7.07 2.06-10.59a28.48 28.48 0 004.39-1.61c-1.16 19.59 6.59 42-.72 59-11.23-11.51-4.12-31.35-5.73-46.8zM1570.18 726.54c1.33 17.36 7.74 31.75 4.5 49.45-2.55 13.9-6.65 28-5.08 42.24A66.77 66.77 0 001575 837c-6.87-3-12.8-5.72-14-16-1-8.7 6.13-29 7.4-39.37 1.25-10.19 1.57-16 .76-26-.38-4.63-6.06-8-6.33-12.45-.32-5.4 5.36-11.44 6-17.56 1.08-11.14 2-36.36-7.37-40.69.29-.72.58-1.43.85-2.15h9.57c-1.08 14.58-2.82 29.22-1.7 43.76zM1493.32 682.77h34.43c-1.42 18-12.17 35.05-12.86 53.55-.63 16.77 3 33.2 5.5 49.74-3-8.54-6.27-17.19-6.85-19.67-3.19-13.73-8.89-31.75-6.34-46 2.89-16.22 16.31-21.72-1.75-30.86-6.76-3.42-17.78-2.87-27.53-2 5.08-1.53 10.25-3.27 15.4-4.76zM1389.79 759.28a16 16 0 01-6.13 0c-.33-.11-.65-.21-1-.29-6.45-2.55-1.85-12.88-2.67-20-2.5-21.7-11.5-28.14-24.39-30.88-.08-.5-.2-1-.3-1.49 16.31-1.19 29.64 4.76 38.46 20.55-3.05 16.25-4.76 32.23-3.97 32.11zM1275.14 691c4-1.38 5.94-5.34 8.26-8.24h12.84c6.71 6.5 11.86 20.53 13.25 25.53 3.28 11.85 3.8 24.08 3.92 36.3a10.73 10.73 0 001.77 6q-.57 6.46-1.21 12.89c-.86 8.61-1.29 15.82 3.44 23.53 6.25 10.19 15.7 14 16.15 27.77a89.86 89.86 0 01-.42 11.5 50.61 50.61 0 00-4.31 11.94 164.25 164.25 0 00-2.65 23c-2.11 8-4.31 15.86-6.06 23.07a159 159 0 00-4.81 31.75c-3.87-8.94-5.08-15.52-3.61-29.26 1.67-15.43 14.91-46.35 11.77-62.11-2.37-12-15.16-15.87-18.33-27.55-6.25-23.09 8.45-62.48-3.9-85-6.85-12.49-15.88-14.62-25-11.49a707.2 707.2 0 01-1.1-9.63zM1147.73 787.17c3.93-22.49 7.83-45 8.74-67.82 6.65-12.51 7-24.07 4.35-36.58h22.82a107.93 107.93 0 002.6 14.93c3.29 12 18.34 8.76 22-.77 2.8-7.36 12.11-13.83 20.15-13.23 9 .68 11.86 9.23 14 16.91 2.22 8 3.4 16.13 4.71 24.27a135 135 0 00-6.92 9.8c-2.51-8.14-2.59-29.61-10.21-34.45-11.07-7-25.38 5.16-24.43 16.49-21.6 1.62-32.49 4.26-38.11 21.17-6.31 19-.52 41.48-3.42 61.53a67.63 67.63 0 0124.71 20.65c-25.6-13.4-61-24.82-94.52-27 10.67-8.23 28.21-1.42 39.82 2.53 5.56 1.91 12.72-2.76 13.71-8.43zM959.89 690.27v-.91c16.28 1.31 31.83-3.74 49-5.08 7.84-.62 16.18-1.08 23.92.63 10.63 2.35 6.39 6.61.71 14.53-5.38 7.51 2.77 16.75 10.44 16.8 32.69.21 20.22 56.74 9.59 79.69a91.4 91.4 0 00-13 4c0-24.75 25.65-88-28.9-67-5.22-11.82 1-24.9 7.06-35.2-19.87 2.12-39.46-4.15-58.82-7.46z" fill="#45acf7" id="reuse-13"/><path d="M1850.86 898.69a918.08 918.08 0 00-28.65-3.56c.67-6.71 2.08-13.43 3.08-19.84 5.07-32.76-1.11-66.5 3.27-99.44 12.23 20.17 15 50.12 18.57 73.3 1.89 12.33-3.5 33.45 0 43.76a15 15 0 003.73 5.78zm-1114.1 42.73c-3.2 12.13-2.15 22.15 1.51 30.05.64-.12 1.27-.2 1.92-.32-.78-15.74 7.55-32.27 24.62-37.61 15.68-4.92 33-4 46 3.19-.57-10.7-1-21.05.57-32.58 3.21-23.18-5.27-31.56-12.74-51.54-15.16-40.56 2.56-88-7.65-131.19-2.19 24.09-5.62 54.46-30.43 64.87-.95-6.92-3.91-13.83-9-18.5-2.49 32.79-1.93 67.85-4.24 101.51-1.84 26.6-3.91 46.88-10.56 72.12zm-540.92-51.55c0 20.3 3.81 39 .85 59.12a53.18 53.18 0 00-.59 10.31l2.42-.19c27.62-1.91 55.27-1.39 82.91-2.1 5.17-8.23 3.41-19.12-9-32.69-2.12 20-25.15 14.64-30.4-.58-1.36-3.93 3.47-21.45 3.75-26.4.94-16.49.37-31.91-9.3-45.73-3 14.51.86 30.59-5.63 43.87C224.5 882.56 218 885.4 217 870.93c-.58-8.31 4.93-14.36 3.86-24-2.18-19.6-15.1-43.24-18.79-62.38.56 34.67-6.23 70.01-6.23 105.32zm1480.28-144.44c-3.37 19.85-10.63 38.83-16.76 57.84-10.93-15.71-12.54-38.15-19.35-56-5.55 15.9-7.51 32.69-8.26 49.42-.71 15.64-.26 32.78-.43 47.91-.14 11.73 2.84 23.27 4.84 34.89 8.48-5.55 19-8 28.59-5.46 7.68 2 15.42 4.14 23.21 6.15a152.17 152.17 0 01-8.84-16.64c-3.11-7.25-1.27-19.41-.66-27.72 2.13-29 10.35-62.72-2.34-90.39zm-309 158.14c-4.15 12-11.35 18.95-8.13 30.31 9.41-8.6 17.62-20 25-29.17 16.58-20.42 33.37-39.94 55.79-54.25 16.25-10.38 40-5.51 50.13 11.29 3.65 6.09 7.2 12.18 12.09 17.31a8.14 8.14 0 00.91.71c0-23.56-12.17-52.41-14.62-72.44-2.39-19.5-8.71-39.23-11.41-57.4-1.93-13 5.35-27.85-4.17-39.38-21.81-26.41-23.72-1.86-36.65 8.21-6.73 5.23-14-.84-18.76 6.63-2.11 3.29.38 10.52-.32 14.25-4.3 23-2.9 47.27-10 69.87-6.85-7-3.12-24-3.72-34.47-8.83.17-18 0-26.49-1.46 5.96 1.06-5.89 119.05-9.67 129.99zM1584 774.69c-.6 22.6-7.23 48 3.16 69.36-10.55-9.4-24.29-6.75-26.11-23-1-8.7 6.13-29 7.4-39.37 1.25-10.19 1.57-16 .76-26-.38-4.63-6.06-8-6.33-12.45-.32-5.4 5.36-11.44 6-17.56 1.1-11.34 2.07-37.34-7.87-41-7.8 18-23.8 26.78-30.74 43.31-9.79 23.27 10.07 52.69-5.31 77.29 2.23-3.57-10.2-33.86-11.37-38.87-3.19-13.73-8.89-31.75-6.34-46 2.89-16.22 16.31-21.72-1.75-30.86-9.8-5-28.65-1.58-39.44-1-19.71 1-45.4-9.3-61.63 5.73-8.64 8-16.1 65.26-14.59 65-16.24 2.52-8.76-11.41-9.78-20.31-4.06-35.22-25.23-30.26-52.41-34.47 2.6 14.08-1.65 27.39-2.47 41.67-1.45 25.48 10.26 20.36 18.49 41.13 6.89 17.37-11.35 33.56-14.79 50.93-5.79 29.22-.48 61.93-7.34 90.85-8.61-17.76-11.88-22.83-9.79-42.26 1.67-15.43 14.91-46.35 11.77-62.11-2.37-12-15.16-15.87-18.33-27.55-6.25-23.09 8.45-62.48-3.9-85-17.51-31.89-49.2 3.58-61.09 22.5-2.51-8.14-2.59-29.61-10.21-34.45-11.07-7-25.38 5.16-24.43 16.49-21.6 1.62-32.49 4.26-38.11 21.17-6.31 19-.52 41.48-3.42 61.53a67.63 67.63 0 0124.71 20.65c-40.34-21.11-105.14-37.46-148.22-20.15 0-24.75 25.65-88-28.9-67-5.22-11.82 1-24.9 7.06-35.2-29 3.18-57.46-11.7-85.45-9-2.46 5.36-3.59 11.65-6.2 16.83-2.47 4.89-14.91 22.91-15 25.78-.29 8.34 14.85 13.43 15.55 22.54.78 10.2-11.45 16.55-16.34 22.88-9 11.68-16.24 24.87-16.22 40.91 0 18.41 7.78 36.64 7.46 55.55-.22 13.36-2.8 26.5-1.78 39.84a132.06 132.06 0 0030.11 2c-16.27 3.28-34.67 3.06-51.08 1.68-2.42-44.3 1.48-90.53 3.36-135 .24-5.88-2.88-10.89-1.09-17.2 2.81-9.94 12.71-13.37 12.79-25.11.09-11.57-7.4-14.72-11.83-24.53-1.94-4.32-.88-13.41-2.45-18.48-19.37 9.16-43.77 1.74-64.56 9.55-1.87-2.33-2.92-6.08-4-8.86-14.64 1.64-35.49 5.74-48.08 14.47-12.92 9-13.53 24.84-17 40.09-7.17-13.3 0-26.54 1.68-40.17-20.66-.05-37.7-13-46.53 9.88-8.51 22 5.63 51.45-3.44 72.57-14.11-14.46.8-42.12-9.1-57.65-36.4 19.22-16.74 87.86-19.65 124.32-14.87-29.72 1.41-67.93-10.08-97.62-4.05-10.48-9.27-9.55-8.66-22 .31-6.36 6.89-13.82 8.21-20 3.23-14.92.67-19-7-32-46.32 5.89-96.22-16.1-107.41 43.7-6.06-29-20.58-39.71-51.71-34.16-2 10.45-6.25 27.88-18.51 28a356.82 356.82 0 01-6.4-28.74c-27 9.17-59.42 5-86.39 13.6.81 17.35-7.54 34.18-8.39 51.68-1.1 22.75.79 46.26 6.91 68.12-38-10.91-13.33-67.6-25.06-94.5-7.49 1.71-31.85 3.8-36.7 7.74-5.38 4.38-6.19 31.3-7.12 37.95-4.4 31.5-7.93 56.71-23.13 84.39-1.52-22 1.74-42.76 3.59-64.5 1.51-17.74-3.11-16-11.13-28.28-13.63-20.9-15.58-63.25-40-74-24.21-10.68-64.12 3.81-88.27 7.68-28.29 4.54-25.63 13.79-36.82 36.35-19.31-11.69 5.6-48.68-27.8-37.85-44.75 14.49-24.96 57.23-28.87 97.95 1.27-13.35-12.48-38-16-51.59-4.43-17.26-6.55-30.68-25.19-36.87-3.59-1.19-10.48-.91-17.92-.72v-30.43h1587.91c-2.16 3.84-3 11.38-3.78 13.87-7.97 25.94.59 49.96-.11 76.34zm-446.43-49.79c-5.91 11.48-7.2 24.85-21.33 25.12-13 .24-19.42-12.73-22-24.79.39 16.82 4.26 37.76-9.49 49.3 18.6 9.86 38.48 12.23 57 17a15.52 15.52 0 01-3.26-4.84c-7.55-18.69 14.22-43.07-.92-61.79zm704-40.42h-171.35c6.45 3.84 13 3.57 19.07 4.83-5.86 24.4-25.63 34 3.92 43.78 1.73 14.81 13.29 26 13.45 41.78.12 11.28-5.7 20.77-5.21 33 .45 11.11-6.61 54.83 14.84 46.56 1.76-31.67 1.25-63.94 2.17-95.7.41-14.14-1.93-49.85 5.61-61.57 9.86-15.36 31.37-6.33 47.78-6.45 1.45 24-.86 48.26 2.18 72.17 4.72-24.69 5.93-50.19 13.74-74.07 11.09-.59 22.59-.54 33.77-.1-2.44 7.39-4.28 17-7.09 24.45a41.88 41.88 0 0119-3.49c.39-13.99 3.19-21.35 8.16-25.19zm-194.41 54.42c.11-16.43 13.11-39.06 8.94-54.42H1597c.33 3.84.62 4.21 2.37 6.29 13.31 15.73 14.64 20.13 42 14.71-2.17 12.05-13.47 31.93 5.79 33.42zM1920 686v-1.48h-36.19c1.93 0 3.89.23 5.92.42 13.56 1.23 23.45 3.23 30.27 1.06zm-914.52 207.37c-1.71 3.5-6.44 6.88-6.53 10.88-.39 17.44 22 3.43 24.26 8.61-12.46-29-9.94-60.73-9.35-92.43-4.86 15-2.27 33.3-3.61 48.86-.67 7.88-1.25 16.85-4.77 24.08zm-31.4-163.71zm-14.17 150.26c-7.18 6.79-1.48 28 9.5 20.64 5.64-3.79 1.72-9.54 3.43-14.71 1.55-4.69 6.29-6.62 9.37-10.23 7.5-8.78 5.7-24.14 4.36-34.62-2.49-19.4.53-39.33-3.68-58.47-3.25-14.79-7.3-29.15-8.46-44.17.66 10.36 2.05 20.67 2.26 31.07.34 17.18-.51 34.74-1.47 51.9-.8 14.09-2.75 28.3-4.44 42.17-1.12 9.16-4.84 10.72-10.87 16.42zm222.9-9.51c-.58 4.73-2.11 9.54.17 14 3-3.82 5-9.61 8-13.92s6.66-11.65 6.18-17c-.67-7.51-9.26-23.87-14.33-29.3-.61 8.87-.12 18-.12 26.91.01 6.38.88 13.02.1 19.31zm43.17-61c-3.18 6.43.36 17.47 1.35 24.18 1.9 12.93 5.33 25.11 5.87 38.32.25 6.12-1 15.2 2.16 20.46-.85-1.44 4.13-15.45 4.46-18.14.78-6.43 1.23-12.69-.34-19.11-1.67-6.8-5-13.11-3.29-20 1.16-4.74 5-9.39 7.58-13.47 7.12-11.45 6.58-22.78 6-36-.41-9.87-2-18.39-4.09-27.91-1.29-5.87-1-13.69-3.67-19-6.43 19.7 1.89 41.27-8.08 60.45-2.05 4.02-6.13 6.54-7.93 10.23z" fill="#6cbcf7" id="reuse-12"/><path d="M1865.2 900.73a897.63 897.63 0 00-85.32-9.08c-11-.64-22.07-.45-33.09-1.06-27.81-1.54-55.26-9.5-82-16.61-16.34-4.34-35.63 5.82-42.41 21.33-7.38-1.31-14.77-3.31-22.7-5.31a200.59 200.59 0 00-57.26-6.48c-8 .22-16 .59-24 .69-1.7 0-3.44 0-5.17-.07-.57-.17-3.65-.68-5.31-1-.74-.63-5.18-3.18-6-4-4.89-5.13-8.44-11.22-12.09-17.31-10.08-16.8-33.88-21.67-50.13-11.29-22.42 14.31-39.21 33.83-55.79 54.25-12.09 14.91-26.32 36-44.42 40.72-20.45 5.3-46.53 2.36-68.42.6-26.74-2.15-53.39-3.44-80.13-5.3-33.73-2.35-67.26-7.2-101-8.68-34.64-1.53-69.23 1.87-103.75 4.27-58.07 4-116.73 8-174.58.82-13.08-7.63-30.83-8.62-46.83-3.6-17.07 5.34-25.4 21.87-24.62 37.61a125.51 125.51 0 01-27.55 2.2c-31.32-.7-62.26-9.5-92.59-16.55-68.91-16-135.71-17.14-206-10.73-36 3.29-71.85 7.55-107.89 9.88-35.89 2.33-71.81.68-107.68 3.16C132.13 963.7 66.53 976.33 0 977.9V684.05h1920v227.52c-18-4.57-36.44-8-54.8-10.84z" fill="#dbf3ff" id="reuse-11"/><path d="M1647.32 1072.88c1 14.5 10.09 27.45 9.84 41.82 18.49-12.66 40.8-34.81 64.42-33.56-15 19.46-33.94 34.82-45.11 56.46 19.87.18 71.74 5.67 29.7 21.29-12.08 4.48-25.47 12.57-39.3 20.21a116.13 116.13 0 00-46-2.79c18.19-31.78 29.18-64.25 26.45-103.43z" id="reuse-10"/><path d="M744.45 786.42c46.88 7.13 91.77 19.9 134.67 39.19a204.49 204.49 0 0181.3 46c23.21 42.31-38.68 59.64-56.52 92.34-28.95-27.73-42.74-16.25-43.36 21-10.08-30.58-44-48.48-70.67-65.32 21.47 23-15.47 98.08-.47 120.46 6.87 10.23 32.15 13.37 41.17 16.06 19.77 5.9 45.8 10.67 64.37 20.93-2.52-.36-5.06-.76-7.63-1.25-33.11-6.34-65.33-15.72-99.2-17.43-33.64-1.71-68.89 6.93-100.87 16.71-33.34 10.2-67.48 24.13-97 42.91-14.36 9.15-26.27 21.52-38.29 33.42-4.13 4.09-8.83 7.85-12.84 12-.84.87-5.4 3.39-4.19 3.36a27.78 27.78 0 01-7.94.75c4.52-20.41 13.76-41 23.75-58.1 20.35-34.88 44.48-53.26 75.77-76.19 36.19-26.52 61.29-67.14 86.42-103.61-29 5.14-52.4 24.45-79.15 35.58 5.37-21.09 22.05-41 40.56-53-24.87 14.44-53.61 21.69-76.45 40-18.29 14.69-29.3 37.27-48.33 50.56-2.53-25.21 21.76-43.44 20.09-68.3-20.33 2.93-26.93-23-34.73-37.56-10.42 26.17-29.08 41.34-33.87 70.43-3.59 21.84-3.82 58.14-14.9 76.85-5.35-18.46-12-23.3-11.94-43.18.05-17 10.1-58.59-8.9-68.61-6.55-3.45-12 4.2-17.94 2.66-7.53-2-13.55-10.73-22.18-13.41-17.17-5.33-32.3-1-35.46 18.37-4.35 26.71 6.07 56.37 3.73 84.13-16.65-18.58-73.16-78.55-95.91-71.48 25.46 25.09 46.95 55.13 70.63 81.87-20.6-16.29-43.74-28.91-64.82-41.89-28.2-17.35-56.12-38.83-88.95-47.86-21.43-5.9-81.15 1.24-38.16 28-18.82 1.42-40.81-4-58.8 2.12 25.18 19.76 58 30.53 85.08 47.87a34.87 34.87 0 00-15.08-3c-9.69-1.41-20.16-1.26-30.06-.63 20.87 12.89 49.74 21 73.88 27.75 66.66 18.66 131.36 53 191.58 86.51-42-19.91-85.81-35.47-130.56-47.77-94.55-33.31-192.23-68.47-292.32-71.37V765.84c1.07-.66 2.13-.44 3.21-1.09 2.54-1.52 5.13-3.47 7.73-3.47h605.43c43.35 7.72 86.29 15.72 128.12 25.14zM1920 778.93v362a963.58 963.58 0 00-102.94 52c9.65-7.82 18.74-16.23 26.47-26-8.48-1.7-17.53-2.18-25.26-5.67 11.42-6.14 29.45-15.87 28.34-30.62-13.88 0-32.69 9.57-45.81 15 21.38-51.32 36.17-113.66 43.89-169.25 1.41-10.16 3.6-21.55 2.9-31.81-1.07-15.83-6.57-30.28-19.61-40.71-15.61-12.49-21.7-4.88-36-8.19-17.9-4.14-20.6-16.91-41.53-7.31-16.7 7.67-23.08 23-27.89 39.58-.31-31.43-15-78.26-46.86-92.82-25.44-11.63-47 25.28-53.93 47.57-8-7.66-51.75-54.88-67.92-33-4.61 6.24 10.05 43.24 11.91 51.36 9.62 42 20.68 84.49 29.82 126.5-9.19-17.1-22.36-32.66-33.51-49.17-18.49-27.34-34.23-56.79-55.82-81.93-9-10.51-20-24.8-31.45-32.45-3.5-2.34-44.36-16.2-44.25-6 .21 20.19 31 50.26 42 66.65 25.91 38.86 50.43 78.2 75.62 117.71-24.51-31.92-62.15-57.66-97-76.78-27.14-14.9-69.47-45.79-101.54-42.49 32 52.15 81 87.43 123.94 129.27 13.46 13.12 26 27.07 38.55 41-49.4-35.43-102.7-65-160.8-83.65-54.13-17.38-105.22-18-160.25-4.74-71 17.09-138.53 45.44-209.09 63.87-2.84.74-5.65 1.44-8.44 2.13 9.69-11.17 29.87-18.83 40-23.81 19.84-9.73 36.53-23 52.54-38.34 20.47-19.58 27-45.85 17.34-73.5-3.14-9-15.77-30.42-27.09-32.28-11.12-1.82-15.43 7.87-23.38 15.59-22.35 21.71-44.9 36.69-61.33 63.24 3.76-26.7 29.78-50.65 46.18-70.82 20.88-25.67 38.67-57.11 68.89-73.42 29.59-16 54.41-6 77.49 12.49 22.08 17.67 45.43 24.22 73.71 18.92s30.94-30.63 46.38-51c18-23.68 38.55-45.81 67.13-56.42a9.36 9.36 0 013.41-.24h533.33c11.03 7.61 21.67 10.54 31.86 17.54z" id="reuse-9"/><path d="M781.52 1043.72c16-3 43.45-9.92 64.49-12.85 17.49-2.45 19 .42 38.87-10.06 30.1-15.88 58.36-36.09 91.09-45.68 0 15.88-14.29 29-26.5 38.24a124.63 124.63 0 0147.55-5.22c-3.8 5-5.84 14.9-10.22 19.94 32.93 1.76 67.3-8.66 100.68-4.38-9.89 2.07-18.32 6.81-23.49 15.07a54.88 54.88 0 009.93 1.65c-30.43 10.15-60.9 20.17-91.94 28.28-32.33 8.44-61.54 13.45-94.67 7.11-27.14-5.2-53.69-12.37-81-15.76 11.54-2 24.09-.08 34.71-2.77a116 116 0 00-59.5-13.57zM1920 1140.9c-58.92 25.2-115.77 57.66-168.84 92.94-37.64-41.75-89.73-68.92-142.88-55-25.73-29.76-56-56-87.21-79.08-37.15-27.44-76.55-51.63-118.54-70.44 60.65 12.61 124 37.93 170.31 75-10-10.77-32.36-24.45-29.86-39.84 28-.65 50.58 29.52 70.78 45.09-2.22-63 46.38-19.91 52 20.58 16.16-32.07 47.26-43.36 67-4.25 6.27-21.06-10.57-44.85-13.75-66.71 20.91-2.83 48.69 22.77 51.14 44.61.67-12.25 7-28.9 18.76-30.08 21.74-2.16 22.9 30.51 25.48 45.39 22.65-13.49 60-44.15 89.52-34.19-3.58 22.69-21.21 36.61-36.34 53.91 9.9-5.14 32-15.68 52.5-20.28zM372.06 1059c20.94-10.11 64.63 24.11 87.06 29.94-5.33-42.72 21.39-29 38.63-8.93 18.82-17.36 50.69-32.11 77-33.76-2.14 10.89-5.84 22.34-7.4 32.85 29.1-4.27 58.75-19.6 91.11-23-6.87 7.43-14.48 14.09-22 20.8 15.31-6.88 45.93-10.74 71.48-7.81-7 1.88-14 3.9-20.75 6-33.34 10.2-67.48 24.13-97 42.91-14.36 9.15-26.27 21.52-38.29 33.42-4.13 4.09-8.83 7.85-12.84 12-.84.87-5.4 3.39-4.19 3.36-8.7 2.16-15.83-.49-24.53-2.32a296.85 296.85 0 01-35.2-10.08c-46.29-15.89-90.55-36.92-137-52.71-19-6.46-38.17-13.24-57.45-20a122.43 122.43 0 00-27.43-9.62l-.89-.31c59.46 1.63 110.91 18.59 167.43 33.31-13.8-15.61-39.56-26.15-47.74-46.05z" fill="#9dd0f7" id="reuse-8"/><path d="M1751.16 1233.84c-37.64-41.75-89.73-68.92-142.88-55-25.73-29.76-56-56-87.21-79.08-51.89-38.32-108.13-70.37-169.75-90.16-54.13-17.38-105.22-18-160.25-4.74-71 17.09-138.53 45.44-209.09 63.87-32.33 8.44-61.54 13.45-94.67 7.11s-65.33-15.72-99.2-17.44c-33.64-1.7-68.89 6.94-100.87 16.72-33.34 10.2-67.48 24.13-97 42.91-14.36 9.15-26.27 21.52-38.29 33.42-4.13 4.09-8.83 7.85-12.84 12-.84.87-5.4 3.39-4.19 3.36-8.7 2.16-15.83-.49-24.53-2.32a296.85 296.85 0 01-35.2-10.08c-46.29-15.89-90.55-36.92-137-52.71-108.74-37-221.88-84-338.27-87.35V759.51H1920v381.39c-58.92 25.2-115.77 57.66-168.84 92.94z" fill="#7393d9" id="reuse-7"/><path d="M1751.16 1233.84c-37.64-41.75-89.73-68.92-142.88-55-25.73-29.76-56-56-87.21-79.08-51.89-38.32-108.13-70.37-169.75-90.16-54.13-17.38-105.22-18-160.25-4.74-71 17.09-138.53 45.44-209.09 63.87-32.33 8.44-61.54 13.45-94.67 7.11s-65.33-15.72-99.2-17.44c-33.64-1.7-68.89 6.94-100.87 16.72-33.34 10.2-67.48 24.13-97 42.91-14.36 9.15-26.27 21.52-38.29 33.42-4.13 4.09-8.83 7.85-12.84 12-.84.87-5.4 3.39-4.19 3.36-8.7 2.16-15.83-.49-24.53-2.32a296.85 296.85 0 01-35.2-10.08c-46.29-15.89-90.55-36.92-137-52.71-108.74-37-221.88-84-338.27-87.35V759.51H1920v381.39c-58.92 25.2-115.77 57.66-168.84 92.94z" fill="#b09676" id="reuse-6"/><path d="M687.84 903.84l2.4 10.56 78.24 9.12 12.52 8.16 8.16-3.84 16.32-1.44-1.92-11 11-6.72 13.92 2.4 14.4-5.76 39.84-3.84 4.28-11.56s-185.72 1.44-199.16 13.92z" fill="#0b529e" id="reuse-5"/><path d="M1920-40.42V-72h-643.89L0 318.79v62.41L1920-40.42zM0 196.81v36L916.4-72H696.54L0 196.81z" id="reuse-4"/><path fill="url(#d)" d="M0 689.01h1920V1080H0z" id="reuse-3"/><path fill="url(#c)" d="M0-72h1920v1152H0z" id="reuse-2"/><path fill="url(#b)" d="M0 676.38h1920V1080H0z" id="reuse-1"/><path fill="none" d="M0-72h1920v1152H0z" id="reuse-0"/></defs><defs><linearGradient id="b" x1="960" y1="672.96" x2="960" y2="1095.55" gradientUnits="userSpaceOnUse"><stop offset="0" stop-color="#3dcbff"/><stop offset=".31" stop-color="#2db3f4"/><stop offset=".95" stop-color="#0374d8"/><stop offset="1" stop-color="#006fd6"/></linearGradient><linearGradient id="c" x1="960" y1="-72" x2="960" y2="443.33" gradientUnits="userSpaceOnUse"><stop offset="0" stop-color="#00a6ff"/><stop offset=".2" stop-color="#2db6ff"/><stop offset=".75" stop-color="#a8e1ff"/><stop offset="1" stop-color="#d9f2ff"/></linearGradient><linearGradient id="d" x1="960" y1="689.01" x2="960" y2="863.91" gradientUnits="userSpaceOnUse"><stop offset="0" stop-color="#007eed"/><stop offset=".82" stop-color="#00affc"/><stop offset="1" stop-color="#00baff"/></linearGradient><linearGradient id="e" x1="960" y1="697.28" x2="960" y2="1081.59" gradientUnits="userSpaceOnUse"><stop offset="0" stop-color="#d1f3ff"/><stop offset=".2" stop-color="#95dffb"/><stop offset=".4" stop-color="#60cef7"/><stop offset=".59" stop-color="#37c1f4"/><stop offset=".75" stop-color="#19b7f2"/><stop offset=".9" stop-color="#06b1f0"/><stop offset="1" stop-color="#00aff0"/></linearGradient><linearGradient id="f" x1="2056.56" y1="774.21" x2="2056.56" y2="830.31" gradientTransform="matrix(-1, 0, 0, 1, 2161.55, 0)" gradientUnits="userSpaceOnUse"><stop offset="0" stop-color="#fff"/><stop offset=".81" stop-color="#f1e6ce"/><stop offset="1" stop-color="#ede0c2"/></linearGradient><clipPath id="a"><use xlink:href="#reuse-0"/></clipPath><clipPath id="h"><use xlink:href="#reuse-0"/></clipPath><mask id="g" x="-149.76" y="-72" width="2176" height="1305.84" maskUnits="userSpaceOnUse"><g clip-path="url(#a)"><use xlink:href="#reuse-1"/><use xlink:href="#reuse-2"/><use xlink:href="#reuse-3"/><g opacity=".14" fill="#fff"><use xlink:href="#reuse-4"/></g><use xlink:href="#reuse-5"/><use xlink:href="#reuse-6"/><use xlink:href="#reuse-7"/><use xlink:href="#reuse-8"/><g opacity=".36" fill="#0376f4"><use xlink:href="#reuse-9"/><use xlink:href="#reuse-10"/></g><use xlink:href="#reuse-11"/><use xlink:href="#reuse-12"/><use xlink:href="#reuse-13"/><use xlink:href="#reuse-14"/><use xlink:href="#reuse-15"/><use xlink:href="#reuse-16"/><use xlink:href="#reuse-17"/><use xlink:href="#reuse-18"/><use xlink:href="#reuse-19"/><g opacity=".36" fill="#059dfc"><use xlink:href="#reuse-20"/><use xlink:href="#reuse-21"/></g><use xlink:href="#reuse-22"/><use xlink:href="#reuse-23"/><use xlink:href="#reuse-24"/><use xlink:href="#reuse-25"/><use xlink:href="#reuse-26"/><use xlink:href="#reuse-27"/><use style="mix-blend-mode:multiply" xlink:href="#reuse-28"/><use opacity=".49" xlink:href="#reuse-29"/><use xlink:href="#reuse-30"/><use xlink:href="#reuse-31"/><use xlink:href="#reuse-32"/><g opacity=".47" fill="#fff"><use xlink:href="#reuse-33"/></g><use xlink:href="#reuse-34"/><use xlink:href="#reuse-35"/><use xlink:href="#reuse-36"/><use xlink:href="#reuse-37"/><use xlink:href="#reuse-38"/><use xlink:href="#reuse-39"/><use xlink:href="#reuse-40"/><use xlink:href="#reuse-41"/><use xlink:href="#reuse-42"/><use xlink:href="#reuse-43"/><use xlink:href="#reuse-44"/><circle cx="1511.68" cy="61.12" r="62.18" fill="#fff8de" opacity=".33"/><circle cx="1511.68" cy="61.12" r="33.55" transform="translate(1103.59 1517.96) rotate(-76.67)" fill="#fff8de" opacity=".33"/><use xlink:href="#reuse-45"/><use xlink:href="#reuse-46"/><use xlink:href="#reuse-47"/><use xlink:href="#reuse-48"/><use xlink:href="#reuse-49"/><use xlink:href="#reuse-50"/><use xlink:href="#reuse-51"/><use xlink:href="#reuse-52"/></g></mask></defs><g mask="url(#g)" data-name="_1"><g clip-path="url(#h)"><use xlink:href="#reuse-1"/><use xlink:href="#reuse-2"/><use xlink:href="#reuse-3"/><g opacity=".14" fill="#fff"><use xlink:href="#reuse-4"/></g><use xlink:href="#reuse-5"/><use xlink:href="#reuse-6"/><use xlink:href="#reuse-7"/><use xlink:href="#reuse-8"/><g opacity=".36" fill="#0376f4"><use xlink:href="#reuse-9"/><use xlink:href="#reuse-10"/></g><use xlink:href="#reuse-11"/><use xlink:href="#reuse-12"/><use xlink:href="#reuse-13"/><use xlink:href="#reuse-14"/><use xlink:href="#reuse-15"/><use xlink:href="#reuse-16"/><use xlink:href="#reuse-17"/><use xlink:href="#reuse-18"/><use xlink:href="#reuse-19"/><g opacity=".36" fill="#059dfc"><use xlink:href="#reuse-20"/><use xlink:href="#reuse-21"/></g><use xlink:href="#reuse-22"/><use xlink:href="#reuse-23"/><use xlink:href="#reuse-24"/><use xlink:href="#reuse-25"/><use xlink:href="#reuse-26"/><use xlink:href="#reuse-27"/><use style="mix-blend-mode:multiply" xlink:href="#reuse-28"/><use opacity=".49" xlink:href="#reuse-29"/><use xlink:href="#reuse-30"/><use xlink:href="#reuse-31"/><use xlink:href="#reuse-32"/><g opacity=".47" fill="#fff"><use xlink:href="#reuse-33"/></g><use xlink:href="#reuse-34"/><use xlink:href="#reuse-35"/><use xlink:href="#reuse-36"/><use xlink:href="#reuse-37"/><use xlink:href="#reuse-38"/><use xlink:href="#reuse-39"/><use xlink:href="#reuse-40"/><use xlink:href="#reuse-41"/><use xlink:href="#reuse-42"/><use xlink:href="#reuse-43"/><use xlink:href="#reuse-44"/><circle cx="1511.68" cy="61.12" r="62.18" fill="#fff8de" opacity=".33"/><circle cx="1511.68" cy="61.12" r="33.55" transform="translate(1103.59 1517.96) rotate(-76.67)" fill="#fff8de" opacity=".33"/><use xlink:href="#reuse-45"/><use xlink:href="#reuse-46"/><use xlink:href="#reuse-47"/><use xlink:href="#reuse-48"/><use xlink:href="#reuse-49"/><use xlink:href="#reuse-50"/><use xlink:href="#reuse-51"/><use xlink:href="#reuse-52"/></g><path fill="#fff" d="M0 0h1920v1080H0z"/></g></svg>