<svg xmlns="http://www.w3.org/2000/svg" width="1920" height="1080" viewBox="0 0 1920 1080"><defs/><defs><style>.cls-3{fill:#fff}</style></defs><path d="M1111.53 473.24l49.1-3.16 91.52 8.73-7.79 3 16.63-6.46 25.57-28 2.45-64.59 5.12-60.28 7.1-2.36 15 7.75V339l26.13 14.54 1.18 48.67 2 20.73a215.14 215.14 0 0020.46-24.56l2.2-75.77 16.86-10.5h13.79l.69 13.41a215.35 215.35 0 006.28-51.7c0-118.56-96.11-214.67-214.67-214.67s-214.69 96.11-214.69 214.67a214.75 214.75 0 00135.07 199.42z" opacity=".5" fill="#fff"/><path class="cls-3" d="M528.46 593.11l.12 4.79 7.58 3-.16-10.68zm18.83-7.18l-.48 19.07 9.08 3.54-.15-2.41 1-23.84zm936.27-86.5c-25.16-12.06-56.23-27.29-56.23-27.29l-24-20.81-.19-54.65-4.32-84.57H1385l-16.86 10.5-2.71 93.56-2.53 45.93-13.25 5-6.15-64.88-1.18-48.67-26.09-14.55v-11.1l-15-7.75-7.1 2.36-5.13 60.28-2.45 64.59-25.57 28-113.63 44.14-286.27-.46-230.73 35.17-69 26.33 5 1.51.6 16-.34 14.67 70.73 27.62 115.53-3.64 258.45 64.1 149.46-50.55 103.48-21.22 126-48.67 15.31-39.67 30-1.72 36.52 12.07 12.37-31z" opacity=".2"/><g opacity=".3"><path class="cls-3" d="M952.27 737a76.19 76.19 0 00-19.59 7.46 77.53 77.53 0 0113-.15zM1841.47 647.97l-.11.46-.09.69.12-.17.08-.14v-.84zM927.49 706.59l-252.61 13.87 35 11.66 59.51 3.43-.24-.64 2-2.07 16.36-7.43 14.58 3.39 6.39 5.92.16 3.09 81.44 4.69a77.58 77.58 0 0113.15.76h.85a80.84 80.84 0 00-28.56-9.72 81.78 81.78 0 0132.07 7.19 108.9 108.9 0 00-17.27-18.88 93.43 93.43 0 0120.12 16.44q-3.39-8.9-7.69-17.54a120.5 120.5 0 0111.9 18.36q-.95-15.51-1.6-31 3.24 13.3 5.44 26.75a179 179 0 019-28.27zM1776.76 668.89l-3.35.3-3.28.67-3.35.37-3.25.83-3.22.92-3.16 1.14-3.21.97-.9.29 30.35-6.36-3.31.46-3.32.41zM945.29 744.71c-1.8.17-3.58.38-5.31.67l4.46.26zM1865.17 508.29l-1.22 58.08 11.54.39 3.21-17.45-2.85-21.47.15-12.7-10.83-6.85z"/><path class="cls-3" d="M922.17 740.46A100 100 0 01943 715.74a121.21 121.21 0 00-16.17 25 80.57 80.57 0 0116.41-10.34 86.05 86.05 0 00-13.06 11.48 79 79 0 0122.2-5l3.63-4 83.61-13.52 110.68 26.29 46.09-30.42 120.3-45.6-.26-12.62 4.79-20.66 10.27-.92 4.68 2.86.84 14.1-.24 9.63 97.67-37 154.64 13.86c2.39-13.93 5.81-27.93 13.58-34.86-4.31-6.55-3.67-20.23-3-35.4.84-17.8 1.51-28.72 9.17-32.93a14.53 14.53 0 0112.13-.65c12.47 5.11 11.94 28.46 11.82 34-.09 3.68-.53 22.82-9.79 32.84l.26.15c1.56 1.08 5.44 4.31 5.15 22.2 4.39-1.44 9.66-2.13 12.51-6.67 4.22-6.72-2.25-12.88 2.36-19.33 3.69-5.15 12.44-7.66 17.35-4.33 4.12 2.79 4.27 8.87 4.33 11.27.38 14.94-13.83 25.51-16.65 27.51-5.55 3.94-14.87 8.61-21 8.08-.22 2-.46 4.05-.75 6.24l74.33 20-.54-.4-2.5-2.21-2.86-1.7-2.71-1.92-2.84-1.72-2.75-1.7 3 .94 3 1.23 2.9 1.46 3 1.25 2.78 1.68 3 1.28 2.73 1.76 2.85 1.54 2.28 1.56.66.18-1.52-2.22-1.68-2.79-1.7-2.79-1.93-2.63-1.91-2.65-2-2.59-2.15-2.46-1.9-2.65L1696 647l-2.08-2.52-2.39-2.23-2-2.58-2.5-2.12-2.2-2.44 2.65 2.14 2.87 1.79 2.61 2.15 2.52 2.24 2.75 2 2.44 2.32 2.45 2.33 2.49 2.28 2.23 2.54 2.24 2.52 2.41 2.37 2 2.72 2.16 2.59 2.26 2.52 1.35 2.21-.12-.94-.84-3.28-1-3.23-.79-3.29-.56-3.34-1-3.24-.87-3.27-.8-3.28-1.19-3.17-.81-3.28-1.06-3.21-.92-3.25-1-3.21-.86-3.27-1-3.22-1-3.24-1.25-3.15-1-3.14 1.39 2.88 1.62 2.85 1.61 2.86 1.33 3 1.7 2.82 1.42 2.95 1.18 3.07 1.45 2.95 1.25 3 1.47 2.94 1 3.12 1.29 3 1.06 3.1 1.26 3 1.13 3.08.52 2.13.08-1.35.22-3.36.13-3.36.44-3.34.38-3.34.08-3.37.43-3.34.2-3.36.65-3.31.35-3.35.43-3.33.45-3.34.4-3.2.13 3.21.1 3.35.31 3.34.07 3.35.26 3.34.1 3.34.17 3.35.35 3.33.16 3.35-.19 3.36.23 3.34.33 3.34.12 3.35-.16 3.35.07.92.11-.25 1-3.21 1.44-3 1.43-3 1.37-3.07 1.67-2.92 1.65-2.92 1.44-3 1.88-2.8 1.69-2.89 1.78-3-1.26 3.21-1.25 3-1 3.11-1 3.13-1 3.14-.88 3.16-.94 3.14-.88 3.15-.77 2.54 1.25-1.82 2.09-2.66 2.31-2.47 2.16-2.6 2.53-2.27 2.3-2.47 2.37-2.41 2.34-2.44 2.58-2.19 2.67-2.09 2.69-2 2.53-2.05-2.17 2.26-2.25 2.36-1.91 2.65-2.17 2.42-1.94 2.62-2 2.54-1.89 2.65-2 2.56-1.84 2.69-1.86 2.67-1.56 2.86-1.8 2.72-.08.14.84-.45 2.94-1.52 3-1.5 2.94-1.51 3-1.27 3-1.35 3.1-1.17 3.17-1 3.13-1.06 3.14-1 3.19-.9 3.19-.88 3.24-.69 3.26-.64 3.28-.45 3.17-.32-3.07.89-3.24.76-3.17 1-3.14 1.09-3.06 1.29-3.14 1.09-3.08 1.25-2.91 1.63-3 1.41-2.84 1.71-3 1.41-2.81 1.78-2.78 1.8-2.72 1.88 2.89-.49 3.22-.78 3.22-.81 3.29-.42 3.28-.46 3.33-.07 3.28-.46 3.31-.18 3.32.16h3.31l3.32-.18 1.45.14.68-.14 29.26-7.68-2.23-.06-2.47.09h-2.47l-2.46.17h-2.48l-2.42.49-2.46.23-2.41.56-2.46.28-2.39.66-2.38.66-2.33.81-2.34.67 2.25-1.14 2.42-.84 2.37-1 2.42-.82 2.41-.85 2.52-.48 2.43-.79 2.51-.47 2.5-.52 2.54-.31 2.51-.5 2.56-.07 2.55-.16 2.54-.31h2.52l-.69-.3-2.44-.87-2.41-.93-2.5-.69-2.48-.76-2.56-.41-2.53-.53-2.55-.55 2.52.06h2.51l2.51.18 2.5.15 2.46.53 2.51.2 2.3.5-.19-.12-2-1.54-2.14-1.34-2.28-1.08-2.2-1.22-2.26-1.11-2.29-1.05-2.25-1.16-2.38-.84-2.32-1-2.32-.72 2.32.56 2.44.45 2.41.57 2.4.62 2.42.57 2.32.89 2.35.79 2.29.94 2.37.75 2.17 1.21 2.34.86-1.47-1.79-1.6-2-1.73-1.85-1.54-2-1.89-1.69-1.75-1.84-1.88-1.7-1.81-1.68 2.13 1.15 2.06 1.36 2 1.52 2.06 1.37 1.83 1.67 2.05 1.4 1.78 1.72 1.91 1.57 1.73 1.76.42.46v-.09l-1-2.29-.85-2.33-.86-2.34-1.06-2.25-1-2.26-1.09-2.24-1.25-2.15-1-2.27-1.24-2.16-1.18-2.18-1.47-2-1.18-2.12-1.55-2-1.3-2.15 1.68 2 1.89 1.76 1.63 2 1.56 2 1.76 1.88 1.49 2.11 1.49 2.1 1.53 2.07 1.3 2.23 1.31 2.22 1.45 2.13 1.11 2.33 1.24 2.25 1.32 2.22.69 1.86.05-.73-.16-2.57-.25-2.57-.11-2.58.07-2.58-.24-2.57-.17-2.57-.12-2.58-.42-2.55-.13-2.57-.33-2.56-.2-2.57-.31-2.56-.17-2.57-.29-2.56-.24-2.57-.48-2.54-.27-2.49.62 2.35.8 2.38.78 2.37.56 2.45.86 2.36.63 2.42.43 2.47.65 2.42.5 2.45.66 2.42.32 2.49.53 2.45.34 2.48.49 2.45.39 2.48.08 1.66.26-1 .66-2.48.59-2.5.82-2.43.77-2.45.56-2.51.81-2.44.27-1.05.35-7.53-1.11-20.44-7.78-1.49-15-6.54-.59-12.34-14.4-23-4.86-26.9-16.82-65.15 18.55-33.11 12.8-56.9-15.83-38.94 1-48-19.66-49.66 29 37.25-5.18-67.26 16.56 34.15-2.07 45.52-2.07 36.22 9.31 52.77-4.19 12.93 1.09 9.83-2.67 8.38-2.5 28.87-7.25 36.21 7.36 21.58 9.81-4.23 5.67 1.55 1.47 57.32-1.91 31.57 9.13 4.31 7.42.57-1.31-117.85-7.63-31 1-30 5.18-11.38-3.11-9.31 1-7.25-8.28-36.21-.64-72.5 2.66 37.21-8.42-117.64-38.65-9-29.06-18.4L1652.25 137l-25.13 16.86-28.88 1.88-15 50.19-20.73 179.51 5.71 138.65-38-14.64 1.12-14.25-12.09-50.59-.92-87.72-3.43-33.93-12.08.26-13.56 8.86 1.21 25.29-9.06 98.88 3.17 63.82-12.37 31L1435.7 539l-30 1.72-15.31 39.67-126 48.67-103.56 21.24-153.45 51.9-79.19 4.35a343 343 0 00-6.02 33.91zm842.2-306.26l5.69-1 2.59-7.24 11.38 9.31-8.79-2.59-1 2.07 4.66 1.55 6.2 2.59-6.2 3.62-3.11-5.17h-3.62l-1 3.1s2.47 2.78 3.59 3.8c.34.15.55.27.55.34s-.22 0-.55-.34c-2.2-1-10.32-3.28-10.32-3.28l4.14-5.69zm-19.66-114.33l2.8.49-2.8-8.77 5.58-8-.4 8 7.85-4.83-2.58 7.55-2 8.31 6 3.66 2.7 3.77-3.55 1.4-6.81-7.1-9.49-2.9zm-6.21 151.58l-2.07 4.14 12.42-1-7.24 3.1-3 5.86L1745 485l3.47 2.58-4.33 3.12-5.34-4-10.38-1.12 1.94-2.17 2.62-.36-4.84-8.56zm-42.25-93.29l7.5 2.25 1.46-7.84 15.42-7.54-.89 7.61-11.44 9.23 3.53 3.85 7.49-1-1.68 7.27-6.35 3.88-2.18-7-4.77-2 2.09 11.75-12.42-14 7.24-1zM2035.83 556.09l-18.99-7.04-25.57-10.83-13.9-8.78-20.42-29.13v-65.92l-14.92-4.6-6.29 6.13v52.89l-14.92 15.33-7.85-74.35v-91.22l-14.13-10.73h-7.86l-3.92 61.32 6.28 98.12-5.91 12.5.44.02 2.84 6.93.93 34.92v26.03l-9.95 12.76-18.86-1.63-.46 33.98-.92 24.19.9-.63 2.25-1.26 2.3-1.17 2.32-1.14 2.2-1.16-1.96 1.37-2.03 1.44-1.82 1.7-1.99 1.5-1.83 1.67-.44.38-.34 8.69 1.13-.26 2.49-.42 2.51-.26 2.51-.33 2.5-.31 2.52-.21 2.52-.19 2.53-.04h2.53l2.52.14 2.43.24-2.44.21-2.54.09-2.52.3-2.51.36-2.48.51-2.51.36-2.49.48-2.42.79-2.46.62-2.38.86-1.52.38v1.11l.96-.6 19.31-2.04 8.53 6.17-1.43 7.49-3.51 1.58 49.99 4.24 58.26-2.76 58.46-98.31-15.67-12.48z"/></g><path d="M1712.87 670.21l-.66-.18.39.27.65.49-.06-.11zm-252.55 155.85l-3.27.57-3.19.91-3.28.57-3.18 1-3.16 1-2.49.88 9.23-.17 13-5.63h-.43zM1703 668.52l-2.13-1.54-74.26-20.06c-.27 2.06-.57 4.21-.9 6.47-5.11 34.58-11 42.77-15.33 45.71 2.85 3.46 4.57 10.95 5.25 34.88.11 3.67.17 7.28.19 11l10.52-11.26c2.22-10.11-4.37-19 2-27.61 4.87-6.53 15-9.85 20.83-6.71a10.22 10.22 0 014.37 5.17l10.87-11.64 16.35-3.42.2-.11 3.11-1.24 3.09-1.3 3.18-1 3.11-1.27 3.27-.75 3.28-.84 3.19-1 3.24-.64-1-.22-3.36-.49-3.34-.6-3.38-.25-3.38-.35-3.4.12h-3.39l-3.42-.07 3.26-.56 3.24-.58 3.26-.4 3.27-.44 3.29.06 3.28-.37h3.08l-.28-.1-3-1.47-3.08-1.18-3.21-.82-3.14-1-3.19-.86-3.21-.77-3.17-.92-3.28-.48-3.23-.68-3.18-.35 3.14.14h3.25l3.25.14 3.24.19 3.25.11 3.2.57 3.22.41 3.19.64 3.24.37 3.1 1 3.22.51h.06l-2.34-1.92zM29.53 705.24l11.66-.37-.61-26.87v-5.36l-12.22-2.3.2 3.36-2.24 15.4zm175.83-69.48l-50.56 6.29-68.15 21.42.17 4-3.65 69.33-15.16 6-8.16 2L58 757l1.43 18.6.88-.53 1.81-1.15 1.88-1.16 1.89-1 1.77-1.08-1.72 1.22-1.66 1.42-1.73 1.33-1.55 1.53-1.4 1.29v4.7h.07l2-.81 2.05-.7 2.07-.72-2 1.13-1.94 1.11-2 1-.32.22v3.6l1.13-.33 2.2-.26L65 786l2.2-.24 2.19-.28h2.22l2.2-.28 2.21.05h2.21l2.21.16 2.21.05 2.16.34-2.1.07h-2.14l-2.14.09-2.13.09-2.11.42-2.13.18-2.08.47-2.13.24-2 .65-2.07.52-2 .63-2 .58-.16.06v7.86l113.37 24.74 28.06-6.85a392.63 392.63 0 01-1.63-30.93c-.39-26.16 1.54-30.64 5.08-33.32a13.73 13.73 0 013.77-2c-1.79-1.81-3.67-5-4.84-12.35-7 .7-18.44-10.21-19-10.71-2.71-2.63-13.4-13.3-14-29.57-.16-4.31-.59-15.78 5.82-18.88 4.48-2.16 11.65.09 15.21 4.75 7 9.11-4.67 21 2.11 31.55 2.33 3.61 5.72 5.32 8.7 7-.06-4.25 0-9.15.26-14.79 1.6-37.19 7.63-43.39 10.28-44.89-6.59-6.54-7.59-17.98-7.45-25.65zM63.74 729.21l6.72-2.94-1.93-29.15.79-28.2-11.85 3.72-.21 11.29 1.3 46.53zm1525.38-90.36L1434.48 625l-97.67 37-1.71 68.27 1.37 30.38 7.5 1.48 8.61-5-2.13-35.18 1.74-40.67 6.69-1.83 9.16 2.76 1 26.45-1.35 58.34-11.12 8.36-17.2 1.82-1.31 24.14 1.3 28.17v5.86l2.41-2.45 25.07-.47 1.94-.22 3.25-.82 3.33-.38 3.32-.45 3.34-.17 3.33-.41 3.36.13h3.34l3.35-.17 3.29.23-.87-.46-3.11-1.35-3.07-1.45-3.2-1.13-3.17-1.22-3.31-.77-3.26-.92-3.28-1 3.29.31 3.28.28 3.25.47 3.27.43 3.17.92 3.25.49 3 .86-.25-.17-2.48-2.2-2.67-1.95-2.88-1.62-2.77-1.8-2.85-1.66-2.9-1.58-2.83-1.72-3-1.32-3-1.49-3-1.17 3 .95 3.15.82 3.1 1 3.08 1 3.11 1 2.94 1.38 3 1.25 2.91 1.44 3 1.2 2.73 1.79 3 1.33h.05l-1.76-2.47-1.91-2.71-2.09-2.58-1.84-2.78-2.31-2.39-2.11-2.56-2.3-2.4-2.21-2.36 2.67 1.69 2.58 2 2.42 2.16 2.56 2 2.24 2.35 2.55 2 2.17 2.41 2.35 2.23 2.1 2.47.5.64v-.12l-1.08-3.08-.89-3.14-.92-3.13-1.17-3-1.15-3-1.23-3-1.43-2.94-1.15-3-1.42-2.94-1.35-3-1.72-2.78-1.27-3-1.86-2.7-1.49-2.93 2 2.75 2.31 2.48 1.95 2.76 1.85 2.82 2.14 2.63 1.75 2.89 1.75 2.88 1.81 2.86 1.5 3 1.5 3 1.7 2.92 1.23 3.14 1.42 3.06 1.52 3 .72 2.49.14-.95v-3.38l-.09-3.38.09-3.37.34-3.38-.08-3.38v-3.37l.08-3.38-.32-3.38.08-3.37-.2-3.38v-3.38l-.17-3.37v-3.38l-.15-3.38-.08-3.37-.39-3.36-.12-3.29.59 3.14.82 3.17.81 3.18.5 3.25.91 3.16.59 3.23.34 3.27.63 3.22.42 3.25.64 3.23.2 3.28.46 3.25.21 3.27.42 3.26.29 3.27v2.18l.43-1.28 1.09-3.18 1-3.22 1.3-3.1 1.23-3.13 1-3.24 1.29-3.1 1.07-3.2 1.49-3 1.21-3.14 1.29-3.11 1.3-3.1 1.22-3-.71 3.14-.78 3.25-.56 3.31-.81 3.25-.62 3.29-.78 3.26-.72 3.27-.52 3.31-.72 3.28-1.06 3.19-.66 3.28-.55 3.31-.76 3.26-1 3.2-.18.91.17-.22 1.83-2.82 2.19-2.56 2.17-2.56 2.12-2.6 2.38-2.38 2.36-2.4 2.18-2.56 2.55-2.2 2.38-2.36 2.51-2.46-2 2.76-2 2.6-1.83 2.73-1.75 2.78-1.74 2.77-1.67 2.82-1.73 2.79-1.68 2.81-1.4 2.25 1.68-1.43 2.71-2 2.87-1.79 2.77-1.94 3-1.53 2.87-1.78 2.91-1.71 2.9-1.75 3.06-1.44 3.12-1.31 3.13-1.28 3-1.31-2.69 1.61-2.79 1.69-2.53 2.06-2.74 1.77-2.55 2-2.62 1.92-2.52 2.07-2.61 2-2.47 2.11-2.49 2.1-2.26 2.35-2.45 2.15-.11.12.93-.21 3.23-.7 3.16-.76 3.23-.7 3.28-.42 3.27-.52 3.22-.36 3.31-.1 3.3-.21 3.31-.16h3.28l83.33-36.08c-20.61-22.61-22.8-48.66-23.81-60.77-.68-8.07-.21-13.74 3.46-16.47 4.83-3.59 13.7-1 19.08 3.46 4.66 3.88 5.91 8.5 9.54 26.89 6.18 31.28 5.63 33.51 9.54 38.16l.66.74 3.89-1.69a348.41 348.41 0 01.07-38.53c1.64-31 4.41-35.91 8.41-39.05a20.45 20.45 0 014.24-2.54c-6.91-10.21-3.54-32.14-1.06-48.19.52-3.17 1.02-6.39 1.57-9.61zm-1565.86 79l-10-11.78v-38.54l-3.44-.64-62.32 8.79v141.14l68.29-28.75 5.45 1.19-1.55-.78-2-.84-1.93-.93-2-.81-2-.89-2-.7-1.95-.92-2.06-.65-2-.6 2.13.37 2.2.32 2.21.35 2.19.44 2.14.66 2.14.63 2.12.69 2.18.5 2.08.8 2.13.69 2.06.87 1.3.65-1.25-1.22-1.52-1.54-1.55-1.51-1.52-1.54-1.56-1.5-1.56-1.51-1.6-1.45-1.7-1.35-1.76-1.49 2 1.18 1.91 1.13 2 1 1.8 1.3 1.89 1.16 1.9 1.15 1.78 1.33 1.8 1.3 1.8 1.29 1.63 1.52.14.11L33 788l-1.16-1.89-1-2-.87-2-.94-2-1.19-1.87-1-2-.86-2-1-2-1-2-.92-2-1-2-.88-2-1-2-.95-1.89 1.25 1.72 1.33 1.78 1.32 1.79 1.27 1.82 1.44 1.7 1.16 1.9 1.32 1.79 1.12 1.92 1.29 1.8 1.27 1.79 1.15 1.9 1.2 1.87.48.75-.38-1.39-.34-2.14-.24-2.15-.38-2.14-.22-2.15-.4-2.14-.1-2.16-.25-2.16-.1-2.16-.3-2.15L32 760l.08-2.17-.19-2.16v-4.34l-.12-2.1.44 2.12.29 2.22.49 2.18.44 2.18.55 2.17.42 2.19.52 2.17.41 2.19.58 2.15.33 2.22.59 2.15.54 2.16.49 2.18.75 2.11.59 2.15.48 2.18.55 2.16.24.59.07-1.71.5-2.18.42-2.19.29-2.21.53-1.81.46-28.84-.46-31.37zm33.52-310.1l-1.11 6.53 1.84 6.4 5 3.54 6 1.54 6.19-.55 4.29-4.74 8.89.69 7.36.38 5 4.9 5.79 4.05 5.68 4.19 6.89 4.4 7.46 3.36 7.86 2.24 8 1.64 8.07 1.1 8.59 1.77 8.14 2.9-8-4.8 7.68.6 7.29-2.05-10.61-1.3 8.59-1.42 7.6-4.23-8.34 1h-8.41l-8.31-1.47-6.62-2-6.25-3-5.74-3.92-5.3-4.5-5.73-3.9-5.85-4-5.77-4 5.93-2.15 1 1.53.68-3.73-2.18-1.91-5.5-2.16-9.17-1.68-6.26-3.8-5.54-4.81-5.08-5.32-5.28-5.07-5-5.43-4.83-5.57-4.89-5.5-4.55-5.5-3.28-6.47-2.82-6.63-2.33-6.82-1.65-7-1.3-7.22-1.56 7.86-.34 7.85.79 8.05-3.1-6.8-1.23-7.18-1.37 6.19-.32 6.38 1 6.34-6.85-8.11 4.08 9.27 1.45 7.09 2.38 6.87 3.82 6.21 5 5.29 6.25 5.39 5.81 5.85 5.54 6.1 1.58 6.92-8.56.43zm1758.29-85.29l2.07-36.22 2.07-45.52-16.56-34.15 5.18 67.26-29-37.25 19.66 49.66-1 48 15.83 38.94-12.8 56.9-18.52 33.09 16.87 65.19 4.86 26.9 14.4 23-3-62.73.85-22.41.3-.13-7.36-21.58 7.25-36.21 2.5-28.87 2.67-8.38-1.09-9.83 4.19-12.93zm24.08 16.88l-5.06-70.76.64 72.5 8.28 36.21-1 7.25 3.11 9.31-5.18 11.38-1 30 7.63 31-.14-12.34 1.45-22.52 2.34-1.43v-53.81zM1301 802.33l-8.14-4.8-2.85-24.1 1.12-42-1.33-12.41 3.36-8.19 9.78.68L1305 713l1.59 20.16-1.55 24.94.74 29.61 12.28.41-.46-34.41-.4-60.32-.48-23.74-120.3 45.6-46.09 30.42-110.68-26.29-83.61 13.52-3.67 4-1.4.16-2.29.08-2.23.43-2.27.28-2.2.57-2.25.39-2.22.51-2.13.82-2.17.69-2.14.78-1 .29.73-.85 1.66-1.66 1.66-1.66 1.8-1.52 1.75-1.57 1.91-1.36 1.83-1.47 1.83-1.44-2 1.09-2.1.91-1.91 1.25-2 1.15-2 1.14-1.8 1.4-2 1.13-1.6 1.56-1 .79.48-1.06 1.15-2.1 1.11-2.12 1.21-2.06 1.2-2.07 1.19-2.07 1.22-2.06 1.36-2 1.31-2 1.41-1.94 1.46-1.89 1.58-1.81 1.57-1.92-1.92 1.51-1.71 1.59-1.61 1.71-1.67 1.64-1.5 1.79-1.67 1.63-1.6 1.72-1.4 1.81-1.46 1.84-1.27 2-1.47 1.83-1.15 2-1.28 2-1.07 1.56.13-.65.23-2.32.32-2.3.28-2.32.26-2.31.58-2.27.31-2.31.36-2.3.36-2.3.58-2.26.28-2.32.52-2.27.59-2.26.42-2.29.41-2.3.52-2.27.64-2.3-1 2.21-.83 2.22-.81 2.23-.95 2.17-.91 2.19-.64 2.29-.81 2.23-.82 2.22-.56 2.31-.85 2.22-.45 2.33-.65 2.28-.55 2.3-.62 2.29-.08.27-.22-1.47-.6-2.26-.27-2.33-.52-2.27-.5-2.28-.3-2.31-.63-2.26-.35-2.3-.51-2.28-.51-2.28-.63-2.24-.45-2.3v2.33l.21 2.32.12 2.31.17 2.32v2.32l.16 2.32v2.32l.16 2.32v2.32l.18 2.32.18 2.31.06 2.32.26 2.31.05 1.11-.49-.83-1.07-2.1-1.16-2-1.32-2-1.08-2.09-1.3-2-1.46-1.85-1.25-2-1.47-1.85-1.39-1.85 1 2 1 2.09 1 2.06.83 2.15 1 2.07.81 2.15 1 2.06.85 2.13.36 1.13-.43-.43-1.59-1.73-1.46-1.72-1.77-1.54-1.69-1.64-1.88-1.42-1.8-1.51-1.74-1.59-2-1.22-1.83-1.48-2-1.25-2.07-1.32 1.76 1.59 1.75 1.44 1.64 1.57 1.55 1.65 1.55 1.66 1.54 1.66 1.42 1.75 1.53 1.68 1.5 1.69 1.38 1.8 1.32 1.84.52.69-1.08-.51-2.14-.8-2.11-.89-2.14-.8-2.17-.75-2.23-.51-2.19-.68-2.26-.37-2.23-.5-2.27-.33-2.24-.49-2.27-.3h-2.29l-2.28-.21-2.21-.08 2.2.32 2.26.47 2.28.36 2.22.61 2.22.62 2.21.67 2.19.71 2.12.89 2.18.75 2.1 1 2.06 1 2.1.95 2 1.2.28.18h-.82l-1.77-.37-2.3-.06-2.28-.33h-4.6l-1.6.08-82-4.72-.16-3.09-6.39-5.92-14.58-3.39-16.36 7.43-2 2.07.24.64-59.51-3.43L549 678.52l-.76-15.52.25-23.31 6.93-.36 10.76-5.86.82-35.37-.6-16-5.56-1.67-4.05 1.11-1 24.64 1.29 21.3-5.23 3-4.53-.86-.83-9.66 1.18-47.19.5-8.62-3.84-1.65-6.22.56-2.21 11.81.35 29.56-7.51-2.2-.45-17.71v-8.78l-1.26-.86-5.92-.42-2 5 1.85 28.77 4.93 2.91 10.7 3.2.6 60.27L475.31 654 466 636.19l-111.48-19L235.51 632c-1.17 13.84-2.22 26.3-7 31.53a16.56 16.56 0 013 3.13c2.83-1.24 6.09-2.7 8.86-5.73 8-8.76 1.26-19 9-25.84 5-4.38 13.6-5.33 17.68-1.87 6.15 5.23 1.42 20.16-4.06 28.53-4.71 7.19-10.71 10.68-15.58 13.52a55.77 55.77 0 01-10.89 5.29c1.31 8.53.95 18.57.61 27.73-.56 15.55-1.35 37.15-10.67 43.85 3.58 2.71 6.19 7.49 8.81 34.67a1.94 1.94 0 000 .24c3.59-3.59 7.56-7.59 10.37-13.38 7.34-15.1-3-22.18 1.4-54.2 1.28-9.23 3.23-23.25 8.77-24.18s12.73 11.87 16 20.44c10.13 26.2 2 57.64-14.78 77.92a93.38 93.38 0 01-10.4 10.68l15.79-3.86 44.58 5.3a23.17 23.17 0 016.6-6.22 26.91 26.91 0 015.49-2.59c-.52-.18-1-.38-1.54-.61-13.2-6.13-13.76-26.76-14.09-38.88-.35-13.36-.67-25.05 7.8-31.18 7-5.09 17.86-4.68 24.94 0 10.22 6.76 10.18 20.79 10.13 34.29 0 12-.1 29-11.4 35.22l-.7.35a16.88 16.88 0 015.6 2.69 11.55 11.55 0 014.19 6.29c5.92-2.24 13.78-3 17.18-9.32 5.38-10-7-21.3-1-29.94 3.42-4.87 11.09-6.59 16.41-4.83 11.75 3.89 17.56 26.54 10.62 42.49a35.93 35.93 0 01-7.48 10.84l86.55 10.21 57.7 6.15 6.64-3.42h11.19l4.49 5.8 16 1.7-.22-2.47 11.48-9 19.55-6.3 18.62 6.6 3.66 10.14L614 840l-.86.28 43.16 4.6 83.22-22.74 99.57 30.11 72.06 36.2 26.11 3.55 75.49-13.34 1.75-5.72 8.76-4.88 25.28-6 15.35 4v2.74l-2.41 1.31 56.45-10 201.92-6.89v-14.85l-1.3-34zm-356.56-56.69l-4.55-.26.69-.14L943 745l2.26-.27zm1.27-1.4h-.23l-2.33.08-2.32-.1-2.33-.1-2.32.15-2.32.1-1.55.22 1.29-.71 2.16-.89 2-1.16L940 741l2.18-.81 2.17-.84 2.19-.78 2.23-.64 2.28-.47 1.21-.32z" opacity=".15" fill="#fff"/><g opacity=".05"><path class="cls-3" d="M341.19 998.63l25.61 2.21a179 179 0 0121.42-2 175.93 175.93 0 00-43.08-5.12 25 25 0 01-3.95 4.91zM1860.68 881.21c.86.13 1.71.27 2.56.42l-.63-.84c-.61.14-1.29.27-1.93.42zM235.56 880.59c6 46.84 6.28 54.13 4.48 66a99.37 99.37 0 01-2 10.3l4.18-3.68 5.54-1 6.37 4.53h27.18l13.11 15 .86 7.74-.73 7.35 9.3 4.4c-2.11-7.5-3.27-20.36-4.19-44.3a624.76 624.76 0 01-.6-28.29c-8.61 4.73-26.48-12.38-27.7-13.57-4.08-4-20.63-21.14-20.69-47.6 0-5.89 0-30.84 14.48-37.25 5.3-2.33 14.25-2.89 19.66 2.07 14.17 13-11.75 49.11 4.14 66.22 3.75 4 8.51 6.49 11.56 10.51 1-4.67 2.6-6.59 4.6-8.21a21.35 21.35 0 015.52-3.16c-13.34-12.27-13.22-42.07-11-57.63 1.18-8.19 2.51-17.3 7.43-24.17l-44.62-5.27-15.8 3.86a39.48 39.48 0 01-9.94 6.56c.14 6.32.11 13.35-.22 21.23-.85 20.29-2.82 25.76-7.29 29.22l-.25.18c4.59 3.8 5.69 11.63 6.62 18.96zM351.19 975.19c-1.05 6.64-2.68 12.53-5.33 17.3a183.25 183.25 0 0149.74.94 183.62 183.62 0 00-44.41-18.24zM1763.06 850c.12 1 .19 2 .23 3.09l2.8-1.85c-1.01-.4-2.01-.83-3.03-1.24zM1706 888.12a54.39 54.39 0 01-13.44-12.37 39.4 39.4 0 01-2.1 14.09zM1856.66 855.39q-3 4.79-5.73 9.67 2.22-1.57 4.5-3.11a17.7 17.7 0 01.76-5.28c.13-.44.3-.86.47-1.28zM611.78 1018.71a127 127 0 00-19.26.84c2.46.39 4.93.86 7.39 1.4l2.12.18zM-38.06 884.27l47.57-3.57 2-8 2.85-5.94L29 858.45l16.14 5.68c-1.27-6-.82-12 1.81-16.46 9-15.36 44-13.2 50.87 1.38 3.46 7.28.16 18.11-6.77 26.23l108 49.1a140.34 140.34 0 012.93-37.52c-5.87.56-12.84-5.69-17.79-10.15-4.67-4.19-10.4-9.35-13.89-18.25-4.05-10.35-5.81-27.66 2.07-32 5.22-2.84 14.4.16 18.8 6 6.86 9.18-2.79 18.81 3.91 30.14 3.07 5.2 7.7 7.59 10.85 10.12 1.61-4.15 3.42-7.13 5.63-9.23-4.39-2.55-6.3-8.27-9.23-34.63-.54-4.9-1-9.34-1.36-13.45l-28.06 6.85-113.42-24.64v-7.86l.16-.06 2-.58 2-.63 2.07-.52 2-.65 2.13-.24 2.08-.47 2.13-.18 2.11-.42 2.13-.09 2.14-.09h2.14l2.1-.07-2.16-.34-2.21-.05-2.21-.16h-2.21l-2.21-.05-2.2.28h-2.05l-2.19.28L65 786l-2.17.42-2.2.26-1.13.33v-3.57l.32-.22 2-1 1.99-1.22 2-1.13-2.07.72-2.05.7-2 .81h-.07v-4.7l1.4-1.29 1.54-1.55 1.73-1.33 1.66-1.42 1.72-1.22-1.77 1.08-1.89 1-1.83 1.12-1.85 1.21-.88.53L58 757l1.83-12.08 8.16-2 15.16-6 3.65-69.32-.8-20.81-5-2.92-11 4.72-1.36 48.53 1.93 29.15-6.72 2.94-5.18 1.25-1.3-46.53.87-45.34.76-37.53-1.46-20.8-4-2.24-11.62 4.52-1.72 34.85.38 60.61.61 26.84-11.66.37-3.25-16.11 2.24-15.4-1.77-29.32-3.69-2.3-7 .27-2.88 6.4v57.31l10.05 11.78 19.07-1.5.46 31.37-.46 28.84-.53 1.81-.29 2.21-.42 2.19-.5 2.18-.07 1.71-.24-.59-.55-2.16-.48-2.18-.59-2.15-.75-2.11-.49-2.18-.54-2.16-.56-2.12-.29-2.22-.58-2.15-.42-2.19-.52-2.17-.48-2.19-.55-2.17-.45-2.18-.49-2.18-.29-2.22-.44-2.12.12 2.1v4.34l.19 2.16L32 760l.13 2.16.3 2.15.1 2.16.25 2.16.1 2.16.4 2.14.22 2.15.38 2.14.24 2.15.34 2.14.38 1.39-.48-.75-1.2-1.87-1.16-1.92-1.33-1.79-1.29-1.8-1.12-1.92-1.26-1.79-1.19-1.88-1.44-1.7-1.27-1.82-1.32-1.79-1.33-1.78-1.25-1.72.95 1.89 1 2 .88 2 1 2 .92 2 1 2 1 2 .86 2 1 2 1.19 1.81.94 2 .87 2 1 2L33 788l.26.55-.14-.11-1.63-1.52-1.8-1.29-1.8-1.3-1.8-1.33-1.9-1.15-1.89-1.16-1.8-1.3-2-1-1.91-1.13-2-1.18 1.76 1.45 1.7 1.35 1.6 1.45 1.56 1.51 1.56 1.5 1.52 1.54 1.55 1.51 1.52 1.54 1.25 1.22-1.3-.65-2.06-.87-2.13-.69-2.08-.8-2.18-.5-2.12-.69-2.14-.63-2.14-.66-2.19-.44-2.21-.35-2.2-.32-2.13-.37 2 .6 2.06.65 2 .92 2 .7 2 .89 2 .81 1.93.93 2 .84 1.55.78-5.45-1.19-68.8 29z"/><path class="cls-3" d="M1934.78 669.64l-50-4.24 3.51-1.58 1.43-7.49-8.53-6.17-19.31 2-1 .6v-1.11l1.52-.38 2.38-.86 2.46-.62 2.42-.79 2.49-.48 2.51-.36 2.48-.51 2.52-.36 2.51-.3 2.54-.09 2.44-.22-2.43-.23-2.52-.14h-5.06l-2.52.19-2.52.21-2.5.31-2.51.33-2.51.26-2.49.42-1.13.26.34-8.69.44-.38 1.83-1.67 2-1.5 1.82-1.7 2-1.44 2-1.37-2.2 1.16-2.32 1.14-2.3 1.17-2.25 1.26-.9.63.92-24.19.46-34 18.86 1.63 10-12.76v-26l-.93-34.92-2.84-6.93-8.07-.3-3.65 2.49-.3 25.85 2.85 21.47-3.21 17.45-11.54-.4 2-96-2.78-38.4-11.41-3-4 2.42-1.45 22.52 1.45 130.19-7.42-.57-9.13-4.31 1.91-31.57-1.47-57.32-5.67-1.45-10.11 4.36-.85 22.41 3.61 75.07 15 6.54 7.78 1.49 1.11 20.44-.35 7.53-.27 1.05-.81 2.44-.56 2.51-.77 2.45-.82 2.43-.59 2.5-.66 2.48-.26 1-.08-1.66-.39-2.48-.49-2.45-.34-2.48-.53-2.45-.32-2.49-.66-2.42-.5-2.45-.65-2.42-.43-2.47-.63-2.42-.86-2.36-.56-2.45-.78-2.37-.8-2.38-.62-2.35.27 2.49.48 2.54.24 2.57.29 2.56.17 2.57.31 2.56.2 2.57.33 2.56.13 2.57.42 2.55.12 2.58.17 2.57.24 2.57-.07 2.58.11 2.58.25 2.57.16 2.57-.05.73-.69-1.86-1.32-2.22-1.24-2.25-1.11-2.33-1.45-2.13-1.31-2.22-1.3-2.23-1.53-2.07-1.49-2.1-1.49-2.11-1.76-1.88-1.56-2-1.63-2-1.89-1.76-1.68-2 1.3 2.15 1.55 2 1.13 2.22 1.47 2 1.18 2.18 1.24 2.16 1 2.27 1.25 2.15 1.09 2.24 1 2.26 1.06 2.25.86 2.34.85 2.33 1 2.29v.09l-.42-.46-1.73-1.76-1.91-1.57-1.78-1.72-2.05-1.4-1.83-1.67-2.06-1.37-2-1.52-2.06-1.36-2.13-1.15 1.81 1.68 1.88 1.7 1.75 1.84 1.89 1.69 1.54 2 1.73 1.85 1.6 2L1823 650l-2.34-.86-2.17-1.21-2.37-.75-2.29-.94-2.35-.79-2.32-.89-2.42-.57-2.4-.62-2.41-.57-2.44-.45-2.32-.56 2.32.72 2.32 1 2.38.84 2.25 1.16 2.29 1.05 2.26 1.11 2.2 1.22 2.28 1.08 2.14 1.34 2 1.54.19.12-2.3-.5-2.51-.2-2.46-.53-2.5-.15-2.51-.18h-2.51l-2.52-.06 2.55.55 2.53.53 2.56.41 2.48.76 2.5.69 2.41.93 2.44.87.69.3h-2.52l-2.54.31-2.55.16-2.56.07-2.51.5-2.54.31-2.5.52-2.51.47-2.43.79-2.52.48-2.41.85-2.42.82-2.37 1-2.42.84-2.25 1.14 2.34-.67 2.33-.81 2.38-.66 2.39-.66 2.46-.28 2.41-.56 2.46-.23 2.42-.49h2.48l2.46-.17h2.47l2.47-.09 2.23.06-29.26 7.68-.68.14-1.45-.14-3.32.18h-3.31l-3.32-.16-3.31.18-3.28.46-3.33.07-3.28.46-3.29.42-3.22.81-3.22.78-2.89.49 2.72-1.88 2.78-1.8 2.81-1.78 3-1.41 2.84-1.71 3-1.41 2.91-1.63 3.08-1.25 3.14-1.09 3.06-1.29 3.14-1.09 3.17-1 3.24-.76 3.07-.89-3.17.32-3.28.45-3.26.64-3.24.69-3.19.88-3.19.9-3.14 1-3.13 1.06-3.17 1-3.1 1.17-3 1.35-3 1.27-2.94 1.51-3 1.5-2.94 1.52-.84.45.08-.14 1.8-2.72 1.56-2.86 1.86-2.67 1.84-2.69 2-2.56 1.89-2.65 2-2.54 1.94-2.62 2.17-2.42 1.91-2.65 2.25-2.36 2.17-2.26-2.53 2.05-2.69 2-2.67 2.09-2.58 2.19-2.34 2.44-2.37 2.19-2.3 2.47-2.53 2.27-2.16 2.6-2.31 2.47-2.09 2.66-1.25 1.82.77-2.54.88-3.15.94-3.14.88-3.16 1-3.14 1-3.13 1-3.11 1.25-3 1.26-3.21-1.78 3-1.69 2.89-1.88 2.8-1.44 3-1.65 2.92-1.67 2.92-1.37 3.07-1.43 3-1.44 3-1 3.21-.11.25-.07-.92.16-3.35-.12-3.35-.33-3.34-.23-3.34.19-3.36-.16-3.35-.35-3.33-.17-3.35-.1-3.34-.26-3.34-.07-3.35-.31-3.34-.1-3.35-.13-3.21-.4 3.2-.45 3.34-.43 3.33-.35 3.35-.65 3.31-.2 3.36-.43 3.34-.08 3.37-.38 3.34-.44 3.34-.13 3.36-.22 3.36-.08 1.35-.52-2.13-1.13-3.08-1.26-3-1.06-3.1-1.29-3-1-3.12-1.47-2.94-1.25-3-1.45-2.95-1.18-3.07-1.42-2.95-1.7-2.82-1.33-3-1.61-2.86-1.62-2.85-1.39-2.88 1 3.14 1.25 3.15 1 3.24 1 3.22.86 3.27 1 3.21.92 3.25 1.06 3.21.81 3.28 1.19 3.17.8 3.28.87 3.27 1 3.24.56 3.34.79 3.29 1 3.23.84 3.28.12.94-1.35-2.21-2.26-2.52-2.16-2.59-2-2.72-2.41-2.37-2.24-2.52-2.23-2.54-2.49-2.28-2.45-2.33-2.44-2.32-2.75-2-2.52-2.24-2.61-2.15-2.87-1.79-2.65-2.14 2.2 2.44 2.5 2.12 2 2.58 2.39 2.23L1696 647l2.14 2.46 1.9 2.65 2.15 2.46 2 2.59 1.91 2.65 1.93 2.63 1.7 2.79 1.68 2.79 1.84 2.69.06.11-.65-.49-2.67-1.83-2.85-1.54-2.73-1.76-3-1.28-2.78-1.68-3-1.25-2.9-1.46-3-1.23-3-.94 2.75 1.7 2.84 1.72 2.71 1.92 2.86 1.7 2.5 2.21 2.68 1.94 2.56 2.12 2.34 1.92h-.06l-3.22-.51-3.1-1-3.24-.37-3.19-.64-3.22-.41-3.2-.57-3.25-.11-3.24-.19-3.25-.14h-3.25l-3.14-.14 3.18.35 3.23.68 3.28.48 3.17.92 3.21.77 3.19.86 3.14 1 3.21.82 3.08 1.18 3 1.47.28.1h-3.08l-3.28.37-3.29-.06-3.27.44-3.26.4-3.24.58-3.26.56 3.42.07h3.39l3.4-.12 3.38.35 3.38.25 3.34.6 3.36.49 1 .22-3.24.64-3.19 1-3.24.84-3.27.75-3.11 1.27-3.18 1-3.09 1.3-3.11 1.24-.2.11-16.35 3.42-10.87 11.64c3.35 7.85 1.4 21.36-2.08 30.24-3.86 9.85-10.22 15.57-15.38 20.22-5.77 5.19-14 12.62-20.73 11.1-.22 5.17-.53 10.8-1 17.14-2 30.24-3.94 36.12-9 39l-.15.08c4.48 3.93 7.53 10.87 10.34 22.73a151.85 151.85 0 011.19 66.53l27.74-6.21c-11-7.14-18.48-20.18-16.58-32.07 3.39-21.16 35.85-34.56 52.94-22.35a21.86 21.86 0 012.75 2.33 20.76 20.76 0 01.87-6.14c6.89-22.36 56.54-32.72 72.67-12.56a27.86 27.86 0 015.14 11.17c2.88.7 5.73 1.46 8.53 2.28l2.28-1.5 26.47 7.28 4 4.8a255.19 255.19 0 00-35.11-42.85 218.24 218.24 0 0144.44 41.3q-6.57-21.24-15.32-42a280.08 280.08 0 0125 44.54q.11-36.27.9-72.55 5.57 31.42 8.68 63a415.29 415.29 0 0129.38-72.62 797.29 797.29 0 00-21.56 86.3 232.52 232.52 0 0152.32-54.48 285.91 285.91 0 00-31.92 40.16c12.76-14.15 46.7-18.88 58.82-3.72 9.68 12.08 5.73 37.17-8.37 47.72l69.74-.66 12.42-226zM1753 674.38l.9-.29 3.21-1 3.16-1.14 3.22-.92 3.25-.83 3.35-.37 3.28-.67 3.35-.3 3.32-.41 3.31-.46zm88.43-25.57l-.08.14-.12.17.08-.69.12-.46zM346.35 826.78v6.28c-.22 31.52-.54 48.67-9.21 56a29.76 29.76 0 015.31 3.21c12.81 9.86 12.06 27.6 10.91 54.56-.38 9-.75 17.73-1.78 25.52a186.7 186.7 0 0151.84 14.94 254.3 254.3 0 00-40.37-44.1 218.55 218.55 0 0147 38.39q-7.94-20.79-18-41a279.84 279.84 0 0127.79 42.87q-2.21-36.21-3.73-72.47 7.56 31 12.69 62.36A415.45 415.45 0 01453.49 899a797.1 797.1 0 00-16 87.49 232.76 232.76 0 0148.74-57.7 282.62 282.62 0 00-37.78 58.26A188.28 188.28 0 01486.78 963a199.63 199.63 0 00-30.58 26.84A184.14 184.14 0 01510 978a178 178 0 00-48 18 180 180 0 0135.35 0 170.23 170.23 0 00-38.1 6.63 176.61 176.61 0 0144.75 10.04l36.36 3.14a125.2 125.2 0 00-27.13-8.27 133 133 0 0125.79 3.2 130.66 130.66 0 00-33.44-17.46 135.07 135.07 0 0138.2 13.52 146.87 146.87 0 00-19.87-22.35 138 138 0 0125.76 21.06 207.78 207.78 0 00-22.26-45.92 171.23 171.23 0 0130.31 46.51 588.27 588.27 0 00-3.72-65.27 306 306 0 0111.26 56.46q6.59-22.38 14.91-44.33-4.39 26.31-9.3 52.52A206.08 206.08 0 01595 976.74a327.16 327.16 0 00-16.81 28.26 160.45 160.45 0 0137.74-23.73 186.78 186.78 0 00-33.45 28.51 140.26 140.26 0 0156.19-5.47 138.49 138.49 0 00-51 10.65 133.68 133.68 0 0129.81 2.37l68.22-16.89L827.82 985l38.36 17 237 33.71 16.59-2.39-4.86-1.78-2.56-13.9 3.8-2.62 29.91-12 35 5.08 10.16 7.33-3.36 8.14 30.44-4.38-4.33-6.68 13-6.3 14.39-1.69 6.48 2.26v7.61l-5.67 1.37 126.22-18.18 57.61-10.42a218.45 218.45 0 0127.61-10.22 215.86 215.86 0 00-62.18 1.67 223.09 223.09 0 0165.87-11.17 242.44 242.44 0 00-46.56-16.24 228 228 0 0154 9.65 342.89 342.89 0 00-68.93-48.27 282.4 282.4 0 0181 42.71 965.94 965.94 0 00-57.84-91 503.9 503.9 0 0161.54 72.29q-8.47-37.53-14.1-75.82 14.77 41.41 28.76 83.1a339.14 339.14 0 0111.77-60.86q-2.16 27.26-1.6 54.26a264.78 264.78 0 0135.35-64.55 308.27 308.27 0 00-25.3 67.89 227.85 227.85 0 0157.85-43.93c.14-3.36.43-7.29.88-12.11-5.69 1.82-13.78-3.27-19.51-6.88-5.28-3.34-11.79-7.45-16.71-15.6-5.73-9.49-10.37-26.21-3.34-31.76 4.65-3.67 14.18-2.26 19.5 2.79 8.28 7.86.42 19 8.91 29 4 4.72 9.13 6.25 12.66 8.28.9-7.75 2.06-17.13 3.52-28.69 1-8.12 2.26-16.8 7.34-21l-.28-.18c-3.46-2.45-5.69-6-7.37-15-6.65-2.14-16.08-10-21.55-15.28q-1.95-1.9-3.72-3.86l-83.33 36.08h-3.28l-3.31.16-3.3.21-3.31.1-3.29.32-3.27.52-3.28.42-3.23.7-3.24.68-3.23.7-.93.21.11-.12 2.45-2.15 2.26-2.35 2.49-2.1 2.47-2.11 2.61-2 2.52-2.07 2.62-1.92 2.55-2 2.74-1.77 2.53-2.06 2.79-1.69 2.69-1.61-3 1.31-3.13 1.28-3.12 1.31-3.05 1.57-2.9 1.75-2.91 1.71-2.87 1.78-3 1.53-2.77 1.94-2.87 1.79-2.71 2-1.68 1.43 1.4-2.25 1.68-2.81 1.73-2.79 1.67-2.82 1.74-2.77 1.75-2.78 1.83-2.73 2-2.6 2-2.76-2.51 2.46-2.38 2.36-2.55 2.2-2.18 2.56-2.36 2.4-2.38 2.38-2.12 2.6-2.17 2.56-2.19 2.56-1.83 2.82-.17.22.18-.91 1-3.2.76-3.26.55-3.31.66-3.28 1.06-3.19.72-3.28.52-3.31.72-3.27.78-3.26.62-3.29.81-3.25.56-3.31.78-3.25.71-3.14-1.22 3-1.3 3.1-1.29 3.11-1.21 3.14-1.49 3-1.07 3.2-1.29 3.1-1 3.24-1.23 3.13-1.3 3.1-1 3.22-1.09 3.18-.43 1.28v-2.18l-.29-3.27-.42-3.26-.21-3.27-.46-3.25-.2-3.28-.64-3.23-.42-3.25-.63-3.22-.34-3.27-.59-3.23-.91-3.16-.5-3.25-.81-3.18-.82-3.17-.59-3.14.12 3.29.39 3.36.08 3.37.15 3.38v3.38l.17 3.37v3.38l.2 3.38-.08 3.37.32 3.38-.08 3.38v3.37l.08 3.38-.34 3.38-.09 3.37.09 3.38v3.38l-.14.95-.72-2.49-1.52-3-1.42-3.06-1.14-3.12-1.7-2.92-1.5-3-1.5-3-1.81-2.86-1.75-2.88-1.75-2.89-2.14-2.63-1.85-2.82-1.95-2.76-2.31-2.48-2-2.75 1.49 2.93 1.86 2.7 1.27 3 1.72 2.78 1.35 3 1.42 2.94 1.15 3 1.43 2.94 1.23 3 1.15 3 1.17 3 .92 3.13.89 3.14 1.08 3.08v.12l-.5-.64-2.1-2.47-2.35-2.23-2.17-2.41-2.55-2-2.24-2.35-2.56-2-2.42-2.16-2.58-2-2.67-1.69 2.21 2.36 2.3 2.4 2.11 2.56 2.31 2.39 1.84 2.78 2.09 2.58 1.91 2.71 1.76 2.47h-.05l-3-1.33-2.73-1.79-3-1.2-2.91-1.44-3-1.25-2.94-1.38-3.11-1-3.08-1-3.1-1-3.15-.82-3-.95 3 1.17 3 1.49 3 1.32 2.83 1.72 2.9 1.58 2.85 1.66 2.77 1.8 2.88 1.62 2.67 1.95 2.48 2.2.25.17-3-.86-3.25-.49-3.17-.92-3.27-.43-3.25-.47-3.28-.28-3.29-.31 3.28 1 3.26.92 3.31.77 3.17 1.22 3.2 1.13 3.07 1.45 3.11 1.35.87.46-3.29-.23-3.35.17h-3.34l-3.36-.13-3.33.41-3.34.17-3.32.45-3.33.38-3.25.82-1.94.22-25.07.47-2.41 2.45v-5.86l-1.3-28.17 1.31-24.14 17.2-1.82 11.12-8.36 1.35-58.33-1-26.45-9.16-2.76-6.69 1.83-1.74 40.67 2.13 35.18-8.61 5-7.5-1.48-1.37-30.38 2-77.9-.84-14.1-4.68-2.86-10.27.92-4.83 20.7.74 36.36.4 60.32.46 34.41-12.28-.41-.74-29.61 1.55-24.94L1305 713l-2.07-1.42-9.78-.68-3.36 8.19 1.33 12.41-1.12 42 2.85 24.1 8.14 4.8 17.55 2.07 1.3 34v14.76L1117.93 860l-56.45 10 2.41-1.31v-2.74l-15.35-4-25.28 6-8.76 4.88-1.75 5.72L937.26 892l-26.11-3.55-72.06-36.2-99.57-30.11-83.22 22.69-43.16-4.6.86-.23 1.41-6.2-3.66-10.14-18.62-6.66-19.55 6.3-11.48 9 .22 2.47-16-1.7-4.49-5.8h-11.18l-6.65 3.46-57.63-6.15-86.55-10.21c-9.72 9.83-24.33 14.71-33.47 12.41zm1097.89 3.33l3.16-1 3.18-1 3.28-.57 3.19-.91 3.27-.57 3.23-.82h.43l-13 5.63-9.23.17zM1624.06 739.49a19.31 19.31 0 002.3-5.79l-10.52 11.3v2.93a27.67 27.67 0 008.22-8.44zM1526.91 944l2.74-1.61 15-14.56 30.59-6.85c-.37-1.87-.73-3.9-1.06-6.12a82.08 82.08 0 01-1.06-15 224.33 224.33 0 00-46.21 44.14zM1576.29 782.44c-.14-2-.25-3.86-.35-5.72l-3.9 1.69a42.66 42.66 0 004.25 4.03z"/></g><path class="cls-3" d="M423.52 556.87l-19.38-46.59-18.22-4 16.82 7.25 13.45 43.35 35.26 15.23 6 7.05 62.9 21.28-.38-5.94zM546.81 605l-.11 4.37 9.43 3.19-.24-4zM70.3 316.81l-133.19 5.9-5 164.8 67.77 3.58L2.26 475 9 392.33l-3-61.16 5-8.4 8.48-.11 1.4 28.2 14.5 34.27 2.82 56.39 19.73 17.85 1.7-37.2-2.12-1.49-1.84-6.4 1.11-6.53h3.5l.87-19-.21-.21-6.25-5.39-5-5.29-3.82-6.21-2.38-6.87-1.49-7.07-4.07-9.27 6.85 8.11-1-6.34.32-6.38 1.37-6.19 1.23 7.18 3.1 6.8-.8-8.05.36-7.86 1.56-7.86 1.3 7.22 1.65 7 2.33 6.82 2.8 6.64 3.28 6.47.08.1.28-6.1s8.19-15.66 7.83-22.82c-.08-1.6-.13-7.72-.17-16.37zm577.36-138.73l87-56.22L1341 62 997 34l-457-7 263.39-58.9-379.76-24.55L50-12l189 60-300 25-31 44 388.89 20.46zM528.58 597.9l.11 4.33 7.51 2.2v-3.58zM1719.43-12.6l142.35 60.36-336.53 73.06-649.66 62.78L1540 235.35l37.22 6.19-15.78 143.88 5.71 138.65 8.74 35.56.13-109.91-10.35-63.11 10.35-54.84L1573 308l17.59-40.35-10.34-5.18 9.31-14.48-5.18-8.28 17.59-71.39 26.91-9.32 21.51-20.71 1.91-1.28 108.37 23.76 29.06 18.4 38.65 9 4.83 67.4L2004 265l42.37-260.7zm-455.12 641.68l-103.48 21.22-127.42 43.1 127.95-39.72L1267.27 634 1377 585.56zm238.52-306.91l-14.59 8.83 1.2 26.33-9.06 98.88 3.17 63.82-12.37 30-35.48-11-3.54.2 43.53 17.08 10.31-33.12-1-64.19 7.25-99.34v-18.58l8.27-6.21 3.11-9.31 11.3-2.44v-.18zm-936.25 294L631.24 638l-64.58-25.22zM1194 299l-929.58-66.43.14 1.26-6.21-55.45-31.73-9.81 27.37 12 3.95 56.16.85 79.54 2.91 19 22.24 14.14-.52-42-20.86.93-.82 25.77 2.25-70.8 20.27 8.27 3-21.2 11.08-7.56 6.12 3.66-3.29 69 18.43 68.45 2.15 89.6 3.12 30.84-1.55-78.11 13.16-1.37h83.81l79 15.35 110.39 12.42 365-55.54-392.95-31.91zm-871.57 84.35a2.05 2.05 0 00-.06-.39 2.05 2.05 0 01.06.39l.2 8.49c-.11-4.97-.18-8.08-.2-8.49zm.32 14.25c0 1.1.05 2.26.07 3.46l-.07-3.46zm-18-91.17l.37-26.36 58.24 23.76z" opacity=".5"/><g opacity=".35"><path class="cls-3" d="M404.14 510.28l-6.89-1.5 6.89 1.5zM631.24 637.99l-64.65-21.87-.41 17.31-10.76 5.86-6.93.36-.25 23.31.72 15.56 125.92 41.94 332.5-18.26 3.99-1.35-258.46-64.1-115.52 3.64-15.43-6.02 9.28 3.62zM315.15 354.5l1.6 6.09zM519.98 594.54l-13.05-5.1 13.05 5.1zM551.8 630.48l5.23-3.02-.9-14.88-9.43-3.19-.26 10.57.83 9.66 4.53.86zM316.75 360.59l.77 2.93zM-52.55 675.68l62.32-8.79 3.44.64v-18.75l2.88-6.4 7-.27 3.69 2.3 1.57 26 12.22 2.3-.38-55.28 1.72-34.85L53.5 578l4 2.24 1.5 20.82-.84 37.53-.66 34 11.85-3.72.57-20.33 11-4.72 5 2.92.68 16.68L154.75 642l50.56-6.29c.06-3.48.35-6.19.47-7.3.54-4.94 2.83-25.89 14.59-29a13.08 13.08 0 0110.77 2c6.35 4.66 5.67 14.51 4.32 30.51l119-14.81 111.48 19 9.37 17.89 61.78 20.57-.6-60.27-10.7-3.2-4.93-2.91-.5-7.71-62.9-21.28-6-7.05-35.26-15.23-13.45-43.35-16.82-7.25-15.35-3.32-30.52 17.68-15.17-16.29-3.12-30.83-2.15-89.6-18.43-68.45 3.29-69-6.12-3.66-11.08 7.56-4.21 29.52.87 69.52-22.24-14.21 3.14-98.86-3.14 98.86-2.91-19-.85-79.54-3.94-56.17-27.37-12-17-5.25-21 19.44-17.49-9-86.7 25.91-14.23 20.45s-.1 105.88.26 113S62.64 356 62.64 356l-.28 6.1 4.47 5.49 4.89 5.5 4.87 5.51 5 5.43 5.28 5.09 5.08 5.32 5.54 4.81 6.26 3.8 9.15 1.71 5.5 2.16 2.18 1.91-.68 3.73-1-1.53-5.9 2.1 5.77 4 5.85 4 5.73 3.9 5.34 4.45 5.74 3.92 6.25 3 6.62 2 8.31 1.47H171l8.34-1-7.6 4.23-8.59 1.42 10.61 1.3-7.29 2.05-7.68-.6 8 4.8-8.14-2.9-8.59-1.77-8.07-1.1-8-1.64-7.86-2.24-7.46-3.36-6.89-4.4-5.68-4.19-5.79-4.05-5-4.9-7.31-.36-8.89-.69-4.29 4.74-6.19.55-6-1.54-2.92-2.05-1.7 37.2-19.81-17.85-2.82-56.39-14.5-34.27-1.4-28.2-8.48.11-5 8.4 3 61.16L2.26 475l-6.17 42-49.67 9.31-34.14 16.56-43.46 3.1-30.51 20-8.81 16z"/><path class="cls-3" d="M73.87 407.43l-1.58-6.92-5.54-6.1-5.6-5.64-.87 19.02 5.03.07 8.56-.43zM305.64 245.28l-1 69.87s5.58 20.73 10.48 39.35c-4.9-18.62-10.48-39.35-10.48-39.35l1-69.87-7.28-2.5zM317.52 363.52l.73 2.82z"/></g><path class="cls-3" d="M1041.88 477.71l-116.74-25.65-76.14-7.17-56.64 6.05-69.6 4.81-107.55-2.46-115.92-13.05-79-15.35H336.5l-13.16 1.37 1.55 78.11 15.17 16.29L370.58 503l33.56 7.3 19.38 46.59L520 594.54l-1-15.12 2-5 5.92.42 1.26.86v8.78l.22 8.59 7.57-2.89-.18-15.35 2.21-11.81 6.22-.56 3.84 1.65-.5 8.62-.33 13.16 9.47-3.62v-.8l4.05-1.11.52.16 69-26.33 230.74-35.18 286.27.46 104.79-40.7-91.52-8.73zm381.1-9.34l4.35 3.77s31.07 15.23 56.23 27.29l-1.77-35.74zm-1554.73 78l.57-.37 43.46-3.1 34.14-16.56L-3.91 517l3.8-25.89-124-6.56zm2052.57-42.18l8.58-8.81-9.59-.76zm96.27-1.81l-60.14-4.8v2.78l20.42 29.13 13.9 8.78 25.57 10.83 1.37.51zM1523.65 463l7.7 32.23-1.12 14.25 38 14.64-2.38-57.75zm341.52 45.34l10.83 6.85.15-13.15 3.65-2.49 7.63.28 3.55-7.51-25.44-2z" opacity=".15"/></svg>