<svg xmlns="http://www.w3.org/2000/svg" width="1920" height="1080" viewBox="0 0 1920 1080"><defs/><defs><style>.cls-1,.cls-10,.cls-2,.cls-3,.cls-5,.cls-6,.cls-8{fill:#fff}.cls-1,.cls-15{opacity:.6}.cls-11,.cls-2{opacity:.2}.cls-3{opacity:.7}.cls-7{fill:#f7f7f7}.cls-14,.cls-8{opacity:.5}.cls-5,.cls-9{opacity:.4}.cls-12,.cls-6,.cls-7{opacity:.3}</style></defs><path class="cls-1" d="M1074.26 872.35c-2.87 5-.64 16-.11 18.75a5.11 5.11 0 00.15.59c7.26 2.2 14.34 6.73 19.9 11.61-6.34-10.58-12.81-21.05-19.94-30.95zM1095.51 900.85c.27-5.63.71-11.28 1.13-16.9.08-1.15.14-2.36.19-3.61a57.59 57.59 0 00-11.48-8.3 16.16 16.16 0 00-6.59-2.2c5.29 8.51 9.32 18.42 13.82 26.12.93 1.64 1.95 3.26 2.93 4.89zM1097.92 904.79a841.62 841.62 0 0010.9 17.36c-.25-5.14.79-10.42 1.46-15.48.38-2.9.65-5.9 1-8.89a87.57 87.57 0 00-10.82-13.88c-.71 6.88-1.36 13.84-2.46 20.67 0 .09-.06.16-.08.22zM1114.6 903.51l-.42 2.52c-1 6.63-2.18 13.21-3 19.88.12.18.25.36.38.59a1.36 1.36 0 01.25.4c3.15 4.87 6.32 9.75 9.43 14.66a9.73 9.73 0 00.4-1.59c2.47-11.49-.8-24.61-7.04-36.46zM1096.67 907.46a.29.29 0 01-.26-.06 125.57 125.57 0 00-15.7-8.9 65.32 65.32 0 00-5.19-2 80.55 80.55 0 0011 22.67 67.91 67.91 0 0120.15 4.91c-3.4-5.5-6.67-11.08-10-16.62zM1093.89 925.51c-1-.16-2-.3-3-.42 10.94 13.67 23.73 21.94 28.53 19.06a.41.41 0 00.14-.12 400.87 400.87 0 01-10.25-15.66c-5.16-.83-10.26-2.03-15.42-2.86z"/><path class="cls-2" d="M1074.26 872.35c7.13 9.9 13.6 20.37 19.94 30.95-5.56-4.88-12.64-9.41-19.9-11.61a45.93 45.93 0 001.22 4.82c1.74.6 3.5 1.23 5.19 2a125.57 125.57 0 0115.7 8.9.29.29 0 00.26.06c3.32 5.56 6.6 11.12 10 16.63a67.91 67.91 0 00-20.15-4.91 79.27 79.27 0 004.37 5.91c1 .12 2 .26 3 .42 5.16.83 10.26 2 15.43 2.86a400.87 400.87 0 0010.25 15.66 4.09 4.09 0 001.68-2.47c-3.11-4.91-6.28-9.79-9.43-14.66a1.36 1.36 0 00-.25-.4c-.13-.23-.26-.41-.38-.59.81-6.67 1.94-13.25 3-19.88l.42-2.52c-1-2-2.12-3.87-3.29-5.73-.38 3-.65 6-1 8.89-.67 5.06-1.71 10.34-1.46 15.48a841.62 841.62 0 01-10.9-17.36c0-.06.07-.13.11-.22 1.1-6.83 1.75-13.79 2.46-20.67a72.02 72.02 0 00-3.66-3.56c0 1.25-.11 2.46-.19 3.61-.42 5.62-.86 11.27-1.13 16.9-1-1.63-2-3.25-2.93-4.89-4.5-7.7-8.53-17.61-13.82-26.12a5 5 0 00-2.66.6 5.13 5.13 0 00-1.88 1.9z"/><path class="cls-3" d="M1128 1036.86c1.18-16.47 4.64-33.34-5.88-46.71-21.87-27.8-49.49-3.16-65 27.87-17.39 34.74-48.34 33-70.75 69.94-27.45 45.19-11.82 98.22 12.71 108.87 10.94 4.74 16.24-1 33.06 4.5s16.31 12.8 28.41 16.11c23.27 6.39 64.85-15.17 78.54-59.69 13.91-45.45-15.4-60.61-11.09-120.89z"/><path d="M1062.72 1189.52c16.13 3.13 41.42-9 52.16-39.56 14.66-41.78-18.09-72.62-10.42-106.73.75-3.35 4-16.13-2.5-25.61-10.43-15.18-21.43 1.8-32.9 16.14-25.77 32.22-37.06 25.18-57.11 55.14-29.82 44.57-11.27 80.31 6.41 87.72 8.26 3.46 10.79-.68 21.77 2.18 11.74 3.06 12.79 8.82 22.59 10.72z" opacity=".5" fill="#f7f7f7"/><path class="cls-5" d="M1111.36 980.7c2.78-7.62 6.18-18.46 6.9-20.13 4.52-10.48 11.09-19.46 16.49-29.41 1.41-2.6-2.35-4.39-4.14-2.55-9.52 9.73-21.31 34.15-23.23 50.42a23.74 23.74 0 013.98 1.67z"/><path class="cls-6" d="M1047.13 619.64c-20.08 102-89.6 145.13-172.67 134.68-84.87-10.7-153.52-88.79-131.61-107.88 6.39-8 74.81-14.56 155.78-68.24 109.83-72.82 103.06-92.41 117.42-89.8 16.88 2.41 42.02 75.66 31.08 131.24z"/><path class="cls-5" d="M843.55 631.24c-1.48 1 1.67 15.22 6.57 15.54 12.38.81-3.64-17.44-6.57-15.54zM884.82 700.39c-7.73-3.43-3.34 12.74 3.73 14.37s8.99-8.76-3.73-14.37zM909.38 606c-20.14-23.21-8.94 15.48.74 10.76 5.03-2.49 2.88-6.6-.74-10.76zM902.27 649.94c-3.37-4.64-9.09-9.07-10.81-7.78-1.13.85 2.47 17.7 6 18.73 2.68.78 11.3-1.98 4.81-10.95zM986.37 667.77c1.67-6.22-10.9-12.88-13.12-10.95-2.58 2.25 1.71 15 7.47 15.31a6.17 6.17 0 005.65-4.36zM950.1 638c-15.56-23.26-6.4 24.22 3.29 11.55 2.37-3.13-1.94-9.55-3.29-11.55zM1001.21 611.23c.27-4.67-12.17-13.42-14.54-11.8-3.42 2.35 2.91 18.8 10 17.36 2.4-.47 4.39-3.1 4.54-5.56zM1005.4 551.43c-21.61-20.93-7.49 11.52-2.73 12.23 2.93.44 11.5-3.74 2.73-12.23z"/><path class="cls-7" d="M1032 611.45c14.45-80-23.3-124.38-16-123.05-20.49-3.73 24 37.18 5.18 125.48-6.08 28.64-17.1 80.46-62.35 106.43-54.64 31.37-146 13.88-204-79.19-3.82 1-8.45 2.48-11.53 4.92 45.28 103.67 252.76 164.6 288.7-34.59zM743.12 646.18z"/><path class="cls-5" d="M809.87 652.44c-6.06-5.9-7.56 10.79-1.49 14.77s11.46-5.06 1.49-14.77zM955.27 572.11c-7.73-3.43-3.35 12.74 3.73 14.36s9-8.72-3.73-14.36zM848.78 689.57c1.68-6.22-10.89-12.88-13.11-11-2.59 2.25 1.7 15 7.47 15.31a6.15 6.15 0 005.64-4.31zM938.92 704.85c.28-4.67-12.16-13.42-14.53-11.79-3.43 2.34 2.91 18.79 10 17.35 2.4-.47 4.39-3.1 4.53-5.56z"/><circle class="cls-8" cx="328.07" cy="133.62" r="78.97"/><g class="cls-9"><path class="cls-10" d="M318 74.08c-4.93 4.81-3.39 12.83-.48 27.92 2.32 12 4.95 25.72 10.62 26.39 7.89.93 16.07-24 18.74-32.16 3.66-11.15 2.9-14.34 1.93-16.37-4.55-9.58-23.34-13.02-30.81-5.78zM338.41 131.23c-2.56-2.69 2.69-7.46 16-36.08 2.56-5.51 4.44-9.77 8.67-11.07 6.46-2 14.13 4.26 17.81 9.62.63.92 7.3 10.92 3.07 18.94-2.16 4.09-6 5.43-14.06 8.41-27.52 10.14-29.9 11.95-31.49 10.18zM299.16 78.64c5.47 2.07 6.89 8.53 10.43 20 7.14 23.12 10.89 28.07 8.53 30-2.17 1.73-10-3.48-25.65-14-15-10-16.9-12.42-17.38-15.76-1.12-7.75 6.31-16.07 14-19.25 2.26-.99 6.17-2.47 10.07-.99zM337.05 198.1c3.39-3.57 1.81-11.89-1.49-28.39-3.36-16.79-5-25.18-8.34-25.59-4.83-.6-9.87 13.28-16.68 32-4 11-4.18 14-2.85 16.81C312 202 330.47 205 337.05 198.1zM340.11 138.25c.26-3.17 7-3.5 26.54-10 16.26-5.43 18.92-7.65 22.14-5.77 9.09 5.31 6.47 34.42-4.09 38.27-3.32 1.21-5.42-.85-20.7-8.67-18.57-9.54-24.12-10.93-23.89-13.83zM336.13 144.31c2.11-1.41 5.12 1.66 17.38 9 20.09 12 25.59 11.94 26.47 16.85 1.86 10.27-19.39 26.34-28.88 21.66-2.53-1.25-3.47-3.59-6-11.07-7.85-23.04-11.71-34.61-8.97-36.44zM317 142.29c1.15 1.2.88 3.3-12.76 30.57-5.4 10.8-6.77 13.3-9.78 14-8.83 2.2-23.43-12.74-20.78-22.72.47-1.8 1.76-4.37 14.86-11.37 15.58-8.25 25.53-13.57 28.46-10.48zM313 135.4c.19-3.34-5.59-4.45-23.82-15-13-7.53-14.92-9.76-18.07-8.72-9.81 3.23-13.29 32-3.76 37.93 1.53 1 3.67 1.48 17.74-2.57 18.45-5.27 27.7-7.85 27.91-11.64z"/></g><path class="cls-3" d="M418.67 106.2C392.86 26.92 273.18 20.39 242 94.64c-39.29 92 80.09 177.29 153.16 105.54 25-24.57 34.06-61.65 23.51-93.98zm-90.6 106.39a79 79 0 1179-79 79 79 0 01-79 79zM73.62 406.06c7.62-13.13-1.09-16-9.41-5.46C55 389.57 49.66 387.93 54 402c-56.41-26.34-110 33-125.27 85.64C-77 507.41-83.52 526.08-61 545.18c-13.73 3-6.88 6.51 6.89 9.29-7.63 13.13 1.09 16 9.41 5.47 7.49 8.91 13.78 13.25 11.12 1.86C34.48 592.35 121 466.43 74.24 416.44c19.27-2.71 17.56-6.71-.62-10.38zM0 524.64c2.88-4.93 10.37-2.59 9.2 1-1.61 4.82-11.65 3.12-9.2-1zm9.16 20.17c-5.29 7.56-23 2.24-20.49-4.29 2.12-5.6 26.9-4.9 20.45 4.29zm13.16-38.62c-1.49 6.65-16.68 8.87-15.57 1.29.84-5.99 17.47-9.9 15.53-1.29zM54.87 454c-.09 5.64-4.64 5.62-5.7 1.23-1.11-4.61 5.83-8.55 5.7-1.23zm-13.32 73.11c-1.44 5-15.11 7.38-15.08 1.54.03-6.14 17.41-9.65 15.08-1.54zM52 501.21c-1.21 6.6-15.14 12.19-13.24 3.22 1.3-6.29 14.67-11.29 13.24-3.22zm-7.69-14.3c-5.2-3.06.26-14.32 7.79-12.49 10.09 2.46-3.5 15.03-7.83 12.49zm18.79 11.64c-2.93-1.23-1.47-7.88 2.24-7.17 4.53.87 1.66 8.79-2.28 7.17zm2.54-28.63c-.28-7.19 5-11.66 8.4-6.9 4.25 5.98-7.81 23.03-8.44 6.9z"/><g class="cls-11"><path class="cls-10" d="M74 463c-3.4-4.76-8.68-.29-8.4 6.9.63 16.15 12.69-.9 8.4-6.9zM52.06 474.42c-7.53-1.83-13 9.43-7.79 12.49 4.33 2.54 17.92-10.03 7.79-12.49zM52 501.21c1.47-8.07-11.9-3.07-13.24 3.22-1.94 8.97 11.99 3.38 13.24-3.22zM63.06 498.55c3.89 1.62 6.81-6.3 2.24-7.17-3.71-.71-5.17 5.94-2.24 7.17zM22.28 506.19c1.94-8.61-14.69-4.7-15.57 1.29-1.11 7.58 14.08 5.36 15.57-1.29zM49.17 455.2c1.06 4.39 5.61 4.41 5.7-1.23.13-7.29-6.81-3.35-5.7 1.23zM41.55 527.11c2.33-8.09-15-4.6-15.08 1.54-.03 5.84 13.64 3.48 15.08-1.54zM9.16 525.61c1.17-3.56-6.32-5.9-9.2-1-2.41 4.15 7.63 5.85 9.2 1zM9.12 544.81c6.45-9.19-18.33-9.89-20.49-4.29-2.53 6.53 15.2 11.85 20.49 4.29z"/></g><path class="cls-2" d="M134.6 85.72c-4.32 3.84-15.95 7.87-29.22 8.31a55.69 55.69 0 01-6.19 0 57.27 57.27 0 01-17.93-3.64A74 74 0 0169.59 84a133.7 133.7 0 01-5.48-3.73 186.17 186.17 0 01-18-14.55c-1.28-1.14-1.88-2-4.26-4.1-2-1.7-3-2.27-3-3a.48.48 0 010-.17c0-.58.58-1.24 3.78-2.6l1.18-.5a42 42 0 016.23-2.21 96 96 0 0129.49-2.52c.67.07 1.86.19 3.54.45a80.53 80.53 0 018.27 1.77A87.33 87.33 0 01113 61.66s.08 0 .12.08a39.82 39.82 0 014.6 3.2c3.89 3 8.78 7.59 16.29 14.5 1.32 1.18 2.13 2 2.34 2.82a1.93 1.93 0 010 .58 4.67 4.67 0 01-1.75 2.88z"/><path class="cls-6" d="M105.38 94a55.69 55.69 0 01-6.19 0 103.8 103.8 0 00-7.54-10.55c-4.36-4.95-9.19-9.4-13.65-14.21q-7.38-2.17-14.46-4.85A32.33 32.33 0 0166 70.68C67.23 75 68.63 79.5 69.59 84a133.7 133.7 0 01-5.48-3.73 49.06 49.06 0 01-1.25-4.93 37.83 37.83 0 00-4.59-11.81 598.57 598.57 0 01-19.38-5 .48.48 0 010-.17c0-.58.58-1.24 3.78-2.6l.15.06c4.33 1.47 12.58 3.26 28 5.54A43.23 43.23 0 0183.11 51a80.53 80.53 0 018.27 1.77 34.53 34.53 0 00-7.72 3c-3.35 2-6.34 4.53-9.6 6.6 8.47 2.5 17.09 4.68 25.62 7a25.27 25.27 0 019.59-6.29 37.44 37.44 0 013.84-1.35 39.82 39.82 0 014.6 3.2c-2.23.56-4.8.59-6.9 1.32a39.85 39.85 0 00-7.78 4c11.41 3.19 22.65 6.74 33.31 12a1.93 1.93 0 010 .58 4.67 4.67 0 01-1.79 2.88c-15.55-6.31-32.7-9.93-49.34-14.43 8.18 5.91 17.01 13.88 20.17 22.72z"/><path class="cls-3" d="M82.3 132.68c-24.39-38.52-56.72-31.47-74-42.52C-7 80.38-10.84 57.88-55 57.89c-83 0-120.34 142.86-61.38 183.11 12.14 8.28 21.49 5.39 46.39 20 23.64 13.9 24.2 21.79 36.06 26.51 58.52 23.33 159.69-86.2 116.23-154.83zm-34 15c1.29 6.75-4.14 7.85-6.49 2.88-2.48-5.21 4.8-11.64 6.47-2.92zm1.7 25.04c12.68.41-.4 18.78-6.19 16.82-6.95-2.34-3.23-17.13 6.19-16.82zM.37 245.54c2.21-6.6 11.71-5.67 11.22-1.13-.68 6.17-13.07 6.59-11.22 1.13zM16.3 267.3c-4.43 10.32-26.88 8.39-25.5 0 1.2-7.24 30.9-12.56 25.5 0zM4.16 223.39C3.72 216 22.57 207.25 22.4 218c-.13 8.3-17.69 14.71-18.24 5.39zm46.4 14.76c-.47 6.33-16.17 12.55-17.59 5.58-1.49-7.32 18.36-15.81 17.59-5.58zm-9-26.34c0-7.84 14.73-17.11 15-7.13.18 8.15-15.04 18.32-15 7.13zm27.55-13.06c-3.79-.73-3.71-9 .89-9.1 5.67-.09 4.16 10.07-.89 9.1zM65 164c-2.12-8.5 3.07-15.14 8.3-10.31 6.64 6.1-3.51 29.37-8.3 10.31z"/><path class="cls-2" d="M8.3 90.16a38.2 38.2 0 008.62 3.93c3.77-8 7.51-16 12.51-23.49C38.61 56.83 50.52 46 60.7 33.19a2.75 2.75 0 00-3.37-4.25C36.87 39.72 16.44 64.78 6.68 89.05c.53.38 1.07.76 1.62 1.11z"/><path class="cls-1" d="M890.51 288.85c-8.46-51.66-62.43-97.9-118.28-88-40.86 7.28-70.24 42.41-78.85 78.86-1.55 6.52-11.72 53.17 21.23 91 33.88 38.89 83.28 33.92 87.95 33.36 37.26-4.41 59.32-28.41 63.69-33.36 2.12-2.39 31.63-36.89 24.26-81.86zm-31.76 21c.36 12.63-8.58 11.8-9.63.78-1.12-11.82 9.22-14.91 9.63-.75zM840.4 233.8c6.65.78 12.42 18.51 7.31 23.32-9.71 9.18-20.51-24.87-7.31-23.32zM803.8 220c-2.63 2.1-5.72 3.54-8.55 5.38 13.44 17.23 1.86 17.17.25 13.8a64.42 64.42 0 00-5.58-9.55 33.71 33.71 0 00-4.46 5.24c-4.1 6-12.61-.87-7.76-6 8.81-9.28 7.79-2.94.13-12.49-2.72-3.4 2.91-4.85 11.62 2.78 12.91-7.74 17.55-1.72 14.35.84zm31.2 74.68c-7.08-6.3-2.25-20.88 5.08-17.88 7.18 2.94 2.22 24.38-5.08 17.88zm13.74 41.66c5.94-1.35 3.31 12.63-6.51 12.9-7.23.2 1.95-13.85 6.52-12.9zm-4.31 31.42c-3.41-7.84 11.84-18.22 15.16-11.53 2.74 5.49-11.43 20.07-15.15 11.53zm12.63-91.37c-.59-5.6 2-12.83 5.93-13.31s11.78 7.48 11.92 20.43c-.57 17.54-16.77 2.95-17.84-7.12zM874.83 328c-1.46 4-4.88 8.75-7.18 8.19-6.15-1.5-1.22-26 4.45-25.32 2.9.34 5.41 9.65 2.73 17.13z"/><g class="cls-9"><path class="cls-10" d="M840.4 233.8c-13.2-1.55-2.45 32.5 7.31 23.32 5.11-4.81-.66-22.54-7.31-23.32zM840.09 276.8c-7.33-3-12.16 11.58-5.09 17.88 7.3 6.5 12.26-14.94 5.09-17.88zM874.92 283.51c-.14-12.95-8.17-20.89-11.92-20.43s-6.52 7.71-5.93 13.31c1.07 10.07 17.27 24.66 17.85 7.12zM849.12 310.66c1 11 10 11.85 9.63-.78-.41-14.16-10.75-11.07-9.63.78zM872.1 310.84c-5.67-.72-10.6 23.82-4.45 25.32 2.3.56 5.72-4.14 7.18-8.19 2.68-7.45.17-16.76-2.73-17.13zM848.75 336.34c-4.57-.95-13.76 13.1-6.51 12.9 9.82-.24 12.45-14.24 6.51-12.9zM859.61 356.23c-3.33-6.69-18.58 3.69-15.17 11.53 3.72 8.54 17.89-6.04 15.17-11.53z"/></g><path class="cls-2" d="M789.45 219.15c-8.71-7.63-14.34-6.18-11.62-2.78 7.66 9.55 8.68 3.21-.13 12.49-4.85 5.12 3.66 12 7.76 6a33.71 33.71 0 014.46-5.24 64.42 64.42 0 015.58 9.55c1.61 3.37 13.19 3.43-.25-13.8 2.83-1.84 5.92-3.28 8.55-5.38 3.2-2.55-1.44-8.57-14.35-.84z"/><path class="cls-3" d="M1549-57.25c-7.24-37.32-17.39-59.13-17.39-59.13-7.83-16.87-14.09-24-13.92-38.26 0-3.24.53-14.93 0-31.31a61 61 0 00-.73-9.22c-.48-2.26-1.28-3.75-2.74-4.69-4.39-2.82-11.8 1.49-20.87 7-12.73 7.65-19.1 11.47-20.87 17.39a12.25 12.25 0 000 7.27c2.12 7.41 10 14.43 13.91 27.51 3.62 12.21 1.77 23.27-3.48 41.74-18.71 65.7-28 98.57-48.69 125.22-49.22 63.55-122 69.39-118.27 93.91a12.17 12.17 0 00.91 3.1c49.84-10.19 101.29-19.38 138.16-57.81 19.23-20 30.26-46.68 39.65-72.39 9.95-27.2 15.69-55.06 14.43-84.1-.1-2.3 3.24-2.19 3.48 0C1516-59.58 1508-29.18 1497 .11c-9 23.86-19.06 48-36.24 67.16-35.1 39.24-90.79 53.91-141.71 59.72 6 7.62 18.71 12 24.73 14 59.93 20.56 146.85-25 184.35-93.91 5.32-9.72 30.33-55.71 20.87-104.33zm-121.49 124.4c-2.47-2.25 3.37-13.54 9.37-11.45 9.56 3.3-5.31 15.16-9.37 11.45zm6.71-16.77c-12.39 3 .27-17.6 8.13-13.91 3.33 1.53 5.27 10.61-8.13 13.91zm24.88-20.9c-3.32 1.55-5.14-.42-5.47-2.26-.57-3.16 5.8-7.59 7.39-8.87 5.62-4.53 7.52 6.71-1.92 11.13zM1377.23 141c-6.55 1.76-17.21-2.76-11.92-6.94 18.47-14.55 30.69 5.75 11.92 6.94zm18.77-15c-14.34-.35-1.74-11.42 5.43-9 8.3 2.7 2.83 9.19-5.43 9zm19.37 5.47c-6.49-4.92 7.55-14 12.85-12.5 9.97 2.83-6.83 17.03-12.84 12.49zm28.11-14.36c-2.5-1.81.47-9.76 5.86-8.73 9.4 1.78-2.34 11.26-5.85 8.72z"/><path class="cls-5" d="M1365.31 134.09c-5.29 4.18 5.37 8.7 11.92 6.94 18.77-1.22 6.55-21.52-11.92-6.94zM1401.44 117c-7.17-2.38-19.77 8.69-5.43 9 8.25.19 13.72-6.3 5.43-9zM1428.23 119c-5.3-1.5-19.34 7.58-12.85 12.5 6.01 4.5 22.81-9.7 12.85-12.5zM1449.35 108.37c-5.39-1-8.36 6.92-5.86 8.73 3.51 2.54 15.25-6.94 5.86-8.73zM1442.35 36.47c-7.86-3.69-20.52 17-8.13 13.91 13.4-3.3 11.46-12.38 8.13-13.91zM1461 18.35c-1.59 1.28-8 5.71-7.39 8.87.33 1.84 2.15 3.81 5.47 2.26 9.46-4.42 7.56-15.66 1.92-11.13zM1436.88 55.7c-6-2.09-11.84 9.2-9.37 11.45 4.06 3.71 18.93-8.15 9.37-11.45z"/><path class="cls-8" d="M1052.94-39.77a73.45 73.45 0 00-26.24-3 62.86 62.86 0 0112.17 8.7c17.82 16.28 20.82 37.54 22.11 46.68 1 7.5 6.77 48.07-23.21 75.43A78.89 78.89 0 01992 107.92a69.17 69.17 0 0016.67 6.87c35.66 9.45 78.9-9.85 94.14-47.14 17.37-42.48-7.34-94.3-49.87-107.42z"/><path class="cls-1" d="M1061 12.58c-1.29-9.14-4.29-30.4-22.11-46.68-23.57-21.53-54.63-17.49-61.54-16.37a79.6 79.6 0 00-35.55 15.65c-6.97 5.22-22.5 18.54-29.3 39.29-9.79 29.82-1.09 73.64 34.63 94 29.85 17 67.15 11 90.64-10.41 29.98-27.41 24.23-67.98 23.23-75.48zM922 43c3.27-6 9-4.3 9-1.26.42 12.98-14.86 11.94-9 1.26zm8.17-17.13c-12.34-2.43 8.15-28.3 10.93-14.72 1.42 6.74-6.1 15.61-10.9 14.67zm19.38-44.68c-7.64 21.86-21.72 5.17-9-1.6 5.19-4.27 10.26-1.96 9.03 1.55zm6.86 40.8c-10.64-4.87-2-15.7 3.17-10.1 3.42 3.69 1.86 13.19-3.14 10.05zm2.48-33.41c.16-3.58 3.54-7.43 10.91-7.54 11.72-.23-11.49 21.47-10.88 7.49zm13.2-16.79c-5.27 2-11.07-2.69-7.29-6.92 16.88-17.66 26.83-.6 7.32 6.87z"/><g class="cls-12"><path class="cls-10" d="M941.13 11.1c-2.78-13.58-23.27 12.29-10.93 14.72 4.8.94 12.32-7.93 10.93-14.72zM959.61 11.84c-5.12-5.6-13.81 5.23-3.17 10.1 5 3.14 6.56-6.36 3.17-10.1zM931.06 41.69c-.08-3-5.76-4.72-9 1.26-5.92 10.73 9.36 11.77 9-1.26z"/></g><path d="M2024 469.49c-10.63-17.55-6.72-27.19-12.64-47.73-1-3.59-9.42-31.58-31.54-52.17-27.12-25.24-63.35-28.63-78.1-30-30.4-2.84-42.6 5.44-62.32-3.92-3.82-1.82-13.63-7-21.65-3.14a15.45 15.45 0 00-8.34 10.69c-1.44 8.16 6.24 12.74 11.72 24.65 4.32 9.35 4 16.16 5 24.51 2.68 23.76 13.62 44.1 19.29 54.64 15 27.92 51.12 65.43 92.3 66.92 23.83.86 43.55-10.55 66.5-1.42 3 1.18 10.29 4.42 17.6 1.7 7.74-2.88 13.43-11.66 14-20.08.47-9.54-5.82-14.66-11.82-24.65zm-171.77-35.32c-4.73-1.06-9.2-10.44-2.77-10.31 4.54.14 8.8 11.67 2.73 10.31zm11.48 1.69c.82-10.24 12.69-1.38 11.09 5.63-1.68 7.21-11.59.04-11.13-5.63zm18.24 32.94c-1.65 10.36-19-4.42-16.59-8.68 2.24-3.98 17.64 1.64 16.55 8.68zm7.48 9.93c1.17-4.13 11.43-4.08 14.22 2.91 3.6 9.09-16.25 4.17-14.26-2.91zm18.13-20.06c-2.39 5.86-13 .06-11.14-7.41 2.03-8.52 12.96 2.86 11.1 7.41zm8.54 23.17c-9.57-12 11.48-9.67 15.19-1.59 4.4 9.68-10.75 7.21-15.23 1.59zm9.7 18.43c-7.2-7.14 3.22-10.33 12.37-1.47 3.97 3.89-6.87 6.97-12.41 1.47zm45.85-6.8c-12.63 6.15-22.5-2.42-18.93-8.3 5.46-9.05 26.71 4.5 18.89 8.3z" opacity=".8" fill="#fff"/><g class="cls-14"><path class="cls-10" d="M1931.25 480.25c-3.71-8.08-24.76-10.42-15.19 1.59 4.48 5.62 19.63 8.09 15.19-1.59zM1903.61 481.64c-2.79-7-13-7-14.22-2.91-1.99 7.08 17.86 12 14.22 2.91zM1881.91 468.8c1.12-7-14.31-12.66-16.59-8.68-2.43 4.26 14.94 19.04 16.59 8.68zM1874.76 441.49c1.6-7-10.27-15.87-11.09-5.63-.46 5.67 9.45 12.84 11.09 5.63zM1907.52 458.67c1.86-4.55-9.07-15.93-11.14-7.41-1.83 7.47 8.75 13.27 11.14 7.41zM1849.42 423.86c-6.43-.13-2 9.25 2.77 10.31 6.07 1.36 1.81-10.17-2.77-10.31z"/></g><path class="cls-3" d="M757-71.49c-4.92-34.92-41.05-27.7-70.22-8.59-32.49 21.3-58.39 4.27-96.31 24.9-46.44 25.26-59.6 79-43.74 100.5 7.07 9.61 14.55 7.28 26.31 20.51s7.67 19.27 16.46 28.22c16.91 17.21 63.69 19.48 97.9-12.13 34.92-32.27 17.17-60.13 51.2-110.07 9.26-13.64 20.74-26.49 18.4-43.34zM560.82-18.13c3.67.87 4.36 8.62-2.39 12-12.29 6.23-2.63-13.19 2.39-12zM566 18.8c-6.64 13.26-16.09-.85-5.34-8.33 4.98-1.35 8.23 2.44 5.34 8.33zm11.7-12.64c-6.27-.45-3.4-13.61 2.57-13.49 6.94.15 3.73 13.94-2.57 13.49zm11.63-37c-5.3 13.9-26.87 8.28-10.22-.9 6.47-4.88 11.63-2.83 10.22.86zm32.72-20.25c1 7.28-17.91 12.14-18.53 4.52-.52-6.24 17.35-12.83 18.53-4.56zm-17.87 34c-8-2.22-1.63-15.72 7.29-14.35 10.43 1.6-1.23 16.03-7.29 14.35zm17.2 13.4c-3 .13-6.6-1.8-6.84-4.1-.39-3.75 8.08-9.15 12.68-7 5.21 2.48-.13 10.87-5.84 11.1zm22.24-40.51c-7.08 11.66-26.43 5.89-11.14-2.54 11.01-6.08 12.52.35 11.14 2.54zm30.7-10.35c-2.69 7.54-24.93 4.34-17-3.22 1.44-1.38 20.37-6.23 17 3.22zm9.33-11.36c-5.87-3 .7-8.06 4.9-6.39 6.75 2.67.45 9.07-4.9 6.39z"/><g class="cls-14"><path class="cls-10" d="M580.27-7.33c6.94.14 3.72 13.94-2.57 13.49s-3.4-13.61 2.57-13.49zM560.61 10.47c5-1.35 8.28 2.44 5.34 8.33-6.64 13.26-16.09-.8-5.34-8.33z"/></g><path class="cls-6" d="M1257.28 179.58l-1.76-1.07c-.6-.36-2.44-1.48-4.26-2.73a68.63 68.63 0 01-7.44-5.91c-.41-.37-.74-.69-1-.91q1.65 3 3.33 6t3.31 5.87a22.19 22.19 0 015.42-.42 21.81 21.81 0 015.07.86zM1231.85 156.36c-2.45 1.78-2.67 6.23-2.37 10.51.87 12 5.88 24.14 11.35 34.16.37-6.79 2.8-13.88 5.29-19.28a513 513 0 01-14.27-25.39zM1250.65 182.87c3.71 6.71 7.35 13.43 11 20 .85 1.52 1.67 3.08 2.51 4.6 5.7-.12 12.06 2.06 17.8 5.32a81.28 81.28 0 00-8.22-24.16 52 52 0 00-6-2.65c-5.63-1.98-11.26-2.46-17.09-3.11zM1282.56 216.76c-1.08-.65-2.16-1.3-3.3-1.86-4.48-2.34-9.31-3.52-14-5.36a1993.3 1993.3 0 0111.48 21.24c1.76 3.31 3.59 6.64 5.27 10.07 1.06-1.54 1-4.18.94-5.26a93.9 93.9 0 00-.39-18.83zM1260.39 206.74c-.68-1.28-1.35-2.56-2.07-3.86-3.43-6.15-7-12.28-10.63-18.42-1.12 4.68-2.51 9.27-3 14.08a46.93 46.93 0 00.16 9.34 181.8 181.8 0 0010.25 14.79 44.72 44.72 0 003.47 3.66 77.27 77.27 0 011.82-19.59zM1262.5 230c2.6 2.32 6 5.14 10.44 8.55 1.89 1.44 4 3 5.86 3.45q-7.92-15.84-16.32-31.42a190.58 190.58 0 01.02 19.42z"/><path class="cls-2" d="M1265.31 209.54c4.64 1.84 9.47 3 14 5.36 1.14.56 2.22 1.21 3.3 1.86a66.28 66.28 0 00-.57-4c-5.74-3.26-12.1-5.44-17.8-5.32-.84-1.52-1.66-3.08-2.51-4.6-3.68-6.58-7.32-13.3-11-20 5.83.65 11.46 1.1 17.07 3.12a52 52 0 016 2.65 1.69 1.69 0 00-.69-1.26 1.14 1.14 0 00-.33-.12c-3.25-1.36-6.6-2.88-10-4.59l-2.75-1.41a21.81 21.81 0 00-5.07-.86 22.19 22.19 0 00-5.42.42q-1.66-2.92-3.31-5.88l-3.33-6a71.93 71.93 0 01-4.5-4.91c-2.67-3.21-3.49-4.77-4-6.3a15.11 15.11 0 01-.57-2.17 4.64 4.64 0 00-1.69.61l-.24.17c4.43 8.58 9.32 17 14.27 25.39-2.49 5.4-4.92 12.49-5.29 19.28 1.32 2.43 2.67 4.7 4 6.85a46.93 46.93 0 01-.16-9.34c.52-4.81 1.91-9.4 3-14.08 3.6 6.14 7.2 12.27 10.63 18.42.72 1.3 1.39 2.58 2.07 3.86a77.27 77.27 0 00-1.85 19.59c1 1 2.33 2.21 4 3.63a190.58 190.58 0 000-19.42q8.4 15.6 16.32 31.42a3.15 3.15 0 002.26-.15 2.49 2.49 0 001-1c-1.68-3.43-3.51-6.76-5.27-10.07-3.88-6.99-7.7-14.09-11.57-21.15z"/><path class="cls-5" d="M1253.25 160.82c5.64 3.28 11.17 6.7 16.67 10.09a223.4 223.4 0 007.07 4.16c2.52-1.77 6.07-2.45 8.92-3.2.87-.22 1.76-.45 2.7-.65a60.31 60.31 0 00-17-13.71s-.86-.46-2.47-1.11c-1.45.29-2.89.62-4.28 1-3.86 1.04-7.72 2.6-11.61 3.42zM1251.2 159.6c3.89-2.4 8.57-3.65 12.92-4.93h.2a64.9 64.9 0 00-23.09-3.12 15.43 15.43 0 00-4.19.63c4.53 2.11 9 4.47 13.33 7 .29.1.63.24.83.42zM1234.72 153.6a1.81 1.81 0 00-.37.52c-1.08 2.15.57 5.2 2.5 7.93 5 7.07 12.38 12.74 19.48 17-2-5.82-4-11.62-6.34-17.41a676.7 676.7 0 00-15.27-8.04zM1298.33 185.72a69.54 69.54 0 00-7.69-12.08c-1.09.17-2.18.34-3.25.58-2.79.6-5.52 1.43-8.3 2.06 7.08 4.05 14.42 8.32 20.6 13.56.31-1.48-.86-3.39-1.36-4.12zM1275.23 176.4a410.74 410.74 0 00-22.15-13 69.9 69.9 0 016.56 17.6 129.81 129.81 0 0015.54 7.27 31.35 31.35 0 004.48 1.2c-.35-1.5-.72-3-1.2-4.44-.91-2.95-2.25-5.73-3.23-8.63zM1282.27 190c2.64.5 6.14 1 10.66 1.55a18.28 18.28 0 004.39.14 295.36 295.36 0 00-19-13.35 38.83 38.83 0 013.95 11.66z"/><path class="cls-2" d="M1299.69 189.84a1.41 1.41 0 01-.22.69 2.81 2.81 0 01-2.15 1.15 295.36 295.36 0 00-19-13.35 38.83 38.83 0 014 11.66c-1-.18-1.86-.35-2.61-.55-.35-1.5-.72-3-1.2-4.44-.91-2.92-2.25-5.7-3.23-8.6a410.74 410.74 0 00-22.15-13 69.9 69.9 0 016.56 17.6 61.61 61.61 0 01-3.31-1.92c-2-5.82-4-11.62-6.34-17.41-5-2.76-10.19-5.43-15.27-8a4.7 4.7 0 012.32-1.47c4.53 2.11 9 4.47 13.33 7 .29.18.58.32.83.5 3.9-2.4 8.57-3.65 12.92-4.92l.2-.06a40.8 40.8 0 014.77 1.78c-1.45.29-2.89.62-4.28 1-3.81 1-7.67 2.58-11.56 3.42 5.64 3.28 11.17 6.7 16.67 10.09a223.4 223.4 0 007.07 4.16c2.52-1.77 6.07-2.45 8.92-3.2.87-.22 1.76-.45 2.7-.65.74.8 1.41 1.63 2 2.42-1.09.17-2.18.34-3.25.58-2.79.6-5.52 1.43-8.3 2.06 7.06 3.95 14.4 8.22 20.58 13.46z"/><path class="cls-6" d="M1227.31 219.42c-4-28 .62-37.59-8.43-47.43-10.73-11.68-36.55-21.76-56.57 14.27-22.41 40.35-45.93 37-57 89.56-21.63 103.12 87.56 123.77 125.54 56 24.43-43.57-1.09-95.44-3.54-112.4zm-14.93-11.66c7.32 1.42 4 24-4.1 19-5.95-3.15-3.57-20.48 4.1-19zm-.38 75.6c5.84 4.63-3.24 28.87-7.12 10.27-1.88-9.22 3.57-13.08 7.12-10.27zm-11.21-13.59c-7.56 2.28-9.91-12.4-1.85-16 6.86-3.07 7.11 14.41 1.85 16zm1.75 57c1.09-11.45 8.94-13.92 11.71-9.3 3.69 6.13-12.57 18.21-11.71 9.28zm8.87-83.05c1.13-2.6 4.36-4.64 7.18-4.18 7.25 1.15 8.2 18.21 3.4 19.59-3.99 1.12-13.33-9.13-10.58-15.43zm20.19 56.79c-12.17 9.54-11.15-29.34.63-19.17 2.42 2.07 3.87 15.66-.63 19.15z"/><g class="cls-9"><path class="cls-10" d="M1212.38 207.76c-7.67-1.48-10.05 15.85-4.1 19 8.1 4.95 11.42-17.58 4.1-19zM1218.59 239.52c-2.82-.46-6 1.58-7.18 4.18-2.75 6.31 6.6 16.55 10.58 15.41 4.8-1.38 3.85-18.44-3.4-19.59zM1198.94 253.77c-8.06 3.6-5.71 18.28 1.85 16 5.26-1.59 5.01-19.07-1.85-16zM1212 283.36c-3.55-2.81-9 1.05-7.12 10.27 3.88 18.6 12.96-5.63 7.12-10.27zM1232.23 281.32c-11.78-10.17-12.8 28.71-.63 19.17 4.5-3.49 3.05-17.08.63-19.17zM1202.54 326.75c-.86 8.93 15.4-3.15 11.71-9.3-2.77-4.62-10.62-2.15-11.71 9.3z"/></g><path class="cls-5" d="M1207.61 163.89c3.47-6.94 7.3-17.15 10.28-30.95.68-3.17 5.52 12.46 13.1 21.75 1.38 1.69 4.24-.06 3.66-2.05-2.15-7.38-12.34-25.34-14.92-28.67 5.71-30-2.11-37.15-3.56-31.47-3.38 13.23-2 27.52-4.94 41.06-2.14 9.82-5.54 19.13-8.87 28.51a30.7 30.7 0 015.25 1.82z"/><path class="cls-6" d="M1710.22 1004.73c-41.66-39.56-73.4-20.93-77-32.42-2.56-8.14 38-33.33-16.22-16.22-4.32-35.65-31.23-29.2-28.37 4.06-49.86-19.57-19.21 9.83-20.26 24.32-1.21 16.52-23 20.42-40.54 36.47-35.78 32.81-36.77 101-16.21 141.86 55.38 110 198.73 62.59 231 4.06 23.05-41.74 15.78-116.36-32.4-162.13zm-12.8 27.49c1.81-15.85 24.85 7.22 20.51 15-5.85 10.39-21.62-5.33-20.51-15zm11.35 54.45c-7.74-4.22-12.12-17.24-7.56-21.3 3.39-3 12.37-1.12 16.1 7.08 6.32 13.87-1.42 18.1-8.54 14.22zm-73.86-62.77c-5-2.38-6-9.49-2.09-10.06 5 .46 12.11 4.47 11.74 8.34s-6.56 6.17-9.65 1.72zm42.39 45.86c-6.11 8-21.12-6.18-14-15.57s18.45 9.81 14 15.57zm2.57-44.21c-8.4 5.32-23.95-14-16.28-21.21 3.5-3.28 11.16-1.29 14.83 2.42 5.44 5.5 5.78 16.06 1.45 18.79zm12.77 121.94c1.4-2.86 10.33-1.36 10.94 6.07 1.05 12.68-18.52 9.54-10.94-6.07zm15.3-18.93c-3.19 5.85-14.62-4.5-9.15-15 3.71-7.03 13.37 7.27 9.15 15zm11.43 49.61c-14.35 2.91-1.94-25.89 6.32-19.76 3.78 2.81.31 18.42-6.32 19.76zm15.56-59.19c-7.79 7.42-14.16-11.43-6.84-16.67 6.83-4.9 12.26 11.5 6.84 16.69z"/><path class="cls-8" d="M1678.42 1006.76c-3.67-3.71-11.33-5.7-14.83-2.42-7.67 7.19 7.88 26.53 16.28 21.21 4.33-2.73 3.99-13.29-1.45-18.79zM1697.42 1032.22c-1.11 9.67 14.66 25.39 20.51 15 4.34-7.78-18.7-30.85-20.51-15zM1677.3 1069.76c4.45-5.81-6.83-24.92-14-15.57s7.89 23.56 14 15.57zM1717.31 1072.45c-3.73-8.2-12.71-10.1-16.1-7.08-4.56 4.06-.18 17.08 7.56 21.3 7.12 3.88 14.86-.35 8.54-14.22zM1644.56 1022.18c.37-3.87-6.75-7.88-11.74-8.34-3.93.57-2.9 7.68 2.09 10.06 3.09 4.45 9.28 2.28 9.65-1.72z"/><path class="cls-1" d="M468.09 458.92a23.94 23.94 0 00-2.46-.64c-22 9.74-35 21.81-37.12 24.1a2.18 2.18 0 00-.53 1.09c13.92-11.36 31.53-17.56 49.85-20.72a96.5 96.5 0 00-9.74-3.83zM516.45 459.7a49.12 49.12 0 00-16.61-9.82c-1.35-.51-2.79-.9-4.23-1.33a155.37 155.37 0 00-25.48 7.77 75.1 75.1 0 0111.87 5.75 232 232 0 0134.45-2.37z"/><path class="cls-1" d="M478.73 465.57c-18.65 3-36.71 9.05-50.53 20a2.26 2.26 0 001.43 1.2 2.55 2.55 0 001.67-.32c1.32-.77 15.6-5.4 34.86-8.24.29-.37.54-.7.83-1a85.3 85.3 0 0111.74-11.64zM520.06 459.72h4.69a136.06 136.06 0 0133 4.92c-2.11-4-3.89-8.2-6.51-11.93a30.83 30.83 0 00-6.28-6.27 134.51 134.51 0 00-13.47-1.24 156.31 156.31 0 00-28.55 1.93c6.77 3.15 13.06 7.65 17.12 12.59zM579.19 472.61c3.85 1.81 7.85 3.82 11.79 6-1.07-7.06-3.73-13.38-7.15-19.86-.37-.72-.79-1.43-1.17-2.15a141.14 141.14 0 00-30.4-8.92 53.64 53.64 0 019.07 18.06 139.52 139.52 0 0117.86 6.87zM560.38 469.28a133.87 133.87 0 00-34-6.06c-1.49-.05-3.07-.07-4.61-.13 0 .08 0 .15-.12.19-4.46 3.77-9.06 7.22-13 11.56-.5.55-1 1.1-1.41 1.65a108.7 108.7 0 0128.16 5.82c1.8-1.2 3.71-2.28 5.31-3.3 6.08-3.86 12.69-7.58 19.67-9.73zM517.75 463a230.09 230.09 0 00-34.75 1.94.69.69 0 01-.1.46c-3 4.47-7.3 8-10.92 11.92 0 0-.08.07-.08.11a188.26 188.26 0 0131-1.24l2.89-3.17A57.1 57.1 0 01517.75 463zM616.71 487.73a19.55 19.55 0 00-4.71-10.48c-6.65-7.83-15.18-13.73-24.14-18.2.68 1.46 1.36 3 2 4.39 2.44 5.5 4.22 11.07 4.25 17a103.31 103.31 0 0120.82 15.76 16.59 16.59 0 001.78-8.47z"/><path class="cls-3" d="M454.67 520.68c-73 48.84-103.67 162.49-46.09 169 21.2 2.39 38.81-13.3 46.09-19.21 53.65-43.55 108.46-12.77 149.78-61.44 62.43-73.57-31.81-167.26-149.78-88.35zm106.24 55.8c2.48-2.85 4.34-5 6.69-4.67a5.28 5.28 0 013.94 3.81c2.97 10.9-21.54 13.49-10.63.86zm-114.4 80.3c-6.06-5.1 14.21-17.61 15.13-9.48 2.01 6.75-11.37 12.7-15.13 9.48zm20.22-36.89c0-4.88 12.66-11.91 13.41-3.27.59 6.83-13.51 11.9-13.41 3.27zm41.44 8.43c-1.77 6.12-17 11.11-16.83 3.34.16-6.5 18.66-9.66 16.83-3.34zm19-15.21c-4.52-3.61 3.22-17.5 12.17-14.39 13.71 4.78-7.16 18.4-12.18 14.39zm47-3c-3.75 8.65-17.81 11.52-20.6 7.88-6.51-8.51 26.01-20.32 20.6-7.89zm10.07-26.71c-3.22-5.15 5.15-17.11 11.54-17 15.96.24-4.57 28.13-11.54 16.99z"/><g class="cls-9"><path class="cls-10" d="M595.78 566.38c-6.39-.1-14.76 11.86-11.54 17 6.97 11.15 27.5-16.74 11.54-17zM553.57 618c2.79 3.64 16.85.77 20.6-7.88 5.41-12.45-27.11-.64-20.6 7.88zM539.33 598.72c-9-3.11-16.69 10.78-12.17 14.39 5.02 4.01 25.89-9.61 12.17-14.39zM491.34 631.66c-.2 7.77 15.06 2.78 16.83-3.34 1.83-6.32-16.67-3.16-16.83 3.34zM560.91 576.48c-10.94 12.63 13.6 10 10.63-.86a5.28 5.28 0 00-3.94-3.81c-2.35-.34-4.21 1.82-6.69 4.67zM466.73 619.89c-.1 8.63 14 3.56 13.41-3.27-.75-8.62-13.36-1.62-13.41 3.27zM461.64 647.3c-.92-8.13-21.19 4.38-15.13 9.48 3.76 3.22 17.14-2.73 15.13-9.48z"/></g><path class="cls-2" d="M614.44 497l.45-.83a103.31 103.31 0 00-20.82-15.76c0-5.93-1.81-11.5-4.25-17-.64-1.42-1.32-2.93-2-4.39-1.72-.87-3.44-1.67-5.16-2.43.38.72.8 1.43 1.18 2.15 3.41 6.48 6.07 12.8 7.14 19.86-3.94-2.2-7.94-4.21-11.79-6a139.52 139.52 0 00-17.86-6.85 53.64 53.64 0 00-9.07-18.06c-2.62-.5-5.1-.88-7.35-1.21a30.83 30.83 0 016.28 6.27c2.62 3.73 4.4 7.92 6.51 11.93a136.06 136.06 0 00-33-4.92h-4.69c-4-4.94-10.35-9.44-17.17-12.54-2.48.39-4.94.85-7.28 1.37 1.44.43 2.88.82 4.23 1.33a49.12 49.12 0 0116.61 9.82 232 232 0 00-34.4 2.33 75.1 75.1 0 00-11.85-5.75c-1.53.63-3 1.27-4.5 2a23.94 23.94 0 012.46.64 96.5 96.5 0 019.74 3.83c-18.32 3.16-35.93 9.36-49.85 20.72a2.6 2.6 0 00.22 2.09c13.82-10.94 31.88-17 50.53-20A85.3 85.3 0 00467 477.17c-.29.33-.54.66-.83 1 1.86-.27 3.76-.54 5.74-.77 0 0 0-.07.08-.11 3.62-3.94 7.92-7.45 10.92-11.92a.69.69 0 00.1-.46 230.09 230.09 0 0134.74-1.91 57.1 57.1 0 00-11.92 10l-2.89 3.17c1.38.09 2.8.17 4.26.3.45-.55.91-1.1 1.41-1.65 3.95-4.34 8.55-7.79 13-11.56.08 0 .08-.11.12-.19 1.54.06 3.12.08 4.61.13a133.87 133.87 0 0134 6.06c-7 2.15-13.59 5.87-19.71 9.73-1.6 1-3.51 2.1-5.31 3.3.07 0 .15.05.22.09 1.13.41 2.3.87 3.49 1.4 7.21-5.33 16.35-8.74 23.75-12.87a1.27 1.27 0 00.55-.7 125.44 125.44 0 0113.18 5.3 109.15 109.15 0 0115.21 8.77 61.9 61.9 0 00-19.26 9.18c-1.48 1-3 2.13-4.59 3.3 1.28.58 2.59 1.16 3.94 1.74a27.53 27.53 0 012.66-2.07c6-4.22 12.58-6.9 19.3-9.8a1.3 1.3 0 00.57-.54c4.9 3.48 9.57 7.24 14.26 11.12 0 .07 0 .14.07.2 1.94 3.59 9.31 6.47 12.18 19.24a36.09 36.09 0 00-11.6 5.05 66.68 66.68 0 014.05 6c9.11-4.52 14.09-4.92 14-9.55-.11-7.4-7.42-16.96-12.86-21.15z"/><path class="cls-1" d="M596.3 507a18.38 18.38 0 009.37-1.56 19.94 19.94 0 006.59-5.22c-5.93-4.93-11.72-9.75-17.88-14.12a1.3 1.3 0 01-.57.54c-6.51 2.81-12.88 5.43-18.72 9.42A82.2 82.2 0 01596.3 507zM570.78 494.69l1.72-1.21a61.9 61.9 0 0119.26-9.18 108.57 108.57 0 00-15.21-8.77 125.44 125.44 0 00-13.18-5.3 1.27 1.27 0 01-.55.7c-7.4 4.13-16.54 7.54-23.75 12.87 5.06 2 10.91 4.78 17.67 7.9a96.11 96.11 0 0114.04 2.99z"/><path class="cls-8" d="M1692.92 432.33a148.3 148.3 0 00-26.35.49 14.2 14.2 0 00-2.82.48c5.85 2.67 11.7 5.34 17.59 7.89a33.5 33.5 0 0111.58-8.86zM1706.15 450.77c12.4 4.13 25 7.64 37.12 12.47a4.87 4.87 0 00-.88-1.64 72.52 72.52 0 00-13-13.25c-3.61.48-7.34.18-11 .48a80.81 80.81 0 00-12.24 1.94zM1684.19 442.37c3.15 1.37 6.34 2.7 9.52 3.94 2.67 1.07 5.37 2 8.1 3 6.1-2.61 14-5.31 21.26-5.46a88.28 88.28 0 00-18.59-9.28c-3.37.94-6.89 1.06-10.25 2.21a36.28 36.28 0 00-10.04 5.59zM1710.21 469c14.41 2.24 28.84.7 32.42-3a214.43 214.43 0 01-39.24-10.22 119.13 119.13 0 016.82 13.22zM1678.09 446.22a1.78 1.78 0 01.18-.73 330.54 330.54 0 01-16.74-8.37 13.21 13.21 0 002.92 3.89 144.4 144.4 0 0014.28 12.83 33.38 33.38 0 01-.64-7.62zM1698.26 453.87q-8.46-3.19-16.71-6.92c1.18 3.58 1.82 7.31 3 10.89 0 .12.09.27.12.39 10.62 7.28 17.32 9.07 17.32 9.07.55.15 1.12.3 1.7.43a120.18 120.18 0 01-5.34-13.35 1.57 1.57 0 01-.09-.51z"/><path class="cls-5" d="M1743.42 464.6a2.62 2.62 0 01-.79 1.37 214.43 214.43 0 01-39.24-10.22 119.13 119.13 0 016.82 13.25 61.53 61.53 0 01-6.55-1.27 120.18 120.18 0 01-5.34-13.35 1.57 1.57 0 01-.06-.51q-8.46-3.19-16.71-6.92c1.18 3.58 1.82 7.31 3 10.89 0 .12.09.27.12.39-1.85-1.3-3.82-2.73-5.91-4.39a33.38 33.38 0 01-.64-7.62 1.78 1.78 0 01.18-.73 330.54 330.54 0 01-16.74-8.37 2.76 2.76 0 01-.15-2.06 3.5 3.5 0 012.37-1.76c5.85 2.67 11.7 5.34 17.59 7.89a33.5 33.5 0 0111.58-8.86 48.74 48.74 0 019 1.37s.91.27 2.52.85c-3.37.94-6.89 1.06-10.25 2.21a36.28 36.28 0 00-10 5.61c3.15 1.37 6.34 2.7 9.52 3.94 2.67 1.07 5.37 2 8.1 3 6.1-2.61 14-5.31 21.26-5.46a78.25 78.25 0 016.37 4.52c-3.61.48-7.34.18-11 .48a80.81 80.81 0 00-12.31 1.94c12.4 4.13 25 7.64 37.12 12.47a2.32 2.32 0 01.14 1.34z"/><path class="cls-3" d="M1631.05 465c-22.73-57.88-145.27 19.1-133.16 79.54 3.8 18.93 13.13 28.55 25.23 31.46a37.43 37.43 0 0014.2 17.07c33.51 22.6 108.44-11.44 127.38-63.69 14.23-39.23 2.08-65.96-33.65-64.38zm-46.3 122.13c-8-1.63-4.94-10.75 5.6-9 5.12.87-.51 10.05-5.6 9.02zm14.52-23c-7.27 2.89-24.06-3.06 3.23-10.24 5.5-1.38 2.35 8.11-3.23 10.29zm10.27 6.34c2.25-7.66 11.93-12.47 14.35-10.64 6.53 4.99-16.89 19.53-14.35 10.69zm12.11-27.47c.78-5.37 8.44-10.6 10.08-4.06s-10.84 9.32-10.08 4.06zm22.22 5c-10.8.77 1-14.25 5.76-13 5.37 1.3 2.88 12.34-5.76 13zm5.67-30.08c-8.08-10 4.35-22.6 9.49-15.88 5.6 7.27-6.7 19.29-9.49 15.84z"/><path class="cls-8" d="M1631.05 465c1.87-.09 3.65-.08 5.38 0 12.34-11.53 25.72-27.82 33.48-47.21.87-2.18-2.55-3.46-3.7-1.56C1653.6 437 1640.46 450 1629 460.7a36.62 36.62 0 012.05 4.3z"/><path class="cls-5" d="M1659 502c-5.14-6.72-17.57 5.89-9.49 15.88 2.82 3.45 15.12-8.57 9.49-15.88zM1649.63 534.92c-4.72-1.21-16.56 13.81-5.76 13 8.64-.58 11.13-11.62 5.76-13zM1621.65 543c-.76 5.29 11.69 2.36 10.08-4.06s-9.3-1.34-10.08 4.06zM1623.89 559.88c-2.42-1.83-12.1 3-14.35 10.64-2.54 8.84 20.88-5.7 14.35-10.64zM1590.35 578.15c-10.54-1.75-13.62 7.37-5.6 9 5.09 1.03 10.72-8.15 5.6-9zM1602.5 553.94c-27.29 7.18-10.5 13.13-3.23 10.24 5.58-2.18 8.73-11.67 3.23-10.24z"/><path class="cls-6" d="M317.93 382.12c-21.76 3.69-32.16 24.09-26.32 41.45 7.69 22.8 40.46 29.77 57.33 11.14 21.06-23.24 2.76-58.32-31.01-52.59zm7 22.35c1.39 2.94-5.38 6-6.55 2.28-.87-2.91 5.34-4.93 6.62-2.28zm-5.74-15c2 4.82-3.92 8.39-8.34 9.12-7.66 1.28.15-15.8 8.37-9.12zm6.37 35.23c6.16 9.13-1.26 14.23-5.77 3.71-7.68 6.06-9.32.2-2.64-5.7-.54-1.14-1.08-2.27-1.61-3.42-.89-2 1.87-4.37 3.53-2.69 5.15 5.21.53.25 10.28.64 2.28.09 3.65 3.86-3.76 7.46zm4.57-28c-2.2-.44-4.16-5.92 2.34-7.55 7.88-1.98 4.95 9.01-2.31 7.54z"/><g class="cls-15"><path class="cls-10" d="M329.38 417.24c-9.75-.39-5.13 4.57-10.28-.64-1.66-1.68-4.42.73-3.53 2.69.53 1.15 1.07 2.28 1.61 3.42-6.68 5.9-5 11.76 2.64 5.7 4.51 10.52 11.93 5.42 5.77-3.71 7.41-3.6 6.04-7.37 3.79-7.46zM319.22 389.47c-8.23-6.68-16 10.4-8.34 9.12 4.42-.73 10.35-4.3 8.34-9.12zM332.5 389.14c-6.5 1.63-4.54 7.11-2.34 7.55 7.26 1.47 10.19-9.52 2.34-7.55zM325 404.47c-1.24-2.65-7.45-.63-6.55 2.28 1.13 3.73 7.9.66 6.55-2.28z"/></g><path class="cls-6" d="M429.43 330.88c-13.1 10.84-12.18 28.45-1.59 37.77 13.9 12.25 38.44 4.28 42.51-14.63 5.09-23.61-20.61-39.96-40.92-23.14zm13.29 12.2c2 1.43-1.28 6.08-3.49 4-1.73-1.55 1.64-5.29 3.49-4zm-9.6-7.79c3.19 2.44.61 7.1-2.05 9.29-4.64 3.81-6.01-10.58 2.05-9.29zm17.8 21c7.63 3.71 4.65 10-2.41 4.7-2.79 7-6.14 3.72-4-2.79l-2.38-1.66c-1.35-1-.44-3.63 1.31-3.15 5.44 1.49.45 0 7.1-3.54 1.58-.76 3.95 1.22.38 6.48zm-7.73-20.44c-1.64.55-5.05-2.35-1.34-5.94 4.47-4.29 6.74 4.17 1.34 5.98z"/><g class="cls-15"><path class="cls-10" d="M450.58 349.89c-6.65 3.5-1.66 5-7.1 3.54-1.75-.48-2.66 2.18-1.31 3.15l2.38 1.66c-2.18 6.51 1.17 9.78 4 2.79 7.06 5.27 10-1 2.41-4.7 3.53-5.26 1.16-7.24-.38-6.44zM433.12 335.29c-8.06-1.29-6.69 13.1-2.05 9.29 2.66-2.19 5.24-6.85 2.05-9.29zM441.85 330c-3.71 3.59-.3 6.49 1.34 5.94 5.4-1.86 3.13-10.32-1.34-5.94zM442.72 343.08c-1.85-1.29-5.22 2.45-3.49 4 2.21 2.08 5.54-2.57 3.49-4z"/></g><g class="cls-15"><path class="cls-10" d="M1526.77 210.87c6.24 0 12.66.24 18.73 1.87a33 33 0 016.07 2.39 177.76 177.76 0 017.15-24.07 149.5 149.5 0 0115.44-31.16c-6.66-1.8-18.11 7.67-23.66 17.28-5.17 8.95-7.25 21.13-3.61 31.09a57.21 57.21 0 00-28-6.08c-6.69.32-16.68.77-20.81 7.57a15.1 15.1 0 00-1.87 5.24c9.57-3.82 20.26-4.2 30.56-4.13zM1579.81 169.24c-.34-2.09-1-6.35-3.71-8.4a188.51 188.51 0 00-15.26 32.3 153 153 0 00-5.73 22.72c6.89-6.21 27.89-26.75 24.7-46.62z"/><path class="cls-10" d="M1531 213.57c-11.87-.93-23.77-.27-34.94 3.54a9.49 9.49 0 00.87 3.71c5.1 10.34 31.78 10.65 50.3.45 1.32-.72 2.5-1.45 3.58-2.18a7.28 7.28 0 01.1-.8c-6.2-2.98-12.97-4.2-19.91-4.72z"/></g><path class="cls-6" d="M1586 217.75c-31.3-19.29-60.46 18.54-48.57 41.63 8.87 17.21 37.3 19.42 52 6.94 14.41-12.16 17.16-35.89-3.43-48.57zm-11.3 3.85c.83-5.17 10.9-3.53 11.7 1a5.38 5.38 0 01-5.45 5.78c-3.6-.2-6.56-4.75-6.23-6.78zm-9.27-4.21h.02zm-8.56 5c.65-6.79 10.48-5.83 10.84-3.19s-11.39 9.16-10.82 3.19zm13.61 6.77c2 2.59-3.1 6.48-5.33 4.21-2.71-2.78 3.23-6.97 5.35-4.21zm6.58 26.61c-1.46 1.92-2.93 3.84-4.38 5.77-1.28 1.72-4.68.79-3.79-1.6 2.71-7.19 4.25-5.94-2.07-7.38-2.79-.63-2.2-5.31.68-5 2 .19 4.42.42 6.87.82 5.5-9.36 10.28-2.63 8.11.27-2.49 3.31 0 .49 3.55 5 1.53 1.8 1.59 6.62-8.95 2.12z"/><path class="cls-1" d="M1586.05 253.58c-3.58-4.47-6-1.64-3.55-5 2.17-2.9-2.61-9.63-8.11-.27-2.45-.4-4.87-.63-6.87-.82-2.88-.28-3.47 4.4-.68 5 6.32 1.44 4.78.19 2.07 7.38-.89 2.39 2.51 3.32 3.79 1.6 1.45-1.93 2.92-3.85 4.38-5.77 10.54 4.57 10.48-.25 8.97-2.12zM1586.42 222.57c-.8-4.5-10.87-6.14-11.7-1-.33 2 2.63 6.58 6.25 6.75a5.38 5.38 0 005.45-5.75z"/><g class="cls-15"><path class="cls-10" d="M1565.4 217.38c.21.01.3.02 0 0z"/><path class="cls-10" d="M1567.73 219.2c-.36-2.64-10.19-3.6-10.84 3.19-.57 5.97 11.21-.39 10.84-3.19z"/></g><path class="cls-1" d="M1570.5 229.16c-2.12-2.76-8.06 1.43-5.33 4.21 2.23 2.27 7.32-1.62 5.33-4.21z"/><path class="cls-5" d="M1772.13 786.54c20.49-44.42 53.49-59.91 72.84-76.31 28.22-23.92 32.6-35 46.67-35 15.91 0 39.67 13.6 32.41 52.15-10.4 55.24 7.73 60.39-3 105.88-33.53 142.93-212.76 91.74-148.92-46.72z"/><path class="cls-3" d="M1841.64 780.83c-1.94-1.31-8 2.7-7.52 5 .32 1.57 3.79 3.44 6.46 1.76s2.42-5.85 1.06-6.76z"/><path class="cls-3" d="M1903.71 764.8c-3.51-41.12 14.12-50.06 2.3-63.46-16.17-18.31-34.09 9.84-66.64 35.15-26.36 20.48-37.21 25.92-51.66 57.23-32.42 70.26 8.38 122.09 60.59 104.44 36.33-12.28 61.36-58.52 59.78-87.37-1.54-28.19-1.41-11.41-4.37-45.99zM1889 794.67c-1.34 29-19.87 57.37-44.58 66.16-5 1.76-16.2 5.75-27.12.63-11.49-5.39-15.53-17.55-16.78-21.32-7.78-23.45 7.23-46.69 12.3-54.55 11.74-18.18 39.31-47.45 58.77-39.35 18.88 7.86 17.53 45.66 17.41 48.43z"/><path class="cls-3" d="M1812.9 808.73c4.85 8.28 16.62-2.81 10.2-8.61-4.6-4.12-13.45 3.09-10.2 8.61zM1819.52 788.42c3 3.34 13.4-4.95 9.41-8.7-3.39-3.17-12.05 5.74-9.41 8.7zM1834.39 768c-.44 2.67 2 6 4.55 6.34 4.44.51 9-8.29 7.22-10.57s-11.01-.45-11.77 4.23z"/><g class="cls-11"><path class="cls-10" d="M1819.52 788.42c-2.64-3 6-11.87 9.41-8.7 3.99 3.75-6.42 12.04-9.41 8.7zM1812.9 808.73c-3.25-5.52 5.6-12.75 10.2-8.61 6.42 5.8-5.35 16.88-10.2 8.61zM1834.12 785.87c-.46-2.34 5.58-6.35 7.52-5 1.34.91 1.72 5-1.06 6.8s-6.14-.23-6.46-1.8zM1834.39 768c.76-4.64 10.06-6.44 11.77-4.23s-2.78 11.08-7.22 10.57c-2.55-.34-4.94-3.71-4.55-6.34z"/></g><path class="cls-2" d="M1871.58 746.24c-19.46-8.1-47 21.17-58.77 39.35-5.07 7.86-20.08 31.1-12.3 54.55 1.25 3.77 5.29 15.93 16.78 21.32 10.92 5.12 22.17 1.13 27.12-.63 24.71-8.79 43.24-37.12 44.58-66.16.13-2.77 1.48-40.57-17.41-48.43zm-58.68 62.49c-3.25-5.52 5.6-12.75 10.2-8.61 6.42 5.8-5.35 16.88-10.2 8.61zm6.62-20.31c-2.64-3 6-11.87 9.41-8.7 3.99 3.75-6.42 12.04-9.41 8.7zm21.06-.79c-2.67 1.68-6.14-.19-6.46-1.76-.46-2.34 5.58-6.35 7.52-5 1.36.87 1.72 5.01-1.06 6.76zm-1.64-13.33c-2.55-.29-5-3.67-4.55-6.34.76-4.64 10.06-6.44 11.77-4.23s-2.78 11.08-7.22 10.57z"/><path class="cls-5" d="M1416.3 714.08c-3 3.66-7.5 8.87-9.35 13.9a338.4 338.4 0 0133.93-5.13c.74-.09 1.55-.2 2.33-.32 3.56-7.68 10.17-16.48 17.78-21.58a151.1 151.1 0 00-37.32 5.32 90.8 90.8 0 00-7.37 7.81zM1447.26 722c11.2-1.62 22.88-4.07 34.64-6a39.6 39.6 0 0110.82-12.89 172.83 172.83 0 00-24.85-2.17c-4.17 3.73-8.91 6.68-12.82 10.8a71.66 71.66 0 00-7.79 10.26zM1485.52 715.4c13.28-2 26.56-3.08 39.24-1.16-.78-3.21-5.68-4.87-8.74-5.8a173.06 173.06 0 00-18.78-4.56c-2.22 2.14-4.8 3.92-7 6.12a63.11 63.11 0 00-4.72 5.4zM1410.82 715.38c1.31-1.88 2.71-3.78 4.19-5.62-6.47 3.35-18.13 10.32-33.17 23.41a19.44 19.44 0 00-4.13 4.68 117.12 117.12 0 0125.75-9.09c.76-4.58 5.08-10.09 7.36-13.38zM1487.7 720.75a55.94 55.94 0 0114.85 11.71c12.58-6.22 18.13-10.72 20.52-13.69a279.16 279.16 0 00-35.37 1.98zM1494.76 732.15c-4.16-3.85-8.73-7.15-13.17-10.7-11 1.34-22 2.89-33.2 4.12q11.2 5.34 22.08 11.42c2.65 1.49 5.48 2.83 8 4.46a181.07 181.07 0 0019-6.67c-.91-.9-1.77-1.78-2.71-2.63zM1444.41 726.17a1.24 1.24 0 01-1.37 0c-11.55 1.18-23.06 2.49-34.22 4.72 3.58 1 7.22 3.11 10 4.44 7.19 3.38 15.27 7.17 21.06 12.67a1.86 1.86 0 01.57 1 211 211 0 0032.83-6.06c-3.73-2.24-7.8-4.1-11.31-6.13a572.64 572.64 0 01-17.56-10.64zM1401.87 732.39a125.65 125.65 0 00-24.79 8.59.28.28 0 010 .09c.54 2.3 3.47 4.26 10.24 5.63a175.9 175.9 0 0047.15 2.83c-10.83-5.3-20.47-13.27-32.14-16.75a.81.81 0 01-.46-.39z"/><path class="cls-3" d="M1523.07 718.77a279.16 279.16 0 00-35.37 2 55.94 55.94 0 0114.85 11.71l-1 .51s-1.44.71-4.11 1.81c-.87-.9-1.73-1.78-2.67-2.63-4.16-3.85-8.73-7.15-13.17-10.7-11 1.34-22 2.89-33.2 4.12q11.2 5.34 22.08 11.42c2.65 1.49 5.48 2.83 8 4.46-1.66.49-3.37 1-5.17 1.49-3.73-2.24-7.8-4.1-11.31-6.13-6-3.44-11.77-7-17.58-10.64a1.24 1.24 0 01-1.37 0c-11.55 1.18-23.06 2.49-34.22 4.72 3.58 1 7.22 3.11 10 4.44 7.19 3.38 15.27 7.17 21.06 12.67a1.86 1.86 0 01.57 1c-2 .21-4 .38-6 .53-10.83-5.3-20.47-13.27-32.14-16.75a.81.81 0 01-.47-.39 125.74 125.74 0 00-24.8 8.59 4.7 4.7 0 01.64-3.13 117.12 117.12 0 0125.75-9.09c.76-4.58 5.08-10.09 7.36-13.38 1.31-1.88 2.71-3.78 4.19-5.62a47.37 47.37 0 015.68-2.58s1-.37 3-.91a90.8 90.8 0 00-7.37 7.81c-3 3.66-7.5 8.87-9.35 13.9a338.4 338.4 0 0133.93-5.13c.74-.09 1.55-.2 2.33-.32 3.56-7.68 10.17-16.48 17.78-21.58 2.24-.05 4.53-.07 6.88 0-4.17 3.73-8.91 6.68-12.82 10.8a71.66 71.66 0 00-7.79 10.24c11.2-1.62 22.88-4.07 34.64-6a39.6 39.6 0 0110.82-12.89c1.5.22 3 .47 4.52.78-2.22 2.14-4.8 3.92-7 6.12a63.11 63.11 0 00-4.72 5.4c13.28-2 26.56-3.08 39.24-1.16v.16c.14.48.29 1.91-1.69 4.35z"/><path class="cls-6" d="M1450.54 855.72c-13.32-9.05-23.62-3.9-28.31-3.56-6.6.49-9.46-1.54-14.16-1.77-11.75-.59-29.43 12.78-30.4 32.13-1.1 22 25 46 49.83 42.21 36.31-5.48 44.56-54.39 23.04-69.01zm-6.16 10.19c1.42-1.92 6.06-2.13 8.33.33 3 3.31 3.19 12.72-4.21 8.56-3.36-1.89-5.75-6.66-4.12-8.89zm-12.27-2.8c-4.21-5.61.88-9.31 4.92-7 9.66 4.2.26 13.89-4.92 7zm7.14 16.71c3.33.95 2.81 6.1-.15 6.47-4.19.51-5.42-8.05.15-6.47zm-1.9 31.89c-4.82-3.84 8.93-15.91 9.55-6.83.33 4.82-7.14 8.76-9.55 6.83zm14.47-12.42c-2.74.64-8.49-6.4-6.79-11.36 1.63-4.75 6.44-5.31 8.72 1.58 1.32 3.98.19 9.28-1.93 9.78z"/><g class="cls-14"><path class="cls-10" d="M1329.59 872.76c-7.55-2.69-8.57 18.73.78 15.31 5.11-1.87 3.79-13.69-.78-15.31zM1342.35 888.42c-8.79-3.52-10.92 12.91-3.14 15.22s9.9-12.52 3.14-15.22zM1327.51 908.75c-4.4-7.35-11.08 2.31-10 8.52.99 5.65 14.55-.91 10-8.52zM1331.12 921.25c-7.94 5.52-4.33 9.17-.08 7.65 9.73-3.48 3.19-10.35.08-7.65zM1310.14 930c-2.82 2.73 1.65 7.53 5.48 4.11 4.17-3.71-1.03-8.42-5.48-4.11z"/></g><path class="cls-6" d="M1338 868.17c-4.41-1.89-7.59-.92-13.86-4.13-4.56-2.34-17.26-21.41-42.47-5.33-43 27.42-1.83 103.72 47.74 77.89 30.83-16.06 28.59-59.86 8.59-68.43zm-8.44 4.59c4.57 1.62 5.89 13.44.78 15.31-9.34 3.42-8.34-18-.75-15.31zm-14 61.37c-3.83 3.42-8.3-1.38-5.48-4.11 4.51-4.33 9.71.38 5.54 4.11zm1.89-16.86c-1.08-6.21 5.6-15.87 10-8.52 4.61 7.61-8.95 14.17-9.94 8.52zM1331 928.9c-4.25 1.52-7.86-2.13.08-7.65 3.15-2.7 9.69 4.17-.08 7.65zm8.17-25.26c-7.78-2.31-5.65-18.74 3.14-15.22 6.8 2.7 4.54 17.47-3.1 15.22z"/><path class="cls-5" d="M1422.23 852.16h.46a139.8 139.8 0 00-5.78-30.28c-9.9-31.89-34.09-56.42-42.71-89-.56-2.1-6.88-6.11-4.39 6.78-3.48 12.53-5.41 25.49-9.16 38-12.68 42.22-29.22 63.89-40.26 83.37a25.64 25.64 0 003.78 3 28.24 28.24 0 002.9 1.28c17.16-32.06 41.19-67.2 46.48-113 15.09 38.3 39.53 45.67 42.37 99.54a24.59 24.59 0 006.31.31z"/><g class="cls-14"><path class="cls-10" d="M1437 856.14c-4-2.34-9.13 1.36-4.92 7 5.21 6.86 14.61-2.83 4.92-7zM1452.71 866.24c-2.27-2.46-6.91-2.25-8.33-.33-1.63 2.23.76 7 4.12 8.89 7.4 4.2 7.25-5.25 4.21-8.56zM1453.75 889.51c-2.28-6.89-7.09-6.33-8.72-1.58-1.7 5 4 12 6.79 11.36 2.12-.5 3.25-5.8 1.93-9.78zM1439.25 879.82c-5.57-1.58-4.34 7-.15 6.47 2.96-.37 3.48-5.52.15-6.47zM1446.9 904.88c-.62-9.08-14.37 3-9.55 6.83 2.41 1.93 9.88-2.01 9.55-6.83z"/></g><path class="cls-5" d="M1330.91 556.79c-11.08-55.56-84.36-80.94-129.33-39.3-40.67 37.65-37.06 117.35 35.59 129.47 58.83 9.81 103.4-41.7 93.74-90.17zm-114.37-14c1.21 1.93-.82 6-8.65-1-8.89-7.94.26-12.32 8.65 1.02zm-9.46 14.24c1.85 5.81-9.79 1-12-2.93-2.49-4.4 9.24-5.67 12 2.95zm-16.69 17.24c-4-.92.11-8.37 13.68-3.45a1.71 1.71 0 01-.71 3.31c-7.98-.13-9.9.87-12.97.16zm9.3 12.73c4.52-5.93 19.5-4.65 13.11-.82-11.8 7.09-15.05 3.39-13.11.82zm16.64 18.24c-6.66 6.88-8.55 2.77-7.85 1.2 1.32-3 3.4-2.77 9.73-9.09.84-.82 7-1.25-1.88 7.91zm5.79-80.16c.46-3.17 5-3.59 9 9.92.84 2.84-4 4.34-5 1.58-2.64-7.28-4.45-8.34-4-11.48zm10 90.4c-3 11-11.73 5.32-2.54-7.66.95-1.27 5.25-2.23 2.58 7.68zm14.33 9.19a1.65 1.65 0 01-2.82-.21c-1.54-3.14-.13-7.1.4-10.36.45-2.73 4.51-2.46 4.32.36-.18 3.27.31 7.54-1.86 10.23zm-1.42-95.48c-.71-2.92-1.81-5.64-2.73-8.49-.66-2.05 3.78-9.63 6.65 7.8.47 2.57-3.27 3.18-3.88.71zm53.23 27.31c2.22-1.22 10.08-6.17 9.72-2.2-.18 2-1.61 2.21-8.41 5a1.53 1.53 0 01-1.27-2.78zm-39-26.95c-3.88-13.81 3.36-14.46 4.55-11.49.87 2.18.11 6.48.35 10.63a2.49 2.49 0 01-4.84.88zm7.57 95.49c-3.56 7.37-5.43-8.23-5.93-10.51s3.21-3.56 4-1.29c1.64 4.4 3.25 9.19 1.99 11.82zm9.6-98.24c2.2-8.65 11-8.59 3.84 7-.8 1.93-6.62 4.2-3.78-6.98zm7.65 91.58c-3.16 4.94-9.73-9.7-4.32-10.65 2.78-.47 6.64 7.13 4.38 10.67zm4.88-75.79c4-9.19 8.41-8.13 8.19-5.71-.24 2.61-2.14 2.64-4.8 7.43-1 1.94-4.18.27-3.35-1.7zm5.21 63.4c-6.89-7.08-1.63-7.69-.47-7.31 12.68 4.18 9.75 16.81.53 7.32zm11.87-15.54c-2.15 0-3-1.57-7.44-2.86-2.27-.66-1.27-3.81.82-3.79 11.04.12 10.94 6.66 6.68 6.67zm-6.16-18.28a1.75 1.75 0 01.28-3.35c14.96-2.52 14.05 8.34-.22 3.37z"/><path class="cls-2" d="M1174.69 613c-30-63 28.48-140.91 101.72-122.1 30.52 7.85 56.56 32.06 63 64.16 19.91 100.02-126.78 137.67-164.72 57.94z"/><path class="cls-2" d="M1218.48 557c8.37-16.85 45.81-29.65 65.33-10.94 23 22 13.39 68.34-35.09 60.36-29.52-4.84-38.28-33.22-30.24-49.42z"/><g class="cls-14"><path class="cls-10" d="M1308 554.32c.36-4-7.5 1-9.72 2.2a1.53 1.53 0 001.31 2.76c6.82-2.75 8.25-2.97 8.41-4.96zM1300.22 568.84a1.75 1.75 0 00-.28 3.35c14.27 4.97 15.18-5.89.28-3.35zM1299.48 583.82c-2.09 0-3.09 3.13-.82 3.79 4.4 1.29 5.29 2.87 7.44 2.86 4.26-.01 4.36-6.55-6.62-6.65zM1293.76 598.7c-1.16-.38-6.42.23.47 7.31 9.22 9.48 12.15-3.15-.47-7.31zM1284.14 618.4c2.26-3.54-1.6-11.14-4.32-10.65-5.41.95 1.18 15.59 4.32 10.65zM1212.8 586.2c6.39-3.83-8.59-5.11-13.11.82-1.94 2.55 1.31 6.25 13.11-.82zM1216.33 605.26c8.88-9.16 2.72-8.73 1.88-7.89-6.33 6.32-8.41 6.13-9.73 9.09-.7 1.54 1.19 5.68 7.85-1.2zM1232.16 615.5c2.67-9.91-1.63-9-2.54-7.66-9.19 12.98-.42 18.69 2.54 7.66zM1246.49 624.69c2.17-2.66 1.68-7 1.9-10.21.19-2.82-3.87-3.09-4.32-.36-.53 3.26-1.94 7.22-.4 10.36a1.65 1.65 0 002.82.21zM1266.89 625.06c1.26-2.63-.35-7.42-1.91-11.8-.81-2.27-4.53-1-4 1.29s2.35 17.88 5.91 10.51zM1249 528.52c-2.87-17.43-7.31-9.85-6.65-7.8.92 2.85 2 5.57 2.73 8.49.6 2.47 4.34 1.86 3.92-.69zM1264.22 528.71c-.24-4.15.52-8.45-.35-10.63-1.19-3-8.43-2.32-4.55 11.49a2.49 2.49 0 004.9-.86zM1280.33 533.86c7.15-15.63-1.64-15.69-3.84-7-2.84 11.14 2.98 8.87 3.84 7zM1292.41 544.33c2.66-4.79 4.56-4.82 4.8-7.43.22-2.42-4.24-3.48-8.19 5.71-.85 1.97 2.33 3.64 3.39 1.72zM1231.08 535c-4-13.51-8.5-13.09-9-9.92s1.36 4.2 4 11.5c1.03 2.78 5.84 1.28 5-1.58zM1216.54 542.81c-8.39-13.34-17.59-9-8.65-1 7.83 7.01 9.86 2.93 8.65 1zM1207.08 557.05c-2.76-8.62-14.49-7.35-12-2.93 2.21 3.97 13.85 8.74 12 2.93zM1204.07 570.84c-13.57-4.92-17.68 2.53-13.68 3.45 3.07.71 5-.3 13-.14a1.71 1.71 0 00.68-3.31z"/></g><path class="cls-6" d="M101.31 659.57c-12.27 23.16-12 85.54 8 100.87 31 23.77 109.89-22.22 111.49-69 1.9-57.26-84.39-98.15-119.49-31.87zm43.37-23.21c1.75-.3 3.06 2.1 1.28 3-5.94 3.12-9.39 12-10.75 7.28-.98-3.35 2.67-9.12 9.47-10.28zm-20.74 72.46c1.3-1.86 4.38-.76 3.75 1.58-2.74 10.25-1.54 9.76-2.85 11.9-2.31 3.76-6.97-4.77-.9-13.48zm-16.4 39.41a1.29 1.29 0 01-2.31-.3c-1.76-4.8.53-11.87 1.28-16.76.33-2.13 3.93-1.61 3.75.51-.42 4.94.15 12.32-2.72 16.55zm5.38-51.85c-4.41 28.68-10.31 11-3.19-1.34 1.06-1.84 3.47-.49 3.19 1.34zm2.08-33.66c-3.42 13.73-3.35 14.25-4.92 16.26-2.48 3.17-7.38-4.32 1.73-17.61a1.76 1.76 0 013.19 1.35zm14.31 82.46c-5.07 7.6-4.63 9.7-7.16 11.2s-6.37-1.14 3.77-13.82c1.53-1.92 4.71.61 3.38 2.62zm3.43-81.77c1-2 4.58-.56 3.72 1.57-1.56 3.84-2.26 8-4.24 11.69-1.63 2.99-5.7-.8.51-13.26zm3.68 34.92c.15-4 3.44-8.21 5.39-11.61 1.31-2.28 4.44-.27 3.44 2-2.75 6.27-3.91 9.31-5.82 10.84-1.11.9-3.08.44-3.02-1.23zm.35 33.76c.58-4.7 4.31-9.18 6.89-13a2.16 2.16 0 013.72 2.18c-8.38 18.44-10.78 12.15-10.62 10.82zm20 14.33c-2.8 2.21-5.29 5.21-8.43 6.89-1.36.73-8.53-.77 5.91-10.15 1.94-1.27 4.34 1.84 2.5 3.26zm7.83-101.25c1.41-1.44 4.14 0 3.47 2-5.81 17.27-18.74 13.57-3.49-2zm3.92 31.15a2 2 0 013.29 1.92c-.49 2.57-2 5-3.1 7.36-8.03 17.06-11.05.48-.21-9.28zm5.39 24.86a1.87 1.87 0 012.93 2.26c-9.46 21.4-15.35 9-2.95-2.26zm9.54 28.12c-.21.27-5.39 7-7.18 8.19-4.14 2.75-5.33-5.84 4.44-11.74 2.37-1.44 4.17 1.67 2.72 3.55zm6.91-70.07c-5.9 10.86-12.88 2.79-1-8.12 1.22-1.11 6.22-1.54.98 8.12zm3.12 24.23c1.19-10.87 15-15.54 6.86-3.18-4.81 7.26-7.02 4.49-6.88 3.18zm10.29 22.39c-6.34 6.8-7.79 3.7-7.4 2.44.87-2.82 3.68-4.46 9-10.63 1.01-1.24 6.79-.84-1.62 8.19z"/><path class="cls-8" d="M212.79 649q21.47-4.73 21.24-8-.24-3.54-26.55-5.31 18.75-20.23 15.93-23.89-3.21-4.17-34.51 13.28c-1.88-10.14-5-24-8-23.89-1.14.05-3.42 2.19-5.31 21.23-7.24-6.63-14-9.69-15.92-8-1.53 1.35-.42 6 2.68 11.61 22 3.21 42.76 18.1 52.53 38.34 8.53 1.65 18.19 2.94 19.11.48 1.27-3.25-13.67-11.8-21.2-15.85z"/><g class="cls-14"><path class="cls-10" d="M144.68 636.36c-6.8 1.16-10.45 6.93-9.47 10.31 1.36 4.67 4.81-4.16 10.75-7.28 1.78-.93.47-3.33-1.28-3.03zM164.58 645.17c-15.25 15.57-2.32 19.27 3.47 2 .67-1.98-2.05-3.44-3.47-2zM189.36 651.11c-11.9 10.91-4.92 19 1 8.12 5.22-9.66.22-9.23-1-8.12zM168.5 676.32c-10.84 9.76-7.82 26.34.19 9.28 1.1-2.35 2.61-4.79 3.1-7.36a2 2 0 00-3.29-1.92zM193.46 683.46c-.14 1.31 2.07 4.08 6.86-3.18 8.16-12.36-5.67-7.69-6.86 3.18zM205.32 697.66c-5.29 6.17-8.1 7.81-9 10.63-.39 1.26 1.06 4.36 7.4-2.44 8.44-9.03 2.66-9.43 1.6-8.19zM111.8 661.37c-9.11 13.29-4.21 20.78-1.73 17.61 1.57-2 1.5-2.53 4.92-16.26a1.76 1.76 0 00-3.19-1.35zM132.73 663.41c-6.21 12.46-2.14 16.25-.52 13.26 2-3.66 2.68-7.85 4.24-11.69.86-2.13-2.7-3.62-3.72-1.57zM141.8 686.72c-2 3.4-5.24 7.58-5.39 11.61-.06 1.67 1.91 2.13 3 1.24 1.91-1.53 3.07-4.57 5.82-10.84 1.01-2.28-2.12-4.29-3.43-2.01zM109.73 695c-7.12 12.35-1.22 30 3.19 1.34.28-1.79-2.13-3.14-3.19-1.34zM123.94 708.82c-6.07 8.71-1.41 17.24.9 13.48 1.31-2.14.11-1.65 2.85-11.9.63-2.34-2.45-3.4-3.75-1.58zM106.51 731.17c-.75 4.89-3 12-1.28 16.76a1.29 1.29 0 002.31.3c2.87-4.28 2.3-11.61 2.72-16.55.18-2.12-3.42-2.68-3.75-.51zM173.89 701.18c-12.4 11.26-6.51 23.66 2.93 2.26a1.87 1.87 0 00-2.93-2.26zM143.65 719.07c-2.58 3.84-6.31 8.32-6.89 13-.16 1.33 2.23 7.62 10.61-10.84a2.16 2.16 0 00-3.72-2.16zM125.91 742.56c-10.14 12.68-6.43 15.41-3.77 13.82s2.09-3.6 7.16-11.2c1.33-2.01-1.85-4.54-3.39-2.62zM154.23 743.16c-14.44 9.38-7.27 10.88-5.91 10.15 3.14-1.68 5.63-4.68 8.43-6.89 1.84-1.42-.56-4.53-2.52-3.26zM180.69 725.75c-9.77 5.9-8.58 14.49-4.44 11.74 1.79-1.2 7-7.92 7.18-8.19 1.45-1.88-.35-4.99-2.74-3.55z"/></g><path class="cls-6" d="M1767 145.63c14.65 17.48 65 37.74 83.93 26.66 29.33-17.19 18.13-95.88-19.07-112.51-45.49-20.35-106.77 35.8-64.86 85.85zm-4.47-42.63c.33-1.5 2.69-1.77 2.86 0 .57 5.81 6.56 11.48 2.35 11-3.05-.25-6.51-5.09-5.21-11zm51.61 40.49a1.79 1.79 0 012.51-2.5c7.36 5.57 7.36 4.44 8.65 6.2 2.28 3.13-6.12 4.1-11.16-3.66zm26.4 26.15a1.12 1.12 0 01-1 1.77c-4.44-.16-9.39-4.33-13.08-6.54-1.61-1 0-3.69 1.64-2.85 3.83 1.98 9.9 3.98 12.44 7.66zm-40-21.34c21.68 13 5.5 11.92-2.12 2.13-1.18-1.43.7-2.92 2.08-2.09zM1774 135.63c10 7.26 10.4 7.38 11.5 9.3 1.74 3-5.9 4.53-13.63-7.17a1.53 1.53 0 012.13-2.13zm71.17 15.51c4.47 6.58 6.31 6.91 6.69 9.44s-3 4.77-9.91-7.57c-.95-1.87 2.05-3.61 3.26-1.87zm-64.79-29.59c-1.32-1.49 1-3.87 2.48-2.48 2.59 2.52 5.74 4.45 8 7.25 1.96 2.28-2.43 4.32-10.44-4.77zm29.36 8.49c-3.2-1.44-5.5-5.47-7.59-8.15-1.41-1.81 1.23-3.67 2.75-2.12 4.15 4.27 6.22 6.21 6.83 8.25.39 1.18-.63 2.61-1.95 1.98zm27.33 10.79c-3.6-2-6-6.48-8.24-9.82a1.88 1.88 0 013-2.29c12.17 12.81 6.3 12.68 5.28 12.11zm18.11-11.41c.86 3 2.46 6 2.79 9.05.14 1.33-3.42 6.62-6.24-8.1-.34-1.99 2.92-2.92 3.49-.95zm-79.06-39.53c-.7-1.6 1.38-3.33 2.77-2.13 12.05 10.33 4.82 19.53-2.73 2.13zm26.4 7.06a1.73 1.73 0 012.63-2c1.91 1.23 3.38 3.25 4.91 4.91 11.17 12.04-3.19 9.03-7.5-2.86zm21.81 3.81a1.63 1.63 0 012.79-1.62c14.19 14.63 2.26 15.3-2.75 1.62zm25.8 1.53c.15.26 3.87 6.64 4.24 8.47.87 4.24-6.45 2.38-8-7.42-.37-2.4 2.76-2.84 3.8-1.05zm-54.23-28.55c6.82 8.32-2 11.3-6.86-1.87-.46-1.35.84-5.53 6.9 1.87zm20.57 5.43c-8.38-4.53-7.61-17.21-.32-6.58 4.32 6.25 1.36 7.12.36 6.58zm21.42-1c3.4 7.34.42 7.49-.46 6.76-2-1.63-2.39-4.43-5.63-10.71-.61-1.22 1.61-5.74 6.13 4z"/><path class="cls-8" d="M1795 52.27q3.24-18.85.55-19.74-2.94-1-13 19.66-10.17-21.73-14-20.67-4.42 1.21-.62 32.17c-8.79-1.8-21-3.87-21.87-1.42-.33.94.65 3.49 15.38 11.25-7.73 3.66-12.4 8.1-11.65 10.23.59 1.67 4.69 2.29 10.25 1.64 9.8-16.69 28.61-28.53 48.14-29.77 4.12-6.34 8.33-13.7 6.65-15.25-2.24-2.07-14.03 7.17-19.83 11.9z"/><g class="cls-14"><path class="cls-10" d="M1762.53 103c-1.3 5.87 2.16 10.71 5.21 11 4.21.43-1.78-5.24-2.35-11-.17-1.73-2.53-1.46-2.86 0zM1776.16 89.89c7.55 17.4 14.78 8.2 2.77-2.13-1.39-1.2-3.47.53-2.77 2.13zM1789.08 71.87c4.89 13.17 13.68 10.19 6.86 1.87-6.06-7.4-7.36-3.22-6.86-1.87zM1802.56 97c4.31 11.94 18.67 15 7.54 2.89-1.53-1.66-3-3.68-4.91-4.91a1.73 1.73 0 00-2.63 2.02zM1816.51 79.17c1 .54 4-.33-.32-6.58-7.29-10.59-8.06 2.05.32 6.58zM1831.84 74.27c3.24 6.28 3.64 9.08 5.63 10.71.88.73 3.86.58.46-6.76-4.52-9.74-6.74-5.22-6.09-3.95zM1771.91 137.76c7.73 11.7 15.37 10.2 13.63 7.17-1.1-1.92-1.55-2-11.5-9.3a1.53 1.53 0 00-2.13 2.13zM1780.42 121.55c8 9.09 12.4 7 10.52 4.77-2.3-2.8-5.45-4.73-8-7.25-1.47-1.39-3.84.99-2.52 2.48zM1802.19 121.89c2.09 2.68 4.39 6.71 7.59 8.15 1.32.59 2.34-.84 2-2-.61-2-2.68-4-6.83-8.25-1.53-1.57-4.17.29-2.76 2.1zM1798.38 150.47c7.62 9.79 23.8 10.83 2.12-2.13-1.38-.83-3.26.66-2.12 2.13zM1814.14 143.53c5 7.76 13.44 6.79 11.16 3.7-1.29-1.76-1.29-.63-8.65-6.2a1.79 1.79 0 00-2.51 2.5zM1826.45 164.91c3.69 2.21 8.64 6.38 13.08 6.54a1.12 1.12 0 001-1.77c-2.51-3.71-8.61-5.66-12.45-7.62-1.64-.84-3.24 1.94-1.63 2.85zM1824.37 100.76c5 13.68 16.94 13 2.79-1.62a1.63 1.63 0 00-2.79 1.62zM1828.87 131c2.25 3.34 4.64 7.81 8.24 9.82 1 .57 6.87.7-5.26-12.11a1.88 1.88 0 00-2.98 2.29zM1842 153c6.9 12.34 10.31 10.24 9.91 7.57s-2.22-2.86-6.69-9.44c-1.22-1.73-4.22.01-3.22 1.87zM1851.77 130.37c2.82 14.72 6.38 9.43 6.24 8.1-.33-3.08-1.93-6.08-2.79-9.05-.57-1.97-3.83-1.04-3.45.95zM1846.41 103.34c1.55 9.8 8.87 11.66 8 7.42-.37-1.83-4.09-8.21-4.24-8.47-1.04-1.79-4.17-1.35-3.76 1.05z"/></g><path class="cls-5" d="M697.89 900.65a13 13 0 00-2-23.43c9.31-5.46 9.51-18.48-1.14-22.73-2.44-19-24.14-19.19-31.34-3.72-10.69-6.63-23.15.29-24.46 12.28a14.27 14.27 0 00-23.37 11.69c-17.66 2-27.69 19.82-9.73 29.92-1.52 10.69 8.14 17 18.19 14.26a13.56 13.56 0 0018.09 11.92 11.7 11.7 0 0020 7.17c.77 8.5 9.29 13.7 17.11 9.54 5.7 8.22 18.34 1.13 14.26-8a12.79 12.79 0 003-18 12.29 12.29 0 001.39-20.9zm-31.21-28.81c-3.73 1.24-7.85-7.68-4.22-9.71 4.96-2.76 8.93 8.16 4.22 9.71zm4.72 28.08c-1.78 2-5.18-3.13-2.08-6.61 2.1-2.37 4.44 4.05 2.08 6.61zm7.2-52.75c1.87.65 4.22 2.87 3.71 4.32-1.73 4.93-7.79-4.74-3.71-4.32zM676.41 874c3.64-2.91 6.14 5.51 3.87 7.32-3.11 2.52-7.52-4.32-3.87-7.32zm6 33.11c-.82 5-8 1.89-3.62-3.38.78-.93 4.07.51 3.59 3.42zm-1.28-46c.65-1.75 3.1-3 5.33 1.26 6.27 12.17-8.55 7.34-5.36-1.18zm6.76 69c-5.79-.26 1.74-10.13 4.32-7 1.15 1.58-1.68 7.24-4.35 7.12zm4.79-18.6c-3.7 2.1-4.34-5.75-1-7.07 3.04-1.1 3.55 5.72.97 7.19zm-1.98-19.11c-2.57-2.37-3-7.79-.86-8.91 6.77-3.55 7.96 15.44.86 8.91z"/><path class="cls-3" d="M638.93 863.06c1.31-12 13.77-18.92 24.46-12.29a18.86 18.86 0 0112.4-10.63c1.87-10.14-2.89-11-13.78 2.71-.07-27.85-10.94-24.48-19 1-17.48-41.51-22.44-37.62-15.14 6.43-45.5-19.55-48.64-13.91-13.8 13.87-32.63-1.55-31.16 3.74-7.68 13.29a26.48 26.48 0 019.22-2.74 14.27 14.27 0 0123.32-11.64z"/><g opacity=".8"><path class="cls-10" d="M662.46 862.13c-3.63 2 .49 11 4.22 9.71 4.71-1.55.74-12.47-4.22-9.71zM686.43 862.45c-2.23-4.29-4.68-3-5.33-1.26-3.19 8.52 11.63 13.35 5.33 1.26zM680.28 881.36c2.27-1.81-.23-10.23-3.87-7.32s.76 9.8 3.87 7.32zM689.84 883.49c-2.14 1.12-1.71 6.54.86 8.91 7.1 6.53 5.91-12.46-.86-8.91zM669.32 893.31c-3.1 3.48.3 8.56 2.08 6.61 2.36-2.56.02-8.98-2.08-6.61zM691.63 904.56c-3.32 1.32-2.68 9.17 1 7.07 2.6-1.47 2.09-8.29-1-7.07zM682.38 907.15c.48-2.91-2.81-4.35-3.62-3.38-4.41 5.23 2.8 8.35 3.62 3.38zM692.18 923.25c-2.58-3.15-10.11 6.72-4.32 7 2.67.1 5.5-5.56 4.32-7zM682.31 851.49c.51-1.45-1.84-3.67-3.71-4.32-4.08-.42 1.98 9.25 3.71 4.32z"/></g><path class="cls-5" d="M854.92 950.09c-.41-12.64-13.13-19.2-23.89-13.62a14.34 14.34 0 00-22.78-13.05c-11.48-13.68-32-12.13-30.45 8.52-9.77 4.67-9.67 16.25-1.79 23.15a13.62 13.62 0 00.09 21.76 11.75 11.75 0 005.11 20.68c-6.68 5.38-6.29 15.39 1.54 19.63-3.7 9.33 9.26 16 14.66 7.46a12.85 12.85 0 0016.74-7.47 12.34 12.34 0 0018.24-10.44A13 13 0 00850.87 992c9.75 4.74 20.75-2.33 18.37-13.61 14.57-12.65 2.62-30.89-14.32-28.3zm-44.6 64.41c-.55 1.8-6.86 2.58-8.25.28-3.01-4.99 9.44-4.19 8.25-.28zm12.32-35.78c3.15.45-.92 6-4.38 5.43-2.62-.42-.26-6.08 4.38-5.43zm-3.5 13.72c1.26.14 1.89 3.69-.82 4.91-4.61 2.09-6.04-5.67.82-4.91zm1.16 16c-3.82-1.92 2.39-6.83 5.33-4.79 2.75 1.9-2.63 6.13-5.33 4.78zm15-12.33c.54-3.47 4.84-6.85 7-5.68 6.7 3.68-8.52 15.24-7 5.67zm3.43-14.86c-3.81-1.22-.51-8.74 4-7.31s-1.23 8.19-4 7.3zm.4-16.67c-3.12-2.44 2-10.85 5.77-8.93 5.1 2.59-1.9 11.99-5.77 8.92zM858 975.86c-6.61 12-10.81-3.09-1.92-5.16 1.81-.43 4.23.91 1.92 5.16zm6.87-9.54c-5.09 1.29-.37-9.16 1.56-5.51.46 1.93-.09 5.13-1.59 5.51z"/><path class="cls-3" d="M808.25 923.42A14.34 14.34 0 01831 936.47c10.76-5.58 23.48 1 23.89 13.62a18.93 18.93 0 0115.8 4.47c9.55-4.08 7.58-8.54-10-10C884 929 875.16 921.75 849.3 929.18c25-37.73 19-39.72-13.8-9.09-9-48.94-15.44-48.43-19.28-3.83-16.87-28.16-20.47-24-15.39 1a26.65 26.65 0 017.42 6.16z"/><g opacity=".7"><path class="cls-10" d="M844.9 955.64c-3.72-1.92-8.89 6.49-5.77 8.93 3.87 3.07 10.87-6.33 5.77-8.93zM858 975.86c2.34-4.25-.08-5.59-1.92-5.16-8.92 2.07-4.72 17.16 1.92 5.16zM838.73 981.24c2.77.89 8.43-5.89 4-7.31s-7.81 6.07-4 7.31zM842.27 990.42c-2.13-1.17-6.43 2.21-7 5.68-1.49 9.57 13.73-1.99 7-5.68zM822.64 978.72c-4.65-.65-7 5-4.38 5.43 3.46.55 7.53-4.98 4.38-5.43zM825.63 1003.64c-2.94-2-9.15 2.87-5.33 4.79 2.7 1.35 8.08-2.88 5.33-4.79zM818.32 997.35c2.71-1.22 2.08-4.77.82-4.91-6.86-.76-5.43 7-.82 4.91zM810.32 1014.5c1.19-3.91-11.26-4.71-8.25.28 1.39 2.3 7.7 1.52 8.25-.28zM864.84 966.32c1.5-.38 2-3.58 1.56-5.51-1.93-3.65-6.65 6.8-1.56 5.51z"/></g><path class="cls-5" d="M835.5 920.09c1.72-1.61 3.34-3.1 4.91-4.53 6.05-19.3 7.89-18 15.44-34.7 2.32-5.12-.55-7.05-3-4-7.12 8.7-13.93 24.32-18.2 38.61.26 1.47.55 3.02.85 4.62zM831 936.47a15.49 15.49 0 00-.24-4.5l-.3 2.16c-.48 4.08 1.84 3.41 3.58 1.09a17.88 17.88 0 00-3.04 1.25z"/><path class="cls-8" d="M157.54 1016.67a88.52 88.52 0 00-6.27-6.65A92.17 92.17 0 00133 996.46q9 11.76 18.23 23.37c2.07-1.04 4.18-2.08 6.31-3.16zM175 1049.16a90.76 90.76 0 00-14.19-28.29c-2 1.15-4 2.31-6.09 3.45 6.7 8.36 13.48 16.61 20.28 24.84zM104.83 1041.16q19.83-8.62 39.34-18a1083.99 1083.99 0 01-23.08-32.48 96 96 0 00-14.3-4.68 1108.38 1108.38 0 01-31.8 10.66 889.51 889.51 0 0029.84 44.5zM100.18 1051.59a622.23 622.23 0 01-45.23 18q15.9 22.7 33.3 44.2a1616.75 1616.75 0 0046.5-19.25 729.4 729.4 0 01-34.57-42.95zM97.62 984.1a101.65 101.65 0 00-30.73-.44c1.6 2.65 3.25 5.26 4.89 7.92 8.63-2.43 17.22-4.92 25.84-7.48zM66.27 999.45q-23.83 7.29-47.94 13.37 15.09 25.35 31.74 49.73a771.52 771.52 0 0045.39-17.38 486 486 0 01-29.19-45.72zM17.39 1138.37c8.75-2.44 17.47-5 26.21-8 12-4.1 23.87-8.48 35.66-13q-17.26-21.86-32.75-44.88a591 591 0 01-60 16.91q14.6 25.26 30.88 48.97zM109.41 1047.4a603.36 603.36 0 0017.81 23.28c5.38 6.76 10.94 13.38 16.49 20q18.14-7.9 36.14-16a117.3 117.3 0 00-.83-7.33 869.65 869.65 0 01-31.19-39.2 664.94 664.94 0 01-38.42 19.25zM58.65 985.12a95.27 95.27 0 00-40.54 21c15.07-3.93 30.18-8 45.19-12.16-1.6-2.96-3.15-5.86-4.65-8.84zM41.76 1065.3q-16.09-24.71-30.21-50.77c-1 .25-2 .49-3 .7-14.46 15.3-25.43 34.35-33.69 53.22 2.42 4.56 4.9 9.1 7.41 13.54 19.99-4.86 39.82-10.21 59.49-16.69zM180.16 1079.38a1750.48 1750.48 0 01-32.59 15.89 2582.9 2582.9 0 0028.69 33.07c3.05-15.64 4.83-32.44 3.9-48.96z"/><path class="cls-8" d="M97.62 984.1h.27l.38.06c1.68.27 3.35.6 5 1 1.16.26 2.32.53 3.49.85a80.45 80.45 0 00-9.14-1.91zM57.21 932.27c-.77-1.58-1.54-3.1-2.31-4.6-10.39-6.55-18.92-9.35-21.3-7-2.64 2.64 3.23 10.79 13.28 31 5.91 11.91 10.76 23 14.74 32.8.9-.17 1.78-.37 2.68-.52a24.82 24.82 0 012.59-.36 95.59 95.59 0 0110.87-.91 380 380 0 00-20.55-50.41zM121.09 990.71c1 .39 1.91.85 2.86 1.27v-.05l.89.41a88.48 88.48 0 00-3.75-1.63zM83.47 914.14a133.89 133.89 0 0110.59 15.61c1 1.79 2 3.58 2.91 5.37a273.63 273.63 0 017.2-39 119.17 119.17 0 00-3.11-4.84c-11.87-17.61-30.8-36-35.22-33.09-3.82 2.49 4.71 19.88 13.7 44.7q1.9 5.2 3.93 11.25zM95.35 983.76l-.44-.06.44.07zM130.35 995l-.89-.46zM238.54 914.3c-2.3-5.94-36.91-1-66.65 11.65-4.47 1.91-8.74 4-12.85 6.14a316.16 316.16 0 00-34.59 52.14 122.92 122.92 0 0118.92-8.15 128.3 128.3 0 0121.08-5.08 599.3 599.3 0 0127.34-21.06c30.05-21.81 48.54-31.03 46.75-35.64zM127.7 993.69l-1-.51zM133 996.46c.47.27.92.57 1.39.84z"/><path class="cls-2" d="M143.37 976.08a122.92 122.92 0 00-18.92 8.15A310.29 310.29 0 01169 920.57c19.18-21.05 37.21-34.73 34.33-39.36-3.33-5.37-33.32 3.6-55.46 19.51a104.62 104.62 0 00-12.67 10.71c.95-12.22 1.18-23 1.05-32.23-.17-12.4-.64-37.06-6.66-38.09-7.28-1.24-18.61 32.77-20.66 38.94a267.71 267.71 0 00-12 55.07c-.92-1.79-1.88-3.58-2.91-5.37-22.64-39.23-63.75-61.64-68.78-56.66-3.66 3.62 12.87 20.52 31.93 59.18a382.16 382.16 0 0120.58 50.54 104.8 104.8 0 0117.56 1l1.46.18c.28 0 .55.06.82.11a80.45 80.45 0 019.17 1.93c1.53.37 3 .84 4.53 1.29v-.06q2.55.76 5.06 1.66c1.33.48 2.66.95 4 1.46l.58.23.21.08a102.85 102.85 0 0111.86 5.77 92.17 92.17 0 0116.43 11.87 100.12 100.12 0 0115.13-12.4c28.15-18.76 55.55-16 55.46-19.51-.15-4.16-37.9-13.27-76.65-.34z"/><path d="M509.49 1203.57c16-47.09-10.84-73.33-38.45-107.14-35.54-43.51-68.29-53.17-78.83 2.25-10.39 54.65-15.53 82.17-12.83 91.88 20.29 73.1 103.92 90.25 130.11 13.01z" opacity=".4" fill="#f7f7f7"/><path class="cls-3" d="M524.73 1134.23a81.23 81.23 0 00-8.56-15.54c.86-6.39-3.15-20.35-8.93-31.3-11-20.89-29.78-33.23-31.55-31.6-1.26 1.16 7.21 8.37 12.51 24.5a57.57 57.57 0 012.6 11.72 269.23 269.23 0 01-19.28-22.46c-24.2-31.33-33.28-54.69-43.07-52.35-10 2.4-7.42 28.49-20.11 32-12.2 3.41-24.24-18-32.58-14.5-7.19 3-4.56 21.54-3.83 39.29.06 1.27.1 2.51.13 3.74 0-1.23-.07-2.47-.13-3.74-.08-2-.19-4.07-.3-6.09-6.93-3.54-8.9-6.82-9.83-6.23-2 1.28 4.09 19 10.26 27.82.09-3.5.1-7.18 0-11 1.37 58.45-19.69 71.62-9.07 116.49 33.21 140.18 216.87 68.02 161.74-60.75zm-33.89-42.18z"/><path class="cls-6" d="M428.46 1017.22c1.92-.46 3.82.1 5.8 1.49-14.71-66.71-14.33-101.57-21.5-102.17-3.87-.32-13.63 18.29-17.09 48.46a956 956 0 0123.22 69.49c2.44-7.81 4.18-15.98 9.57-17.27z"/><path class="cls-3" d="M407 1049.47a9.27 9.27 0 001.37-.21c5.85-1.64 8.45-8.07 10.54-14.77A965.8 965.8 0 00395.69 965c-16.92-44.89-33.08-77.56-36.85-76.37s1 33.63 12.14 76.41c17.02 18.65 33.77 47.23 36.02 84.43z"/><path class="cls-6" d="M407 1049.47c-2.23-37.2-19-65.78-36-84.43s-34.11-27.42-37-25c-3.81 3.22 13.1 23 32.73 71.18 4.07 10 6.81 17.68 8.82 23.67.08 0 .14-.1.23-.13 8.02-3.39 19.48 16.24 31.22 14.71z"/><g class="cls-12"><path class="cls-10" d="M617.78 663.38c-6.39-.1-14.76 11.86-11.54 17 6.97 11.15 27.5-16.74 11.54-17zM59.78 671.38c-6.39-.1-14.76 11.86-11.54 17 6.97 11.15 27.5-16.74 11.54-17zM283.78 681.38c-6.39-.1-14.76 11.86-11.54 17 6.97 11.15 27.5-16.74 11.54-17zM290.78 543.38c-6.39-.1-14.76 11.86-11.54 17 6.97 11.15 27.5-16.74 11.54-17zM432.54 885.22c-4.41 4.63-1.28 18.89 4.69 20 12.91 2.44 6.32-31.55-4.69-20zM266.54 822.22c-4.41 4.63-1.28 18.89 4.69 20 12.91 2.44 6.32-31.55-4.69-20zM656.54 310.22c-4.41 4.63-1.28 18.89 4.69 20 12.91 2.44 6.32-31.55-4.69-20zM650.57 730c2.79 3.64 16.85.77 20.6-7.88 5.41-12.45-27.11-.64-20.6 7.88zM296.57 621c2.79 3.64 16.85.77 20.6-7.88 5.41-12.45-27.11-.64-20.6 7.88zM805.57 527c2.79 3.64 16.85.77 20.6-7.88 5.41-12.45-27.11-.64-20.6 7.88zM533.57 267c2.79 3.64 16.85.77 20.6-7.88 5.41-12.45-27.11-.64-20.6 7.88zM334.57 549c2.79 3.64 16.85.77 20.6-7.88 5.41-12.45-27.11-.64-20.6 7.88zM451.57 245c2.79 3.64 16.85.77 20.6-7.88 5.41-12.45-27.11-.64-20.6 7.88zM412.57 466c2.79 3.64 16.85.77 20.6-7.88 5.41-12.45-27.11-.64-20.6 7.88zM354.57 326c2.79 3.64 16.85.77 20.6-7.88 5.41-12.45-27.11-.64-20.6 7.88zM613.57 1074c2.79 3.64 16.85.77 20.6-7.88 5.41-12.45-27.11-.64-20.6 7.88zM225.24 1086.59c4.58.38 11.9-11.95 8-20.55-5.54-12.35-18.66 19.65-8 20.55zM268.57 1047c2.79 3.64 16.85.77 20.6-7.88 5.41-12.45-27.11-.64-20.6 7.88zM738.57 892c2.79 3.64 16.85.77 20.6-7.88 5.41-12.45-27.11-.64-20.6 7.88zM253.57 987c2.79 3.64 16.85.77 20.6-7.88 5.41-12.45-27.11-.64-20.6 7.88zM1113.57 703c2.79 3.64 16.85.77 20.6-7.88 5.41-12.45-27.11-.64-20.6 7.88zM23.57 338c2.79 3.64 16.85.77 20.6-7.88 5.41-12.45-27.11-.64-20.6 7.88zM1864.57 224c2.79 3.64 16.85.77 20.6-7.88 5.41-12.45-27.11-.64-20.6 7.88zM1091.57 421c2.79 3.64 16.85.77 20.6-7.88 5.41-12.45-27.11-.64-20.6 7.88zM110.57 35c2.79 3.64 16.85.77 20.6-7.88 5.41-12.45-27.11-.64-20.6 7.88zM873.57 548c2.79 3.64 16.85.77 20.6-7.88 5.41-12.45-27.11-.64-20.6 7.88zM51.57 786c2.79 3.64 16.85.77 20.6-7.88 5.41-12.45-27.11-.64-20.6 7.88zM389 412.73c4.59.08 11.08-12.72 6.64-21-6.36-11.99-17.33 20.81-6.64 21zM1125.57 566c2.79 3.64 16.85.77 20.6-7.88 5.41-12.45-27.11-.64-20.6 7.88zM860.57 472c2.79 3.64 16.85.77 20.6-7.88 5.41-12.45-27.11-.64-20.6 7.88zM913.57 975c2.79 3.64 16.85.77 20.6-7.88 5.41-12.45-27.11-.64-20.6 7.88zM916.57 894c2.79 3.64 16.85.77 20.6-7.88 5.41-12.45-27.11-.64-20.6 7.88zM1792.57 687c2.79 3.64 16.85.77 20.6-7.88 5.41-12.45-27.11-.64-20.6 7.88zM1709.57 157c2.79 3.64 16.85.77 20.6-7.88 5.41-12.45-27.11-.64-20.6 7.88zM426.17 833.85c4.53-.76 8.55-14.54 2.67-21.9-8.47-10.58-13.22 23.68-2.67 21.9zM320.17 1094.85c4.53-.76 8.55-14.54 2.67-21.9-8.47-10.58-13.22 23.68-2.67 21.9zM358.17 826.85c4.53-.76 8.55-14.54 2.67-21.9-8.47-10.58-13.22 23.68-2.67 21.9zM232.17 246.85c4.53-.76 8.55-14.54 2.67-21.9-8.47-10.58-13.22 23.68-2.67 21.9zM826.17 852.85c4.53-.76 8.55-14.54 2.67-21.9-8.47-10.58-13.22 23.68-2.67 21.9zM588.33 739.72c-9-3.11-16.69 10.78-12.17 14.39 5.02 4.01 25.89-9.61 12.17-14.39zM366.33 734.72c-8.95-3.11-16.69 10.78-12.17 14.39 5.02 4.01 25.89-9.61 12.17-14.39zM471.33 980.72c-8.95-3.11-16.69 10.78-12.17 14.39 5.02 4.01 25.89-9.61 12.17-14.39zM925.33 278.72c-9-3.11-16.69 10.78-12.17 14.39 5.02 4.01 25.89-9.61 12.17-14.39zM1293.33 281.72c-8.95-3.11-16.69 10.78-12.17 14.39 5.02 4.01 25.89-9.61 12.17-14.39zM1253.33 22.72c-8.95-3.11-16.69 10.78-12.17 14.39 5.02 4.01 25.89-9.61 12.17-14.39zM551.33 967.72c-9-3.11-16.69 10.78-12.17 14.39 5.02 4.01 25.89-9.61 12.17-14.39zM590.32 937.52c-5.77 7.52 5 19.24 9.83 16.08 5.39-3.5-.98-27.6-9.83-16.08zM1044.32 342.52c-5.77 7.52 5 19.24 9.83 16.08 5.39-3.5-.98-27.6-9.83-16.08zM634.32 453.52c-5.77 7.52 5 19.24 9.83 16.08 5.39-3.5-.98-27.6-9.83-16.08zM596.32 191.52c-5.77 7.52 5 19.24 9.83 16.08 5.39-3.5-.98-27.6-9.83-16.08zM988.32 1024.52c-5.77 7.52 5 19.24 9.83 16.08 5.39-3.5-.98-27.6-9.83-16.08zM974.32 781.52c-5.77 7.52 5 19.24 9.83 16.08 5.39-3.5-.98-27.6-9.83-16.08zM1864.32 19.52c-5.77 7.52 5 19.24 9.83 16.08 5.39-3.5-.98-27.6-9.83-16.08zM1745.32 727.52c-5.77 7.52 5 19.24 9.83 16.08 5.39-3.5-.98-27.6-9.83-16.08zM1902.32 553.52c-5.77 7.52 5 19.24 9.83 16.08 5.39-3.5-.98-27.6-9.83-16.08zM878.32 791.52c-5.77 7.52 5 19.24 9.83 16.08 5.39-3.5-.98-27.6-9.83-16.08zM1200.32 722.52c-5.77 7.52 5 19.24 9.83 16.08 5.39-3.5-.98-27.6-9.83-16.08zM1080.32 510.52c-5.77 7.52 5 19.24 9.83 16.08 5.39-3.5-.98-27.6-9.83-16.08zM1582.32-1.48c-5.77 7.52 5 19.24 9.83 16.08 5.39-3.5-.98-27.6-9.83-16.08zM914.32 407.52c-5.77 7.52 5 19.24 9.83 16.08 5.39-3.5-.98-27.6-9.83-16.08zM1045.32 816.52c-5.77 7.52 5 19.24 9.83 16.08 5.39-3.5-.98-27.6-9.83-16.08zM1341.32 295.52c-5.77 7.52 5 19.24 9.83 16.08 5.39-3.5-.98-27.6-9.83-16.08zM717.32 980.52c-5.77 7.52 5 19.24 9.83 16.08 5.39-3.5-.98-27.6-9.83-16.08zM1057.32 722.52c-5.77 7.52 5 19.24 9.83 16.08 5.39-3.5-.98-27.6-9.83-16.08zM110.32 808.52c-5.77 7.52 5 19.24 9.83 16.08 5.39-3.5-.98-27.6-9.83-16.08zM656.32 225.52c-5.77 7.52 5 19.24 9.83 16.08 5.39-3.5-.98-27.6-9.83-16.08zM1771.32 183.52c-5.77 7.52 5 19.24 9.83 16.08 5.39-3.5-.98-27.6-9.83-16.08zM1017.32 447.52c-5.77 7.52 5 19.24 9.83 16.08 5.39-3.5-.98-27.6-9.83-16.08zM547.32 406.52c-5.77 7.52 5 19.24 9.83 16.08 5.39-3.5-.98-27.6-9.83-16.08zM1010.32 976.52c-5.77 7.52 5 19.24 9.83 16.08 5.39-3.5-.98-27.6-9.83-16.08zM996.32 891.52c-5.77 7.52 5 19.24 9.83 16.08 5.39-3.5-.98-27.6-9.83-16.08zM131.32 197.52c-5.77 7.52 5 19.24 9.83 16.08 5.39-3.5-.98-27.6-9.83-16.08zM596.32 275.52c-5.77 7.52 5 19.24 9.83 16.08 5.39-3.5-.98-27.6-9.83-16.08zM495.33 845.72c-8.95-3.11-16.69 10.78-12.17 14.39 5.02 4.01 25.89-9.61 12.17-14.39zM429.34 740.66c-.2 7.77 15.06 2.78 16.83-3.34 1.83-6.32-16.67-3.16-16.83 3.34zM88.34 625.66c-.2 7.77 15.06 2.78 16.83-3.34 1.83-6.32-16.67-3.16-16.83 3.34zM353.34 605.66c-.2 7.77 15.06 2.78 16.83-3.34 1.83-6.32-16.67-3.16-16.83 3.34zM521.91 708.48c-10.94 12.63 13.6 10 10.63-.86a5.28 5.28 0 00-3.94-3.81c-2.35-.34-4.21 1.82-6.69 4.67zM494.73 770.89c-.1 8.63 14 3.56 13.41-3.27-.75-8.62-13.36-1.62-13.41 3.27zM289.73 765.89c-.1 8.63 14 3.56 13.41-3.27-.75-8.62-13.36-1.62-13.41 3.27zM11.73 625.89c-.1 8.63 14 3.56 13.41-3.27-.75-8.62-13.36-1.62-13.41 3.27zM231.73 720.89c-.1 8.63 14 3.56 13.41-3.27-.75-8.62-13.36-1.62-13.41 3.27zM280.73 491.89c-.1 8.63 14 3.56 13.41-3.27-.75-8.62-13.36-1.62-13.41 3.27zM736.73 492.89c-.1 8.63 14 3.56 13.41-3.27-.75-8.62-13.36-1.62-13.41 3.27zM351.73 481.89c-.1 8.63 14 3.56 13.41-3.27-.75-8.62-13.36-1.62-13.41 3.27zM730.73 737.89c-.1 8.63 14 3.56 13.41-3.27-.75-8.62-13.36-1.62-13.41 3.27zM344.73 678.89c-.1 8.63 14 3.56 13.41-3.27-.75-8.62-13.36-1.62-13.41 3.27zM643.73 582.89c-.1 8.63 14 3.56 13.41-3.27-.75-8.62-13.36-1.62-13.41 3.27zM501.33 937c7.45 4.36 10-10.4 3.8-13.27-7.87-3.61-8.02 10.83-3.8 13.27zM415.33 289c7.45 4.36 10-10.4 3.8-13.27-7.87-3.61-8.02 10.83-3.8 13.27zM947.33 355c7.45 4.36 10-10.4 3.8-13.27-7.87-3.61-8.02 10.83-3.8 13.27zM562 822.9c8-1.46-5.78-20.86-10.46-14.47-2.94 3.96 3.83 16.92 10.46 14.47zM283 929.9c8-1.46-5.78-20.86-10.46-14.47-2.94 3.96 3.83 16.92 10.46 14.47zM225 784.9c8.05-1.46-5.78-20.86-10.46-14.47-2.94 3.96 3.83 16.92 10.46 14.47zM327 886.9c8-1.46-5.78-20.86-10.46-14.47-2.94 3.96 3.83 16.92 10.46 14.47zM669 402.9c8-1.46-5.78-20.86-10.46-14.47-2.94 3.96 3.83 16.92 10.46 14.47zM803 448.9c8-1.46-5.78-20.86-10.46-14.47-2.94 3.96 3.83 16.92 10.46 14.47zM409 540.9c8-1.46-5.78-20.86-10.46-14.47-2.94 3.96 3.83 16.92 10.46 14.47zM617 379.9c8-1.46-5.78-20.86-10.46-14.47-2.94 3.96 3.83 16.92 10.46 14.47zM806 791.9c8-1.46-5.78-20.86-10.46-14.47-2.94 3.96 3.83 16.92 10.46 14.47zM931 1056.9c8-1.46-5.78-20.86-10.46-14.47-2.94 3.96 3.83 16.92 10.46 14.47zM178 290.9c8.05-1.46-5.78-20.86-10.46-14.47-2.94 3.96 3.83 16.92 10.46 14.47zM677 660.9c8-1.46-5.78-20.86-10.46-14.47-2.94 3.96 3.83 16.92 10.46 14.47zM9 741.9c8-1.46-5.8-20.9-10.48-14.47C-4.4 731.39 2.37 744.35 9 741.9zM493 318.9c8-1.46-5.78-20.86-10.46-14.47-2.94 3.96 3.83 16.92 10.46 14.47zM203 854.9c8.05-1.46-5.78-20.86-10.46-14.47-2.94 3.96 3.83 16.92 10.46 14.47zM232 593.9c8.05-1.46-5.78-20.86-10.46-14.47-2.94 3.96 3.83 16.92 10.46 14.47zM693 525.9c8-1.46-5.78-20.86-10.46-14.47-2.94 3.96 3.83 16.92 10.46 14.47zM486 425.9c8-1.46-5.78-20.86-10.46-14.47-2.94 3.96 3.83 16.92 10.46 14.47zM727 580.9c8-1.46-5.78-20.86-10.46-14.47-2.94 3.96 3.83 16.92 10.46 14.47zM813 594.9c8-1.46-5.78-20.86-10.46-14.47-2.94 3.96 3.83 16.92 10.46 14.47zM1147 869.9c8-1.46-5.78-20.86-10.46-14.47-2.94 3.96 3.83 16.92 10.46 14.47zM1486 1064.9c8-1.46-5.78-20.86-10.46-14.47-2.94 3.96 3.83 16.92 10.46 14.47zM644 795.9c8-1.46-5.78-20.86-10.46-14.47-2.94 3.96 3.83 16.92 10.46 14.47zM324 992.9c8-1.46-5.78-20.86-10.46-14.47-2.94 3.96 3.83 16.92 10.46 14.47zM491.73 1031.72c-8.19 0 1.89 21.56 7.66 16.13 3.61-3.37-.73-17.34-7.66-16.13zM563.67 1046.66c7.49-3.31-10.5-18.92-13.56-11.62-1.9 4.54 7.72 15.55 13.56 11.62zM339.67 1040.66c7.49-3.31-10.5-18.92-13.56-11.62-1.9 4.54 7.72 15.55 13.56 11.62zM650.64 1002.3c-.92-8.13-21.19 4.38-15.13 9.48 3.76 3.22 17.14-2.73 15.13-9.48zM1214.64 803.3c-.92-8.13-21.19 4.38-15.13 9.48 3.76 3.22 17.14-2.73 15.13-9.48zM1889.64 286.3c-.92-8.13-21.19 4.38-15.13 9.48 3.76 3.22 17.14-2.73 15.13-9.48zM1727.64 671.3c-.92-8.13-21.19 4.38-15.13 9.48 3.76 3.22 17.14-2.73 15.13-9.48zM854.64 26.3c-.92-8.13-21.19 4.38-15.13 9.48 3.76 3.22 17.14-2.73 15.13-9.48zM588.64 130.3c-.92-8.13-21.19 4.38-15.13 9.48 3.76 3.22 17.14-2.73 15.13-9.48zM730.64 803.3c-.92-8.13-21.19 4.38-15.13 9.48 3.76 3.22 17.14-2.73 15.13-9.48zM19.64 830.3c-.92-8.13-21.19 4.38-15.13 9.48 3.76 3.22 17.14-2.73 15.13-9.48zM527.64 174.3c-.92-8.13-21.19 4.38-15.13 9.48 3.76 3.22 17.14-2.73 15.13-9.48zM1131.64 780.3c-.92-8.13-21.19 4.38-15.13 9.48 3.76 3.22 17.14-2.73 15.13-9.48zM1487.64 258.3c-.92-8.13-21.19 4.38-15.13 9.48 3.76 3.22 17.14-2.73 15.13-9.48zM1283.64 109.3c-.92-8.13-21.19 4.38-15.13 9.48 3.76 3.22 17.14-2.73 15.13-9.48zM1101.64 640.3c-.92-8.13-21.19 4.38-15.13 9.48 3.76 3.22 17.14-2.73 15.13-9.48zM1763.64 6.3c-.92-8.13-21.19 4.38-15.13 9.48 3.76 3.22 17.14-2.73 15.13-9.48zM1174.64 470.3c-.92-8.13-21.19 4.38-15.13 9.48 3.76 3.22 17.14-2.73 15.13-9.48zM945.64 484.3c-.92-8.13-21.19 4.38-15.13 9.48 3.76 3.22 17.14-2.73 15.13-9.48zM1348.64 204.3c-.92-8.13-21.19 4.38-15.13 9.48 3.76 3.22 17.14-2.73 15.13-9.48zM206.64 517.3c-.92-8.13-21.19 4.38-15.13 9.48 3.76 3.22 17.14-2.73 15.13-9.48zM269.64 32.3c-.92-8.13-21.19 4.38-15.13 9.48 3.76 3.22 17.14-2.73 15.13-9.48zM990.64 383.3c-.92-8.13-21.19 4.38-15.13 9.48 3.76 3.22 17.14-2.73 15.13-9.48zM730.64 1052.3c-.92-8.13-21.19 4.38-15.13 9.48 3.76 3.22 17.14-2.73 15.13-9.48zM198.31 1008.25c-7.82-2.42-4.48 21.17 2.62 17.66 4.41-2.17 4.37-16.8-2.62-17.66zM127.31 321.25c-7.82-2.42-4.48 21.17 2.62 17.66 4.41-2.17 4.37-16.8-2.62-17.66zM846.64 1048.3c-.92-8.13-21.19 4.38-15.13 9.48 3.76 3.22 17.14-2.73 15.13-9.48zM565.64 888.3c-.92-8.13-21.19 4.38-15.13 9.48 3.76 3.22 17.14-2.73 15.13-9.48zM1295.49 663.38c6.39-.1 14.76 11.86 11.53 17-6.96 11.15-27.49-16.74-11.53-17zM1614.49 686.38c6.39-.1 14.76 11.86 11.53 17-6.96 11.15-27.49-16.74-11.53-17zM886.49 89.38c6.39-.1 14.76 11.86 11.53 17-6.96 11.15-27.49-16.74-11.53-17zM1852.49 493.38c6.39-.1 14.76 11.86 11.53 17-6.96 11.15-27.49-16.74-11.53-17zM1917.49 646.38c6.39-.1 14.76 11.86 11.53 17-6.96 11.15-27.49-16.74-11.53-17zM1711.49 504.38c6.39-.1 14.76 11.86 11.53 17-6.96 11.15-27.49-16.74-11.53-17zM1675.49 290.38c6.39-.1 14.76 11.86 11.53 17-6.96 11.15-27.49-16.74-11.53-17zM1591.49 318.38c6.39-.1 14.76 11.86 11.53 17-6.96 11.15-27.49-16.74-11.53-17zM1143.49 4.38c6.39-.1 14.76 11.86 11.53 17-6.96 11.15-27.49-16.74-11.53-17zM1663.49 376.38c6.39-.1 14.76 11.86 11.53 17-6.96 11.15-27.49-16.74-11.53-17zM1363.49 622.38c6.39-.1 14.76 11.86 11.53 17-6.96 11.15-27.49-16.74-11.53-17zM61.49 564.38c6.39-.1 14.76 11.86 11.53 17-6.96 11.15-27.49-16.74-11.53-17zM1225.73 1008.22c4.4 4.63 1.27 18.89-4.7 20-12.9 2.44-6.31-31.55 4.7-20zM1646.73 822.22c4.4 4.63 1.27 18.89-4.7 20-12.9 2.44-6.31-31.55 4.7-20zM1778.73 613.22c4.4 4.63 1.27 18.89-4.7 20-12.9 2.44-6.31-31.55 4.7-20zM1674.73 105.22c4.4 4.63 1.27 18.89-4.7 20-12.9 2.44-6.31-31.55 4.7-20zM1615.7 633c-2.79 3.64-16.85.77-20.61-7.88-5.4-12.45 27.11-.64 20.61 7.88zM202.7 360c-2.79 3.64-16.85.77-20.61-7.88-5.4-12.45 27.11-.64 20.61 7.88zM262.7 387c-2.79 3.64-16.85.77-20.61-7.88-5.4-12.45 27.11-.64 20.61 7.88zM1552.7 674c-2.79 3.64-16.85.77-20.61-7.88-5.4-12.45 27.11-.64 20.61 7.88zM1415.7 342c-2.79 3.64-16.85.77-20.61-7.88-5.4-12.45 27.11-.64 20.61 7.88zM1327.7 70c-2.79 3.64-16.85.77-20.61-7.88-5.4-12.45 27.11-.64 20.61 7.88zM1500.7 466c-2.79 3.64-16.85.77-20.61-7.88-5.4-12.45 27.11-.64 20.61 7.88zM1176.7 91c-2.79 3.64-16.85.77-20.61-7.88-5.4-12.45 27.11-.64 20.61 7.88zM1299.7 1074c-2.79 3.64-16.85.77-20.61-7.88-5.4-12.45 27.11-.64 20.61 7.88zM1889 955.59c-4.57.38-11.89-12-8-20.55 5.57-12.35 18.69 19.65 8 20.55zM1836.7 998c-2.79 3.64-16.85.77-20.61-7.88-5.4-12.45 27.11-.64 20.61 7.88zM1713.7 943c-2.79 3.64-16.85.77-20.61-7.88-5.4-12.45 27.11-.64 20.61 7.88zM1865.7 633c-2.79 3.64-16.85.77-20.61-7.88-5.4-12.45 27.11-.64 20.61 7.88zM1415.7 223c-2.79 3.64-16.85.77-20.61-7.88-5.4-12.45 27.11-.64 20.61 7.88zM150.7 494c-2.79 3.64-16.85.77-20.61-7.88-5.4-12.45 27.11-.64 20.61 7.88zM206.7 28c-2.79 3.64-16.85.77-20.61-7.88-5.4-12.45 27.11-.64 20.61 7.88zM1804.7 419c-2.79 3.64-16.85.77-20.61-7.88-5.4-12.45 27.11-.64 20.61 7.88zM1524.26 412.73c-4.59.08-11.08-12.72-6.65-21 6.39-11.99 17.39 20.81 6.65 21zM738.26 179.73c-4.59.08-11.08-12.72-6.65-21 6.39-11.99 17.39 20.81 6.65 21zM315.26 274.73c-4.59.08-11.08-12.72-6.65-21 6.39-11.99 17.39 20.81 6.65 21zM1481.09 829.85c-4.52-.76-8.55-14.54-2.66-21.9 8.47-10.58 13.21 23.68 2.66 21.9zM1846.09 1062.85c-4.52-.76-8.55-14.54-2.66-21.9 8.47-10.58 13.21 23.68 2.66 21.9zM1520.09 873.85c-4.52-.76-8.55-14.54-2.66-21.9 8.47-10.58 13.21 23.68 2.66 21.9zM1672.09 650.85c-4.52-.76-8.55-14.54-2.66-21.9 8.47-10.58 13.21 23.68 2.66 21.9zM963.09 197.85c-4.52-.76-8.55-14.54-2.66-21.9 8.47-10.58 13.21 23.68 2.66 21.9zM453.09 26.85c-4.52-.76-8.55-14.54-2.66-21.9 8.47-10.58 13.21 23.68 2.66 21.9zM1000.09 280.85c-4.52-.76-8.55-14.54-2.66-21.9 8.47-10.58 13.21 23.68 2.66 21.9zM1324.93 739.72c9-3.11 16.7 10.78 12.18 14.39-5.03 4.01-25.9-9.61-12.18-14.39zM452.93 138.72c8.95-3.11 16.7 10.78 12.18 14.39-5.03 4.01-25.9-9.61-12.18-14.39zM871.93 178.72c9-3.11 16.7 10.78 12.18 14.39-5.03 4.01-25.9-9.61-12.18-14.39zM1157.93 1048.72c9-3.11 16.7 10.78 12.18 14.39-5.03 4.01-25.9-9.61-12.18-14.39zM1546.93 734.72c9-3.11 16.7 10.78 12.18 14.39-5.03 4.01-25.9-9.61-12.18-14.39zM251.93 300.72c8.95-3.11 16.7 10.78 12.18 14.39-5.03 4.01-25.9-9.61-12.18-14.39zM1035.93 159.72c9-3.11 16.7 10.78 12.18 14.39-5.03 4.01-25.9-9.61-12.18-14.39zM373.93 6.72c8.95-3.11 16.7 10.78 12.18 14.39-5.03 4.01-25.9-9.61-12.18-14.39zM1126.93 165.72c9-3.11 16.7 10.78 12.18 14.39-5.03 4.01-25.9-9.61-12.18-14.39zM1441.93 965.72c9-3.11 16.7 10.78 12.18 14.39-5.03 4.01-25.9-9.61-12.18-14.39zM1902.93 1011.72c9-3.11 16.7 10.78 12.18 14.39-5.03 4.01-25.9-9.61-12.18-14.39zM1361.93 967.72c9-3.11 16.7 10.78 12.18 14.39-5.03 4.01-25.9-9.61-12.18-14.39zM1515.93 989.72c9-3.11 16.7 10.78 12.18 14.39-5.03 4.01-25.9-9.61-12.18-14.39zM1194 900.52c5.77 7.52-5 19.24-9.83 16.08-5.44-3.5.92-27.6 9.83-16.08zM1279 453.52c5.77 7.52-5 19.24-9.83 16.08-5.44-3.5.92-27.6 9.83-16.08zM1664 31.52c5.77 7.52-5 19.24-9.83 16.08-5.44-3.5.92-27.6 9.83-16.08zM1366 406.52c5.77 7.52-5 19.24-9.83 16.08-5.44-3.5.92-27.6 9.83-16.08zM1240.93 943.72c9-3.11 16.7 10.78 12.18 14.39-5.03 4.01-25.9-9.61-12.18-14.39zM1450.93 662.66c.19 7.77-15.07 2.78-16.83-3.34-1.83-6.32 16.66-3.16 16.83 3.34zM1573.93 818.66c.19 7.77-15.07 2.78-16.83-3.34-1.83-6.32 16.66-3.16 16.83 3.34zM1820.93 267.66c.19 7.77-15.07 2.78-16.83-3.34-1.83-6.32 16.66-3.16 16.83 3.34zM1383.35 699.48c11 12.63-13.59 10-10.63-.86a5.28 5.28 0 013.94-3.81c2.34-.34 4.22 1.82 6.69 4.67zM1438.54 785.89c.1 8.63-14 3.56-13.42-3.27.75-8.62 13.36-1.62 13.42 3.27zM103.54 267.89c.1 8.63-14 3.56-13.42-3.27.75-8.62 13.36-1.62 13.42 3.27zM1081.54 241.89c.1 8.63-14 3.56-13.42-3.27.75-8.62 13.36-1.62 13.42 3.27zM209.54 442.89c.1 8.63-14 3.56-13.42-3.27.75-8.62 13.36-1.62 13.42 3.27zM23.54 28.89c.1 8.63-14 3.56-13.42-3.27.75-8.62 13.36-1.62 13.42 3.27zM1623.54 765.89c.1 8.63-14 3.56-13.42-3.27.75-8.62 13.36-1.62 13.42 3.27zM1681.54 720.89c.1 8.63-14 3.56-13.42-3.27.75-8.62 13.36-1.62 13.42 3.27zM1788.54 492.89c.1 8.63-14 3.56-13.42-3.27.75-8.62 13.36-1.62 13.42 3.27zM1616.54 423.89c.1 8.63-14 3.56-13.42-3.27.75-8.62 13.36-1.62 13.42 3.27zM671.54 143.89c.1 8.63-14 3.56-13.42-3.27.75-8.62 13.36-1.62 13.42 3.27zM143.54 125.89c.1 8.63-14 3.56-13.42-3.27.75-8.62 13.36-1.62 13.42 3.27zM1582.54 93.89c.1 8.63-14 3.56-13.42-3.27.75-8.62 13.36-1.62 13.42 3.27zM1788.54 323.89c.1 8.63-14 3.56-13.42-3.27.75-8.62 13.36-1.62 13.42 3.27zM1504.54 625.89c.1 8.63-14 3.56-13.42-3.27.75-8.62 13.36-1.62 13.42 3.27zM1449.54 524.89c.1 8.63-14 3.56-13.42-3.27.75-8.62 13.36-1.62 13.42 3.27zM147.54 408.89c.1 8.63-14 3.56-13.42-3.27.75-8.62 13.36-1.62 13.42 3.27zM1431.54 579.89c.1 8.63-14 3.56-13.42-3.27.75-8.62 13.36-1.62 13.42 3.27zM1297.93 1010c-7.44 4.36-10-10.4-3.79-13.27 7.86-3.61 8.01 10.83 3.79 13.27zM1228.29 862.9c-8-1.46 5.77-20.86 10.46-14.47 2.91 3.96-3.86 16.92-10.46 14.47zM1492.29 941.9c-8-1.46 5.77-20.86 10.46-14.47 2.91 3.96-3.86 16.92-10.46 14.47zM1630.29 929.9c-8-1.46 5.77-20.86 10.46-14.47 2.91 3.96-3.86 16.92-10.46 14.47zM1688.29 784.9c-8-1.46 5.77-20.86 10.46-14.47 2.91 3.96-3.86 16.92-10.46 14.47zM1809.29 571.9c-8-1.46 5.77-20.86 10.46-14.47 2.91 3.96-3.86 16.92-10.46 14.47zM1613.29 189.9c-8-1.46 5.77-20.86 10.46-14.47 2.91 3.96-3.86 16.92-10.46 14.47zM1736.29 270.9c-8-1.46 5.77-20.86 10.46-14.47 2.91 3.96-3.86 16.92-10.46 14.47zM1903.29 124.9c-8-1.46 5.77-20.86 10.46-14.47 2.91 3.96-3.86 16.92-10.46 14.47zM1555.29 913.9c-8-1.46 5.77-20.86 10.46-14.47 2.91 3.96-3.86 16.92-10.46 14.47zM1221.29 1083.9c-8-1.46 5.77-20.86 10.46-14.47 2.91 3.96-3.86 16.92-10.46 14.47zM1359.29 498.9c-8-1.46 5.77-20.86 10.46-14.47 2.91 3.96-3.86 16.92-10.46 14.47zM1376.29 13.9c-8-1.46 5.77-20.86 10.46-14.47 2.91 3.96-3.86 16.92-10.46 14.47zM1296.29 379.9c-8-1.46 5.77-20.86 10.46-14.47 2.91 3.96-3.86 16.92-10.46 14.47zM801.29 138.9c-8-1.46 5.77-20.86 10.46-14.47 2.91 3.96-3.86 16.92-10.46 14.47zM510.29 102.9c-8.05-1.46 5.77-20.86 10.46-14.47 2.91 3.96-3.86 16.92-10.46 14.47zM1710.29 854.9c-8-1.46 5.77-20.86 10.46-14.47 2.91 3.96-3.86 16.92-10.46 14.47zM1720.29 579.9c-8-1.46 5.77-20.86 10.46-14.47 2.91 3.96-3.86 16.92-10.46 14.47zM1668.29 228.9c-8-1.46 5.77-20.86 10.46-14.47 2.91 3.96-3.86 16.92-10.46 14.47zM1723.29 387.9c-8-1.46 5.77-20.86 10.46-14.47 2.91 3.96-3.86 16.92-10.46 14.47zM1427.29 425.9c-8-1.46 5.77-20.86 10.46-14.47 2.91 3.96-3.86 16.92-10.46 14.47zM1216.29 411.9c-8-1.46 5.77-20.86 10.46-14.47 2.91 3.96-3.86 16.92-10.46 14.47zM146.29 579.9c-8-1.46 5.77-20.86 10.46-14.47 2.91 3.96-3.86 16.92-10.46 14.47zM1269.29 795.9c-8-1.46 5.77-20.86 10.46-14.47 2.91 3.96-3.86 16.92-10.46 14.47zM1097.29 121.9c-8-1.46 5.77-20.86 10.46-14.47 2.91 3.96-3.86 16.92-10.46 14.47zM1471.29 363.9c-8-1.46 5.77-20.86 10.46-14.47 2.91 3.96-3.86 16.92-10.46 14.47zM766.29 71.9c-8-1.46 5.77-20.86 10.46-14.47 2.91 3.96-3.86 16.92-10.46 14.47zM1478.29 155.9c-8-1.46 5.77-20.86 10.46-14.47 2.91 3.96-3.86 16.92-10.46 14.47zM204.29 102.9c-8-1.46 5.77-20.86 10.46-14.47 2.91 3.96-3.86 16.92-10.46 14.47zM1784.29 951.9c-8-1.46 5.77-20.86 10.46-14.47 2.91 3.96-3.86 16.92-10.46 14.47zM1428.54 1018.72c8.18 0-1.9 21.56-7.66 16.13-3.58-3.37.72-17.34 7.66-16.13zM1357.59 1057.66c-7.49-3.31 10.51-18.92 13.57-11.62 1.9 4.54-7.73 15.55-13.57 11.62zM1775.59 1051.66c-7.49-3.31 10.51-18.92 13.57-11.62 1.9 4.54-7.73 15.55-13.57 11.62zM1756 983.25c7.82-2.42 4.49 21.17-2.61 17.66-4.46-2.17-4.39-16.8 2.61-17.66zM1167.63 965.3c.92-8.13 21.19 4.38 15.13 9.48-3.76 3.22-17.15-2.73-15.13-9.48zM723.64 424.3c-.92-8.13-21.19 4.38-15.13 9.48 3.76 3.22 17.14-2.73 15.13-9.48zM201.64 169.3c-.92-8.13-21.19 4.38-15.13 9.48 3.76 3.22 17.14-2.73 15.13-9.48zM551.64 341.3c-.92-8.13-21.19 4.38-15.13 9.48 3.76 3.22 17.14-2.73 15.13-9.48z"/></g></svg>