<svg xmlns="http://www.w3.org/2000/svg" width="1920" height="1080" viewBox="0 0 1920 1080"><defs/><defs><style>.cls-2,.cls-4,.cls-8,.cls-9{fill:#fff}.cls-2{opacity:.1}.cls-3,.cls-9{opacity:.64}.cls-5,.cls-8{opacity:.52}.cls-6{fill:none}</style></defs><g id="Layer_2_copy" data-name="Layer 2 copy"><path d="M-11 709s298 72 498-71 424-144 638-10c289.94 181.55 602-25 807-232s110 797 110 797l-2099-30z" opacity=".08" fill="#fff"/><path class="cls-2" d="M1696 693.23c-235 61.77-203.82-270.42-504-296.44-261.68-22.67-458.18 303.85-615.09 342.92-152.79 38-330.82-207.84-576.91-99V1091h1940V691c-62.27-21.75-143-24.34-244 2.23z"/><g class="cls-3"><path class="cls-4" d="M1954.77 985.14H-43.37v-2.81h1994.88v-18.77h-2066v-17.91h2127.23v-16.6H-161v-2.81h2177v22.22H-111.24v12.3h2066.01v24.38zM478.07 911.23c-.41-3.53-42.29-353.65-169.9-452.75-26.75-20.77-55.73-29.2-86.15-25.07-41.72 5.66-79.79 34.15-113.17 84.67C82 558.74 58.12 613.63 37.91 681.22 3.47 796.46-8.5 910.07-8.62 911.2l-4-.41c.08-1.14 12.09-115.13 46.62-230.73 20.32-68 44.36-123.23 71.44-164.22 34.05-51.54 73.09-80.63 116-86.46 31.55-4.28 61.54 4.43 89.18 25.9 67.48 52.4 110.51 173.54 134.72 265.94a1548.07 1548.07 0 0136.76 189.54z"/><path class="cls-4" d="M27.48 911.14l-4.05-.29c.09-1.14 8.63-114.68 37.54-228.47 17-66.92 37.61-120.86 61.27-160.33 29.81-49.71 64.62-76.56 103.46-79.81 27.55-2.29 53.36 6.69 76.74 26.73 60.1 51.52 95 169 113.72 258.49a1543.09 1543.09 0 0126.47 183.39l-4.05.29c-.24-3.41-25.25-341.77-138.78-439.08-22.53-19.31-47.33-28-73.76-25.77-85.22 7.13-134.67 132.87-161.14 237.09C36.09 796.83 27.57 910 27.48 911.14z"/><path class="cls-4" d="M189.94 911h-4.06v-25.61H88.41V911h-4.06v-29.67h105.59V911z"/><path class="cls-4" d="M135.45 873.2l-17.77 10.16h34.13l-16.36-10.16zM102.81 874.17l-16.08 9.19h30.88l-14.8-9.19zM171.34 874.17l-16.08 9.19h30.89l-14.81-9.19zM110.12 874.17h-4.06V852h26.43v4.06h-22.37v18.11z"/><path class="cls-4" d="M144.93 873.2h-4.06V854c0-15-7.31-18.9-7.62-19.06l-1.1-.56v-4.86h-3.45v-10.28l-1.85-3.76-1.85 3.76v10.31h-3.45v4.88l-1.15.56c-.29.14-7.59 4-7.59 19h-4.06c0-14.24 6.12-20.13 8.74-22v-6.56h3.45v-7.13l5.91-12 5.91 12v7.18h3.46V832c2.61 1.86 8.74 7.75 8.74 22z"/><path class="cls-4" d="M126.82 788.5l2.4 23.84h-4.8l2.4-23.84zM655.92 679.71l4.11 50.16h-8.21l4.1-50.16zM77.88 911h-4.06v-87.96l10.97-5.27h30.92v4.07h-30l-7.83 3.76V911z"/><path class="cls-4" d="M83.22 819.81h4.06v50.95h-4.06zM67.54 911h-4.06v-38.21h-6.21V761.3H46.2v-4.07h15.13v111.5h6.21V911zM3.8 788.03H-.26v-30.8h15.71v4.07H3.8v26.73zM227.17 865.4h-4.07v-21.33h-7.52v-6.91h-68.81V718.69h60.47v106.95h-4.06V722.75h-52.35V833.1h68.82v6.91h7.52v25.39z"/><path class="cls-4" d="M157.29 874.17h-4.06v-19.35h60.02v9.28h-4.06v-5.22h-51.9v15.29z"/><path class="cls-4" d="M185.28 876.02h-4.07v-7.29h51.82v4.06h-47.75v3.23zM139.17 814.73h-4.06v-21.58h3.76v-14.29h9.93v4.06h-5.86v14.29h-3.77v17.52zM198.96 720.72h-4.06v-8.5h-35.42v8.5h-4.06v-12.56h43.54v12.56z"/><path class="cls-4" d="M192.57 710.19h-4.06v-7.74h-20.76v7.74h-4.06v-11.81h28.88v11.81zM261.62 911h-4.06v-10.58l-5.44-5.44h-24.95V911h-4.07v-20.09h30.7l7.82 7.82V911zM239.95 886.55h-4.06v-94.16h20.49l24.82-8.65h38.47v7.29h17.75v-13.68h22.49v10.68h-4.07v-6.62h-14.36v13.68h-25.87v-7.28h-33.73l-24.81 8.65h-17.12v90.09z"/><path class="cls-4" d="M410.67 911h-4.06V790.06H379.2l-26.81 7.06v62.73h-4.07v-65.86l30.62-7.99h31.73v125zM365.4 778.86h49.26v4.06H365.4zM249.59 795.16l-3.78-1.47 5.76-14.83h19.29v-11.39l24.58-9.67h55.44v15.19h-4.06v-11.13h-50.61l-21.29 8.38v12.68h-20.57l-4.76 12.24zM332.08 753.44h-4.06v-93.33l8.25-17.75h4.97l5.08-5.08h26.88l8.93-8.93h7.01v4.06h-5.32l-8.93 8.93H348l-5.08 5.08h-4.05L332.08 661v92.44zM447.15 695.9h-4.07v-36.87l-5.4-14.74h-18.13v-4.06h20.97l6.63 18.09v37.58z"/><path class="cls-4" d="M382.54 639.12h4.06v131.99h-4.06zM515.96 911h-4.06V759.61h-52.87v-4.07h56.93V911z"/><path class="cls-4" d="M504.31 757.57h-4.07v-8.49h-18.12v3.01h-13.69v-4.07h9.63v-3.01h26.25v12.56zM559.21 802.7h-4.07v-9.63h-13.16v-4.89h-7.97v9.78h-20.08v-4.06h16.02v-9.78h16.09v4.89h13.17v13.69z"/><path class="cls-4" d="M564.1 852.71h-4.07v-46.1h-37.45v-4.07h41.52v50.17zM520.32 857.07h12.41v4.06h-12.41z"/><path class="cls-4" d="M534.39 911h-4.06v-63.52h15.71v24.78h-4.06v-20.71h-7.59V911zM639.3 911h-4.06v-81.45h-49.71v31.58h-35.88v-4.06h31.82v-31.59h57.83V911z"/><path class="cls-4" d="M571.62 852.71h-4.07v-21.77h15.95V835h-11.88v17.71zM575.75 827.52h-4.06v-99.05h90.93v17.82h-4.07v-13.76h-82.8v94.99z"/><path class="cls-4" d="M648.33 730.5h-4.06v-6.62h-54.98v6.62h-4.06v-10.68h63.1v10.68zM595.5 818.11h-4.07v-46.77h18.77v4.06h-14.7v42.71z"/><path class="cls-4" d="M603.86 773.37h-4.06v-11.08l6.97-12.01h72.99v4.06h-70.65l-5.25 9.04v9.99z"/><path class="cls-4" d="M721.66 911h-4.07V764.87h-66.63V911h-4.06V760.8h74.76V911z"/><path class="cls-4" d="M690.82 762.84h-4.06v-19.33h24.37v10.15h6.24v4.07h-10.31v-10.16h-16.24v15.27zM801 911h-4.06v-52.87H727.9v-4.07H801V911z"/><path class="cls-4" d="M783.7 856.1h-4.06v-7H727.9v-4.06h55.8v11.06zM774.3 839.55h-4.06v-53.93h28.73v4.07H774.3v49.86z"/><path class="cls-4" d="M875.45 911h-4.06V771.26H801v75.81h-4.06V767.2h78.51V911z"/><path class="cls-4" d="M864.93 769.23h-4.07v-7.37h-48.58v7.37h-4.06V757.8h56.71v11.43zM889.37 911h-4.07v-52.87h-11.88v-4.07h15.95V911zM899.52 911h-4.06v-45.28h83.63v4.06h-79.57V911zM899.52 861.36h-4.06v-18.2h80.62v4.06h-76.56v14.14zM1042.79 911h-4.06v-78.88l-5.27-5.27v-2.94h-43.13v5.39l-3.94 3.95V911h-4.07v-79.44l3.95-3.94v-7.78h51.26v5.33l5.26 5.26V911zM940.36 834.89h32.72v4.06h-32.72zM721.63 825.55l-4-.58c.08-.6 2.23-14.78 13.5-15.65h41.15v4.07h-41c-7.86.61-9.63 12.04-9.65 12.16z"/><path class="cls-4" d="M731.28 819.84h40.99v4.06h-40.99zM731.28 832.25h32.15v4.06h-32.15zM843.94 769.23H848V911h-4.06zM599.82 911h-4.06v-31.82h-24.07v-6.01h-7.59v5.64h-19.75V911h-4.06v-36.25h19.74v-5.65h15.72v6.02h24.07V911zM375.13 788.5h4.06v108.68h-4.06zM257.63 886.55h-4.07v-15.38H365.4v4.07H257.63v11.31z"/><path class="cls-4" d="M321.02 863.37h56.13v4.06h-56.13zM279.51 785.78h4.06v73.33h-4.06zM293.8 759.83h4.06v17.3h-4.06zM49.01 775.42H59.3v4.06H49.01zM49.01 784.87H59.3v4.06H49.01zM49.01 794.32H59.3v4.06H49.01zM49.01 803.77H59.3v4.06H49.01zM46.2 813.22h13.1v4.06H46.2zM46.2 822.66h13.1v4.06H46.2zM46.2 832.11h13.1v4.06H46.2zM40.97 841.56H59.3v4.06H40.97zM40.97 851.01H59.3v4.06H40.97zM40.97 860.46H59.3v4.06H40.97zM34.63 879.35h30.18v4.06H34.63zM34.63 888.8h30.18v4.06H34.63zM34.63 898.25h30.18v4.06H34.63zM85.25 828.02h25.5v4.06h-25.5zM85.25 836.86h21.62v4.06H85.25zM85.25 845.7h19.18v4.06H85.25zM85.25 854.53h13.73v4.06H85.25zM85.25 863.37h13.73v4.06H85.25zM117.59 888.43h4.06v22.56h-4.06zM125.95 888.43h4.06v22.56h-4.06zM97.85 888.43h2.26v5.08h-2.26zM106.2 888.43h2.26v5.08h-2.26zM97.85 899.72h2.26v5.08h-2.26zM106.2 899.72h2.26v5.08h-2.26zM165.4 888.43h2.26v5.08h-2.26zM173.76 888.43h2.26v5.08h-2.26zM165.4 899.72h2.26v5.08h-2.26zM173.76 899.72h2.26v5.08h-2.26zM134.3 888.43h4.06v22.56h-4.06zM142.66 888.43h4.06v22.56h-4.06zM151.02 888.43h4.06v22.56h-4.06zM161.77 862.49h3.02v3.02h-3.02zM147.59 845h3.02v3.02h-3.02zM147.59 852.52h3.02v3.02h-3.02zM147.59 860.04h3.02v3.02h-3.02zM147.59 867.56h3.02v3.02h-3.02zM114.2 860.98h1.51v6.59h-1.51zM119.54 860.98h1.51v6.59h-1.51zM124.87 860.98h1.51v6.59h-1.51zM130.21 860.98h1.51v6.59h-1.51zM135.55 860.98h1.51v6.59h-1.51zM117.73 846.27h1.76v2.91h-1.76zM123.21 846.27h1.76v2.91h-1.76zM128.68 846.27h1.76v2.91h-1.76zM134.15 846.27h1.76v2.91h-1.76zM169.19 862.49h3.02v3.02h-3.02zM161.77 868.33h3.02v3.02h-3.02zM169.19 868.33h3.02v3.02h-3.02zM176.61 862.49h3.02v3.02h-3.02zM184.03 862.49h3.02v3.02h-3.02zM191.46 862.49h3.02v3.02h-3.02zM198.88 862.49h3.02v3.02h-3.02zM204.87 876.02h2.44v29.89h-2.44zM210.86 876.02h2.44v29.89h-2.44zM216.86 876.02h2.44v29.89h-2.44zM222.85 876.02h2.44v11.75h-2.44zM228.84 876.02h2.44v11.75h-2.44zM172.3 725.99h3.01V729h-3.01zM189.04 725.99h3.01V729h-3.01zM178.13 725.99h7.71V729h-7.71zM172.3 733.69h3.01v3.01h-3.01zM189.04 733.69h3.01v3.01h-3.01zM178.13 733.69h7.71v3.01h-7.71zM172.3 741.4h3.01v3.01h-3.01zM189.04 741.4h3.01v3.01h-3.01zM178.13 741.4h7.71v3.01h-7.71zM172.3 749.11h3.01v3.01h-3.01zM189.04 749.11h3.01v3.01h-3.01zM178.13 749.11h7.71v3.01h-7.71zM172.3 756.82h3.01v3.01h-3.01zM189.04 756.82h3.01v3.01h-3.01zM178.13 756.82h7.71v3.01h-7.71zM172.3 773.18h3.01v3.01h-3.01zM189.04 773.18h3.01v3.01h-3.01zM178.13 773.18h7.71v3.01h-7.71zM172.3 780.89h3.01v3.01h-3.01zM189.04 780.89h3.01v3.01h-3.01zM178.13 780.89h7.71v3.01h-7.71zM172.3 788.6h3.01v3.01h-3.01zM189.04 788.6h3.01v3.01h-3.01zM178.13 788.6h7.71v3.01h-7.71zM172.3 796.3h3.01v3.01h-3.01zM189.04 796.3h3.01v3.01h-3.01zM178.13 796.3h7.71v3.01h-7.71zM172.3 804.01h3.01v3.01h-3.01zM189.04 804.01h3.01v3.01h-3.01zM178.13 804.01h7.71v3.01h-7.71zM172.3 820.37h3.01v3.01h-3.01zM189.04 820.37h3.01v3.01h-3.01zM178.13 820.37h7.71v3.01h-7.71zM156.43 852.33h-2.25V841.8h-4.44v-2.25h6.69v12.78z"/><path class="cls-4" d="M155.3 845.38h54.26v2.26H155.3zM160.65 835.13h2.26v5.55h-2.26zM171.09 835.13h2.26v5.55h-2.26zM181.53 835.13h2.26v5.55h-2.26zM191.97 835.13h2.26v5.55h-2.26zM202.41 835.13h2.26v5.55h-2.26zM252.77 799.31h3.57v9.97h-3.57zM252.77 813.41h5.45v2.63h-5.45zM252.77 820.56h5.45v2.63h-5.45zM252.77 827.7h5.45v2.63h-5.45zM252.77 834.85h5.45v2.63h-5.45zM252.77 841.99h5.45v2.63h-5.45zM252.77 849.14h5.45v2.63h-5.45zM252.77 856.28h5.45v2.63h-5.45zM288.12 792.07h3.57v9.96h-3.57zM288.12 806.18h5.45v2.63h-5.45zM288.12 813.32h5.45v2.63h-5.45zM288.12 820.47h5.45v2.63h-5.45zM288.12 827.61h5.45v2.63h-5.45zM288.12 834.75h5.45v2.63h-5.45zM288.12 841.9h5.45v2.63h-5.45zM288.12 849.04h5.45v2.63h-5.45zM309.85 792.07h3.57v9.96h-3.57zM307.97 806.18h5.45v2.63h-5.45zM307.97 813.32h5.45v2.63h-5.45zM307.97 820.47h5.45v2.63h-5.45zM307.97 827.61h5.45v2.63h-5.45zM307.97 834.75h5.45v2.63h-5.45zM307.97 841.9h5.45v2.63h-5.45zM307.97 849.04h5.45v2.63h-5.45zM323.95 806.18h5.45v2.63h-5.45zM323.95 813.32h5.45v2.63h-5.45zM323.95 820.47h5.45v2.63h-5.45zM323.95 827.61h5.45v2.63h-5.45zM323.95 834.75h5.45v2.63h-5.45zM323.95 841.9h5.45v2.63h-5.45zM323.95 849.04h5.45v2.63h-5.45zM383.35 793.2h5.45v2.63h-5.45zM392.3 793.2h5.45v2.63h-5.45zM383.35 800.35h5.45v2.63h-5.45zM383.35 807.49h5.45v2.63h-5.45zM383.35 814.64h5.45v2.63h-5.45zM383.35 821.78h5.45v2.63h-5.45zM383.35 828.93h5.45v2.63h-5.45zM383.35 836.07h5.45v2.63h-5.45zM383.35 842.65h5.45v2.63h-5.45zM383.35 849.8h5.45v2.63h-5.45zM383.35 856.94h5.45v2.63h-5.45zM383.35 864.09h5.45v2.63h-5.45zM383.35 871.23h5.45v2.63h-5.45zM383.35 878.38h5.45v2.63h-5.45zM383.35 885.52h5.45v2.63h-5.45zM334.28 806.18h5.45v2.63h-5.45zM334.28 813.32h5.45v2.63h-5.45zM334.28 820.47h5.45v2.63h-5.45zM334.28 827.61h5.45v2.63h-5.45zM334.28 834.75h5.45v2.63h-5.45zM334.28 841.9h5.45v2.63h-5.45zM334.28 849.04h5.45v2.63h-5.45zM262.64 813.41h14.22v2.63h-14.22zM262.64 820.56h14.22v2.63h-14.22zM262.64 827.7h14.22v2.63h-14.22zM262.64 834.85h14.22v2.63h-14.22zM262.64 841.99h14.22v2.63h-14.22zM262.64 849.14h14.22v2.63h-14.22zM262.64 856.28h14.22v2.63h-14.22zM262.64 799.03h1.79V809h-1.79zM266.79 799.03h1.79V809h-1.79zM270.93 799.03h1.79V809h-1.79zM275.07 799.03h1.79V809h-1.79zM356.08 798.84h1.79v9.96h-1.79zM360.23 798.84h1.79v9.96h-1.79zM364.37 798.84h1.79v9.96h-1.79zM368.51 798.84h1.79v9.96h-1.79zM356.08 813.32h1.79v3.85h-1.79zM360.23 813.32h1.79v3.85h-1.79zM364.37 813.32h1.79v3.85h-1.79zM368.51 813.32h1.79v3.85h-1.79zM356.08 823.19h1.79v3.85h-1.79zM360.23 823.19h1.79v3.85h-1.79zM364.37 823.19h1.79v3.85h-1.79zM368.51 823.19h1.79v3.85h-1.79zM356.08 833.06h1.79v3.85h-1.79zM360.23 833.06h1.79v3.85h-1.79zM364.37 833.06h1.79v3.85h-1.79zM368.51 833.06h1.79v3.85h-1.79zM356.08 842.93h1.79v3.85h-1.79zM360.23 842.93h1.79v3.85h-1.79zM364.37 842.93h1.79v3.85h-1.79zM368.51 842.93h1.79v3.85h-1.79zM356.08 852.8h1.79v3.85h-1.79zM360.23 852.8h1.79v3.85h-1.79zM364.37 852.8h1.79v3.85h-1.79zM368.51 852.8h1.79v3.85h-1.79zM377.16 658.45h-22.31l-9.49-18.2 3.6-1.88 8.36 16.02h19.84v4.06zM339.96 658.67h4.06v94.2h-4.06zM355.84 665.44h4.06v87.99h-4.06zM365.18 665.44h4.06v105.67h-4.06zM374.51 665.44h4.06v105.67h-4.06zM399.84 711.32h4.06v59.79h-4.06zM478.06 757.57h4.06v102h-4.06zM486.48 767.73h3.01v7.52h-3.01zM486.48 782.39h3.01v7.52h-3.01zM486.48 797.06h3.01v7.52h-3.01zM486.48 811.72h3.01v7.52h-3.01zM486.48 826.39h3.01v7.52h-3.01zM486.48 841.05h3.01v7.52h-3.01zM486.48 855.72h3.01v7.52h-3.01zM486.48 870.38h3.01v7.52h-3.01zM486.48 885.05h3.01v7.52h-3.01zM493.25 767.73h3.01v7.52h-3.01zM493.25 782.39h3.01v7.52h-3.01zM493.25 797.06h3.01v7.52h-3.01zM493.25 811.72h3.01v7.52h-3.01zM493.25 826.39h3.01v7.52h-3.01zM493.25 841.05h3.01v7.52h-3.01zM493.25 855.72h3.01v7.52h-3.01zM493.25 870.38h3.01v7.52h-3.01zM493.25 885.05h3.01v7.52h-3.01zM500.02 767.73h3.01v7.52h-3.01zM500.02 782.39h3.01v7.52h-3.01zM500.02 797.06h3.01v7.52h-3.01zM500.02 811.72h3.01v7.52h-3.01zM523.52 813.04h3.01v3.93h-3.01zM523.52 820.69h3.01v3.92h-3.01zM523.52 828.35h3.01v3.93h-3.01zM523.52 836h3.01v3.93h-3.01zM530.29 813.04h3.01v3.93h-3.01zM530.29 820.69h3.01v3.92h-3.01zM530.29 828.35h3.01v3.93h-3.01zM530.29 836h3.01v3.93h-3.01zM537.06 813.04h3.01v3.93h-3.01zM537.06 820.69h3.01v3.92h-3.01zM537.06 828.35h3.01v3.93h-3.01zM537.06 836h3.01v3.93h-3.01zM694.05 771.18h3.01v5.64h-3.01zM694.05 782.17h3.01v5.64h-3.01zM694.05 793.17h3.01v5.64h-3.01zM694.05 804.16h3.01v5.64h-3.01zM700.82 771.18h3.01v5.64h-3.01zM700.82 782.17h3.01v5.64h-3.01zM700.82 793.17h3.01v5.64h-3.01zM700.82 804.16h3.01v5.64h-3.01zM707.59 771.18h3.01v5.64h-3.01zM707.59 782.17h3.01v5.64h-3.01zM707.59 793.17h3.01v5.64h-3.01zM904.26 850.38h3.01v3.73h-3.01zM904.26 857.65h3.01v3.73h-3.01zM911.03 850.38h3.01v3.73h-3.01zM911.03 857.65h3.01v3.73h-3.01zM917.8 850.38h3.01v3.73h-3.01zM917.8 857.65h3.01v3.73h-3.01zM930.02 850.38h3.01v3.73h-3.01zM930.02 857.65h3.01v3.73h-3.01zM936.79 850.38h3.01v3.73h-3.01zM936.79 857.65h3.01v3.73h-3.01zM943.55 850.38h3.01v3.73h-3.01zM943.55 857.65h3.01v3.73h-3.01zM955.78 850.38h3.01v3.73h-3.01zM955.78 857.65h3.01v3.73h-3.01zM962.54 850.38h3.01v3.73h-3.01zM962.54 857.65h3.01v3.73h-3.01zM969.31 850.38h3.01v3.73h-3.01zM969.31 857.65h3.01v3.73h-3.01zM904.26 873.84h3.01v3.73h-3.01zM911.03 873.84h3.01v3.73h-3.01zM917.8 873.84h3.01v3.73h-3.01zM930.02 873.84h3.01v3.73h-3.01zM936.79 873.84h3.01v3.73h-3.01zM943.55 873.84h3.01v3.73h-3.01zM955.78 873.84h3.01v3.73h-3.01zM962.54 873.84h3.01v3.73h-3.01zM969.31 873.84h3.01v3.73h-3.01zM904.26 884.73h3.01v3.73h-3.01zM911.03 884.73h3.01v3.73h-3.01zM917.8 884.73h3.01v3.73h-3.01zM930.02 884.73h3.01v3.73h-3.01zM936.79 884.73h3.01v3.73h-3.01zM943.55 884.73h3.01v3.73h-3.01zM955.78 884.73h3.01v3.73h-3.01zM962.54 884.73h3.01v3.73h-3.01zM969.31 884.73h3.01v3.73h-3.01zM904.26 895.61h3.01v3.73h-3.01zM911.03 895.61h3.01v3.73h-3.01zM917.8 895.61h3.01v3.73h-3.01zM930.02 895.61h3.01v3.73h-3.01zM936.79 895.61h3.01v3.73h-3.01zM943.55 895.61h3.01v3.73h-3.01zM955.78 895.61h3.01v3.73h-3.01zM962.54 895.61h3.01v3.73h-3.01zM969.31 895.61h3.01v3.73h-3.01zM904.26 906.49h3.01v3.73h-3.01zM911.03 906.49h3.01v3.73h-3.01zM917.8 906.49h3.01v3.73h-3.01zM930.02 906.49h3.01v3.73h-3.01zM936.79 906.49h3.01v3.73h-3.01zM943.55 906.49h3.01v3.73h-3.01zM955.78 906.49h3.01v3.73h-3.01zM962.54 906.49h3.01v3.73h-3.01zM969.31 906.49h3.01v3.73h-3.01zM991.88 835.87h3.01v3.73h-3.01zM991.88 843.13h3.01v3.73h-3.01zM998.64 835.87h3.01v3.73h-3.01zM998.64 843.13h3.01v3.73h-3.01zM1005.41 835.87h3.01v3.73h-3.01zM1005.41 843.13h3.01v3.73h-3.01zM991.88 852.15h3.01v3.73h-3.01zM991.88 859.42h3.01v3.73h-3.01zM998.64 852.15h3.01v3.73h-3.01zM998.64 859.42h3.01v3.73h-3.01zM1005.41 852.15h3.01v3.73h-3.01zM1005.41 859.42h3.01v3.73h-3.01zM991.88 868.44h3.01v3.73h-3.01zM991.88 875.7h3.01v3.73h-3.01zM998.64 868.44h3.01v3.73h-3.01zM998.64 875.7h3.01v3.73h-3.01zM1005.41 868.44h3.01v3.73h-3.01zM1005.41 875.7h3.01v3.73h-3.01zM991.88 884.73h3.01v3.73h-3.01zM991.88 891.99h3.01v3.73h-3.01zM998.64 884.73h3.01v3.73h-3.01zM998.64 891.99h3.01v3.73h-3.01zM1005.41 884.73h3.01v3.73h-3.01zM1005.41 891.99h3.01v3.73h-3.01zM707.59 804.16h3.01v5.64h-3.01zM694.05 817.64h3.01v5.64h-3.01zM694.05 828.64h3.01v5.64h-3.01zM694.05 839.63h3.01v5.64h-3.01zM694.05 850.62h3.01v5.64h-3.01zM700.82 817.64h3.01v5.64h-3.01zM700.82 828.64h3.01v5.64h-3.01zM700.82 839.63h3.01v5.64h-3.01zM700.82 850.62h3.01v5.64h-3.01zM707.59 817.64h3.01v5.64h-3.01zM707.59 828.64h3.01v5.64h-3.01zM707.59 839.63h3.01v5.64h-3.01zM707.59 850.62h3.01v5.64h-3.01zM694.05 864.11h3.01v5.64h-3.01zM694.05 875.1h3.01v5.64h-3.01zM694.05 886.09h3.01v5.64h-3.01zM694.05 897.09h3.01v5.64h-3.01zM682.77 771.18h3.01v5.64h-3.01zM682.77 782.17h3.01v5.64h-3.01zM682.77 793.17h3.01v5.64h-3.01zM682.77 804.16h3.01v5.64h-3.01zM682.77 817.64h3.01v5.64h-3.01zM682.77 828.64h3.01v5.64h-3.01zM682.77 839.63h3.01v5.64h-3.01zM682.77 850.62h3.01v5.64h-3.01zM682.77 864.11h3.01v5.64h-3.01zM682.77 875.1h3.01v5.64h-3.01zM682.77 886.09h3.01v5.64h-3.01zM682.77 897.09h3.01v5.64h-3.01zM670.18 771.18h3.01v5.64h-3.01zM670.18 782.17h3.01v5.64h-3.01zM670.18 793.17h3.01v5.64h-3.01zM670.18 804.16h3.01v5.64h-3.01zM670.18 817.64h3.01v5.64h-3.01zM670.18 828.64h3.01v5.64h-3.01zM670.18 839.63h3.01v5.64h-3.01zM670.18 850.62h3.01v5.64h-3.01zM670.18 864.11h3.01v5.64h-3.01zM670.18 875.1h3.01v5.64h-3.01zM670.18 886.09h3.01v5.64h-3.01zM670.18 897.09h3.01v5.64h-3.01zM657.58 771.18h3.01v5.64h-3.01zM657.58 782.17h3.01v5.64h-3.01zM657.58 793.17h3.01v5.64h-3.01zM657.58 804.16h3.01v5.64h-3.01zM657.58 817.64h3.01v5.64h-3.01zM657.58 828.64h3.01v5.64h-3.01zM657.58 839.63h3.01v5.64h-3.01zM657.58 850.62h3.01v5.64h-3.01zM657.58 864.11h3.01v5.64h-3.01zM657.58 875.1h3.01v5.64h-3.01zM657.58 886.09h3.01v5.64h-3.01zM657.58 897.09h3.01v5.64h-3.01zM700.82 864.11h3.01v5.64h-3.01zM700.82 875.1h3.01v5.64h-3.01zM700.82 886.09h3.01v5.64h-3.01zM700.82 897.09h3.01v5.64h-3.01zM707.59 864.11h3.01v5.64h-3.01zM707.59 875.1h3.01v5.64h-3.01zM707.59 886.09h3.01v5.64h-3.01zM590.55 837.77h2.78v5.64h-2.78zM590.55 848.76h2.78v5.64h-2.78zM590.55 859.76h2.78v5.64h-2.78zM596.81 837.77h2.78v5.64h-2.78zM596.81 848.76h2.78v5.64h-2.78zM596.81 859.76h2.78v5.64h-2.78zM606.29 837.77h2.78v5.64h-2.78zM606.29 848.76h2.78v5.64h-2.78zM606.29 859.76h2.78v5.64h-2.78zM612.55 837.77h2.78v5.64h-2.78zM612.55 848.76h2.78v5.64h-2.78zM612.55 859.76h2.78v5.64h-2.78zM622.02 837.77h2.78v5.64h-2.78zM622.02 848.76h2.78v5.64h-2.78zM622.02 859.76h2.78v5.64h-2.78zM628.29 837.77h2.78v5.64h-2.78zM628.29 848.76h2.78v5.64h-2.78zM628.29 859.76h2.78v5.64h-2.78zM606.29 878.76h2.78v5.64h-2.78zM606.29 889.75h2.78v5.64h-2.78zM606.29 900.74h2.78v5.64h-2.78zM612.55 878.76h2.78v5.64h-2.78zM612.55 889.75h2.78v5.64h-2.78zM612.55 900.74h2.78v5.64h-2.78zM622.02 878.76h2.78v5.64h-2.78zM622.02 889.75h2.78v5.64h-2.78zM622.02 900.74h2.78v5.64h-2.78zM628.29 878.76h2.78v5.64h-2.78zM628.29 889.75h2.78v5.64h-2.78zM628.29 900.74h2.78v5.64h-2.78zM707.59 897.09h3.01v5.64h-3.01zM500.02 826.39h3.01v7.52h-3.01zM809.87 780.89h4.51v5.85h-4.51zM809.87 792.3h4.51v5.85h-4.51zM809.87 803.72h4.51v5.85h-4.51zM809.87 815.13h4.51v5.85h-4.51zM809.87 826.55h4.51v5.85h-4.51zM820.03 780.89h4.51v5.85h-4.51zM820.03 792.3h4.51v5.85h-4.51zM820.03 803.72h4.51v5.85h-4.51zM820.03 815.13h4.51v5.85h-4.51zM820.03 826.55h4.51v5.85h-4.51zM830.18 780.89h4.51v5.85h-4.51zM830.18 792.3h4.51v5.85h-4.51zM830.18 803.72h4.51v5.85h-4.51zM830.18 815.13h4.51v5.85h-4.51zM830.18 826.55h4.51v5.85h-4.51zM809.87 841.36h4.51v5.85h-4.51zM741.43 864h2.49v4.71h-2.49zM746.11 864h2.49v4.71h-2.49zM754.78 864h2.49v4.71h-2.49zM759.46 864h2.49v4.71h-2.49zM768.13 864h2.49v4.71h-2.49zM772.81 864h2.49v4.71h-2.49zM781.48 864h2.49v4.71h-2.49zM786.16 864h2.49v4.71h-2.49zM741.43 873.22h2.49v4.71h-2.49zM746.11 873.22h2.49v4.71h-2.49zM754.78 873.22h2.49v4.71h-2.49zM759.46 873.22h2.49v4.71h-2.49zM768.13 873.22h2.49v4.71h-2.49zM772.81 873.22h2.49v4.71h-2.49zM781.48 873.22h2.49v4.71h-2.49zM786.16 873.22h2.49v4.71h-2.49zM741.43 882.45h2.49v4.71h-2.49zM746.11 882.45h2.49v4.71h-2.49zM754.78 882.45h2.49v4.71h-2.49zM759.46 882.45h2.49v4.71h-2.49zM768.13 882.45h2.49v4.71h-2.49zM772.81 882.45h2.49v4.71h-2.49zM781.48 882.45h2.49v4.71h-2.49zM786.16 882.45h2.49v4.71h-2.49zM741.43 891.67h2.49v4.71h-2.49zM746.11 891.67h2.49v4.71h-2.49zM754.78 891.67h2.49v4.71h-2.49zM759.46 891.67h2.49v4.71h-2.49zM768.13 891.67h2.49v4.71h-2.49zM772.81 891.67h2.49v4.71h-2.49zM781.48 891.67h2.49v4.71h-2.49zM786.16 891.67h2.49v4.71h-2.49zM741.43 900.9h2.49v4.71h-2.49zM746.11 900.9h2.49v4.71h-2.49zM754.78 900.9h2.49v4.71h-2.49zM759.46 900.9h2.49v4.71h-2.49zM768.13 900.9h2.49v4.71h-2.49zM772.81 900.9h2.49v4.71h-2.49zM781.48 900.9h2.49v4.71h-2.49zM786.16 900.9h2.49v4.71h-2.49zM809.87 852.78h4.51v5.85h-4.51zM809.87 864.19h4.51v5.85h-4.51zM809.87 875.61h4.51v5.85h-4.51zM809.87 887.02h4.51v5.85h-4.51zM820.03 841.36h4.51v5.85h-4.51zM820.03 852.78h4.51v5.85h-4.51zM820.03 864.19h4.51v5.85h-4.51zM820.03 875.61h4.51v5.85h-4.51zM820.03 887.02h4.51v5.85h-4.51zM830.18 841.36h4.51v5.85h-4.51zM830.18 852.78h4.51v5.85h-4.51zM830.18 864.19h4.51v5.85h-4.51zM830.18 875.61h4.51v5.85h-4.51zM830.18 887.02h4.51v5.85h-4.51zM500.02 841.05h3.01v7.52h-3.01zM500.02 855.72h3.01v7.52h-3.01zM500.02 870.38h3.01v7.52h-3.01zM500.02 885.05h3.01v7.52h-3.01zM1012.56 829.42h28.2v4.06h-28.2zM573.72 746.8h20.87v4.06h-20.87z"/><path class="cls-4" d="M592.56 730.5h4.06v32.34h-4.06z"/><path class="cls-4" transform="rotate(-57.76 581.12 738.74)" d="M571.42 736.74h19.56v4.06h-19.56z"/><path class="cls-4" d="M573.72 764.71h12.69v4.06h-12.69z"/><path class="cls-4" transform="rotate(-58 577.14 753.1)" d="M571.42 754.65h19.56v4.06h-19.56z"/><path class="cls-4" d="M606.72 736.74h45.1v4.06h-45.1zM640.8 764.87h-29.79l-4.94-11.77 3.75-1.58 3.89 9.28h27.09v4.07zM622.51 769.46h17.2v4.06h-17.2zM622.51 776.98h17.2v4.06h-17.2zM622.51 784.5h17.2v4.06h-17.2zM603.05 793.39h36.66v4.06h-36.66zM603.05 801.23h36.66v4.06h-36.66zM603.05 809.07h36.66v4.06h-36.66zM778.19 795.39h4.82v2.8h-4.82zM786.3 795.39h4.82v2.8h-4.82zM778.19 804.16h4.82v2.8h-4.82zM786.3 804.16h4.82v2.8h-4.82zM778.19 812.93h4.82v2.8h-4.82zM786.3 812.93h4.82v2.8h-4.82zM778.19 821.7h4.82v2.8h-4.82zM786.3 821.7h4.82v2.8h-4.82zM778.19 830.47h4.82v2.8h-4.82zM786.3 830.47h4.82v2.8h-4.82zM313.42 879.69h3.47v6.86h-3.47zM322.22 879.69h3.47v6.86h-3.47zM331.02 879.69h3.47v6.86h-3.47zM339.81 879.69h3.47v6.86h-3.47zM348.61 879.69h3.47v6.86h-3.47zM313.42 892.57h3.47v6.86h-3.47zM322.22 892.57h3.47v6.86h-3.47zM331.02 892.57h3.47v6.86h-3.47zM339.81 892.57h3.47v6.86h-3.47zM348.61 892.57h3.47v6.86h-3.47zM313.42 905.45h3.47v6.86h-3.47zM322.22 905.45h3.47v6.86h-3.47zM331.02 905.45h3.47v6.86h-3.47zM339.81 905.45h3.47v6.86h-3.47zM348.61 905.45h3.47v6.86h-3.47z"/></g><g class="cls-3"><path class="cls-4" d="M1856.07 827.64l2.64 28.8h-5.28l2.64-28.8zM1904.98 911h-4.06v-75.36h56.74v4.06h-52.68V911zM1802.32 911h-4.06v-15.86h19.18v-13.81h78.18v4.06h-74.12v13.82h-19.18V911z"/><path class="cls-4" d="M1863.46 883.36h-4.06v-19.12h-6.66v19.12h-4.06v-23.19h14.78v23.19z"/><path class="cls-4" d="M1851.94 855.53h8.26v6.68h-8.26zM1867.97 849.23h-4.06V754.7h49.81v69.43h-4.06v-65.37h-41.69v90.47zM1945.31 823.85h-4.06v-55.22h-23.35v-4.06h27.41v59.28z"/><path class="cls-4" d="M1928.39 823h-4.06v-34.07h-12.64v-4.06h16.7V823zM1913.72 837.67h-4.06v-9.65h53.36v4.07h-49.3v5.58zM1707.28 911h-4.06V802.92h108.97v88.62h-4.06v-84.55h-100.85V911zM1662.1 911h-4.06V774.12l3.04-8.03h-55.99l3.14 7.13V911h-4.06V774.08l-5.31-12.05h68.1l-4.86 12.84V911z"/><path class="cls-4" d="M1713.71 799.26h93.35v4.06h-93.35z"/><path class="cls-4" d="M1727.87 801.29h-4.06v-21.21h8.17v-23.41h23.81v33.62h-4.06v-29.56h-15.68v23.41h-8.18v17.15zM1805.42 801.29h-4.06v-23.92h-7.61v-16.64h-17.09v28.99h-4.06v-33.05h25.21v16.64h7.61v27.98z"/><path class="cls-4" d="M1794.99 758.7h-4.06v-10.66h-50.37v10.66h-4.06v-14.72h58.49v14.72z"/><path class="cls-4" d="M1787.79 747a25.71 25.71 0 00-44.09 0l-3.57-1.94c.32-.59 8.11-14.6 25.61-14.6s25.3 14 25.62 14.6zM1655.43 766.06c-.07-.07-7.08-6.5-22.44-6.5s-22.36 6.43-22.43 6.5l-2.81-2.94c.33-.31 8.12-7.62 25.24-7.62s24.92 7.31 25.24 7.62z"/><path class="cls-4" d="M1654.65 761.06h-4.06v-8.51h-35.19v8.51h-4.06v-12.57h43.31v12.57zM1660.07 870.04h45.18v4.06h-45.18z"/><path class="cls-4" d="M1684.94 872.13l-3.47-51.66-2.17 51.64-1.69-.07 2.82-67.12 1.69-.02 4.51 67.12-1.69.11zM1548.5 911h-4.06v-40.96h55.89v4.07h-51.83V911z"/><path class="cls-4" d="M1556.39 872.08h-4.06v-19.24h24.37v10.63h-4.06v-6.57h-16.25v15.18zM1588.83 872.08h-4.06v-15.01h15.56v4.06h-11.5v10.95zM1539.75 911h-4.06v-43.38h-90.13v3.95h-89.47l-3.8 3.81h-24.34V911h-4.06v-39.69h26.71l3.81-3.8h87.09v-3.95h98.25V911zM1210.63 911h-4.06v-76.77h118.84v27.07h12.64v4.07h-16.7v-27.08h-110.72V911z"/><path class="cls-4" d="M1212.49 824.98h4.06v11.28h-4.06zM1314.3 824.98h4.06v11.28h-4.06z"/><path class="cls-4" d="M1322.35 827h-114.93l-6.21-10.8v-9.34h129v10.81zm-112.58-4h110.69l5.69-6.75v-5.27h-120.88v4.2z"/><path class="cls-4" d="M1279.16 808.9h-4.06v-10.2l-3.35 2.05-5.05-5.05h-11.51v11.79h-4.06v-15.85h17.25l3.98 3.98 6.8-4.16v17.44zM1435.97 869.54h-4.06v-6.15h-55.17v6.15h-4.06v-10.21h63.29v10.21z"/><path class="cls-4" d="M1425.25 861.36h-4.06v-8.4h-30.06v8.4h-4.06v-12.47h38.18v12.47zM1380.63 833.44h2.26v27.92h-2.26z"/><path class="cls-4" d="M1403.2 833.44h2.26v17.49h-2.26z"/><path class="cls-4" d="M1381.76 837.67h22.56v2.26h-22.56zM1455.09 847.4h2.26v18.19h-2.26zM1472.29 847.4h2.26v18.19h-2.26z"/><path class="cls-4" d="M1456.22 851.21h17.2v2.26h-17.2zM1506.7 847.4h2.26v18.19h-2.26zM1523.9 847.4h2.26v18.19h-2.26z"/><path class="cls-4" d="M1507.83 851.21h17.2v2.26h-17.2zM1223.64 844.25h3.57v6.02h-3.57zM1230.78 847.26h9.96v3.01h-9.96zM1223.64 852.9h3.57v6.02h-3.57zM1230.78 855.91h9.96v3.01h-9.96zM1223.64 861.55h3.57v6.02h-3.57zM1230.78 864.56h9.96v3.01h-9.96zM1223.64 878.84h3.57v6.02h-3.57zM1230.78 881.85h9.96v3.01h-9.96zM1223.64 887.49h3.57v6.02h-3.57zM1230.78 890.5h9.96v3.01h-9.96zM1223.64 896.14h3.57v6.02h-3.57zM1230.78 899.15h9.96v3.01h-9.96zM1245.73 844.25h3.57v6.02h-3.57zM1252.88 847.26h9.97v3.01h-9.97zM1245.73 852.9h3.57v6.02h-3.57zM1252.88 855.91h9.97v3.01h-9.97zM1245.73 861.55h3.57v6.02h-3.57zM1252.88 864.56h9.97v3.01h-9.97zM1245.73 878.84h3.57v6.02h-3.57zM1252.88 881.85h9.97v3.01h-9.97zM1245.73 887.49h3.57v6.02h-3.57zM1252.88 890.5h9.97v3.01h-9.97zM1245.73 896.14h3.57v6.02h-3.57zM1252.88 899.15h9.97v3.01h-9.97zM1267.82 844.25h3.57v6.02h-3.57zM1274.97 847.26h9.97v3.01h-9.97zM1267.82 852.9h3.57v6.02h-3.57zM1274.97 855.91h9.97v3.01h-9.97zM1267.82 861.55h3.57v6.02h-3.57zM1274.97 864.56h9.97v3.01h-9.97zM1267.82 878.84h3.57v6.02h-3.57zM1274.97 881.85h9.97v3.01h-9.97zM1267.82 887.49h3.57v6.02h-3.57zM1274.97 890.5h9.97v3.01h-9.97zM1267.82 896.14h3.57v6.02h-3.57zM1274.97 899.15h9.97v3.01h-9.97zM1289.92 844.25h3.57v6.02h-3.57zM1297.06 847.26h9.96v3.01h-9.96zM1289.92 852.9h3.57v6.02h-3.57zM1297.06 855.91h9.96v3.01h-9.96zM1289.92 861.55h3.57v6.02h-3.57zM1297.06 864.56h9.96v3.01h-9.96zM1289.92 878.84h3.57v6.02h-3.57zM1297.06 881.85h9.96v3.01h-9.96zM1289.92 887.49h3.57v6.02h-3.57zM1297.06 890.5h9.96v3.01h-9.96zM1289.92 896.14h3.57v6.02h-3.57zM1297.06 899.15h9.96v3.01h-9.96zM1222.51 814.17h3.95v5.45h-3.95zM1240.75 814.17h3.95v5.45h-3.95zM1258.99 814.17h3.95v5.45h-3.95zM1277.22 814.17h3.95v5.45h-3.95zM1295.46 814.17h3.95v5.45h-3.95zM1336.45 881.1h6.77v4.32h-6.77zM1336.45 890.6h6.77v4.32h-6.77zM1336.45 900.09h6.77v4.32h-6.77zM1350.36 881.1h6.77v4.32h-6.77zM1350.36 890.6h6.77v4.32h-6.77zM1350.36 900.09h6.77v4.32h-6.77zM1364.28 881.1h6.77v4.32h-6.77zM1364.28 890.6h6.77v4.32h-6.77zM1364.28 900.09h6.77v4.32h-6.77zM1378.19 881.1h6.77v4.32h-6.77zM1378.19 890.6h6.77v4.32h-6.77zM1378.19 900.09h6.77v4.32h-6.77zM1392.1 881.1h6.77v4.32h-6.77zM1392.1 890.6h6.77v4.32h-6.77zM1392.1 900.09h6.77v4.32h-6.77zM1406.02 881.1h6.77v4.32h-6.77zM1406.02 890.6h6.77v4.32h-6.77zM1406.02 900.09h6.77v4.32h-6.77zM1419.93 881.1h6.77v4.32h-6.77zM1419.93 890.6h6.77v4.32h-6.77zM1419.93 900.09h6.77v4.32h-6.77zM1433.84 881.1h6.77v4.32h-6.77zM1449.45 872.55h42.3v2.8h-42.3zM1449.45 882.23h42.3v2.8h-42.3zM1449.45 891.92h42.3v2.8h-42.3zM1449.45 901.61h42.3v2.8h-42.3zM1503.88 872.55h25.85v2.8h-25.85zM1503.88 882.23h25.85v2.8h-25.85zM1503.88 891.92h25.85v2.8h-25.85zM1503.88 901.61h25.85v2.8h-25.85zM1553.85 880.5h43.57v2.8h-43.57zM1553.85 887.93h43.57v2.8h-43.57zM1553.85 895.37h43.57v2.8h-43.57zM1553.85 902.8h43.57v2.8h-43.57zM1433.84 890.6h6.77v4.32h-6.77zM1433.84 900.09h6.77v4.32h-6.77zM1558.88 859.1h1.88v8.08h-1.88zM1563.58 859.1h1.88v8.08h-1.88zM1568.28 859.1h1.88v8.08h-1.88zM1613.97 771.49h2.63v6.77h-2.63zM1625.85 771.49h2.63v6.77h-2.63zM1637.73 771.49h2.63v6.77h-2.63zM1649.62 771.49h2.63v6.77h-2.63zM1613.97 782.02h2.63v6.77h-2.63zM1625.85 782.02h2.63v6.77h-2.63zM1637.73 782.02h2.63v6.77h-2.63zM1649.62 782.02h2.63v6.77h-2.63zM1613.97 792.54h2.63v6.77h-2.63zM1625.85 792.54h2.63v6.77h-2.63zM1637.73 792.54h2.63v6.77h-2.63zM1649.62 792.54h2.63v6.77h-2.63zM1613.97 803.07h2.63v6.77h-2.63zM1625.85 803.07h2.63v6.77h-2.63zM1637.73 803.07h2.63v6.77h-2.63zM1649.62 803.07h2.63v6.77h-2.63zM1613.97 813.6h2.63v6.77h-2.63zM1625.85 813.6h2.63v6.77h-2.63zM1637.73 813.6h2.63v6.77h-2.63zM1649.62 813.6h2.63v6.77h-2.63zM1613.97 824.13h2.63v6.77h-2.63zM1625.85 824.13h2.63v6.77h-2.63zM1637.73 824.13h2.63v6.77h-2.63zM1649.62 824.13h2.63v6.77h-2.63zM1613.97 834.66h2.63v6.77h-2.63zM1625.85 834.66h2.63v6.77h-2.63zM1637.73 834.66h2.63v6.77h-2.63zM1649.62 834.66h2.63v6.77h-2.63zM1613.97 845.19h2.63v6.77h-2.63zM1625.85 845.19h2.63v6.77h-2.63zM1637.73 845.19h2.63v6.77h-2.63zM1649.62 845.19h2.63v6.77h-2.63zM1613.97 855.72h2.63v6.77h-2.63zM1625.85 855.72h2.63v6.77h-2.63zM1637.73 855.72h2.63v6.77h-2.63zM1649.62 855.72h2.63v6.77h-2.63zM1613.97 866.25h2.63v6.77h-2.63zM1625.85 866.25h2.63v6.77h-2.63zM1637.73 866.25h2.63v6.77h-2.63zM1649.62 866.25h2.63v6.77h-2.63zM1613.97 876.78h2.63v6.77h-2.63zM1625.85 876.78h2.63v6.77h-2.63zM1637.73 876.78h2.63v6.77h-2.63zM1649.62 876.78h2.63v6.77h-2.63zM1613.97 887.31h2.63v6.77h-2.63zM1625.85 887.31h2.63v6.77h-2.63zM1637.73 887.31h2.63v6.77h-2.63zM1649.62 887.31h2.63v6.77h-2.63zM1613.97 897.83h2.63v6.77h-2.63zM1625.85 897.83h2.63v6.77h-2.63zM1637.73 897.83h2.63v6.77h-2.63zM1649.62 897.83h2.63v6.77h-2.63zM1678.32 877.98h7.6v2.09h-7.6zM1689.75 877.98h7.6v2.09h-7.6zM1667.17 883.55h7.6v2.09h-7.6zM1678.32 883.55h7.6v2.09h-7.6zM1689.75 883.55h7.6v2.09h-7.6zM1667.17 889.11h7.6v2.09h-7.6zM1678.32 889.11h7.6v2.09h-7.6zM1667.17 894.67h7.6v2.09h-7.6zM1678.32 894.67h7.6v2.09h-7.6zM1689.75 894.67h7.6v2.09h-7.6zM1667.17 900.23h7.6v2.09h-7.6zM1689.75 900.23h7.6v2.09h-7.6zM1713.99 812.1h6.49v3.76h-6.49zM1713.99 820.75h6.49v3.76h-6.49zM1713.99 829.4h6.49v3.76h-6.49zM1713.99 838.05h6.49v3.76h-6.49zM1713.99 846.69h6.49v3.76h-6.49zM1713.99 855.34h6.49v3.76h-6.49zM1713.99 863.99h6.49v3.76h-6.49zM1713.99 872.64h6.49v3.76h-6.49zM1713.99 881.29h6.49v3.76h-6.49zM1713.99 889.94h6.49v3.76h-6.49zM1713.99 898.59h6.49v3.76h-6.49zM1723.86 811.95h84.61v4.06h-84.61zM1723.86 820.6h84.61v4.06h-84.61zM1723.86 829.25h84.61v4.06h-84.61zM1723.86 837.89h84.61v4.06h-84.61zM1723.86 846.54h84.61v4.06h-84.61zM1723.86 855.19h84.61v4.06h-84.61zM1723.86 863.84h84.61v4.06h-84.61zM1723.86 872.49h84.61v4.06h-84.61zM1723.86 881.14h84.61v4.06h-84.61zM1723.86 889.79h69.38v4.06h-69.38zM1723.86 898.43h69.38v4.06h-69.38zM1740.78 763.21h2.54v5.78h-2.54zM1745.58 763.21h2.54v5.78h-2.54zM1740.78 771.98h2.54v2.89h-2.54zM1745.58 771.98h2.54v2.89h-2.54zM1740.78 778.26h2.54v7.14h-2.54zM1745.58 778.26h2.54v7.14h-2.54zM1740.78 788.97h2.54v7.14h-2.54zM1745.58 788.97h2.54v7.14h-2.54zM1781.68 763.21h2.54v5.78h-2.54zM1786.47 763.21h2.54v5.78h-2.54zM1781.68 771.98h2.54v2.89h-2.54zM1786.47 771.98h2.54v2.89h-2.54zM1781.68 778.26h2.54v7.14h-2.54zM1786.47 778.26h2.54v7.14h-2.54zM1781.68 788.97h2.54v7.14h-2.54zM1786.47 788.97h2.54v7.14h-2.54zM1761.09 772.8h6.77v23.31h-6.77zM1916.43 790.85h1.94v4.65h-1.94zM1916.43 798.05h1.94v4.65h-1.94zM1916.43 805.24h1.94v4.65h-1.94zM1916.43 812.43h1.94v4.65h-1.94zM1916.43 819.63h1.94v4.65h-1.94zM1908.63 842.89h1.94v4.65h-1.94zM1913.26 842.89h1.94v4.65h-1.94zM1917.9 842.89h1.94v4.65h-1.94zM1908.63 852.62h1.94v4.65h-1.94zM1913.26 852.62h1.94v4.65h-1.94zM1908.63 862.35h1.94V867h-1.94zM1917.9 862.35h1.94V867h-1.94zM1908.63 872.08h1.94v4.65h-1.94zM1913.26 872.08h1.94v4.65h-1.94zM1913.26 881.81h1.94v4.65h-1.94zM1917.9 881.81h1.94v4.65h-1.94zM1908.63 891.54h1.94v4.65h-1.94zM1913.26 891.54h1.94v4.65h-1.94zM1917.9 891.54h1.94v4.65h-1.94zM1908.63 901.27h1.94v4.65h-1.94zM1917.9 901.27h1.94v4.65h-1.94z"/></g><path class="cls-2" d="M1666.79 400.37c-87.31-6.4-107.48 132.11-34.88 143 59.36 8.93 146.55-134.81 34.88-143zM418.44 411.08c-42.25 69.08 41.69 232.11 139.34 87.64C626.9 396.44 482.11 307 418.44 411.08z"/><g class="cls-5"><path class="cls-4" d="M1891.18 481.83h-34.91a.93.93 0 01-.86-.56 30.68 30.68 0 00-39.41-16.58.93.93 0 01-1.26-.8 28.41 28.41 0 00-55.14-7.55.91.91 0 01-.59.57.92.92 0 01-.82-.13 29.52 29.52 0 00-46.78 24 .93.93 0 01-.93.93H1681a.93.93 0 010-1.86h28.57a31.45 31.45 0 0131.4-30.48 31.06 31.06 0 0117.31 5.23 30.27 30.27 0 0158.2 8 32.19 32.19 0 0110.66-1.82 32.55 32.55 0 0129.73 19.22h34.31a.93.93 0 110 1.85zM1921.05 481.83h-17.31a.93.93 0 110-1.85h17.31a.93.93 0 110 1.85zM1667.74 481.83h-17.31a.93.93 0 010-1.85h17.31a.93.93 0 110 1.85z"/></g><g class="cls-5"><path class="cls-4" d="M677.29 179.57h-46.41a1.24 1.24 0 01-1.14-.76 40.73 40.73 0 00-52.4-22 1.24 1.24 0 01-1.68-1.07 37.77 37.77 0 00-73.29-10 1.24 1.24 0 01-1.88.59 38.91 38.91 0 00-22.89-7.4 39.33 39.33 0 00-39.29 39.29 1.23 1.23 0 01-1.23 1.23h-39.19a1.23 1.23 0 110-2.46h38a41.81 41.81 0 0141.74-40.53 41.36 41.36 0 0123 7A40.22 40.22 0 01578 153.91a43.24 43.24 0 0153.71 23.19h45.61a1.24 1.24 0 110 2.47zM717 179.57h-23a1.24 1.24 0 010-2.47h23a1.24 1.24 0 010 2.47zM380.27 179.57h-23a1.24 1.24 0 010-2.47h23a1.24 1.24 0 010 2.47z"/></g><g class="cls-5"><path class="cls-4" d="M735.94 541.12h-35a1.1 1.1 0 01-1.1-1.1 35.06 35.06 0 00-55.55-28.49 1.11 1.11 0 01-1 .16 1.14 1.14 0 01-.71-.68 33.73 33.73 0 00-65.45 9 1.07 1.07 0 01-1.18 1 1.1 1.1 0 01-1-1.17 35.93 35.93 0 0169.22-10.9 37.26 37.26 0 0157.84 30h33.92a1.1 1.1 0 010 2.2zM772.22 541.28h-20.55a1.1 1.1 0 110-2.2h20.55a1.1 1.1 0 110 2.2z"/><g><path class="cls-4" d="M465.31 514.65h-35a1.1 1.1 0 010-2.2h33.92a37.26 37.26 0 0157.84-30 35.93 35.93 0 0169.22 10.89 1.1 1.1 0 01-1 1.17 1.08 1.08 0 01-1.18-1 33.73 33.73 0 00-65.46-9 1.06 1.06 0 01-.7.68 1.08 1.08 0 01-1-.15 35.06 35.06 0 00-55.55 28.48 1.1 1.1 0 01-1.09 1.13zM414.57 514.82H394a1.1 1.1 0 110-2.2h20.55a1.1 1.1 0 110 2.2z"/></g></g><g class="cls-5"><path class="cls-4" d="M1762.76 108.35h-35a1.1 1.1 0 01-1.1-1.1 35.06 35.06 0 00-55.55-28.49 1.11 1.11 0 01-1 .16 1.14 1.14 0 01-.71-.68 33.73 33.73 0 00-65.45 9 1.08 1.08 0 01-1.18 1 1.1 1.1 0 01-1-1.17A35.93 35.93 0 011671 76.16a37.26 37.26 0 0157.84 30h33.92a1.1 1.1 0 010 2.2zM1799 108.51h-20.55a1.1 1.1 0 110-2.2H1799a1.1 1.1 0 010 2.2z"/><g><path class="cls-4" d="M1492.13 81.88h-35a1.1 1.1 0 110-2.2h33.92a37.33 37.33 0 0137.28-36.19 36.93 36.93 0 0120.55 6.21 35.93 35.93 0 0169.23 10.89 1.1 1.1 0 01-1 1.17 1.08 1.08 0 01-1.18-1 33.73 33.73 0 00-65.46-9 1.06 1.06 0 01-.7.68 1.08 1.08 0 01-1-.15 35.06 35.06 0 00-55.55 28.48 1.1 1.1 0 01-1.09 1.11zM1441.39 82.05h-20.55a1.1 1.1 0 110-2.2h20.55a1.1 1.1 0 110 2.2z"/></g></g><path class="cls-6" d="M3-7h1920v1080H3z"/><g opacity=".2"><path class="cls-6" d="M1355.76 192.17a9 9 0 106.38 2.65 9 9 0 00-6.38-2.65zM1018.48 329.18a9 9 0 106.39 2.65 9 9 0 00-6.39-2.65zM529.06 236.33a9 9 0 106.38 2.65 9 9 0 00-6.38-2.65zM1524 499.29a9 9 0 106.38 2.64 9 9 0 00-6.38-2.64zM314.89 473.56a9 9 0 106.38 2.64 9 9 0 00-6.38-2.64zM1690.55 96a9 9 0 106.38 2.64 8.94 8.94 0 00-6.38-2.64zM1821.32 83a9 9 0 106.38 2.64 9 9 0 00-6.38-2.64zM177.88 136.28a9 9 0 106.38 2.65 9 9 0 00-6.38-2.65z"/><path class="cls-4" d="M1807 811.73h-4.63v-4.63a1.5 1.5 0 10-3 0v4.63h-4.62a1.5 1.5 0 000 3h4.62v4.62a1.5 1.5 0 003 0v-4.62h4.63a1.5 1.5 0 000-3zM1404.46 420.67h-4.62V416a1.5 1.5 0 10-3 0v4.63h-4.62a1.5 1.5 0 000 3h4.62v4.62a1.5 1.5 0 003 0v-4.62h4.62a1.5 1.5 0 000-3zM222.13 175.5h-4.62v-4.62a1.5 1.5 0 00-3 0v4.62h-4.63a1.5 1.5 0 000 3h4.63v4.62a1.5 1.5 0 003 0v-4.62h4.62a1.5 1.5 0 000-3zM56.7 132.47h-4.62v-4.62a1.5 1.5 0 00-3 0v4.62h-4.63a1.5 1.5 0 000 3h4.63v4.63a1.5 1.5 0 003 0v-4.63h4.62a1.5 1.5 0 100-3zM187.94 556.31h-4.63v-4.62a1.5 1.5 0 00-3 0v4.62h-4.62a1.5 1.5 0 000 3h4.62v4.63a1.5 1.5 0 003 0v-4.63h4.63a1.5 1.5 0 100-3zM88.2 104a1.5 1.5 0 00-1.5-1.5h-4.62v-4.65a1.5 1.5 0 00-3 0v4.62h-4.63a1.5 1.5 0 000 3h4.63v4.63a1.5 1.5 0 003 0v-4.63h4.62a1.5 1.5 0 001.5-1.47zM1569.11 328.67h-4.62V324a1.5 1.5 0 10-3 0v4.63h-4.63a1.5 1.5 0 000 3h4.63v4.62a1.5 1.5 0 003 0v-4.62h4.62a1.5 1.5 0 000-3zM1810.43 569h-4.62v-4.62a1.5 1.5 0 10-3 0V569h-4.63a1.5 1.5 0 000 3h4.63v4.63a1.5 1.5 0 003 0V572h4.62a1.5 1.5 0 000-3zM1391.75 884.5h-4.62v-4.62a1.5 1.5 0 00-3 0v4.62h-4.63a1.5 1.5 0 000 3h4.63v4.63a1.5 1.5 0 103 0v-4.63h4.62a1.5 1.5 0 000-3zM563.39 671h-7.64v-7.63a1.5 1.5 0 10-3 0V671h-7.63a1.5 1.5 0 100 3h7.63v7.64a1.5 1.5 0 003 0V674h7.64a1.5 1.5 0 000-3zM1468 998.83h-7.63v-7.64a1.5 1.5 0 00-3 0v7.64h-7.63a1.5 1.5 0 000 3h7.63v7.63a1.5 1.5 0 003 0v-7.63h7.63a1.5 1.5 0 000-3zM1581.27 298.33a2.83 2.83 0 102.83 2.83 2.83 2.83 0 00-2.83-2.83zM1830.71 526.62a2.83 2.83 0 102.83 2.83 2.83 2.83 0 00-2.83-2.83z"/><circle class="cls-4" cx="1860.08" cy="570.47" r="11.92" transform="matrix(.96 -.29 .29 .96 -85.5 563.5)"/><path class="cls-4" d="M88.2 175a2.83 2.83 0 102.8 2.8 2.83 2.83 0 00-2.8-2.8zM184.64 384a2.83 2.83 0 10-2.83-2.83 2.83 2.83 0 002.83 2.83zM33.85 584.15a2.83 2.83 0 102.83 2.85 2.83 2.83 0 00-2.83-2.85zM177.09 392.35a2.83 2.83 0 102.83-2.83 2.83 2.83 0 00-2.83 2.83z"/><circle class="cls-4" cx="1620.22" cy="190.7" r="11.02"/><circle class="cls-4" cx="368.94" cy="403.52" r="11.02" transform="rotate(-67.5 368.94 403.52)"/><path class="cls-4" d="M529.06 232.33a13 13 0 1013 13 13 13 0 00-13-13zm6.38 19.41a9 9 0 112.65-6.38 9 9 0 01-2.65 6.38zM314.89 403.56a13 13 0 1013 13 13 13 0 00-13-13zm6.38 19.4a9 9 0 112.65-6.38 9 9 0 01-2.65 6.42zM177.88 132.28a13 13 0 1013 13 13 13 0 00-13-13zm6.38 19.41a9 9 0 112.64-6.38 9 9 0 01-2.64 6.38zM781.3 89.58h-4.62V85a1.5 1.5 0 00-3 0v4.62h-4.63a1.5 1.5 0 000 3h4.63v4.58a1.5 1.5 0 103 0v-4.62h4.62a1.5 1.5 0 000-3zM1303.35 328.62a2.83 2.83 0 102.83 2.83 2.83 2.83 0 00-2.83-2.83zM1320.52 333.34a2.83 2.83 0 102.83 2.83 2.83 2.83 0 00-2.83-2.83z"/><circle class="cls-4" cx="691.9" cy="315.01" r="11.02"/><path class="cls-4" d="M1276.69 136.12a11 11 0 1011 11 11 11 0 00-11-11zM1355.76 188.17a13 13 0 1013 13 13 13 0 00-13-13zm6.38 19.41a9 9 0 112.64-6.38 9 9 0 01-2.64 6.38zM743.48 116.18a13 13 0 1013 13 13 13 0 00-13-13zm6.39 19.41a9 9 0 112.64-6.38 9 9 0 01-2.64 6.38zM1690.55 92a13 13 0 1013 13 13 13 0 00-13-13zm6.38 19.4a9 9 0 112.64-6.38 9 9 0 01-2.64 6.36zM1821.32 79a13 13 0 1013 13 13 13 0 00-13-13zm6.38 19.41a9 9 0 112.65-6.38 9 9 0 01-2.65 6.33zM1524 495.29a13 13 0 1013 13 13 13 0 00-13-13zm6.38 19.41a9 9 0 112.64-6.39 9 9 0 01-2.67 6.39z"/></g><path class="cls-8" d="M85.59 337.54a.74.74 0 01-.8-.62 25.2 25.2 0 00-9.94 18.36.77.77 0 00.72.82.74.74 0 00.82-.72 23.66 23.66 0 0145.91-6.29.76.76 0 00.49.48.77.77 0 00.69-.11 24.59 24.59 0 0139 20 .78.78 0 00.77.77h24.55a.77.77 0 100-1.54H164a26.19 26.19 0 00-26.15-25.39 25.88 25.88 0 00-14.41 4.36A25.28 25.28 0 00100 331.78a25 25 0 00-13.76 4.12c0 .27 0 .54.07.82a.77.77 0 01-.72.82zM213.2 368.78h-14.42a.78.78 0 000 1.55h14.42a.78.78 0 000-1.55z"/><path class="cls-8" d="M23.34 326.27a24.46 24.46 0 0114.34 4.63.72.72 0 00.68.11.76.76 0 00.49-.48 23.66 23.66 0 0145.91 6.29v.1a.74.74 0 00.8.62.77.77 0 00.71-.82c0-.28 0-.55-.07-.82a25.2 25.2 0 00-48.48-6.82A26.06 26.06 0 003 334.46V337a24.62 24.62 0 0120.34-10.73z"/><path class="cls-9" d="M1949.38 1010.35a9 9 0 00-8.83.37 15.27 15.27 0 00-2.82 2.5 10.13 10.13 0 01-1.84 1.7 3.61 3.61 0 01-2.1.58 3.56 3.56 0 01-2.09-.58 9.83 9.83 0 01-1.85-1.7 14.64 14.64 0 00-2.82-2.5 9 9 0 00-9.51 0 14.86 14.86 0 00-2.81 2.5 10.4 10.4 0 01-1.84 1.69 4.07 4.07 0 01-4.19 0 10.13 10.13 0 01-1.84-1.7 15 15 0 00-2.83-2.5 9 9 0 00-9.5 0 14.33 14.33 0 00-2.82 2.51 10.13 10.13 0 01-1.84 1.7 4.07 4.07 0 01-4.19 0 10.06 10.06 0 01-1.84-1.69 14.64 14.64 0 00-2.82-2.5 9 9 0 00-9.5 0 14.64 14.64 0 00-2.82 2.5 10.47 10.47 0 01-1.84 1.7 4.09 4.09 0 01-4.2 0 10.13 10.13 0 01-1.84-1.7 15 15 0 00-2.82-2.5 9 9 0 00-9.5 0 14.64 14.64 0 00-2.82 2.5 10.48 10.48 0 01-1.85 1.7 3.47 3.47 0 01-1.78.56h-2.47a3.47 3.47 0 01-1.78-.56 10.48 10.48 0 01-1.85-1.7 14.64 14.64 0 00-2.82-2.5 9 9 0 00-9.5 0 14.64 14.64 0 00-2.82 2.5 10.13 10.13 0 01-1.84 1.7 4.09 4.09 0 01-4.2 0 10.13 10.13 0 01-1.84-1.7 15 15 0 00-2.82-2.5 9 9 0 00-9.51 0 15.27 15.27 0 00-2.82 2.5 10.13 10.13 0 01-1.84 1.7 4.07 4.07 0 01-4.19 0 10.48 10.48 0 01-1.85-1.7 14.64 14.64 0 00-2.82-2.5 9 9 0 00-9.5 0 14.64 14.64 0 00-2.82 2.5 9.83 9.83 0 01-1.85 1.7 4.07 4.07 0 01-4.19 0 10.47 10.47 0 01-1.84-1.7 14.64 14.64 0 00-2.82-2.5 9 9 0 00-9.5 0 14.64 14.64 0 00-2.82 2.5 10.14 10.14 0 01-1.85 1.7 4.07 4.07 0 01-4.19 0 10.13 10.13 0 01-1.84-1.7 15.27 15.27 0 00-2.82-2.5 9 9 0 00-9.51 0 15 15 0 00-2.82 2.5 10.13 10.13 0 01-1.84 1.7 4.07 4.07 0 01-4.19 0 10.14 10.14 0 01-1.85-1.7 14.54 14.54 0 00-2.81-2.51 9 9 0 00-9.51 0 14.64 14.64 0 00-2.82 2.5 9.83 9.83 0 01-1.85 1.7 4.06 4.06 0 01-4.18 0 9.83 9.83 0 01-1.85-1.7 14.64 14.64 0 00-2.82-2.5 9 9 0 00-9.5 0 15 15 0 00-2.83 2.5 10.13 10.13 0 01-1.84 1.7 4.07 4.07 0 01-4.19 0 10.13 10.13 0 01-1.84-1.7 15.27 15.27 0 00-2.82-2.5 9 9 0 00-9.51 0 14.64 14.64 0 00-2.82 2.5 10.13 10.13 0 01-1.84 1.7 4.09 4.09 0 01-4.2 0 10.4 10.4 0 01-1.84-1.69 14.64 14.64 0 00-2.82-2.5 9 9 0 00-9.5 0 14.64 14.64 0 00-2.82 2.5 10.14 10.14 0 01-1.85 1.7 4 4 0 01-4.36-.13l-1.4-1-.56-.57a15 15 0 00-2.76-2.46 8.58 8.58 0 00-4.62-1.38h-.09a8.56 8.56 0 00-4.62 1.38 15 15 0 00-2.76 2.46 13.62 13.62 0 01-1.35 1.32l-.36.25-1 .43a3.82 3.82 0 01-1.5.28 3.61 3.61 0 01-2.1-.58 10.13 10.13 0 01-1.84-1.7 15.27 15.27 0 00-2.82-2.5 9 9 0 00-9.51 0 15 15 0 00-2.82 2.5 10.13 10.13 0 01-1.84 1.7 3.61 3.61 0 01-2.1.58 3.56 3.56 0 01-2.09-.58 9.83 9.83 0 01-1.85-1.7 14.64 14.64 0 00-2.82-2.5 9 9 0 00-9.5 0 14.64 14.64 0 00-2.82 2.5 10.14 10.14 0 01-1.85 1.7 4.07 4.07 0 01-4.19 0 10.13 10.13 0 01-1.84-1.7 15.27 15.27 0 00-2.82-2.5 9 9 0 00-9.5 0 15 15 0 00-2.83 2.5 10.13 10.13 0 01-1.84 1.7 4.07 4.07 0 01-4.19 0 10.4 10.4 0 01-1.84-1.69 15.27 15.27 0 00-2.82-2.5 9 9 0 00-9.51 0 14.64 14.64 0 00-2.82 2.5 10.13 10.13 0 01-1.84 1.7 3.57 3.57 0 01-1.7.56h-3a3.56 3.56 0 01-1.69-.56 10.13 10.13 0 01-1.84-1.7 15.27 15.27 0 00-2.82-2.5 9 9 0 00-9.51 0 15 15 0 00-2.82 2.5 10.13 10.13 0 01-1.84 1.7 4.07 4.07 0 01-4.19 0 10.77 10.77 0 01-1.85-1.69 14.61 14.61 0 00-2.82-2.5 9 9 0 00-9.5 0 14.64 14.64 0 00-2.82 2.5 10.14 10.14 0 01-1.85 1.7 4.07 4.07 0 01-4.19 0 10.13 10.13 0 01-1.84-1.7 15.27 15.27 0 00-2.82-2.5 9 9 0 00-9.51 0 15.27 15.27 0 00-2.82 2.5 10.13 10.13 0 01-1.84 1.7 4.07 4.07 0 01-4.19 0 10.48 10.48 0 01-1.85-1.7 14.64 14.64 0 00-2.82-2.5 9 9 0 00-9.5 0 14.64 14.64 0 00-2.82 2.5 10.13 10.13 0 01-1.84 1.7 4.09 4.09 0 01-4.2 0 10.13 10.13 0 01-1.84-1.7 14.64 14.64 0 00-2.82-2.5 9 9 0 00-9.5 0 14.64 14.64 0 00-2.82 2.5 10.48 10.48 0 01-1.85 1.7 3.5 3.5 0 01-1.93.57H1399a3.53 3.53 0 01-1.93-.57 10.13 10.13 0 01-1.84-1.7 14.64 14.64 0 00-2.82-2.5 9 9 0 00-9.5 0 14.64 14.64 0 00-2.82 2.5 10.14 10.14 0 01-1.85 1.7 4.07 4.07 0 01-4.19 0 10.4 10.4 0 01-1.84-1.69 15.27 15.27 0 00-2.82-2.5 9 9 0 00-9.51 0 14.64 14.64 0 00-2.82 2.5 10.4 10.4 0 01-1.84 1.69 3.61 3.61 0 01-2.1.58 3.56 3.56 0 01-2.09-.58 9.83 9.83 0 01-1.85-1.7 14.64 14.64 0 00-2.82-2.5 9 9 0 00-9.5 0 14.33 14.33 0 00-2.82 2.51 10.14 10.14 0 01-1.85 1.7 4.07 4.07 0 01-4.19 0 10.4 10.4 0 01-1.84-1.69 15.27 15.27 0 00-2.82-2.5 9 9 0 00-9.51 0 15.27 15.27 0 00-2.82 2.5 10.13 10.13 0 01-1.84 1.7 4.07 4.07 0 01-4.19 0 10.48 10.48 0 01-1.85-1.7 14.64 14.64 0 00-2.82-2.5 9 9 0 00-9.5 0 14.64 14.64 0 00-2.82 2.5 9.83 9.83 0 01-1.85 1.7 3.55 3.55 0 01-1.92.57l-.45-.09-.46.09a3.55 3.55 0 01-1.92-.57 10.14 10.14 0 01-1.85-1.7 14.64 14.64 0 00-2.82-2.5 9 9 0 00-9.5 0 14.64 14.64 0 00-2.82 2.5 10.14 10.14 0 01-1.85 1.7 4.07 4.07 0 01-4.19 0 10.4 10.4 0 01-1.84-1.69 15 15 0 00-2.82-2.5 9 9 0 00-9.51 0 14.63 14.63 0 00-2.82 2.51 10.13 10.13 0 01-1.84 1.7 3.61 3.61 0 01-2.1.58 3.56 3.56 0 01-2.09-.58 10.48 10.48 0 01-1.85-1.7 14.64 14.64 0 00-2.82-2.5 9 9 0 00-9.5 0 14.64 14.64 0 00-2.82 2.5 10.14 10.14 0 01-1.85 1.7 4.07 4.07 0 01-4.19 0 10.4 10.4 0 01-1.84-1.69 15.27 15.27 0 00-2.82-2.5 9 9 0 00-9.5 0 15 15 0 00-2.83 2.5 10.13 10.13 0 01-1.84 1.7 4.07 4.07 0 01-4.19 0 10.13 10.13 0 01-1.84-1.7 15.27 15.27 0 00-2.82-2.5 9 9 0 00-9.51 0 14.64 14.64 0 00-2.82 2.5 10.13 10.13 0 01-1.84 1.7 3.51 3.51 0 01-1.78.56h-2.48a3.51 3.51 0 01-1.78-.56 10.13 10.13 0 01-1.84-1.7 14.64 14.64 0 00-2.82-2.5 9 9 0 00-9.5 0 14.64 14.64 0 00-2.82 2.5 10.48 10.48 0 01-1.85 1.7 4.07 4.07 0 01-4.19 0 10.4 10.4 0 01-1.84-1.69 15 15 0 00-2.83-2.5 9 9 0 00-9.5 0 14.64 14.64 0 00-2.82 2.5 10.26 10.26 0 01-1.82 1.68 4.09 4.09 0 01-4.2 0 10.13 10.13 0 01-1.84-1.7 14.64 14.64 0 00-2.82-2.5 9 9 0 00-9.51 0 14.86 14.86 0 00-2.81 2.5 10.48 10.48 0 01-1.85 1.7 4.07 4.07 0 01-4.19 0 10.4 10.4 0 01-1.84-1.69 15.27 15.27 0 00-2.82-2.5 9 9 0 00-9.51 0 15.27 15.27 0 00-2.82 2.5 10.13 10.13 0 01-1.84 1.7 4.07 4.07 0 01-4.19 0 10.48 10.48 0 01-1.85-1.7 14.64 14.64 0 00-2.82-2.5 9 9 0 00-9.5 0 14.64 14.64 0 00-2.82 2.5 9.83 9.83 0 01-1.85 1.7 3.56 3.56 0 01-2.09.58 3.61 3.61 0 01-2.1-.58 10.13 10.13 0 01-1.84-1.7 14.64 14.64 0 00-2.82-2.5 9 9 0 00-9.5 0 15 15 0 00-2.83 2.5 10.13 10.13 0 01-1.84 1.7 4.07 4.07 0 01-4.19 0 10.13 10.13 0 01-1.84-1.7 15.27 15.27 0 00-2.82-2.5 9 9 0 00-9.51 0 14.64 14.64 0 00-2.82 2.5 10.13 10.13 0 01-1.84 1.7 3.61 3.61 0 01-2.1.58 3.56 3.56 0 01-2.09-.58 9.83 9.83 0 01-1.85-1.7 14.64 14.64 0 00-2.82-2.5 9 9 0 00-9.5 0 14.64 14.64 0 00-2.82 2.5 10.48 10.48 0 01-1.85 1.7 4.07 4.07 0 01-4.19 0 10.13 10.13 0 01-1.84-1.7 15.27 15.27 0 00-2.82-2.5 9 9 0 00-9.51 0 15.27 15.27 0 00-2.82 2.5 10.13 10.13 0 01-1.84 1.7 3.61 3.61 0 01-2.1.58 3.57 3.57 0 01-1.72-.37 5.94 5.94 0 01-1.38-1l-3.9-2.5a12.2 12.2 0 00-.86-.67 8.49 8.49 0 00-4.13-1.49h-.43a8.45 8.45 0 00-4.12 1.49 10.12 10.12 0 00-1.26 1 11.43 11.43 0 01-2 1.51l-2.4 1.41a3.57 3.57 0 01-2.19.65 3.61 3.61 0 01-2.1-.58 10.13 10.13 0 01-1.84-1.7 15.27 15.27 0 00-2.82-2.5 9 9 0 00-9.51 0 14.64 14.64 0 00-2.82 2.5 10.13 10.13 0 01-1.84 1.7 3.61 3.61 0 01-2.1.58 3.56 3.56 0 01-2.09-.58 9.83 9.83 0 01-1.85-1.7 14.64 14.64 0 00-2.82-2.5 9 9 0 00-9.5 0 14.64 14.64 0 00-2.82 2.5 10.14 10.14 0 01-1.85 1.7 4.07 4.07 0 01-4.19 0 10.13 10.13 0 01-1.84-1.7 15.27 15.27 0 00-2.82-2.5 9 9 0 00-9.5 0 15 15 0 00-2.83 2.5 10.13 10.13 0 01-1.84 1.7 4.07 4.07 0 01-4.19 0 10.13 10.13 0 01-1.84-1.7 15 15 0 00-2.83-2.5 9 9 0 00-9.5 0 14.64 14.64 0 00-2.82 2.5 10.13 10.13 0 01-1.84 1.7 3.57 3.57 0 01-1.7.56h-3a3.56 3.56 0 01-1.69-.56 10.13 10.13 0 01-1.84-1.7 15.27 15.27 0 00-2.82-2.5 9 9 0 00-9.51 0 15 15 0 00-2.82 2.5 10.13 10.13 0 01-1.84 1.7 3.61 3.61 0 01-2.1.58 3.56 3.56 0 01-2.09-.58 10.41 10.41 0 01-1.85-1.69 14.64 14.64 0 00-2.82-2.5 9 9 0 00-9.5 0 15 15 0 00-2.83 2.5 10.4 10.4 0 01-1.84 1.69 4.07 4.07 0 01-4.19 0 10.13 10.13 0 01-1.84-1.7 15.27 15.27 0 00-2.82-2.5 9 9 0 00-9.51 0 14.64 14.64 0 00-2.82 2.5 10.13 10.13 0 01-1.84 1.7 3.61 3.61 0 01-2.1.58 3.56 3.56 0 01-2.09-.58 10.41 10.41 0 01-1.85-1.69 14.64 14.64 0 00-2.82-2.5 9 9 0 00-9.5 0 14.64 14.64 0 00-2.82 2.5 9.83 9.83 0 01-1.85 1.7 3.56 3.56 0 01-2.09.58 3.61 3.61 0 01-2.1-.58 10.13 10.13 0 01-1.84-1.7 14.64 14.64 0 00-2.82-2.5 9 9 0 00-9.51 0 15.27 15.27 0 00-2.82 2.5 10.13 10.13 0 01-1.84 1.7 3.5 3.5 0 01-1.93.57h-1.13a3.53 3.53 0 01-1.93-.57 10.4 10.4 0 01-1.84-1.69 14.64 14.64 0 00-2.82-2.5 9 9 0 00-9.51 0 14.86 14.86 0 00-2.81 2.5 10.48 10.48 0 01-1.85 1.7 4.07 4.07 0 01-4.19 0 10.13 10.13 0 01-1.84-1.7l-.11-.12.11.12a14.32 14.32 0 00-2.82-2.5 9 9 0 00-9.5 0 14.64 14.64 0 00-2.82 2.5 10.4 10.4 0 01-1.84 1.69 4.09 4.09 0 01-4.2 0 10.13 10.13 0 01-1.84-1.7l-.11-.12.11.12a14.92 14.92 0 00-2.82-2.5 9 9 0 00-9.51 0 15.27 15.27 0 00-2.82 2.5 10.13 10.13 0 01-1.84 1.7 4.07 4.07 0 01-4.19 0 10.13 10.13 0 01-1.84-1.7 15.27 15.27 0 00-2.82-2.5 9 9 0 00-9.51 0 15.27 15.27 0 00-2.82 2.5 10.13 10.13 0 01-1.84 1.7 4.07 4.07 0 01-4.19 0 10.4 10.4 0 01-1.84-1.69 14.64 14.64 0 00-2.82-2.5 9 9 0 00-9.5 0 14.64 14.64 0 00-2.82 2.5 9.83 9.83 0 01-1.85 1.7 3.55 3.55 0 01-1.92.57h-.91a3.55 3.55 0 01-1.92-.57 10.08 10.08 0 01-1.85-1.69 14.64 14.64 0 00-2.82-2.5 9 9 0 00-9.5 0 14.64 14.64 0 00-2.82 2.5 10.14 10.14 0 01-1.85 1.7 4.07 4.07 0 01-4.19 0 10.13 10.13 0 01-1.84-1.7 15.27 15.27 0 00-2.82-2.5 9 9 0 00-9.51 0 14.64 14.64 0 00-2.82 2.5 10.4 10.4 0 01-1.84 1.69 3.61 3.61 0 01-2.1.58 3.56 3.56 0 01-2.09-.58 9.83 9.83 0 01-1.85-1.7 14.64 14.64 0 00-2.82-2.5 9 9 0 00-9.5 0 14.64 14.64 0 00-2.82 2.5 10.14 10.14 0 01-1.85 1.7 4.07 4.07 0 01-4.19 0 10.4 10.4 0 01-1.84-1.69 15.27 15.27 0 00-2.82-2.5 9 9 0 00-9.51 0 15.27 15.27 0 00-2.82 2.5 10.13 10.13 0 01-1.84 1.7 4.07 4.07 0 01-4.19 0 10.4 10.4 0 01-1.84-1.69 15 15 0 00-2.83-2.5 9 9 0 00-9.5 0 14.64 14.64 0 00-2.82 2.5 10.13 10.13 0 01-1.84 1.7 3.51 3.51 0 01-1.78.56h-2.48a3.51 3.51 0 01-1.78-.56 10.13 10.13 0 01-1.84-1.7 14.64 14.64 0 00-2.82-2.5 9 9 0 00-9.51 0 15.27 15.27 0 00-2.82 2.5 10.13 10.13 0 01-1.84 1.7 4.07 4.07 0 01-4.19 0 10.4 10.4 0 01-1.84-1.69 15 15 0 00-2.83-2.5 9 9 0 00-9.5 0 14.64 14.64 0 00-2.82 2.5 10.13 10.13 0 01-1.84 1.7 4.09 4.09 0 01-4.2 0 10.13 10.13 0 01-1.84-1.7 14.64 14.64 0 00-2.82-2.5 9 9 0 00-9.51 0 15.27 15.27 0 00-2.82 2.5 10.13 10.13 0 01-1.84 1.7 4.07 4.07 0 01-4.19 0 10.13 10.13 0 01-1.84-1.7 15.27 15.27 0 00-2.82-2.5 9 9 0 00-9.51 0 15 15 0 00-2.82 2.5 10.13 10.13 0 01-1.84 1.7 4.07 4.07 0 01-4.19 0 10.48 10.48 0 01-1.85-1.7 14.64 14.64 0 00-2.82-2.5 9 9 0 00-9.5 0 14.64 14.64 0 00-2.82 2.5 9.83 9.83 0 01-1.85 1.7 4.07 4.07 0 01-4.19 0 10.13 10.13 0 01-1.84-1.7 14.64 14.64 0 00-2.82-2.5 9 9 0 00-9.51 0 15.27 15.27 0 00-2.82 2.5 10.13 10.13 0 01-1.84 1.7 4.07 4.07 0 01-4.19 0 10.13 10.13 0 01-1.84-1.7 15.27 15.27 0 00-2.82-2.5 9 9 0 00-9.51 0 14.64 14.64 0 00-2.82 2.5 9.83 9.83 0 01-1.85 1.7 3.56 3.56 0 01-2.09.58 3.61 3.61 0 01-2.1-.58 10.13 10.13 0 01-1.84-1.7 14.64 14.64 0 00-2.82-2.5 9 9 0 00-9.5 0 14.64 14.64 0 00-2.82 2.5 10.48 10.48 0 01-1.85 1.7 4.07 4.07 0 01-4.19 0 10.13 10.13 0 01-1.84-1.7 15.27 15.27 0 00-2.82-2.5 9 9 0 00-9.51 0 14.64 14.64 0 00-2.82 2.5 10.13 10.13 0 01-1.84 1.7 3.61 3.61 0 01-2.1.58 3.55 3.55 0 01-2.26-.71l-1.41-1-.55-.56a15.07 15.07 0 00-2.77-2.46 8.56 8.56 0 00-4.62-1.38h-.09a8.58 8.58 0 00-4.62 1.38 15 15 0 00-2.76 2.46 16 16 0 01-1.34 1.31l-.36.25-1 .43a3.87 3.87 0 01-1.51.28 3.58 3.58 0 01-2.09-.58 10.14 10.14 0 01-1.85-1.7 14.64 14.64 0 00-2.82-2.5 9 9 0 00-9.5 0 14.64 14.64 0 00-2.82 2.5 10.14 10.14 0 01-1.85 1.7 3.56 3.56 0 01-2.09.58 3.61 3.61 0 01-2.1-.58 10.4 10.4 0 01-1.84-1.69 15.27 15.27 0 00-2.82-2.5 9 9 0 00-9.51 0 15.27 15.27 0 00-2.82 2.5 10.13 10.13 0 01-1.84 1.7 4.07 4.07 0 01-4.19 0 10.13 10.13 0 01-1.84-1.7 14.64 14.64 0 00-2.82-2.5 9 9 0 00-9.5 0 14.64 14.64 0 00-2.82 2.5 10.13 10.13 0 01-1.84 1.7 3.61 3.61 0 01-2.1.58 3.56 3.56 0 01-2.09-.58 9.83 9.83 0 01-1.85-1.7 14.64 14.64 0 00-2.82-2.5 9 9 0 00-9.5 0 14.64 14.64 0 00-2.82 2.5 10.14 10.14 0 01-1.85 1.7 3.53 3.53 0 01-1.69.56h-3a3.53 3.53 0 01-1.69-.56 10.14 10.14 0 01-1.85-1.7 14.64 14.64 0 00-2.82-2.5 9 9 0 00-9.5 0 14.64 14.64 0 00-2.82 2.5 10.14 10.14 0 01-1.85 1.7 4.07 4.07 0 01-4.19 0 10.4 10.4 0 01-1.84-1.69 15.27 15.27 0 00-2.82-2.5 9 9 0 00-9.51 0 15 15 0 00-2.82 2.5 10.13 10.13 0 01-1.84 1.7 3.61 3.61 0 01-2.1.58 3.56 3.56 0 01-2.09-.58 9.83 9.83 0 01-1.85-1.7 14.64 14.64 0 00-2.82-2.5 9 9 0 00-9.5 0 14.64 14.64 0 00-2.82 2.5 10.14 10.14 0 01-1.85 1.7 4.07 4.07 0 01-4.19 0 10.13 10.13 0 01-1.84-1.7 15 15 0 00-2.82-2.5 9 9 0 00-9.5 0 15 15 0 00-2.83 2.5 10.13 10.13 0 01-1.84 1.7 4.07 4.07 0 01-4.19 0 10.13 10.13 0 01-1.84-1.7 15 15 0 00-2.83-2.5 9 9 0 00-9.5 0 14.64 14.64 0 00-2.82 2.5 10.13 10.13 0 01-1.84 1.7 3.53 3.53 0 01-1.93.57l-.57-.16-.56.16a3.5 3.5 0 01-1.93-.57 10.13 10.13 0 01-1.84-1.7 15.27 15.27 0 00-2.82-2.5 9 9 0 00-9.51 0 15 15 0 00-2.82 2.5 10.13 10.13 0 01-1.84 1.7 3.61 3.61 0 01-2.1.58 3.56 3.56 0 01-2.09-.58 10.41 10.41 0 01-1.85-1.69 14.64 14.64 0 00-2.82-2.5 8.62 8.62 0 00-4.75-1.35 8.62 8.62 0 00-4.75 1.35 15 15 0 00-2.83 2.5 10.4 10.4 0 01-1.84 1.69 3.58 3.58 0 01-2.09.58 3.59 3.59 0 01-2.1-.58 10.13 10.13 0 01-1.84-1.7 15 15 0 00-2.83-2.5 6 6 0 00-.66-.37q-1.91 1.65-3.64 3.47a4 4 0 011.73.59 11.17 11.17 0 011.94 1.78 14.47 14.47 0 002.71 2.42 8.31 8.31 0 004.58 1.31 8.3 8.3 0 004.57-1.31 14.47 14.47 0 002.71-2.42 11.17 11.17 0 011.94-1.78 4 4 0 012.29-.62 4 4 0 012.29.62 11.17 11.17 0 011.97 1.81 14.47 14.47 0 002.71 2.42 8.64 8.64 0 009.15 0 14.8 14.8 0 002.71-2.42 10.82 10.82 0 011.94-1.78 4.52 4.52 0 014.57 0 11.17 11.17 0 011.92 1.78 14.47 14.47 0 002.71 2.42 8.3 8.3 0 004.57 1.31 2.41 2.41 0 00.4 0 2.41 2.41 0 00.4 0 8.34 8.34 0 004.58-1.31 14.8 14.8 0 002.71-2.42 10.82 10.82 0 011.94-1.78 4.52 4.52 0 014.57 0 11.17 11.17 0 011.94 1.78 14.47 14.47 0 002.71 2.42 8.64 8.64 0 009.15 0 14.47 14.47 0 002.71-2.42 11.17 11.17 0 011.94-1.78 4.52 4.52 0 014.57 0 11.17 11.17 0 011.94 1.78 14.8 14.8 0 002.71 2.42 8.64 8.64 0 009.15 0 14.47 14.47 0 002.71-2.42 11.17 11.17 0 011.94-1.78 4.54 4.54 0 014.58 0 11.17 11.17 0 011.94 1.78 14.47 14.47 0 002.71 2.42 8.64 8.64 0 009.15 0 14.8 14.8 0 002.71-2.42 11.17 11.17 0 011.94-1.78 4.52 4.52 0 014.57 0 11.17 11.17 0 011.94 1.78 14.8 14.8 0 002.71 2.42 8.64 8.64 0 009.15 0 14.47 14.47 0 002.71-2.42 11.17 11.17 0 011.94-1.78 4.54 4.54 0 014.58 0 11.17 11.17 0 011.94 1.78 14.47 14.47 0 002.71 2.42 8.3 8.3 0 004.57 1.31 3.51 3.51 0 001.09-.19 3.63 3.63 0 001.1.19 8.3 8.3 0 004.57-1.31 14.47 14.47 0 002.71-2.42 11.17 11.17 0 011.94-1.78 4.54 4.54 0 014.58 0 11.17 11.17 0 011.94 1.78 14.47 14.47 0 002.71 2.42 8.63 8.63 0 009.14 0 14.47 14.47 0 002.71-2.42 11.17 11.17 0 011.94-1.78 4.54 4.54 0 014.58 0 11.17 11.17 0 011.94 1.78 14.47 14.47 0 002.71 2.42 8.64 8.64 0 009.15 0 14.8 14.8 0 002.71-2.42 11.17 11.17 0 011.94-1.78 4.52 4.52 0 014.57 0 11.17 11.17 0 011.94 1.78 14.8 14.8 0 002.71 2.42 8.64 8.64 0 009.15 0 14.47 14.47 0 002.71-2.42 11.17 11.17 0 011.94-1.78 4.54 4.54 0 014.58 0 11.17 11.17 0 011.94 1.78 14.47 14.47 0 002.71 2.42 8.3 8.3 0 004.57 1.31h.08l3.06-.48a8.57 8.57 0 002.65-1.52 18.77 18.77 0 001.79-1.73 11.2 11.2 0 011.91-1.75 4 4 0 014.36 0 10.82 10.82 0 011.9 1.75l.12.12a11.5 11.5 0 004.7 3l.57.19a6.46 6.46 0 002.17.4 8.34 8.34 0 004.58-1.31 14.8 14.8 0 002.71-2.42 10.82 10.82 0 011.94-1.78 4.52 4.52 0 014.57 0 11.17 11.17 0 011.94 1.78 14.47 14.47 0 002.71 2.42 8.64 8.64 0 009.15 0 14.47 14.47 0 002.71-2.42 11.17 11.17 0 011.94-1.78 4.54 4.54 0 014.58 0 11.16 11.16 0 011.93 1.78 14.89 14.89 0 002.72 2.42 8.63 8.63 0 009.14 0 14.47 14.47 0 002.71-2.42 11.17 11.17 0 011.94-1.78 4.54 4.54 0 014.58 0 11.17 11.17 0 011.94 1.78 14.47 14.47 0 002.71 2.42 8.64 8.64 0 009.15 0 14.47 14.47 0 002.71-2.42 11.17 11.17 0 011.94-1.78 4.52 4.52 0 014.57 0 10.82 10.82 0 011.94 1.78 15.14 15.14 0 002.71 2.42 8.64 8.64 0 009.15 0 14.47 14.47 0 002.71-2.42 11.17 11.17 0 011.94-1.78 4.54 4.54 0 014.58 0 11.17 11.17 0 011.94 1.78 14.47 14.47 0 002.71 2.42 8.64 8.64 0 009.15 0 14.8 14.8 0 002.71-2.42 11.17 11.17 0 011.94-1.78 4.52 4.52 0 014.57 0 11.17 11.17 0 011.94 1.78 14.47 14.47 0 002.71 2.42 8.64 8.64 0 009.15 0 14.47 14.47 0 002.71-2.42 11.17 11.17 0 011.94-1.78 4.52 4.52 0 014.57 0 10.82 10.82 0 011.94 1.78 14.8 14.8 0 002.71 2.42 8.64 8.64 0 009.15 0 14.47 14.47 0 002.71-2.42 11.54 11.54 0 011.94-1.78 4.54 4.54 0 014.58 0 11.17 11.17 0 011.94 1.78 14.36 14.36 0 002.7 2.41 8.64 8.64 0 009.15 0 14.47 14.47 0 002.71-2.42 11.17 11.17 0 011.94-1.78 4.54 4.54 0 014.58 0 11.16 11.16 0 011.93 1.78 14.8 14.8 0 002.71 2.42 8.34 8.34 0 004.58 1.31 3.93 3.93 0 00.92-.13 3.85 3.85 0 00.92.13 8.3 8.3 0 004.57-1.31 14.89 14.89 0 002.72-2.42 11.16 11.16 0 011.93-1.78 4.54 4.54 0 014.58 0 11.17 11.17 0 011.94 1.78 14.47 14.47 0 002.71 2.42 8.64 8.64 0 009.15 0 14.8 14.8 0 002.71-2.42 11.17 11.17 0 011.94-1.78 4.52 4.52 0 014.57 0 11.17 11.17 0 011.94 1.78 14.8 14.8 0 002.71 2.42 8.64 8.64 0 009.15 0 14.47 14.47 0 002.71-2.42 10.78 10.78 0 011.94-1.78 4.54 4.54 0 014.58 0 11.17 11.17 0 011.94 1.78 14.47 14.47 0 002.71 2.42 8.64 8.64 0 009.15 0 14.8 14.8 0 002.71-2.42 10.46 10.46 0 011.94-1.78 4.52 4.52 0 014.57 0 11.17 11.17 0 011.94 1.78 14.8 14.8 0 002.71 2.42 8.64 8.64 0 009.15 0 14.47 14.47 0 002.71-2.42 11.17 11.17 0 011.94-1.78 4.54 4.54 0 014.58 0 11.17 11.17 0 011.94 1.78 14.47 14.47 0 002.71 2.42 8.3 8.3 0 004.57 1.31h.57a8.3 8.3 0 004.57-1.31 14.47 14.47 0 002.71-2.42 11.17 11.17 0 011.94-1.78 4.54 4.54 0 014.58 0 11.17 11.17 0 011.94 1.78 14.47 14.47 0 002.71 2.42 8.64 8.64 0 009.15 0 14.8 14.8 0 002.71-2.42 11.17 11.17 0 011.94-1.78 4.52 4.52 0 014.57 0 11.17 11.17 0 011.94 1.78 14.47 14.47 0 002.71 2.42 8.64 8.64 0 009.15 0 14.47 14.47 0 002.71-2.42 10.78 10.78 0 011.94-1.78 4.54 4.54 0 014.58 0 11.54 11.54 0 011.94 1.78 14.45 14.45 0 002.68 2.38 8.64 8.64 0 009.15 0 15.14 15.14 0 002.71-2.42 10.77 10.77 0 011.93-1.78 4.54 4.54 0 014.58 0 11.17 11.17 0 011.94 1.78 14.47 14.47 0 002.71 2.42 8.64 8.64 0 009.15 0 14.47 14.47 0 002.71-2.42 11.17 11.17 0 011.94-1.78 4.54 4.54 0 014.58 0 11.16 11.16 0 011.93 1.78 14.8 14.8 0 002.71 2.42 8.34 8.34 0 004.58 1.31 2.41 2.41 0 00.4 0 2.33 2.33 0 00.4 0 8.3 8.3 0 004.57-1.31 14.47 14.47 0 002.71-2.42 11.17 11.17 0 011.94-1.78 4.52 4.52 0 014.57 0 10.84 10.84 0 012 1.78 14.47 14.47 0 002.71 2.42 8.63 8.63 0 009.14 0 14.47 14.47 0 002.71-2.42 11.17 11.17 0 011.94-1.78 4.54 4.54 0 014.58 0 11.17 11.17 0 011.94 1.78 14.47 14.47 0 002.71 2.42 8.63 8.63 0 009.14 0 14.89 14.89 0 002.72-2.42 10.82 10.82 0 011.94-1.78 4.52 4.52 0 014.57 0 11.17 11.17 0 011.94 1.78 14.47 14.47 0 002.71 2.42 8.64 8.64 0 009.15 0 14.47 14.47 0 002.71-2.42 11.17 11.17 0 011.94-1.78 4.54 4.54 0 014.58 0 11.17 11.17 0 011.94 1.78 14.47 14.47 0 002.71 2.42 8.64 8.64 0 009.15 0 14.8 14.8 0 002.71-2.42 11.17 11.17 0 011.94-1.78 4.52 4.52 0 014.57 0 11.17 11.17 0 011.94 1.78 14.47 14.47 0 002.71 2.42 8.27 8.27 0 004.56 1.31h2.21a8.27 8.27 0 004.56-1.31 14.89 14.89 0 002.72-2.42 10.82 10.82 0 011.94-1.78 4.52 4.52 0 014.57 0 11.17 11.17 0 011.94 1.78v.05a14.67 14.67 0 002.67 2.37 8.64 8.64 0 009.15 0 14.8 14.8 0 002.71-2.42 11.17 11.17 0 011.94-1.78 4.52 4.52 0 014.57 0 11.17 11.17 0 011.94 1.78 14.36 14.36 0 002.67 2.38 8.64 8.64 0 009.15 0 14.47 14.47 0 002.71-2.42 11.17 11.17 0 011.94-1.78 4.54 4.54 0 014.58 0 11.17 11.17 0 011.94 1.78 14.47 14.47 0 002.71 2.42 8.64 8.64 0 009.15 0 14.8 14.8 0 002.71-2.42 10.82 10.82 0 011.94-1.78 4.52 4.52 0 014.57 0 11.17 11.17 0 011.94 1.78 14.8 14.8 0 002.71 2.42 8.31 8.31 0 004.58 1.31 7.53 7.53 0 001.21-.02l1.8-.23a7.64 7.64 0 003.91-1.68 18.77 18.77 0 001.79-1.73 11.86 11.86 0 011.79-1.66 2.61 2.61 0 013.49 0 11.4 11.4 0 011.79 1.66 14.85 14.85 0 002.75 2.44l3.53.95a8.75 8.75 0 002.4.34 8.34 8.34 0 004.58-1.31 14.8 14.8 0 002.71-2.42 11.17 11.17 0 011.94-1.78 4.52 4.52 0 014.57 0 11.17 11.17 0 011.94 1.78 14.8 14.8 0 002.71 2.42 8.64 8.64 0 009.15 0 14.47 14.47 0 002.71-2.42 11.17 11.17 0 011.94-1.78 4.54 4.54 0 014.58 0 11.17 11.17 0 011.94 1.78 14.47 14.47 0 002.71 2.42 8.64 8.64 0 009.15 0 14.8 14.8 0 002.71-2.42 11.54 11.54 0 011.94-1.78 4.54 4.54 0 014.58 0 11.17 11.17 0 011.94 1.78 14.8 14.8 0 002.71 2.42 8.64 8.64 0 009.15 0 14.47 14.47 0 002.71-2.42 11.17 11.17 0 011.94-1.78 4.54 4.54 0 014.58 0 11.16 11.16 0 011.93 1.78 14.89 14.89 0 002.72 2.42 8.63 8.63 0 009.14 0 14.47 14.47 0 002.71-2.42 11.16 11.16 0 011.93-1.78 4.54 4.54 0 014.58 0 11.17 11.17 0 011.94 1.78 14.32 14.32 0 002.67 2.38 8.64 8.64 0 009.15 0 14.8 14.8 0 002.71-2.42 11.17 11.17 0 011.94-1.78 4.52 4.52 0 014.57 0 11.17 11.17 0 011.94 1.78 14.47 14.47 0 002.71 2.42 8.64 8.64 0 009.15 0 14.47 14.47 0 002.71-2.42 10.78 10.78 0 011.94-1.78 4.54 4.54 0 014.58 0 11.54 11.54 0 011.94 1.78 14.89 14.89 0 002.72 2.42 8.64 8.64 0 009.15 0 14.8 14.8 0 002.71-2.42 11.16 11.16 0 011.93-1.78 4.54 4.54 0 014.58 0 11.17 11.17 0 011.94 1.78 14.8 14.8 0 002.71 2.42 8.64 8.64 0 009.15 0 14.47 14.47 0 002.71-2.42 11.17 11.17 0 011.94-1.78 4.54 4.54 0 014.58 0 10.81 10.81 0 011.93 1.78 14.8 14.8 0 002.71 2.42 8.33 8.33 0 004.57 1.31h1.86a8.33 8.33 0 004.57-1.31 14.8 14.8 0 002.71-2.42 10.82 10.82 0 011.94-1.78 4.52 4.52 0 014.57 0 11.17 11.17 0 011.94 1.78 14.47 14.47 0 002.71 2.42 8.64 8.64 0 009.15 0 14.47 14.47 0 002.71-2.42 11.17 11.17 0 011.94-1.78 4.52 4.52 0 014.57 0 11.19 11.19 0 011.95 1.78 14.8 14.8 0 002.71 2.42 8.64 8.64 0 009.15 0 14.47 14.47 0 002.71-2.42 11.17 11.17 0 011.94-1.78 4.54 4.54 0 014.58 0 11.17 11.17 0 011.94 1.78 14.47 14.47 0 002.71 2.42 8.64 8.64 0 009.15 0 14.8 14.8 0 002.71-2.42 10.82 10.82 0 011.94-1.78 4.52 4.52 0 014.57 0 11.17 11.17 0 011.94 1.78 14.8 14.8 0 002.71 2.42 8.64 8.64 0 009.15 0 14.47 14.47 0 002.71-2.42 11.17 11.17 0 011.94-1.78 4.54 4.54 0 014.58 0 11.17 11.17 0 011.94 1.78 14.47 14.47 0 002.71 2.42 8.3 8.3 0 004.57 1.31h.57a8.3 8.3 0 004.57-1.31 14.47 14.47 0 002.71-2.42 11.17 11.17 0 011.94-1.78 4.54 4.54 0 014.58 0 11.17 11.17 0 011.94 1.78 14.47 14.47 0 002.71 2.42 8.64 8.64 0 009.15 0 14.8 14.8 0 002.71-2.42 11.17 11.17 0 011.94-1.78 4.52 4.52 0 014.57 0 11.17 11.17 0 011.94 1.78 14.47 14.47 0 002.71 2.42 8.64 8.64 0 009.15 0 14.47 14.47 0 002.71-2.42 11.17 11.17 0 011.94-1.78 4.54 4.54 0 014.58 0 11.17 11.17 0 011.94 1.78 14.47 14.47 0 002.71 2.42 8.64 8.64 0 009.15 0 14.8 14.8 0 002.71-2.42 11.54 11.54 0 011.94-1.78 4.54 4.54 0 014.58 0 11.17 11.17 0 011.94 1.78 14.8 14.8 0 002.71 2.42 8.64 8.64 0 009.15 0 14.47 14.47 0 002.71-2.42 11.17 11.17 0 011.94-1.78 4.54 4.54 0 014.58 0 11.17 11.17 0 011.94 1.78 14.47 14.47 0 002.71 2.42 8.3 8.3 0 004.57 1.31 2.68 2.68 0 01.8 0 8.3 8.3 0 004.57-1.31 14.47 14.47 0 002.71-2.42 11.17 11.17 0 011.94-1.78 4.54 4.54 0 014.58 0 11.17 11.17 0 011.94 1.78 14.47 14.47 0 002.71 2.42 8.63 8.63 0 009.14 0 14.47 14.47 0 002.71-2.42 11.17 11.17 0 011.94-1.78 4.54 4.54 0 014.58 0 11.17 11.17 0 011.94 1.78 14.47 14.47 0 002.71 2.42 8.64 8.64 0 009.15 0 15.14 15.14 0 002.71-2.42 11.17 11.17 0 011.94-1.78 4.52 4.52 0 014.57 0 11.17 11.17 0 011.94 1.78 14.8 14.8 0 002.71 2.42 8.64 8.64 0 009.15 0 14.47 14.47 0 002.71-2.42 11.17 11.17 0 011.94-1.78 4.54 4.54 0 014.58 0 11.17 11.17 0 011.94 1.78 14.47 14.47 0 002.71 2.42 8.64 8.64 0 009.15 0 14.8 14.8 0 002.71-2.42 11.17 11.17 0 011.94-1.78 4.52 4.52 0 014.57 0 11.17 11.17 0 011.94 1.78 14.8 14.8 0 002.71 2.42 8.3 8.3 0 004.57 1.31h2.2a8.33 8.33 0 004.57-1.31 14.8 14.8 0 002.71-2.42 10.82 10.82 0 011.94-1.78 3.94 3.94 0 012.28-.62 4 4 0 012.29.62 11.17 11.17 0 011.94 1.78 14.47 14.47 0 002.71 2.42 8.64 8.64 0 009.15 0 14.47 14.47 0 002.71-2.42 11.17 11.17 0 011.94-1.78 4.52 4.52 0 014.57 0 11.19 11.19 0 012 1.78 14.8 14.8 0 002.71 2.42 8.64 8.64 0 009.15 0 14.47 14.47 0 002.71-2.42 11.17 11.17 0 011.94-1.78 4.54 4.54 0 014.58 0 11.17 11.17 0 011.94 1.78 14.47 14.47 0 002.71 2.42 8.64 8.64 0 009.15 0 14.8 14.8 0 002.71-2.42 11.17 11.17 0 011.94-1.78 4.52 4.52 0 014.57 0 10.82 10.82 0 011.94 1.78 14.8 14.8 0 002.71 2.42 8.34 8.34 0 004.58 1.31h.08l1.89-.3a8 8 0 003.82-1.7 19.83 19.83 0 001.78-1.73 10.5 10.5 0 011.91-1.75 4 4 0 014.35 0 11.2 11.2 0 011.91 1.75 14.43 14.43 0 002.74 2.44l2.65.89a6.45 6.45 0 002.16.4 8.3 8.3 0 004.57-1.31 14.47 14.47 0 002.71-2.42 11.17 11.17 0 011.94-1.78 4.54 4.54 0 014.58 0 11.17 11.17 0 011.94 1.78 14.89 14.89 0 002.72 2.42 8.63 8.63 0 009.14 0 14.89 14.89 0 002.72-2.42 10.81 10.81 0 011.93-1.78 4.54 4.54 0 014.58 0 11.17 11.17 0 011.94 1.78 14.47 14.47 0 002.71 2.42 8.64 8.64 0 009.15 0 14.8 14.8 0 002.71-2.42 11.17 11.17 0 011.94-1.78 4.52 4.52 0 014.57 0 10.82 10.82 0 011.94 1.78l.22.23-.16-.17a14.09 14.09 0 002.65 2.35 8.63 8.63 0 009.14 0 14.47 14.47 0 002.71-2.42 11.17 11.17 0 011.94-1.78 4.54 4.54 0 014.58 0 10.78 10.78 0 011.94 1.78 14.47 14.47 0 002.71 2.42 8.64 8.64 0 009.15 0 14.8 14.8 0 002.71-2.42 11.17 11.17 0 011.94-1.78 4.52 4.52 0 014.57 0 11.17 11.17 0 011.94 1.78 14.8 14.8 0 002.71 2.42 8.64 8.64 0 009.15 0 14.47 14.47 0 002.71-2.42 11.17 11.17 0 011.94-1.78 4.54 4.54 0 014.58 0 11.17 11.17 0 011.94 1.78 14.69 14.69 0 002.7 2.41 8.64 8.64 0 009.15 0 14.47 14.47 0 002.71-2.42 10.77 10.77 0 011.93-1.78 4.54 4.54 0 014.58 0 11.17 11.17 0 011.94 1.78 14.47 14.47 0 002.71 2.42 8.64 8.64 0 009.15 0 14.47 14.47 0 002.71-2.42 11.17 11.17 0 011.94-1.78 4.54 4.54 0 014.58 0 11.17 11.17 0 011.94 1.78 14.89 14.89 0 002.72 2.42 8.63 8.63 0 009.14 0 14.47 14.47 0 002.71-2.42 11.17 11.17 0 011.94-1.78 4.54 4.54 0 014.58 0 11.17 11.17 0 011.94 1.78 14.47 14.47 0 002.71 2.42 8.3 8.3 0 004.57 1.31h1.84a8.31 8.31 0 004.58-1.31 14.47 14.47 0 002.71-2.42 10.78 10.78 0 011.94-1.78 4.54 4.54 0 014.58 0 11.54 11.54 0 011.94 1.78 14.57 14.57 0 002.72 2.42 8.63 8.63 0 009.14 0 14.89 14.89 0 002.72-2.42 10.81 10.81 0 011.93-1.78 4.54 4.54 0 014.58 0 11.17 11.17 0 011.94 1.78 14.47 14.47 0 002.71 2.42 8.63 8.63 0 009.14 0 14.57 14.57 0 002.72-2.42 10.6 10.6 0 011.93-1.76 4.52 4.52 0 014.57 0 11.17 11.17 0 011.94 1.78 14.8 14.8 0 002.71 2.42 8.64 8.64 0 009.15 0 14.47 14.47 0 002.71-2.42 11.17 11.17 0 011.94-1.78 4.54 4.54 0 014.58 0 11.17 11.17 0 011.94 1.78 14.47 14.47 0 002.71 2.42 8.64 8.64 0 009.15 0 14.8 14.8 0 002.71-2.42 10.82 10.82 0 011.94-1.78 4.52 4.52 0 014.57 0 11.17 11.17 0 011.94 1.78 14.47 14.47 0 002.71 2.42 8.07 8.07 0 002.76 1.11q-2.7-4.79-5.64-9.5zM1949.38 1044.35a9 9 0 00-8.83.37 15.27 15.27 0 00-2.82 2.5 10.13 10.13 0 01-1.84 1.7 3.61 3.61 0 01-2.1.58 3.56 3.56 0 01-2.09-.58 9.83 9.83 0 01-1.85-1.7 14.64 14.64 0 00-2.82-2.5 9 9 0 00-9.51 0 14.86 14.86 0 00-2.81 2.5 10.4 10.4 0 01-1.84 1.69 4.07 4.07 0 01-4.19 0 10.13 10.13 0 01-1.84-1.7 15 15 0 00-2.83-2.5 9 9 0 00-9.5 0 14.33 14.33 0 00-2.82 2.51 10.13 10.13 0 01-1.84 1.7 4.07 4.07 0 01-4.19 0 10.06 10.06 0 01-1.84-1.69 14.64 14.64 0 00-2.82-2.5 9 9 0 00-9.5 0 14.64 14.64 0 00-2.82 2.5 10.47 10.47 0 01-1.84 1.7 4.09 4.09 0 01-4.2 0 10.13 10.13 0 01-1.84-1.7 15 15 0 00-2.82-2.5 9 9 0 00-9.5 0 14.64 14.64 0 00-2.82 2.5 10.48 10.48 0 01-1.85 1.7 23.55 23.55 0 01-3.13.47 9.31 9.31 0 01-2.9-.47 10.48 10.48 0 01-1.85-1.7 14.64 14.64 0 00-2.82-2.5 9 9 0 00-9.5 0 14.64 14.64 0 00-2.82 2.5 10.13 10.13 0 01-1.84 1.7 4.09 4.09 0 01-4.2 0 10.13 10.13 0 01-1.84-1.7 15 15 0 00-2.82-2.5 9 9 0 00-9.51 0 15.27 15.27 0 00-2.82 2.5 10.13 10.13 0 01-1.84 1.7 4.07 4.07 0 01-4.19 0 10.48 10.48 0 01-1.85-1.7 14.64 14.64 0 00-2.82-2.5 9 9 0 00-9.5 0 14.64 14.64 0 00-2.82 2.5 9.83 9.83 0 01-1.85 1.7 4.07 4.07 0 01-4.19 0 10.47 10.47 0 01-1.84-1.7 14.64 14.64 0 00-2.82-2.5 9 9 0 00-9.5 0 14.64 14.64 0 00-2.82 2.5 10.14 10.14 0 01-1.85 1.7 4.07 4.07 0 01-4.19 0 10.13 10.13 0 01-1.84-1.7 15.27 15.27 0 00-2.82-2.5 9 9 0 00-9.51 0 15 15 0 00-2.82 2.5 10.13 10.13 0 01-1.84 1.7 4.07 4.07 0 01-4.19 0 10.14 10.14 0 01-1.85-1.7 14.54 14.54 0 00-2.81-2.51 9 9 0 00-9.51 0 14.64 14.64 0 00-2.82 2.5 9.83 9.83 0 01-1.85 1.7 4.06 4.06 0 01-4.18 0 9.83 9.83 0 01-1.85-1.7 14.64 14.64 0 00-2.82-2.5 9 9 0 00-9.5 0 15 15 0 00-2.83 2.5 10.13 10.13 0 01-1.84 1.7 4.07 4.07 0 01-4.19 0 10.13 10.13 0 01-1.84-1.7 15.27 15.27 0 00-2.82-2.5 9 9 0 00-9.51 0 14.64 14.64 0 00-2.82 2.5 10.13 10.13 0 01-1.84 1.7 4.09 4.09 0 01-4.2 0 10.4 10.4 0 01-1.84-1.69 14.64 14.64 0 00-2.82-2.5 9 9 0 00-9.5 0 14.64 14.64 0 00-2.82 2.5 10.14 10.14 0 01-1.85 1.7 4 4 0 01-4.36-.13l-1.4-1-.56-.57a15 15 0 00-2.76-2.46 8.58 8.58 0 00-4.62-1.38h-.09a8.56 8.56 0 00-4.62 1.38 15 15 0 00-2.76 2.46 13.62 13.62 0 01-1.35 1.32l-.36.25-1 .43a3.82 3.82 0 01-1.5.28 3.61 3.61 0 01-2.1-.58 10.13 10.13 0 01-1.84-1.7 15.27 15.27 0 00-2.82-2.5 9 9 0 00-9.51 0 15 15 0 00-2.82 2.5 10.13 10.13 0 01-1.84 1.7 3.61 3.61 0 01-2.1.58 3.56 3.56 0 01-2.09-.58 9.83 9.83 0 01-1.85-1.7 14.64 14.64 0 00-2.82-2.5 9 9 0 00-9.5 0 14.64 14.64 0 00-2.82 2.5 10.14 10.14 0 01-1.85 1.7 4.07 4.07 0 01-4.19 0 10.13 10.13 0 01-1.84-1.7 15.27 15.27 0 00-2.82-2.5 9 9 0 00-9.5 0 15 15 0 00-2.83 2.5 10.13 10.13 0 01-1.84 1.7 4.07 4.07 0 01-4.19 0 10.4 10.4 0 01-1.84-1.69 15.27 15.27 0 00-2.82-2.5 9 9 0 00-9.51 0 14.64 14.64 0 00-2.82 2.5 10.13 10.13 0 01-1.84 1.7 3.58 3.58 0 01-.79.38 24.06 24.06 0 01-4.8 0 3.58 3.58 0 01-.79-.38 10.13 10.13 0 01-1.84-1.7 15.27 15.27 0 00-2.82-2.5 9 9 0 00-9.51 0 15 15 0 00-2.82 2.5 10.13 10.13 0 01-1.84 1.7 4.07 4.07 0 01-4.19 0 10.77 10.77 0 01-1.85-1.69 14.61 14.61 0 00-2.82-2.5 9 9 0 00-9.5 0 14.64 14.64 0 00-2.82 2.5 10.14 10.14 0 01-1.85 1.7 4.07 4.07 0 01-4.19 0 10.13 10.13 0 01-1.84-1.7 15.27 15.27 0 00-2.82-2.5 9 9 0 00-9.51 0 15.27 15.27 0 00-2.82 2.5 10.13 10.13 0 01-1.84 1.7 4.07 4.07 0 01-4.19 0 10.48 10.48 0 01-1.85-1.7 14.64 14.64 0 00-2.82-2.5 9 9 0 00-9.5 0 14.64 14.64 0 00-2.82 2.5 10.13 10.13 0 01-1.84 1.7 4.09 4.09 0 01-4.2 0 10.13 10.13 0 01-1.84-1.7 14.64 14.64 0 00-2.82-2.5 9 9 0 00-9.5 0 14.64 14.64 0 00-2.82 2.5 10.48 10.48 0 01-1.85 1.7 3.5 3.5 0 01-1.93.57H1399a3.53 3.53 0 01-1.93-.57 10.13 10.13 0 01-1.84-1.7 14.64 14.64 0 00-2.82-2.5 9 9 0 00-9.5 0 14.64 14.64 0 00-2.82 2.5 10.14 10.14 0 01-1.85 1.7 4.07 4.07 0 01-4.19 0 10.4 10.4 0 01-1.84-1.69 15.27 15.27 0 00-2.82-2.5 9 9 0 00-9.51 0 14.64 14.64 0 00-2.82 2.5 10.4 10.4 0 01-1.84 1.69 3.61 3.61 0 01-2.1.58 3.56 3.56 0 01-2.09-.58 9.83 9.83 0 01-1.85-1.7 14.64 14.64 0 00-2.82-2.5 9 9 0 00-9.5 0 14.33 14.33 0 00-2.82 2.51 10.14 10.14 0 01-1.85 1.7 4.07 4.07 0 01-4.19 0 10.4 10.4 0 01-1.84-1.69 15.27 15.27 0 00-2.82-2.5 9 9 0 00-9.51 0 15.27 15.27 0 00-2.82 2.5 10.13 10.13 0 01-1.84 1.7 4.07 4.07 0 01-4.19 0 10.48 10.48 0 01-1.85-1.7 14.64 14.64 0 00-2.82-2.5 9 9 0 00-9.5 0 14.64 14.64 0 00-2.82 2.5 9.83 9.83 0 01-1.85 1.7 3.55 3.55 0 01-1.92.57l-.45-.09-.46.09a3.55 3.55 0 01-1.92-.57 10.14 10.14 0 01-1.85-1.7 14.64 14.64 0 00-2.82-2.5 9 9 0 00-9.5 0 14.64 14.64 0 00-2.82 2.5 10.14 10.14 0 01-1.85 1.7 4.07 4.07 0 01-4.19 0 10.4 10.4 0 01-1.84-1.69 15 15 0 00-2.82-2.5 9 9 0 00-9.51 0 14.63 14.63 0 00-2.82 2.51 10.13 10.13 0 01-1.84 1.7 3.61 3.61 0 01-2.1.58 3.56 3.56 0 01-2.09-.58 10.48 10.48 0 01-1.85-1.7 14.64 14.64 0 00-2.82-2.5 9 9 0 00-9.5 0 14.64 14.64 0 00-2.82 2.5 10.14 10.14 0 01-1.85 1.7 4.07 4.07 0 01-4.19 0 10.4 10.4 0 01-1.84-1.69 15.27 15.27 0 00-2.82-2.5 9 9 0 00-9.5 0 15 15 0 00-2.83 2.5 10.13 10.13 0 01-1.84 1.7 4.07 4.07 0 01-4.19 0 10.13 10.13 0 01-1.84-1.7 15.27 15.27 0 00-2.82-2.5 9 9 0 00-9.51 0 14.64 14.64 0 00-2.82 2.5 10.13 10.13 0 01-1.84 1.7 3.39 3.39 0 01-1.14.47 26.21 26.21 0 01-3.76 0 3.39 3.39 0 01-1.14-.47 10.13 10.13 0 01-1.84-1.7 14.64 14.64 0 00-2.82-2.5 9 9 0 00-9.5 0 14.64 14.64 0 00-2.82 2.5 10.48 10.48 0 01-1.85 1.7 4.07 4.07 0 01-4.19 0 10.4 10.4 0 01-1.84-1.69 15 15 0 00-2.83-2.5 9 9 0 00-9.5 0 14.64 14.64 0 00-2.82 2.5 10.26 10.26 0 01-1.82 1.68 4.09 4.09 0 01-4.2 0 10.13 10.13 0 01-1.84-1.7 14.64 14.64 0 00-2.82-2.5 9 9 0 00-9.51 0 14.86 14.86 0 00-2.81 2.5 10.48 10.48 0 01-1.85 1.7 4.07 4.07 0 01-4.19 0 10.4 10.4 0 01-1.84-1.69 15.27 15.27 0 00-2.82-2.5 9 9 0 00-9.51 0 15.27 15.27 0 00-2.82 2.5 10.13 10.13 0 01-1.84 1.7 4.07 4.07 0 01-4.19 0 10.48 10.48 0 01-1.85-1.7 14.64 14.64 0 00-2.82-2.5 9 9 0 00-9.5 0 14.64 14.64 0 00-2.82 2.5 9.83 9.83 0 01-1.85 1.7 3.56 3.56 0 01-2.09.58 3.61 3.61 0 01-2.1-.58 10.13 10.13 0 01-1.84-1.7 14.64 14.64 0 00-2.82-2.5 9 9 0 00-9.5 0 15 15 0 00-2.83 2.5 10.13 10.13 0 01-1.84 1.7 4.07 4.07 0 01-4.19 0 10.13 10.13 0 01-1.84-1.7 15.27 15.27 0 00-2.82-2.5 9 9 0 00-9.51 0 14.64 14.64 0 00-2.82 2.5 10.13 10.13 0 01-1.84 1.7 3.61 3.61 0 01-2.1.58 3.56 3.56 0 01-2.09-.58 9.83 9.83 0 01-1.85-1.7 14.64 14.64 0 00-2.82-2.5 9 9 0 00-9.5 0 14.64 14.64 0 00-2.82 2.5 10.48 10.48 0 01-1.85 1.7 4.07 4.07 0 01-4.19 0 10.13 10.13 0 01-1.84-1.7 15.27 15.27 0 00-2.82-2.5 9 9 0 00-9.51 0 15.27 15.27 0 00-2.82 2.5 10.13 10.13 0 01-1.84 1.7 3.61 3.61 0 01-2.1.58 3.57 3.57 0 01-1.72-.37 5.94 5.94 0 01-1.38-1l-3.9-2.5a12.2 12.2 0 00-.86-.67 8.49 8.49 0 00-4.13-1.49h-.43a8.45 8.45 0 00-4.12 1.49 10.71 10.71 0 00-.88.68 25.33 25.33 0 01-3.55 2.52l-1.25.73a3.57 3.57 0 01-2.19.65 3.61 3.61 0 01-2.1-.58 10.13 10.13 0 01-1.84-1.7 15.27 15.27 0 00-2.82-2.5 9 9 0 00-9.51 0 14.64 14.64 0 00-2.82 2.5 10.13 10.13 0 01-1.84 1.7 3.61 3.61 0 01-2.1.58 3.56 3.56 0 01-2.09-.58 9.83 9.83 0 01-1.85-1.7 14.64 14.64 0 00-2.82-2.5 9 9 0 00-9.5 0 14.64 14.64 0 00-2.82 2.5 10.14 10.14 0 01-1.85 1.7 4.07 4.07 0 01-4.19 0 10.13 10.13 0 01-1.84-1.7 15.27 15.27 0 00-2.82-2.5 9 9 0 00-9.5 0 15 15 0 00-2.83 2.5 10.13 10.13 0 01-1.84 1.7 4.07 4.07 0 01-4.19 0 10.13 10.13 0 01-1.84-1.7 15 15 0 00-2.83-2.5 9 9 0 00-9.5 0 14.64 14.64 0 00-2.82 2.5 10.13 10.13 0 01-1.84 1.7 3.58 3.58 0 01-.79.38 24.06 24.06 0 01-4.8 0 3.38 3.38 0 01-.79-.38 10.13 10.13 0 01-1.84-1.7 15.27 15.27 0 00-2.82-2.5 9 9 0 00-9.51 0 15 15 0 00-2.82 2.5 10.13 10.13 0 01-1.84 1.7 3.61 3.61 0 01-2.1.58 3.56 3.56 0 01-2.09-.58 10.41 10.41 0 01-1.85-1.69 14.64 14.64 0 00-2.82-2.5 9 9 0 00-9.5 0 15 15 0 00-2.83 2.5 10.4 10.4 0 01-1.84 1.69 4.07 4.07 0 01-4.19 0 10.13 10.13 0 01-1.84-1.7 15.27 15.27 0 00-2.82-2.5 9 9 0 00-9.51 0 14.64 14.64 0 00-2.82 2.5 10.13 10.13 0 01-1.84 1.7 3.61 3.61 0 01-2.1.58 3.56 3.56 0 01-2.09-.58 10.41 10.41 0 01-1.85-1.69 14.64 14.64 0 00-2.82-2.5 9 9 0 00-9.5 0 14.64 14.64 0 00-2.82 2.5 9.83 9.83 0 01-1.85 1.7 3.56 3.56 0 01-2.09.58 3.61 3.61 0 01-2.1-.58 10.13 10.13 0 01-1.84-1.7 14.64 14.64 0 00-2.82-2.5 9 9 0 00-9.51 0 15.27 15.27 0 00-2.82 2.5 10.13 10.13 0 01-1.84 1.7 3.5 3.5 0 01-1.93.57h-1.13a3.53 3.53 0 01-1.93-.57 10.4 10.4 0 01-1.84-1.69 14.64 14.64 0 00-2.82-2.5 9 9 0 00-9.51 0 14.86 14.86 0 00-2.81 2.5 10.48 10.48 0 01-1.85 1.7 4.07 4.07 0 01-4.19 0 10.13 10.13 0 01-1.84-1.7l-.11-.12.11.12a14.32 14.32 0 00-2.82-2.5 9 9 0 00-9.5 0 14.64 14.64 0 00-2.82 2.5 10.4 10.4 0 01-1.84 1.69 4.09 4.09 0 01-4.2 0 10.13 10.13 0 01-1.84-1.7l-.11-.12.11.12a14.92 14.92 0 00-2.82-2.5 9 9 0 00-9.51 0 15.27 15.27 0 00-2.82 2.5 10.13 10.13 0 01-1.84 1.7 4.07 4.07 0 01-4.19 0 10.13 10.13 0 01-1.84-1.7 15.27 15.27 0 00-2.82-2.5 9 9 0 00-9.51 0 15.27 15.27 0 00-2.82 2.5 10.13 10.13 0 01-1.84 1.7 4.07 4.07 0 01-4.19 0 10.4 10.4 0 01-1.84-1.69 14.64 14.64 0 00-2.82-2.5 9 9 0 00-9.5 0 14.64 14.64 0 00-2.82 2.5 9.83 9.83 0 01-1.85 1.7 3.55 3.55 0 01-1.92.57h-.91a3.55 3.55 0 01-1.92-.57 10.08 10.08 0 01-1.85-1.69 14.64 14.64 0 00-2.82-2.5 9 9 0 00-9.5 0 14.64 14.64 0 00-2.82 2.5 10.14 10.14 0 01-1.85 1.7 4.07 4.07 0 01-4.19 0 10.13 10.13 0 01-1.84-1.7 15.27 15.27 0 00-2.82-2.5 9 9 0 00-9.51 0 14.64 14.64 0 00-2.82 2.5 10.4 10.4 0 01-1.84 1.69 3.61 3.61 0 01-2.1.58 3.56 3.56 0 01-2.09-.58 9.83 9.83 0 01-1.85-1.7 14.64 14.64 0 00-2.82-2.5 9 9 0 00-9.5 0 14.64 14.64 0 00-2.82 2.5 10.14 10.14 0 01-1.85 1.7 4.07 4.07 0 01-4.19 0 10.4 10.4 0 01-1.84-1.69 15.27 15.27 0 00-2.82-2.5 9 9 0 00-9.51 0 15.27 15.27 0 00-2.82 2.5 10.13 10.13 0 01-1.84 1.7 4.07 4.07 0 01-4.19 0 10.4 10.4 0 01-1.84-1.69 15 15 0 00-2.83-2.5 9 9 0 00-9.5 0 14.64 14.64 0 00-2.82 2.5 10.13 10.13 0 01-1.84 1.7 3.43 3.43 0 01-1.13.47 26.35 26.35 0 01-3.77 0 3.31 3.31 0 01-1.14-.47 10.13 10.13 0 01-1.84-1.7 14.64 14.64 0 00-2.82-2.5 9 9 0 00-9.51 0 15.27 15.27 0 00-2.82 2.5 10.13 10.13 0 01-1.84 1.7 4.07 4.07 0 01-4.19 0 10.4 10.4 0 01-1.84-1.69 15 15 0 00-2.83-2.5 9 9 0 00-9.5 0 14.64 14.64 0 00-2.82 2.5 10.13 10.13 0 01-1.84 1.7 4.09 4.09 0 01-4.2 0 10.13 10.13 0 01-1.84-1.7 14.64 14.64 0 00-2.82-2.5 9 9 0 00-9.51 0 15.27 15.27 0 00-2.82 2.5 10.13 10.13 0 01-1.84 1.7 4.07 4.07 0 01-4.19 0 10.13 10.13 0 01-1.84-1.7 15.27 15.27 0 00-2.82-2.5 9 9 0 00-9.51 0 15 15 0 00-2.82 2.5 10.13 10.13 0 01-1.84 1.7 4.07 4.07 0 01-4.19 0 10.48 10.48 0 01-1.85-1.7 14.64 14.64 0 00-2.82-2.5 9 9 0 00-9.5 0 14.64 14.64 0 00-2.82 2.5 9.83 9.83 0 01-1.85 1.7 4.07 4.07 0 01-4.19 0 10.13 10.13 0 01-1.84-1.7 14.64 14.64 0 00-2.82-2.5 9 9 0 00-9.51 0 15.27 15.27 0 00-2.82 2.5 10.13 10.13 0 01-1.84 1.7 4.07 4.07 0 01-4.19 0 10.13 10.13 0 01-1.84-1.7 15.27 15.27 0 00-2.82-2.5 9 9 0 00-9.51 0 14.64 14.64 0 00-2.82 2.5 9.83 9.83 0 01-1.85 1.7 3.56 3.56 0 01-2.09.58 3.61 3.61 0 01-2.1-.58 10.13 10.13 0 01-1.84-1.7 14.64 14.64 0 00-2.82-2.5 9 9 0 00-9.5 0 14.64 14.64 0 00-2.82 2.5 10.48 10.48 0 01-1.85 1.7 4.07 4.07 0 01-4.19 0 10.13 10.13 0 01-1.84-1.7 15.27 15.27 0 00-2.82-2.5 9 9 0 00-9.51 0 14.64 14.64 0 00-2.82 2.5 10.13 10.13 0 01-1.84 1.7 3.61 3.61 0 01-2.1.58 3.55 3.55 0 01-2.26-.71l-1.41-1-.55-.56a15.07 15.07 0 00-2.77-2.46 8.56 8.56 0 00-4.62-1.38h-.09a8.58 8.58 0 00-4.62 1.38 15 15 0 00-2.76 2.46 16 16 0 01-1.34 1.31l-.36.25-1 .43a3.87 3.87 0 01-1.51.28 3.58 3.58 0 01-2.09-.58 10.14 10.14 0 01-1.85-1.7 14.64 14.64 0 00-2.82-2.5 9 9 0 00-9.5 0 14.64 14.64 0 00-2.82 2.5 10.14 10.14 0 01-1.85 1.7 3.56 3.56 0 01-2.09.58 3.61 3.61 0 01-2.1-.58 10.4 10.4 0 01-1.84-1.69 15.27 15.27 0 00-2.82-2.5 9 9 0 00-9.51 0 15.27 15.27 0 00-2.82 2.5 10.13 10.13 0 01-1.84 1.7 4.07 4.07 0 01-4.19 0 10.13 10.13 0 01-1.84-1.7 14.64 14.64 0 00-2.82-2.5 9 9 0 00-9.5 0 14.64 14.64 0 00-2.82 2.5 10.13 10.13 0 01-1.84 1.7 3.61 3.61 0 01-2.1.58 3.56 3.56 0 01-2.09-.58 9.83 9.83 0 01-1.85-1.7 14.64 14.64 0 00-2.82-2.5 9 9 0 00-9.5 0 14.64 14.64 0 00-2.82 2.5 10.14 10.14 0 01-1.85 1.7 3.53 3.53 0 01-1.69.56h-3a3.53 3.53 0 01-1.69-.56 10.14 10.14 0 01-1.85-1.7 14.64 14.64 0 00-2.82-2.5 9 9 0 00-9.5 0 14.64 14.64 0 00-2.82 2.5 10.14 10.14 0 01-1.85 1.7 4.07 4.07 0 01-4.19 0 10.4 10.4 0 01-1.84-1.69 15.27 15.27 0 00-2.82-2.5 9 9 0 00-9.51 0 15 15 0 00-2.82 2.5 10.13 10.13 0 01-1.84 1.7 3.61 3.61 0 01-2.1.58 3.56 3.56 0 01-2.09-.58 9.83 9.83 0 01-1.85-1.7 14.64 14.64 0 00-2.82-2.5 9 9 0 00-9.5 0 14.64 14.64 0 00-2.82 2.5 10.14 10.14 0 01-1.85 1.7 4.07 4.07 0 01-4.19 0 10.13 10.13 0 01-1.84-1.7 15 15 0 00-2.82-2.5 9 9 0 00-9.5 0 15 15 0 00-2.83 2.5 10.13 10.13 0 01-1.84 1.7 4.07 4.07 0 01-4.19 0 10.13 10.13 0 01-1.84-1.7 15 15 0 00-2.83-2.5 9 9 0 00-9.5 0 14.64 14.64 0 00-2.82 2.5 10.13 10.13 0 01-1.84 1.7 3.53 3.53 0 01-1.93.57l-.57-.16-.56.16a3.5 3.5 0 01-1.93-.57 10.13 10.13 0 01-1.84-1.7 15.27 15.27 0 00-2.82-2.5 9 9 0 00-9.51 0 15 15 0 00-2.82 2.5 10.13 10.13 0 01-1.84 1.7 3.61 3.61 0 01-2.1.58 3.56 3.56 0 01-2.09-.58 10.41 10.41 0 01-1.85-1.69 14.64 14.64 0 00-2.82-2.5 8.62 8.62 0 00-4.75-1.35 8.62 8.62 0 00-4.75 1.35 15 15 0 00-2.83 2.5 10.4 10.4 0 01-1.84 1.69 3.58 3.58 0 01-2.09.58 3.59 3.59 0 01-2.1-.58 10.13 10.13 0 01-1.84-1.7 15 15 0 00-2.83-2.5 6 6 0 00-.66-.37q-1.9 1.64-3.63 3.46a4 4 0 011.73.59 11.17 11.17 0 011.94 1.78 14.47 14.47 0 002.71 2.42 8.31 8.31 0 004.58 1.31 8.3 8.3 0 004.57-1.31 14.47 14.47 0 002.71-2.42 11.17 11.17 0 011.94-1.78 4 4 0 012.29-.62 4 4 0 012.29.62 11.17 11.17 0 011.97 1.81 14.47 14.47 0 002.71 2.42 8.64 8.64 0 009.15 0 14.8 14.8 0 002.71-2.42 10.82 10.82 0 011.94-1.78 4.52 4.52 0 014.57 0 11.17 11.17 0 011.92 1.78 14.47 14.47 0 002.71 2.42 8.3 8.3 0 004.57 1.31 2.41 2.41 0 00.4 0 2.41 2.41 0 00.4 0 8.34 8.34 0 004.58-1.31 14.8 14.8 0 002.71-2.42 10.82 10.82 0 011.94-1.78 4.52 4.52 0 014.57 0 11.17 11.17 0 011.94 1.78 14.47 14.47 0 002.71 2.42 8.64 8.64 0 009.15 0 14.47 14.47 0 002.71-2.42 11.17 11.17 0 011.94-1.78 4.52 4.52 0 014.57 0 11.17 11.17 0 011.94 1.78 14.8 14.8 0 002.71 2.42 8.64 8.64 0 009.15 0 14.47 14.47 0 002.71-2.42 11.17 11.17 0 011.94-1.78 4.54 4.54 0 014.58 0 11.17 11.17 0 011.94 1.78 14.47 14.47 0 002.71 2.42 8.64 8.64 0 009.15 0 14.8 14.8 0 002.71-2.42 11.17 11.17 0 011.94-1.78 4.52 4.52 0 014.57 0 11.17 11.17 0 011.94 1.78 14.8 14.8 0 002.71 2.42 8.64 8.64 0 009.15 0 14.47 14.47 0 002.71-2.42 11.17 11.17 0 011.94-1.78 4.54 4.54 0 014.58 0 11.17 11.17 0 011.94 1.78 14.47 14.47 0 002.71 2.42 8.3 8.3 0 004.57 1.31 3.51 3.51 0 001.09-.19 3.63 3.63 0 001.1.19 8.3 8.3 0 004.57-1.31 14.47 14.47 0 002.71-2.42 11.17 11.17 0 011.94-1.78 4.54 4.54 0 014.58 0 11.17 11.17 0 011.94 1.78 14.47 14.47 0 002.71 2.42 8.63 8.63 0 009.14 0 14.47 14.47 0 002.71-2.42 11.17 11.17 0 011.94-1.78 4.54 4.54 0 014.58 0 11.17 11.17 0 011.94 1.78 14.47 14.47 0 002.71 2.42 8.64 8.64 0 009.15 0 14.8 14.8 0 002.71-2.42 11.17 11.17 0 011.94-1.78 4.52 4.52 0 014.57 0 11.17 11.17 0 011.94 1.78 14.8 14.8 0 002.71 2.42 8.64 8.64 0 009.15 0 14.47 14.47 0 002.71-2.42 11.17 11.17 0 011.94-1.78 4.54 4.54 0 014.58 0 11.17 11.17 0 011.94 1.78 14.47 14.47 0 002.71 2.42 8.3 8.3 0 004.57 1.31h.08l3.06-.48a8.57 8.57 0 002.65-1.52 18.77 18.77 0 001.79-1.73 11.2 11.2 0 011.91-1.75 4 4 0 014.36 0 10.82 10.82 0 011.9 1.75l.23.24a10.93 10.93 0 004.43 2.84l.73.25a6.46 6.46 0 002.17.4 8.34 8.34 0 004.58-1.31 14.8 14.8 0 002.71-2.42 10.82 10.82 0 011.94-1.78 4.52 4.52 0 014.57 0 11.17 11.17 0 011.94 1.78 14.47 14.47 0 002.71 2.42 8.64 8.64 0 009.15 0 14.47 14.47 0 002.71-2.42 11.17 11.17 0 011.94-1.78 4.54 4.54 0 014.58 0 11.16 11.16 0 011.93 1.78 14.89 14.89 0 002.72 2.42 8.63 8.63 0 009.14 0 14.47 14.47 0 002.71-2.42 11.17 11.17 0 011.94-1.78 4.54 4.54 0 014.58 0 11.17 11.17 0 011.94 1.78 14.47 14.47 0 002.71 2.42 8.64 8.64 0 009.15 0 14.47 14.47 0 002.71-2.42 11.17 11.17 0 011.94-1.78 4.52 4.52 0 014.57 0 10.82 10.82 0 011.94 1.78 15.14 15.14 0 002.71 2.42 8.64 8.64 0 009.15 0 14.47 14.47 0 002.71-2.42 11.17 11.17 0 011.94-1.78 4.54 4.54 0 014.58 0 11.17 11.17 0 011.94 1.78 14.47 14.47 0 002.71 2.42 8.64 8.64 0 009.15 0 14.8 14.8 0 002.71-2.42 11.17 11.17 0 011.94-1.78 4.52 4.52 0 014.57 0 11.17 11.17 0 011.94 1.78 14.47 14.47 0 002.71 2.42 8.64 8.64 0 009.15 0 14.47 14.47 0 002.71-2.42 11.17 11.17 0 011.94-1.78 4.52 4.52 0 014.57 0 10.82 10.82 0 011.94 1.78 14.8 14.8 0 002.71 2.42 8.64 8.64 0 009.15 0 14.47 14.47 0 002.71-2.42 11.54 11.54 0 011.94-1.78 4.54 4.54 0 014.58 0 11.17 11.17 0 011.94 1.78 14.36 14.36 0 002.7 2.41 8.64 8.64 0 009.15 0 14.47 14.47 0 002.71-2.42 11.17 11.17 0 011.94-1.78 4.54 4.54 0 014.58 0 11.16 11.16 0 011.93 1.78 14.8 14.8 0 002.71 2.42 8.34 8.34 0 004.58 1.31h1.84a8.28 8.28 0 004.57-1.31 14.89 14.89 0 002.72-2.42 11.16 11.16 0 011.93-1.78 4.54 4.54 0 014.58 0 11.17 11.17 0 011.94 1.78 14.47 14.47 0 002.71 2.42 8.64 8.64 0 009.15 0 14.8 14.8 0 002.71-2.42 11.17 11.17 0 011.94-1.78 4.52 4.52 0 014.57 0 11.17 11.17 0 011.94 1.78 14.8 14.8 0 002.71 2.42 8.64 8.64 0 009.15 0 14.47 14.47 0 002.71-2.42 10.78 10.78 0 011.94-1.78 4.54 4.54 0 014.58 0 11.17 11.17 0 011.94 1.78 14.47 14.47 0 002.71 2.42 8.64 8.64 0 009.15 0 14.8 14.8 0 002.71-2.42 10.46 10.46 0 011.94-1.78 4.52 4.52 0 014.57 0 11.17 11.17 0 011.94 1.78 14.8 14.8 0 002.71 2.42 8.64 8.64 0 009.15 0 14.47 14.47 0 002.71-2.42 11.17 11.17 0 011.94-1.78 4.54 4.54 0 014.58 0 11.17 11.17 0 011.94 1.78 14.47 14.47 0 002.71 2.42 8.3 8.3 0 004.57 1.31h.57a8.3 8.3 0 004.57-1.31 14.47 14.47 0 002.71-2.42 11.17 11.17 0 011.94-1.78 4.54 4.54 0 014.58 0 11.17 11.17 0 011.94 1.78 14.47 14.47 0 002.71 2.42 8.64 8.64 0 009.15 0 14.8 14.8 0 002.71-2.42 11.17 11.17 0 011.94-1.78 4.52 4.52 0 014.57 0 11.17 11.17 0 011.94 1.78 14.47 14.47 0 002.71 2.42 8.64 8.64 0 009.15 0 14.47 14.47 0 002.71-2.42 10.78 10.78 0 011.94-1.78 4.54 4.54 0 014.58 0 11.54 11.54 0 011.94 1.78 14.45 14.45 0 002.68 2.38 8.64 8.64 0 009.15 0 15.14 15.14 0 002.71-2.42 10.77 10.77 0 011.93-1.78 4.54 4.54 0 014.58 0 11.17 11.17 0 011.94 1.78 14.47 14.47 0 002.71 2.42 8.64 8.64 0 009.15 0 14.47 14.47 0 002.71-2.42 11.17 11.17 0 011.94-1.78 4.54 4.54 0 014.58 0 11.16 11.16 0 011.93 1.78 14.8 14.8 0 002.71 2.42 8.34 8.34 0 004.58 1.31 2.41 2.41 0 00.4 0 2.33 2.33 0 00.4 0 8.3 8.3 0 004.57-1.31 14.47 14.47 0 002.71-2.42 11.17 11.17 0 011.94-1.78 4.52 4.52 0 014.57 0 10.84 10.84 0 012 1.78 14.47 14.47 0 002.71 2.42 8.63 8.63 0 009.14 0 14.47 14.47 0 002.71-2.42 11.17 11.17 0 011.94-1.78 4.54 4.54 0 014.58 0 11.17 11.17 0 011.94 1.78 14.47 14.47 0 002.71 2.42 8.63 8.63 0 009.14 0 14.89 14.89 0 002.72-2.42 10.82 10.82 0 011.94-1.78 4.52 4.52 0 014.57 0 11.17 11.17 0 011.94 1.78 14.47 14.47 0 002.71 2.42 8.64 8.64 0 009.15 0 14.47 14.47 0 002.71-2.42 11.17 11.17 0 011.94-1.78 4.54 4.54 0 014.58 0 11.17 11.17 0 011.94 1.78 14.47 14.47 0 002.71 2.42 8.64 8.64 0 009.15 0 14.8 14.8 0 002.71-2.42 11.17 11.17 0 011.94-1.78 4.52 4.52 0 014.57 0 11.17 11.17 0 011.94 1.78 14.47 14.47 0 002.71 2.42 8.27 8.27 0 004.56 1.31h2.21a8.27 8.27 0 004.56-1.31 14.89 14.89 0 002.72-2.42 10.82 10.82 0 011.94-1.78 4.52 4.52 0 014.57 0 11.17 11.17 0 011.94 1.78 14.67 14.67 0 002.67 2.37 8.64 8.64 0 009.15 0 14.8 14.8 0 002.71-2.42 11.17 11.17 0 011.94-1.78 4.52 4.52 0 014.57 0 11.17 11.17 0 011.94 1.78 14.36 14.36 0 002.67 2.38 8.64 8.64 0 009.15 0 14.47 14.47 0 002.71-2.42 11.17 11.17 0 011.94-1.78 4.54 4.54 0 014.58 0 11.17 11.17 0 011.94 1.78 14.47 14.47 0 002.71 2.42 8.64 8.64 0 009.15 0 14.8 14.8 0 002.71-2.42 10.82 10.82 0 011.94-1.78 4.52 4.52 0 014.57 0 11.17 11.17 0 011.94 1.78 14.8 14.8 0 002.71 2.42 8.31 8.31 0 004.58 1.31 7.53 7.53 0 001.21.01l2.15-.27a6.47 6.47 0 003.28-1.42l.28-.22a18.77 18.77 0 001.79-1.73 11.86 11.86 0 011.79-1.66 4 4 0 011.72-.67h.05a4 4 0 011.72.67 11.4 11.4 0 011.79 1.66 28.34 28.34 0 003 2.49l3.32.9a8.75 8.75 0 002.4.34 8.34 8.34 0 004.58-1.31 14.8 14.8 0 002.71-2.42 11.17 11.17 0 011.94-1.78 4.52 4.52 0 014.57 0 11.17 11.17 0 011.94 1.78 14.8 14.8 0 002.71 2.42 8.64 8.64 0 009.15 0 14.47 14.47 0 002.71-2.42 11.17 11.17 0 011.94-1.78 4.54 4.54 0 014.58 0 11.17 11.17 0 011.94 1.78 14.47 14.47 0 002.71 2.42 8.64 8.64 0 009.15 0 14.8 14.8 0 002.71-2.42 11.54 11.54 0 011.94-1.78 4.54 4.54 0 014.58 0 11.17 11.17 0 011.94 1.78 14.8 14.8 0 002.71 2.42 8.64 8.64 0 009.15 0 14.47 14.47 0 002.71-2.42 11.17 11.17 0 011.94-1.78 4.54 4.54 0 014.58 0 11.16 11.16 0 011.93 1.78 14.89 14.89 0 002.72 2.42 8.63 8.63 0 009.14 0 14.47 14.47 0 002.71-2.42 11.16 11.16 0 011.93-1.78 4.54 4.54 0 014.58 0 11.17 11.17 0 011.94 1.78 14.32 14.32 0 002.67 2.38 8.64 8.64 0 009.15 0 14.8 14.8 0 002.71-2.42 11.17 11.17 0 011.94-1.78 4.52 4.52 0 014.57 0 11.17 11.17 0 011.94 1.78 14.47 14.47 0 002.71 2.42 8.64 8.64 0 009.15 0 14.47 14.47 0 002.71-2.42 10.78 10.78 0 011.94-1.78 4.54 4.54 0 014.58 0 11.54 11.54 0 011.94 1.78 14.89 14.89 0 002.72 2.42 8.64 8.64 0 009.15 0 14.8 14.8 0 002.71-2.42 11.16 11.16 0 011.93-1.78 4.54 4.54 0 014.58 0 11.17 11.17 0 011.94 1.78 14.8 14.8 0 002.71 2.42 8.64 8.64 0 009.15 0 14.47 14.47 0 002.71-2.42 11.17 11.17 0 011.94-1.78 4.54 4.54 0 014.58 0 10.81 10.81 0 011.93 1.78 14.8 14.8 0 002.71 2.42 8.28 8.28 0 004.58 1.31h1.84a8.28 8.28 0 004.58-1.31 14.8 14.8 0 002.71-2.42 10.82 10.82 0 011.94-1.78 4.52 4.52 0 014.57 0 11.17 11.17 0 011.94 1.78 14.47 14.47 0 002.71 2.42 8.64 8.64 0 009.15 0 14.47 14.47 0 002.71-2.42 11.17 11.17 0 011.94-1.78 4.52 4.52 0 014.57 0 11.19 11.19 0 011.95 1.78 14.8 14.8 0 002.71 2.42 8.64 8.64 0 009.15 0 14.47 14.47 0 002.71-2.42 11.17 11.17 0 011.94-1.78 4.54 4.54 0 014.58 0 11.17 11.17 0 011.94 1.78 14.47 14.47 0 002.71 2.42 8.64 8.64 0 009.15 0 14.8 14.8 0 002.71-2.42 10.82 10.82 0 011.94-1.78 4.52 4.52 0 014.57 0 11.17 11.17 0 011.94 1.78 14.8 14.8 0 002.71 2.42 8.64 8.64 0 009.15 0 14.47 14.47 0 002.71-2.42 11.17 11.17 0 011.94-1.78 4.54 4.54 0 014.58 0 11.17 11.17 0 011.94 1.78 14.47 14.47 0 002.71 2.42 8.3 8.3 0 004.57 1.31h.57a8.3 8.3 0 004.57-1.31 14.47 14.47 0 002.71-2.42 11.17 11.17 0 011.94-1.78 4.54 4.54 0 014.58 0 11.17 11.17 0 011.94 1.78 14.47 14.47 0 002.71 2.42 8.64 8.64 0 009.15 0 14.8 14.8 0 002.71-2.42 11.17 11.17 0 011.94-1.78 4.52 4.52 0 014.57 0 11.17 11.17 0 011.94 1.78 14.47 14.47 0 002.71 2.42 8.64 8.64 0 009.15 0 14.47 14.47 0 002.71-2.42 11.17 11.17 0 011.94-1.78 4.54 4.54 0 014.58 0 11.17 11.17 0 011.94 1.78 14.47 14.47 0 002.71 2.42 8.64 8.64 0 009.15 0 14.8 14.8 0 002.71-2.42 11.54 11.54 0 011.94-1.78 4.54 4.54 0 014.58 0 11.17 11.17 0 011.94 1.78 14.8 14.8 0 002.71 2.42 8.64 8.64 0 009.15 0 14.47 14.47 0 002.71-2.42 11.17 11.17 0 011.94-1.78 4.54 4.54 0 014.58 0 11.17 11.17 0 011.94 1.78 14.47 14.47 0 002.71 2.42 8.3 8.3 0 004.57 1.31 2.68 2.68 0 01.8 0 8.3 8.3 0 004.57-1.31 14.47 14.47 0 002.71-2.42 11.17 11.17 0 011.94-1.78 4.54 4.54 0 014.58 0 11.17 11.17 0 011.94 1.78 14.47 14.47 0 002.71 2.42 8.63 8.63 0 009.14 0 14.47 14.47 0 002.71-2.42 11.17 11.17 0 011.94-1.78 4.54 4.54 0 014.58 0 11.17 11.17 0 011.94 1.78 14.47 14.47 0 002.71 2.42 8.64 8.64 0 009.15 0 15.14 15.14 0 002.71-2.42 11.17 11.17 0 011.94-1.78 4.52 4.52 0 014.57 0 11.17 11.17 0 011.94 1.78 14.8 14.8 0 002.71 2.42 8.64 8.64 0 009.15 0 14.47 14.47 0 002.71-2.42 11.17 11.17 0 011.94-1.78 4.54 4.54 0 014.58 0 11.17 11.17 0 011.94 1.78 14.47 14.47 0 002.71 2.42 8.64 8.64 0 009.15 0 14.8 14.8 0 002.71-2.42 11.17 11.17 0 011.94-1.78 4.52 4.52 0 014.57 0 11.17 11.17 0 011.94 1.78 14.8 14.8 0 002.71 2.42 8.3 8.3 0 004.57 1.31h2.2a8.33 8.33 0 004.57-1.31 14.8 14.8 0 002.71-2.42 10.82 10.82 0 011.94-1.78 3.94 3.94 0 012.28-.62 4 4 0 012.29.62 11.17 11.17 0 011.94 1.78 14.47 14.47 0 002.71 2.42 8.64 8.64 0 009.15 0 14.47 14.47 0 002.71-2.42 11.17 11.17 0 011.94-1.78 4.52 4.52 0 014.57 0 11.19 11.19 0 012 1.78 14.8 14.8 0 002.71 2.42 8.64 8.64 0 009.15 0 14.47 14.47 0 002.71-2.42 11.17 11.17 0 011.94-1.78 4.54 4.54 0 014.58 0 11.17 11.17 0 011.94 1.78 14.47 14.47 0 002.71 2.42 8.64 8.64 0 009.15 0 14.8 14.8 0 002.71-2.42 11.17 11.17 0 011.94-1.78 4.52 4.52 0 014.57 0 10.82 10.82 0 011.94 1.78 14.8 14.8 0 002.71 2.42 8.34 8.34 0 004.58 1.31h.08l1.89-.3a8 8 0 003.82-1.7 19.83 19.83 0 001.78-1.73 10.5 10.5 0 011.91-1.75 4 4 0 014.35 0 11.2 11.2 0 011.91 1.75 14.43 14.43 0 002.74 2.44l2.65.89a6.45 6.45 0 002.16.4 8.3 8.3 0 004.57-1.31 14.47 14.47 0 002.71-2.42 11.17 11.17 0 011.94-1.78 4.54 4.54 0 014.58 0 11.17 11.17 0 011.94 1.78 14.89 14.89 0 002.72 2.42 8.63 8.63 0 009.14 0 14.89 14.89 0 002.72-2.42 10.81 10.81 0 011.93-1.78 4.54 4.54 0 014.58 0 11.17 11.17 0 011.94 1.78 14.47 14.47 0 002.71 2.42 8.64 8.64 0 009.15 0 14.8 14.8 0 002.71-2.42 11.17 11.17 0 011.94-1.78 4.52 4.52 0 014.57 0 10.82 10.82 0 011.94 1.78l.22.23-.16-.17a14.09 14.09 0 002.65 2.35 8.63 8.63 0 009.14 0 14.47 14.47 0 002.71-2.42 11.17 11.17 0 011.94-1.78 4.54 4.54 0 014.58 0 10.78 10.78 0 011.94 1.78 14.47 14.47 0 002.71 2.42 8.64 8.64 0 009.15 0 14.8 14.8 0 002.71-2.42 11.17 11.17 0 011.94-1.78 4.52 4.52 0 014.57 0 11.17 11.17 0 011.94 1.78 14.8 14.8 0 002.71 2.42 8.64 8.64 0 009.15 0 14.47 14.47 0 002.71-2.42 11.17 11.17 0 011.94-1.78 4.54 4.54 0 014.58 0 11.17 11.17 0 011.94 1.78 14.69 14.69 0 002.7 2.41 8.64 8.64 0 009.15 0 14.47 14.47 0 002.71-2.42 10.77 10.77 0 011.93-1.78 4.54 4.54 0 014.58 0 11.17 11.17 0 011.94 1.78 14.47 14.47 0 002.71 2.42 8.64 8.64 0 009.15 0 14.47 14.47 0 002.71-2.42 11.17 11.17 0 011.94-1.78 4.54 4.54 0 014.58 0 11.17 11.17 0 011.94 1.78 14.89 14.89 0 002.72 2.42 8.63 8.63 0 009.14 0 14.47 14.47 0 002.71-2.42 11.17 11.17 0 011.94-1.78 4.54 4.54 0 014.58 0 11.17 11.17 0 011.94 1.78 14.47 14.47 0 002.71 2.42 8.3 8.3 0 004.57 1.31h1.84a8.31 8.31 0 004.58-1.31 14.47 14.47 0 002.71-2.42 10.78 10.78 0 011.94-1.78 4.54 4.54 0 014.58 0 11.54 11.54 0 011.94 1.78 14.57 14.57 0 002.72 2.42 8.63 8.63 0 009.14 0 14.89 14.89 0 002.72-2.42 10.81 10.81 0 011.93-1.78 4.54 4.54 0 014.58 0 11.17 11.17 0 011.94 1.78 14.47 14.47 0 002.71 2.42 8.63 8.63 0 009.14 0 14.57 14.57 0 002.72-2.42 10.6 10.6 0 011.93-1.76 4.52 4.52 0 014.57 0 11.17 11.17 0 011.94 1.78 14.8 14.8 0 002.71 2.42 8.64 8.64 0 009.15 0 14.47 14.47 0 002.71-2.42 11.17 11.17 0 011.94-1.78 4.54 4.54 0 014.58 0 11.17 11.17 0 011.94 1.78 14.47 14.47 0 002.71 2.42 8.64 8.64 0 009.15 0 14.8 14.8 0 002.71-2.42 10.82 10.82 0 011.94-1.78 4.52 4.52 0 014.57 0 11.17 11.17 0 011.94 1.78 14.47 14.47 0 002.71 2.42 8.07 8.07 0 002.76 1.11q-2.74-4.79-5.68-9.5z"/><g class="cls-3"><path class="cls-4" d="M1158.19 911h-4.06v-40.96h55.9v4.07h-51.84V911z"/><path class="cls-4" d="M1166.09 872.08h-4.06v-19.24h24.37v10.63h-4.06v-6.57h-16.25v15.18zM1051.19 867.51v-3.95h98.26V911h-4.06v-43.38h-90.14M990.33 833.44h2.26v27.92h-2.26zM1012.89 833.44h2.26v17.49h-2.26z"/><path class="cls-4" d="M991.46 837.67h22.56v2.26h-22.56zM1064.79 847.4h2.26v18.19h-2.26zM1081.99 847.4h2.26v18.19h-2.26z"/><path class="cls-4" d="M1065.91 851.21h17.2v2.26h-17.2zM1116.4 847.4h2.26v18.19h-2.26zM1133.6 847.4h2.26v18.19h-2.26z"/><path class="cls-4" d="M1117.53 851.21h17.2v2.26h-17.2zM1015.71 881.1h6.77v4.32h-6.77zM1015.71 890.6h6.77v4.32h-6.77zM1015.71 900.09h6.77v4.32h-6.77zM1029.63 881.1h6.77v4.32h-6.77zM1029.63 890.6h6.77v4.32h-6.77zM1029.63 900.09h6.77v4.32h-6.77zM1059.15 872.55h42.3v2.8h-42.3zM1059.15 882.23h42.3v2.8h-42.3zM1059.15 891.92h42.3v2.8h-42.3zM1059.15 901.61h42.3v2.8h-42.3zM1113.58 872.55h25.85v2.8h-25.85zM1113.58 882.23h25.85v2.8h-25.85zM1113.58 891.92h25.85v2.8h-25.85zM1113.58 901.61h25.85v2.8h-25.85zM1163.54 880.5h43.57v2.8h-43.57zM1163.54 887.93h43.57v2.8h-43.57zM1163.54 895.37h43.57v2.8h-43.57zM1163.54 902.8h43.57v2.8h-43.57zM1168.57 859.1h1.88v8.08h-1.88zM1173.27 859.1h1.88v8.08h-1.88zM1177.97 859.1h1.88v8.08h-1.88z"/></g></g></svg>