<svg xmlns="http://www.w3.org/2000/svg" width="1920" height="1080" viewBox="0 0 1920 1080"><defs/><defs><style>.cls-2,.cls-4,.cls-7,.cls-9{fill:#fff}.cls-2{opacity:.1}.cls-3,.cls-7{opacity:.57}.cls-5{fill:none}.cls-8,.cls-9{opacity:.64}</style></defs><g id="Layer_2_copy" data-name="Layer 2 copy"><path d="M-11 709s298 72 498-71 424-144 638-10c289.94 181.55 602-25 807-232s110 797 110 797l-2099-30z" opacity=".08" fill="#fff"/><path class="cls-2" d="M1696 693.23c-235 61.77-203.82-270.42-504-296.44-261.68-22.67-458.18 303.85-615.09 342.92-152.79 38-330.82-207.84-576.91-99V1091h1940V691c-62.27-21.75-143-24.34-244 2.23z"/><path class="cls-2" d="M1666.79 400.37c-87.31-6.4-107.48 132.11-34.88 143 59.36 8.93 146.55-134.81 34.88-143zM418.44 411.08c-42.25 69.08 41.69 232.11 139.34 87.64C626.9 396.44 482.11 307 418.44 411.08z"/><g class="cls-3"><path class="cls-4" d="M1891.18 481.83h-34.91a.93.93 0 01-.86-.56 30.68 30.68 0 00-39.41-16.58.93.93 0 01-1.26-.8 28.41 28.41 0 00-55.14-7.55.91.91 0 01-.59.57.92.92 0 01-.82-.13 29.52 29.52 0 00-46.78 24 .93.93 0 01-.93.93H1681a.93.93 0 010-1.86h28.57a31.45 31.45 0 0131.4-30.48 31.06 31.06 0 0117.31 5.23 30.27 30.27 0 0158.2 8 32.19 32.19 0 0110.66-1.82 32.55 32.55 0 0129.73 19.22h34.31a.93.93 0 110 1.85zM1921.05 481.83h-17.31a.93.93 0 110-1.85h17.31a.93.93 0 110 1.85zM1667.74 481.83h-17.31a.93.93 0 010-1.85h17.31a.93.93 0 110 1.85z"/></g><g class="cls-3"><path class="cls-4" d="M677.29 179.57h-46.41a1.24 1.24 0 01-1.14-.76 40.73 40.73 0 00-52.4-22 1.24 1.24 0 01-1.68-1.07 37.77 37.77 0 00-73.29-10 1.24 1.24 0 01-1.88.59 38.91 38.91 0 00-22.89-7.4 39.33 39.33 0 00-39.29 39.29 1.23 1.23 0 01-1.23 1.23h-39.19a1.23 1.23 0 110-2.46h38a41.81 41.81 0 0141.74-40.53 41.36 41.36 0 0123 7A40.22 40.22 0 01578 153.91a43.24 43.24 0 0153.71 23.19h45.61a1.24 1.24 0 110 2.47zM717 179.57h-23a1.24 1.24 0 010-2.47h23a1.24 1.24 0 010 2.47zM380.27 179.57h-23a1.24 1.24 0 010-2.47h23a1.24 1.24 0 010 2.47z"/></g><g class="cls-3"><path class="cls-4" d="M735.94 508.12h-35a1.1 1.1 0 01-1.1-1.1 35.06 35.06 0 00-55.55-28.49 1.11 1.11 0 01-1 .16 1.14 1.14 0 01-.71-.68 33.73 33.73 0 00-65.45 9 1.07 1.07 0 01-1.18 1 1.1 1.1 0 01-1-1.17 35.93 35.93 0 0169.22-10.9 37.26 37.26 0 0157.84 30h33.92a1.1 1.1 0 010 2.2zM772.22 508.28h-20.55a1.1 1.1 0 110-2.2h20.55a1.1 1.1 0 010 2.2z"/><g><path class="cls-4" d="M465.31 481.65h-35a1.1 1.1 0 010-2.2h33.92a37.26 37.26 0 0157.84-30 35.93 35.93 0 0169.22 10.89 1.1 1.1 0 01-1 1.17 1.08 1.08 0 01-1.18-1 33.73 33.73 0 00-65.46-9 1.06 1.06 0 01-.7.68 1.08 1.08 0 01-1-.15 35.06 35.06 0 00-55.55 28.48 1.1 1.1 0 01-1.09 1.13zM414.57 481.82H394a1.1 1.1 0 010-2.2h20.55a1.1 1.1 0 110 2.2z"/></g></g><g class="cls-3"><path class="cls-4" d="M1762.76 108.35h-35a1.1 1.1 0 01-1.1-1.1 35.06 35.06 0 00-55.55-28.49 1.11 1.11 0 01-1 .16 1.14 1.14 0 01-.71-.68 33.73 33.73 0 00-65.45 9 1.08 1.08 0 01-1.18 1 1.1 1.1 0 01-1-1.17A35.93 35.93 0 011671 76.16a37.26 37.26 0 0157.84 30h33.92a1.1 1.1 0 010 2.2zM1799 108.51h-20.55a1.1 1.1 0 110-2.2H1799a1.1 1.1 0 010 2.2z"/><g><path class="cls-4" d="M1492.13 81.88h-35a1.1 1.1 0 110-2.2h33.92a37.33 37.33 0 0137.28-36.19 36.93 36.93 0 0120.55 6.21 35.93 35.93 0 0169.23 10.89 1.1 1.1 0 01-1 1.17 1.08 1.08 0 01-1.18-1 33.73 33.73 0 00-65.46-9 1.06 1.06 0 01-.7.68 1.08 1.08 0 01-1-.15 35.06 35.06 0 00-55.55 28.48 1.1 1.1 0 01-1.09 1.11zM1441.39 82.05h-20.55a1.1 1.1 0 110-2.2h20.55a1.1 1.1 0 110 2.2z"/></g></g><path class="cls-5" d="M3-7h1920v1080H3z"/><g opacity=".2"><path class="cls-5" d="M1355.76 192.17a9 9 0 106.38 2.65 9 9 0 00-6.38-2.65zM1018.48 329.18a9 9 0 106.39 2.65 9 9 0 00-6.39-2.65zM529.06 236.33a9 9 0 106.38 2.65 9 9 0 00-6.38-2.65zM1524 499.29a9 9 0 106.38 2.64 9 9 0 00-6.38-2.64zM314.89 473.56a9 9 0 106.38 2.64 9 9 0 00-6.38-2.64zM1690.55 96a9 9 0 106.38 2.64 8.94 8.94 0 00-6.38-2.64zM1821.32 83a9 9 0 106.38 2.64 9 9 0 00-6.38-2.64zM177.88 136.28a9 9 0 106.38 2.65 9 9 0 00-6.38-2.65z"/><path class="cls-4" d="M1404.46 420.67h-4.62V416a1.5 1.5 0 10-3 0v4.63h-4.62a1.5 1.5 0 000 3h4.62v4.62a1.5 1.5 0 003 0v-4.62h4.62a1.5 1.5 0 000-3zM222.13 175.5h-4.62v-4.62a1.5 1.5 0 00-3 0v4.62h-4.63a1.5 1.5 0 000 3h4.63v4.62a1.5 1.5 0 003 0v-4.62h4.62a1.5 1.5 0 000-3zM56.7 132.47h-4.62v-4.62a1.5 1.5 0 00-3 0v4.62h-4.63a1.5 1.5 0 000 3h4.63v4.63a1.5 1.5 0 003 0v-4.63h4.62a1.5 1.5 0 100-3zM187.94 556.31h-4.63v-4.62a1.5 1.5 0 00-3 0v4.62h-4.62a1.5 1.5 0 000 3h4.62v4.63a1.5 1.5 0 003 0v-4.63h4.63a1.5 1.5 0 100-3zM88.2 104a1.5 1.5 0 00-1.5-1.5h-4.62v-4.65a1.5 1.5 0 00-3 0v4.62h-4.63a1.5 1.5 0 000 3h4.63v4.63a1.5 1.5 0 003 0v-4.63h4.62a1.5 1.5 0 001.5-1.47zM1569.11 328.67h-4.62V324a1.5 1.5 0 10-3 0v4.63h-4.63a1.5 1.5 0 000 3h4.63v4.62a1.5 1.5 0 003 0v-4.62h4.62a1.5 1.5 0 000-3zM1810.43 569h-4.62v-4.62a1.5 1.5 0 10-3 0V569h-4.63a1.5 1.5 0 000 3h4.63v4.63a1.5 1.5 0 003 0V572h4.62a1.5 1.5 0 000-3zM1581.27 298.33a2.83 2.83 0 102.83 2.83 2.83 2.83 0 00-2.83-2.83zM1830.71 526.62a2.83 2.83 0 102.83 2.83 2.83 2.83 0 00-2.83-2.83z"/><circle class="cls-4" cx="1860.08" cy="570.47" r="11.92" transform="rotate(-16.85 1859.51 570.38)"/><path class="cls-4" d="M88.2 175a2.83 2.83 0 102.8 2.8 2.83 2.83 0 00-2.8-2.8zM184.64 384a2.83 2.83 0 10-2.83-2.83 2.83 2.83 0 002.83 2.83zM33.85 584.15a2.83 2.83 0 102.83 2.85 2.83 2.83 0 00-2.83-2.85zM177.09 392.35a2.83 2.83 0 102.83-2.83 2.83 2.83 0 00-2.83 2.83z"/><circle class="cls-4" cx="1620.22" cy="190.7" r="11.02"/><circle class="cls-4" cx="368.94" cy="403.52" r="11.02" transform="rotate(-67.5 368.94 403.52)"/><path class="cls-4" d="M529.06 232.33a13 13 0 1013 13 13 13 0 00-13-13zm6.38 19.41a9 9 0 112.65-6.38 9 9 0 01-2.65 6.38zM314.89 403.56a13 13 0 1013 13 13 13 0 00-13-13zm6.38 19.4a9 9 0 112.65-6.38 9 9 0 01-2.65 6.42zM177.88 132.28a13 13 0 1013 13 13 13 0 00-13-13zm6.38 19.41a9 9 0 112.64-6.38 9 9 0 01-2.64 6.38zM781.3 89.58h-4.62V85a1.5 1.5 0 00-3 0v4.62h-4.63a1.5 1.5 0 000 3h4.63v4.58a1.5 1.5 0 103 0v-4.62h4.62a1.5 1.5 0 000-3zM1303.35 328.62a2.83 2.83 0 102.83 2.83 2.83 2.83 0 00-2.83-2.83zM1320.52 333.34a2.83 2.83 0 102.83 2.83 2.83 2.83 0 00-2.83-2.83z"/><circle class="cls-4" cx="691.9" cy="315.01" r="11.02"/><path class="cls-4" d="M1276.69 136.12a11 11 0 1011 11 11 11 0 00-11-11zM1355.76 188.17a13 13 0 1013 13 13 13 0 00-13-13zm6.38 19.41a9 9 0 112.64-6.38 9 9 0 01-2.64 6.38zM743.48 116.18a13 13 0 1013 13 13 13 0 00-13-13zm6.39 19.41a9 9 0 112.64-6.38 9 9 0 01-2.64 6.38zM1690.55 92a13 13 0 1013 13 13 13 0 00-13-13zm6.38 19.4a9 9 0 112.64-6.38 9 9 0 01-2.64 6.36zM1821.32 79a13 13 0 1013 13 13 13 0 00-13-13zm6.38 19.41a9 9 0 112.65-6.38 9 9 0 01-2.65 6.33zM1524 495.29a13 13 0 1013 13 13 13 0 00-13-13zm6.38 19.41a9 9 0 112.64-6.39 9 9 0 01-2.67 6.39z"/></g><path class="cls-7" d="M85.59 337.54a.74.74 0 01-.8-.62 25.2 25.2 0 00-9.94 18.36.77.77 0 00.72.82.74.74 0 00.82-.72 23.66 23.66 0 0145.91-6.29.76.76 0 00.49.48.77.77 0 00.69-.11 24.59 24.59 0 0139 20 .78.78 0 00.77.77h24.55a.77.77 0 100-1.54H164a26.19 26.19 0 00-26.15-25.39 25.88 25.88 0 00-14.41 4.36A25.28 25.28 0 00100 331.78a25 25 0 00-13.76 4.12c0 .27 0 .54.07.82a.77.77 0 01-.72.82zM213.2 368.78h-14.42a.78.78 0 000 1.55h14.42a.78.78 0 000-1.55z"/><path class="cls-7" d="M23.34 326.27a24.46 24.46 0 0114.34 4.63.72.72 0 00.68.11.76.76 0 00.49-.48 23.66 23.66 0 0145.91 6.29v.1a.74.74 0 00.8.62.77.77 0 00.71-.82c0-.28 0-.55-.07-.82a25.2 25.2 0 00-48.48-6.82A26.06 26.06 0 003 334.46V337a24.62 24.62 0 0120.34-10.73z"/><g class="cls-8"><path class="cls-4" d="M1853.39 966.76H92.35v-2.86h1758.18v-19.09H30.07v-18.22h1874.08v-16.9H12.31v-2.85H1907v22.6H32.92v12.51h1820.47v24.81zM10.66 895.48H6.57v-36.61h-61.55v-4.09h65.64v40.7zM2.33 812.54h-4.09v-88.8h-19.87v-14.97l-37.36 6.14v10.53h-57.92v52.81h-14.76v34.29h-4.09v-38.39H-121v-52.8h57.92v-9.91l45.54-7.48v15.69H2.33v92.89zM2.33 850.01h-4.09v-10.07h-64.96v-4.09H2.33v14.16z"/><path class="cls-4" d="M35.31 895.48h-4.08v-43.42H15.84v-17.6H6.57v-11.55h-50.23v6.28h-4.09v-10.37h58.41v11.55h9.27v17.6h15.38v47.51zM14.82 812.54h-4.09V662.98H2.78v-7.38h-64.9v5.11h-7.66v56.06h-4.09v-60.15h7.67v-5.11H6.87v7.38h7.95v153.65zM-71.82 642.99h84.6v4.09h-84.6zM72.17 826.16h-4.09v-11.58h-49.4V757.4h23.85v-20.72h57.41l17.03-17.03h43.21v96.86h-4.09v-92.77h-37.42l-17.04 17.03H46.62v20.73H22.77v48.99h49.4v15.67zM43.21 895.48h-4.09v-39.35h7.95v-25.76h63.71v21h17.83v4.09h-21.92v-21H51.16v25.76h-7.95v35.26zM203.33 895.48h-4.09v-29.49h-13.63v-9.96h-5.33v-4.09h9.42v9.96h13.63v33.58z"/><path class="cls-4" d="M182.32 895.48h-4.09v-25.61h-7.95v-28.1l-17.26-17.26-16.12 16.12v29.24h-20.22v-4.09h16.13v-26.84l20.21-20.21 21.35 21.35v25.7h7.95v29.7zM203.33 853.99h-4.09V805.5h-19.87V665.76l-15.56-15.56-16.13 16.13v46.84h-4.09v-48.54l20.22-20.21 19.65 19.65v137.34h19.87v52.58zM29.58 750.65h-4.09V643h10.22v-19.88h55.76v16.47h10.22v87.21H97.6v-83.12H87.38v-16.47H39.8v19.88H29.58v103.56z"/><path class="cls-4" d="M140.87 712.61h-4.09v-186C86 524 69 533.09 65.64 535.34v80.74h-4.09v-82.67l.67-.61c.62-.55 15.8-13.58 76.72-10.17l1.93.1zM263.94 792.1h-4.09v-51.25l-10.02-10.02h-31.52l-8.23 8.24h-19.3v-4.09h17.6l8.24-8.24h34.91l12.41 12.42v52.94zM203.33 725.67h-4.09V598.14h5.68v-15.9h23.46v13.06h7.2v-13.06h22.26v15.9h6.1v43.15h8.66v41.22h-4.09v-37.13h-8.66v-43.15h-6.1v-15.9h-14.08v13.06h-15.38v-13.06h-15.28v15.9h-5.68v123.44zM256.7 576.9h-4.09v-20.1h-6.24v-9.65h-12.5v-3.97h-15.21v13.62h-5.68v20.1h-4.09v-24.18h5.68v-13.63h23.39v3.97h12.5v9.66h6.24v24.18zM304.96 853.99h-4.09v-39.41h-84.26v-4.09h88.35v43.5zM340.17 853.99h-4.09v-43.5h53.48v22.77h-4.09v-18.68h-45.3v39.41zM336.19 895.48h-4.09v-9.62h-31.23V874.2h-75.4v21.28h-4.09v-25.37h83.58v11.66h31.23v13.71z"/><path class="cls-4" d="M410 895.48h-4.09V794.14h-37.35v6.82h-19.43v-6.82h-26.68v-14.76h-41.62v21.58h-64.22v-4.09h60.13v-21.58h49.8v14.76h26.69v6.82h11.24v-6.82H410v105.43zM280.83 767.12h-4.09V628.8h12.21v-5.68h11.92v-6.81h15.33v-11.92h12.27v4.08h-8.18v11.93h-15.33v6.81h-11.92v5.68h-12.21v134.23z"/><path class="cls-4" d="M434.99 895.48h-4.09V732.82H327.11v37.13h-4.09v-41.22h111.97v166.75zM381.84 723.17h-48.03V556.98h17.14v30.94h7.38v16.47h7.95v11.92h5.11v96.3h-4.08V620.4h-5.12v-11.93h-7.94v-16.46h-7.39v-30.95h-8.97v158.02h43.95v4.09z"/><path class="cls-4" d="M457.13 895.48h-4.09V723.74h-27.82v-9.09h-24.3v11.02h-4.09v-15.11h32.48v9.09h27.82v175.83z"/><path class="cls-4" d="M446.34 714.88h-4.09v-79.72h-41.33v11.93h-15.45v-11.93h-9.31v-4.09h13.4V643h7.27v-11.93h49.51v83.81zM387.52 620.85h30.66v4.09h-30.66z"/><path class="cls-4" d="M453.72 647.31h-4.09v-43.95h-44.74v12.15h-4.09v-16.23h52.92v48.03z"/><path class="cls-4" d="M540.03 817.65h-4.09v-103h-68.7v-18.74h-6.25v-137.4h-48.71v35.43h-4.09v-39.52h56.89v137.41h6.25v18.73h68.7v107.09z"/><path class="cls-4" d="M453.72 556.46h-4.09v-19.64h9.09v-5h-44.17v3.86h9.08v20.78h-4.09v-16.69h-9.08v-12.04h52.35v13.18h-9.09v15.55zM296.45 767.12h-4.09v-34.3h-13.57v-4.09h17.66v38.39zM308.72 767.12h-4.09V741.5l12.77-12.77h7.66v4.09h-5.96l-10.38 10.37v23.93zM540.03 895.48h-4.09v-15.29h-21.58v-17.34h-20.32v14.19h-22.71v18.44h-4.09v-22.53h22.71v-14.19h28.5v17.34h21.58v19.38z"/><path class="cls-4" d="M574.66 895.48h-4.09v-42.29h-19.3v-23.28h-23.16v39.41h-4.1v-43.5h31.35v23.28h19.3v46.38zM586.02 895.48h-4.09v-28.77h27.25v-24.87h5.68v-22.83h26.24v16.55l7.08 7.09v23.83h-4.09v-22.14l-7.08-7.09V823.1h-18.06v22.83h-5.68v24.86h-27.25v24.69zM715.48 895.48h-4.09v-6.21h-21.52l-9.08-9.08h-43.1v15.29h-4.09V876.1h48.88l9.09 9.08h23.91v10.3zM676.58 867.96h-11.75v-22.03h-8.74v-4.09h12.83v22.03h3.57v-44.86h26.52v6.81h69.27v34.98h-4.09v-30.89h-69.27v-6.81h-18.34v44.86z"/><path class="cls-4" d="M590 861.67h-4.1v-30.45h22.49v4.09H590v26.36zM551.38 821.05h-4.09V688.82h-8.51v-53.66h-66.66v-4.09h70.75v53.66h8.51v136.32zM477.23 623.12h48.83v4.09h-48.83zM597.38 670.59h-4.09V657c-44.5.28-44.57.21-45.39-.6l1.44-1.45.31-2c1.74.18 28.26.08 45.67 0h2.06z"/><path class="cls-4" d="M590 824.46h-4.1V675.93h20.45V664h86.98v7.95h22.15v149.1h-4.09V676.04h-22.15v-7.95h-78.81v11.93H590v144.44zM742.16 817.65h-4.09V716.92h-18.39v-4.09h22.48v104.82zM764.31 821.05h-4.09v-95.61h-13.29v-4.09h17.38v99.7zM928.4 895.48h-4.09v-27.52h-80.63v-29.51h-66.09v-4.09h70.18v29.51h80.63v31.61zM821.09 895.48H817v-20.71h-79.95v20.71h-4.09v-24.8h88.13v24.8zM801.78 827.87h-4.09v-27.48h-26.91v-4.09h31v31.57zM815.98 789.83h-4.09v-15.56h-18.63v15.56h-4.09v-19.65h26.81v19.65z"/><path class="cls-4" d="M857.42 858.27h-4.08v-38.58h-21.58v-16.46h-24.64v-4.09h28.73v16.46h21.57v42.67zM919.31 858.27h-4.09v-22.96h-16.46v-40.6h-67.51v-4.09h71.6v40.6h16.46v27.05zM857.42 784.72h-4.08v-10.45h-29.19v-4.09h33.27v14.54zM775.55 789.86c-.58-37.2-.19-37.59.57-38.37l1.47-.61h11.58v-7.67h12.61v23h-4.09v-19h-4.43V755h-13.81c-.17 5.5 0 23.38.18 34.83zM889.22 784.72h-4.09v-10.45h-23.5v-4.09h27.59v14.54zM886.95 766.26h-4.09v-13.92h-6.4l-8.82 8.81v5.11h-4.09v-6.81l11.21-11.2h12.19v18.01zM572.34 629.14l18.22 19.31h-36.45l18.23-19.31zM518.45 847.47h-4.09v-41.38h-5.67v-5.7h-8.41v5.7h-12.6v-5.7h-6.13v5.7h-11.48v-5.7h-7.03v-4.09h11.13v5.7h3.29v-5.7h14.31v5.7h4.42v-5.7h16.58v5.7h5.68v45.47zM389.56 895.48h-4.09v-9.62h-33.95v9.62h-4.09v-13.71h42.13v13.71zM622.02 658.1h52.52v7.95h-52.52zM505.85 633.12h4.09v61.32h-4.09zM514.36 712.61h4.09v68.7h-4.09zM230.75 597.35h4.09v109.02h-4.09zM101.69 630.84H97.6V543.6c-20.19 3.95-32.92 10.63-33 10.69l-1.91-3.61c.57-.3 14.44-7.57 36.65-11.56l2.4-.43zM106.12 544.54h4.09V658.1h-4.09zM114.64 565.55h4.09v113.56h-4.09zM123.15 586.56h4.09v113.56h-4.09zM37.76 654.98h3.41v15.43h-3.41zM47.41 654.98h3.41v15.43h-3.41zM57.06 654.98h3.41v15.43h-3.41zM37.76 679.06h3.41v50.99h-3.41zM47.41 679.06h3.41v50.99h-3.41zM57.06 679.06h3.41v50.99h-3.41zM102.49 748.96h47.69v4.09h-47.69zM54.22 748.96H95.1v4.09H54.22zM102.49 759.76h47.69v4.09h-47.69zM54.22 759.76H95.1v4.09H54.22zM102.49 770.57h47.69v4.09h-47.69zM54.22 770.57H95.1v4.09H54.22zM102.49 781.38h47.69v4.09h-47.69zM54.22 781.38H95.1v4.09H54.22zM102.49 792.19h47.69v4.09h-47.69zM54.22 792.19H95.1v4.09H54.22zM102.49 802.99h47.69v4.09h-47.69zM54.22 802.99H95.1v4.09H54.22zM58.77 840.17h4.83v9.84h-4.83zM58.77 859.03h4.83v9.84h-4.83zM58.77 877.88h4.83v9.84h-4.83zM72.25 840.17h4.83v9.84h-4.83zM72.25 859.03h4.83v9.84h-4.83zM72.25 877.88h4.83v9.84h-4.83zM85.74 840.17h4.83v9.84h-4.83zM85.74 859.03h4.83v9.84h-4.83zM85.74 877.88h4.83v9.84h-4.83zM148.48 867.83v-17.82l5.9-5.9 6.81 6.81v16.91h-12.71zM154.84 666.05h6.36v6.36h-6.36zM167.1 666.05h6.36v6.36h-6.36zM167.1 684.73h6.36v6.36h-6.36zM167.1 696.94h6.36v6.36h-6.36zM167.1 709.14h6.36v6.36h-6.36zM167.1 733.56h6.36v6.36h-6.36zM167.1 745.77h6.36v6.36h-6.36zM167.1 757.97h6.36v6.36h-6.36zM208.89 606.43h4.09v62.8h-4.09zM219.82 631.38h4.09v62.8h-4.09zM190.78 743.21h61.04v4.09h-61.04zM190.78 752.12h61.04v4.09h-61.04zM190.78 761.03h61.04v4.09h-61.04zM190.78 769.94h61.04v4.09h-61.04zM190.78 778.85h61.04v4.09h-61.04zM190.78 787.76h61.04v4.09h-61.04zM335.85 740.65h97.09v4.09h-97.09zM335.85 750.08h97.09v4.09h-97.09zM335.85 759.5h97.09v4.09h-97.09zM335.85 768.93h97.09v4.09h-97.09zM335.85 778.35h97.09v4.09h-97.09zM341.53 601.32h5.11v5.11h-5.11zM341.53 613.24h5.11v5.11h-5.11zM341.53 625.17h5.11v5.11h-5.11zM341.53 637.09h5.11v5.11h-5.11zM341.53 649.02h5.11v5.11h-5.11zM341.53 660.94h5.11v5.11h-5.11zM341.53 672.86h5.11v5.11h-5.11zM341.53 684.79h5.11v5.11h-5.11zM341.53 696.71h5.11v5.11h-5.11zM341.53 708.64h5.11v5.11h-5.11zM352.03 625.17h5.11v5.11h-5.11zM352.03 637.09h5.11v5.11h-5.11zM352.03 649.02h5.11v5.11h-5.11zM352.03 660.94h5.11v5.11h-5.11zM352.03 672.86h5.11v5.11h-5.11zM352.03 684.79h5.11v5.11h-5.11zM352.03 696.71h5.11v5.11h-5.11zM352.03 708.64h5.11v5.11h-5.11zM682.06 838.95h5.11v5.11h-5.11zM682.06 850.88h5.11v5.11h-5.11zM692.57 838.95h5.11v5.11h-5.11zM692.57 850.88h5.11v5.11h-5.11zM703.35 838.95h5.11v5.11h-5.11zM703.35 850.88h5.11v5.11h-5.11zM713.86 838.95h5.11v5.11h-5.11zM713.86 850.88h5.11v5.11h-5.11zM724.65 838.95h5.11v5.11h-5.11zM724.65 850.88h5.11v5.11h-5.11zM735.15 838.95h5.11v5.11h-5.11zM735.15 850.88h5.11v5.11h-5.11zM745.94 838.95h5.11v5.11h-5.11zM745.94 850.88h5.11v5.11h-5.11zM398.87 654.13h3.97v49.17h-3.97zM408.24 654.13h3.97v49.17h-3.97zM417.61 654.13h3.97v49.17h-3.97zM426.98 654.13h3.97v49.17h-3.97zM477.8 644.64h3.97v61.72h-3.97zM487.17 644.64h3.97v61.72h-3.97zM496.54 644.64h3.97v61.72h-3.97zM517.26 644.64h3.97v61.72h-3.97zM526.63 644.64h3.97v61.72h-3.97zM431.38 609.07h3.97v15.24h-3.97zM440.75 609.07h3.97v15.24h-3.97z"/><path class="cls-4" transform="rotate(-90 424.29 577.86)" d="M422.3 570.23h3.97v15.24h-3.97z"/><path class="cls-4" transform="rotate(-90 424.29 586.56)" d="M422.3 578.94h3.97v15.24h-3.97z"/><path class="cls-4" transform="rotate(-90 424.29 568.49)" d="M422.3 560.86h3.97v15.24h-3.97z"/><path class="cls-4" transform="rotate(-90 884.9 813.46)" d="M882.92 805.84h3.97v15.24h-3.97z"/><path class="cls-4" transform="rotate(-90 884.9 822.16)" d="M882.92 814.54h3.97v15.24h-3.97z"/><path class="cls-4" transform="rotate(-90 884.9 804.1)" d="M882.92 796.47h3.97v15.24h-3.97z"/><path class="cls-4" transform="rotate(-90 853.11 882.39)" d="M851.48 874.77h3.26v15.24h-3.26z"/><path class="cls-4" transform="rotate(-90 853.11 889.52)" d="M851.48 881.9h3.26v15.24h-3.26z"/><path class="cls-4" transform="rotate(-90 853.11 874.71)" d="M851.48 867.09h3.26v15.24h-3.26z"/><path class="cls-4" transform="rotate(-90 872.13 882.39)" d="M870.5 874.77h3.26v15.24h-3.26z"/><path class="cls-4" transform="rotate(-90 872.13 889.52)" d="M870.5 881.9h3.26v15.24h-3.26z"/><path class="cls-4" transform="rotate(-90 872.13 874.71)" d="M870.5 867.09h3.26v15.24h-3.26z"/><path class="cls-4" transform="rotate(-90 891.15 882.39)" d="M889.52 874.77h3.26v15.24h-3.26z"/><path class="cls-4" transform="rotate(-90 891.15 889.52)" d="M889.52 881.9h3.26v15.24h-3.26z"/><path class="cls-4" transform="rotate(-90 891.15 874.71)" d="M889.52 867.09h3.26v15.24h-3.26z"/><path class="cls-4" transform="rotate(-90 910.17 882.39)" d="M908.54 874.77h3.26v15.24h-3.26z"/><path class="cls-4" transform="rotate(-90 910.17 889.52)" d="M908.54 881.9h3.26v15.24h-3.26z"/><path class="cls-4" transform="rotate(-90 910.17 874.71)" d="M908.54 867.09h3.26v15.24h-3.26z"/><path class="cls-4" transform="rotate(-90 559.2 872.49)" d="M557.21 864.87h3.97v15.24h-3.97z"/><path class="cls-4" transform="rotate(-90 559.2 881.19)" d="M557.21 873.57h3.97v15.24h-3.97z"/><path class="cls-4" transform="rotate(-90 559.2 863.12)" d="M557.21 855.5h3.97v15.24h-3.97z"/><path class="cls-4" transform="rotate(-90 487.29 824.49)" d="M485.3 801.94h3.97v45.1h-3.97z"/><path class="cls-4" transform="rotate(-90 487.29 833.19)" d="M485.3 810.64h3.97v45.1h-3.97z"/><path class="cls-4" transform="rotate(-90 487.29 815.12)" d="M485.3 792.57h3.97v45.1h-3.97z"/><path class="cls-4" d="M216.61 822.91h14.56v4.96h-14.56zM237.69 822.91h14.56v4.96h-14.56zM258.76 822.91h14.56v4.96h-14.56zM279.84 822.91h14.56v4.96h-14.56zM216.61 836.41h14.56v4.96h-14.56zM237.69 836.41h14.56v4.96h-14.56zM258.76 836.41h14.56v4.96h-14.56zM279.84 836.41h14.56v4.96h-14.56zM216.61 849.91h14.56v4.96h-14.56zM237.69 849.91h14.56v4.96h-14.56zM258.76 849.91h14.56v4.96h-14.56zM279.84 849.91h14.56v4.96h-14.56zM344.08 822.91h32.08v3.26h-32.08zM344.08 834.78h32.08v3.26h-32.08zM344.08 846.65h32.08v3.26h-32.08zM639.96 813.13h-4.09V689.1h-16.5v123.44h-4.09V685.01h24.68v128.12zM697.17 813.13h-4.09V689.1h-16.5v123.44h-4.09V685.01h24.68v128.12zM469.28 723.39h7.38v7.38h-7.38zM482.06 723.39h7.38v7.38h-7.38zM494.83 723.39h7.38v7.38h-7.38zM469.28 735.32h7.38v7.38h-7.38zM482.06 735.32h7.38v7.38h-7.38zM494.83 735.32h7.38v7.38h-7.38zM469.28 747.24h7.38v7.38h-7.38zM482.06 747.24h7.38v7.38h-7.38zM494.83 747.24h7.38v7.38h-7.38zM469.28 759.17h7.38v7.38h-7.38zM482.06 759.17h7.38v7.38h-7.38zM494.83 759.17h7.38v7.38h-7.38zM469.28 771.09h7.38v7.38h-7.38zM482.06 771.09h7.38v7.38h-7.38zM559.2 662.36h6.03v6.03h-6.03zM569.64 662.36h6.03v6.03h-6.03zM559.2 672.1h6.03v6.03h-6.03zM569.64 672.1h6.03v6.03h-6.03zM559.2 681.84h6.03v6.03h-6.03zM569.64 681.84h6.03v6.03h-6.03zM559.2 691.58h6.03v6.03h-6.03zM569.64 691.58h6.03v6.03h-6.03zM559.2 701.32h6.03v6.03h-6.03zM569.64 701.32h6.03v6.03h-6.03zM559.2 735.78h6.03v6.03h-6.03zM569.64 735.78h6.03v6.03h-6.03zM559.2 745.52h6.03v6.03h-6.03zM569.64 745.52h6.03v6.03h-6.03zM559.2 755.26h6.03v6.03h-6.03zM569.64 755.26h6.03v6.03h-6.03zM559.2 765h6.03v6.03h-6.03zM569.64 765h6.03v6.03h-6.03zM559.2 774.74h6.03v6.03h-6.03z"/><path class="cls-4" d="M624.61 698.63h6.03v6.03h-6.03zM624.61 708.37h6.03v6.03h-6.03zM624.61 718.11h6.03v6.03h-6.03zM624.61 727.85h6.03v6.03h-6.03zM624.61 737.59h6.03v6.03h-6.03zM681.82 757.9h6.03v6.03h-6.03zM681.82 767.64h6.03v6.03h-6.03zM681.82 777.38h6.03v6.03h-6.03zM681.82 787.12h6.03v6.03h-6.03zM681.82 796.86h6.03v6.03h-6.03zM653.07 727.6h6.03v6.03h-6.03zM653.07 737.34h6.03v6.03h-6.03zM653.07 747.08h6.03v6.03h-6.03zM653.07 756.82h6.03v6.03h-6.03zM653.07 766.56h6.03v6.03h-6.03zM569.64 774.74h6.03v6.03h-6.03zM494.83 771.09h7.38v7.38h-7.38zM163.2 581.45l2.01 69.27h-4.02l2.01-69.27z"/></g><g class="cls-8"><path class="cls-4" d="M1070.04 895.48h-4.09v-10.09h-31.04v-15.92h-63.59v-23.54h-49.66v13.92h-4.09v-18.01h57.84v23.54H1039v15.92h31.04v14.18zM990.55 895.48h-4.09v-13.9h-29.22v13.9h-4.09v-17.99h37.4v17.99zM957.24 834.11h-4.09v-45.64h-18.92v-9.85h-7.27v53.22h-4.09v-57.31h15.44v9.85h18.93v49.73zM1002.66 792.48h-4.09v-23.7h-6.81V754.4h-42.85v14.38h-12.64v-4.09h8.55v-14.38h51.03v14.38h6.81v27.79z"/><path class="cls-4" d="M990.55 840.17h-4.09v-53.22h-21.42v-4.09h25.51v57.31zM1096.54 816.7h-4.09v-9.31h-52.24v-6.81h-17.11v6.81h-26.27v-4.09h22.18v-6.81h25.29v6.81h52.24v13.4zM1756.69 895.48h-4.09v-23.75h-94.63v-11.34h-82.22v18.16h-67.68v-12.11h-57.53v-12.11h-48.91v12.11h-42.7v-14.76h-45.87v9.46h-71.47v-13.63h-62.53v5.3h-113.11v-10.59h-45.12v10.59h-32.32v-4.09h28.23v-10.59h53.3v10.59h104.93v-5.3h70.71v13.63h63.29v-9.46h54.05v14.76h34.52v-12.11h57.09v12.11h57.53v12.12h59.51V856.3h90.39v11.34h94.63v27.84z"/><path class="cls-4" d="M1806.66 895.48h-4.09v-36.61h-61.55v-4.09h65.64v40.7zM1730.12 857.91c-12.8-20.11-41.8-33.11-73.89-33.11-28.77 0-55.56 10.61-69.9 27.69l-3.13-2.63c15.1-18 43.08-29.15 73-29.15 33.45 0 63.81 13.74 77.34 35zM1528.11 857.91c-12.79-20.11-41.8-33.11-73.89-33.11-28.77 0-55.55 10.61-69.9 27.69l-3.13-2.63c15.1-18 43.09-29.15 73-29.15 33.46 0 63.81 13.74 77.34 35zM1326.49 839.56c-15.36-11-36-17-58.23-17-21.91 0-42.41 5.92-57.71 16.65l-2.35-3.34c16-11.22 37.31-17.4 60.06-17.4 23 0 44.56 6.32 60.61 17.79zM1161.86 841.83c-15.35-11-36-17-58.23-17-17.08 0-33.4 3.61-47.2 10.45l-1.82-3.67c14.36-7.11 31.31-10.87 49-10.87 23 0 44.57 6.32 60.61 17.79zM1211.41 822.76h-4.08V684.75h-6.62v-11.36h-62.53v15.9h-16.66v118.33h-4.09V685.2h16.66v-15.9h70.71v11.36h6.61v142.1z"/><path class="cls-4" d="M1353.94 840.17h-4.09v-53.22h-53.45v13.63h-70.94v-4.09h66.85v-13.63h61.63v57.31zM1244.16 792.48h-4.08v-47.92h-20.67v-4.09h24.75v52.01zM1283.53 777.87h-28.54v-4.1h24.45v-8.32h37.4v10.37h-4.09v-6.28h-29.22v8.33zM1417.53 816.7h-4.09V649.62h76.24v4.09h-72.15V816.7z"/><path class="cls-4" d="M1522.76 829.19h-4.09V627.21h-82.97v17.64h-4.09v-21.73h91.15v206.07z"/><path class="cls-4" d="M1496.72 625.17h4.09v155.95h-4.09zM1604.52 805.35h-4.09V722.6h-35.58V712h-35.01v-4.09h39.1v10.6h35.58v86.84zM1559.86 867.83h-4.09v-27.89h-25.93v-4.09h30.02v31.98zM1640.1 771.66h-4.08v-10.83h-25.97v-4.09h30.05v14.92z"/><path class="cls-4" d="M1656.76 812.54h-4.09V773.7h-42.62v-4.09h46.71v42.93zM1559.86 829.19h-4.09v-10.75h26.95v-7.95h55.34v4.09h-51.25v7.95h-26.95v6.66zM1364.54 837.9h-4.09v-41.41h25.74v-31.04h24v4.09h-19.91v31.04h-25.74v37.32zM1075.34 792.48h-4.09v-52.47h-31.49v52.47h-4.09v-56.56h39.67v56.56zM1109.29 736.23h-26.68v-7.01h-18.4v-4.09h22.48v7.01h22.6v4.09z"/><path class="cls-4" d="M1092.45 734.18h4.09v46.94h-4.09zM1640.1 749.33h-4.08v-34.6h28.31v27.02h-4.09v-22.93h-20.14v30.51z"/><path class="cls-4" d="M1643.32 716.77h-4.09V701.1h21.12v8.86h-4.09v-4.77h-12.94v11.58z"/><path class="cls-4" d="M1698.4 716.77h-4.09v-11.58h-3.97v-13.25h-42.48v11.2h-4.08v-15.29h50.64v13.25h3.98v15.67zM1798.33 812.54h-4.09v-88.8h-19.87v-14.97l-37.36 6.14v10.53h-57.92v52.81h-14.76v34.29h-4.09v-38.39H1675v-52.8h57.92v-9.91l45.54-7.48v15.69h19.87v92.89zM1798.33 850.01h-4.09v-10.07h-64.95v-4.09h69.04v14.16z"/><path class="cls-4" d="M1831.32 895.48h-4.1v-43.42h-15.38v-17.6h-9.27v-11.55h-50.23v6.28h-4.09v-10.37h58.41v11.55h9.27v17.6h15.39v47.51zM1810.82 812.54h-4.09V662.98h-7.95v-7.38h-64.9v5.11h-7.66v56.06h-4.09v-60.15h7.67v-5.11h73.07v7.38h7.95v153.65zM1724.18 642.99h84.6v4.09h-84.6zM1868.17 826.16h-4.09v-11.58h-49.4V757.4h23.85v-20.72h57.41l17.03-17.03h43.21v96.86h-4.09v-92.77h-37.43l-17.03 17.03h-55.01v20.73h-23.85v48.99h49.4v15.67zM1839.21 895.48h-4.09v-39.35h7.95v-25.76h63.71v21h17.83v4.09h-21.92v-21h-55.53v25.76h-7.95v35.26z"/><path class="cls-4" d="M1978.32 895.48h-4.09v-25.61h-7.95v-28.1l-17.26-17.26-16.12 16.12v29.24h-20.22v-4.09h16.13v-26.84l20.21-20.21 21.35 21.35v25.7h7.95v29.7zM1825.58 750.65h-4.09V643h10.22v-19.88h55.76v16.47h10.22v87.21h-4.09v-83.12h-10.22v-16.47h-47.58v19.88h-10.22v103.56z"/><path class="cls-4" d="M1936.87 712.61h-4.09v-186c-50.83-2.6-67.77 6.49-71.14 8.74v80.74h-4.09v-82.68l.67-.61c.62-.55 15.8-13.58 76.72-10.17l1.93.1z"/><path class="cls-4" d="M1897.69 630.84h-4.09V543.6c-20.19 3.95-32.92 10.63-33 10.69l-1.91-3.61c.57-.3 14.44-7.57 36.65-11.56l2.4-.43zM1902.12 544.54h4.09V658.1h-4.09zM1910.64 565.55h4.09v113.56h-4.09zM1919.15 586.56h4.09v113.56h-4.09zM934.38 792.48h3.79v15.9h-3.79zM934.38 814.81h3.79v15.9h-3.79zM998.73 812.35h3.79v11.17h-3.79zM998.73 828.04h3.79v11.17h-3.79zM1007.43 812.35h3.79v11.17h-3.79zM1007.43 828.04h3.79v11.17h-3.79zM1016.14 812.35h3.79v11.17h-3.79zM1016.14 828.04h3.79v7.01h-3.79zM1024.84 812.35h3.79v11.17h-3.79zM1024.84 828.04h3.79v7.01h-3.79zM1033.55 812.35h3.79v11.17h-3.79zM1033.55 828.04h3.79v7.01h-3.79zM1042.26 812.35h3.79v11.17h-3.79zM1042.26 828.04h3.79v7.01h-3.79zM1050.96 812.35h3.79v11.17h-3.79zM1059.67 812.35h3.79v11.17h-3.79zM962.39 792.48h3.41v6.06h-3.41zM969.77 792.48h3.41v6.06h-3.41zM977.15 792.48h3.41v6.06h-3.41zM962.39 804.59h3.41v6.06h-3.41zM969.77 804.59h3.41v6.06h-3.41zM977.15 804.59h3.41v6.06h-3.41zM968.06 757.65h3.41v6.06h-3.41zM975.45 757.65h3.41v6.06h-3.41zM982.83 757.65h3.41v6.06h-3.41zM968.06 769.76h3.41v6.06h-3.41zM975.45 769.76h3.41v6.06h-3.41zM982.83 769.76h3.41v6.06h-3.41zM962.39 816.7h3.41v6.06h-3.41zM969.77 816.7h3.41v6.06h-3.41zM977.15 816.7h3.41v6.06h-3.41zM962.39 828.82h3.41v6.06h-3.41zM969.77 828.82h3.41v6.06h-3.41zM977.15 828.82h3.41v6.06h-3.41zM952.92 869.69h-2.27V851.9h-21.57v-2.27h23.84v20.06zM957.47 850.77h2.65v18.92h-2.65zM962.77 850.77h2.65v18.92h-2.65zM1022.76 873.53h2.65v6.99h-2.65zM1028.06 873.53h2.65v6.99h-2.65zM1009.32 873.53h2.65v6.99h-2.65zM1014.62 873.53h2.65v6.99h-2.65zM995.89 873.53h2.65v6.99h-2.65zM1001.19 873.53h2.65v6.99h-2.65zM1022.76 885.04h2.65v6.99h-2.65zM1028.06 885.04h2.65v6.99h-2.65zM1009.32 885.04h2.65v6.99h-2.65zM1014.62 885.04h2.65v6.99h-2.65zM995.89 885.04h2.65v6.99h-2.65zM1001.19 885.04h2.65v6.99h-2.65zM1143.32 883.35h14.46v14.74h-14.46zM1162.1 883.35h14.46v14.74h-14.46zM1180.87 883.35h14.46v14.74h-14.46zM1199.64 883.35h14.46v14.74h-14.46zM1238.22 883.35h14.46v14.74h-14.46zM1256.99 883.35h14.46v14.74h-14.46zM1275.77 883.35h14.46v14.74h-14.46zM1294.54 883.35H1309v14.74h-14.46zM1333.12 883.35h14.46v14.74h-14.46zM1351.89 883.35h14.46v14.74h-14.46zM1370.67 883.35h14.46v14.74h-14.46zM1389.44 883.35h14.46v14.74h-14.46zM1073.3 861.9h152.17v4.09H1073.3zM1436.91 876.15h4.09v21.93h-4.09zM1465.68 876.15h4.09v21.93h-4.09zM1475.14 876.15h4.09v21.93h-4.09zM1484.6 876.15h4.09v21.93h-4.09zM1037.34 745.01h22.33v4.09h-22.33zM1037.34 754.04h22.33v4.09h-22.33zM1037.34 763.08h22.33v4.09h-22.33zM1037.34 772.11h22.33v4.09h-22.33zM1037.34 781.15h22.33v4.09h-22.33zM1073.3 745.01h13.45v4.09h-13.45zM1073.3 754.04h13.45v4.09h-13.45zM1073.3 763.08h13.45v4.09h-13.45zM1073.3 772.11h13.45v4.09h-13.45zM1073.3 781.15h13.45v4.09h-13.45zM1169.33 687.06h4.66v16.09h-4.66zM1185.78 687.06h4.65v16.09h-4.65zM1169.33 714.59h4.66v16.09h-4.66zM1185.78 714.59h4.65v16.09h-4.65zM1169.33 742.13h4.66v16.09h-4.66zM1185.78 742.13h4.65v16.09h-4.65zM1169.33 769.67h4.66v16.09h-4.66zM1185.78 769.67h4.65v16.09h-4.65zM1169.33 797.21h4.66v16.09h-4.66zM1185.78 797.21h4.65v16.09h-4.65zM1133.9 697.84h4.09v99.36h-4.09zM1396.67 777.71h4.43v8.71h-4.43zM1396.67 792.85h4.43v8.71h-4.43zM1396.67 807.99h4.43v8.71h-4.43zM1338.14 793.8h4.43v8.71h-4.43zM1338.14 808.94h4.43v8.71h-4.43zM1338.14 824.08h4.43v8.71h-4.43zM1325.46 793.8h4.43v8.71h-4.43zM1325.46 808.94h4.43v8.71h-4.43zM1465.68 651.66h4.09v124.16h-4.09zM1478.55 651.66h4.09v165.03h-4.09zM1423.25 661.51h33.05v4.11h-33.05zM1423.25 678.64h33.05v4.11h-33.05zM1423.25 695.78h33.05v4.11h-33.05zM1423.25 712.91h33.05v4.11h-33.05zM1423.25 730.04h33.05v4.11h-33.05zM1423.25 747.18h33.05v4.11h-33.05zM1423.25 764.31h33.05v4.11h-33.05zM1423.25 781.45h33.05v4.11h-33.05zM1423.25 798.58h33.05v4.11h-33.05zM1443.12 630.84h33.05v3.41h-33.05zM1443.12 639.36h33.05v3.41h-33.05zM1534.53 730.04h6.33v6.33h-6.33zM1549.73 730.04h6.33v6.33h-6.33zM1564.92 730.04h6.33v6.33h-6.33zM1580.12 730.04h6.33v6.33h-6.33zM1534.53 744.02h6.33v6.33h-6.33zM1549.73 744.02h6.33v6.33h-6.33zM1564.92 744.02h6.33v6.33h-6.33zM1580.12 744.02h6.33v6.33h-6.33zM1534.53 757.99h6.33v6.33h-6.33zM1549.73 757.99h6.33v6.33h-6.33zM1564.92 757.99h6.33v6.33h-6.33zM1580.12 757.99h6.33v6.33h-6.33zM1534.53 771.96h6.33v6.33h-6.33zM1549.73 771.96h6.33v6.33h-6.33zM1564.92 771.96h6.33v6.33h-6.33zM1580.12 771.96h6.33v6.33h-6.33zM1534.53 785.93h6.33v6.33h-6.33zM1549.73 785.93h6.33v6.33h-6.33zM1564.92 785.93h6.33v6.33h-6.33zM1580.12 785.93h6.33v6.33h-6.33zM1534.53 799.9h6.33v6.33h-6.33zM1690.07 733.87h6.33v6.33h-6.33zM1690.07 761.81h6.33v6.33h-6.33zM1690.07 775.78h6.33v6.33h-6.33zM1690.07 789.75h6.33v6.33h-6.33zM1703.98 733.87h6.33v6.33h-6.33zM1703.98 747.84h6.33v6.33h-6.33zM1703.98 761.81h6.33v6.33h-6.33zM1703.98 775.78h6.33v6.33h-6.33zM1703.98 789.75h6.33v6.33h-6.33zM1703.98 803.72h6.33v6.33h-6.33zM1717.89 747.84h6.33v6.33h-6.33zM1717.89 775.78h6.33v6.33h-6.33zM1717.89 803.72h6.33v6.33h-6.33zM1731.8 733.87h6.33v6.33h-6.33zM1731.8 747.84h6.33v6.33h-6.33zM1731.8 761.81h6.33v6.33h-6.33zM1731.8 775.78h6.33v6.33h-6.33zM1731.8 789.75h6.33v6.33h-6.33zM1731.8 803.72h6.33v6.33h-6.33zM1745.71 733.87h6.33v6.33h-6.33zM1745.71 761.81h6.33v6.33h-6.33zM1745.71 789.75h6.33v6.33h-6.33zM1745.71 803.72h6.33v6.33h-6.33zM1759.62 733.87h6.33v6.33h-6.33zM1759.62 747.84h6.33v6.33h-6.33zM1759.62 761.81h6.33v6.33h-6.33zM1759.62 775.78h6.33v6.33h-6.33zM1759.62 789.75h6.33v6.33h-6.33zM1773.53 733.87h6.33v6.33h-6.33zM1773.53 747.84h6.33v6.33h-6.33zM1773.53 775.78h6.33v6.33h-6.33zM1773.53 789.75h6.33v6.33h-6.33zM1773.53 803.72h6.33v6.33h-6.33zM1549.73 799.9h6.33v6.33h-6.33zM1564.92 799.9h6.33v6.33h-6.33zM1757.58 645.04h4.09v50.74h-4.09zM1833.76 654.98h3.41v15.43h-3.41zM1843.41 654.98h3.41v15.43h-3.41zM1853.06 654.98h3.41v15.43h-3.41zM1833.76 679.06h3.41v50.99h-3.41zM1843.41 679.06h3.41v50.99h-3.41zM1853.06 679.06h3.41v50.99h-3.41z"/><path class="cls-4" d="M1734.96 663.57h47.69v4.09h-47.69zM1898.49 748.96h47.69v4.09h-47.69zM1850.22 748.96h40.88v4.09h-40.88zM1898.49 759.76h47.69v4.09h-47.69zM1850.22 759.76h40.88v4.09h-40.88zM1898.49 770.57h47.69v4.09h-47.69zM1850.22 770.57h40.88v4.09h-40.88zM1898.49 781.38h47.69v4.09h-47.69zM1850.22 781.38h40.88v4.09h-40.88zM1898.49 792.19h47.69v4.09h-47.69zM1850.22 792.19h40.88v4.09h-40.88zM1898.49 802.99h47.69v4.09h-47.69zM1850.22 802.99h40.88v4.09h-40.88zM1734.96 670.82h47.69v4.09h-47.69zM1734.96 678.06h47.69v4.09h-47.69zM1734.96 685.3h47.69v4.09h-47.69zM1854.77 840.17h4.83v9.84h-4.83zM1854.77 859.03h4.83v9.84h-4.83zM1854.77 877.88h4.83v9.84h-4.83zM1868.25 840.17h4.83v9.84h-4.83zM1868.25 859.03h4.83v9.84h-4.83zM1868.25 877.88h4.83v9.84h-4.83zM1881.74 840.17h4.83v9.84h-4.83zM1881.74 859.03h4.83v9.84h-4.83zM1881.74 877.88h4.83v9.84h-4.83z"/></g><path class="cls-9" d="M154.75 1036.09a15.49 15.49 0 002.51 2.88 6.58 6.58 0 008.51 0 15.49 15.49 0 002.51-2.88 11.53 11.53 0 011.81-2.12 3.42 3.42 0 014.25 0 11.54 11.54 0 011.8 2.12 15.21 15.21 0 002.52 2.88 6.49 6.49 0 004.25 1.56h.53a6.38 6.38 0 003.85-1.28q3.24-5.85 6.71-11.52a6.81 6.81 0 00-4.28 1.59 15.74 15.74 0 00-2.62 3 10.83 10.83 0 01-1.72 2 2.8 2.8 0 01-1.78.68h-.85a2.81 2.81 0 01-1.79-.68 10.83 10.83 0 01-1.71-2 15.74 15.74 0 00-2.62-3 6.89 6.89 0 00-8.83 0 15.74 15.74 0 00-2.62 3 11.22 11.22 0 01-1.72 2 3.09 3.09 0 01-3.89 0 10.83 10.83 0 01-1.71-2 16.18 16.18 0 00-2.63-3 6.89 6.89 0 00-8.83 0 15.74 15.74 0 00-2.62 3 10.83 10.83 0 01-1.71 2 3.1 3.1 0 01-3.9 0 10.83 10.83 0 01-1.71-2 15.74 15.74 0 00-2.62-3 6.89 6.89 0 00-8.83 0 15.74 15.74 0 00-2.62 3 10.83 10.83 0 01-1.72 2 3.09 3.09 0 01-3.89 0 10.83 10.83 0 01-1.71-2 16.48 16.48 0 00-2.62-3 6.89 6.89 0 00-8.83 0 15.74 15.74 0 00-2.62 3 11.22 11.22 0 01-1.72 2 3.09 3.09 0 01-3.89 0 10.83 10.83 0 01-1.71-2 15.74 15.74 0 00-2.62-3 6.89 6.89 0 00-8.83 0 15.74 15.74 0 00-2.62 3 10.83 10.83 0 01-1.71 2 2.84 2.84 0 01-1.65.67h-2.3a2.9 2.9 0 01-1.66-.67 10.83 10.83 0 01-1.71-2 15.74 15.74 0 00-2.62-3 7.12 7.12 0 00-2-1.15v6.12a13.87 13.87 0 011.46 1.8A15.57 15.57 0 0070 1039a6.49 6.49 0 004.25 1.56h1.71a6.49 6.49 0 004.25-1.56 15.21 15.21 0 002.52-2.88 11.54 11.54 0 011.8-2.12 3.42 3.42 0 014.25 0 11.53 11.53 0 011.81 2.12 15.21 15.21 0 002.52 2.88 6.56 6.56 0 008.49 0 15.21 15.21 0 002.52-2.88 11.53 11.53 0 011.81-2.12 3.1 3.1 0 012.12-.74 3.15 3.15 0 012.13.74 11.94 11.94 0 011.8 2.12 15.21 15.21 0 002.52 2.88 6.57 6.57 0 008.5 0 16 16 0 002.52-2.88 11.54 11.54 0 011.8-2.12 3.42 3.42 0 014.25 0 11.54 11.54 0 011.8 2.12 15.57 15.57 0 002.52 2.88 6.57 6.57 0 008.5 0 15.21 15.21 0 002.52-2.88 11.54 11.54 0 011.8-2.12 3.42 3.42 0 014.25 0 11.53 11.53 0 011.79 2.09zM1948.38 991.35a9 9 0 00-8.83.37 15.27 15.27 0 00-2.82 2.5 10.13 10.13 0 01-1.84 1.7 3.61 3.61 0 01-2.1.58 3.56 3.56 0 01-2.09-.58 9.83 9.83 0 01-1.85-1.7 14.64 14.64 0 00-2.82-2.5 9 9 0 00-9.51 0 14.86 14.86 0 00-2.81 2.5 10.4 10.4 0 01-1.84 1.69 4.07 4.07 0 01-4.19 0 10.13 10.13 0 01-1.84-1.7 15 15 0 00-2.83-2.5 9 9 0 00-9.5 0 14.33 14.33 0 00-2.82 2.51 10.13 10.13 0 01-1.84 1.7 4.07 4.07 0 01-4.19 0 10.06 10.06 0 01-1.84-1.69 14.64 14.64 0 00-2.82-2.5 9 9 0 00-9.5 0 14.64 14.64 0 00-2.82 2.5 10.47 10.47 0 01-1.84 1.7 4.09 4.09 0 01-4.2 0 10.13 10.13 0 01-1.84-1.7 15 15 0 00-2.82-2.5 9 9 0 00-9.5 0 14.64 14.64 0 00-2.82 2.5 10.48 10.48 0 01-1.85 1.7 3.47 3.47 0 01-1.78.56h-2.47a3.47 3.47 0 01-1.78-.56 10.48 10.48 0 01-1.85-1.7 14.64 14.64 0 00-2.82-2.5 9 9 0 00-9.5 0 14.64 14.64 0 00-2.82 2.5 10.13 10.13 0 01-1.84 1.7 4.09 4.09 0 01-4.2 0 10.13 10.13 0 01-1.84-1.7 15 15 0 00-2.82-2.5 9 9 0 00-9.51 0 15.27 15.27 0 00-2.82 2.5 10.13 10.13 0 01-1.84 1.7 4.07 4.07 0 01-4.19 0 10.48 10.48 0 01-1.85-1.7 14.64 14.64 0 00-2.82-2.5 9 9 0 00-9.5 0 14.64 14.64 0 00-2.82 2.5 9.83 9.83 0 01-1.85 1.7 4.07 4.07 0 01-4.19 0 10.47 10.47 0 01-1.84-1.7 14.64 14.64 0 00-2.82-2.5 9 9 0 00-9.5 0 14.64 14.64 0 00-2.82 2.5 10.14 10.14 0 01-1.85 1.7 4.07 4.07 0 01-4.19 0 10.13 10.13 0 01-1.84-1.7 15.27 15.27 0 00-2.82-2.5 9 9 0 00-9.51 0 15 15 0 00-2.82 2.5 10.13 10.13 0 01-1.84 1.7 4.07 4.07 0 01-4.19 0 10.14 10.14 0 01-1.85-1.7 14.54 14.54 0 00-2.81-2.51 9 9 0 00-9.51 0 14.64 14.64 0 00-2.82 2.5 9.83 9.83 0 01-1.85 1.7 4.06 4.06 0 01-4.18 0 9.83 9.83 0 01-1.85-1.7 14.64 14.64 0 00-2.82-2.5 9 9 0 00-9.5 0 15 15 0 00-2.83 2.5 10.13 10.13 0 01-1.84 1.7 4.07 4.07 0 01-4.19 0 10.13 10.13 0 01-1.84-1.7 15.27 15.27 0 00-2.82-2.5 9 9 0 00-9.51 0 14.64 14.64 0 00-2.82 2.5 10.13 10.13 0 01-1.84 1.7 4.09 4.09 0 01-4.2 0 10.4 10.4 0 01-1.84-1.69 14.64 14.64 0 00-2.82-2.5 9 9 0 00-9.5 0 14.64 14.64 0 00-2.82 2.5 10.14 10.14 0 01-1.85 1.7 4 4 0 01-4.36-.13l-1.4-1-.56-.57a15 15 0 00-2.76-2.46 8.58 8.58 0 00-4.62-1.38h-.09a8.56 8.56 0 00-4.62 1.38 15 15 0 00-2.76 2.46 13.62 13.62 0 01-1.35 1.32l-.36.25-1 .43a3.82 3.82 0 01-1.5.28 3.61 3.61 0 01-2.1-.58 10.13 10.13 0 01-1.84-1.7 15.27 15.27 0 00-2.82-2.5 9 9 0 00-9.51 0 15 15 0 00-2.82 2.5 10.13 10.13 0 01-1.84 1.7 3.61 3.61 0 01-2.1.58 3.56 3.56 0 01-2.09-.58 9.83 9.83 0 01-1.85-1.7 14.64 14.64 0 00-2.82-2.5 9 9 0 00-9.5 0 14.64 14.64 0 00-2.82 2.5 10.14 10.14 0 01-1.85 1.7 4.07 4.07 0 01-4.19 0 10.13 10.13 0 01-1.84-1.7 15.27 15.27 0 00-2.82-2.5 9 9 0 00-9.5 0 15 15 0 00-2.83 2.5 10.13 10.13 0 01-1.84 1.7 4.07 4.07 0 01-4.19 0 10.4 10.4 0 01-1.84-1.69 15.27 15.27 0 00-2.82-2.5 9 9 0 00-9.51 0 14.64 14.64 0 00-2.82 2.5 10.13 10.13 0 01-1.84 1.7 3.57 3.57 0 01-1.7.56h-3a3.56 3.56 0 01-1.69-.56 10.13 10.13 0 01-1.84-1.7 15.27 15.27 0 00-2.82-2.5 9 9 0 00-9.51 0 15 15 0 00-2.82 2.5 10.13 10.13 0 01-1.84 1.7 4.07 4.07 0 01-4.19 0 10.77 10.77 0 01-1.85-1.69 14.61 14.61 0 00-2.82-2.5 9 9 0 00-9.5 0 14.64 14.64 0 00-2.82 2.5 10.14 10.14 0 01-1.85 1.7 4.07 4.07 0 01-4.19 0 10.13 10.13 0 01-1.84-1.7 15.27 15.27 0 00-2.82-2.5 9 9 0 00-9.51 0 15.27 15.27 0 00-2.82 2.5 10.13 10.13 0 01-1.84 1.7 4.07 4.07 0 01-4.19 0 10.48 10.48 0 01-1.85-1.7 14.64 14.64 0 00-2.82-2.5 9 9 0 00-9.5 0 14.64 14.64 0 00-2.82 2.5 10.13 10.13 0 01-1.84 1.7 4.09 4.09 0 01-4.2 0 10.13 10.13 0 01-1.84-1.7 14.64 14.64 0 00-2.82-2.5 9 9 0 00-9.5 0 14.64 14.64 0 00-2.82 2.5 10.48 10.48 0 01-1.85 1.7 3.5 3.5 0 01-1.93.57H1398a3.53 3.53 0 01-1.93-.57 10.13 10.13 0 01-1.84-1.7 14.64 14.64 0 00-2.82-2.5 9 9 0 00-9.5 0 14.64 14.64 0 00-2.82 2.5 10.14 10.14 0 01-1.85 1.7 4.07 4.07 0 01-4.19 0 10.4 10.4 0 01-1.84-1.69 15.27 15.27 0 00-2.82-2.5 9 9 0 00-9.51 0 14.64 14.64 0 00-2.82 2.5 10.4 10.4 0 01-1.84 1.69 3.61 3.61 0 01-2.1.58 3.56 3.56 0 01-2.09-.58 9.83 9.83 0 01-1.85-1.7 14.64 14.64 0 00-2.82-2.5 9 9 0 00-9.5 0 14.33 14.33 0 00-2.82 2.51 10.14 10.14 0 01-1.85 1.7 4.07 4.07 0 01-4.19 0 10.4 10.4 0 01-1.84-1.69 15.27 15.27 0 00-2.82-2.5 9 9 0 00-9.51 0 15.27 15.27 0 00-2.82 2.5 10.13 10.13 0 01-1.84 1.7 4.07 4.07 0 01-4.19 0 10.48 10.48 0 01-1.85-1.7 14.64 14.64 0 00-2.82-2.5 9 9 0 00-9.5 0 14.64 14.64 0 00-2.82 2.5 9.83 9.83 0 01-1.85 1.7 3.55 3.55 0 01-1.92.57l-.45-.09-.46.09a3.55 3.55 0 01-1.92-.57 10.14 10.14 0 01-1.85-1.7 14.64 14.64 0 00-2.82-2.5 9 9 0 00-9.5 0 14.64 14.64 0 00-2.82 2.5 10.14 10.14 0 01-1.85 1.7 4.07 4.07 0 01-4.19 0 10.4 10.4 0 01-1.84-1.69 15 15 0 00-2.82-2.5 9 9 0 00-9.51 0 14.63 14.63 0 00-2.82 2.51 10.13 10.13 0 01-1.84 1.7 3.61 3.61 0 01-2.1.58 3.56 3.56 0 01-2.09-.58 10.48 10.48 0 01-1.85-1.7 14.64 14.64 0 00-2.82-2.5 9 9 0 00-9.5 0 14.64 14.64 0 00-2.82 2.5 10.14 10.14 0 01-1.85 1.7 4.07 4.07 0 01-4.19 0 10.4 10.4 0 01-1.84-1.69 15.27 15.27 0 00-2.82-2.5 9 9 0 00-9.5 0 15 15 0 00-2.83 2.5 10.13 10.13 0 01-1.84 1.7 4.07 4.07 0 01-4.19 0 10.13 10.13 0 01-1.84-1.7 15.27 15.27 0 00-2.82-2.5 9 9 0 00-9.51 0 14.64 14.64 0 00-2.82 2.5 10.13 10.13 0 01-1.84 1.7 3.51 3.51 0 01-1.78.56h-2.48a3.51 3.51 0 01-1.78-.56 10.13 10.13 0 01-1.84-1.7 14.64 14.64 0 00-2.82-2.5 9 9 0 00-9.5 0 14.64 14.64 0 00-2.82 2.5 10.48 10.48 0 01-1.85 1.7 4.07 4.07 0 01-4.19 0 10.4 10.4 0 01-1.84-1.69 15 15 0 00-2.83-2.5 9 9 0 00-9.5 0 14.64 14.64 0 00-2.82 2.5 10.26 10.26 0 01-1.82 1.68 4.09 4.09 0 01-4.2 0 10.13 10.13 0 01-1.84-1.7 14.64 14.64 0 00-2.82-2.5 9 9 0 00-9.51 0 14.86 14.86 0 00-2.81 2.5 10.48 10.48 0 01-1.85 1.7 4.07 4.07 0 01-4.19 0 10.4 10.4 0 01-1.84-1.69 15.27 15.27 0 00-2.82-2.5 9 9 0 00-9.51 0 15.27 15.27 0 00-2.82 2.5 10.13 10.13 0 01-1.84 1.7 4.07 4.07 0 01-4.19 0 10.48 10.48 0 01-1.85-1.7 14.64 14.64 0 00-2.82-2.5 9 9 0 00-9.5 0 14.64 14.64 0 00-2.82 2.5 9.83 9.83 0 01-1.85 1.7 3.56 3.56 0 01-2.09.58 3.61 3.61 0 01-2.1-.58 10.13 10.13 0 01-1.84-1.7 14.64 14.64 0 00-2.82-2.5 9 9 0 00-9.5 0 15 15 0 00-2.83 2.5 10.13 10.13 0 01-1.84 1.7 4.07 4.07 0 01-4.19 0 10.13 10.13 0 01-1.84-1.7 15.27 15.27 0 00-2.82-2.5 9 9 0 00-9.51 0 14.64 14.64 0 00-2.82 2.5 10.13 10.13 0 01-1.84 1.7 3.61 3.61 0 01-2.1.58 3.56 3.56 0 01-2.09-.58 9.83 9.83 0 01-1.85-1.7 14.64 14.64 0 00-2.82-2.5 9 9 0 00-9.5 0 14.64 14.64 0 00-2.82 2.5 10.48 10.48 0 01-1.85 1.7 4.07 4.07 0 01-4.19 0 10.13 10.13 0 01-1.84-1.7 15.27 15.27 0 00-2.82-2.5 9 9 0 00-9.51 0 15.27 15.27 0 00-2.82 2.5 10.13 10.13 0 01-1.84 1.7 3.61 3.61 0 01-2.1.58 3.57 3.57 0 01-1.72-.37 5.94 5.94 0 01-1.38-1l-3.9-2.5a12.2 12.2 0 00-.86-.67 8.49 8.49 0 00-4.13-1.49h-.43a8.45 8.45 0 00-4.12 1.49 10.12 10.12 0 00-1.26 1 11.43 11.43 0 01-2 1.51l-2.4 1.41a3.57 3.57 0 01-2.19.65 3.61 3.61 0 01-2.1-.58 10.13 10.13 0 01-1.84-1.7 15.27 15.27 0 00-2.82-2.5 9 9 0 00-9.51 0 14.64 14.64 0 00-2.82 2.5 10.13 10.13 0 01-1.84 1.7 3.61 3.61 0 01-2.1.58 3.56 3.56 0 01-2.09-.58 9.83 9.83 0 01-1.85-1.7 14.64 14.64 0 00-2.82-2.5 9 9 0 00-9.5 0 14.64 14.64 0 00-2.82 2.5 10.14 10.14 0 01-1.85 1.7 4.07 4.07 0 01-4.19 0 10.13 10.13 0 01-1.84-1.7 15.27 15.27 0 00-2.82-2.5 9 9 0 00-9.5 0 15 15 0 00-2.83 2.5 10.13 10.13 0 01-1.84 1.7 4.07 4.07 0 01-4.19 0 10.13 10.13 0 01-1.84-1.7 15 15 0 00-2.83-2.5 9 9 0 00-9.5 0 14.64 14.64 0 00-2.82 2.5 10.13 10.13 0 01-1.84 1.7 3.57 3.57 0 01-1.7.56h-3a3.56 3.56 0 01-1.69-.56 10.13 10.13 0 01-1.84-1.7 15.27 15.27 0 00-2.82-2.5 9 9 0 00-9.51 0 15 15 0 00-2.82 2.5 10.13 10.13 0 01-1.84 1.7 3.61 3.61 0 01-2.1.58 3.56 3.56 0 01-2.09-.58 10.41 10.41 0 01-1.85-1.69 14.64 14.64 0 00-2.82-2.5 9 9 0 00-9.5 0 15 15 0 00-2.83 2.5 10.4 10.4 0 01-1.84 1.69 4.07 4.07 0 01-4.19 0 10.13 10.13 0 01-1.84-1.7 15.27 15.27 0 00-2.82-2.5 9 9 0 00-9.51 0 14.64 14.64 0 00-2.82 2.5 10.13 10.13 0 01-1.84 1.7 3.61 3.61 0 01-2.1.58 3.56 3.56 0 01-2.09-.58 10.41 10.41 0 01-1.85-1.69 14.64 14.64 0 00-2.82-2.5 9 9 0 00-9.5 0 14.64 14.64 0 00-2.82 2.5 9.83 9.83 0 01-1.85 1.7 3.56 3.56 0 01-2.09.58 3.61 3.61 0 01-2.1-.58 10.13 10.13 0 01-1.84-1.7 14.64 14.64 0 00-2.82-2.5 9 9 0 00-9.51 0 15.27 15.27 0 00-2.82 2.5 10.13 10.13 0 01-1.84 1.7 3.5 3.5 0 01-1.93.57h-1.13a3.53 3.53 0 01-1.93-.57 10.4 10.4 0 01-1.84-1.69 14.64 14.64 0 00-2.82-2.5 9 9 0 00-9.51 0 14.86 14.86 0 00-2.81 2.5 10.48 10.48 0 01-1.85 1.7 4.07 4.07 0 01-4.19 0 10.13 10.13 0 01-1.84-1.7l-.11-.12.11.12a14.32 14.32 0 00-2.82-2.5 9 9 0 00-9.5 0 14.64 14.64 0 00-2.82 2.5 10.4 10.4 0 01-1.84 1.69 4.09 4.09 0 01-4.2 0 10.13 10.13 0 01-1.84-1.7l-.11-.12.11.12a14.92 14.92 0 00-2.82-2.5 9 9 0 00-9.51 0 15.27 15.27 0 00-2.82 2.5 10.13 10.13 0 01-1.84 1.7 4.07 4.07 0 01-4.19 0 10.13 10.13 0 01-1.84-1.7 15.27 15.27 0 00-2.82-2.5 9 9 0 00-9.51 0 15.27 15.27 0 00-2.82 2.5 10.13 10.13 0 01-1.84 1.7 4.07 4.07 0 01-4.19 0 10.4 10.4 0 01-1.84-1.69 14.64 14.64 0 00-2.82-2.5 9 9 0 00-9.5 0 14.64 14.64 0 00-2.82 2.5 9.83 9.83 0 01-1.85 1.7 3.55 3.55 0 01-1.92.57h-.91a3.55 3.55 0 01-1.92-.57 10.08 10.08 0 01-1.85-1.69 14.64 14.64 0 00-2.82-2.5 9 9 0 00-9.5 0 14.64 14.64 0 00-2.82 2.5 10.14 10.14 0 01-1.85 1.7 4.07 4.07 0 01-4.19 0 10.13 10.13 0 01-1.84-1.7 15.27 15.27 0 00-2.82-2.5 9 9 0 00-9.51 0 14.64 14.64 0 00-2.82 2.5 10.4 10.4 0 01-1.84 1.69 3.61 3.61 0 01-2.1.58 3.56 3.56 0 01-2.09-.58 9.83 9.83 0 01-1.85-1.7 14.64 14.64 0 00-2.82-2.5 9 9 0 00-9.5 0 14.64 14.64 0 00-2.82 2.5 10.14 10.14 0 01-1.85 1.7 4.07 4.07 0 01-4.19 0 10.4 10.4 0 01-1.84-1.69 15.27 15.27 0 00-2.82-2.5 9 9 0 00-9.51 0 15.27 15.27 0 00-2.82 2.5 10.13 10.13 0 01-1.84 1.7 4.07 4.07 0 01-4.19 0 10.4 10.4 0 01-1.84-1.69 15 15 0 00-2.83-2.5 9 9 0 00-9.5 0 14.64 14.64 0 00-2.82 2.5 10.13 10.13 0 01-1.84 1.7 3.51 3.51 0 01-1.78.56h-2.48a3.51 3.51 0 01-1.78-.56 10.13 10.13 0 01-1.84-1.7 14.64 14.64 0 00-2.82-2.5 9 9 0 00-9.51 0 15.27 15.27 0 00-2.82 2.5 10.13 10.13 0 01-1.84 1.7 4.07 4.07 0 01-4.19 0 10.4 10.4 0 01-1.84-1.69 15 15 0 00-2.83-2.5 9 9 0 00-9.5 0 14.64 14.64 0 00-2.82 2.5 10.13 10.13 0 01-1.84 1.7 4.09 4.09 0 01-4.2 0 10.13 10.13 0 01-1.84-1.7 14.64 14.64 0 00-2.82-2.5 9 9 0 00-9.51 0 15.27 15.27 0 00-2.82 2.5 10.13 10.13 0 01-1.84 1.7 4.07 4.07 0 01-4.19 0 10.13 10.13 0 01-1.84-1.7 15.27 15.27 0 00-2.82-2.5 9 9 0 00-9.51 0 15 15 0 00-2.82 2.5 10.13 10.13 0 01-1.84 1.7 4.07 4.07 0 01-4.19 0 10.48 10.48 0 01-1.85-1.7 14.64 14.64 0 00-2.82-2.5 9 9 0 00-9.5 0 14.64 14.64 0 00-2.82 2.5 9.83 9.83 0 01-1.85 1.7 4.07 4.07 0 01-4.19 0 10.13 10.13 0 01-1.84-1.7 14.64 14.64 0 00-2.82-2.5 9 9 0 00-9.51 0 15.27 15.27 0 00-2.82 2.5 10.13 10.13 0 01-1.84 1.7 4.07 4.07 0 01-4.19 0 10.13 10.13 0 01-1.84-1.7 15.27 15.27 0 00-2.82-2.5 9 9 0 00-9.51 0 14.64 14.64 0 00-2.82 2.5 9.83 9.83 0 01-1.85 1.7 3.56 3.56 0 01-2.09.58 3.61 3.61 0 01-2.1-.58 10.13 10.13 0 01-1.84-1.7 14.64 14.64 0 00-2.82-2.5 9 9 0 00-9.5 0 14.64 14.64 0 00-2.82 2.5 10.48 10.48 0 01-1.85 1.7 4.07 4.07 0 01-4.19 0 10.13 10.13 0 01-1.84-1.7 15.27 15.27 0 00-2.82-2.5 9 9 0 00-9.51 0 14.64 14.64 0 00-2.82 2.5 10.13 10.13 0 01-1.84 1.7 3.61 3.61 0 01-2.1.58 3.55 3.55 0 01-2.26-.71l-1.41-1-.55-.56a15.07 15.07 0 00-2.77-2.46 8.56 8.56 0 00-4.62-1.38h-.09a8.58 8.58 0 00-4.62 1.38 15 15 0 00-2.76 2.46 16 16 0 01-1.34 1.31l-.36.25-1 .43a3.87 3.87 0 01-1.51.28 3.58 3.58 0 01-2.09-.58 10.14 10.14 0 01-1.85-1.7 14.64 14.64 0 00-2.82-2.5 9 9 0 00-9.5 0 14.64 14.64 0 00-2.82 2.5 10.14 10.14 0 01-1.85 1.7 3.56 3.56 0 01-2.09.58 3.61 3.61 0 01-2.1-.58 10.4 10.4 0 01-1.84-1.69 15.27 15.27 0 00-2.82-2.5 9 9 0 00-9.51 0 15.27 15.27 0 00-2.82 2.5 10.13 10.13 0 01-1.84 1.7 4.07 4.07 0 01-4.19 0 10.13 10.13 0 01-1.84-1.7 14.64 14.64 0 00-2.82-2.5 9 9 0 00-9.5 0 14.64 14.64 0 00-2.82 2.5 10.13 10.13 0 01-1.84 1.7 3.61 3.61 0 01-2.1.58 3.56 3.56 0 01-2.09-.58 9.83 9.83 0 01-1.85-1.7 14.64 14.64 0 00-2.82-2.5 9 9 0 00-9.5 0 14.64 14.64 0 00-2.82 2.5 10.14 10.14 0 01-1.85 1.7 3.53 3.53 0 01-1.69.56h-3a3.53 3.53 0 01-1.69-.56 10.14 10.14 0 01-1.85-1.7 14.64 14.64 0 00-2.82-2.5 9 9 0 00-9.5 0 14.64 14.64 0 00-2.82 2.5 10.14 10.14 0 01-1.85 1.7 4.07 4.07 0 01-4.19 0 10.4 10.4 0 01-1.84-1.69 15.27 15.27 0 00-2.82-2.5 9 9 0 00-9.51 0 15 15 0 00-2.82 2.5 10.13 10.13 0 01-1.84 1.7 3.61 3.61 0 01-2.1.58 3.56 3.56 0 01-2.09-.58 9.83 9.83 0 01-1.85-1.7 14.64 14.64 0 00-2.82-2.5 9 9 0 00-9.5 0 14.64 14.64 0 00-2.82 2.5 10.14 10.14 0 01-1.85 1.7 4.07 4.07 0 01-4.19 0 10.13 10.13 0 01-1.84-1.7 15 15 0 00-2.82-2.5 9 9 0 00-9.5 0 15 15 0 00-2.83 2.5 10.13 10.13 0 01-1.84 1.7 4.07 4.07 0 01-4.19 0 10.13 10.13 0 01-1.84-1.7 15 15 0 00-2.83-2.5 9 9 0 00-9.5 0 14.64 14.64 0 00-2.82 2.5 10.13 10.13 0 01-1.84 1.7 3.53 3.53 0 01-1.93.57l-.57-.16-.56.16a3.5 3.5 0 01-1.93-.57 10.13 10.13 0 01-1.84-1.7 15.27 15.27 0 00-2.82-2.5 9 9 0 00-9.51 0 15 15 0 00-2.82 2.5 10.13 10.13 0 01-1.84 1.7 3.61 3.61 0 01-2.1.58 3.56 3.56 0 01-2.09-.58 10.41 10.41 0 01-1.85-1.69 14.64 14.64 0 00-2.82-2.5 8.62 8.62 0 00-4.75-1.35 8.62 8.62 0 00-4.85 1.16 15 15 0 00-2.83 2.5 10.4 10.4 0 01-1.84 1.69 3.58 3.58 0 01-2.09.58 3.59 3.59 0 01-2.1-.58 10.13 10.13 0 01-1.84-1.7 15 15 0 00-2.83-2.5 6 6 0 00-.66-.37Q-5 993.18-6.73 995a4 4 0 011.73.59 11.17 11.17 0 011.94 1.78 14.47 14.47 0 002.71 2.42 8.31 8.31 0 004.58 1.31 8.3 8.3 0 004.57-1.31 14.47 14.47 0 002.71-2.42 11.17 11.17 0 011.94-1.78 4 4 0 012.29-.62 4 4 0 012.29.62A11.17 11.17 0 0120 997.4a14.47 14.47 0 002.71 2.42 8.64 8.64 0 009.15 0 14.8 14.8 0 002.71-2.42 10.82 10.82 0 011.94-1.78 4.52 4.52 0 014.57 0A11.17 11.17 0 0143 997.4a14.47 14.47 0 002.71 2.42 8.3 8.3 0 004.57 1.31 2.41 2.41 0 00.4 0 2.41 2.41 0 00.4 0 8.34 8.34 0 004.58-1.31 14.8 14.8 0 002.71-2.42 10.82 10.82 0 011.94-1.78 4.52 4.52 0 014.57 0 11.17 11.17 0 011.94 1.78 14.47 14.47 0 002.71 2.42 8.64 8.64 0 009.15 0 14.47 14.47 0 002.71-2.42 11.17 11.17 0 011.94-1.78 4.52 4.52 0 014.57 0 11.17 11.17 0 011.94 1.78 14.8 14.8 0 002.71 2.42 8.64 8.64 0 009.15 0 14.47 14.47 0 002.71-2.42 11.17 11.17 0 011.94-1.78 4.54 4.54 0 014.58 0 11.17 11.17 0 011.94 1.78 14.47 14.47 0 002.71 2.42 8.64 8.64 0 009.15 0 14.8 14.8 0 002.71-2.42 11.17 11.17 0 011.94-1.78 4.52 4.52 0 014.57 0 11.17 11.17 0 011.94 1.78 14.8 14.8 0 002.71 2.42 8.64 8.64 0 009.15 0 14.47 14.47 0 002.71-2.42 11.17 11.17 0 011.94-1.78 4.54 4.54 0 014.58 0 11.17 11.17 0 011.94 1.78 14.47 14.47 0 002.71 2.42 8.3 8.3 0 004.57 1.31 3.51 3.51 0 001.09-.19 3.63 3.63 0 001.1.19 8.3 8.3 0 004.57-1.31 14.47 14.47 0 002.71-2.42 11.17 11.17 0 011.94-1.78 4.54 4.54 0 014.58 0 11.17 11.17 0 011.94 1.78 14.47 14.47 0 002.71 2.42 8.63 8.63 0 009.14 0 14.47 14.47 0 002.71-2.42 11.17 11.17 0 011.94-1.78 4.54 4.54 0 014.58 0 11.17 11.17 0 011.94 1.78 14.47 14.47 0 002.71 2.42 8.64 8.64 0 009.15 0 14.8 14.8 0 002.71-2.42 11.17 11.17 0 011.94-1.78 4.52 4.52 0 014.57 0 11.17 11.17 0 011.94 1.78 14.8 14.8 0 002.71 2.42 8.64 8.64 0 009.15 0 14.47 14.47 0 002.71-2.42 11.17 11.17 0 011.94-1.78 4.54 4.54 0 014.58 0 11.17 11.17 0 011.94 1.78 14.47 14.47 0 002.71 2.42 8.3 8.3 0 004.57 1.31h.08l3.06-.48a8.57 8.57 0 002.65-1.52 18.77 18.77 0 001.79-1.73 11.2 11.2 0 011.91-1.75 4 4 0 014.36 0 10.82 10.82 0 011.9 1.75l.12.12a11.5 11.5 0 004.7 3l.57.19a6.46 6.46 0 002.17.4 8.34 8.34 0 004.58-1.31 14.8 14.8 0 002.71-2.42 10.82 10.82 0 011.94-1.78 4.52 4.52 0 014.57 0 11.17 11.17 0 011.94 1.78 14.47 14.47 0 002.71 2.42 8.64 8.64 0 009.15 0 14.47 14.47 0 002.71-2.42 11.17 11.17 0 011.94-1.78 4.54 4.54 0 014.58 0 11.16 11.16 0 011.93 1.78 14.89 14.89 0 002.72 2.42 8.63 8.63 0 009.14 0 14.47 14.47 0 002.71-2.42 11.17 11.17 0 011.94-1.78 4.54 4.54 0 014.58 0 11.17 11.17 0 011.94 1.78 14.47 14.47 0 002.71 2.42 8.64 8.64 0 009.15 0 14.47 14.47 0 002.71-2.42 11.17 11.17 0 011.94-1.78 4.52 4.52 0 014.57 0 10.82 10.82 0 011.94 1.78 15.14 15.14 0 002.71 2.42 8.64 8.64 0 009.15 0 14.47 14.47 0 002.71-2.42 11.17 11.17 0 011.94-1.78 4.54 4.54 0 014.58 0 11.17 11.17 0 011.94 1.78 14.47 14.47 0 002.71 2.42 8.64 8.64 0 009.15 0 14.8 14.8 0 002.71-2.42 11.17 11.17 0 011.94-1.78 4.52 4.52 0 014.57 0 11.17 11.17 0 011.94 1.78 14.47 14.47 0 002.71 2.42 8.64 8.64 0 009.15 0 14.47 14.47 0 002.71-2.42 11.17 11.17 0 011.94-1.78 4.52 4.52 0 014.57 0 10.82 10.82 0 011.94 1.78 14.8 14.8 0 002.71 2.42 8.64 8.64 0 009.15 0 14.47 14.47 0 002.71-2.42 11.54 11.54 0 011.94-1.78 4.54 4.54 0 014.58 0 11.17 11.17 0 011.94 1.78 14.36 14.36 0 002.7 2.41 8.64 8.64 0 009.15 0 14.47 14.47 0 002.71-2.42 11.17 11.17 0 011.94-1.78 4.54 4.54 0 014.58 0 11.16 11.16 0 011.93 1.78 14.8 14.8 0 002.71 2.42 8.34 8.34 0 004.58 1.31 3.93 3.93 0 00.92-.13 3.85 3.85 0 00.92.13 8.3 8.3 0 004.57-1.31 14.89 14.89 0 002.72-2.42 11.16 11.16 0 011.93-1.78 4.54 4.54 0 014.58 0 11.17 11.17 0 011.94 1.78 14.47 14.47 0 002.71 2.42 8.64 8.64 0 009.15 0 14.8 14.8 0 002.71-2.42 11.17 11.17 0 011.94-1.78 4.52 4.52 0 014.57 0 11.17 11.17 0 011.94 1.78 14.8 14.8 0 002.71 2.42 8.64 8.64 0 009.15 0 14.47 14.47 0 002.71-2.42 10.78 10.78 0 011.94-1.78 4.54 4.54 0 014.58 0 11.17 11.17 0 011.94 1.78 14.47 14.47 0 002.71 2.42 8.64 8.64 0 009.15 0 14.8 14.8 0 002.71-2.42 10.46 10.46 0 011.94-1.78 4.52 4.52 0 014.57 0 11.17 11.17 0 011.94 1.78 14.8 14.8 0 002.71 2.42 8.64 8.64 0 009.15 0 14.47 14.47 0 002.71-2.42 11.17 11.17 0 011.94-1.78 4.54 4.54 0 014.58 0 11.17 11.17 0 011.94 1.78 14.47 14.47 0 002.71 2.42 8.3 8.3 0 004.57 1.31h.57a8.3 8.3 0 004.57-1.31 14.47 14.47 0 002.71-2.42 11.17 11.17 0 011.94-1.78 4.54 4.54 0 014.58 0 11.17 11.17 0 011.94 1.78 14.47 14.47 0 002.71 2.42 8.64 8.64 0 009.15 0 14.8 14.8 0 002.71-2.42 11.17 11.17 0 011.94-1.78 4.52 4.52 0 014.57 0 11.17 11.17 0 011.94 1.78 14.47 14.47 0 002.71 2.42 8.64 8.64 0 009.15 0 14.47 14.47 0 002.71-2.42 10.78 10.78 0 011.94-1.78 4.54 4.54 0 014.58 0 11.54 11.54 0 011.94 1.78 14.45 14.45 0 002.68 2.38 8.64 8.64 0 009.15 0 15.14 15.14 0 002.71-2.42 10.77 10.77 0 011.93-1.78 4.54 4.54 0 014.58 0 11.17 11.17 0 011.94 1.78 14.47 14.47 0 002.71 2.42 8.64 8.64 0 009.15 0 14.47 14.47 0 002.71-2.42 11.17 11.17 0 011.94-1.78 4.54 4.54 0 014.58 0 11.16 11.16 0 011.93 1.78 14.8 14.8 0 002.71 2.42 8.34 8.34 0 004.58 1.31 2.41 2.41 0 00.4 0 2.33 2.33 0 00.4 0 8.3 8.3 0 004.57-1.31 14.47 14.47 0 002.71-2.42 11.17 11.17 0 011.94-1.78 4.52 4.52 0 014.57 0 10.84 10.84 0 012 1.78 14.47 14.47 0 002.71 2.42 8.63 8.63 0 009.14 0 14.47 14.47 0 002.71-2.42 11.17 11.17 0 011.94-1.78 4.54 4.54 0 014.58 0 11.17 11.17 0 011.94 1.78 14.47 14.47 0 002.71 2.42 8.63 8.63 0 009.14 0 14.89 14.89 0 002.72-2.42 10.82 10.82 0 011.94-1.78 4.52 4.52 0 014.57 0 11.17 11.17 0 011.94 1.78 14.47 14.47 0 002.71 2.42 8.64 8.64 0 009.15 0 14.47 14.47 0 002.71-2.42 11.17 11.17 0 011.94-1.78 4.54 4.54 0 014.58 0 11.17 11.17 0 011.94 1.78 14.47 14.47 0 002.71 2.42 8.64 8.64 0 009.15 0 14.8 14.8 0 002.71-2.42 11.17 11.17 0 011.94-1.78 4.52 4.52 0 014.57 0 11.17 11.17 0 011.94 1.78 14.47 14.47 0 002.71 2.42 8.27 8.27 0 004.56 1.31h2.21a8.27 8.27 0 004.56-1.31 14.89 14.89 0 002.66-2.35 10.82 10.82 0 011.94-1.78 4.52 4.52 0 014.57 0 11.17 11.17 0 011.94 1.78v.05a14.67 14.67 0 002.67 2.37 8.64 8.64 0 009.15 0 14.8 14.8 0 002.71-2.42 11.17 11.17 0 011.94-1.78 4.52 4.52 0 014.57 0 11.17 11.17 0 011.94 1.78 14.36 14.36 0 002.67 2.38 8.64 8.64 0 009.15 0 14.47 14.47 0 002.71-2.42 11.17 11.17 0 011.94-1.78 4.54 4.54 0 014.58 0 11.17 11.17 0 011.94 1.78 14.47 14.47 0 002.71 2.42 8.64 8.64 0 009.15 0 14.8 14.8 0 002.71-2.42 10.82 10.82 0 011.94-1.78 4.52 4.52 0 014.57 0 11.17 11.17 0 011.94 1.78 14.8 14.8 0 002.71 2.42 8.31 8.31 0 004.58 1.31 7.53 7.53 0 001.27-.09l1.8-.23a7.64 7.64 0 003.91-1.68 18.77 18.77 0 001.79-1.73 11.86 11.86 0 011.79-1.66 2.61 2.61 0 013.49 0 11.4 11.4 0 011.79 1.66 14.85 14.85 0 002.75 2.44l3.53.95a8.75 8.75 0 002.4.34 8.34 8.34 0 004.58-1.31 14.8 14.8 0 002.71-2.42 11.17 11.17 0 011.94-1.78 4.52 4.52 0 014.57 0 11.17 11.17 0 011.95 1.82 14.8 14.8 0 002.71 2.42 8.64 8.64 0 009.15 0 14.47 14.47 0 002.71-2.42 11.17 11.17 0 011.94-1.78 4.54 4.54 0 014.58 0 11.17 11.17 0 011.91 1.78 14.47 14.47 0 002.71 2.42 8.64 8.64 0 009.15 0 14.8 14.8 0 002.71-2.42 11.54 11.54 0 011.94-1.78 4.54 4.54 0 014.58 0 11.17 11.17 0 011.94 1.78 14.8 14.8 0 002.71 2.42 8.64 8.64 0 009.15 0 14.47 14.47 0 002.71-2.42 11.17 11.17 0 011.94-1.78 4.54 4.54 0 014.58 0 11.16 11.16 0 011.93 1.78 14.89 14.89 0 002.72 2.42 8.63 8.63 0 009.14 0 14.47 14.47 0 002.71-2.42 11.16 11.16 0 011.93-1.78 4.54 4.54 0 014.58 0 11.17 11.17 0 011.94 1.78 14.32 14.32 0 002.67 2.38 8.64 8.64 0 009.15 0 14.8 14.8 0 002.71-2.42 11.17 11.17 0 011.94-1.78 4.52 4.52 0 014.57 0 11.17 11.17 0 011.94 1.78 14.47 14.47 0 002.71 2.42 8.64 8.64 0 009.15 0 14.47 14.47 0 002.71-2.42 10.78 10.78 0 011.94-1.78 4.54 4.54 0 014.58 0 11.54 11.54 0 011.94 1.78 14.89 14.89 0 002.72 2.42 8.64 8.64 0 009.15 0 14.8 14.8 0 002.71-2.42 11.16 11.16 0 011.93-1.78 4.54 4.54 0 014.58 0 11.17 11.17 0 011.94 1.78 14.8 14.8 0 002.71 2.42 8.64 8.64 0 009.15 0 14.47 14.47 0 002.71-2.42 11.17 11.17 0 011.94-1.78 4.54 4.54 0 014.58 0 10.81 10.81 0 011.93 1.78 14.8 14.8 0 002.71 2.42 8.33 8.33 0 004.57 1.31h1.86a8.33 8.33 0 004.57-1.31 14.8 14.8 0 002.71-2.42 10.82 10.82 0 011.94-1.78 4.52 4.52 0 014.57 0 11.17 11.17 0 011.94 1.78 14.47 14.47 0 002.71 2.42 8.64 8.64 0 009.15 0 14.47 14.47 0 002.71-2.42 11.17 11.17 0 011.94-1.78 4.52 4.52 0 014.57 0 11.19 11.19 0 011.95 1.78 14.8 14.8 0 002.71 2.42 8.64 8.64 0 009.15 0 14.47 14.47 0 002.71-2.42 11.17 11.17 0 011.94-1.78 4.54 4.54 0 014.58 0 11.17 11.17 0 011.94 1.78 14.47 14.47 0 002.71 2.42 8.64 8.64 0 009.15 0 14.8 14.8 0 002.71-2.42 10.82 10.82 0 011.94-1.78 4.52 4.52 0 014.57 0 11.17 11.17 0 011.94 1.78 14.8 14.8 0 002.71 2.42 8.64 8.64 0 009.15 0 14.47 14.47 0 002.71-2.42 11.17 11.17 0 011.94-1.78 4.54 4.54 0 014.58 0 11.17 11.17 0 011.94 1.78 14.47 14.47 0 002.71 2.42 8.3 8.3 0 004.57 1.31h.57a8.3 8.3 0 004.57-1.31 14.47 14.47 0 002.71-2.42 11.17 11.17 0 011.94-1.78 4.54 4.54 0 014.58 0 11.17 11.17 0 011.94 1.78 14.47 14.47 0 002.71 2.42 8.64 8.64 0 009.15 0 14.8 14.8 0 002.71-2.42 11.17 11.17 0 011.94-1.78 4.52 4.52 0 014.57 0 11.17 11.17 0 011.94 1.78 14.47 14.47 0 002.71 2.42 8.64 8.64 0 009.15 0 14.47 14.47 0 002.71-2.42 11.17 11.17 0 011.94-1.78 4.54 4.54 0 014.58 0 11.17 11.17 0 011.94 1.78 14.47 14.47 0 002.71 2.42 8.64 8.64 0 009.15 0 14.8 14.8 0 002.71-2.42 11.54 11.54 0 011.94-1.78 4.54 4.54 0 014.58 0 11.17 11.17 0 011.94 1.78 14.8 14.8 0 002.71 2.42 8.64 8.64 0 009.15 0 14.47 14.47 0 002.71-2.42 11.17 11.17 0 011.94-1.78 4.54 4.54 0 014.58 0 11.17 11.17 0 011.94 1.78 14.47 14.47 0 002.71 2.42 8.3 8.3 0 004.57 1.31 2.68 2.68 0 01.8 0 8.3 8.3 0 004.57-1.31 14.47 14.47 0 002.71-2.42 11.17 11.17 0 011.94-1.78 4.54 4.54 0 014.58 0 11.17 11.17 0 011.94 1.78 14.47 14.47 0 002.71 2.42 8.63 8.63 0 009.14 0 14.47 14.47 0 002.71-2.42 11.17 11.17 0 011.94-1.78 4.54 4.54 0 014.58 0 11.17 11.17 0 011.94 1.78 14.47 14.47 0 002.71 2.42 8.64 8.64 0 009.15 0 15.14 15.14 0 002.71-2.42 11.17 11.17 0 011.94-1.78 4.52 4.52 0 014.57 0 11.17 11.17 0 011.94 1.78 14.8 14.8 0 002.71 2.42 8.64 8.64 0 009.15 0 14.47 14.47 0 002.71-2.42 11.17 11.17 0 011.94-1.78 4.54 4.54 0 014.58 0 11.17 11.17 0 011.94 1.78 14.47 14.47 0 002.71 2.42 8.64 8.64 0 009.15 0 14.8 14.8 0 002.71-2.42 11.17 11.17 0 011.94-1.78 4.52 4.52 0 014.57 0 11.17 11.17 0 011.94 1.78 14.8 14.8 0 002.71 2.42 8.3 8.3 0 004.57 1.31h2.2a8.33 8.33 0 004.57-1.31 14.8 14.8 0 002.71-2.42 10.82 10.82 0 011.94-1.78 3.94 3.94 0 012.28-.62 4 4 0 012.29.62 11.17 11.17 0 011.94 1.78 14.47 14.47 0 002.71 2.42 8.64 8.64 0 009.15 0 14.47 14.47 0 002.71-2.42 11.17 11.17 0 011.94-1.78 4.52 4.52 0 014.57 0 11.19 11.19 0 012 1.78 14.8 14.8 0 002.71 2.42 8.64 8.64 0 009.15 0 14.47 14.47 0 002.71-2.42 11.17 11.17 0 011.94-1.78 4.54 4.54 0 014.58 0 11.17 11.17 0 011.94 1.78 14.47 14.47 0 002.71 2.42 8.64 8.64 0 009.15 0 14.8 14.8 0 002.71-2.42 11.17 11.17 0 011.94-1.78 4.52 4.52 0 014.57 0 10.82 10.82 0 011.94 1.78 14.8 14.8 0 002.71 2.42 8.34 8.34 0 004.58 1.31h.08l1.89-.3a8 8 0 003.82-1.7 19.83 19.83 0 001.78-1.73 10.5 10.5 0 011.91-1.75 4 4 0 014.35 0 11.2 11.2 0 011.91 1.75 14.43 14.43 0 002.74 2.44l2.65.89a6.45 6.45 0 002.16.4 8.3 8.3 0 004.57-1.31 14.47 14.47 0 002.71-2.42 11.17 11.17 0 011.94-1.78 4.54 4.54 0 014.58 0 11.17 11.17 0 011.94 1.78 14.89 14.89 0 002.72 2.42 8.63 8.63 0 009.14 0 14.89 14.89 0 002.72-2.42 10.81 10.81 0 011.93-1.78 4.54 4.54 0 014.58 0 11.17 11.17 0 011.94 1.78 14.47 14.47 0 002.71 2.42 8.64 8.64 0 009.15 0 14.8 14.8 0 002.71-2.42 11.17 11.17 0 011.94-1.78 4.52 4.52 0 014.57 0 10.82 10.82 0 011.94 1.78l.22.23-.16-.17a14.09 14.09 0 002.65 2.35 8.63 8.63 0 009.14 0 14.47 14.47 0 002.71-2.42 11.17 11.17 0 011.94-1.78 4.54 4.54 0 014.58 0 10.78 10.78 0 011.94 1.78 14.47 14.47 0 002.71 2.42 8.64 8.64 0 009.15 0 14.8 14.8 0 002.71-2.42 11.17 11.17 0 011.94-1.78 4.52 4.52 0 014.57 0 11.17 11.17 0 011.94 1.78 14.8 14.8 0 002.71 2.42 8.64 8.64 0 009.15 0 14.47 14.47 0 002.71-2.42 11.17 11.17 0 011.94-1.78 4.54 4.54 0 014.58 0 11.17 11.17 0 011.94 1.78 14.69 14.69 0 002.7 2.41 8.64 8.64 0 009.15 0 14.47 14.47 0 002.71-2.42 10.77 10.77 0 011.93-1.78 4.54 4.54 0 014.58 0 11.17 11.17 0 011.94 1.78 14.47 14.47 0 002.71 2.42 8.64 8.64 0 009.15 0 14.47 14.47 0 002.71-2.42 11.17 11.17 0 011.94-1.78 4.54 4.54 0 014.58 0 11.17 11.17 0 011.94 1.78 14.89 14.89 0 002.72 2.42 8.63 8.63 0 009.14 0 14.47 14.47 0 002.71-2.42 11.17 11.17 0 011.94-1.78 4.54 4.54 0 014.58 0 11.17 11.17 0 011.94 1.78 14.47 14.47 0 002.71 2.42 8.3 8.3 0 004.57 1.31h1.84a8.31 8.31 0 004.58-1.31 14.47 14.47 0 002.71-2.42 10.78 10.78 0 011.94-1.78 4.54 4.54 0 014.58 0 11.54 11.54 0 011.94 1.78 14.57 14.57 0 002.72 2.42 8.63 8.63 0 009.14 0 14.89 14.89 0 002.72-2.42 10.81 10.81 0 011.93-1.78 4.54 4.54 0 014.58 0 11.17 11.17 0 011.94 1.78 14.47 14.47 0 002.71 2.42 8.63 8.63 0 009.14 0 14.57 14.57 0 002.72-2.42 10.6 10.6 0 011.93-1.76 4.52 4.52 0 014.57 0 11.17 11.17 0 011.94 1.78 14.8 14.8 0 002.71 2.42 8.64 8.64 0 009.15 0 14.47 14.47 0 002.71-2.42 11.17 11.17 0 011.94-1.78 4.54 4.54 0 014.58 0 11.17 11.17 0 011.94 1.78 14.47 14.47 0 002.71 2.42 8.64 8.64 0 009.15 0 14.8 14.8 0 002.71-2.42 10.82 10.82 0 011.94-1.78 4.52 4.52 0 014.57 0 11.17 11.17 0 011.94 1.78 14.47 14.47 0 002.71 2.42 8.07 8.07 0 002.76 1.11q-2.68-4.83-5.62-9.54zM386.75 1068.09a15.49 15.49 0 002.51 2.88 6.58 6.58 0 008.51 0 15.49 15.49 0 002.51-2.88 11.53 11.53 0 011.81-2.12 3.42 3.42 0 014.25 0 11.54 11.54 0 011.8 2.12 15.21 15.21 0 002.52 2.88 6.49 6.49 0 004.25 1.56h.53a6.38 6.38 0 003.85-1.28q3.24-5.85 6.71-11.52a6.81 6.81 0 00-4.28 1.59 15.74 15.74 0 00-2.62 3 10.83 10.83 0 01-1.72 2 2.8 2.8 0 01-1.78.68h-.85a2.81 2.81 0 01-1.79-.68 10.83 10.83 0 01-1.71-2 15.74 15.74 0 00-2.62-3 6.89 6.89 0 00-8.83 0 15.74 15.74 0 00-2.62 3 11.22 11.22 0 01-1.72 2 3.09 3.09 0 01-3.89 0 10.83 10.83 0 01-1.71-2 16.18 16.18 0 00-2.63-3 6.89 6.89 0 00-8.83 0 15.74 15.74 0 00-2.62 3 10.83 10.83 0 01-1.71 2 3.1 3.1 0 01-3.9 0 10.83 10.83 0 01-1.71-2 15.74 15.74 0 00-2.62-3 6.89 6.89 0 00-8.83 0 15.74 15.74 0 00-2.62 3 10.83 10.83 0 01-1.72 2 3.09 3.09 0 01-3.89 0 10.83 10.83 0 01-1.71-2 16.48 16.48 0 00-2.62-3 6.89 6.89 0 00-8.83 0 15.74 15.74 0 00-2.62 3 11.22 11.22 0 01-1.72 2 3.09 3.09 0 01-3.89 0 10.83 10.83 0 01-1.71-2 15.74 15.74 0 00-2.62-3 6.89 6.89 0 00-8.83 0 15.74 15.74 0 00-2.62 3 10.83 10.83 0 01-1.71 2 2.84 2.84 0 01-1.65.67h-2.3a2.9 2.9 0 01-1.66-.67 10.83 10.83 0 01-1.71-2 15.74 15.74 0 00-2.62-3 7.12 7.12 0 00-1.95-1.15v6.12a13.87 13.87 0 011.46 1.8A15.57 15.57 0 00302 1071a6.49 6.49 0 004.25 1.56h1.71a6.49 6.49 0 004.25-1.56 15.21 15.21 0 002.52-2.88 11.54 11.54 0 011.8-2.12 3.42 3.42 0 014.25 0 11.53 11.53 0 011.81 2.12 15.21 15.21 0 002.52 2.88 6.56 6.56 0 008.49 0 15.21 15.21 0 002.52-2.88 11.53 11.53 0 011.81-2.12 3.1 3.1 0 012.12-.74 3.15 3.15 0 012.13.74 11.94 11.94 0 011.8 2.12 15.21 15.21 0 002.52 2.88 6.57 6.57 0 008.5 0 16 16 0 002.52-2.88 11.54 11.54 0 011.8-2.12 3.42 3.42 0 014.25 0 11.54 11.54 0 011.8 2.12 15.57 15.57 0 002.52 2.88 6.57 6.57 0 008.5 0 15.21 15.21 0 002.52-2.88 11.54 11.54 0 011.8-2.12 3.42 3.42 0 014.25 0 11.53 11.53 0 011.79 2.09zM800.75 1030.09a15.49 15.49 0 002.51 2.88 6.58 6.58 0 008.51 0 15.49 15.49 0 002.51-2.88 11.53 11.53 0 011.81-2.12 3.42 3.42 0 014.25 0 11.54 11.54 0 011.8 2.12 15.21 15.21 0 002.52 2.88 6.49 6.49 0 004.25 1.56h.53a6.38 6.38 0 003.85-1.28q3.24-5.85 6.71-11.52a6.81 6.81 0 00-4.28 1.59 15.74 15.74 0 00-2.62 3 10.83 10.83 0 01-1.72 2 2.8 2.8 0 01-1.78.68h-.85a2.81 2.81 0 01-1.79-.68 10.83 10.83 0 01-1.71-2 15.74 15.74 0 00-2.62-3 6.89 6.89 0 00-8.83 0 15.74 15.74 0 00-2.62 3 11.22 11.22 0 01-1.72 2 3.09 3.09 0 01-3.89 0 10.83 10.83 0 01-1.71-2 16.18 16.18 0 00-2.63-3 6.89 6.89 0 00-8.83 0 15.74 15.74 0 00-2.62 3 10.83 10.83 0 01-1.71 2 3.1 3.1 0 01-3.9 0 10.83 10.83 0 01-1.71-2 15.74 15.74 0 00-2.62-3 6.89 6.89 0 00-8.83 0 15.74 15.74 0 00-2.62 3 10.83 10.83 0 01-1.72 2 3.09 3.09 0 01-3.89 0 10.83 10.83 0 01-1.71-2 16.48 16.48 0 00-2.62-3 6.89 6.89 0 00-8.83 0 15.74 15.74 0 00-2.62 3 11.22 11.22 0 01-1.72 2 3.09 3.09 0 01-3.89 0 10.83 10.83 0 01-1.71-2 15.74 15.74 0 00-2.62-3 6.89 6.89 0 00-8.83 0 15.74 15.74 0 00-2.62 3 10.83 10.83 0 01-1.71 2 2.84 2.84 0 01-1.65.67h-2.3a2.9 2.9 0 01-1.66-.67 10.83 10.83 0 01-1.71-2 15.74 15.74 0 00-2.62-3 7.12 7.12 0 00-2-1.15v6.12a13.87 13.87 0 011.46 1.8A15.57 15.57 0 00716 1033a6.49 6.49 0 004.25 1.56h1.71a6.49 6.49 0 004.25-1.56 15.21 15.21 0 002.52-2.88 11.54 11.54 0 011.8-2.12 3.42 3.42 0 014.25 0 11.53 11.53 0 011.81 2.12 15.21 15.21 0 002.52 2.88 6.56 6.56 0 008.49 0 15.21 15.21 0 002.52-2.88 11.53 11.53 0 011.81-2.12 3.1 3.1 0 012.12-.74 3.15 3.15 0 012.13.74 11.94 11.94 0 011.8 2.12 15.21 15.21 0 002.52 2.88 6.57 6.57 0 008.5 0 16 16 0 002.52-2.88 11.54 11.54 0 011.8-2.12 3.42 3.42 0 014.25 0 11.54 11.54 0 011.8 2.12 15.57 15.57 0 002.52 2.88 6.57 6.57 0 008.5 0 15.21 15.21 0 002.52-2.88 11.54 11.54 0 011.8-2.12 3.42 3.42 0 014.25 0 11.53 11.53 0 011.79 2.09zM890.75 1055.09a15.49 15.49 0 002.51 2.88 6.58 6.58 0 008.51 0 15.49 15.49 0 002.51-2.88 11.53 11.53 0 011.81-2.12 3.42 3.42 0 014.25 0 11.54 11.54 0 011.8 2.12 15.21 15.21 0 002.52 2.88 6.49 6.49 0 004.25 1.56h.53a6.38 6.38 0 003.85-1.28q3.24-5.85 6.71-11.52a6.81 6.81 0 00-4.28 1.59 15.74 15.74 0 00-2.62 3 10.83 10.83 0 01-1.72 2 2.8 2.8 0 01-1.78.68h-.85a2.81 2.81 0 01-1.79-.68 10.83 10.83 0 01-1.71-2 15.74 15.74 0 00-2.62-3 6.89 6.89 0 00-8.83 0 15.74 15.74 0 00-2.62 3 11.22 11.22 0 01-1.72 2 3.09 3.09 0 01-3.89 0 10.83 10.83 0 01-1.71-2 16.18 16.18 0 00-2.63-3 6.89 6.89 0 00-8.83 0 15.74 15.74 0 00-2.62 3 10.83 10.83 0 01-1.71 2 3.1 3.1 0 01-3.9 0 10.83 10.83 0 01-1.71-2 15.74 15.74 0 00-2.62-3 6.89 6.89 0 00-8.83 0 15.74 15.74 0 00-2.62 3 10.83 10.83 0 01-1.72 2 3.09 3.09 0 01-3.89 0 10.83 10.83 0 01-1.71-2 16.48 16.48 0 00-2.62-3 6.89 6.89 0 00-8.83 0 15.74 15.74 0 00-2.62 3 11.22 11.22 0 01-1.72 2 3.09 3.09 0 01-3.89 0 10.83 10.83 0 01-1.71-2 15.74 15.74 0 00-2.62-3 6.89 6.89 0 00-8.83 0 15.74 15.74 0 00-2.62 3 10.83 10.83 0 01-1.71 2 2.84 2.84 0 01-1.65.67h-2.3a2.9 2.9 0 01-1.66-.67 10.83 10.83 0 01-1.71-2 15.74 15.74 0 00-2.62-3 7.12 7.12 0 00-2-1.15v6.12a13.87 13.87 0 011.46 1.8A15.57 15.57 0 00806 1058a6.49 6.49 0 004.25 1.56h1.71a6.49 6.49 0 004.25-1.56 15.21 15.21 0 002.52-2.88 11.54 11.54 0 011.8-2.12 3.42 3.42 0 014.25 0 11.53 11.53 0 011.81 2.12 15.21 15.21 0 002.52 2.88 6.56 6.56 0 008.49 0 15.21 15.21 0 002.52-2.88 11.53 11.53 0 011.81-2.12 3.1 3.1 0 012.12-.74 3.15 3.15 0 012.13.74 11.94 11.94 0 011.8 2.12 15.21 15.21 0 002.52 2.88 6.57 6.57 0 008.5 0 16 16 0 002.52-2.88 11.54 11.54 0 011.8-2.12 3.42 3.42 0 014.25 0 11.54 11.54 0 011.8 2.12 15.57 15.57 0 002.52 2.88 6.57 6.57 0 008.5 0 15.21 15.21 0 002.52-2.88 11.54 11.54 0 011.8-2.12 3.42 3.42 0 014.25 0 11.53 11.53 0 011.79 2.09zM1845.75 1030.09a15.49 15.49 0 002.51 2.88 6.58 6.58 0 008.51 0 15.49 15.49 0 002.51-2.88 11.53 11.53 0 011.81-2.12 3.42 3.42 0 014.25 0 11.54 11.54 0 011.8 2.12 15.21 15.21 0 002.52 2.88 6.49 6.49 0 004.25 1.56h.53a6.38 6.38 0 003.85-1.28q3.24-5.85 6.71-11.52a6.81 6.81 0 00-4.28 1.59 15.74 15.74 0 00-2.62 3 10.83 10.83 0 01-1.72 2 2.8 2.8 0 01-1.78.68h-.85a2.81 2.81 0 01-1.79-.68 10.83 10.83 0 01-1.71-2 15.74 15.74 0 00-2.62-3 6.89 6.89 0 00-8.83 0 15.74 15.74 0 00-2.62 3 11.22 11.22 0 01-1.72 2 3.09 3.09 0 01-3.89 0 10.83 10.83 0 01-1.71-2 16.18 16.18 0 00-2.63-3 6.89 6.89 0 00-8.83 0 15.74 15.74 0 00-2.62 3 10.83 10.83 0 01-1.71 2 3.1 3.1 0 01-3.9 0 10.83 10.83 0 01-1.71-2 15.74 15.74 0 00-2.62-3 6.89 6.89 0 00-8.83 0 15.74 15.74 0 00-2.62 3 10.83 10.83 0 01-1.72 2 3.09 3.09 0 01-3.89 0 10.83 10.83 0 01-1.71-2 16.48 16.48 0 00-2.62-3 6.89 6.89 0 00-8.83 0 15.74 15.74 0 00-2.62 3 11.22 11.22 0 01-1.72 2 3.09 3.09 0 01-3.89 0 10.83 10.83 0 01-1.71-2 15.74 15.74 0 00-2.62-3 6.89 6.89 0 00-8.83 0 15.74 15.74 0 00-2.62 3 10.83 10.83 0 01-1.71 2 2.84 2.84 0 01-1.65.67h-2.3a2.9 2.9 0 01-1.66-.67 10.83 10.83 0 01-1.71-2 15.74 15.74 0 00-2.62-3 7.12 7.12 0 00-2-1.15v6.12a13.87 13.87 0 011.46 1.8 15.57 15.57 0 002.58 2.91 6.49 6.49 0 004.25 1.56h1.71a6.49 6.49 0 004.25-1.56 15.21 15.21 0 002.52-2.88 11.54 11.54 0 011.8-2.12 3.42 3.42 0 014.25 0 11.53 11.53 0 011.81 2.12 15.21 15.21 0 002.52 2.88 6.56 6.56 0 008.49 0 15.21 15.21 0 002.52-2.88 11.53 11.53 0 011.81-2.12 3.1 3.1 0 012.12-.74 3.15 3.15 0 012.13.74 11.94 11.94 0 011.8 2.12 15.21 15.21 0 002.52 2.88 6.57 6.57 0 008.5 0 16 16 0 002.52-2.88 11.54 11.54 0 011.8-2.12 3.42 3.42 0 014.25 0 11.54 11.54 0 011.8 2.12 15.57 15.57 0 002.52 2.88 6.57 6.57 0 008.5 0 15.21 15.21 0 002.52-2.88 11.54 11.54 0 011.8-2.12 3.42 3.42 0 014.25 0 11.53 11.53 0 011.79 2.09zM1748.75 1059.09a15.49 15.49 0 002.51 2.88 6.58 6.58 0 008.51 0 15.49 15.49 0 002.51-2.88 11.53 11.53 0 011.81-2.12 3.42 3.42 0 014.25 0 11.54 11.54 0 011.8 2.12 15.21 15.21 0 002.52 2.88 6.49 6.49 0 004.25 1.56h.53a6.38 6.38 0 003.85-1.28q3.24-5.85 6.71-11.52a6.81 6.81 0 00-4.28 1.59 15.74 15.74 0 00-2.62 3 10.83 10.83 0 01-1.72 2 2.8 2.8 0 01-1.78.68h-.85a2.81 2.81 0 01-1.79-.68 10.83 10.83 0 01-1.71-2 15.74 15.74 0 00-2.62-3 6.89 6.89 0 00-8.83 0 15.74 15.74 0 00-2.62 3 11.22 11.22 0 01-1.72 2 3.09 3.09 0 01-3.89 0 10.83 10.83 0 01-1.71-2 16.18 16.18 0 00-2.63-3 6.89 6.89 0 00-8.83 0 15.74 15.74 0 00-2.62 3 10.83 10.83 0 01-1.71 2 3.1 3.1 0 01-3.9 0 10.83 10.83 0 01-1.71-2 15.74 15.74 0 00-2.62-3 6.89 6.89 0 00-8.83 0 15.74 15.74 0 00-2.62 3 10.83 10.83 0 01-1.72 2 3.09 3.09 0 01-3.89 0 10.83 10.83 0 01-1.71-2 16.48 16.48 0 00-2.62-3 6.89 6.89 0 00-8.83 0 15.74 15.74 0 00-2.62 3 11.22 11.22 0 01-1.72 2 3.09 3.09 0 01-3.89 0 10.83 10.83 0 01-1.71-2 15.74 15.74 0 00-2.62-3 6.89 6.89 0 00-8.83 0 15.74 15.74 0 00-2.62 3 10.83 10.83 0 01-1.71 2 2.84 2.84 0 01-1.65.67h-2.3a2.9 2.9 0 01-1.66-.67 10.83 10.83 0 01-1.71-2 15.74 15.74 0 00-2.62-3 7.12 7.12 0 00-2-1.15v6.12a13.87 13.87 0 011.46 1.8 15.57 15.57 0 002.58 2.91 6.49 6.49 0 004.25 1.56h1.71a6.49 6.49 0 004.25-1.56 15.21 15.21 0 002.52-2.88 11.54 11.54 0 011.8-2.12 3.42 3.42 0 014.25 0 11.53 11.53 0 011.81 2.12 15.21 15.21 0 002.52 2.88 6.56 6.56 0 008.49 0 15.21 15.21 0 002.52-2.88 11.53 11.53 0 011.81-2.12 3.1 3.1 0 012.12-.74 3.15 3.15 0 012.13.74 11.94 11.94 0 011.8 2.12 15.21 15.21 0 002.52 2.88 6.57 6.57 0 008.5 0 16 16 0 002.52-2.88 11.54 11.54 0 011.8-2.12 3.42 3.42 0 014.25 0 11.54 11.54 0 011.8 2.12 15.57 15.57 0 002.52 2.88 6.57 6.57 0 008.5 0 15.21 15.21 0 002.52-2.88 11.54 11.54 0 011.8-2.12 3.42 3.42 0 014.25 0 11.53 11.53 0 011.79 2.09z"/></g></svg>