<?xml version="1.0" encoding="utf-8"?>
<!-- Generator: Adobe Illustrator 23.0.6, SVG Export Plug-In . SVG Version: 6.00 Build 0)  -->
<svg version="1.1" id="Layer_1" xmlns="http://www.w3.org/2000/svg" xmlns:xlink="http://www.w3.org/1999/xlink" x="0px" y="0px"
	 viewBox="0 0 1920 1080" style="enable-background:new 0 0 1920 1080;" xml:space="preserve">
<style type="text/css">
	.st0{opacity:0.3;fill:#FFFFFF;enable-background:new    ;}
	.st1{opacity:0.4;fill:#FFFFFF;enable-background:new    ;}
	.st2{opacity:0.4;}
	.st3{fill:#FFFFFF;}
	.st4{opacity:0.3;}
	.st5{opacity:0.7;fill:#FFFFFF;enable-background:new    ;}
	.st6{opacity:0.7;}
	.st7{opacity:0.2;fill:#FFFFFF;enable-background:new    ;}
	.st8{opacity:0.5;fill:#FFFFFF;enable-background:new    ;}
	.st9{opacity:0.6;fill:#FFFFFF;enable-background:new    ;}
	.st10{opacity:0.1;fill:#FFFFFF;enable-background:new    ;}
	.st11{fill:#745AA6;}
	.st12{opacity:0.5;}
	.st13{opacity:0.6;}
	.st14{opacity:0.8;fill:#FFFFFF;enable-background:new    ;}
</style>
<g>
	<path class="st0" d="M161.3,660.8c-43.2,0-78.2,35-78.2,78.2c0,43.2,35,78.2,78.2,78.2c43.2,0,78.2-35,78.2-78.2
		C239.5,695.8,204.5,660.8,161.3,660.8C161.3,660.8,161.3,660.8,161.3,660.8z M201.7,734.2l-8.4,2.1l-5.6-22.9L201.7,734.2z
		 M174.6,740.4c-3.6,0.9-7.2-1.3-8.1-4.9c-0.9-3.6,1.3-7.2,4.9-8.1c3.6-0.9,7.2,1.3,8.1,4.9C180.4,735.9,178.2,739.5,174.6,740.4
		C174.6,740.4,174.6,740.4,174.6,740.4L174.6,740.4z M211.6,750.6c-0.2,1-0.5,2-0.9,2.9l-0.7,1.4c-0.3,0.5-0.7,0.9-1.1,1.3
		c-0.8,0.8-1.7,1.5-2.6,2.1c-0.5,0.3-1,0.4-1.5,0.7l-0.8,0.3l-0.4,0.1l-0.2,0.1h-0.1l-0.3,0.1l-1.3,0.2c-0.5,0.1-0.9,0.1-1.4,0.1
		c-1.2,0-2.5-0.2-3.6-0.7c-2.2-0.7-3.7-2.4-5-3.8c-1.9-2.6-3.2-5.7-3.7-8.9c-0.4-2.1-0.6-4.3-0.5-6.4c0.1-1.5,0.5-1.6,1.1-0.2
		s1.4,3.4,2.5,5.6c0.6,1.1,1.2,2.3,1.9,3.4c0.7,1.2,1.6,2.2,2.5,3.2c0.9,0.8,1.9,1.4,3,1.8c0.6,0.3,0.9,0.1,1.4,0.3
		c0.1,0.1,0.7-0.1,1.1-0.1l1-0.2h0.1l0.2-0.1l0.4-0.2c0.3-0.1,0.5-0.2,0.8-0.3c0.4-0.4,1-0.5,1.3-1c0.9-0.8,1.5-1.9,1.9-3
		c0.4-1.3,0.7-2.6,0.8-3.9c0.1-1.3,0.2-2.6,0.1-3.9c0-2.5-0.2-4.6-0.3-6.1s0.3-1.7,1.1-0.3c1,1.9,1.8,3.9,2.5,6
		c0.4,1.4,0.7,2.8,0.9,4.3C212,747.1,212,748.9,211.6,750.6L211.6,750.6z M218.1,726.9c-3.6,0.9-7.2-1.3-8.1-4.9
		c-0.9-3.6,1.3-7.2,4.9-8.1c3.6-0.9,7.2,1.3,8.1,4.9C223.9,722.4,221.7,726,218.1,726.9C218.1,726.9,218.1,726.9,218.1,726.9
		L218.1,726.9z"/>
	<path class="st0" d="M636.4,749.1c-70,0-126.8,56.8-126.8,126.8c0,70,56.8,126.8,126.8,126.8s126.8-56.8,126.8-126.8c0,0,0,0,0,0
		C763.1,805.9,706.4,749.1,636.4,749.1z M597.1,905c-7.3,0-13.2-5.9-13.2-13.2c0-7.3,5.9-13.2,13.2-13.2c7.3,0,13.2,5.9,13.2,13.2
		S604.4,905,597.1,905L597.1,905z M686.6,885.1c-7.3,0-13.2-5.9-13.2-13.2c0-7.3,5.9-13.2,13.2-13.2c7.3,0,13.2,5.9,13.2,13.2
		S693.9,885.1,686.6,885.1L686.6,885.1z"/>
	<path class="st1" d="M636.4,749.1c-37.3,0-72.7,16.4-96.8,44.9c65.5-24.8,138.7,8.1,163.5,73.6c16.4,43.1,8,91.7-21.8,126.9
		c65.5-24.8,98.4-98,73.6-163.5C736.2,781.7,689,749.1,636.4,749.1z"/>
	<g class="st2">
		<path class="st3" d="M148.2,130.3c0.8-1,1.9-1.7,3.1-2.1c2.8-1.4,5.7-2.6,8.5-3.9c1.8-0.8,3.5-1.7,5.4-2.5
			c-0.2-0.9-0.4-1.7-0.6-2.6c-0.8-4-1.6-8.1-2.4-12.1c-0.1-0.9-0.2-1.8-0.2-2.7c0-1.1,0.9-1.9,2-1.9c0.2,0,0.3,0,0.4,0.1
			c1,0.4,2,0.9,2.9,1.5c3.7,2.5,7.3,5.2,11,7.7c0.5,0.3,0.9,0.6,1.5,1c0.2-0.5,0.4-0.9,0.6-1.4c1.1-2.7,2.1-5.4,3.3-8
			c1.1-2.5,2.5-4.8,4.1-6.9c0.1-0.2,0.3-0.4,0.5-0.5c1.1-0.9,2.3-0.7,2.8,0.7c0.4,1.2,0.8,2.4,1.1,3.7c0.8,3.5,1.7,7,2.4,10.5
			c0.2,1.1,0.2,2.2,0.3,3.3c0.1,0.5,0.1,1,0.2,1.7c1.1-0.3,2.1-0.6,3.1-0.8l12.9-3.3c1-0.3,2.1-0.5,3.1-0.6c1.3-0.2,2.6,0.4,3.2,1.5
			c0.6,1,0.4,2.2-0.3,3c-1.9,2.6-4,5-6.2,7.3l-6.4,5.8l-0.5,0.5c0.3,0.4,0.6,0.7,0.9,1.1c2.8,2.9,5.6,5.8,8.3,8.8
			c1.4,1.5,2.7,3.1,3.9,4.7c0.4,0.5,0.8,1.1,1.1,1.7c0.6,1.3,0.1,2.9-1.2,3.5c-0.4,0.2-0.8,0.3-1.2,0.3c-1.8,0-3.5-0.4-5.1-1.1
			c-3.9-1.5-7.9-2.6-11.9-3.7c-0.9-0.2-1.8-0.5-2.8-0.8v4.3c0,0.8-0.1,1.7-0.1,2.5c0.1,3.1-0.3,6.1-1,9.1c-0.2,0.7-0.5,1.4-0.8,2.1
			c-0.8,1.4-2.5,2-4,1.2c-0.3-0.1-0.5-0.3-0.7-0.5c-0.7-0.8-1.4-1.6-2-2.4c-2.5-3.5-4.9-7.2-7-11c-0.1-0.2-0.2-0.3-0.3-0.5
			c-0.3,0.2-0.6,0.3-0.9,0.5c-3.1,2-6.2,4-9.4,6c-1.5,0.9-3,1.7-4.5,2.6c-0.8,0.5-1.8,0.7-2.7,0.6c-0.9-0.1-1.5-0.6-1.4-1.5
			c0-1.2,0.1-2.5,0.4-3.7c1.3-4.7,2.9-9.4,4.8-13.9c0.1-0.2,0.2-0.5,0.3-0.7c-0.2-0.1-0.5-0.2-0.7-0.4c-3.1-0.9-6.2-1.7-9.3-2.8
			c-2.5-0.9-4.9-2-7.3-3c-0.5-0.2-0.9-0.8-1.3-1.1C148.2,130.9,148.2,130.6,148.2,130.3z"/>
	</g>
	<path class="st1" d="M663.2,680.3c0.8-1,1.9-1.7,3.1-2.1c2.8-1.4,5.7-2.6,8.5-3.9c1.8-0.8,3.5-1.7,5.4-2.5
		c-0.2-0.9-0.4-1.7-0.6-2.6c-0.8-4-1.6-8.1-2.4-12.1c-0.1-0.9-0.2-1.8-0.2-2.7c0-1.1,0.9-1.9,2-1.9c0.2,0,0.3,0,0.4,0.1
		c1,0.4,2,0.9,2.9,1.5c3.7,2.5,7.3,5.2,11,7.7c0.5,0.3,0.9,0.6,1.5,1c0.2-0.5,0.4-0.9,0.6-1.4c1.1-2.7,2.1-5.4,3.3-8
		c1.1-2.5,2.5-4.8,4.1-6.9c0.1-0.2,0.3-0.4,0.5-0.5c1.1-0.9,2.3-0.7,2.8,0.7c0.4,1.2,0.8,2.4,1.1,3.7c0.8,3.5,1.7,7,2.4,10.5
		c0.2,1.1,0.2,2.2,0.3,3.3c0.1,0.5,0.1,1,0.2,1.7c1.1-0.3,2.1-0.6,3.1-0.8l12.9-3.3c1-0.3,2.1-0.5,3.1-0.6c1.3-0.2,2.6,0.4,3.2,1.5
		c0.6,1,0.4,2.2-0.3,3c-1.9,2.6-4,5-6.2,7.3l-6.4,5.8l-0.5,0.5c0.3,0.4,0.6,0.7,0.9,1.1c2.8,2.9,5.6,5.8,8.3,8.8
		c1.4,1.5,2.7,3.1,3.9,4.7c0.4,0.5,0.8,1.1,1.1,1.7c0.6,1.3,0.1,2.9-1.2,3.5c-0.4,0.2-0.8,0.3-1.2,0.3c-1.8,0-3.5-0.4-5.1-1.1
		c-3.9-1.5-7.9-2.6-11.9-3.7c-0.9-0.2-1.8-0.5-2.8-0.8v4.3c0,0.8-0.1,1.7-0.1,2.5c0.1,3.1-0.3,6.1-1,9.1c-0.2,0.7-0.5,1.4-0.8,2.1
		c-0.8,1.4-2.5,2-4,1.2c-0.3-0.1-0.5-0.3-0.7-0.5c-0.7-0.8-1.4-1.6-2-2.4c-2.5-3.5-4.9-7.2-7-11c-0.1-0.2-0.2-0.3-0.3-0.5
		c-0.3,0.2-0.6,0.3-0.9,0.5c-3.1,2-6.2,4-9.4,6c-1.5,0.9-3,1.7-4.5,2.6c-0.8,0.5-1.8,0.7-2.7,0.6c-0.9-0.1-1.5-0.6-1.4-1.5
		c0-1.2,0.1-2.5,0.4-3.7c1.3-4.7,2.9-9.4,4.8-13.9c0.1-0.2,0.2-0.5,0.3-0.7c-0.2-0.1-0.5-0.2-0.7-0.4c-3.1-0.9-6.2-1.7-9.3-2.8
		c-2.5-0.9-4.9-2-7.3-3c-0.5-0.2-0.9-0.8-1.3-1.1C663.2,680.9,663.2,680.6,663.2,680.3z"/>
	<g class="st4">
		<path class="st3" d="M353,330.1c0.6-0.7,1.4-1.2,2.3-1.5c2-1,4.1-1.9,6.1-2.8c1.3-0.6,2.5-1.2,3.9-1.8c-0.1-0.6-0.3-1.2-0.4-1.9
			c-0.6-2.9-1.2-5.8-1.7-8.7c-0.1-0.7-0.1-1.3-0.1-2c0-0.7,0.6-1.3,1.3-1.4c0.1,0,0.3,0,0.4,0.1c0.7,0.3,1.4,0.7,2.1,1.1
			c2.6,1.8,5.3,3.7,7.9,5.6c0.3,0.2,0.7,0.4,1.1,0.7c0.2-0.3,0.3-0.7,0.4-1c0.8-1.9,1.5-3.9,2.4-5.7c0.8-1.7,1.8-3.4,3-4.9
			c0.1-0.1,0.2-0.3,0.3-0.4c0.4-0.5,1.1-0.6,1.6-0.2c0.2,0.2,0.4,0.4,0.4,0.7c0.3,0.9,0.6,1.7,0.8,2.6c0.6,2.5,1.2,5,1.8,7.6
			c0.2,0.8,0.2,1.6,0.2,2.4c0,0.4,0.1,0.8,0.2,1.2c0.8-0.2,1.5-0.4,2.2-0.6l9.3-2.4c0.7-0.2,1.5-0.3,2.2-0.4c0.9-0.1,1.8,0.3,2.3,1
			c0.4,0.7,0.3,1.6-0.2,2.2c-1.3,1.9-2.8,3.6-4.5,5.2c-1.5,1.4-3.1,2.8-4.6,4.2c-0.1,0.1-0.2,0.2-0.3,0.4c0.2,0.3,0.4,0.6,0.7,0.8
			l6,6.3c1,1.1,1.9,2.2,2.8,3.4c0.3,0.4,0.6,0.8,0.8,1.2c0.5,0.9,0.1,2-0.8,2.5c-0.3,0.1-0.6,0.2-0.9,0.2c-1.3,0-2.5-0.2-3.7-0.8
			c-2.8-1.1-5.7-2-8.6-2.7c-0.6-0.2-1.3-0.3-2-0.5v3.2c0,0.6-0.1,1.2-0.1,1.8c0,2.2-0.2,4.4-0.7,6.6c-0.1,0.5-0.3,1-0.6,1.5
			c-0.5,1-1.7,1.5-2.8,1c-0.2-0.1-0.4-0.3-0.6-0.5c-0.5-0.5-1-1.1-1.4-1.7c-1.8-2.6-3.5-5.2-5-7.9c-0.1-0.1-0.1-0.2-0.2-0.3
			c-0.2,0.1-0.5,0.3-0.7,0.4c-2.3,1.4-4.5,2.9-6.8,4.3c-1,0.7-2.1,1.3-3.2,1.8c-0.6,0.3-1.2,0.5-1.9,0.4c-0.6,0-1-0.4-1-1
			c0,0,0-0.1,0-0.1c0-0.9,0.1-1.7,0.3-2.6c0.9-3.4,2-6.8,3.4-10c0.1-0.2,0.1-0.3,0.2-0.5c-0.2-0.1-0.3-0.2-0.5-0.3
			c-2.2-0.7-4.5-1.3-6.7-2c-1.8-0.6-3.5-1.4-5.3-2.2c-0.4-0.2-0.7-0.5-1-0.8C353,330.6,353,330.4,353,330.1z"/>
	</g>
	<path class="st5" d="M421.7,156.5c-0.1-1.1,0.2-2.1,0.6-3.1c0.9-2.5,1.9-4.9,2.8-7.3c0.6-1.5,1.2-3.1,1.8-4.7l-1.8-1.2
		c-2.8-1.9-5.7-3.9-8.5-5.9c-0.6-0.4-1.1-1.1-1.7-1.5c-0.6-0.6-0.6-1.6,0-2.2c0.1-0.1,0.2-0.2,0.4-0.3c0.8-0.4,1.7-0.6,2.6-0.8
		l11.1-1.8c0.5-0.1,0.9-0.2,1.5-0.3c-0.2-0.4-0.3-0.8-0.4-1.2c-0.9-2.2-1.9-4.4-2.7-6.7c-0.7-2.1-1.2-4.3-1.5-6.5v-0.6
		c-0.1-0.7,0.5-1.3,1.2-1.4c0.3,0,0.6,0,0.8,0.2c1,0.5,1.9,1,2.8,1.5c2.5,1.6,5.1,3.2,7.6,4.9c0.8,0.5,1.4,1.2,2.2,1.8
		c0.3,0.3,0.7,0.5,1.1,0.9c0.5-0.8,0.9-1.6,1.4-2.3c1.9-3.2,3.9-6.4,5.8-9.5l1.5-2.1c0.6-0.9,1.8-1.3,2.8-1c0.9,0.3,1.5,1.1,1.6,2
		c0.4,2.6,0.6,5.3,0.5,8c-0.1,2.4-0.3,4.8-0.5,7.2v0.6c0.4,0,0.8,0.1,1.2,0.1c3.4,0.2,6.8,0.3,10.1,0.5c1.7,0.1,3.4,0.3,5.1,0.5
		c0.6,0.1,1.1,0.2,1.7,0.4c1.2,0.4,1.8,1.7,1.3,2.9c-0.1,0.3-0.3,0.6-0.5,0.8c-1,1-2.3,1.8-3.7,2.3c-3.2,1.4-6.3,3-9.3,4.7
		c-0.7,0.4-1.3,0.7-2.1,1.2l1,1l1.6,1.6c0.5,0.5,0.9,1.1,1.4,1.6c1.8,1.9,3.4,3.9,4.8,6.1c0.3,0.5,0.6,1.1,0.7,1.7
		c0.4,1.3-0.3,2.7-1.7,3.1c-0.2,0.1-0.5,0.1-0.7,0.1c-0.9,0-1.7-0.1-2.6-0.3c-3.6-0.6-7.1-1.5-10.6-2.5c-0.2,0-0.3-0.1-0.5-0.1
		c-0.1,0.3-0.2,0.6-0.2,0.9c-0.7,3-1.4,6.1-2.1,9.1c-0.3,1.4-0.8,2.8-1.2,4.1c-0.2,0.7-0.6,1.4-1.2,1.9c-0.4,0.4-1.1,0.5-1.5,0.1
		c-0.1-0.1-0.1-0.1-0.2-0.2c-0.7-0.8-1.3-1.6-1.9-2.4c-2.1-3.6-3.8-7.3-5.3-11.2l-0.3-0.6c-0.2,0.1-0.5,0.1-0.7,0.2
		c-2.4,1.3-4.8,2.6-7.2,3.7c-2,0.9-4.1,1.7-6.1,2.4c-0.5,0.1-1,0.2-1.5,0.1C422.2,156.9,421.9,156.7,421.7,156.5z"/>
	<g class="st6">
		<path class="st3" d="M1377.7,339.5c-0.1-1.1,0.2-2.1,0.6-3.1c0.9-2.5,1.9-4.9,2.8-7.3c0.6-1.5,1.2-3.1,1.8-4.7l-1.8-1.2
			c-2.8-1.9-5.7-3.9-8.5-5.9c-0.6-0.4-1.1-1.1-1.7-1.5c-0.6-0.6-0.6-1.6,0-2.2c0.1-0.1,0.2-0.2,0.4-0.3c0.8-0.4,1.7-0.6,2.6-0.8
			l11.1-1.8c0.5-0.1,0.9-0.2,1.5-0.3c-0.2-0.4-0.3-0.8-0.4-1.2c-0.9-2.2-1.9-4.4-2.7-6.7c-0.7-2.1-1.3-4.3-1.5-6.5v-0.6
			c-0.1-0.7,0.5-1.3,1.2-1.4c0.3,0,0.6,0,0.8,0.2c1,0.5,1.9,1,2.8,1.5c2.5,1.6,5.1,3.2,7.6,4.9c0.8,0.5,1.4,1.2,2.2,1.8
			c0.3,0.3,0.7,0.5,1.1,0.9c0.5-0.8,0.9-1.6,1.4-2.3c1.9-3.2,3.9-6.4,5.8-9.5l1.5-2.1c0.6-0.9,1.8-1.3,2.8-1c0.9,0.3,1.5,1.1,1.6,2
			c0.4,2.6,0.6,5.3,0.5,8c-0.1,2.4-0.3,4.8-0.5,7.2v0.6c0.4,0,0.8,0.1,1.2,0.1c3.4,0.2,6.8,0.3,10.1,0.5c1.7,0.1,3.4,0.3,5.1,0.5
			c0.6,0.1,1.1,0.2,1.7,0.4c1.2,0.4,1.8,1.7,1.3,2.9c-0.1,0.3-0.3,0.6-0.5,0.8c-1,1-2.3,1.8-3.7,2.3c-3.2,1.4-6.3,3-9.3,4.7
			c-0.7,0.4-1.3,0.7-2.1,1.2l1,1l1.6,1.6c0.5,0.5,0.9,1.1,1.4,1.6c1.8,1.9,3.4,3.9,4.8,6.1c0.3,0.5,0.6,1.1,0.7,1.7
			c0.4,1.3-0.3,2.7-1.7,3.1c-0.2,0.1-0.5,0.1-0.7,0.1c-0.9,0-1.7-0.1-2.6-0.3c-3.6-0.6-7.1-1.5-10.6-2.5c-0.2,0-0.3-0.1-0.5-0.1
			c-0.1,0.3-0.2,0.6-0.2,0.9c-0.7,3-1.4,6.1-2.1,9.1c-0.3,1.4-0.8,2.8-1.2,4.1c-0.2,0.7-0.6,1.4-1.2,1.9c-0.4,0.4-1.1,0.5-1.5,0.1
			c-0.1-0.1-0.1-0.1-0.2-0.2c-0.7-0.8-1.3-1.6-1.9-2.4c-2.1-3.6-3.8-7.3-5.3-11.2l-0.3-0.6c-0.2,0.1-0.5,0.1-0.7,0.2
			c-2.4,1.3-4.8,2.6-7.2,3.7c-2,0.9-4.1,1.7-6.1,2.4c-0.5,0.1-1,0.2-1.5,0.1C1378.2,339.9,1377.9,339.7,1377.7,339.5z"/>
	</g>
	<path class="st1" d="M193.3,944.5l2.3,0.3c1.7,0.2,3.4,0.3,5.1,0.5l5.3,0.6l4.6,0.6l1.4,0.3c0.6,0.1,1.1,0.6,1.1,1.2
		c-0.1,0.7-0.7,1.1-1.3,1.6c-1.5,1.3-3.2,2.4-4.9,3.4c-2.5,1.6-5,3.2-7.4,4.8c-1.2,0.8-2.4,1.7-3.7,2.6c0.1,1.1,0.2,2.1,0.3,3.2
		s0.2,2.3,0.3,3.5c0.2,2.5,0.4,4.9,0.5,7.4c0.1,2.3,0.2,4.6,0.2,6.9c0,0.6-0.1,1.3-0.3,1.9c-0.9,0.4-2,0.1-2.6-0.6
		c-3.2-2.6-6.3-5.2-9.4-7.8c-1.5-1.3-2.9-2.6-4.4-3.9c-0.5-0.4-1-0.8-1.5-1.1c-0.9,0.5-1.8,1.1-2.7,1.6c-2.7,1.6-5.5,3.1-8.2,4.7
		c-1.4,0.8-2.9,1.6-4.3,2.4c-0.9,0.6-1.9,0.9-2.9,0.9c-0.3-0.9-0.3-1.9,0.1-2.8c0.9-2.6,1.7-5.3,2.6-8c0.8-2.4,1.7-4.7,2.8-6.9
		c0.3-0.6,0.5-1.2,0.8-1.9c-0.5-0.5-1.1-1-1.7-1.4c-1-0.9-2.1-1.7-3.1-2.6c-1.6-1.5-3.2-3.1-4.7-4.7c-1.1-1.2-2-2.4-3-3.7
		c-0.3-0.4-0.5-1-0.8-1.4c0.1-0.7,0.5-0.9,1.1-1c1.4-0.2,2.8-0.4,4.2-0.4c2.1-0.1,4.2-0.1,6.2,0s4.1,0.3,6.2,0.4
		c1.4,0.1,2.8,0,4.2,0c0.3-0.6,0.5-1.1,0.7-1.6c1-2.6,2-5.1,3.1-7.7c0.6-1.3,1.3-2.5,2-3.8c1.2-2.2,2.5-4.3,4.1-6.2
		c0.5-0.7,1.3-1.2,2.2-1.3c1.3,0.9,2.2,2.2,2.6,3.7c0.5,1.9,0.7,3.9,1.1,5.9c0.3,1.5,0.7,3,0.9,4.6
		C192.8,940.6,193,942.5,193.3,944.5z"/>
	<path class="st7" d="M918,150.6c0.4,0.5,0.9,1,1.4,1.4c1,1,2.1,2,3.1,3s2.2,2.1,3.2,3.2c0.9,0.9,1.9,1.8,2.8,2.8
		c0.3,0.3,0.5,0.6,0.8,0.9c0.3,0.4,0.4,0.9,0.2,1.4c-0.5,0.3-1.1,0.5-1.7,0.4c-1.7,0.1-3.3,0-5-0.3l-7.5-0.6
		c-1.2-0.1-2.5-0.1-3.8-0.2c-0.5,0.8-1,1.5-1.5,2.3s-1,1.7-1.6,2.5c-1.2,1.7-2.3,3.5-3.5,5.2s-2.3,3.2-3.4,4.8
		c-0.4,0.4-0.8,0.8-1.2,1.1c-0.8-0.2-1.4-0.9-1.4-1.7c-0.8-3.4-1.5-6.7-2.3-10.1c-0.4-1.6-0.6-3.2-1-4.9c-0.1-0.5-0.3-1-0.4-1.5
		l-2.6-0.3c-2.6-0.4-5.3-0.7-7.9-1.1c-1.4-0.2-2.7-0.4-4.1-0.7c-0.9-0.1-1.7-0.4-2.4-0.9c0.3-0.7,0.8-1.4,1.5-1.8
		c2-1.3,3.9-2.7,5.8-4c1.7-1.2,3.5-2.3,5.4-3.2c0.5-0.3,1-0.6,1.6-0.9c-0.1-0.7-0.3-1.2-0.4-1.8c-0.3-1.1-0.5-2.3-0.7-3.4
		c-0.3-1.8-0.5-3.7-0.7-5.5c-0.1-1.3-0.1-2.7-0.1-4c0-0.4,0.1-0.9,0.2-1.3c0.3-0.3,0.8-0.4,1.2-0.1c1,0.6,2.1,1.2,3,1.8
		c1.4,1,2.8,2.1,4.2,3.2s2.6,2.3,3.9,3.5c0.9,0.8,1.9,1.4,2.8,2.2c0.5-0.3,0.9-0.5,1.3-0.7c2-1.2,4-2.4,6-3.5c1.1-0.6,2.2-1,3.3-1.5
		c1.9-0.9,3.9-1.6,5.9-2.1c0.7-0.2,1.5-0.1,2.1,0.3c0.4,1.3,0.3,2.6-0.2,3.8c-0.7,1.5-1.4,3.1-2.3,4.5c-0.6,1.2-1.1,2.4-1.7,3.5
		C919.6,147.8,918.9,149.2,918,150.6z"/>
	<path class="st7" d="M1115,943.6c0.4,0.5,0.9,1,1.4,1.4c1,1,2.1,2,3.1,3s2.2,2.1,3.2,3.2c0.9,0.9,1.9,1.8,2.8,2.8
		c0.3,0.3,0.5,0.6,0.8,0.9c0.3,0.4,0.4,0.9,0.2,1.4c-0.5,0.3-1.1,0.5-1.7,0.4c-1.7,0.1-3.3,0-5-0.3l-7.5-0.6
		c-1.2-0.1-2.5-0.1-3.8-0.2c-0.5,0.8-1,1.5-1.5,2.3s-1,1.7-1.6,2.5c-1.2,1.7-2.3,3.5-3.5,5.2s-2.3,3.2-3.4,4.8
		c-0.4,0.4-0.8,0.8-1.2,1.1c-0.8-0.2-1.4-0.9-1.4-1.7c-0.8-3.4-1.5-6.7-2.3-10.1c-0.4-1.6-0.6-3.2-1-4.9c-0.1-0.5-0.3-1-0.4-1.5
		l-2.6-0.3c-2.6-0.4-5.3-0.7-7.9-1.1c-1.4-0.2-2.7-0.4-4.1-0.7c-0.9-0.1-1.7-0.4-2.4-0.9c0.3-0.7,0.8-1.4,1.5-1.8
		c2-1.3,3.9-2.7,5.8-4c1.7-1.2,3.5-2.3,5.4-3.2c0.5-0.3,1-0.6,1.6-0.9c-0.1-0.7-0.3-1.2-0.4-1.8c-0.3-1.1-0.5-2.3-0.7-3.4
		c-0.3-1.8-0.5-3.7-0.7-5.5c-0.1-1.3-0.1-2.7-0.1-4c0-0.4,0.1-0.9,0.2-1.3c0.3-0.3,0.8-0.4,1.2-0.1c1,0.6,2.1,1.2,3,1.8
		c1.4,1,2.8,2.1,4.2,3.2s2.6,2.3,3.9,3.5c0.9,0.8,1.9,1.4,2.8,2.2c0.5-0.3,0.9-0.5,1.3-0.7c2-1.2,4-2.4,6-3.5c1.1-0.6,2.2-1,3.3-1.5
		c1.9-0.9,3.9-1.6,5.9-2.1c0.7-0.2,1.5-0.1,2.1,0.3c0.4,1.3,0.3,2.6-0.2,3.8c-0.7,1.5-1.4,3.1-2.3,4.5c-0.6,1.2-1.1,2.4-1.7,3.5
		C1116.6,940.8,1115.9,942.2,1115,943.6z"/>
	<path class="st7" d="M1837.2,958c0.4,0.5,0.9,1,1.4,1.4c1.1,1,2.1,2,3.2,3s2.2,2.1,3.3,3.2l2.8,2.8c0.3,0.3,0.5,0.6,0.8,0.9
		c0.3,0.4,0.4,0.9,0.2,1.4c-0.5,0.3-1.1,0.5-1.7,0.5c-1.7,0-3.4-0.1-5.1-0.3c-2.5-0.3-5-0.4-7.5-0.6c-1.3-0.1-2.5-0.1-3.8-0.2
		c-0.5,0.8-1,1.5-1.5,2.3s-1.1,1.7-1.6,2.5c-1.2,1.8-2.3,3.5-3.5,5.3c-1.1,1.6-2.3,3.2-3.5,4.8c-0.4,0.4-0.8,0.8-1.2,1.1
		c-0.8-0.2-1.4-0.9-1.4-1.7c-0.8-3.4-1.6-6.8-2.3-10.2c-0.4-1.6-0.6-3.3-1-4.9c-0.1-0.5-0.3-1-0.4-1.5c-0.9-0.1-1.7-0.2-2.6-0.4
		c-2.7-0.4-5.3-0.7-8-1.1c-1.4-0.2-2.8-0.4-4.1-0.7c-0.9-0.1-1.7-0.4-2.4-1c0.3-0.8,0.8-1.4,1.5-1.8c2-1.3,3.9-2.7,5.9-4
		c1.7-1.2,3.6-2.3,5.5-3.2c0.5-0.3,1-0.6,1.6-0.9c-0.1-0.7-0.3-1.3-0.4-1.9c-0.2-1.1-0.6-2.3-0.7-3.4c-0.3-1.9-0.5-3.7-0.7-5.6
		c-0.1-1.4-0.1-2.7-0.1-4.1c0-0.4,0.1-0.9,0.2-1.3c0.3-0.3,0.8-0.4,1.2-0.1c1,0.6,2,1.2,3,1.9c1.5,1,2.9,2.1,4.2,3.3
		c1.4,1.1,2.6,2.4,4,3.5c0.9,0.8,1.9,1.5,2.8,2.2c0.4-0.2,0.9-0.5,1.3-0.8c2-1.2,4-2.4,6.1-3.6c1.1-0.6,2.2-1,3.3-1.5
		c1.9-0.9,3.9-1.6,6-2.1c0.7-0.2,1.5-0.1,2.1,0.3c0.4,1.3,0.3,2.7-0.2,3.9c-0.7,1.5-1.4,3.1-2.3,4.5c-0.6,1.2-1.1,2.4-1.8,3.6
		C1838.9,955,1838,956.5,1837.2,958z"/>
	<path class="st7" d="M1465,34.6c0.4,0.5,0.9,1,1.4,1.4c1,1,2.1,2,3.1,3s2.2,2.1,3.2,3.2c0.9,0.9,1.9,1.8,2.8,2.8
		c0.3,0.3,0.5,0.6,0.8,0.9c0.3,0.4,0.4,0.9,0.2,1.4c-0.5,0.3-1.1,0.5-1.7,0.4c-1.7,0.1-3.3,0-5-0.3l-7.5-0.6
		c-1.2-0.1-2.5-0.1-3.8-0.2c-0.5,0.8-1,1.5-1.5,2.3s-1,1.7-1.6,2.5c-1.2,1.7-2.3,3.5-3.5,5.2s-2.3,3.2-3.4,4.8
		c-0.4,0.4-0.8,0.8-1.2,1.1c-0.8-0.2-1.4-0.9-1.4-1.7c-0.8-3.4-1.5-6.7-2.3-10.1c-0.4-1.6-0.6-3.2-1-4.9c-0.1-0.5-0.3-1-0.4-1.5
		l-2.6-0.3c-2.6-0.4-5.3-0.7-7.9-1.1c-1.4-0.2-2.7-0.4-4.1-0.7c-0.9-0.1-1.7-0.4-2.4-0.9c0.3-0.7,0.8-1.4,1.5-1.8
		c2-1.3,3.9-2.7,5.8-4c1.7-1.2,3.5-2.3,5.4-3.2c0.5-0.3,1-0.6,1.6-0.9c-0.1-0.7-0.3-1.2-0.4-1.8c-0.3-1.1-0.5-2.3-0.7-3.4
		c-0.3-1.8-0.5-3.7-0.7-5.5c-0.1-1.3-0.1-2.7-0.1-4c0-0.4,0.1-0.9,0.2-1.3c0.3-0.3,0.8-0.4,1.2-0.1c1,0.6,2.1,1.2,3,1.8
		c1.4,1,2.8,2.1,4.2,3.2s2.6,2.3,3.9,3.5c0.9,0.8,1.9,1.4,2.8,2.2c0.5-0.3,0.9-0.5,1.3-0.7c2-1.2,4-2.4,6-3.5c1.1-0.6,2.2-1,3.3-1.5
		c1.9-0.9,3.9-1.6,5.9-2.1c0.7-0.2,1.5-0.1,2.1,0.3c0.4,1.3,0.3,2.6-0.2,3.8c-0.7,1.5-1.4,3.1-2.3,4.5c-0.6,1.2-1.1,2.4-1.7,3.5
		C1466.6,31.8,1465.9,33.2,1465,34.6z"/>
	<path class="st8" d="M1577.4,952.2c-0.1,0.6-0.2,1.2-0.3,1.7c-0.2,1.3-0.3,2.5-0.5,3.8s-0.4,2.6-0.5,4c-0.2,1.1-0.3,2.3-0.5,3.4
		c-0.1,0.4-0.1,0.7-0.2,1c-0.1,0.4-0.5,0.8-0.9,0.8c-0.5-0.1-0.8-0.6-1.2-1c-0.9-1.2-1.8-2.4-2.5-3.7c-1.1-1.9-2.3-3.7-3.5-5.6
		c-0.6-0.9-1.2-1.8-1.9-2.8c-0.8,0.1-1.6,0.1-2.4,0.1c-0.9,0.1-1.7,0.1-2.6,0.2l-5.5,0.3c-1.7,0.1-3.4,0.1-5.2,0.1
		c-0.5,0-1-0.2-1.4-0.2c-0.3-0.7-0.1-1.5,0.5-1.9c2-2.3,3.9-4.6,5.9-6.9l2.9-3.2c0.3-0.3,0.6-0.7,0.9-1.1c-0.4-0.7-0.8-1.4-1.1-2
		c-1.1-2.1-2.3-4.1-3.4-6.2c-0.6-1.1-1.1-2.2-1.7-3.2c-0.4-0.7-0.6-1.4-0.6-2.2c0.7-0.2,1.4-0.2,2.1,0.1c2,0.7,3.9,1.4,5.9,2
		c1.8,0.6,3.5,1.3,5.1,2.2c0.4,0.2,0.9,0.4,1.4,0.6c0.4-0.4,0.7-0.8,1.1-1.2c0.7-0.8,1.3-1.6,2-2.3c1.1-1.2,2.3-2.3,3.5-3.4
		c0.9-0.8,1.9-1.5,2.8-2.2c0.3-0.2,0.6-0.4,1-0.5c0.4,0,0.7,0.4,0.7,0.8c0.1,1,0.3,2.1,0.3,3.1c0,1.5,0,3.1-0.1,4.6
		s-0.3,3.1-0.4,4.6c-0.1,1,0,2.1-0.1,3.1c0.4,0.2,0.8,0.4,1.2,0.5c1.9,0.8,3.8,1.5,5.7,2.4c1,0.4,1.9,0.9,2.8,1.5
		c1.6,0.9,3.2,1.9,4.6,3.1c0.5,0.4,0.8,1,0.9,1.6c-0.7,0.9-1.7,1.6-2.8,1.9c-1.4,0.3-2.9,0.6-4.4,0.7c-1.1,0.2-2.3,0.5-3.4,0.6
		C1580.3,951.8,1578.9,952.1,1577.4,952.2z"/>
	<path class="st8" d="M810.3,108.9c0.1,0.6,0.2,1.1,0.3,1.6c0.3,1.1,0.6,2.3,0.8,3.4s0.5,2.4,0.8,3.6c0.2,1,0.5,2.1,0.7,3.1
		c0.1,0.3,0.1,0.7,0.1,1c0.1,0.4-0.1,0.8-0.5,1c-0.5,0-0.9-0.1-1.3-0.4c-1.2-0.7-2.3-1.5-3.3-2.4l-4.8-3.6c-0.8-0.6-1.6-1.2-2.5-1.8
		c-0.7,0.3-1.3,0.6-2,0.9s-1.4,0.7-2.2,1c-1.5,0.7-3.1,1.4-4.6,2s-2.9,1.2-4.4,1.8c-0.4,0.1-0.9,0.2-1.3,0.3
		c-0.6-0.6-0.4-1.2-0.2-1.8c0.9-2.6,1.9-5.2,2.8-7.9c0.5-1.3,1-2.5,1.5-3.7c0.1-0.4,0.3-0.8,0.4-1.2c-0.6-0.5-1.1-0.9-1.6-1.4
		c-1.6-1.4-3.3-2.8-4.9-4.2c-0.9-0.7-1.7-1.5-2.5-2.2c-0.5-0.5-1-1-1.2-1.7c0.5-0.4,1.2-0.6,1.8-0.6c1.9-0.1,3.8-0.1,5.7-0.2
		c1.7-0.1,3.4,0,5.1,0.2c0.5,0,0.9,0.1,1.4,0.1c0.2-0.5,0.4-0.9,0.5-1.4c0.3-0.9,0.6-1.8,1-2.6c0.6-1.4,1.2-2.7,1.9-4.1
		c0.5-1,1.1-1.9,1.7-2.8c0.2-0.3,0.4-0.6,0.7-0.8c0.4-0.1,0.7,0.1,0.9,0.4c0.4,0.9,0.9,1.7,1.3,2.6c0.5,1.3,1,2.7,1.5,4
		s0.8,2.7,1.2,4.1c0.3,0.9,0.6,1.8,1,2.7c0.4,0,0.8,0,1.2,0.1c1.9,0.1,3.8,0.1,5.6,0.2c1,0.1,1.9,0.3,2.9,0.4
		c1.7,0.2,3.3,0.6,4.9,1.2c0.6,0.2,1.1,0.6,1.3,1.1c-0.3,1-0.9,1.9-1.8,2.5c-1.1,0.8-2.3,1.5-3.5,2.1c-0.9,0.5-1.8,1.1-2.7,1.7
		C812.7,107.6,811.5,108.2,810.3,108.9z"/>
	<path class="st8" d="M1866.3,600.9c0.1,0.6,0.2,1.1,0.3,1.6c0.3,1.1,0.6,2.3,0.8,3.4s0.5,2.4,0.8,3.6c0.2,1,0.5,2.1,0.7,3.1
		c0.1,0.3,0.1,0.7,0.1,1c0.1,0.4-0.1,0.8-0.5,1c-0.5,0-0.9-0.1-1.3-0.4c-1.2-0.7-2.3-1.5-3.3-2.4l-4.8-3.6c-0.8-0.6-1.6-1.2-2.5-1.8
		c-0.7,0.3-1.3,0.6-2,0.9s-1.4,0.7-2.2,1c-1.5,0.7-3.1,1.4-4.6,2s-2.9,1.2-4.4,1.8c-0.4,0.1-0.9,0.2-1.3,0.3
		c-0.6-0.6-0.4-1.2-0.2-1.8c0.9-2.6,1.9-5.2,2.8-7.9c0.5-1.3,1-2.5,1.5-3.7c0.1-0.4,0.3-0.8,0.4-1.2c-0.6-0.5-1.1-0.9-1.6-1.4
		c-1.6-1.4-3.3-2.8-4.9-4.2c-0.9-0.7-1.7-1.5-2.5-2.2c-0.5-0.5-1-1-1.2-1.7c0.5-0.4,1.2-0.6,1.8-0.6c1.9-0.1,3.8-0.1,5.7-0.2
		c1.7-0.1,3.4,0,5.1,0.2c0.5,0,0.9,0.1,1.4,0.1c0.2-0.5,0.4-0.9,0.5-1.4c0.3-0.9,0.6-1.8,1-2.6c0.6-1.4,1.2-2.7,1.9-4.1
		c0.5-1,1.1-1.9,1.7-2.8c0.2-0.3,0.4-0.6,0.7-0.8c0.4-0.1,0.7,0.1,0.9,0.4c0.4,0.9,0.9,1.7,1.3,2.6c0.5,1.3,1,2.7,1.5,4
		s0.8,2.7,1.2,4.1c0.3,0.9,0.6,1.8,1,2.7c0.4,0,0.8,0,1.2,0.1c1.9,0.1,3.8,0.1,5.6,0.2c1,0.1,1.9,0.3,2.9,0.4
		c1.7,0.2,3.3,0.6,4.9,1.2c0.6,0.2,1.1,0.6,1.3,1.1c-0.3,1-0.9,1.9-1.8,2.5c-1.1,0.8-2.3,1.5-3.5,2.1c-0.9,0.5-1.8,1.1-2.7,1.7
		C1868.7,599.6,1867.5,600.2,1866.3,600.9z"/>
	<path class="st8" d="M75.3,442.9c0.1,0.6,0.2,1.1,0.3,1.6c0.3,1.1,0.6,2.3,0.8,3.4s0.5,2.4,0.8,3.6c0.2,1,0.5,2.1,0.7,3.1
		c0.1,0.3,0.1,0.7,0.1,1c0.1,0.4-0.1,0.8-0.5,1c-0.5,0-0.9-0.1-1.3-0.4c-1.2-0.7-2.3-1.5-3.3-2.4l-4.8-3.6c-0.8-0.6-1.6-1.2-2.5-1.8
		c-0.7,0.3-1.3,0.6-2,0.9s-1.4,0.7-2.2,1c-1.5,0.7-3.1,1.4-4.6,2s-2.9,1.2-4.4,1.8c-0.4,0.1-0.9,0.2-1.3,0.3
		c-0.6-0.6-0.4-1.2-0.2-1.8c0.9-2.6,1.9-5.2,2.8-7.9c0.5-1.3,1-2.5,1.5-3.7c0.1-0.4,0.3-0.8,0.4-1.2c-0.6-0.5-1.1-0.9-1.6-1.4
		c-1.6-1.4-3.3-2.8-4.9-4.2c-0.9-0.7-1.7-1.5-2.5-2.2c-0.5-0.5-1-1-1.2-1.7c0.5-0.4,1.2-0.6,1.8-0.6c1.9-0.1,3.8-0.1,5.7-0.2
		c1.7-0.1,3.4,0,5.1,0.2c0.5,0,0.9,0.1,1.4,0.1c0.2-0.5,0.4-0.9,0.5-1.4c0.3-0.9,0.6-1.8,1-2.6c0.6-1.4,1.2-2.7,1.9-4.1
		c0.5-1,1.1-1.9,1.7-2.8c0.2-0.3,0.4-0.6,0.7-0.8c0.4-0.1,0.7,0.1,0.9,0.4c0.4,0.9,0.9,1.7,1.3,2.6c0.5,1.3,1,2.7,1.5,4
		s0.8,2.7,1.2,4.1c0.3,0.9,0.6,1.8,1,2.7c0.4,0,0.8,0,1.2,0.1c1.9,0.1,3.8,0.1,5.6,0.2c1,0.1,1.9,0.3,2.9,0.4
		c1.7,0.2,3.3,0.6,4.9,1.2c0.6,0.2,1.1,0.6,1.3,1.1c-0.3,1-0.9,1.9-1.8,2.5c-1.1,0.8-2.3,1.5-3.5,2.1c-0.9,0.5-1.8,1.1-2.7,1.7
		C77.7,441.6,76.5,442.2,75.3,442.9z"/>
	<path class="st1" d="M1328.4,935.2c-2.7,0-5.3-1-7.2-2.9c-1.6-1.5-2.5-3.5-2.5-5.7c0-1-0.3-2.1-0.2-3.1c0-1.6,0.5-3.2,1.4-4.6
		c0.2-0.2,0.3-0.5,0.5-0.6c1-0.9,2-1.9,3.1-2.8c0.8-0.6,1.7-1.1,2.7-1.2c3.2-0.7,6.6-0.5,9.7,0.8c2.1,0.8,3.7,2.7,4,5
		c0.7,3.6,0,7.3-2,10.4c-0.3,0.5-0.7,0.9-1.1,1.2c-1,0.8-2,1.6-3.1,2.3C1332.1,934.9,1330.2,935.3,1328.4,935.2z"/>
	<path class="st0" d="M1304.4,60.2c-2.7,0-5.3-1-7.2-2.9c-1.6-1.5-2.5-3.5-2.5-5.7c0-1-0.3-2.1-0.2-3.1c0-1.6,0.5-3.2,1.4-4.6
		c0.2-0.2,0.3-0.5,0.5-0.6c1-0.9,2-1.9,3.1-2.8c0.8-0.6,1.7-1.1,2.7-1.2c3.2-0.7,6.6-0.5,9.7,0.8c2.1,0.8,3.7,2.7,4,5
		c0.7,3.6,0,7.3-2,10.4c-0.3,0.5-0.7,0.9-1.1,1.2c-1,0.8-2,1.6-3.1,2.3C1308.1,59.9,1306.2,60.3,1304.4,60.2z"/>
	<path class="st5" d="M594.4,1040.2c-2.7,0-5.3-1-7.2-2.9c-1.6-1.5-2.5-3.5-2.5-5.7c0-1-0.3-2.1-0.2-3.1c0-1.6,0.5-3.2,1.4-4.6
		c0.2-0.2,0.3-0.5,0.5-0.6c1-0.9,2-1.9,3.1-2.8c0.8-0.6,1.7-1.1,2.7-1.2c3.2-0.7,6.6-0.5,9.7,0.8c2.1,0.8,3.7,2.7,4,5
		c0.7,3.6,0,7.3-2,10.4c-0.3,0.5-0.7,0.9-1.1,1.2c-1,0.8-2,1.6-3.1,2.3C598.1,1039.9,596.2,1040.3,594.4,1040.2z"/>
	<path class="st9" d="M1133.7,168.1h-0.4c-3.3,0.2-4.8-1.7-5.4-4.9c-0.4-1.7-0.1-3.5,0.7-5.1c1-2.1,2.9-3.7,5.1-4.3
		c2.2-0.7,4.6,0.2,5.8,2.1c1.7,2.4,2.1,4.9,0.7,7.5c-0.5,1.1-1.2,2.2-2,3.1C1136.2,168.3,1136.2,168.2,1133.7,168.1z"/>
	<path class="st9" d="M1512.7,528.1h-0.4c-3.3,0.2-4.8-1.7-5.4-4.9c-0.4-1.7-0.1-3.5,0.7-5.1c1-2.1,2.9-3.7,5.1-4.3
		c2.2-0.6,4.5,0.2,5.8,2.1c1.7,2.4,2.1,4.9,0.7,7.5c-0.5,1.1-1.2,2.2-2,3.1C1515.2,528.3,1515.2,528.2,1512.7,528.1z"/>
	<path class="st8" d="M1171.8,490.1c-0.2-2.7,1.1-5.3,3.4-6.7c0.3-0.2,0.6-0.4,0.9-0.7c1.9-1.6,4-1.3,6.1-0.4
		c0.5,0.2,0.9,0.6,1.2,1.1c0.5,0.8,1,1.6,1.4,2.4c0.1,0.3,0.2,0.6,0.3,0.9c0.1,2-0.3,4-1.3,5.7c-1.4,1.9-3.3,3.4-5.6,4.1
		c-0.9,0.4-2,0.2-2.8-0.4c-0.4-0.3-0.9-0.6-1.4-0.9C1172.3,494.1,1171.5,492.1,1171.8,490.1z"/>
	<path class="st9" d="M834.7,704.8h-2c-1.5,0-2.9-0.8-3.6-2.1c-1.9-3.1-2.3-6.8-1.1-10.2c1.2-3.7,4.8-6.2,8.7-5.9
		c2.8,0.4,5.2,1.9,6.9,4.1c0.2,0.2,0.3,0.5,0.3,0.8c0.2,3,0.3,5.9-1.2,8.6C840.8,703.3,838.3,705.2,834.7,704.8z"/>
	<path class="st9" d="M1605.7,584.8h-2c-1.5,0-2.9-0.8-3.6-2.1c-1.9-3.1-2.3-6.8-1.1-10.2c1.2-3.7,4.8-6.2,8.7-5.9
		c2.8,0.4,5.2,1.9,6.9,4.1c0.2,0.2,0.3,0.5,0.3,0.8c0.2,3,0.3,5.9-1.2,8.6C1611.8,583.3,1609.3,585.2,1605.7,584.8z"/>
	<path class="st1" d="M965.1,458.8h-2.6c-2,0.1-3.9-1-4.8-2.8c-2.4-4-3-8.9-1.5-13.4c1.5-5,6.3-8.2,11.5-7.8
		c3.7,0.4,6.7,2.5,9.1,5.4c0.2,0.3,0.4,0.6,0.4,1c0.2,3.9,0.4,7.8-1.6,11.4C973.2,456.8,969.8,459.4,965.1,458.8z"/>
	<path class="st9" d="M480.7,1001.8h-2c-1.5,0-2.9-0.8-3.6-2.1c-1.9-3.1-2.3-6.8-1.1-10.2c1.2-3.7,4.8-6.2,8.7-5.9
		c2.8,0.4,5.2,1.9,6.9,4.1c0.2,0.2,0.3,0.5,0.3,0.8c0.2,3,0.3,5.9-1.2,8.6C486.8,1000.3,484.3,1002.2,480.7,1001.8z"/>
	<path class="st5" d="M698.2,141.2c-1-5.8,1.7-9,5.6-11.1c2.1-1.4,4.9-1,6.6,0.8c0.9,0.8,1.8,1.8,2.5,2.8c1.4,2.5,0.6,4.9-0.5,7.2
		c-0.3,0.5-0.6,1-1,1.4c-3,3.6-5,4.4-9.1,2.3C700.6,143.9,699.2,142.7,698.2,141.2z"/>
	<path class="st9" d="M897.4,257.9c2.7-0.3,4.8,0.6,6,3.4c1.3,3-0.2,7.8-3,9.4c-2.5,1.4-5.4,1.9-8.3,1.6c-1.6-0.1-3.3-2.3-3.4-4.3
		c0-1.3,0.1-2.5,0.5-3.7c0.3-1.1,0.8-2.1,1.3-3.1c1.1-2.1,2.9-2.9,5.1-3.2C896.2,257.9,896.8,257.8,897.4,257.9z"/>
	<path class="st9" d="M1477.4,1036.9c2.7-0.3,4.8,0.6,6,3.4c1.3,3-0.2,7.8-3,9.4c-2.5,1.4-5.4,1.9-8.3,1.6c-1.6-0.1-3.3-2.3-3.4-4.3
		c0-1.3,0.1-2.5,0.5-3.7c0.3-1.1,0.8-2.1,1.3-3.1c1.1-2.1,2.9-2.9,5.1-3.2C1476.2,1036.9,1476.8,1036.8,1477.4,1036.9z"/>
	<path class="st8" d="M139.3,370c2.7-0.3,4.8,0.6,6,3.4c1.3,3-0.2,7.8-3,9.4c-2.5,1.4-5.4,1.9-8.3,1.6c-1.6-0.1-3.3-2.3-3.4-4.3
		c0-1.3,0.1-2.5,0.5-3.7c0.3-1.1,0.8-2.1,1.3-3.1c1.1-2.1,2.9-2.9,5.1-3.2C138.1,370,138.7,369.9,139.3,370z"/>
	<path class="st8" d="M1611.9,31.7c-0.7-0.9-1.4-1.7-2.2-2.5c-2.7-2.3-6.4-3.2-9.8-2.2c-3.3,0.8-5.8,3.7-6,7.1c0,0.8,0,1.7,0.2,2.5
		c-1.7-0.3-3.3-0.8-8.4,3.7c-0.4,0.4-0.8,0.9-1,1.4c-1.2,3.4-0.6,7.2,1.6,10c0.7,0.8,1.6,1.7,2.4,2.4c3.3,2.8,15.2,0.4,20-0.7
		c0.3-0.1,0.5-0.3,0.6-0.6C1610.2,49.9,1614.3,35,1611.9,31.7z"/>
	<path class="st10" d="M1880.6,809.2c0,77.1-62.5,139.6-139.6,139.6c-77.1,0-139.6-62.5-139.6-139.6s62.5-139.6,139.6-139.6
		c0,0,0,0,0,0C1818.1,669.6,1880.5,732.1,1880.6,809.2z M1741,686.5c-67.8,0-122.7,54.9-122.7,122.7s54.9,122.7,122.7,122.7
		c67.8,0,122.7-54.9,122.7-122.7l0,0C1863.7,741.4,1808.8,686.5,1741,686.5z"/>
	<path class="st8" d="M1741.4,691.3c-64,0-115.8,51.8-115.8,115.8s51.8,115.8,115.8,115.8c64,0,115.8-51.8,115.8-115.8
		C1857.2,743.2,1805.4,691.3,1741.4,691.3C1741.4,691.3,1741.4,691.3,1741.4,691.3z M1682.1,816.3c-5.4,1.2-10.7-2.1-12-7.5
		s2.1-10.7,7.5-12c5.4-1.2,10.7,2.1,12,7.5C1690.8,809.7,1687.5,815.1,1682.1,816.3C1682.1,816.3,1682.1,816.3,1682.1,816.3z
		 M1752.7,839.8c-15.8,3.6-31.6-6.2-35.2-22l-2.1-9l2.4-0.6l54.7-12.6l2.1,9C1778.3,820.4,1768.5,836.1,1752.7,839.8
		C1752.7,839.8,1752.7,839.8,1752.7,839.8z M1810.6,785.2c-4,3.7-10.2,3.5-13.9-0.4c-1.2-1.3-2.1-2.9-2.5-4.7
		c-0.4-1.8-0.3-3.7,0.3-5.4c1.6-5.3,7.2-8.2,12.5-6.6s8.2,7.2,6.6,12.5C1813.1,782.4,1812,784,1810.6,785.2z"/>
	<path class="st11" d="M1637.9,858.3c-0.5-1.1-1-2.1-1.5-3.2C1636.9,856.2,1637.4,857.3,1637.9,858.3z"/>
	<path class="st11" d="M1641.7,865.4c-0.6-1-1.1-2-1.7-3C1640.6,863.4,1641.1,864.4,1641.7,865.4z"/>
	<path class="st11" d="M1644.1,869.3c0.6,0.9,1.2,1.9,1.8,2.8C1645.3,871.2,1644.7,870.2,1644.1,869.3z"/>
	<path class="st11" d="M1634.6,851c-0.5-1.1-0.9-2.2-1.3-3.4C1633.7,848.7,1634.1,849.9,1634.6,851z"/>
	<path class="st11" d="M1631.8,843.3c-0.4-1.1-0.8-2.3-1.1-3.5C1631,841,1631.4,842.1,1631.8,843.3z"/>
	<path class="st11" d="M1648.7,876c0.6,0.8,1.2,1.7,1.9,2.5C1650,877.6,1649.4,876.8,1648.7,876z"/>
	<path class="st11" d="M1654,882.5l1.7,2C1655.1,883.8,1654.5,883.1,1654,882.5z"/>
	<g class="st12">
		<path class="st3" d="M1846,842.3h0.1l-0.1-0.8c-0.2-2-0.5-4.1-0.8-6.2l0,0c-2.7-17.2-5.9-28.2-9.6-35.3s-7.9-10.4-12.4-12.2
			l-0.4-0.2l0,0c-3.9-1.5-8-2-12-3l-0.3-0.1l-0.2,0.2c-1.2,1.1-2.6,1.9-4.2,2.3c-5.1,1.2-10.2-2-11.4-7.1c-0.2-0.7-0.2-1.4-0.2-2.1
			c0-1,0.2-2,0.5-3l0.1-0.3l-0.2-0.2c-3.4-4.3-6.7-10.3-9.9-19.1l0,0c-2.4-6.6-4.1-11.5-5.2-15.2c-0.8-2.4-1.4-4.8-1.6-7.3
			c0-0.3,0-0.7,0.2-1l0.1-0.1c0.1,0,0.1,0,0.2,0c0.5,0.1,1,0.2,1.4,0.5c1.9,1,4.9,3.5,8.4,5.8c4.1,2.7,9,5.4,13.9,5.4
			c2.6,0,5.1-0.8,7.2-2.3c2.7-2,4.9-4.7,6.4-7.8c2.1-3.9,3.2-8.2,3.2-12.6v-0.2l-0.2-0.2c-5.2-4.6-10.8-8.8-16.7-12.5l-0.3-0.2
			l-0.3,0.3c-16.5,14.7-41.7,13.3-56.5-3.1c-3.6-4-6.3-8.6-8-13.7l-0.1-0.4h-0.4c-7.2,0.3-14.4,1.3-21.4,2.9
			c-23.9,5.6-45.5,18.6-61.6,37.2l-0.2,0.2v0.2c2.2,12.6,11.7,31.8,41.2,58.5c11.9,10.8,21.6,14.8,29.8,14.8c9.1,0,16.2-5,22.2-11
			l1.2-1.2l0,0l0.3-0.3c1.5-1.5,2.9-3.1,4.3-4.7l0,0c3-3.7,6.2-7.3,9.6-10.7c1.4-1.3,2.9-2.5,4.6-3.4c1.4-0.8,3-1.2,4.6-1.3
			c2.2,0,4.6,0.9,7.2,3.2s5.4,5.8,8.5,11.1l0,0c5.8,9.9,8.1,16.6,8,21.4c0,2-0.4,3.9-1.3,5.7c-1.5,2.7-4.1,4.7-7.2,6.5
			c-4.7,2.7-10.6,5.1-15.3,9.4s-8.3,10.6-8.3,21c0.1,4.8,0.7,9.5,1.7,14.2l0,0c5.2,23.4,7.1,41,7.4,53.9v0.6l0.6-0.2
			c32.2-8.9,59-31.4,73.4-61.6v-0.1V857c0.1-1.8,0.2-3.7,0.2-5.7C1846.4,848.4,1846.2,845.4,1846,842.3z M1733.4,795.7l-4-29.6
			l18.4,26.3L1733.4,795.7z"/>
		<path class="st3" d="M1705.8,857.8c-3.9-3.3-9.3-6-15.9-7.8v-0.1l-0.3-0.1c-5.1-1.3-10.4-1.9-15.7-1.9c-2.4,0-4.8,0.1-7.4,0.3
			c-1.7,0.2-3.3,0.3-5,0.3c-12.9,0-23.3-5-31-10.7l-0.9-2.8v3.1c0,0,0,0.1,0,0.2l0,0c0.2,0.5,0.4,1.1,0.5,1.6l0,0
			c0.3,1.2,0.7,2.3,1.1,3.5c0.5,1.5,1,2.9,1.5,4.3l0,0c0.4,1.1,0.9,2.3,1.3,3.4l0,0l0,0l1.8,4.2l0,0c0.5,1.1,1,2.2,1.5,3.2
			c0.7,1.4,1.4,2.7,2.1,4l0,0c0.6,1,1.1,2,1.7,3l0,0l2.4,3.9l0,0c0.6,0.9,1.2,1.9,1.8,2.8l0,0c0.9,1.3,1.8,2.6,2.8,3.9l0,0
			c0.6,0.8,1.2,1.7,1.9,2.5l0,0c1.1,1.4,2.2,2.7,3.4,4c0.6,0.7,1.1,1.3,1.7,2l0,0c1.7,1.9,3.5,3.8,5.4,5.6l0.2,0.2h0.2
			c1.6,1.5,3.1,2.9,4.8,4.4l0.2,0.2h0.2c14.8-1.7,29.2-5.7,37.6-12.1c5.7-4.3,8.3-9,8.3-13.5C1712,865.2,1709.7,861.1,1705.8,857.8z
			"/>
	</g>
	<path class="st8" d="M1813.1,672.8c0,20.9-16.9,37.8-37.8,37.8c-20.9,0-37.8-16.9-37.8-37.8c0-20.9,16.9-37.8,37.8-37.8
		c0,0,0,0,0,0C1796.2,635,1813.1,651.9,1813.1,672.8z M1789.7,674.2c0.8,3.4,4.1,5.5,7.5,4.7c3.4-0.8,5.5-4.1,4.7-7.5
		c-0.8-3.4-4.1-5.5-7.5-4.7C1791,667.4,1788.9,670.8,1789.7,674.2C1789.7,674.2,1789.7,674.2,1789.7,674.2L1789.7,674.2z"/>
	<circle class="st0" cx="1861.8" cy="803.9" r="36.1"/>
	<circle class="st0" cx="1643.9" cy="856.2" r="32.9"/>
	<path class="st10" d="M138.2,629.2C92.3,422.6,86.1,209,120.1,0.1H115c-33.9,209.4-27.7,423.3,18.3,630.3
		C134.9,629.9,136.5,629.5,138.2,629.2L138.2,629.2z"/>
	<path class="st10" d="M201.5,843.2c-1.5,0.6-3.1,1.2-4.7,1.7c30.1,81.1,66.6,159.7,109.1,235.1h5.7
		C268.7,1004.1,231.9,924.9,201.5,843.2z"/>
	<path class="st10" d="M246.9,313.7c-0.5-15.3-0.7-30.7-0.7-46.1c-0.1-89.7,7.9-179.3,23.7-267.6h-5.1
		c-15.7,88.3-23.6,177.9-23.6,267.6c0,15.6,0.3,31.2,0.7,46.8C243.6,314.1,245.2,313.9,246.9,313.7L246.9,313.7z"/>
	<path class="st10" d="M270.2,536.5c-1.7,0.2-3.3,0.3-5,0.4c34.8,193.2,107.2,377.8,213,543.2h5.9
		C377.8,914.7,305.1,730,270.2,536.5z"/>
	<path class="st10" d="M574.2,732.4c-56.9-143.9-88.1-300.7-88.1-464.8c-0.1-90,9.5-179.7,28.4-267.6h-10.2
		c-52.5,246.2-31.4,502.5,60.9,736.7C568.1,735.2,571.1,733.8,574.2,732.4z"/>
	<path class="st10" d="M716.2,1012.6c16.6,23.1,34,45.6,52.1,67.4h13c-19.7-23.5-38.6-47.8-56.6-72.8l0,0
		C721.9,1009.1,719.1,1010.9,716.2,1012.6z"/>
	<path class="st10" d="M1352.6,903.2L1352.6,903.2c-3.9,5.5-8.3,10.6-12.9,15.5c123,77.9,265.7,119.1,411.3,118.9
		c56.8,0,113.5-6.2,169-18.6v-20.5c-55.4,12.7-112.1,19.1-169,19.1C1610.1,1017.9,1471.9,978.2,1352.6,903.2z"/>
	<path class="st10" d="M1141.3,704.5L1141.3,704.5C994.8,499.8,960.6,235.3,1050.2,0h-21.4c-89,240.8-52.3,510.1,97.8,718.3
		C1131.2,713.4,1136.1,708.8,1141.3,704.5z"/>
	<path class="st10" d="M1431.3,741.7c42.6,28.8,88.9,51.6,137.6,68c0-1.7-0.1-3.4-0.1-5.1c0-5.3,0.2-10.6,0.7-15.8l0,0
		c-11.3-3.9-22.4-8.2-33.3-12.8c-280.6-118.8-412-442.4-293.6-723.2c7.7-18.1,16.3-35.7,25.8-52.9h-22.8
		C1108.6,258.3,1188.8,578.3,1431.3,741.7L1431.3,741.7z"/>
	<path class="st10" d="M1389.1,388.6c-11.2-33.5-17.7-68.3-19.2-103.6l0,0c-15.2-31.3-12.2-68.3,7.8-96.7l0,0
		c15-71.2,50.2-136.5,101.3-188.3h-40.7c-10.2,12-19.8,24.5-28.6,37.5c-71.9,106.7-89.8,240.9-48.4,362.8
		C1369.9,394.9,1379.3,391,1389.1,388.6L1389.1,388.6z"/>
	<path class="st10" d="M1853.7,666.2c19.6-5,38.8-11.5,57.5-19.4c3-1.2,5.9-2.5,8.8-3.9v-33.2c-32.8,16.2-67.8,27.6-103.9,33.8l0,0
		C1829.5,649.5,1842.1,657.2,1853.7,666.2z"/>
	<path class="st10" d="M1677.4,642.1c-25.7-5-50.8-12.7-74.9-22.9c-43.5-18.4-83.1-44.7-117-77.6l0,0c-6.4,7.8-14,14.6-22.5,20
		c17.8,17.5,37.2,33.3,57.9,47.2c36.3,24.5,76.2,43.1,118.4,54.9C1651.1,655,1663.9,647.7,1677.4,642.1L1677.4,642.1z"/>
	<path class="st10" d="M1491.9,155.1C1523.8,82,1585,25.7,1660.6,0h-70.9c-39,23.5-72.4,55.2-97.8,93
		c-11.8,17.3-21.7,35.8-29.7,55.2C1472.4,148.9,1482.4,151.2,1491.9,155.1L1491.9,155.1z"/>
	<path class="st10" d="M1455.6,338.7c-3,0-6-0.1-9-0.4c4,17.4,9.6,34.5,16.5,51c2.5,6,5.3,11.9,8.1,17.7
		c16.7,13.3,28.4,31.9,33.2,52.7c59.2,76.1,150.1,120.5,246.5,120.5c41.8,0.1,83.1-8.3,121.6-24.6c16.5-7,32.4-15.4,47.4-25.1V494
		c-3.6,2.7-7.3,5.4-11.1,7.9c-79.2,53.3-179.9,63.1-267.8,26c-50.4-21.4-93.6-56.9-124.3-102.3c-18.4-27.2-31.9-57.4-39.8-89.3l0,0
		C1469.9,337.9,1462.8,338.7,1455.6,338.7z"/>
	<path class="st10" d="M1920,41.4V4.9c-2.6-1.7-5.2-3.3-7.8-4.9h-70.8c6.6,2.2,13.1,4.7,19.5,7.4C1881.9,16.3,1901.7,27.7,1920,41.4
		z"/>
	<path class="st10" d="M727,242.1L727,242.1C729,160.3,740.7,79,762,0h-10.3c-21.1,79.1-32.8,160.4-34.7,242.2
		c2.4-0.1,4.7-0.1,7.1-0.1C725.1,242,726,242,727,242.1z"/>
	<path class="st10" d="M780.2,595.2L780.2,595.2c-3.2,1-6.4,2-9.6,2.8c64.7,192.1,184.3,359,340.1,482h16.3
		c-35.3-27.2-68.8-56.6-100.3-88.1C915.1,880.4,830.7,744.6,780.2,595.2z"/>
	<path class="st7" d="M1457.4,185.5c-30,0-54.3,24.3-54.3,54.3s24.3,54.3,54.3,54.3c30,0,54.3-24.3,54.3-54.3c0,0,0,0,0,0
		C1511.7,209.8,1487.4,185.5,1457.4,185.5z M1456.4,239.8l6.4,6.3H1452L1456.4,239.8z M1435.5,241.5c-3.5,0-6.4-2.9-6.4-6.4
		c0-3.5,2.9-6.4,6.4-6.4c3.5,0,6.4,2.9,6.4,6.4C1441.9,238.6,1439.1,241.5,1435.5,241.5L1435.5,241.5z M1469.9,254
		c-0.3,1-0.7,2.1-1.2,3c-2.3,4-6.5,6.5-11.2,6.5c-2.4,0-4.8-0.7-6.9-1.9c-2.1-1.2-3.7-3-4.7-5.2c-0.5-1-0.9-2.1-1.1-3.3
		c0-0.6-0.1-1.1-0.1-1.7c0-0.6,0-1.1,0.1-1.7l0.1-0.9l0.1-0.7l0.4-1.5c0.1-0.5,0.7-0.9,1.2-0.7c0.4,0.1,0.6,0.4,0.7,0.7l0.4,1.5
		l0.1,0.7l0.2,0.6c0,0.4,0.2,0.8,0.4,1.2c0.1,0.4,0.4,0.7,0.5,1.1c0.4,0.7,0.8,1.3,1.3,1.8c1.8,2.2,4.5,3.4,7.3,3.4l0,0
		c4.2-0.1,7.9-2.7,9.6-6.6c0.4-0.8,0.7-1.6,0.9-2.5c0.1-0.5,0.6-0.8,1.1-0.6c0.3,0.1,0.5,0.3,0.6,0.5c0.3,0.9,0.5,1.9,0.5,2.9
		C1470.3,251.9,1470.2,253,1469.9,254z M1481.7,241.7c-3.5,0-6.4-2.9-6.4-6.4c0-3.5,2.9-6.4,6.4-6.4c3.5,0,6.4,2.9,6.4,6.4
		C1488.1,238.8,1485.2,241.7,1481.7,241.7L1481.7,241.7z"/>
	<path class="st1" d="M1457.4,185.5c-15.7,0-30.7,6.8-41,18.7c23.9-5.1,48.3,6.4,59.6,28.1c1.6-3.1,5.5-4.3,8.6-2.7
		c3.1,1.6,4.3,5.5,2.7,8.6c-1.1,2.1-3.3,3.4-5.7,3.4c-0.7,0-1.3-0.1-1.9-0.3c5.5,17.9,1.3,37.3-10.9,51.5
		c29.3-6.3,47.9-35.2,41.6-64.5C1505,203.3,1482.9,185.5,1457.4,185.5L1457.4,185.5z"/>
	<circle class="st7" cx="1505.7" cy="251.7" r="10.8"/>
	<circle class="st7" cx="1407.9" cy="251.7" r="10.8"/>
	<path class="st9" d="M1407.9,414.8c-34.8,0-63,28.2-63,63s28.2,63,63,63s63-28.2,63-63S1442.7,414.8,1407.9,414.8L1407.9,414.8z
		 M1409.3,472.5l2.6,13.9l-4-3.2l-4.5,1.1L1409.3,472.5z M1387.9,477.4c-2.7-0.4-4.5-2.9-4.1-5.6c0,0,0-0.1,0-0.1
		c0.4-2.7,3-4.6,5.7-4.2s4.6,3,4.2,5.7C1393.2,476,1390.7,477.8,1387.9,477.4C1387.9,477.4,1387.9,477.4,1387.9,477.4z
		 M1419.8,496.5c-0.2,0.3-0.5,0.5-0.8,0.7c-0.6,0.4-1.3,0.8-2,1.1c-0.7,0.3-1.5,0.5-2.3,0.6c-0.8,0.1-1.6,0.1-2.4,0
		c-1.7-0.2-3.2-0.8-4.6-1.8c-0.3-0.3-0.7-0.5-1-0.8l-0.9-0.9c0-0.1-0.1-0.1-0.1-0.2s-0.2,0.1-0.3,0.1c-0.8,0.3-1.6,0.6-2.4,0.7
		c-1.6,0.2-3.3,0.1-4.9-0.4c-1.5-0.5-2.9-1.4-4-2.5c-0.5-0.6-0.9-1.2-1.3-1.9l-0.5-0.6l-0.4-1l0.9,0.5l0.9,0.6
		c0.5,0.3,1.1,0.6,1.7,0.9c0.5,0.3,1.1,0.5,1.7,0.6c0.5,0.2,1.1,0.3,1.7,0.3c2.2,0.1,4.3-0.5,6.1-1.8l1.8-1.3l1.3,1.8l0.6,0.8
		c0.1,0.1,0.4,0.5,0.6,0.7c0.1,0.2,0.3,0.4,0.5,0.6c0.2,0.1,0.4,0.3,0.6,0.5c0.4,0.4,0.8,0.7,1.3,1c0.5,0.2,1,0.5,1.5,0.7
		c1.1,0.4,2.3,0.7,3.5,0.7c0.6,0.1,1.3,0,1.9-0.1c0.7-0.1,1.3-0.3,2-0.5L1419.8,496.5z M1433,479.5c-0.2,1.1-0.7,2.1-1.5,2.8
		c-1.1,1-2.6,1.5-4.1,1.3c-2.7-0.5-4.5-3-4.1-5.7c0.1-0.5,0.3-1,0.5-1.5c1.2-2.4,4.2-3.4,6.6-2.1
		C1432.3,475.3,1433.3,477.4,1433,479.5L1433,479.5z"/>
	<g class="st13">
		<path class="st3" d="M1371.7,465.3c-6.1-0.9-11.7,3.3-12.7,9.3c-0.9,6.1,3.3,11.7,9.3,12.7c6.1,0.9,11.7-3.2,12.7-9.3
			C1382,471.9,1377.8,466.3,1371.7,465.3C1371.7,465.3,1371.7,465.3,1371.7,465.3z"/>
	</g>
	<path class="st0" d="M1408.6,414.2c-16.2,0-31.8,6.2-43.6,17.5c33.9-8.3,68.1,12.5,76.4,46.3c5.4,22-1.4,45.1-17.8,60.7
		c33.9-8.3,54.6-42.5,46.3-76.4C1463,434.1,1437.7,414.2,1408.6,414.2L1408.6,414.2z"/>
	<g class="st13">
		<path class="st3" d="M1447.3,479.4c-6.1-0.9-11.8,3.2-12.7,9.3c-0.9,6.1,3.2,11.8,9.3,12.7c6.1,0.9,11.8-3.2,12.7-9.3
			C1457.6,486,1453.5,480.4,1447.3,479.4C1447.4,479.4,1447.4,479.4,1447.3,479.4z"/>
	</g>
	<path class="st8" d="M1233.2,689.7c-68.2,0-123.4,55.3-123.4,123.4s55.3,123.4,123.4,123.4s123.4-55.3,123.4-123.4v0
		C1356.6,744.9,1301.4,689.7,1233.2,689.7z M1254.5,806.5c-8.2-2.3-12.8-42.3-12.8-42.3s41.7,25.8,29.9,32.6
		c-7.7,4.4-9.7,3.9-10.2,3C1261.5,802.3,1261.1,808.3,1254.5,806.5L1254.5,806.5z M1210.7,803.7c-6.4,0-11.6-5.2-11.6-11.6
		c0-6.4,5.2-11.6,11.6-11.6s11.6,5.2,11.6,11.6v0C1222.3,798.5,1217.1,803.7,1210.7,803.7L1210.7,803.7z M1279.2,822.1
		c-3.1,1.7-6.3,3.2-9.5,4.6c-3.8,1.6-7.8,2.8-11.8,3.6c-2.1,0.5-4.2,0.9-6.4,1.2c-2.2,0.3-4.3,0.4-6.5,0.2c-2.1-0.3-4.1-0.8-6.1-1.6
		c-1.7-0.8-3.4-1.8-4.9-2.9c-1.3-1.2-2.4-2.5-3.3-3.5c-0.8-0.9-1.4-2-1.7-3.2c-0.6-1.9-0.8-2.9-0.8-2.9l0.7-0.5
		c0.9,0.4,1.8,0.8,2.7,1.2c0.9,0.5,1.8,0.9,2.7,1.3c1.1,0.4,2.2,0.8,3.4,1.2c1.3,0.2,2.7,0.6,4.1,0.9c1.5,0,2.9,0.5,4.6,0.6
		s3.3,0.6,5.1,0.7l2.7,0.2l2.8-0.1c3.8-0.3,7.5-0.8,11.2-1.5c3.6-0.8,7-1.6,9.8-2.5c5.7-1.7,9.5-3.2,9.5-3.2l0.4,0.8
		C1285.2,818.7,1282.3,820.5,1279.2,822.1L1279.2,822.1z M1278.2,775.9c-6.4,0-11.6-5.2-11.6-11.6c0-6.4,5.2-11.6,11.6-11.6
		s11.6,5.2,11.6,11.6v0C1289.8,770.7,1284.6,775.9,1278.2,775.9L1278.2,775.9z"/>
	<path class="st8" d="M1233.2,689.7c-18.6,0-36.9,4.2-53.6,12.2c-42.4,52-34.7,128.5,17.3,170.9c39,31.8,93.6,36.3,137.3,11.2
		c39.2-55.8,25.7-132.8-30.1-171.9C1283.3,697.5,1258.6,689.7,1233.2,689.7L1233.2,689.7z M1254.5,806.5
		c-8.2-2.3-12.8-42.3-12.8-42.3s41.7,25.8,29.9,32.6c-7.7,4.4-9.7,3.9-10.2,3C1261.5,802.3,1261.1,808.3,1254.5,806.5L1254.5,806.5z
		 M1210.7,803.7c-6.4,0-11.6-5.2-11.6-11.6c0-6.4,5.2-11.6,11.6-11.6s11.6,5.2,11.6,11.6v0C1222.3,798.5,1217.1,803.7,1210.7,803.7
		L1210.7,803.7z M1279.2,822.1c-3.1,1.7-6.3,3.2-9.5,4.6c-3.8,1.6-7.8,2.8-11.8,3.6c-2.1,0.5-4.2,0.9-6.4,1.2
		c-2.2,0.3-4.3,0.4-6.5,0.2c-2.1-0.3-4.1-0.8-6.1-1.6c-1.7-0.8-3.4-1.8-4.9-2.9c-1.3-1.2-2.4-2.5-3.3-3.5c-0.8-0.9-1.4-2-1.7-3.2
		c-0.6-1.9-0.8-2.9-0.8-2.9l0.7-0.5c0.9,0.4,1.8,0.8,2.7,1.2c0.9,0.5,1.8,0.9,2.7,1.3c1.1,0.4,2.2,0.8,3.4,1.2
		c1.3,0.2,2.7,0.6,4.1,0.9c1.5,0,2.9,0.5,4.6,0.6s3.3,0.6,5.1,0.7l2.7,0.2l2.8-0.1c3.8-0.3,7.5-0.8,11.2-1.5c3.6-0.8,7-1.6,9.8-2.5
		c5.7-1.7,9.5-3.2,9.5-3.2l0.4,0.8C1285.2,818.7,1282.3,820.5,1279.2,822.1L1279.2,822.1z M1278.2,775.9c-6.4,0-11.6-5.2-11.6-11.6
		c0-6.4,5.2-11.6,11.6-11.6s11.6,5.2,11.6,11.6v0C1289.8,770.7,1284.6,775.9,1278.2,775.9L1278.2,775.9z"/>
	<circle class="st9" cx="1173.7" cy="838.5" r="27.8"/>
	<circle class="st9" cx="1325.7" cy="766.2" r="27.8"/>
	<path class="st8" d="M737.5,259.4c-88.6,0-160.4,71.8-160.4,160.4s71.8,160.4,160.4,160.4s160.4-71.8,160.4-160.4v0
		C897.9,331.2,826.1,259.4,737.5,259.4C737.5,259.4,737.5,259.4,737.5,259.4z M781.3,355.5c0.1-1.2,0.4-2.4,0.9-3.5
		c0.5-1.3,1.2-2.5,2-3.6c0.9-1.2,2-2.3,3.2-3.1c1.2-0.9,2.6-1.7,4-2.3c1.4-0.6,3-0.9,4.5-1.1c1.5-0.2,2.9-0.2,4.4,0
		c1.3,0.2,2.7,0.6,3.9,1.2c1.1,0.5,2.2,1.1,3.1,1.9c0.8,0.6,1.6,1.4,2.2,2.2c0.5,0.6,0.9,1.2,1.1,1.9c0.3,0.6,0.5,1.2,0.7,1.8
		c0,0-0.8,0-2-0.1c-0.7-0.1-1.3-0.1-2-0.1c-0.7,0-1.5,0-2.2,0.1c-0.8,0-1.6,0.1-2.4,0.3c-0.8,0.1-1.6,0.3-2.4,0.5
		c-0.8,0.3-1.6,0.4-2.4,0.7s-1.6,0.6-2.3,0.8c-1.5,0.7-3,1.4-4.5,2.2c-0.5,0.5-1.4,0.9-2,1.4s-1.3,1-2,1.5c-0.6,0.4-1.2,1-1.7,1.5
		l-1.4,1.4l-1.4,1.4c-0.3-0.6-0.6-1.2-0.8-1.8c-0.3-0.7-0.5-1.4-0.5-2.2C781.2,357.5,781.2,356.5,781.3,355.5z M778.5,378.6
		c5.5-1.8,11.5,1,13.7,6.3c2.1,5.7-0.9,12-6.6,14.1c-5.4,2-11.5-0.6-13.8-5.9L782,389L778.5,378.6z M720.7,539.6
		c-0.6,1.2-1.4,2.3-2.2,3.3l-0.4,0.3c-0.2,0.1-0.3,0.3-0.5,0.4s-0.4,0.3-0.6,0.5l-0.5,0.4c-0.2,0.2-0.5,0.3-0.7,0.5l-0.4,0.3
		c-0.3,0.2-0.5,0.3-0.8,0.5l-0.4,0.2c-0.4,0.2-0.8,0.5-1.2,0.7l-0.3,0.1c-0.3,0.2-0.7,0.3-1,0.5l-0.5,0.2c-0.3,0.1-0.5,0.3-0.8,0.4
		l-0.5,0.2l-0.8,0.3l-0.6,0.2l-0.8,0.3l-0.6,0.2l-0.8,0.2l-0.6,0.2c-0.3,0.1-0.5,0.1-0.8,0.2l-0.6,0.1l-0.8,0.2l-0.6,0.1l-0.9,0.1
		l-0.6,0.1l-1,0.1h-0.5c-0.5,0-1,0-1.5,0c-16.7-0.3-29.9-14.1-29.6-30.7c0.3-16.2,13.4-29.3,29.6-29.6c0.5,0,1,0,1.5,0h0.5l1,0.1
		l0.5,0.1l0.9,0.1l0.6,0.1l0.8,0.1l0.5,0.1l0.9,0.2l0.5,0.1l0.9,0.3c0.1,0,0.3,0.1,0.4,0.1c0.4,0.1,0.9,0.3,1.3,0.5l0.3,0.1l1,0.4
		l0.5,0.2l0.8,0.4l0.5,0.2l0.7,0.4l0.5,0.3l0.7,0.4l0.5,0.3c0.3,0.1,0.5,0.3,0.7,0.5l0.4,0.3l0.8,0.6l0.3,0.2c0.3,0.3,0.7,0.5,1,0.8
		c-0.1,0.2-0.4,0.4-0.7,0.4c-0.2,0-0.3,0-0.5-0.1c-3.9-1.9-8.3-2.9-12.7-2.9h-0.9c-4.6,0.1-9.2,1.3-13.3,3.5
		c-8.5,4.6-13.3,13.9-12.3,23.5c0.2,2.2,0.8,4.4,1.5,6.5c0.2,0.5,0.5,1.1,0.7,1.6l0.7,1.2c0.6,1,1.3,2,2.1,2.9
		c2.9,3.3,6.7,5.5,11,6.3c1.2,0.2,2.5,0.4,3.7,0.4c2.8,0,5.5-0.6,8-1.8c3.5-1.6,6.2-4.5,7.8-8c2.9-6.8,0.3-14-4.6-17.2
		c-1.9-1.2-4.1-1.9-6.3-1.9c-2.5,0-5,0.8-6.9,2.5c-2.2,1.9-3.3,4.8-2.8,7.7c0.1,0.8,0.4,1.6,0.8,2.4c-0.2-0.8-0.3-1.7-0.3-2.5
		c0.1-2.5,1.4-4.8,3.5-6.1c1.3-0.8,2.8-1.1,4.3-1.1c2.1,0,4.1,0.7,5.7,2c2.9,2.3,4,7.9,1.7,11.8c-1.1,2.1-3,3.7-5.2,4.5
		c-1.4,0.5-2.9,0.8-4.4,0.8c-1,0-2.1-0.1-3.1-0.4c-5.3-1.3-8.7-6.1-9.1-12c-0.3-5.9,2.8-11.4,8-14.3c2.8-1.5,6-2.2,9.2-2.2
		c3.1,0,6.2,0.7,9,2.2c2.9,1.4,5.3,3.5,7.1,6c0.4,0.7,0.7,1,1.1,1.8l0.7,1.3l0.3,0.7l0.1,0.4c0.7,1.5,1.2,3,1.5,4.6
		C724.9,527.3,723.9,533.9,720.7,539.6L720.7,539.6z M726.9,389.8c-0.7-0.1-1.3-0.1-2-0.1c-0.7,0-1.5,0-2.2,0.1
		c-0.8,0-1.6,0.1-2.4,0.3c-0.8,0.1-1.6,0.3-2.4,0.5c-0.8,0.3-1.6,0.4-2.4,0.7s-1.6,0.6-2.3,0.8c-1.5,0.7-3,1.4-4.5,2.2
		c-0.6,0.5-1.5,0.8-2.1,1.4c-0.7,0.4-1.3,1-2,1.5c-0.6,0.4-1.2,1-1.7,1.5l-1.4,1.4l-1.4,1.4c-0.3-0.6-0.6-1.2-0.8-1.8
		c-0.3-0.7-0.5-1.4-0.5-2.2c-0.2-1-0.2-2,0-3c0.1-1.2,0.4-2.4,0.9-3.5c0.5-1.3,1.2-2.5,2-3.6c0.9-1.2,2-2.3,3.2-3.1
		c1.2-0.9,2.6-1.7,4-2.3c1.4-0.6,3-0.9,4.5-1.1c1.5-0.2,2.9-0.2,4.4,0c1.3,0.2,2.7,0.6,3.9,1.2c1.1,0.5,2.2,1.1,3.1,1.9
		c0.8,0.6,1.6,1.4,2.2,2.2c0.5,0.6,0.9,1.2,1.1,1.9c0.3,0.6,0.5,1.2,0.7,1.8C728.8,389.9,728.1,389.9,726.9,389.8L726.9,389.8z
		 M821.8,394.7c-0.9,1.5-1.8,2.9-2.9,4.3c-1.3,1.8-2.7,3.6-4.2,5.2l-2.6,2.9c-1,0.9-2,1.9-3,2.8c-2.2,2-4.5,3.9-6.9,5.7
		c-2.6,1.8-5.3,3.5-8.1,5.1c-2.8,1.6-5.9,2.9-8.9,4.3c-3.1,1.1-6.3,2.3-9.4,3.1c-3.1,0.9-6.2,1.5-9.4,2c-3.1,0.3-6.1,0.7-8.9,0.7
		h-4.1c-1.5-0.1-2.8-0.2-4-0.3c-2.3-0.1-4.5-0.4-6.7-0.9c-1.7-0.2-3.4-0.6-5-1.1c-2.8-0.8-4.3-1.3-4.3-1.3s1.6-0.1,4.5-0.2
		c1.4,0,3.1-0.1,5-0.2s4.1-0.3,6.5-0.5s4.9-0.6,7.5-1s5.4-1.1,8.2-1.6c2.8-0.7,5.7-1.5,8.6-2.4s5.8-2,8.7-3.1
		c2.9-1.1,5.7-2.4,8.4-3.8c2.7-1.3,5.3-2.8,7.9-4.2c2.4-1.6,4.9-2.9,7.1-4.5s4.3-3,6.1-4.5c1.7-1.3,3.4-2.6,5-4.1
		c1.3-1,2.6-2.1,3.8-3.3l3.3-3C824,390.8,823.2,392.3,821.8,394.7L821.8,394.7z"/>
	<g class="st12">
		<path class="st9" d="M661.6,520.2c0-10.6,4.7-20.6,12.9-27.3l-2.5-4c-5.8-9.3-12.9-17.1-21.3-22.8c-4.2-2.8-8.8-5.1-13.6-6.6
			c-9.7-3.2-20.3-3.2-30,0c-7.2,2.4-13.9,6.2-19.6,11.3c-0.5,0.5-1.1,1-1.6,1.5c3.9,11.4,9.1,22.3,15.5,32.5
			c2.8-4.4,6.4-8.2,10.6-11.1c1.6-1.1,3.4-2,5.3-2.6c3.1-1.1,6.5-1.1,9.7,0c3,1,5.8,2.7,8.2,4.8c3.4,3,6.4,6.6,8.7,10.5l2.5,4.1
			c4.4,7.2,9.9,13.7,16.4,19.1C662,526.5,661.6,523.4,661.6,520.2z"/>
		<path class="st9" d="M873,505.6c-1.6,0.5-3.2,0.8-4.8,0.8H857c-1.6,0-3.3-0.3-4.8-0.8c-3-1-5.8-2.7-8.2-4.8
			c-3.4-3-6.4-6.6-8.7-10.5l-1.6-2.5c-5.4-9-12.6-16.8-21.3-22.8c-4.2-2.8-8.8-5.1-13.6-6.6c-4.8-1.6-9.9-2.4-15-2.4h-3
			c-5.1,0-10.2,0.8-15,2.4c-7.2,2.4-13.9,6.2-19.6,11.3c-6,5.2-11.1,11.3-15.2,18.1l-3.3,5.3c-1,1.7-2.2,3.3-3.4,4.8
			c9,11,10.6,26.4,3.9,39c4.5-2.2,8.6-5,12.4-8.3c6-5.2,11.1-11.4,15.2-18.1l3.3-5.3c3.7-6,7.8-10.2,11.6-12.7
			c1.6-1.1,3.4-2,5.3-2.6c1.6-0.5,3.2-0.8,4.8-0.8h3c1.6,0,3.3,0.3,4.8,0.8c3,1,5.8,2.7,8.2,4.8c3.4,3,6.3,6.6,8.7,10.5l1.6,2.5
			c5.4,9,12.6,16.8,21.3,22.8c4.2,2.8,8.8,5,13.6,6.6c1.2,0.4,2.5,0.8,3.8,1C856.3,528.5,865.4,517.6,873,505.6z"/>
	</g>
	<path class="st0" d="M609.4,323.3c0.8-0.7,1.7-1.4,2.6-2c1.6-1.1,3.4-2,5.3-2.6c3.1-1.1,6.5-1.1,9.7,0c3,1,5.8,2.7,8.2,4.8
		c3.4,3,6.3,6.6,8.7,10.5l2.5,4.1c5.8,9.3,12.9,17.1,21.3,22.8c4.2,2.8,8.8,5.1,13.6,6.6c4.8,1.6,9.9,2.4,15,2.4h9.7
		c5.1,0,10.2-0.8,15-2.4c7.2-2.4,13.9-6.2,19.6-11.3c6-5.2,11.1-11.4,15.2-18.1l3.3-5.3c2.9-5,6.9-9.3,11.6-12.7
		c1.7-1.1,3.4-2,5.3-2.6c1.6-0.5,3.2-0.8,4.8-0.8h3c1.6,0,3.3,0.3,4.8,0.8c3,1,5.8,2.7,8.2,4.8c3.4,3,6.3,6.6,8.7,10.5l1.6,2.5
		c5.4,9,12.6,16.8,21.3,22.8c4.2,2.8,8.8,5.1,13.6,6.6c4.8,1.6,9.9,2.4,15,2.4h11.1c5.1,0,10.2-0.8,15-2.4c1.5-0.5,2.9-1,4.4-1.7
		c-3.9-10.4-8.9-20.3-14.9-29.7c-1.5,0.4-3,0.7-4.5,0.7H857c-1.6,0-3.3-0.3-4.8-0.8c-3-1-5.8-2.7-8.2-4.8c-3.4-3-6.3-6.6-8.7-10.5
		l-1.6-2.5c-5.4-9-12.6-16.8-21.3-22.8c-4.2-2.8-8.8-5.1-13.6-6.6c-4.8-1.6-9.9-2.4-15-2.4h-3c-5.1,0-10.2,0.8-15,2.4
		c-7.2,2.4-13.9,6.2-19.6,11.3c-6,5.2-11.1,11.4-15.2,18.2l-3.3,5.3c-3.7,6-7.8,10.2-11.6,12.7c-1.6,1.1-3.4,2-5.3,2.6
		c-1.6,0.5-3.2,0.8-4.8,0.8h-9.7c-1.6,0-3.3-0.3-4.8-0.8c-3-1.1-5.8-2.7-8.2-4.8c-3.4-3-6.3-6.6-8.7-10.5l-2.5-4.1
		c-5.4-9-12.6-16.8-21.3-22.8c-2.3-1.5-4.7-2.9-7.2-4.1C630.6,299.2,619,310.5,609.4,323.3z"/>
	<path class="st8" d="M895.9,394.3l-6.6,10.7c-3.7,6-7.8,10.2-11.6,12.7c-1.7,1.1-3.4,2-5.3,2.6c-3.1,1-6.5,1-9.7,0
		c-3-1-5.8-2.7-8.2-4.8c-3.4-3-6.4-6.6-8.7-10.5l-2.5-4.1c-5.4-9-12.6-16.8-21.3-22.8c-4.2-2.8-8.8-5.1-13.6-6.6
		c-4.8-1.6-9.9-2.4-15-2.4h-9.7c-5.1,0-10.2,0.8-15,2.4c-7.2,2.4-13.9,6.2-19.6,11.3c-6,5.2-11.1,11.3-15.2,18.1l-3.3,5.3
		c-3.7,6-7.8,10.2-11.6,12.7c-1.6,1.1-3.4,2-5.3,2.6c-1.6,0.5-3.2,0.8-4.8,0.8h-3c-1.6,0-3.3-0.3-4.8-0.8c-3-1.1-5.8-2.7-8.2-4.8
		c-3.4-3-6.4-6.6-8.7-10.5l-1.6-2.5c-5.4-9-12.6-16.8-21.3-22.8c-4.2-2.8-8.8-5.1-13.6-6.6c-4.8-1.6-9.9-2.4-15-2.4h-11.2
		c-5.1,0-10.2,0.8-15,2.4c-7.2,2.4-13.9,6.2-19.6,11.3c-2.7,2.3-5.2,4.9-7.5,7.6c-2.7,16.4-3,33.1-0.6,49.5
		c5.1-0.5,9.8-3.3,12.5-7.7l8.6-13.8c3.7-6,7.8-10.2,11.6-12.7c1.6-1.1,3.4-2,5.3-2.6c1.6-0.5,3.2-0.8,4.8-0.8h11.1
		c1.6,0,3.3,0.3,4.8,0.8c3,1,5.8,2.7,8.2,4.8c3.4,3,6.3,6.6,8.7,10.5l1.6,2.5c5.8,9.3,12.9,17.1,21.3,22.8c4.2,2.8,8.8,5.1,13.6,6.6
		c4.8,1.6,9.9,2.4,15,2.4h3c5.1,0,10.2-0.8,15-2.4c7.2-2.4,13.9-6.2,19.6-11.3c3.8-3.3,7.2-6.9,10.2-10.8h-0.3
		c-1.5-0.1-2.8-0.2-4-0.3c-2.3-0.1-4.5-0.4-6.7-0.9c-1.7-0.2-3.4-0.6-5-1.1c-2.8-0.8-4.3-1.3-4.3-1.3s1.6-0.1,4.5-0.2
		c1.4,0,3.1-0.1,5-0.2s4.1-0.3,6.5-0.5s4.9-0.6,7.5-1c0.3,0,0.5-0.1,0.7-0.1c0.4-0.5,0.7-1.1,1.1-1.7l3.3-5.3
		c2.9-5,6.9-9.3,11.6-12.7c1.7-1.1,3.4-2,5.3-2.6c1.6-0.5,3.2-0.8,4.8-0.8h9.7c1.6,0,3.3,0.3,4.8,0.8c2.4,0.8,4.6,2,6.5,3.5
		c0.3-0.2,0.7-0.4,1-0.7c2.2-1.5,4.3-3,6.1-4.5c1.7-1.3,3.4-2.6,5-4.1c1.3-1,2.6-2.1,3.8-3.3l3.3-3c0,0-0.8,1.4-2.2,3.9
		c-0.9,1.5-1.8,2.9-2.9,4.3c-1.3,1.8-2.7,3.6-4.2,5.2l-2.6,2.9c-1,0.9-2,1.9-3,2.8l-0.2,0.1c2.4,2.5,4.4,5.2,6.2,8.1l2.5,4.1
		c5.4,9,12.7,16.8,21.3,22.8c4.2,2.8,8.8,5.1,13.6,6.6c9.7,3.2,20.3,3.2,30,0c4.7-1.5,9.2-3.7,13.3-6.5
		C898.6,428.4,898.6,411.2,895.9,394.3L895.9,394.3z M786.1,399.2c-5.6,2.2-12-0.5-14.3-6.1L782,389l-3.5-10.4
		c5.5-1.8,11.5,1,13.7,6.3C794.5,390.5,791.7,396.9,786.1,399.2C786.1,399.2,786.1,399.2,786.1,399.2z"/>
	<circle class="st9" cx="746.9" cy="867.3" r="29.3"/>
	
		<ellipse transform="matrix(0.9239 -0.3827 0.3827 0.9239 -310.2536 271.4903)" class="st9" cx="527.3" cy="915.6" rx="29.3" ry="29.3"/>
	<path class="st14" d="M842.1,814.4l-0.5-1.3c-0.2-0.5-0.6-1.2-0.9-1.8c-0.7-1.2-1.4-2.4-2.1-3.5c-1.4-1.8-3-3.4-4.7-4.9
		c-1.5-1.4-3.2-2.6-5-3.7c-1.6-1.1-3.4-2-5.2-2.8c-6.3-2.9-13-5-19.8-6.3c-12.5-2.6-23.4-2.9-32.4-3.1s-15.9,0.3-20.7,0.6
		s-7.3,0.6-7.3,0.6s2.5,0.3,7.2,0.7s11.6,1.3,20.3,2.6c10.3,1.6,20.5,3.9,30.5,7.1c5.9,1.9,11.5,4.4,16.8,7.5
		c1.3,0.8,2.6,1.7,3.8,2.6c1.2,0.9,2.3,1.9,3.3,3c1.2,1,1.7,2.2,2.6,3.3c0.2,0.5,0.4,1,0.7,1.4l0.4,0.7l0.4,1.4
		c1.6,4.9-0.6,10.3-4.7,15.9c-4.8,5.9-10.3,11.2-16.5,15.6c-12.7,9.3-28,17.2-44.1,24.5c-0.6,0.3-1.2,0.6-1.8,0.8
		c-4.4,1.9-8.8,3.8-13.3,5.6c-8.5,3.4-17.2,6.7-26.1,9.7c-4.6,1.6-9.3,3.2-14.1,4.7l-0.9,0.3c-18.3,5.8-37.1,10.9-56.2,15.2
		c-19.3,4.5-38.9,8.2-58.2,11.1c-2.1,0.3-4.1,0.6-6.2,0.8c-14.6,2-29,3.5-43.1,4.4c-2.5,0.2-5.1,0.3-7.6,0.5
		c-5.3,0.2-10.6,0.3-15.8,0.4c-12.3,0.2-24.7-0.4-36.9-1.8c-7.8-1-15.5-2.7-23-5.1c-7-2.3-13.3-5.6-16.7-9.9
		c-7.5-8.1-0.7-21.2,7-29.7c7-7.7,14.8-14.6,23.2-20.7c7.1-5.2,12.8-9,16.8-11.6s6.1-3.9,6.1-3.9s-2.3,1-6.8,2.7
		c-4.3,1.9-10.8,4.6-18.7,8.9s-17.4,9.7-27,18.4c-4.7,4.4-9.7,9.6-13.2,16.9c-1.9,4-2.9,8.4-2.8,12.8l0.3,3.6l0.8,3.2
		c0.8,2.4,2,4.8,3.4,6.9c5.6,8.1,13.7,12.8,21.8,16.4c8.3,3.5,16.9,6.1,25.8,7.7c16.8,3.1,33.9,4.8,51,4.8c1.7,0,3.4,0.1,5.1,0.1
		c19.9-0.1,39.7-1.4,59.4-4c20.1-2.5,40.3-6.2,60.3-10.7c19.9-4.5,39.6-10.1,59-16.7c4.1-1.4,8.1-2.8,12.1-4.3
		c11.7-4.3,23.1-9.1,34.2-14.2c3-1.4,5.9-2.7,8.8-4.2c17.4-8.7,33.7-18.5,47.8-30.3c7-5.9,13.6-12.5,18.6-20.5
		c2.6-4.2,4.5-8.7,5.6-13.5C844.3,824.4,844.1,819.1,842.1,814.4z"/>
	<path class="st14" d="M850.7,876.7l-0.1-1.4c-0.1-0.5-0.2-1.3-0.4-2c-0.3-1.3-0.6-2.7-1-4c-0.8-2.1-1.8-4.1-3-6
		c-1-1.8-2.3-3.5-3.7-5c-1.3-1.5-2.6-2.9-4.1-4.2c-5.2-4.6-10.9-8.6-17.1-11.8c-9.6-5.1-19.6-9.3-30-12.5
		c-8.5-2.7-15.3-4.4-19.9-5.5s-7.1-1.6-7.1-1.6s2.3,1,6.7,2.8s10.7,4.7,18.6,8.4c9.4,4.6,18.5,9.8,27.1,15.7
		c5.1,3.5,9.7,7.5,13.8,12.1c1,1.2,2,2.4,2.9,3.6c0.9,1.2,1.7,2.4,2.3,3.8c0.6,1.3,1.2,2.6,1.6,3.9c0.1,0.6,0.1,1,0.2,1.5l0.2,0.8
		v1.4c0.1,5.1-3.6,9.7-9.1,13.9c-6.3,4.3-13.2,7.7-20.4,10.1c-14.9,5.1-31.8,8.2-49.3,10.5c-0.7,0.1-1.3,0.2-1.9,0.3
		c-4.7,0.6-9.5,1-14.4,1.4c-9.1,0.8-18.4,1.3-27.8,1.6c-4.9,0.2-9.8,0.3-14.8,0.3h-1c-19.2,0.1-38.7-0.4-58.2-1.9
		c-19.8-1.3-39.6-3.6-58.9-6.5c-2.1-0.3-4.1-0.7-6.2-1c-14.5-2.4-28.7-5.2-42.5-8.4c-2.5-0.6-5-1.2-7.4-1.8
		c-5.2-1.4-10.2-2.8-15.2-4.3c-11.9-3.4-23.5-7.6-34.8-12.6c-7.2-3.2-14-7.1-20.5-11.6c-6-4.2-11-9.3-13.1-14.4
		c-4.8-9.9,5.6-20.5,15.4-26.3c10-6.1,20-10,28.2-13s14.9-4.9,19.5-6.1s7-1.9,7-1.9l-7.3,0.6c-4.7,0.5-11.7,1.3-20.5,3
		s-19.5,4.2-31.2,9.7c-5.8,2.8-12.1,6.3-17.5,12.3c-3,3.2-5.2,7.1-6.4,11.4l-0.7,3.5l-0.1,3.3c0,2.6,0.5,5.1,1.2,7.6
		c3,9.3,9.3,16.2,16,22.1c6.9,5.7,14.4,10.7,22.4,14.9c15.1,7.9,31,14.5,47.3,19.5c1.6,0.5,3.2,1.1,4.9,1.6
		c19,5.8,38.4,10.3,58,13.6c19.9,3.5,40.3,5.9,60.8,7.5c20.4,1.5,40.9,1.9,61.3,1.3c4.3-0.1,8.6-0.3,12.9-0.6
		c12.5-0.7,24.8-1.9,36.9-3.6c3.2-0.4,6.5-0.9,9.7-1.4c19.2-3.2,37.6-7.8,54.6-14.9c8.6-3.5,16.6-8.2,23.8-14.1
		c3.7-3.2,6.8-7,9.3-11.2C850.1,886.7,851.1,881.7,850.7,876.7z"/>
	<path class="st0" d="M161.3,660.8c-4.8,0-9.6,0.5-14.4,1.3c-36,24-45.7,72.5-21.7,108.5c14.5,21.8,38.9,34.8,65.1,34.8
		c4.8,0,9.6-0.5,14.4-1.3c36-24,45.7-72.5,21.7-108.5C211.9,673.8,187.4,660.8,161.3,660.8L161.3,660.8z M201.7,734.2l-8.4,2.1
		l-5.6-22.9L201.7,734.2z M174.6,740.4c-3.6,0.9-7.2-1.3-8.1-4.9c-0.9-3.6,1.3-7.2,4.9-8.1c3.6-0.9,7.2,1.3,8.1,4.9
		C180.4,735.9,178.2,739.5,174.6,740.4C174.6,740.4,174.6,740.4,174.6,740.4L174.6,740.4z M211.6,750.6c-0.2,1-0.5,2-0.9,2.9
		l-0.7,1.4c-0.3,0.5-0.7,0.9-1.1,1.3c-0.8,0.8-1.7,1.5-2.6,2.1c-0.5,0.3-1,0.4-1.5,0.7l-0.8,0.3l-0.4,0.1l-0.2,0.1h-0.1l-0.3,0.1
		l-1.3,0.2c-0.5,0.1-0.9,0.1-1.4,0.1c-1.2,0-2.5-0.2-3.6-0.7c-2.2-0.7-3.7-2.4-5-3.8c-1.9-2.6-3.2-5.7-3.7-8.9
		c-0.4-2.1-0.6-4.3-0.5-6.4c0.1-1.5,0.5-1.6,1.1-0.2s1.4,3.4,2.5,5.6c0.6,1.1,1.2,2.3,1.9,3.4c0.7,1.2,1.6,2.2,2.5,3.2
		c0.9,0.8,1.9,1.4,3,1.8c0.6,0.3,0.9,0.1,1.4,0.3c0.1,0.1,0.7-0.1,1.1-0.1l1-0.2h0.1l0.2-0.1l0.4-0.2c0.3-0.1,0.5-0.2,0.8-0.3
		c0.4-0.4,1-0.5,1.3-1c0.9-0.8,1.5-1.9,1.9-3c0.4-1.3,0.7-2.6,0.8-3.9c0.1-1.3,0.2-2.6,0.1-3.9c0-2.5-0.2-4.6-0.3-6.1
		s0.3-1.7,1.1-0.3c1,1.9,1.8,3.9,2.5,6c0.4,1.4,0.7,2.8,0.9,4.3C212,747.1,212,748.9,211.6,750.6L211.6,750.6z M218.1,726.9
		c-3.6,0.9-7.2-1.3-8.1-4.9c-0.9-3.6,1.3-7.2,4.9-8.1c3.6-0.9,7.2,1.3,8.1,4.9C223.9,722.4,221.7,726,218.1,726.9
		C218.1,726.9,218.1,726.9,218.1,726.9L218.1,726.9z"/>
	<circle class="st0" cx="242" cy="730.3" r="14.8"/>
	<circle class="st0" cx="153.1" cy="759.9" r="14.8"/>
	<path class="st14" d="M202.7,802.9c-11.5-4.4-22.7-9.5-33.6-15.3c-11.2-5.9-22.1-12.4-32.6-19.4c-7.1-4.7-14-9.7-20.7-14.8
		l-9.9-7.8c-8-6.5-15.6-13.5-22.8-20.9c-1.4-1.4-2.8-2.9-4.2-4.3c-8.1-8.5-15.2-17.9-21.1-28c-2.9-4.9-5-10.3-6.3-15.9
		c-0.6-3-0.7-6-0.3-9c0.4-3.2,1.8-6.1,4-8.5l0.6-0.7c0.3-0.3,0.6-0.6,0.9-0.8c0.7-0.5,1.3-1.1,2-1.6c1.2-0.7,2.5-1.3,3.8-1.8
		c1.2-0.5,2.4-0.8,3.7-1c1.2-0.3,2.4-0.4,3.6-0.5c4.3-0.2,8.6,0,12.9,0.7c6.6,1.1,13.1,2.9,19.4,5.3c5.2,1.9,9.2,3.7,11.8,4.9
		s4.1,1.9,4.1,1.9l-4.4-1.2c-2.8-0.8-7-1.8-12.3-2.9c-6.3-1.3-12.7-2.2-19.2-2.6c-3.8-0.2-7.6,0-11.4,0.7c-0.9,0.2-1.9,0.4-2.8,0.7
		c-0.9,0.2-1.8,0.6-2.6,1c-0.8,0.4-1.6,0.8-2.3,1.3c-0.2,0.2-0.4,0.5-0.7,0.6l-0.4,0.3l-0.5,0.7c-2,2.5-1.9,6.1-0.8,10.3
		c1.5,4.5,3.6,8.8,6.2,12.7c5.3,8.2,12.4,16.1,20.2,23.9l0.9,0.9c8.5,8.2,17.3,16,26.6,23.3c1.4,1.1,2.8,2.2,4.3,3.3
		c7.1,5.5,14.5,10.8,22,15.9c1.1,0.8,2.3,1.6,3.4,2.3c6,4,12,7.8,18.2,11.5c4.4,2.6,8.8,5.2,13.2,7.7c10.6,5.9,21.2,11.2,31.7,15.8
		c3,1.3,6.1,2.5,9.1,3.7l0,0c7.1,2.9,14.4,5.2,21.8,7c4.8,1.2,9.6,1.9,14.5,2.1c4.6,0.2,8.9-0.4,11.9-2.1c6.1-3,5-12.2,2.4-18.7
		c-2.4-6-5.4-11.7-8.9-17.1c-3-4.6-5.5-8.1-7.2-10.4l-2.7-3.6c0,0,1.2,1.1,3.3,3.1s5.3,5.1,8.9,9.3c4.6,5,8.5,10.6,11.6,16.6
		c2.1,3.9,3.5,8.3,3.9,12.7c0.3,2.7-0.1,5.5-1.2,8l-1,2l-1.2,1.7c-1,1.2-2.2,2.3-3.5,3.2c-5,3.5-10.7,4.4-16.2,4.7
		c-5.6,0.2-11.1-0.2-16.6-1.2c-10.4-1.8-20.7-4.7-30.6-8.4C204.7,803.7,203.7,803.2,202.7,802.9z"/>
	<path class="st8" d="M259.1,340.3c-46.1,0-83.4,37.3-83.4,83.4s37.3,83.4,83.4,83.4s83.4-37.3,83.4-83.4l0,0
		C342.5,377.6,305.1,340.3,259.1,340.3z M252.4,401.1l5.5-10.6l0.1-0.2c0,0.1,0,0.1,0.1,0.2c2.4,3.3,4.4,6.9,6.1,10.6
		c0.5,1.3,0.9,2.7,1.3,4.1c0.2,0.9,0.3,1.9,0.3,2.8c-0.2,6.9-7.7,0-7.7,0l-0.2,0.1c-2.4,0.6-4.8-0.6-5.7-2.9
		C251.7,403.9,251.8,402.4,252.4,401.1L252.4,401.1z M229.5,408.2c-0.2,0.2-0.3,0.4-0.5,0.6l-0.4,0.4c-0.2,0.2-0.4,0.3-0.6,0.5
		c-0.1,0.1-0.2,0.2-0.4,0.3c-0.2,0.2-0.4,0.3-0.7,0.4c-0.2,0.1-0.3,0.1-0.5,0.2l-0.9,0.3c-0.1,0-0.3,0.1-0.4,0.1
		c-0.5,0-0.9,0.1-1.4,0.1c-0.5,0-0.9,0-1.4-0.1c-0.1,0-0.3-0.1-0.4-0.1l-0.9-0.3c-0.2,0-0.3-0.1-0.5-0.2s-0.5-0.3-0.7-0.4
		s-0.3-0.2-0.4-0.3s-0.4-0.3-0.6-0.5l-0.4-0.4c-0.2-0.2-0.3-0.4-0.5-0.6c-0.1-0.1-0.2-0.2-0.3-0.4c-0.2-0.2-0.3-0.4-0.4-0.7
		c-0.1-0.2-0.1-0.3-0.2-0.5l-0.3-0.9c0-0.1-0.1-0.3-0.1-0.4c0-0.5-0.1-0.9-0.1-1.4c0-0.5,0-0.9,0.1-1.4c0.1-0.2,0.2-0.3,0.2-0.5
		l0.3-0.9c0.1,0,0.1,0,0.1-0.1l0,0c0.1-0.4,0.3-0.7,0.5-1c0-0.1,0.1-0.2,0.2-0.3s0.4-0.5,0.6-0.7l0.3-0.3c0.3-0.3,0.6-0.6,1-0.8h0.1
		c0.3-0.3,0.6-0.5,1-0.6c0.2,0,0.3-0.1,0.4-0.1l0.9-0.3c0.1,0,0.3-0.1,0.4-0.1c0.4,0,0.8-0.1,1.3-0.1c0.4,0,0.9,0,1.3,0.1
		c0.2,0,0.3,0.1,0.4,0.1l0.9,0.3c0.2,0,0.3,0,0.4,0.1c0.3,0.2,0.7,0.4,1,0.6h0.1c0.4,0.2,0.7,0.5,1,0.8l0.3,0.3
		c0.2,0.2,0.4,0.5,0.6,0.7s0.1,0.2,0.2,0.3c0.2,0.3,0.3,0.7,0.5,1c0.1,0,0.1,0,0.1,0.1l0,0l0.3,0.9c0,0.1,0.1,0.3,0.1,0.4
		c0.1,0.5,0.1,1-0.2,1.5c0,0.5,0,0.9-0.1,1.4c0,0.1-0.1,0.3-0.1,0.4l-0.3,0.9c0,0.2-0.1,0.3-0.2,0.5s-0.3,0.5-0.4,0.7
		S229.6,408.1,229.5,408.2L229.5,408.2z M233.6,417.9l-3.7-1.8l62.3-1C274.4,425.9,252.4,427,233.6,417.9z M301.5,405.2
		c-0.4,2.4-2.1,4.4-4.4,5.3c-3.7,1.6-7.9-0.1-9.5-3.8c-0.2-0.5-0.4-1-0.5-1.5c0-0.4-0.1-0.9-0.1-1.3c0-1,0.2-1.9,0.6-2.8
		c0.3-0.8,0.8-1.5,1.4-2.1c1.3-1.5,3.3-2.4,5.3-2.4c2.9,0,5.6,1.8,6.7,4.5c0.4,0.9,0.6,1.8,0.6,2.8
		C301.6,404.3,301.6,404.8,301.5,405.2L301.5,405.2z"/>
	<path class="st8" d="M259.1,340.3c-23.1,0-45.2,9.6-60.9,26.5c42.5-17.8,91.4,2.2,109.2,44.7c12.7,30.3,6.4,65.2-16,89.2
		c42.5-17.8,62.5-66.7,44.7-109.2C323,360.5,292.7,340.3,259.1,340.3z"/>
	<circle class="st8" cx="202.2" cy="414.1" r="14.7"/>
	<circle class="st8" cx="315.9" cy="417.4" r="14.7"/>
	<path class="st7" d="M179.3,448.1c3.2,10.5,8.4,20.2,15.4,28.6l129.9-1.4c3.3-4.2,6.3-8.8,8.8-13.6L179.3,448.1z"/>
	<path class="st0" d="M199,481.5c5.3,5.6,11.4,10.3,18.1,14.2l119.6-41.4c2.2-5.6,3.8-11.5,4.8-17.5L199,481.5z"/>
	<path class="st7" d="M175.7,425.3c0,1.8,0.1,3.6,0.3,5.5l160.3,24.6c0.7-1.8,1.4-3.6,2-5.4L175.7,425.3z"/>
	<path class="st7" d="M325.8,373.6H192.4c-2.8,3.8-5.4,7.8-7.5,12h148.5C331.2,381.5,328.6,377.4,325.8,373.6z"/>
	<path class="st7" d="M265.1,340.5l-85,56.5c-1.6,4.6-2.7,9.2-3.4,14l108.8-66.5C278.9,342.4,272,341,265.1,340.5z"/>
	<path class="st5" d="M1929,244.1c-7.9-85.4-83.5-148.4-168.9-140.5c0,0,0,0-0.1,0c-85.4,7.8-148.3,83.5-140.5,169
		s83.5,148.3,169,140.5C1873.9,405.2,1936.8,329.6,1929,244.1z M1764.6,194l9,18.9l-7.5-2.1l-6.2,3.4L1764.6,194z M1725.6,204.1
		c-0.8-0.2-1.6-0.5-2.4-0.8c-0.9-0.3-2-0.6-3.1-0.9s-2.3-0.6-3.6-0.8s-2.5-0.5-3.9-0.6s-2.8-0.3-4.2-0.4s-2.9-0.1-4.3,0
		c-5.4,0.2-10.7,1.3-15.8,3.2c-1.8,0.6-3.6,1.3-5.3,2.1c-0.7,0.4-1.4,0.7-2.2,0.9c0,0,0.4-0.8,1.1-2.1c0.4-0.8,1-1.5,1.7-2.1
		c0.7-1,1.5-1.8,2.4-2.6c2.2-2.1,4.7-3.7,7.6-4.9c1.6-0.7,3.3-1.2,5-1.6c1.7-0.4,3.5-0.7,5.3-0.7c1.8-0.1,3.6,0,5.3,0.3
		c1.7,0.3,3.4,0.7,5,1.2c1.5,0.4,3,1.1,4.4,1.9c1.2,0.7,2.4,1.5,3.6,2.3c1.7,1.3,3.1,2.8,4.4,4.5c0.5,0.6,0.9,1.3,1.3,2
		L1725.6,204.1z M1774.1,262.2c-35.3,3.3-38.8-35-38.8-35l70.5-6.5C1805.8,220.7,1809.4,259,1774.1,262.2L1774.1,262.2z M1847.9,193
		c-0.8-0.2-1.6-0.5-2.4-0.8c-0.9-0.3-2-0.6-3.1-0.9s-2.3-0.6-3.6-0.8s-2.5-0.5-3.9-0.6s-2.8-0.3-4.2-0.4s-2.9-0.1-4.3,0
		c-5.4,0.2-10.7,1.3-15.8,3.2c-1.8,0.6-3.6,1.3-5.3,2.1c-0.7,0.4-1.4,0.7-2.2,0.9c0,0,0.4-0.8,1.1-2.1c0.5-0.8,1-1.6,1.6-2.2
		c0.7-1,1.5-1.8,2.4-2.6c2.2-2.1,4.8-3.7,7.6-4.9c1.6-0.7,3.2-1.2,4.9-1.6c1.7-0.4,3.5-0.7,5.3-0.8c1.8-0.1,3.6,0,5.4,0.4
		c1.7,0.3,3.4,0.7,5,1.2c1.5,0.4,3,1.1,4.4,1.9c1.2,0.7,2.4,1.5,3.6,2.3c1.7,1.3,3.1,2.8,4.4,4.5c0.5,0.6,0.9,1.3,1.3,2L1847.9,193z
		"/>
	<g class="st2">
		<path class="st3" d="M1968.3,240.5l51.7-4.8c-0.9-10.1-2.5-20.1-4.6-30c-2.2-9.9-4.9-19.6-8.3-29.2l-49,17.2
			c-6.4-18.3-15.5-35.4-27-51l41.8-30.8c-12-16.3-26-31.1-41.7-44l-33.1,40.1c-2.1-1.7-4.2-3.4-6.3-5l31.4-41.4
			c-16.2-12.2-33.8-22.4-52.4-30.4L1850.6,79c-9.2-3.9-18.6-7.1-28.3-9.6l12.8-50.3c-9.8-2.5-19.8-4.4-29.8-5.7
			c-10.1-1.3-20.2-1.9-30.3-2l-0.2,52c-6.1,0-12.3,0.2-18.5,0.8c-3.9,0.4-7.7,0.9-11.5,1.4l-7.8-51.4c-10,1.5-19.9,3.7-29.7,6.4
			c-9.8,2.7-19.3,6.1-28.7,10l20.1,47.9c-2.8,1.2-5.5,2.4-8.2,3.7l-22.3-46.9c-9.2,4.4-18,9.3-26.6,14.7
			c-8.6,5.4-16.8,11.4-24.6,17.8l33.1,40.1c-15,12.4-28.1,27-38.8,43.2l-43.4-28.6c-11.2,16.9-20.2,35.2-26.9,54.3l49.1,17.1
			c-1.7,4.8-3.2,9.6-4.5,14.6l-50.2-13.2c-2.6,9.8-4.6,19.7-5.9,29.8c-1.4,10-2.1,20.2-2.2,30.3l51.9,0.6c0,3.5,0,7.1,0.2,10.7
			l-51.9,2.2c0.4,10.1,1.5,20.2,3.2,30.2c1.7,10,4,19.9,6.9,29.6l49.8-14.8c3,9.9,6.7,19.5,11.1,28.8l-46.8,22.5
			c4.4,9.1,9.3,18,14.8,26.5c5.5,8.5,11.5,16.7,17.9,24.5l40-33.2c3.7,4.4,7.5,8.7,11.6,12.7l-36.9,36.6
			c7.1,7.2,14.7,13.9,22.7,20.2c8,6.3,16.3,12,25,17.2l26.8-44.5c2.2,1.3,4.4,2.6,6.6,3.8l-25.1,45.5c8.9,4.9,18,9.2,27.4,13
			c9.4,3.8,19,6.9,28.8,9.5l13.2-50.2c13,3.4,26.2,5.4,39.6,6.1l-2.7,51.9c10.1,0.5,20.3,0.4,30.4-0.3c10.1-0.7,20.2-2.1,30.1-4
			l-10.1-51c1.8-0.4,3.6-0.8,5.5-1.2l11.5,50.7c9.9-2.2,19.6-5.1,29.1-8.5c9.5-3.5,18.8-7.5,27.9-12l-23.5-46.3
			c9.4-4.7,18.4-10.3,26.9-16.5l30.7,41.9c8.2-6,16-12.5,23.4-19.4c7.4-6.9,14.3-14.3,20.8-22.1l-40-33.2
			c7.2-8.6,13.6-17.9,19.2-27.7l45.1,25.8c5-8.8,9.5-17.9,13.4-27.2c3.9-9.3,7.3-18.9,10-28.7l-50-14c1.3-4.7,2.5-9.4,3.4-14.3
			l50.9,10.2c2-9.9,3.4-20,4.1-30.1c0.8-10.1,0.9-20.3,0.4-30.4l-51.9,2.5C1968.8,246.2,1968.6,243.3,1968.3,240.5z M1789.5,424.2
			c-91.6,8.4-172.7-59-181.2-150.6c-8.5-91.6,59-172.7,150.6-181.2s172.7,59,181.1,150.6S1881.1,415.8,1789.5,424.2z"/>
	</g>
	<path class="st9" d="M1621.9,258.3c18.1-1.7,31.4-17.7,29.8-35.8s-17.7-31.4-35.8-29.8c-18.1,1.7-31.4,17.7-29.8,35.8c0,0,0,0,0,0
		C1587.8,246.6,1603.8,259.9,1621.9,258.3z"/>
	<path class="st9" d="M1918.8,214.3c18.1-1.7,31.4-17.7,29.8-35.8s-17.7-31.4-35.8-29.8c-18.1,1.7-31.4,17.7-29.8,35.8
		C1884.7,202.6,1900.7,215.9,1918.8,214.3z"/>
</g>
</svg>
