<svg xmlns="http://www.w3.org/2000/svg" width="1920" height="1080" viewBox="0 0 1920 1080"><defs/><defs><style>.cls-10,.cls-3,.cls-4,.cls-5,.cls-7{fill:#fff}.cls-3{opacity:.2}.cls-11,.cls-4{opacity:.6}.cls-15,.cls-5,.cls-9{opacity:.7}.cls-7{opacity:.4}.cls-15{fill:none;stroke:#fff;stroke-miterlimit:10}</style></defs><g style="isolation:isolate"><g id="Layer_2" data-name="Layer 2"><path d="M2848 551c-15.84-3.15-29.66-.37-42.41 8.53-18.48 12.9-16.63 34.11-16.16 54.87-13.66-18.16-30.64-38.15-55.29-40.06-22.8-1.76-45 16.21-44.94 36.36-6.51-13.65-25.31-20.69-41.92-18.34s-30.78 12.42-40.46 24.54-15.48 26.24-21.19 40.17c-1-11.3-13.06-21-25.93-20.7s-24.46 10.41-24.82 21.74c-8.32-16.28-36.8-18-51.69-5.87s-17.51 32.49-12.46 49.78c-23.8-23.11-68.17-26.77-96.43-7.95-8.37-13.41-26.81-21.33-44-18.88a44.6 44.6 0 00-25.66 13.11c-5.74 6-6.55 16.36-16.39 13.82-8.14-2.1-19.66-14-26.8-18.9-31-21.12-67.16-28.84-91-22.75-103 26.26-52.37 93.39-52.37 93.39s-22.33-5.42-36.93-2.92-23.18 15.85-23.18 15.85 13.74-20.85-56.67-22.52-78.13 34.61-78.13 34.61-48.09-15-80.71-11.68c-9.56 1-14.18 3.46-15.93 6.48-8.32-11.64-20.92-20.81-34.42-27.51-14.63-7.27-30.76-12-47.11-15.27a291.9 291.9 0 00-32.88-4.62c-10.4-.85-21.47-1.21-30.33 4.54-7.16 4.63-11.72 12.23-12 20-10-3.68-29.5-21.18-61.68-17-8.8 1.13-19.09 6-26.71 9.86-13.56 6.78-25.88 15.78-35 26.95-.63.77-8.64 13.63-8.66 13.63s-78.14-6.67-99.6-2.92-25.76 24.6-25.76 24.6c-4.3-4.86-11.64-8.23-17.69-11-7.46-3.36-15.44-5.63-22.72-9.1s-17.55-2.18-24.65.88c-7.92 3.4-14.07 9.85-16.53 17.3-.64 2-1.59 4.45-3.91 4.6-1.81.12-3.19-1.32-4.28-2.59a96.11 96.11 0 00-26.35-21.35 84.53 84.53 0 00-15.06-6.88c-5.23-1.66-11.43-.32-16.93.37a177.5 177.5 0 00-28.66 5.9 116.7 116.7 0 00-17 6.4c-1.47.7-4.44 1.66-5.46 2.91 0 0 45.48-55.87-25.76-67.54s-73.84 42.94-73.84 42.94-6-9.17-24-7.09-21.46 23.77-21.46 23.77-14.6-17.93-52.38-20.43-51.52 15-51.52 15a46.82 46.82 0 00-9.16-6.31 130.24 130.24 0 00-20.26-9.22c-10.42-3.8-37.69-14.33-57.89-6.64-4.76 1.81-8.51 5.27-11.92 8.71-1.45 1.47-8.91 9.08-7.83 11.1-5.17-9.72-14-17.81-24.58-23.08a63.58 63.58 0 00-14.29-5.09c-5.23-1.19-10.22-.35-15.58 0a271.39 271.39 0 00-32.7 4.17A193.55 193.55 0 00723 768.72c-1.8.86-35.39 21-32.81 23.08 0 0-23.18-18.76-42.93-19.18s-54.09 16.27-54.09 16.27a8 8 0 003.93-3.78c3.52-8.93-17.38-14.89-23.34-16.83-4.41-1.43-29.05-7.47-41 4.77-1.4 1.45-9 8.54-7.77 10.62l-.61-1a76.57 76.57 0 00-20.85-22.58c-3.81-2.76-9-6.88-13.81-8.13s-11.08-.63-16.05-.75a257.78 257.78 0 00-25.78.65q-6.42.48-12.81 1.32c-3 .4-7.42 2.08-9.61.27-1.8-1.49-2.81-5.53-4.39-7.48a33.06 33.06 0 00-6.63-6.11 35.84 35.84 0 00-17.54-6.36 16.17 16.17 0 00-2.36-19.89 20.85 20.85 0 00-11.81-5.64c-3.78-.54-9.06 1.6-12.3 0-3.47-1.71-6.7-7.27-9.31-10q-5.2-5.38-10.83-10.42c-14.72-13.1-32.3-24.39-52.74-29.3-58.88-14.11-150.61 51-173.79 68.46 3.91-4.62 3.82-12.09-27.79-17.48-2.69-.46-8.75-.15-10.89-1.51-1.76-1.1-3-5-4.53-6.57A30.38 30.38 0 0066 692.48a33.45 33.45 0 00-25.45 3.58 16.32 16.32 0 00-11.14-9 18.86 18.86 0 00-14.81 2.58l-1.13-5.12a22.19 22.19 0 00-17.19-.14c-3.26 1.36-3.38 2-6.65.64-2-.85-3.87-1.95-5.86-2.82-10.35-4.53-21.63-7.31-32.93-9.27-74.7-12.92-150.26 26.69-150.26 26.69s12-37.11-73-50-120.42-.46-120.42-.46c2-.69 3.75-9.55 4.2-11.1a65 65 0 002.74-25.18c-.95-9-4.66-20.41-12.91-26.41-6.8-5-20.16-3.59-25.19 2.83.15-11-7.79-18.66-19.53-20.27-33.08-4.53-67.11-2.08-99.44 5.21a295.92 295.92 0 00-30.85 8.67c-2.38.81-9.56 2.2-11.14 4.16 0 0 8.79-87.2-33.27-105.13s-106.69-15.78-106.69-15.78v486.56h3606.27V589.21c0-9.57-15.69-34.68-33.35-38.21z" style="mix-blend-mode:screen" opacity=".1" fill="#fff"/><path class="cls-3" d="M804.22 912.4c1.51 1.16 2.47 1.92 2.47 1.92s1.71-3.5 4.52-8.07l12-10.55-63.83 56zM1219.4 922.34s3.34-10 9.35-10 12 27 12 27A93.6 93.6 0 011255 925.3a186.58 186.58 0 018.26-41.39c.49-1.53 1-3.06 1.51-4.56h-.25c-18.35-.2-33.65-4.58-48-11.27 0 .46-.1.93-.14 1.39a274.69 274.69 0 00-1.08 31.21c5.46 8.61 4.1 21.66 4.1 21.66zM1259 922.56h.07zM956.89 905.17zM1257.63 923.44l.07-.05zM952.84 906.32c-.45.18-.89.37-1.33.59.49-.22.88-.41 1.33-.59zM1270.82 918.66c13 .75 40.07 26.05 40.07 26.05s4.09-22.12 31-18.9a40.82 40.82 0 015.69 1.08 142.33 142.33 0 01-.43-24.29 190.92 190.92 0 016.84-37.53l-8.79 6.76s-1.08-5.78 5.56-7.32l2.27-.51a13.44 13.44 0 00-5.51 1.13 24.31 24.31 0 00-6.85 4.51 10.5 10.5 0 01.2-3.77c-20.37 7.18-41.12 13.49-73.45 13.5-.52 1.7-1 3.37-1.42 5a177 177 0 00-5.59 37.36c3.49-1.99 7.08-3.26 10.41-3.07zM956 905.31a12.87 12.87 0 00-1.32.35 12.87 12.87 0 011.32-.35zM954.23 905.8l-1 .35zM1211.37 896.36l.28.22zM1022.78 908.4l.16.1zM1349.49 927.45zM1024.86 909.73c7.15 4.65 12.56 8.93 12.56 8.93s8-15.69 11.35-16.81 10.36 15.15 10.36 15.15 12-15.36 26.37-13 10 22.71 10 22.71 8.35-9.69 12.36-9.69 10.68 7.35 10.68 7.35 7.68-18.7 22-20.7S1162 928 1162 928s1.34-13.35 3-13.35 10.69 3 10.69 3 5.34-24.71 26-24.37a16.66 16.66 0 018.15 2.06c.43-7.85 1.24-16.55 2.63-25.88.15-1 .31-2.07.48-3.1-42.19-20.9-77.79-60.66-161.64-70.65a420.25 420.25 0 01-5.37 41.51 365.71 365.71 0 01-21.08 72.51zM1256.32 924.35zM957.76 905.13c7.75 0 18.89 8.86 18.89 8.86s7.35-14.36 20.35-15.7c5.11-.52 12.43 2.51 19.44 6.38a339.86 339.86 0 0024.56-69.13c3-12.11 5-26.34 6.39-40.25l-2.44-.26c-32.18-3.16-64 3.48-102.69 19a348.88 348.88 0 0112.48 52.49 279.83 279.83 0 013.02 38.61zM1212.86 897.64a.57.57 0 01.11.11zM1354.66 863.06zM1360 859.1l-2.08.71a18.46 18.46 0 00-2.45 3.62 18.88 18.88 0 014.53-4.33z"/><path class="cls-4" d="M793.93 935.47a700.64 700.64 0 00-34.52 16.27l63.83-56s-30.39-1.93-45.44 18.81c-10.72 14.76-15.63 27.49-17.57 33.6l24.64-87.52s-45.15 23-38.12 56.76c3.78 18.12 8 27.43 10.41 31.66l-46.93-70.48s-4.26 5.82 5 31.34c6.5 18 20.46 29.35 30.91 35.67a40.18 40.18 0 00-20.47-1.25 136.88 136.88 0 00-27.41 8.46h152.15c-7.12-5.92-34.81-26.94-56.48-17.32z"/><path class="cls-5" d="M-724.87 952.86h3606.22v68.38H-724.87z"/><path opacity=".5" fill="#fff" d="M-724.87 1021.1h3606.22v68.38H-724.87z"/><path class="cls-7" d="M-239 211.63l545.44 6.14s-59.64-46.27-92.1-33.53L181.9 197s25.43-67.36-9-71.74-37 32.89-37 32.89-1.21-79.76-57.43-77.85-63 75.73-63 75.73S-1.9 130.22-12.54 131s-24.54 44.76-24.54 44.76-21.76-16.66-37.92-11.1-26.65 35.14-26.65 35.14-1-42.87-24.54-33.55-26.3 33.56-26.3 33.56-17.51-20.1-44.07-13.41A89.12 89.12 0 00-239 211.63z"/><path class="cls-7" d="M-238.88 215.07l545.33 2.7s-59.42-39.09-91.93-28.1l-32.51 11s25.74-57.42-8.67-61-37.14 28.15-37.14 28.15-.84-67.83-57.07-65.94-63.31 64.7-63.31 64.7-17.27-21.86-27.91-21.17-24.75 38.19-24.75 38.19-21.67-14.06-37.89-9.25-26.81 30-26.81 30-.81-36.46-24.38-28.43-26.45 28.68-26.45 28.68a50.36 50.36 0 00-44-11.21c-26.63 5.83-42.51 21.68-42.51 21.68zM300.24 512.44l189.46 3.91s-18.87-11.72-24.31-9.51a78.75 78.75 0 00-9.36 4.55s-2.8-8.17-13.75-10.58-15.43 7.77-15.43 7.77 5.9-31.78-17.39-32.9-27.77 12.06-27.77 12.06-7.86-3.93-14.87-.84-.56 17.28-.56 17.28-7-14.76-14.87-10.41-9.26 13.82-9.26 13.82a9.84 9.84 0 00-10.1-4.94c-7 1.08-9.54 4.94-9.54 4.94s-12.49-7.21-22.25 4.85z"/><path class="cls-7" d="M300.24 513.14l189.46 3.21s-18.87-9.62-24.31-7.8a86.83 86.83 0 00-9.36 3.73s-2.8-6.71-13.75-8.69-15.43 6.41-15.43 6.41 5.9-26.09-17.39-27-27.77 9.9-27.77 9.9-7.86-3.22-14.87-.69-.56 14.19-.56 14.19-7-12.12-14.87-8.55a16.7 16.7 0 00-9.26 11.35s-3.13-4.98-10.13-4.1-9.54 4.06-9.54 4.06-12.46-5.92-22.22 3.98zM1536.33 322.36l290.85-4.07s-29.57-17-37.79-13.29a120.21 120.21 0 00-14.12 7.47s-4.74-12.38-21.65-15.5-23.26 12.75-23.26 12.75 7.35-49.08-28.43-49.56-42 20-42 20-12.26-5.61-22.86-.5.06 26.55.06 26.55-11.54-22.28-23.36-15.19-13.47 21.7-13.47 21.7-5-9.07-15.75-7-14.37 8.09-14.37 8.09-19.57-10.46-33.85 8.55z"/><path class="cls-7" d="M1536.37 323.43l290.81-5.14s-29.46-13.76-37.7-10.68a132.26 132.26 0 00-14.16 6.22s-4.66-10.13-21.55-12.59-23.33 10.61-23.33 10.61 7.65-40.34-28.12-40.52-42.08 16.67-42.08 16.67-12.22-4.53-22.84-.27-.11 21.8-.11 21.8-11.4-18.22-23.26-12.33a25.68 25.68 0 00-13.6 17.91s-5-7.42-15.71-5.69-14.42 6.73-14.42 6.73-19.54-8.41-33.93 7.28zM1154.88 641.46l526.1 8.66s-43.65-28.22-70.36-29.86-55.31 17-55.31 17 3.75-68.11-37.43-69.65-50.28 47.31-50.28 47.31-14.59-97-68.78-107.53-52 95-52 95-38.46-25.39-52.18-23.57-16.47 43-16.47 43-17.56-17-42-11-21.81 13.44-21.81 13.44-25.36-19.13-59.48 17.2z"/><path class="cls-7" d="M1154.88 641.46l526 10.35s-43.81-24.1-70.52-25.64-55.2 14.06-55.2 14.06 3.36-57.54-37.83-59.07-50 39.69-50 39.69-15.14-82.08-69.38-91.28-51.5 80-51.5 80-38.6-21.68-52.3-20.22-16.15 36.2-16.15 36.2-17.65-14.51-42.1-9.52-21.72 11.24-21.72 11.24-25.41-16.27-59.3 14.19zM1847 637.39c-6.31 5.28-8.54 14.76-9.24 22.33-.48-6.28-.6-14.37 1.55-17.76a26.37 26.37 0 018.61-8.55s-10.29-2.72-14.73 6.23c-2 4-1 10.55.65 16.41-2.2-4.87-5.35-10.22-9.65-14-10.72-9.44-23.7-.24-23.7-.24s14.6 3.77 25.08 13.88c1.38 1.34 2.7 2.68 3.92 4-6.38-5.49-15.23-11.09-24.76-10.06-23.7 2.57-18.48 28.38-18.48 28.38s4.28-12.65 20.51-16.4c12.86-3 24.84 3.62 29.27 6.5-4-1.73-19.47-7.65-31-1-17.31 10.08-5.19 32.55-5.19 32.55s2.93-14.17 14.1-22.6c8.67-6.55 17.48-8.08 22.69-7.82a49.88 49.88 0 00-10.18 6.29c-13.66 11-1.44 31.3-1.44 31.3l12.61-36.83c.63 3 2 9.19 3.25 13.31 1.74 5.63 10.49 13.93 10.49 13.93s-1.69-10.45-4.34-16a40.1 40.1 0 00-4.34-7c12.61 13.43 43.8 47.77 60.56 76.16 30.47 51.6 37.24 89.57 37.24 89.57l9.28-9.05s-11.37-37.66-41.65-82.84c-25.44-38-56.94-69.23-66.36-78.25l29.59 3.95s-5.26-14.91-22.81-9.6a348.5 348.5 0 00-6 1.88 36.25 36.25 0 0114.35-4.79 65.63 65.63 0 0122 1.31s-6.71-17.7-22.82-13.6c-5.27 1.34-9.41 5.18-12.42 9.13a22.25 22.25 0 018.94-11.23c11.61-7.42 20.65-2.34 20.65-2.34s-11.07-19.83-26.23-7.15zm-9.53 28.67V666z"/><path class="cls-5" d="M187.19 942.88a431.56 431.56 0 00-21 9.89L205 918.71s-18.46-1.16-27.61 11.43a73.65 73.65 0 00-10.67 20.42l15-53.18s-27.43 14-23.16 34.49c2.29 11 4.86 16.67 6.32 19.23l-28.51-42.81s-2.59 3.53 3 19c3.95 10.93 12.44 17.83 18.79 21.67l-.39-.11c-8.73-5-24.12-13.09-31.48-12.08-10.6 1.44-13.73 11.08-13.73 11.08s2.63-12.58-7.55-18.55c7.26-19.31 12.35-49-21.48-54.82-36.73-6.34-40.78 22.65-40.18 39.37-.89 5.35-1 9.28-1.35 8.71-1-1.65-12.8-29.56-24.6-25.49-7.16 2.48-11.12 10.2-13.14 15.93 3.25-14.05 7.15-46.22-24.19-49.6C-60.15 859-57 920.67-57 920.67s-4.1-13.46-16.38-12.87-8.91 20.58-8.91 20.58-4.82-27.94-27-26.49c-18.58 1.21-17.85 21.22-17.13 27.64-1.25-7.41-7.56-32.84-34.89-26.2-31.88 7.75-32.75 24.33-32.75 24.33s-8.91-13-19-13.73-16.13 20.23-16.13 20.23-10.84-2.41-19.75 1-2.41 13-2.41 13-19.67-14.67-37.25 4.6h419.16c-.58.24-1.09.45-1.53.65h92.47c-4.33-3.6-21.15-16.41-34.31-10.53z"/><path class="cls-4" d="M1877.84 483.77l-3.91-2.18 60.78 33.94s1.26-33.18-37.13-36.38c-5.13-.43-9.59-.73-13.11-.94a76.06 76.06 0 0131.74 1.75c23.73 6.15 42 19.59 42 19.59s.58-39.77-34-44.21c-11.36-1.46-22.42 2.84-31.37 8.24a46.89 46.89 0 0126.19-15c28.41-5.53 42.15 11.39 42.15 11.39s-6.44-47.34-45.86-34.29c-16.38 5.42-28.08 22.19-35.3 36.43 3.91-12.63 10-28.5 16.74-33.45a55.56 55.56 0 0123.45-10.05s-18-13.27-33.6.79c-6.92 6.25-10.09 19.78-11.41 32.48-.54-11.19-2.56-24-8-34.76-13.64-26.72-46.11-18.79-46.11-18.79s25.61 18.65 38.25 46.51c1.67 3.67 3.21 7.32 4.6 10.8-8.21-15.67-21.17-33.45-40.59-38.8-48.3-13.31-58 41.13-58 41.13s18.13-21.39 52.74-16.18c27.4 4.13 45.73 26.29 52.18 35.34-6.46-6.45-32.14-30-59.74-25.83-41.6 6.3-35.3 59.57-35.3 59.57s16.68-25.42 45-33.25c22-6.09 40.49-2.27 50.47 2.27a105.2 105.2 0 00-24.83 4.41c-35.19 10.92-27 60-27 60l53-62.19c-1.11 6.41-3.24 19.49-3.94 28.51-1 12.35 9.73 35.32 9.73 35.32s2.21-10.11 3.34-20.63l68.6 362.22 13.19-2.1zm-3.33-9.52zm6.74 47.18v.33-.33zm.13-1.77v.38zm.08-1.56v-.11.11zm.06-1.76v-.36.36zm0-1.57zm0-2v.45l-.01-.47z"/><path class="cls-5" d="M277.53 952.75h44s12.2-10.24-6.63-19.57-45.9-1.41-37.37 19.57zM273.55 952.75s-4.58-8-12.21-8.34-6.22 8.34-6.22 8.34zM391.92 952.75s-.4-11.54 19.89-10 11.54 9.59 11.54 9.59z"/><path d="M1824.54 859.24c-29.19-13.28-63.41-.88-66.2 5.25s18.61 21.89 47.81 35.17 55.12 19.08 57.91 13-10.33-40.13-39.52-53.42z" opacity=".3" fill="#fff"/><g class="cls-9"><path class="cls-10" d="M1821.36 858.59c-14 10.76-22.77 22.58-28 34.48 0 .09-.09.19-.13.28 4.09 2.13 8.43 4.25 13 6.31s9 3.94 13.26 5.63l.13-.28c5.48-11.75 8.79-25.82 8.38-42.75a7.47 7.47 0 00-6.56-3.67z"/></g><g class="cls-11"><path class="cls-10" d="M1824.54 859.24a7.9 7.9 0 011 .56l2.35-5.17a1.14 1.14 0 10-2.07-1l-2.36 5.18a7.36 7.36 0 011.08.43zM1806.15 899.66l-1-.48-30.62 67.28a1.14 1.14 0 00.57 1.51 1.12 1.12 0 00.47.11 1.15 1.15 0 001-.67l30.62-67.28z"/></g><path class="cls-10" d="M1795.91 894.75zM1799.45 896.51c-1-.47-1.91-1-2.85-1.42.94.48 1.88.91 2.85 1.42zM1793.32 893.07c5.27-11.9 14-23.72 28-34.48a7.5 7.5 0 013.09.62 63.46 63.46 0 00-13-4.27 91.83 91.83 0 00-30.72 20.35 85.78 85.78 0 00-6.27 7.06 198.25 198.25 0 0018.74 11c.07-.09.11-.19.16-.28zM1806.15 899.66l-3-1.38zM1815.66 903.78l-1.1-.46zM1841.37 870.4a63.46 63.46 0 00-14.87-10.22l-1.74-.83a7.7 7.7 0 013.16 2.91c.41 16.93-2.9 31-8.38 42.75l-.12.27a198.56 198.56 0 0020.6 6.91c.48-3 .89-6.13 1.21-9.36a169.27 169.27 0 00.14-32.43zM1802.39 897.92l-2.66-1.28zM1810.28 901.5l1.19.51z"/><path class="cls-5" d="M1767.22 964.46c-2 2.84-3.63 5.35-4.87 7.34-5.54 8.92-6.81 13.09-11.69 19.26a58.62 58.62 0 01-5.68 6.19c-11 .75-19.85.91-25.74.92-26.38.07-38.18-2.57-63.74-2.06a346 346 0 00-22 1.14 93.91 93.91 0 0011-9.4c6.18-6.19 8.56-10.32 16.28-18.11 2.6-2.62 4.8-4.65 6.14-5.85a164.66 164.66 0 0119.77-2.18c19.73-1 29.87 2.13 51.11 3.09a258.29 258.29 0 0029.42-.34z"/><path class="cls-4" d="M784 698.76c-15.46-3.62-31.14 3.8-42.74 11.54 2.28-1.88 4.72-3.82 7.26-5.73 19.26-14.51 44-17.76 44-17.76s-19.48-17.74-39-4.39c-7.82 5.34-14.07 13.48-18.66 21 3.88-9.29 6.79-19.85 4.36-26.79-5.49-15.61-23-13.23-23-13.23a43.79 43.79 0 0112.43 15.81c2.84 6 1 19.24-1 29.46.38-12.58-1.39-28.6-10.68-38.53-22.36-23.9-44.68 6.44-44.68 6.44s15.89-6.53 33.47 8a37 37 0 0112.45 20.28c-4.16-7.11-10.19-14.26-18.6-17.53-25.65-10-40.25 17.75-40.25 17.75a108.53 108.53 0 0136.47 2.29 60 60 0 0122.63 10.77 447.46 447.46 0 00-9.43-4.3c-27.77-12.27-39.42 11.17-39.42 11.17l49.42-.5c-17.31 12.93-75.39 58-124.87 115.2-41.18 47.66-66.42 91.12-77.88 113h18.9c11.72-25.37 32.54-64 66.51-108.15 33.26-43.25 91.41-93.36 114.9-112.93a66 66 0 00-8.52 10.6c-5.47 8.61-10.37 25.43-10.37 25.43s16.06-11.86 20.06-20.78c2.92-6.5 6.38-16.36 8-21.21l13.22 63S763.19 757.81 743 737a83.48 83.48 0 00-15.51-12.42c8.62.63 22.84 5 35.77 17.47 16.66 16.11 18.61 40 18.61 40s24.46-34.49-2-54.55c-17.52-13.3-44.18-6.69-51.08-4.66 7.88-3.83 28.92-12.26 49.45-4.77 25.92 9.45 30.39 31.1 30.39 31.1s13.8-41.4-24.63-50.41zm-57.12 20.45z"/><circle class="cls-7" cx="1580.17" cy="193.81" r="78.59"/><path class="cls-7" d="M27.84 635.08c-17-.75-18.64 20.83-18.64 20.83s8.6-8.76 20.43-9.65c9.19-.69 16.17 2.26 19.77 4.84a41.93 41.93 0 00-10.15-.19c-14.78 1.58-15.39 21.66-15.39 21.66l25.85-20.49c-.94 2.45-2.81 7.47-3.79 11-1.34 4.8 1.08 14.73 1.08 14.73s3.58-8.22 4.25-13.41a33.54 33.54 0 00.11-7c2.84 15.37 9.32 54.16 8.25 82.1a307.39 307.39 0 01-6.42 52.59 29.39 29.39 0 017.52 1.83 326.6 326.6 0 003.44-53.85c-.73-38.74-8.85-75.48-11.43-86.23L72 670.24s3.09-13-11.86-17.31c-2-.57-3.73-1-5.11-1.39a30.65 30.65 0 0112.43 3.17 55.54 55.54 0 0115.1 11s3.34-15.7-10-20.17c-4.38-1.46-9.09-.62-13.05.81A18.9 18.9 0 0171 642.49c11.68 0 15.8 7.8 15.8 7.8S88 631 71.36 633.13c-6.92.87-12.86 6.6-16.83 11.68 2.53-4.7 6.17-10.52 9.25-11.95a22.48 22.48 0 0110.07-2.15s-6.1-6.66-13.37-2.31c-3.24 1.94-5.55 7.06-7.06 12 .66-4.48.87-9.75-.46-14.42-3.31-11.65-16.79-11-16.79-11s8.69 9.38 11.52 21.4c.37 1.58.69 3.15 1 4.63-2-6.84-5.77-14.9-13-18.53-18.08-9-26.19 11.75-26.19 11.75s8.85-7.05 22.14-2.28c10.54 3.77 16 14 17.9 18.06-2.12-3.1-10.45-14.43-21.7-14.93zm23.58 14.09v.05zM153.41 671.9a16.62 16.62 0 019.33 5.32c-3.19-1.91-7.13-3.43-11.17-2.9-12.32 1.62-12.06 15.78-12.06 15.78a49 49 0 0114.93-7 27 27 0 0111.29-.66c-1.25.08-2.83.19-4.66.35-13.66 1.18-13.17 13-13.17 13l19.45-11c-4 8.88-17.24 39.33-24.38 72.76a288.4 288.4 0 00-5.86 43.26 11.54 11.54 0 014.18 2.3 16.8 16.8 0 012.46 2.64 270.13 270.13 0 013.25-47.92c3.76-24.37 15.89-56.87 20.93-69.7a30.39 30.39 0 00-1.08 6.07c-.29 4.6 1.43 12.32 1.43 12.32s3.77-8.19 3.42-12.59c-.26-3.21-1-7.86-1.43-10.14l18.94 22.08s2.84-17.49-9.69-21.34a37.69 37.69 0 00-8.82-1.53c3.55-1.63 10.09-3 17.93-.87 10.1 2.76 16.07 11.79 16.07 11.79s2.17-19-12.64-21.17c-9.83-1.45-18.94 7-21.23 9.26 2.28-3.23 8.77-11.13 18.53-12.64 12.31-1.89 18.79 5.7 18.79 5.7s-3.53-19.37-20.71-14.57c-6.9 1.92-11.5 8.27-14.4 13.85.49-1.24 1-2.53 1.62-3.84 4.47-9.93 13.57-16.6 13.57-16.6s-11.57-2.79-16.4 6.74A31.08 31.08 0 00169 673c-.48-4.52-1.62-9.35-4.1-11.57-5.57-5-12-.24-12-.24a19.71 19.71 0 018.35 3.55c2.43 1.76 4.6 7.41 6 11.9-2.59-5.06-6.77-11-12.61-12.94-14.05-4.6-16.29 12.26-16.29 12.26s4.94-5.96 15.06-4.06zm15.87 9.1z"/><g class="cls-11"><path class="cls-10" d="M172.37 846.66c3.06-1.89 7.36-4 11.73-4.33a624.8 624.8 0 0110.42-26.69c18-43.25 55.2-97.72 70.33-119.11a57.37 57.37 0 00-4.75 10.71c-2.63 8.36-3 23.39-3 23.39s10.69-13.39 12-21.67c1-6 1.67-15 2-19.37l24.9 49.35s13.21-31-8.17-43.78a71.35 71.35 0 00-15.61-6.87c7.28-1.38 20-.95 33.53 6.57 17.37 9.68 24.28 29.06 24.28 29.06s12.65-34-13.69-44.81c-17.48-7.15-38.13 4.22-43.4 7.44 5.68-4.92 21.27-16.56 39.95-14.9 23.59 2.11 32.09 19.07 32.09 19.07s2.29-37.36-31.59-36.32c-13.62.41-25 10-32.89 19 1.47-2.06 3.07-4.21 4.75-6.36 12.76-16.3 32.59-24.47 32.59-24.47s-20.09-10.4-33.32 5c-5.31 6.16-8.69 14.3-10.83 21.57 1.16-8.56 1.24-18-2.31-23.18-8-11.73-22-5.89-22-5.89a37.58 37.58 0 0113.81 10.35c3.67 4.34 5.11 15.74 5.66 24.67-2.47-10.52-7.48-23.41-17.38-29.59-23.83-14.88-35.63 15.22-35.63 15.22s11.73-8.93 29.53-.75a31.62 31.62 0 0114.81 14.07c-5-5-11.6-9.58-19.3-10.43-23.48-2.62-29.45 23.62-29.45 23.62a93.07 93.07 0 0130.75-6.16A51.4 51.4 0 01263.4 685c-2.35-.42-5.33-.94-8.77-1.48-25.75-4-30.22 18-30.22 18l40.87-11.36c-11.49 14.56-49.7 64.74-78.07 123.17a549.32 549.32 0 00-14.84 33.33zM270.58 684z"/></g><g opacity=".5"><path class="cls-10" d="M250.73 862.9s-4-13.36 14.36-11 8.74 19 8.74 19 11.29-8.68 15.3-8 9.35 10 9.35 10a19.86 19.86 0 0113.19-7.25c-1.43-3.75-6.82-13.42-25.84-20.57-13.77-5.19-29.12 4.78-39.74 14.27 2.78 2.03 4.64 3.55 4.64 3.55zM318.18 865.91c13 2.33 17 21 17 21s3-10.35 13.69-10.35 11.35 8 11.35 8a68.59 68.59 0 018.09-11.67c-1.89-2.69-4-4.88-6.15-5.33-6.31-1.35-24.47 5.7-24.47 5.7s-6.3-11.08-13.34-12.42c-4.86-.93-8.84 2.47-10.84 4.66a22.39 22.39 0 014.67.41zM213.16 859.59l-1.21.31a4.25 4.25 0 01.72.66s.17-.37.49-.97zM187.29 842.87c14 2.67 5.34 20 5.34 20a17.28 17.28 0 016.32-4.47 15.64 15.64 0 00-6.15-13.67 12.5 12.5 0 00-9.6-2.33 25.58 25.58 0 014.09.47zM5.64 823.83s4.23-24.94 31.28-30.77c2.32-4.57 11.27-23.54 2.81-28.55-9.63-5.71-22.61 5.71-22.61 5.71s5.56-14.1 0-23.51-18.9-2-18.9-2l.18 54.72c8.24 9.19 7.24 24.4 7.24 24.4zM77 837.08c1-5.39 5.26-24.12 18.13-23.26 15 1 28.05 32.38 28.05 32.38s5-10 24-7.68 10 11.69 10 11.69a61.94 61.94 0 0111.37-5.21c.71-7.38 1.36-21-3.17-24.39-6.3-4.7-18.16 0-18.16 0s1.85-10.75-5.93-17.46-20 .33-20 .33 1.48-14.44-3-15.78-19.63 12.4-19.63 12.4-.37-13.09-13-14.77c-7-.93-14.81 5.29-20.36 11 15.07 10.19 12.6 34.58 11.7 40.75z"/></g><path class="cls-7" d="M395.38 652.58a27.89 27.89 0 0117 5.76c-5.85-2.12-12.79-3.35-19.25-1.2-19.72 6.59-14.79 29.75-14.79 29.75a81.73 81.73 0 0122.28-16.28 45.31 45.31 0 0118.38-4.68c-2 .53-4.59 1.21-7.54 2.06-22.05 6.29-17.49 25.52-17.49 25.52l28.45-24.16c-3.8 15.85-15.78 70-16.85 127.2a483.62 483.62 0 003.31 66.36c9.86 12.54 11.52 38.94 11.52 38.94a40.37 40.37 0 015.78-10.14c-5.5-20.32-12.28-53.2-13.92-96-1.58-41.2 8-98.43 12.17-121.1a50.51 50.51 0 00.16 10.31c1 7.64 6.27 19.77 6.27 19.77s3.59-14.64 1.61-21.75a212.59 212.59 0 00-5.59-16.2l38.12 30.2s-.9-29.62-22.71-31.94a62.39 62.39 0 00-15 .28c5.31-3.8 15.61-8.15 29.17-7.14 17.45 1.31 30.12 14.24 30.12 14.24s-2.46-31.84-27.49-30.73c-16.6.74-28.87 17.45-31.9 22 2.72-6 10.85-21.07 26.4-26.64 19.61-7 32.66 3.37 32.66 3.37s-12-30.68-38.64-17.34c-10.72 5.37-16.24 17.24-19.23 27.34.41-2.19.89-4.49 1.44-6.83 4.17-17.73 17-31.57 17-31.57S426.93 611 422 628.23c-2 6.89-1.65 14.65-.67 21.26-2.23-7.28-5.64-14.84-10.41-17.69-10.73-6.42-19.72 3.4-19.72 3.4a33.18 33.18 0 0114.85 3.17c4.54 2.11 9.9 10.7 13.65 17.63-5.87-7.49-14.62-16-24.83-17.23-24.53-3.08-22.83 25.32-22.83 25.32s6.11-11.47 23.34-11.51zm29 9.92v-.07zM568.91 496.06c24.05 7 39.1 21.2 45.81 31.18A115.92 115.92 0 00589 517.06c-39.15-10.06-59.8 40.48-59.8 40.48L614.48 530c-4.72 5.36-14.24 16.34-20.09 24.36-8 11-11.25 38.57-11.25 38.57s16.94-17.53 23.57-30.08a93 93 0 006.92-17.61C606.2 587.11 585.79 692 556.51 762c-28.07 67.12-58.23 116.87-80.51 148.93a31 31 0 014.44 6.4s2.67-6.35 6-6.35 4.34 4.68 4.34 4.68 3-9 9.69-9.35a7.7 7.7 0 013.81 1 882.25 882.25 0 0063.2-139.51c35-99.3 49.32-200.55 53-230.39L654 597.45s20.27-30.26-13.72-55.34c-4.54-3.35-8.54-6.2-11.7-8.43 8.77 3.49 19.08 10 28.63 19.92 18.6 19.4 27.94 42.47 27.94 42.47s23.45-36.79-6.33-60.87c-9.76-7.9-22.56-10.26-34-10.38a51.49 51.49 0 0133.09 1c29.7 11.2 32.79 34.91 32.79 34.91s21.24-47.91-23.07-58.42c-18.41-4.37-39 4.55-53.92 13.68 10.93-9.54 25.69-20.87 34.88-21.58a60.86 60.86 0 0127.68 4.11s-9.18-22.75-31.83-18.6c-10.06 1.84-20.81 12.65-29.35 23.75 5.94-10.76 11.46-23.93 12.52-37.07 2.65-32.8-32.23-44.09-32.23-44.09s13.17 32.16 8.94 65.45c-.56 4.39-1.22 8.69-1.93 12.74 1.36-19.36-.49-43.43-15.55-59.61-37.43-40.23-77.87 5-77.87 5s29.24-9.54 58.55 15.25c23.2 19.63 27.56 50.87 28.37 63-2.32-9.77-12.75-46.53-40.9-58.51-42.46-18.07-67.26 35.28-67.26 35.28s30.27-14.04 61.18-5.05zm52.66 28.2zM757.16 949c-2.41-4.23-6.63-13.54-10.41-31.66q-.36-1.79-.54-3.54c-4.12 1.43-6.08 5.48-7 8.3zM790.89 903c-2.89-1.76-5.51-3-6.89-3-3 0-9.17 6.07-13.1 10.31l-10.65 37.84c1.94-6.11 6.85-18.84 17.57-33.6A40.47 40.47 0 01790.89 903zM892.39 934.85l-1.73-23.54-.79 1.11z"/><path class="cls-4" d="M1217.37 786.12a16.2 16.2 0 019.33 4.57c-3.2-1.65-7.09-2.87-11-2.11-11.8 2.31-10.69 16-10.69 16a47.4 47.4 0 0114-7.68 26.18 26.18 0 0110.86-1.32c-1.2.15-2.72.35-4.48.62-13.11 2-11.93 13.34-11.93 13.34l18.12-11.75c-3.36 8.81-14.27 39-19.13 71.72-1.39 9.33-2.2 18-2.63 25.88a15.47 15.47 0 015.45 5.33 274.69 274.69 0 011.08-31.21c2.16-23.75 11.91-55.86 16-68.56a28.75 28.75 0 00-.67 5.93c0 4.46 2.12 11.81 2.12 11.81s3.15-8.13 2.54-12.36a121 121 0 00-2-9.71l19.66 20.13s1.7-17.06-10.64-20a36.3 36.3 0 00-8.6-1c3.32-1.79 9.55-3.52 17.25-1.93 9.92 2 16.23 10.41 16.23 10.41s1-18.45-13.49-19.67c-9.57-.81-17.86 7.86-19.93 10.22 2-3.25 7.79-11.28 17.12-13.32 11.78-2.57 18.49 4.37 18.49 4.37s-4.58-18.49-20.87-12.82c-6.56 2.27-10.6 8.68-13.07 14.25.4-1.23.84-2.52 1.33-3.82 3.72-9.85 12.1-16.84 12.1-16.84s-11.34-2-15.42 7.5a30.06 30.06 0 00-2 12.15c-.74-4.34-2.13-8.94-4.66-10.93-5.67-4.48-11.56.49-11.56.49a19 19 0 018.28 2.92c2.45 1.55 4.88 6.88 6.52 11.13-2.81-4.73-7.2-10.24-13-11.73-13.84-3.59-15 12.82-15 12.82s4.4-6.08 14.29-4.83zm15.87 7.81z"/><path class="cls-7" d="M840.16 936.24s7.74-8.56 10.32-12.34l10.52 4.8-9.14-6.7a58.86 58.86 0 018.94-9.66l4.53 16.11 9 11.76-11.84-29.31a47.65 47.65 0 019.91-6.06l4.56 6.55-2.68-7.39a43.48 43.48 0 017.28-2.17 14.74 14.74 0 00-7.75-2.24 24.25 24.25 0 00-20 9.68s-6-25-19.7-24c-5.4.4-10.79 5-15.35 10.43 2.8-.11 4.52 0 4.52 0l-12 10.55c-2.81 4.57-4.52 8.07-4.52 8.07s-1-.76-2.47-1.92l-44.81 39.34c4.82-2.47 16.2-8.14 34.52-16.27 21.64-9.6 49.29 11.34 56.45 17.25h15z"/><path class="cls-4" d="M915.2 790.92a26.22 26.22 0 0117.26 1.92 35.91 35.91 0 00-8.6 1c-12.34 3-10.65 20-10.65 20l19.62-20.17c-.52 2.17-1.55 6.62-2 9.71-.6 4.22 2.55 12.35 2.55 12.35s2.12-7.35 2.12-11.81a29.44 29.44 0 00-.67-5.92c4.08 12.69 13.83 44.81 16 68.56a266.47 266.47 0 01.69 40.38 20.37 20.37 0 014.44-1.6 8.17 8.17 0 011.81-.18 279.83 279.83 0 00-3-38.61c-4.87-32.7-15.77-62.9-19.13-71.71l18.12 11.74s1.18-11.37-11.94-13.34c-1.75-.26-3.27-.46-4.47-.62a26.2 26.2 0 0110.86 1.32 47.4 47.4 0 0114 7.68s1.1-13.65-10.7-16c-3.86-.75-7.75.47-11 2.12a16.14 16.14 0 019.33-4.57c9.88-1.26 14.22 4.87 14.22 4.87s-1.14-16.41-15-12.83c-5.76 1.5-10.15 7-13 11.74 1.63-4.26 4.07-9.58 6.52-11.13a19 19 0 018.28-2.92s-5.89-5-11.56-.49c-2.53 2-3.92 6.58-4.66 10.92a30.09 30.09 0 00-2-12.15c-4.08-9.49-15.42-7.5-15.42-7.5s8.38 7 12.09 16.85c.49 1.3.94 2.59 1.34 3.81-2.47-5.57-6.52-12-13.07-14.25-16.29-5.66-20.87 12.82-20.87 12.82s6.71-6.94 18.48-4.36c9.33 2 15.12 10.06 17.13 13.32-2.07-2.37-10.36-11-19.94-10.22C898 782.88 899 801.32 899 801.32s6.29-8.32 16.2-10.4zm18.8.08zM1365.28 857.37c-4.94 0-8.83 4.77-9.79 6.06.89-1.74 3.52-6.1 8.22-7.53a10.39 10.39 0 019.65 1.48s-3.11-9.29-11.22-5.71c-3.26 1.44-5.07 4.89-6.11 7.84.16-.64.33-1.32.53-2a23.63 23.63 0 015.5-9.13s-5.89-.55-7.59 4.48a15.28 15.28 0 00-.51 6.31c-.56-2.2-1.46-4.49-2.84-5.41-3.09-2.06-5.9.73-5.9.73a9.85 9.85 0 014.36 1.15c1.32.7 2.79 3.32 3.8 5.44-1.63-2.31-4.11-5-7.12-5.48-7.24-1.27-7.15 7.19-7.15 7.19s2-3.32 7.09-3.08a8.29 8.29 0 015 1.95 8.77 8.77 0 00-5.69-.63c-6 1.67-4.82 8.62-4.82 8.62a24.31 24.31 0 016.85-4.51A13.44 13.44 0 011353 864l-2.27.51c-6.64 1.54-5.56 7.32-5.56 7.32l8.79-6.76a190.92 190.92 0 00-6.84 37.53 142.33 142.33 0 00.43 24.29 32.77 32.77 0 013.7 1.19 132.46 132.46 0 01-2.13-25.64c.13-12.26 3.8-29.11 5.36-35.78a15.25 15.25 0 00-.1 3.06 29.35 29.35 0 001.58 6s1.28-4.29.79-6.43c-.35-1.57-1.07-3.8-1.42-4.9l10.88 9.53s.16-8.81-6.28-9.82a19 19 0 00-4.45-.13 13.55 13.55 0 018.77-1.7 15.64 15.64 0 018.74 4.66s-.26-9.52-7.71-9.56zm-10.63 5.69z"/><path class="cls-7" d="M1255 925.31a47.61 47.61 0 015.35-3.59 177 177 0 015.59-37.36c4.12-16.11 14.38-37.14 18.6-45.43a20.53 20.53 0 00-1.12 4 39.4 39.4 0 00.16 8.36s3.07-5.25 3.11-8.22c0-2.18-.18-5.35-.3-6.91l11.28 16.06s3-11.55-5.12-15a24.66 24.66 0 00-5.81-1.61 18.22 18.22 0 0112.09.58c6.6 2.51 10 9 10 9s2.7-12.59-7.11-15c-6.5-1.62-13.16 3.43-14.85 4.83 1.74-2 6.61-6.9 13.26-7.27 8.39-.47 12.24 5 12.24 5s-1.1-13.23-13-11.14c-4.76.85-8.25 4.8-10.57 8.37.41-.8.86-1.64 1.34-2.48a32.08 32.08 0 0110.19-10.26s-7.58-2.62-11.45 3.46a20.93 20.93 0 00-2.69 8.14c0-3.07-.48-6.38-2-8-3.41-3.72-8-1-8-1a13.29 13.29 0 015.37 2.93c1.52 1.34 2.6 5.27 3.26 8.38-1.41-3.57-3.83-7.84-7.62-9.51-9.13-4-11.74 7.17-11.74 7.17s3.67-3.74 10.33-1.78a11.28 11.28 0 015.92 4.18 12 12 0 00-7.31-2.67c-8.38.29-9.13 9.8-9.13 9.8a33 33 0 0110.48-3.73 18.1 18.1 0 017.63.29c-.85 0-1.92-.06-3.15-.07-9.25-.1-9.69 7.86-9.69 7.86l13.77-6.08c-3.29 5.7-14.14 25.28-21.11 47.25a186.58 186.58 0 00-8.2 41.45zm31-91.09z"/><path class="cls-7" d="M1341.87 925.81c-26.89-3.22-31 18.9-31 18.9s-27-25.3-40.07-26.05-30 20.71-30 20.71-6-27-12-27-9.35 10-9.35 10 3-28.72-17.7-29.05-26 24.37-26 24.37-9-3-10.69-3-3 13.35-3 13.35-7-26.38-21.37-24.37-22 20.7-22 20.7-6.68-7.35-10.68-7.35-12.36 9.69-12.36 9.69 4.34-20.37-10-22.71-26.37 13-26.37 13-7-16.26-10.36-15.14-11.35 16.81-11.35 16.81S1010 897 997 898.29 976.65 914 976.65 914s-13-10.35-20.7-8.68S938.58 916 938.58 916s1.67-19.7-17-22.37c-8.69-1.24-16.37 3.08-22.1 8l.42.06 3.5 32.56 2.73-31.16a40.51 40.51 0 0114.56 7.45s-5.8 20.27-5.26 20 9.28-16.14 9.28-16.14c9.18 10.2 13.33 25.07 13.33 25.07l-18.25 13.24h448.33s.97-23.65-26.25-26.9z"/><path class="cls-4" d="M1051.55 903.46a29.77 29.77 0 013 4.43c.67-4.77 1.56-9.9 2.74-15.36 3.86-17.84 14.27-41.32 18.56-50.58a21.87 21.87 0 00-1.07 4.44c-.42 3.38.51 9.17.51 9.17s3.15-5.89 3.09-9.15a98.62 98.62 0 00-.61-7.57l13 17.16s2.88-12.8-6.21-16.2a28.19 28.19 0 00-6.45-1.53 20.12 20.12 0 0113.29.15c7.34 2.49 11.35 9.43 11.35 9.43s2.45-13.93-8.4-16.2c-7.2-1.52-14.3 4.3-16.1 5.9 1.83-2.29 7-7.84 14.25-8.52 9.19-.86 13.64 5 13.64 5s-1.75-14.47-14.66-11.69c-5.19 1.12-8.86 5.61-11.26 9.61.42-.9.88-1.83 1.37-2.77 3.74-7.14 10.76-11.67 10.76-11.67s-8.35-2.51-12.35 4.3a22.9 22.9 0 00-2.63 9c-.16-3.37-.79-7-2.52-8.73-3.89-3.94-8.83-.71-8.83-.71a14.58 14.58 0 016 3c1.72 1.41 3.07 5.68 3.91 9.06-1.69-3.85-4.51-8.45-8.75-10.12-10.18-4-12.58 8.34-12.58 8.34s3.87-4.25 11.26-2.37a12.37 12.37 0 016.66 4.34 13.12 13.12 0 00-8.12-2.63c-9.18.66-9.62 11.13-9.62 11.13a36.48 36.48 0 0111.35-4.53 20 20 0 018.37 0c-.93 0-2.1 0-3.46.06-10.14.26-10.31 9-10.31 9l14.86-7.23c-3.37 6.39-14.48 28.3-21.23 52.69a230.76 230.76 0 00-2.81 11.35zm25.63-66.74z"/><path class="cls-7" d="M1029.08 710.81c-18.91-4.72-25.72 19.17-25.72 19.17s11.67-7.89 25.18-6.19c10.49 1.33 17.67 6.24 21.13 10a49 49 0 00-11.36-2.53c-17-1.6-22.26 20.85-22.26 20.85l33.75-17.14a164.33 164.33 0 00-6.77 11.49c-2.61 5.11-2.14 16.83-2.14 16.83s5.9-8.43 7.84-14.11a38.72 38.72 0 001.72-7.83c-.32 17.93-1.89 63.06-9.47 94.23a339.86 339.86 0 01-24.52 69.13 139.3 139.3 0 018.4 5.06 365.71 365.71 0 0021.09-72.5c8-43.75 7.29-86.94 6.85-99.62l18 22.84s6.46-14-9.39-22.18c-2.11-1.1-4-2-5.43-2.73a35.09 35.09 0 0113.26 6.4 63.88 63.88 0 0114.47 15.87s7.34-16.9-6.68-25c-4.59-2.65-10.07-2.78-14.86-2.07A21.74 21.74 0 011076 729c13.13 2.71 16 12.39 16 12.39s5.69-21.39-13.49-22.84c-8-.6-16 4.49-21.6 9.3 3.93-4.71 9.34-10.43 13.13-11.34a25.84 25.84 0 0111.82-.11s-5.34-8.88-14.51-5.65c-4.08 1.44-7.85 6.67-10.68 11.88 1.77-4.89 3.21-10.76 2.78-16.32-1.07-13.86-16.36-16.26-16.36-16.26s7.62 12.54 8.06 26.71c.06 1.87.06 3.7 0 5.43-.72-8.16-3.09-18.07-10.44-23.82-18.27-14.31-32.15 7.23-32.15 7.23s11.57-5.91 25.43 2.49c11 6.66 14.87 19.39 16 24.4-1.59-3.91-8.37-18.55-20.91-21.68zm23.31 21.19z"/><path d="M915.4 930.55c-.54.3 5.26-20 5.26-20a40.51 40.51 0 00-14.56-7.45l-2.73 31.16-3.5-32.56c-1.61-.26-3.29-.47-5-.62s-3.32-.18-4.92-.16l2.49 33.9-3.85-33.82a44 44 0 00-14.31 3l2.68 7.35-4.56-6.55a47.65 47.65 0 00-9.91 6.06l11.83 29.26-9-11.76-4.53-16.11a58.86 58.86 0 00-8.94 9.66l9.15 6.79-10.53-4.8c-2.58 3.78-10.32 12.34-10.32 12.34l25.2 16.51h54.36L938 939.48s-4.15-14.87-13.33-25.07c.01 0-8.67 15.85-9.27 16.14z" opacity=".1" fill="#fff"/><path class="cls-7" d="M880 902.24l-.89.23zM874 907.14l2.96 4.25-2.96-4.25zM876.12 903.36c-.62.22-1.24.44-1.84.68.6-.24 1.22-.46 1.84-.68zM876.94 903.1l1.07-.34zM910.48 724.57c14.2 1.06 24.52 11.58 24.52 11.58s-2-25.91-22.37-25c-13.51.6-23.5 14.19-26 17.87 2.21-4.91 8.83-17.15 21.48-21.69 16-5.72 26.58 2.75 26.58 2.75s-9.74-25-31.44-14.11c-8.73 4.36-13.22 14-15.65 22.25.33-1.79.72-3.66 1.17-5.56 3.39-14.43 13.82-25.7 13.82-25.7s-16.18-.72-20.16 13.26c-1.59 5.61-1.34 11.93-.54 17.3-1.82-5.92-4.6-12.07-8.48-14.39-8.73-5.23-16 2.77-16 2.77a26.76 26.76 0 0112.08 2.58c3.7 1.72 8.06 8.7 11.1 14.34-4.76-6.09-11.89-13-20.2-14-20-2.5-18.58 20.6-18.58 20.6s5-9.33 19-9.37a22.7 22.7 0 0113.83 4.69c-4.75-1.72-10.4-2.72-15.66-1-16 5.36-12 24.21-12 24.21a66.66 66.66 0 0118.13-13.25 36.91 36.91 0 0114.89-3.8c-1.65.43-3.73 1-6.13 1.67-18 5.12-14.24 20.78-14.24 20.78l23.16-19.67c-3.1 12.91-12.84 57-13.71 103.52a390.45 390.45 0 003.81 62.43h1a14.74 14.74 0 017.75 2.24l-.47.11 1.54-.32a366.86 366.86 0 01-8.15-65.16c-1.36-33.5 6.44-80.1 9.82-98.5a40.87 40.87 0 00.14 8.38c.8 6.22 5.1 16.1 5.1 16.1s2.92-11.92 1.3-17.7a173.4 173.4 0 00-4.54-13.19l31 24.59s-.73-24.1-18.47-26a51.4 51.4 0 00-12.18.22c4.34-3.12 12.72-6.66 23.75-5.83zm-26.15 3.52v.06z"/><path class="cls-4" d="M146.19 442.41a161.3 161.3 0 00-37.78 8c11.59-12.2 35.59-28.2 70.34-32.18 44.7-5.11 82.94 21.41 82.94 21.41s-21.58-79.21-84.24-64.32c-41.54 9.87-64.51 58-70 70.89 4-16.56 17.3-58.51 53.82-80.06 46.14-27.23 84.12-7.24 84.12-7.24s-45-71.71-106-25.15c-24.5 18.73-32.7 51.4-35.38 78.35 0-5.74.08-11.81.34-18 2-46.78 27.66-87.92 27.66-87.92s-50.64 7.34-54.69 53.08c-1.62 18.31 2.87 37.72 8.52 53.9-9.15-17.26-21.39-34.63-34.79-39.53C20.93 362.63 3 391.78 3 391.78s17.3-4.64 39 .83c12.46 3.14 30.11 22.18 42.9 37.86C66.49 414.41 40.29 397.32 14 399c-63.42 4.07-45.44 75-45.44 75s9.81-31.89 53.3-40.32A71.84 71.84 0 0167.6 440c-15.79-2.53-34-2.29-49.25 6.29-46.61 26.14-23 82.25-23 82.25S13.61 499 43.76 476.65c15.48-11.46 31.18-17.94 44.08-20.65a837.55 837.55 0 00-18.09 8.85c-52.66 26.53-31.87 72.91-31.87 72.91l63-78.2c4 47.86 11.69 163 .57 244.59-4 29.7-9.09 56.88-14.59 81.4 11.49 2.29 11.83 14.58 11.83 14.58s2.15-1.94 5.06-4.3a970.88 970.88 0 0011-88.64c6-76.57 2.09-151.46-2.56-202.78 7.09 18.65 24.24 43.75 24.24 43.75s2-38.71-6.43-55.7c-6.16-12.4-16.68-29.75-21.92-38.22l110.85 57.91s-16.54-74.4-72.74-69.74zm-46.5 2.26z"/><g class="cls-9"><path class="cls-10" d="M536.08 731.58l-.71-1s-2.88-3.93-6.24-3.93v-2c3.24 0 5.9 2.47 7.13 3.86 1.44-1.35 4.37-3.89 7-3.8v2c-2.09 0-5.32 2.93-6.29 4z"/></g><g class="cls-9"><path class="cls-10" d="M562.63 702l-.71-1s-2.92-4-6.24-4v-2c3.24 0 5.9 2.48 7.13 3.87 1.42-1.34 4.38-3.8 7-3.8h.08v2c-2.09 0-5.32 2.94-6.29 4z"/></g><g class="cls-9"><path class="cls-10" d="M1633.43 601.53l-.71-1s-2.88-3.93-6.24-3.93v-2c3.24 0 5.9 2.48 7.13 3.87 1.42-1.35 4.38-3.81 7-3.81h.08v2c-2.09 0-5.32 2.94-6.29 4z"/></g><g class="cls-9"><path class="cls-10" d="M1784.49 283.62l-.71-1s-2.88-3.93-6.25-3.93v-2c3.24 0 5.91 2.48 7.14 3.87 1.42-1.34 4.37-3.8 6.95-3.8h.09v2h-.05c-2.09 0-5.32 2.94-6.29 4z"/></g><g class="cls-9"><path class="cls-10" d="M516.18 666l-.71-1s-2.88-3.94-6.25-3.94v-2c3.25 0 5.91 2.47 7.14 3.86 1.42-1.34 4.37-3.8 6.95-3.8h.09v2h-.05c-2.09 0-5.32 2.93-6.29 4z"/></g><g class="cls-9"><path class="cls-10" d="M1680.87 618.4l-.71-1s-2.88-3.93-6.24-3.93v-2h.05c3.24 0 5.9 2.48 7.13 3.87 1.42-1.34 4.37-3.8 7-3.8h.08v2c-2.09 0-5.32 2.93-6.29 4z"/></g><g class="cls-9"><path class="cls-10" d="M1749.51 248.34l-.71-1s-2.88-3.94-6.25-3.94v-2c3.24 0 5.9 2.47 7.14 3.86 1.42-1.34 4.37-3.8 7-3.8h.09v2c-2.1 0-5.32 2.93-6.29 4z"/></g><g class="cls-9"><path class="cls-10" d="M213.05 277.58l-.71-1s-2.88-3.94-6.24-3.94v-2c3.24 0 5.9 2.47 7.13 3.86 1.42-1.34 4.37-3.8 7-3.8h.08v2c-2.09 0-5.32 2.93-6.29 4z"/></g><g class="cls-9"><path class="cls-10" d="M264.18 309.67l-.72-1s-2.87-3.93-6.24-3.93v-2c3.24 0 5.9 2.48 7.13 3.86 1.42-1.34 4.38-3.8 7-3.8h.08v2h-.05c-2.1 0-5.33 2.94-6.3 4z"/></g><path class="cls-3" d="M780.9 910.77l-.4.44zM779.49 912.37c-.13.15-.27.3-.39.46.12-.16.26-.31.39-.46zM782.13 909.52l.2-.19z"/><path class="cls-3" d="M950.82 866.53c-1.48-16.25-6.51-36.4-10.84-51.58-40 16.29-87.34 41.95-149.79 76a961.73 961.73 0 00-16.44 9.16l-2.87 10.17C774.81 906 781 900 784 900c1.4 0 4 1.28 6.9 3.07 10.29-5.79 21.69-7.09 27.84-7.33 4.56-5.43 9.95-10 15.35-10.43 13.69-1 19.7 24 19.7 24a24.25 24.25 0 0120-9.68 14.74 14.74 0 017.75 2.24 43.48 43.48 0 00-7.28 2.17l2.68 7.35-4.56-6.55a47.65 47.65 0 00-9.91 6.06l11.83 29.26-9-11.76-4.53-16.11a58.86 58.86 0 00-8.94 9.66l9.17 6.75-10.53-4.8c-2.58 3.78-10.32 12.34-10.32 12.34l25.17 16.48h54.43L938 939.48s-4.15-14.87-13.33-25.07c0 0-8.73 15.85-9.28 16.14s5.26-20 5.26-20a40.51 40.51 0 00-14.56-7.45l-2.73 31.16-3.5-32.56-.42-.06c5.73-5 13.41-9.29 22.1-8 18.7 2.67 17 22.37 17 22.37s6.41-6 12.93-9.08a266.47 266.47 0 00-.65-40.4zM785.68 906.46l-.15.11zM818.72 895.7z"/><path class="cls-7" d="M537.56 908a15.63 15.63 0 00-9.68-3.68c-5.68 0-12 14.36-12 14.36s-8.71-12.68-15.38-12.37-9.69 9.35-9.69 9.35-1-4.68-4.34-4.68-6 6.35-6 6.35-4.67-9.35-10-9.69-10.35 6.68-10.35 6.68-1.33-7.34-5.67-9.35-12.69 7-12.69 7 2.33-21.7-6.35-24.37-15 14.24-15 14.24-3-48-25.05-45.29-35.06 28-35.06 28-.66-8-11.35-8-13.69 10.35-13.69 10.35-4-18.7-17-21a20.12 20.12 0 00-19.7 7s-5.34-9.35-9.35-10-15.3 8-15.3 8 9.62-16.69-8.74-19-14.36 11-14.36 11-16.44-13.36-24.81-13.36-13.35 11-13.35 11-2-2.67-8.69-3-11.35 5.34-11.35 5.34 8.68-17.36-5.34-20-30 7.34-30 7.34 9-9.35-10-11.69-24 7.68-24 7.68-13-31.38-28.05-32.38C82.26 813 78 831.69 77 837.08c1.14-7.88 4.87-45.49-28.62-45.24-37.4.27-42.74 32-42.74 32s1.67-25.37-17-30.38-35.39 21.7-35.39 21.7l-45.75 21.71 88.9 115.86h519.89a584.45 584.45 0 0145.06-71.65C545.89 883 537.56 908 537.56 908zM717.91 916.21a17.17 17.17 0 00-2.38.12c-10.68 1.33-17 16-17 16a6.45 6.45 0 00-6.34-5.34c-5.68-.33-10.35 7.68-10.35 7.68s3.34-14-5.68-15.69-20 7.68-20 7.68-9-26.94-20.71-28.16-18.69 15.8-18.69 15.8-1.4-8.66-11.76-9.3-17.36 8-17.36 8S583 893.55 573 885a538.82 538.82 0 00-37.85 67.77h163.12a138.23 138.23 0 0127.36-8.43 40.18 40.18 0 0120.47 1.25c-9.16-5.59-21.02-15.01-28.19-29.38z"/><g opacity=".3"><path class="cls-10" d="M1799.21 896.39l-2.77-1.37zM1806.15 899.66l3 1.36zM1796.26 894.93l-2.81-1.44zM1793.32 893.07c5.27-11.9 14-23.72 28-34.48a7.66 7.66 0 012.72.48 70.21 70.21 0 00-38.92-5 60.26 60.26 0 00-19.6 11.27 58.42 58.42 0 00-5.24 5.16c4.79 6.07 17 14.59 32.87 22.89l.17-.32zM1806.15 899.66l-3-1.4c.97.47 1.98.94 3 1.4zM1816 903.92l-2.8-1.17zM1819.15 905.18l-2.93-1.17zM1858.66 906a63.77 63.77 0 00-3.74-19.6 69.09 69.09 0 00-26.21-25.06 64.98 64.98 0 00-3.64-1.82 7.69 7.69 0 012.85 2.74c.41 16.93-2.9 31-8.38 42.75 0 .09-.08.18-.13.27 16.72 6.55 31.13 10.13 38.86 9.75a64.07 64.07 0 00.39-9.03zM1809.78 901.28l2.9 1.26zM1802.55 898c-1-.45-1.93-.91-2.87-1.37l2.87 1.37z"/></g><path class="cls-3" d="M1351.26 928.08zM2636.64 680.27c-200.12 14.7-264.45 190.05-351.8 188.91s-165.37-84.13-325.08-70c-75.31 6.67-123.83 30.34-163.73 54a69.45 69.45 0 0128 5.87 7.66 7.66 0 00-2.72-.48c-14 10.76-22.77 22.58-28 34.48 0 .09-.09.19-.13.28-13.5-7-24.28-14.23-30.17-20-30.26 18.46-58.21 33.5-94.27 35.39-92.09 4.82-113.62-65.83-230.31-63.38-28.39.6-48.77 4.67-66.14 9.79a12.24 12.24 0 011.06 2.2 8.94 8.94 0 00-3.12-1.58c-1.7.52-3.37 1-5 1.58h.06c7.45 0 7.72 9.52 7.72 9.52a15.64 15.64 0 00-8.74-4.66 13.55 13.55 0 00-8.77 1.7 19 19 0 014.45.13c6.44 1 6.28 9.82 6.28 9.82l-10.88-9.53c.35 1.1 1.07 3.33 1.42 4.9.49 2.14-.79 6.43-.79 6.43a29.35 29.35 0 01-1.58-6 15.25 15.25 0 01.1-3.06c-1.56 6.67-5.23 23.52-5.36 35.78a132.46 132.46 0 002.13 25.64c17.57 6.84 16.83 24.64 16.83 24.64h1513.25v-218.2s-41.21-69.11-244.71-54.17zM1858.27 915c-7.73.38-22.14-3.2-38.86-9.75 0-.09.09-.18.13-.27 5.48-11.75 8.79-25.82 8.38-42.75a7.69 7.69 0 00-2.85-2.74c1.21.56 2.42 1.16 3.64 1.82a69.09 69.09 0 0126.21 25.06 62.76 62.76 0 013.35 28.63z"/><g class="cls-9"><path class="cls-10" d="M-7.8 1039.27a783.08 783.08 0 01122.16-6.22 800.6 800.6 0 01121.71 12.61q7.53 1.36 15 2.85l7.51 1.49 3.75.73 3.77.65 15.1 2.62 15.16 1.89 1.89.23 1.91.14 3.81.27 7.61.54c2.54.25 5.09.22 7.63.27l7.64.12c2.54.11 5.08-.08 7.63-.15l7.63-.27c1.27 0 2.54-.13 3.81-.24l3.81-.3 7.61-.61c5.07-.51 10.13-1.12 15.2-1.67l15.17-2 30.33-4.08 7.59-1 7.6-.92 15.21-1.8 15.23-1.56 7.61-.78 7.63-.64c40.68-3.52 81.5-5.25 122.32-5.86s81.67-.09 122.44 2.14c20.39 1.1 40.75 2.6 61.09 4.21s40.67 3.27 61 4.42 40.74 1.59 61.12 1.63l15.29-.23 7.64-.11 7.64-.27 15.28-.56 3.82-.14 3.82-.22 7.63-.45c20.35-1 40.7-2.72 61.09-3.74s40.81-1.7 61.23-1.8 40.84.17 61.24 1.17 40.77 2.7 61.07 4.85 40.54 4.8 60.83 6.69c10.15.91 20.31 1.71 30.48 2 5.09.19 10.19.2 15.29.3l7.64.13H1349.81l15.29-.26 15.28-.52 15.27-.76c20.35-1.16 40.65-3.12 61-5.21s40.6-4.18 60.95-5.84 40.72-2.88 61.1-3.9c40.77-2 81.58-3.28 122.41-2.95a1569.81 1569.81 0 01243.76 20.63 1568.59 1568.59 0 00-243.77-19.65c-40.8-.22-81.59 1.15-122.34 3.23-20.37 1.07-40.73 2.28-61 4s-40.61 3.84-60.9 6-40.62 4.15-61 5.35l-15.3.79-15.31.53-15.31.27c-5.1.09-10.21 0-15.31 0h-7.66l-7.66-.12c-5.1-.1-10.2-.1-15.31-.29-10.22-.26-20.42-1-30.59-2-20.35-1.87-40.58-4.52-60.86-6.64s-40.61-3.82-61-4.8-40.75-1.27-61.14-1.12-40.77.77-61.13 1.84-40.7 2.77-61.1 3.79l-7.64.43-3.82.21-3.83.14-15.31.55-7.65.27-7.66.11-15.31.21c-20.42-.06-40.85-.45-61.24-1.67s-40.73-2.82-61.07-4.47-40.67-3.15-61-4.26c-40.72-2.25-81.53-2.74-122.32-2.22l-30.58.65c-5.1.07-10.2.3-15.29.51l-15.28.62c-10.2.31-20.37 1-30.55 1.63s-20.42 1.52-30.63 2.32l-7.62.62-7.61.76-15.21 1.53-15.2 1.76-7.59.9-7.59 1-30.34 4-15.19 1.93c-5.08.54-10.15 1.15-15.23 1.64l-7.64.6-3.78.26c-1.27.11-2.55.21-3.83.23l-7.66.26c-2.55.06-5.11.24-7.66.13l-7.67-.14c-2.55-.06-5.11 0-7.66-.28l-7.64-.56-3.83-.28-1.91-.15-1.9-.24-15.2-1.93-15.1-2.64-3.77-.66-3.75-.75-7.51-1.5q-7.5-1.5-15-2.89a797.24 797.24 0 00-121.54-13.08 781.66 781.66 0 00-122.17 5.75z"/></g><path class="cls-15" d="M-26.69 1058.1c77.62-28.83 126.49-20.41 157.12-6.73 28.26 12.62 34.86 27 67.18 38.11 45.34 15.6 69.24 0 129.1-4.6 103.4-8 118.5 31.87 208.88 15.66 47.51-8.52 42.86-19.44 96.09-32 73.63-17.34 104.06-1.49 201.55 2.06 116.19 4.23 119.2-16.58 260-13.76 61.16 1.23 70.2 5.35 142.4 9.63 131.61 7.81 223.4 1.36 289.6-1.37 99.1-4.09 243.85-4.08 437.43 15.37"/><path class="cls-15" d="M-33.84 1075.45c13.89-6.72 52.76-23.23 102.81-15.14a173.62 173.62 0 0185.3 39.9M-12.68 1032.93c26.71-2.64 66.42-5.86 114.67-7 94.37-2.26 148.28 5.14 220.82 8.25 83.33 3.58 71.94-3.6 226.34-6.39 117.4-2.12 117.69 2 319.85 2.26 125.43.14 131.77-1.46 211.88 0 114.42 2.07 125.32 5.76 215.3 6.89 23.41.3 34.54.2 258-5.64 142.35-3.72 195.94-5.19 275.83-.55 50 2.91 91.22 7.11 119 10.32"/></g></g></svg>