<svg xmlns="http://www.w3.org/2000/svg" xmlns:xlink="http://www.w3.org/1999/xlink" width="1920" height="1080" viewBox="0 0 1920 1080"><defs><path fill="#ffcca6" d="M1877.01 155.15l25.9-62.5h-4.48l-21.42 62.5zM1927.02 76.24l-7.61-78.51 3.69 82.82 26.48 6.22-22.56-10.53zM1865.24 345.87l6.65 28.4 4.26.88-2.15-27.59-8.76-1.69zM1866.75 439.23l7.89-50.41-3.86-1.26-4.03 51.67zM1724.19 731.82l30.97-45.41-2.94-11.56-28.03 56.97z" id="reuse-144"/><path fill="#ffcca6" d="M1727.74 662.5l-30.21 93.6 40.32-92.27-10.11-1.33zM1737.85 653.42l33.1-33.01-37.46 33.01h4.36zM1792.87 617.6l9.84-36.83-14.21 35.92 4.37.91zM1843.88 519.76l20.57-61.34h-3.68l-16.89 61.34zM1892.41 91.85l-2.2-.29-17.26-2.33-2.03 39.06-1.28 36 13.47 8.89-5.08 58.5-10.83 62.12-11.51 34.01-17.61 12.71v21.77l8.12 6.33-8.12 4.55v33.55l14.22 45.35 17.02 5.23h2.27l-15.39-8.41-11.52-43.53 1.63-1.58 3.79 11.56-2.8-40.07 2.62-5.88-10.13-8 3.39-19.9 20.27-12.59 5.95-33.96 11.21-62.58 2.5-7.94-6.61 63.51 1.53-2.15 11.53-80.25v-30.2l-18.47-11.68 21.32-71.8zM1900.88-29.53l-10.03 114 17.9 7.09-4.07-121.09h-3.8z" id="reuse-143"/><path fill="#ffcca6" d="M1838.06 539.17l.02-13.63 18.12-67.12h-5.79l-19.76 66.22v13.5l-35.89 18.23-1.89 9.3-25.53 51.02h-21.32l-56.87 31.29-34.59 174.8-21.6 7.51-19.62 18.14 12.18 8.16-18.53-1.59-9.07 8.28-13.01 10.54 38.2 3.03 32.24-25.77-11.13-1.41-5.5-4.2 16.92-10.2 19.62-16.5 11.01-73.98-1.34-3.15-13.39 59.4-1.68.46 28.31-148.99 10.38 5.21 51.16-38.99 15.41-.79 24.68-50.99 6.46 1.2 3.22-3.38 35.04 2.73 1.79-2.73-36.98-6.36 28.73-19.24z" id="reuse-142"/><path d="M1988.71 156.85l-3.58 60.41-5.3 13.39 10.42-11.84zm-83.57 54.93l4.39 74v-72.2zM1955 458.37l-25.63 60.1h7.63l19.25-60.1zm-64.75 88.06l-2 58.91 4.23 9.76zm-88.85 137.25l-15.74 94.23 22.12-97.6c.35-1.76-6.42 3.37-6.42 3.37zm32.87 119.39l-4.61 22 31.65-55.1zm154.52-832.6h-18.53l23.6 79.94 3-6.94zm-30 160.75l-23.48-4.73 15.5 75.91 9.48 4.08zm43.13-160.75l5.59 74.81-8.51 53.13 4.24 4.74-28.63 15.34 1 16.09 18.1 12.11 3 74.1-14.68 22.06 2 38.45-5.91 11.89-15.41 31-12-8.62-2.34-46.26 2.34-39.07-34-13.65-2.28 74.31 4.07 5.45-10.66 57.65 30.2 81.74-.37-2.18 5.69-16.86v-42.17l13.87 10.47 17.07 43.37.18 1.31-11.84 28.79-17.26 60.7 11.84.85 4.37 77.08-9.41 16.9-29.4 29.08-6.17-5.63-3.54-27 7.87-20.93-5.94-51.38-2.53-21.66-27.36-1.6 8.54 23.3 4.78 78.59-13.32 26.51-63.59 31.63-32.87 121.36-22.85 33.6-43.89 1.13-37.82 44.89-20.09 8.49 22 1.62 6.27 1-3.37 7.58 22.83 1.71 3.79-1.71 15 .71 27.12-14.89 46.78-56.93 7.44 3.79L1844.74 678l22.53 3 6.07 87.62-50.34 86.85 19.88 1.35-44.52 20.42-36 12.24-10.17 11.52H1769l22.34 2.2 4.57 1.89-.89 2.84-9.77 9.2h51.79l40.29 3.43h-15.58l30.23 4.95 3.75 2.48-14.68 4.81-3.72 4.52h62l12.19 2.72 5-1.36h19l16.67 5-3.47 4.52-9.14 5.89h24l13.73-1.74 16.91-.45 2.1 1.71-11.71 11.39v3.19h28.08V-29.53zm-89.36 446.24l-10.11 60.7 26.89-19z" fill="url(#aQ)" id="reuse-141"/><path d="M1962.65 458.42h-112.24l-9.26 31.03 211.54 27.02v-65.31h-66.09l-23.95 7.26zM1916.11 188.82l60.93 15.65-93.93-31.29-2.5 28.74 172.08 69.44v-33.55l-143.18-43.54 6.6-5.45zM1894.28 118.31l158.41 31.75V124.2l-161.12-11.78 2.71 5.89zM1838.08 340.52l214.61 41.49v-26.52l-197-27.68-17.61 12.71zM1838.08 373.17l214.61 48.97v-10.88l-206.49-42.64-8.12 4.55zM1834.64 511.25l200.78 14.29-196.51-28.58-4.27 14.29zM1794.76 556.37l-1.89 9.3 259.82 48.31v-44.91l-222.04-30.93-35.89 18.23zM1767.34 616.69h-21.32l278.23 41.5-256.91-41.5zM1867.2 735.96l17.94-52.6-157.4-20.86-19.97 63.03 1.69-67.34-20.31-10.21-19.29 97.51 112.38 43.08 34.86-19.05 4.44 16.77 189.17 29.37h41.98v-18.02l-148.6-19.51 128.29 7.71 6.77-9.97-79.21-12.24h92.75v-59.41l-160.7-20.86-24.79 52.6zM2029.67 105.61L1891.83 73.2l-.98 11.27 23.93 10.37 114.89 10.77z" id="reuse-140"/><path d="M2052.69-29.53v997.69h-28.09V965l11.74-11.37-2.09-1.71-16.92.46-13.73 1.74h-24l9.14-5.9 3.47-4.52-16.67-5h-19l-5.04 1.3-12.19-2.73h-62l3.72-4.52 14.68-4.81-3.71-2.44-30.22-5h15.57l-40.29-3.43h-51.79l9.77-9.19.89-2.84-4.56-1.9L1769 901h-19.46l1-4.48-3-.5-17-.78-15-.71-3.79 1.71-22.86-1.64 3.37-7.57-6.27-1-21.99-1.63-24-1.71h24l-16.31-2.58c-8.18-1.28-16.43-2.59-16.79-2.62l-46-3.64 16.75-12.93 5.59-4.3h18.28l-12.19-8.16 19.6-18.14 21.6-7.51L1689.12 648l56.9-31.25h21.32l25.53-51 1.9-9.31 35.88-18.23v-13.57l19.76-66.22H1873l-3.64-1.12-17-5.23-14.21-45.35v-33.55l8.12-4.55-8.12-6.33v-21.78l17.6-12.71 11.52-34 10.73-62.13 5.06-58.5-13.47-8.9 1.27-36 2-39 17.26 2.32 2.2.29 24.88 3.32-26.41-10.69 10-114z" fill="url(#aP)" id="reuse-139"/><path fill="#fff5e0" d="M1852 1025.73h70.29l-25.09 1.8-45.2-1.8z" id="reuse-138"/><path fill="#ff9c7d" d="M79.51 443.91l17.38 86.44 17.59 10.15-12.62-11.22-22.35-85.37zM204.47 642.47l4.14-1.31-31.57-44.65 27.43 45.96z" id="reuse-137"/><path fill="#ff9c7d" d="M147.68 535.71l-38.5-8.26-27.02-110.74-14.17-100.22-10.82-30.17-17.1-104.68 5.99-211.17H34.35l-2.16 211.88 1.08-.11 4.18-162.47 2.22-.65-2.44 163.23L53.25 285.5l6.8 30.63 2.19.09 17.88 100.62 25.71 111.39 25.91 16.36 15.19 7.02 72.1 86.25 3.01-.95-64.93-88.35-9.43-12.85zM48.07 315.6l4.4-.75-10.96-31.75 6.56 32.5zM29.34 91.56V-29.53h-4.43l4.43 121.09z" id="reuse-136"/><path fill="url(#aO)" d="M249.48 622.58h-2.1v70.76l7.12-3.64-5.02-67.12z" id="reuse-135"/><path fill="url(#aN)" d="M29.04 332.73l4.43 5.07 10.32 81.68 18.45 87.01 5.75 3.41-12.39-91.27-7.53-103.03-16.83-.75H21.08l11.06 107.29-3.1-89.41z" id="reuse-134"/><path d="M263.83 901.93l-62.66-25.74-6.95-16.39.38.42 2.86-5.61h14.4l34 10.83-17.96-10.83 3.44-4.6 24.34 7.48 3.13-2.84 22.76 4.93-11.3-8.69-8.41-26.72-4.71-92.7 1.65-3.65 3.08 40.39v-67.47l-14.48 2.18L249.61 834l-16.06-13v-45.13l3-6.81-6.14-129.24s-6.2-5.12-8.41-2.91l-3.54 33.74 6.92 143.29-7.4-1.8-6.3-118.79-1.44 4 1.24 113.22-2.75 3.4L190 796.6l-6.07-55-24.38-84.86v-19.58L140 599.06h-5l-11.81-49.68-34.29 19.1 11.25 102.79L157 735.06v52.59l-4.57-20.83-9.12 85.6-26.43-10.85-29.3-153.4-4.53 7.48-3.52 17.14-.43 98.9-22.19-31.83-7.72-68.38 14.36 28.11L68 745 43.79 595.61 27 602.94l4.62-47.71-58.1 4.65 59-14.34v-41.2l-19.4-6-13.49-75.73-19.71 1.23L-1 415.78l-3.3-39 10.36-63.06-21-50.07 4 92.51-1.56-3.07-8.66-117.33 7.46-14.06 8-10.89-.76-11.51L-94 209.59l-1.56-2.73L-7 191.93v-.74h-54.26l53.83-5.25-2.92-44.14-7.41-13.54-59.24-1.61 2.65-2.45 53-2.55-24.56-45.07 4.71-14.06 5.31 9.48 8.22-58.93h-45.74l46.35-4.13 5.36-38.5h-83.83v1034.67l23.9-12.93H6.91L-4.6 980.62H-13l-20.81-14.2 35.45-8.53h84.51L76 947.34l-23.2-9.83 2.2-1.06 36.74-1.14-5.61-5.49H62.24L67 926l73.19-8.66h29.32l11.39-2.75-9-2.2 23.57-2.31 66.38-3.4 3.56-4.11h-.05zM-7.84 430.77l12.36 76.9c-.87-3.79-14.75-64.73-15.58-63.86zm-28.63-79.37l6.78 34.47 4.41 23.57-4.41 15.37-9.13.52zm-20.37 570L-75 854.61l12-4.6 11.81 10.88 1.88 58.11zm21.26-407.59l-17.71-33.57V469.3l8-5 14.75 48.08zm10.32 280.46l-7.67-163.97 5.31-7.49 10 36.74zm20.94 52.54L2 718.71l-7.83 91.85L-.17 663l13.28-3.4 5.31 16.31 5.75 139.39zm42.44-228l13.06 72.47-14.83-45-1.1-23.48zm-2.87 211.1l13.93-15 35.35 39.77z" fill="url(#aM)" id="reuse-133"/><path d="M175.85 574.06l-9.24-12.58-125.84 52.83 135.08-40.25zM241.07 595.61l-1.32 18.7 11.95-11.22-10.63-7.48zM273.39 680.64l-161.13 42.63L273.39 699l4.6-6.12-4.6-12.24zM-30.57 769.06l23.61-20.41 56.07-17.22-21.84-8.16-132.8 21.3v91.84l101.82-42.85h15.04l221.33-66.67-248.18 43.99-15.05-1.82z" id="reuse-132"/><path d="M41.51 131.01l-147.04-6.85v70.58l145.6-13.1 1.44-50.63zM-94.02 115.13l135.53 5.9.68-14.07-136.21 3.18v4.99zM-81.62 304.24l-1.77 5.89 43.67 14.06 15.93-11.79 91.78 4.09-10.81-30.18-162.71-33.32v42.09l114.5 14.6-90.59-5.44zM-68.78 240.52l121.25 17.02-1.89-11.57-118.48-7.15-.88 1.7zM-105.53 207.65v8.16l114.8-18.37-114.8 10.21zM39.67 265.98l-88.76-15.59 81.01 18.7 7.75-3.11zM55.6 497.43l-124.38 2.72-4.88-7.71L55.6 466.13l41.29 10.94-14.73-60.36-187.69 13.6v91.61l163.79-20.86-2.66-3.63zM1.63 638.92l-41.05-14.52 18.29-12.7h32.46l136.35-75.99-38.5-8.26-214.71 50.69v92.52L5.43 648.89l-3.8-9.97zM-27.62 701.5l180.31-42.63 69.35-21.96-21.7-29.52-54.43 39.69-173.53 54.42z" id="reuse-131"/><path d="M296.41 901.93h-34.83l3.79.63h.05l18 3-21.57 1.11-66.38 3.4-23.56 2.31 8.94 2.21-11.41 2.71h-29.28L67 926l-4.73 3.84h23.88l5.61 5.49L55 936.45l-2.24 1.06L76 947.34l10.19 10.51H1.63l-35.45 8.52 20.82 14.2h8.4l11.51 11.56h-88.54l-23.9 13V-29.53H46.06l-6 211.16 17.1 104.68L68 316.48 82.15 416.7l27 110.79 38.53 8.22 9.43 12.85L222 636.91c2.2-2.21 8.41 2.91 8.41 2.91l4.87-37.42 5.75-6.79 10.63 7.48 1.31-1.47 5.33-6 15.05 25.16v59.87L278 692.9l-4.6 6.12 6.2 6.11 2.76 82.08.21 3 .59 7.86 3.52 47.62L297 857.08h-10.63l16.82 7.21 10.62 11.37 3.26-2.29 7.12 4.81 12.36 8.36h5.32l3.54 9.06z" fill="url(#aL)" id="reuse-130"/><path fill="#ff9c7d" d="M693.65 693.34l-1.21 5.66 8.36-6.12-8.36-12.24v-59.87l-27.3-25.16 17.26 26.97-4.41 60.16 6.42-24.78 2.01 6.34-2.37 17.56 9.6 11.48zM647.87 606.14l5.22-3.05-19.28-7.48 14.06 10.53zM708.78 786.07l-5.09-80.94-8.76-4.78 4.38 5.67-7.4 91.16 24.63 48.53-7.76-59.64z" id="reuse-129"/><path fill="#29361f" d="M1605.32 884.57l44.17-6.47 9.24 3.24-18.87 3.23h-34.54zM1643.27 871l-16.19-7.82-31.38 5.82 29.76-17.39h39.91s11.24-1.82 12.85 2.26 20.61 3.18 1.6 8.62-36.55 8.51-36.55 8.51zM1613.69 877.88l-20.61 3.97-28.7 5.98 20-11.54 29.31 1.59z" id="reuse-128"/><path d="M1659.64 844.07L1718 837l-8.39 5.08-17.27 4.42-.81 4.42h14l58.64 8.84 40.16-8.52h17.28l-24.09 8.52-4.42 1.7 20.48 3.79 26.91-4.74 25.3 1 34.8-5.1 37.35-2.5-41.23 9.64-28.91 9.53-30.93 3.4-3.21 4.42s91.16-3.06 92.37-4.08 47.79-6.47 49-6.47 29.52-1.35 29.52-1.35l27.31-7 73.09-2.38-56.47 11.38 32.94.68 94.77 11.57 41.77-7.83 17.67.69 31.72-3.79 22.09-12.24v88.06l-32.13-13.85-22.49 6-11.82-1.95-87.41 9.77h-23.3l38.56-13.85h-60.24l-26.91 4.08-28.52-8.15-19.18-1.47L2124.78 905l-76.3 7.06-35.34-1.36-36.94 7.82-13.26-2h-45.37l44.18-9.86-32.18-1.57-28.11 4.31-30.12-1.71-41.34 3.07 32.93-8.16-31.73-2.39-11.61 2-10-4.08-56.63 3.4 26.51-5.45L1767 889l-15.67 3.57-6.42-3.91-66.34 5.79 44.18-12.26-32.93-7.48-9.24 4.08-24-7.82h-13.3l20.07-16.32-37.89-3.06z" fill="#42401f" id="reuse-127"/><path fill="#29361f" d="M1675.55 894.57h-17.27l-35.54 9.18 33.53-1.7 32.33-7.48h-13.05zM1747.37 853.14l74-9.24 49.8 1.69 31.32-11.9 21.69-2.05 8.43-8.16v33.67s-134.53 17.35-136.54 16.67-36.55-12.93-39.76-13.6-8.94-7.08-8.94-7.08zM1764.71 843.9l49.79-6.81-21.68-3.4-28.11 10.21z" id="reuse-126"/><path fill="url(#aK)" d="M1800.24 985.85h-33.93l7.84-3.03 3.21.88 6.62-1.37 5.62-.81 10.64 4.33z" id="reuse-125"/><path fill="url(#aJ)" d="M1932.57 977.22v8.63h-91.56l8.83-6.37h67.73l15-2.26z" id="reuse-124"/><path fill="url(#aI)" d="M1932.57 1025.73v3.18l-35.37-1.38-45.2-1.8h80.57z" id="reuse-123"/><path fill="url(#aH)" d="M1842.88 1068.33l-159.24 16-80.05 16.63h328.98v-63.88l-83.79 22.53-5.9 8.72z" id="reuse-122"/><path fill="url(#aG)" d="M1932.57 989.47v29.92h-104.54l14.04-9.98h12.85l11.24-6.8h5.92l7.48-7.25 53.01-5.89z" id="reuse-121"/><path fill="url(#aF)" d="M1727.34 968.16v4.65h-48.96l9.22-4.65.42-1.55 12.43-6.18 14.04 3.87 12.85 3.86z" id="reuse-120"/><path d="M1601.27 934h-24.93l3-3.38 7.65 1.53z" fill="url(#aE)" id="reuse-119"/><path fill="url(#aD)" d="M1866.16 968.16h-32.64l11.76-7.73h13.69l7.19 7.73z" id="reuse-118"/><path fill="url(#aC)" d="M629.8 919.04l19.69 1.67-4.69 2.99h-39.1l7.23-4.66h16.87z" id="reuse-117"/><path fill="url(#ay)" d="M440.24 943.89l18.06 12.24h-45.37l7.65-11.24h10.41l9.25-1z" id="reuse-116"/><path fill="url(#ax)" d="M412.13 990.5l8.45 4.4h-34.95l9.12-4.4h17.38z" id="reuse-115"/><path fill="url(#aw)" d="M320.98 977.54l18.86 14.64v2.72h-80.32l16.49-7.83 3.21-7.13 41.76-2.4z" id="reuse-114"/><path fill="url(#az)" d="M238.9 1025.3l12.85 9.96h-148.3l40.16-7.25 14.97-9.98 11.79-10.42h48.19l20.34 17.69z" id="reuse-113"/><path fill="#29361f" d="M326.72 869.97l-50.88-7.26-6.41 2.73-8.3-5.9h-4.82l-35.07-10.65v4.07l9.1 8.84-4.82 3.86-28.91-14.06-3.75 15.87-6.96-.45 7.49 9.75 91.57 5.66 100.39-3.84-58.63-8.62zM340.65 854.61l29.31-7.14-20.08-2.73-9.23 4.15v5.72zM514.88 887.34l31.14 4.45-23.4-7.75-8.48.65.74 2.65z" id="reuse-112"/><path fill="url(#aA)" d="M684.8 923.7h-79.1l7.23-4.66h16.87l19.69 1.67 35.31 2.99z" id="reuse-111"/><path fill="url(#az)" d="M251.75 1035.26h-148.3l40.16-7.25 14.97-9.98 11.79-10.42h48.19l20.34 17.69 12.85 9.96z" id="reuse-110"/><path fill="url(#ay)" d="M458.3 956.13h-45.37l7.65-11.24h10.41l9.25-1 18.06 12.24z" id="reuse-109"/><path fill="url(#ax)" d="M420.58 994.9h-34.95l9.12-4.4h17.38l8.45 4.4z" id="reuse-108"/><path fill="url(#aw)" d="M339.84 992.18v2.72h-80.32l16.49-7.83 3.21-7.13 41.76-2.4 18.86 14.64z" id="reuse-107"/><path fill="url(#av)" d="M245.87 1100.96H4.91v-88.37l35.34 27.21h16.07l7.48 9.98 42.86 8.16 41.77 28.11h66.37l31.07 14.91z" id="reuse-106"/><path d="M540.32 908.65l-.29.05a.15.15 0 00-.13-.05z" fill="url(#au)" id="reuse-105"/><path d="M727.78 925.11v.25l-31 .22c5.27-.09 17.61-.25 31-.47z" fill="url(#at)" id="reuse-104"/><path fill="url(#as)" d="M718.15 932.95l9.64.05v1.01l-2.38 1.17h-.04l-7.22-2.23z" id="reuse-103"/><path fill="url(#ar)" d="M1494.41 1069.02h-25.54l-.99-1.2 26.53 1.2z" id="reuse-102"/><path fill="#bd8054" opacity=".36" style="isolation:isolate" d="M1143.97 965.68l199.54 6.45 3.41 9.49-188.5-12.84-14.45-3.1zM1079.01 887.15l-69.4-.92-18.25-.24-6.01-15.35-.96-2.45 381.26 1.96-17.83-6.89h123.11l-74.21 5.91h136.15l4.43 8.68-344.72-4.03 33.41 5.12-167.16-.84-17.67-.09 18.31.35.06.03 187.37 3.73h.03l21.66 3.32 10.22 4.41-199.68-2.7h-.12zM1305.28 901.31h12.85l.93 2.55-229.71-6.59h206.61l9.32 4.04zM1332.04 940.13l5.66 15.73-215.49-8.22h-.03l-58.53-2.24-4.63-4.15-20.27-18.23-3.34-3.02 71.64.57 218.6 1.74 1.64 4.57h235.17l.64 1.31-233.5 5.08.16.47-251.21-6.29 253.49 12.68zM1432.86 998.14l-3.86-1.74 170.25 2.39 2.25 4.36-81 .59v-2.77l-87.64-2.83zM1455.64 1053.24l-69.66-4.79h-.03l-124.72-8.54 139.98 5.91 49.96 2.09 4.47 5.33zM1494.41 1069.02l6.59 7.78-61.2-5.66-34.73-6.15 62.81 2.83 26.53 1.2zM1441.95 1036.94l-263.29-7.87h-.12l-85.98-2.55-.61-11.7-.03-.43-.71-13.42-.25-4.62 42.5 1.3h.03l235.82 7.15-14.04.12.06.19 73.64 16.32 6.27 7.48h179.43l2.02 3.95-175.09 3.65.35.43z" id="reuse-101"/><path fill="url(#aq)" d="M1724.23 1030.6l-6.37.14-30.49.63-70.68 1.49-175.09 3.65.35.43 9.22 10.97 4.47 5.33 12.24 14.58 26.53 1.2 6.59 7.78.03.03 20.53 24.13h-37.84l-2.93-16.64-20.75-3.22-65.48-10.12-36.95-12.24h-83.53l-77.1-6.29-30.52-9.14v-8.46l-33-4.44h-.25l-3.7-.54-36.95-3.35-.61-11.7-.03-.43-.45-8.98-.26-4.44-.25-4.62-17.51-14.67-9.8-8.22V945.4l-4.63-4.15-20.27-18.23-3.34-3.02-3.89-3.49-8.58-11.83-9.83-13.61-3.5-4.84-.19-.24h-18.06l-6.04-15.35-2.89-7.38h689.36l5.08 16.19-77.98-.9-48.57-.56-13.02-.14-344.72-4.03 33.41 5.12h.03l20.88 3.18h.03l21.66 3.32 10.22 4.41 17.15 7.42 9.32 4.04h12.85l.93 2.55 6.59 18.45 1.64 4.57h295.44l-28.17.63-31.43.68h-.03l-233.5 5.08.16.47 2.28 6.39 5.66 15.73 5.81 16.27 3.41 9.49 4.91 13.7 77.17 1.08 170.25 2.39 59.75.84 52.34.74 3.44.06.57 1.93h-2.21l-51.37.38-60.27.41-81 .59-151 1.06h-.19l-14.04.12.06.19 73.64 16.32 6.27 7.48h288.44l.55 1.69z" id="reuse-100"/><path d="M1274.64 1071.67l-353.46-2c.61 1 1 1.57 1 1.57l5 5.83zM1178.62 1029.05h.09c-3.27 0-210.27 6.31-277.87 8.38l3.31 5.16 187.08 2.62v2.4L909 1050.26c1.28 2 2.47 3.94 3.6 5.73l396.29 5.78 126.39-21.88s-263.8-10.47-256.66-10.84zM1142.92 1013.19l-20-32.89-227.43 6.36 129.57 3.2 8.58 5.55L874.7 998c.26.37.55.75.81 1.15 1.6 2.3 3.24 4.74 4.88 7.18.45.62.87 1.27 1.28 1.89s.71 1 1 1.54c2.54 3.79 5.08 7.57 7.58 11.45zM793.41 955.99l317.38-17.61 23.55 19.07-332.2 6.85-8.73-8.31zM1114.06 922.44l-75.31.58-257 1.89h-.1l-53.85.41-31 .22c5.24-.09 17.58-.25 31-.47v-3.78l5.53-1.5h-39.15v-.73l43.53-.46 16.55-4.49h.06l192.38-1.3-20.82-3.26-141.36-3.49 5-1.38h258.08l59.47 15.89zM996.81 939.86l-245.46 3.25 21.59 6.61 223.87-9.86zM1088.29 891.35l-75.18-.28-225.28-.79-112.48-16.97 309.97-2.67h.03l55.81-.49 17.67 7.95.64.26.06.03 19.48 8.76h.09l9.19 4.2z" id="reuse-99"/><path d="M1717.86 1030.74l-30.49.63-70.67 1.47-175.09 3.65.35.43 9.22 11 4.47 5.33 12.24 14.58 26.54 1.21 6.58 7.77 20.53 24.13H924.28c3.4-2.84 6.65-5.68 9.12-7.79s4.08-3.59 4.27-3.78l-.28-.34-6-7.07-4-4.59-.25-.33-5-5.83s-.39-.54-1-1.57l-3.47-5.56-.25-.4c-.55-1-1.16-1.9-1.8-2.85l-3-4.87c-.13-.22-.29-.44-.42-.65-.45-.71-.9-1.44-1.39-2.18-.57-.95-1.18-1.9-1.79-2.91-.45-.71-.93-1.44-1.42-2.18l-.26-.41c-1-1.63-2.08-3.35-3.21-5.08-.35-.52-.7-1.07-1-1.61a84.99 84.99 0 01-2.25-3.54c0-.08-.1-.13-.13-.22-1.83-2.84-3.7-5.74-5.62-8.67-.23-.33-.42-.68-.65-1l-1.35-2-2.79-4.33c-2.51-3.84-5-7.7-7.55-11.46-.36-.51-.68-1-1-1.52-.23-.32-.42-.66-.67-1s-.42-.59-.65-.94c-1.64-2.45-3.24-4.87-4.85-7.15-.26-.41-.54-.8-.8-1.18-3-4.38-5.94-8.46-8.55-12-3.44-4.65-6.42-8.52-8.83-11.13a4.14 4.14 0 00-.35-.38c-.26-.27-.49-.55-.74-.79-1.74-1.79-3.06-2.78-3.76-2.66-2.38.26-8.23-.19-15.14-1-1.6-.16-3.24-.35-4.94-.54a93.4 93.4 0 01-2.41-.27c-.52-.06-1.06-.15-1.61-.19-.93-.14-1.83-.25-2.7-.36-11.47-1.41-22.13-3-22.13-3l-1.48-1.39-8.74-8.3-.26-.08-10.7-3.29-9.48-2.89-21.61-6.66-25.92-7.95-7.23-2.22-8.71-2.67h18.34v-4.93l-31 .22c5.24-.08 17.58-.24 31-.46v-3.79l5.53-1.5h-39.22v-.7l43.53-.46 16.55-4.49h.06L773.7 909l-83.28-.11h-8.93l-2.89-1.33 10.92-.06 91.12-.38 3.76-1h.06l5-1.38 33.61-9.09-35.28-5.3-112.44-17H675l-37-5.56-1.09-.48-9.28-4h957.24l14.1 15.29-48.57-.57-13-.13-344.72-4 33.41 5.12 20.88 3.18 21.66 3.32 10.22 4.41 17.15 7.42 9.32 4h12.85l.93 2.56 6.59 18.45 1.64 4.57h295.37l-28.17.63-31.42.68-233.5 5.08.16.47 2.28 6.39 5.65 15.73 5.81 16.27 3.41 9.47 4.91 13.69 77.17 1.08 170.25 2.38 59.75.85 52.34.74 1.8 2-51.37.38-60.27.41-81 .6-151 1.06h-.19l-14 .11.06.19 73.6 16.41 6.27 7.48h282.46z" fill="url(#ap)" id="reuse-98"/><path fill="#c78f99" opacity=".36" style="isolation:isolate" d="M829.37 951.91l-4.3 2.32-.07.02-18.63 9.96-2.76 1.47-99.53 9.41.99-9.52 88.03-9.66h.03l36.24-4zM555.97 957.85l-8.58 1.47-13.79-.34 5.47-1.13h16.9zM865 932.84l-16.48 9h-.35l-5.08 2.69-23.58 3.13h-.13l-37 4.92L704.79 963l-111.71-2.61-17.16-.44 11.27-2.12h118.65l1.45-14 18.09-8.71-7.23-2.22-57.8-.31 11.31-2.37h56.12v-4.92l-31 .22c5.24-.09 17.58-.25 31-.47 22-.27 46.85-.62 48.32-.62.39 0 2.41.16 5.53.46h.1c19.63 1.78 83.27 7.95 83.27 7.95zM602.45 930.28l-11.56 1.99h-.06l-21.05-.14-109.88-.6 6.75-1.25h135.8zM666 919.42l-2.57.44h-39.8l42.37-.44zM429.54 930.28l-6.2 1.06h-1.92l5.52-1.06h2.6zM559.47 908.02l-3.66.63h-15.49l2.96-.57h.06l16.13-.06zM690.45 908.84h-8.93l-98.66-.14 4.21-.78h.09l91.47-.41 10.92-.06.9 1.39zM671.53 863.26l-34.7 4.01-1.15.13-27.51-4.14h63.36zM898.74 1006.33l-17.67.9-181.24 9.25.52-4.87 128.89-9.71 9-5.74-137.41 10.75.23-2.24 165.16-18.75 11.09-1.25 12.91 13.06 8.52 8.6zM907.8 1031.53v5.41l-7.07.3-232.57 9.58h-.07l-28.63-.3-5.91-.05 5.76-.41 255.15-18.5 4.28-.3 9.06 4.27zM873.03 966.52l-3.75 6.94-12.24.95-154.12 12.08.32-3.26 134.17-13.2 35.62-3.51zM625.3 1038.11l-106.73 6.12-2.02-2.58-1.74-2.23 26.89-.33h.03l83.57-.98zM852.54 1025.05l-154.47 8.87.25-2.77 154.22-6.1zM886.95 1050.6l-218.31 11.34 7.65-5.16h19.43l.58-5.88 206.81-9.9 4.69-.22 10.73 2.02h.06l12.82 2.44-23.81 2.86-20.65 2.5zM931.41 1062.82l-13.94.92-104.42 7.05-159.93 9.11-103.23 5.86 10.8-2.37h.22l11.44-2.59 53.24-11.78h32.57l2.74-1.9.03-.03h.06l221.68-6.5-233.92 12.27-34.79 1.82 9.54 1.77 26.54-1.41 265.63-14.15 5.55-.3 10.19 2.23zM931.41 1054.67l-5.55-2.22-192.57 9.35 198.12-7.13zM958.72 1076.45v4.89l-27.37.69-272.25 6.88-7.75.19h300.43l-.1.11-12.5 11.75H550.41v-11.86l106.63-3.29 270.35-8.38 20.98-.65 10.35-.33zM806.11 1019.85L699 1024.73l.13-1.42 106.98-3.46zM815.75 983.75l-113.67 10.91.2-1.94 113.47-8.97z" id="reuse-97"/><path d="M857.39 974.8a3.15 3.15 0 00-.35-.38c-.26-.28-.49-.55-.74-.8-1.74-1.79-3.06-2.77-3.76-2.66-2.38.27-8.23-.19-15.14-1-1.6-.16-3.24-.35-4.94-.53l-2.41-.28c-.52-.06-1.06-.14-1.61-.19-.93-.14-1.83-.24-2.7-.36-11.47-1.41-22.13-3-22.13-3l-99.54 9.42-.83 8.14-.32 3.27-.64 6.23-.2 1.9-1 10 165.16-18.74a174.27 174.27 0 00-8.85-11.02zm-156.56 32.11l-.48 4.73 128.89-9.71 9-5.74zm156.56-32.11a3.15 3.15 0 00-.35-.38c-.26-.28-.49-.55-.74-.8-1.74-1.79-3.06-2.77-3.76-2.66-2.38.27-8.23-.19-15.14-1-1.6-.16-3.24-.35-4.94-.53l-2.41-.28c-.52-.06-1.06-.14-1.61-.19-.93-.14-1.83-.24-2.7-.36-11.47-1.41-22.13-3-22.13-3l-99.54 9.42-.83 8.14-.32 3.27-.64 6.23-.2 1.9-1 10 165.16-18.74a174.27 174.27 0 00-8.85-11.02zm-156.56 32.11l-.48 4.73 128.89-9.71 9-5.74zm156.56-32.11a3.15 3.15 0 00-.35-.38c-.26-.28-.49-.55-.74-.8-1.74-1.79-3.06-2.77-3.76-2.66-2.38.27-8.23-.19-15.14-1-1.6-.16-3.24-.35-4.94-.53l-2.41-.28c-.52-.06-1.06-.14-1.61-.19-.93-.14-1.83-.24-2.7-.36-11.47-1.41-22.13-3-22.13-3l-99.54 9.42-.83 8.14-.32 3.27-.64 6.23-.2 1.9-1 10 165.16-18.74a174.27 174.27 0 00-8.85-11.02zm-156.56 32.11l-.48 4.73 128.89-9.71 9-5.74zm156.56-32.11a3.15 3.15 0 00-.35-.38c-.26-.28-.49-.55-.74-.8-1.74-1.79-3.06-2.77-3.76-2.66-2.38.27-8.23-.19-15.14-1-1.6-.16-3.24-.35-4.94-.53l-2.41-.28c-.52-.06-1.06-.14-1.61-.19-.93-.14-1.83-.24-2.7-.36-11.47-1.41-22.13-3-22.13-3l-99.54 9.42-.83 8.14-.32 3.27-.64 6.23-.2 1.9-1 10 165.16-18.74a174.27 174.27 0 00-8.85-11.02zm-156.56 32.11l-.48 4.73 128.89-9.71 9-5.74zm156.56-32.11a3.15 3.15 0 00-.35-.38c-.26-.28-.49-.55-.74-.8-1.74-1.79-3.06-2.77-3.76-2.66-2.38.27-8.23-.19-15.14-1-1.6-.16-3.24-.35-4.94-.53l-2.41-.28c-.52-.06-1.06-.14-1.61-.19-.93-.14-1.83-.24-2.7-.36-11.47-1.41-22.13-3-22.13-3l-99.54 9.42-.83 8.14-.32 3.27-.64 6.23-.2 1.9-1 10 165.16-18.74a174.27 174.27 0 00-8.85-11.02zm-156.56 32.11l-.48 4.73 128.89-9.71 9-5.74zm-22.2-99.43l-91.47.41h-.09l-27.6.1-16.13.06h-4.27l-91.5.41 92.33.13a.16.16 0 01.13.06l.29-.06h15.49l27 .06 98.66.14zm178.76 67.32a3.15 3.15 0 00-.35-.38c-.26-.28-.49-.55-.74-.8-1.74-1.79-3.06-2.77-3.76-2.66-2.38.27-8.23-.19-15.14-1-1.6-.16-3.24-.35-4.94-.53l-2.41-.28c-.52-.06-1.06-.14-1.61-.19-.93-.14-1.83-.24-2.7-.36-11.47-1.41-22.13-3-22.13-3l-99.54 9.42-.83 8.14-.32 3.27-.64 6.23-.2 1.9-1 10 165.16-18.74a174.27 174.27 0 00-8.85-11.02zm-156.56 32.11l-.48 4.73 128.89-9.71 9-5.74zm-98.37-76.63l-11.57 2 69.46.38 11.31-2.37zm254.93 44.51a4.14 4.14 0 00-.35-.38c-.26-.28-.49-.55-.74-.8-1.74-1.79-3.06-2.77-3.76-2.66-2.38.27-8.23-.19-15.14-.94l-4.94-.54c-.81-.09-1.61-.17-2.41-.28-.52-.06-1.06-.14-1.61-.19-.93-.14-1.83-.24-2.7-.36-11.47-1.41-22.13-3-22.13-3l-99.54 9.43-.83 8.14-.32 3.27-.64 6.23-.2 1.9-1 10 165.16-18.74a161.74 161.74 0 00-8.85-11.08zm-156.56 32.12l-.48 4.73 128.89-9.71 9-5.74zm-98.37-76.63l-11.57 2 69.46.38 11.31-2.37zm254.93 44.51a4.14 4.14 0 00-.35-.38c-.26-.28-.49-.55-.74-.8-1.74-1.79-3.06-2.77-3.76-2.66-2.38.27-8.23-.19-15.14-.94l-4.94-.54c-.81-.09-1.61-.17-2.41-.28-.52-.06-1.06-.14-1.61-.19-.93-.14-1.83-.24-2.7-.36-11.47-1.41-22.13-3-22.13-3l-99.54 9.43-.83 8.14-.32 3.27-.64 6.23-.2 1.9-1 10 165.16-18.74a161.74 161.74 0 00-8.85-11.08zm-156.56 32.12l-.48 4.73 128.89-9.71 9-5.74zm-98.37-76.63l-11.57 2 69.46.38 11.31-2.37zm254.93 44.51a4.14 4.14 0 00-.35-.38c-.26-.28-.49-.55-.74-.8-1.74-1.79-3.06-2.77-3.76-2.66-2.38.27-8.23-.19-15.14-.94l-4.94-.54c-.81-.09-1.61-.17-2.41-.28-.52-.06-1.06-.14-1.61-.19-.93-.14-1.83-.24-2.7-.36-11.47-1.41-22.13-3-22.13-3l-99.54 9.43-.83 8.14-.32 3.27-.64 6.23-.2 1.9-1 10 165.16-18.74a161.74 161.74 0 00-8.85-11.08zm-156.56 32.12l-.48 4.73 128.89-9.71 9-5.74zm-98.37-76.63l-11.57 2 69.46.38 11.31-2.37zm254.93 44.51a4.14 4.14 0 00-.35-.38c-.26-.28-.49-.55-.74-.8-1.74-1.79-3.06-2.77-3.76-2.66-2.38.27-8.23-.19-15.14-.94l-4.94-.54c-.81-.09-1.61-.17-2.41-.28-.52-.06-1.06-.14-1.61-.19-.93-.14-1.83-.24-2.7-.36-11.47-1.41-22.13-3-22.13-3l-99.54 9.43-.83 8.14-.32 3.27-.64 6.23-.2 1.9-1 10 165.16-18.74a161.74 161.74 0 00-8.85-11.08zm-156.56 32.12l-.48 4.73 128.89-9.71 9-5.74zm-98.37-76.63l-11.57 2 69.46.38 11.31-2.37zm0 0l-11.57 2 69.46.38 11.31-2.37zm1084.91 101.09l-2.18-2.46h-250l-6.27-7.48-73.64-16.32-.06-.19 14-.12h.19l151-1.06 81-.59 60.27-.41-2.77-3.11-59.75-.84-170.25-2.39-77.17-1.08-4.91-13.7-3.41-9.47-5.72-16.29-5.7-15.73-2.28-6.39-.16-.47 233.5-5.08 31.42-.68-.55-.63h-266.64l-1.64-4.57-6.59-18.45-.93-2.56h-12.85l-9.32-4-17.15-7.41-10.22-4.41-21.66-3.32-20.88-3.16-33.41-5.12 344.72 4 13 .13-13.18-14.72h-929l27.52 4.13 2.24.35h.06l37 5.56h.32l112.48 17 35.28 5.3-33.61 9.09-5 1.38h-.06l-3.72 1-91.12.38-10.92.06-91.47.41h-.09l-27.6.1-16.13.06h-4.26l-91.5.4 92.33.14a.19.19 0 01.13 0h42.78l98.66.15h8.93l83.28.1-19.41 5.23h-.06l-16.54 4.51-43.53.47-28.11.29H666l-42.37.44h109.68l-5.53 1.49v3.79c-13.39.22-25.73.38-31 .46l31-.21v4.92H426.94l-5.52 1.06h1.92l36.5.19h.06l109.88.6 21 .14h.07l69.46.38 57.8.3 7.23 2.23-18.09 8.71-1.45 14h-221l48.77 1.1 13.78.33 28.53.66 17.15.4L704.74 963h.55l-.29 2.6-1 9.47-.83 8.14-.32 3.27-.64 6.23-.2 1.9-1 10-.23 2.23-.48 4.73-.52 4.87-.7 6.83-.13 1.42-.68 6.42-.25 2.77-.36 3.32-61.46.74-11 .13-83.57 1-26.89.33 1.74 2.22 2 2.59.8 1 114.12 1.2H639.38l28.62.3h.07l28.49.31-.35 3.78-.58 5.88h-19.35l-7.64 5.17L661 1067h-.06l-2.74 1.89h-32.6l-53.24 11.78-11.44 2.58h-.21l-10.8 2.37h-.09l-7.82 1.78 8.39 1.58v11.86h971.15l-20.54-24.13-6.58-7.77-26.54-1.2-12.24-14.59-4.47-5.33-9.22-11-.35-.44 175.06-3.58zM602.46 930.28l-11.57 2 69.46.38 11.31-2.37zm98.37 76.63l-.48 4.73 128.89-9.71 9-5.74zm156.56-32.11a3.15 3.15 0 00-.35-.38c-.26-.28-.49-.55-.74-.8-1.74-1.79-3.06-2.77-3.76-2.66-2.38.27-8.23-.19-15.14-1-1.6-.16-3.24-.35-4.94-.53l-2.41-.28c-.52-.06-1.06-.14-1.61-.19-.93-.14-1.83-.24-2.7-.36-11.47-1.41-22.13-3-22.13-3l-99.54 9.42-.83 8.14-.32 3.27-.64 6.23-.2 1.9-1 10 165.16-18.74a174.27 174.27 0 00-8.85-11.02zm-254.93-44.51l-11.57 2 69.46.38 11.31-2.37zm98.37 76.63l-.48 4.73 128.89-9.71 9-5.74zm156.56-32.12a3.15 3.15 0 00-.35-.38c-.26-.28-.49-.55-.74-.8-1.74-1.79-3.06-2.77-3.76-2.66-2.38.27-8.23-.19-15.14-1-1.6-.16-3.24-.35-4.94-.53l-2.41-.28c-.52-.06-1.06-.14-1.61-.19-.93-.14-1.83-.24-2.7-.36-11.47-1.41-22.13-3-22.13-3l-99.54 9.42-.83 8.14-.32 3.27-.64 6.23-.2 1.9-1 10 165.16-18.74a174.27 174.27 0 00-8.85-11.02zm-254.93-44.51l-11.57 2 69.46.38 11.31-2.37zm98.37 76.63l-.48 4.73 128.89-9.71 9-5.74zm156.56-32.12a3.15 3.15 0 00-.35-.38c-.26-.28-.49-.55-.74-.8-1.74-1.79-3.06-2.77-3.76-2.66-2.38.27-8.23-.19-15.14-1-1.6-.16-3.24-.35-4.94-.53l-2.41-.28c-.52-.06-1.06-.14-1.61-.19-.93-.14-1.83-.24-2.7-.36-11.47-1.41-22.13-3-22.13-3l-99.54 9.42-.83 8.14-.32 3.27-.64 6.23-.2 1.9-1 10 165.16-18.74a174.27 174.27 0 00-8.85-11.02zm-254.93-44.51l-11.57 2 69.46.38 11.31-2.37zm98.37 76.63l-.48 4.73 128.89-9.71 9-5.74zm156.56-32.12a3.15 3.15 0 00-.35-.38c-.26-.28-.49-.55-.74-.8-1.74-1.79-3.06-2.77-3.76-2.66-2.38.27-8.23-.19-15.14-1-1.6-.16-3.24-.35-4.94-.53l-2.41-.28c-.52-.06-1.06-.14-1.61-.19-.93-.14-1.83-.24-2.7-.36-11.47-1.41-22.13-3-22.13-3l-99.54 9.42-.83 8.14-.32 3.27-.64 6.23-.2 1.9-1 10 165.16-18.74a174.27 174.27 0 00-8.85-11.02zm-254.93-44.51l-11.57 2 69.46.38 11.31-2.37zm98.37 76.63l-.48 4.73 128.89-9.71 9-5.74zm156.56-32.12a3.15 3.15 0 00-.35-.38c-.26-.28-.49-.55-.74-.8-1.74-1.79-3.06-2.77-3.76-2.66-2.38.27-8.23-.19-15.14-1-1.6-.16-3.24-.35-4.94-.53l-2.41-.28c-.52-.06-1.06-.14-1.61-.19-.93-.14-1.83-.24-2.7-.36-11.47-1.41-22.13-3-22.13-3l-99.54 9.42-.83 8.14-.32 3.27-.64 6.23-.2 1.9-1 10 165.16-18.74a174.27 174.27 0 00-8.85-11.02zm-289.54-44.51c.68.63 1.29 1.22 1.93 1.85l21 .14h.07l69.46.38 11.31-2.37zm133 76.63l-.48 4.73 128.89-9.71 9-5.74zm-22.2-99.43l-91.47.41h-.09l-27.6.1-16.13.06h-4.27l-91.5.41 92.33.13a.16.16 0 01.13.06l.29-.06h15.49l27 .06 98.66.14zm22.2 99.43l-.48 4.73 128.89-9.71 9-5.74zm156.54-32.12a3.15 3.15 0 00-.35-.38c-.26-.28-.49-.55-.74-.8-1.74-1.79-3.06-2.77-3.76-2.66-2.38.27-8.23-.19-15.14-1-1.6-.16-3.24-.35-4.94-.53l-2.41-.28c-.52-.06-1.06-.14-1.61-.19-.93-.14-1.83-.24-2.7-.36-11.47-1.41-22.13-3-22.13-3l-99.54 9.42-.83 8.14-.32 3.27-.64 6.23-.2 1.9-1 10 165.16-18.74a174.27 174.27 0 00-8.85-11.02zm-156.56 32.11l-.48 4.73 128.89-9.71 9-5.74zm156.56-32.11a3.15 3.15 0 00-.35-.38c-.26-.28-.49-.55-.74-.8-1.74-1.79-3.06-2.77-3.76-2.66-2.38.27-8.23-.19-15.14-1-1.6-.16-3.24-.35-4.94-.53l-2.41-.28c-.52-.06-1.06-.14-1.61-.19-.93-.14-1.83-.24-2.7-.36-11.47-1.41-22.13-3-22.13-3l-99.54 9.42-.83 8.14-.32 3.27-.64 6.23-.2 1.9-1 10 165.16-18.74a174.27 174.27 0 00-8.85-11.02zm-156.56 32.11l-.48 4.73 128.89-9.71 9-5.74zm156.56-32.11a3.15 3.15 0 00-.35-.38c-.26-.28-.49-.55-.74-.8-1.74-1.79-3.06-2.77-3.76-2.66-2.38.27-8.23-.19-15.14-1-1.6-.16-3.24-.35-4.94-.53l-2.41-.28c-.52-.06-1.06-.14-1.61-.19-.93-.14-1.83-.24-2.7-.36-11.47-1.41-22.13-3-22.13-3l-99.54 9.42-.83 8.14-.32 3.27-.64 6.23-.2 1.9-1 10 165.16-18.74a174.27 174.27 0 00-8.85-11.02zm-156.56 32.11l-.48 4.73 128.89-9.71 9-5.74zm156.56-32.11a3.15 3.15 0 00-.35-.38c-.26-.28-.49-.55-.74-.8-1.74-1.79-3.06-2.77-3.76-2.66-2.38.27-8.23-.19-15.14-1-1.6-.16-3.24-.35-4.94-.53l-2.41-.28c-.52-.06-1.06-.14-1.61-.19-.93-.14-1.83-.24-2.7-.36-11.47-1.41-22.13-3-22.13-3l-99.54 9.42-.83 8.14-.32 3.27-.64 6.23-.2 1.9-1 10 165.16-18.74a174.27 174.27 0 00-8.85-11.02z" fill="url(#ao)" id="reuse-96"/><path fill="#c78f99" d="M545.59 1042.36l-29.04-.71-61.08-1.53 59.34-.7 26.89-.33h.03l3.86 3.27z" opacity=".36" id="reuse-95"/><path d="M666.48 1101H550.41v-11.9l-8.39-1.57 7.78-1.75h.09l10.8-2.36h.22l11.44-2.59 53.24-11.78h21.11a46.17 46.17 0 002.09 3.79c.39.71.84 1.44 1.29 2.18 1 1.6 2 3.21 3.08 4.87 1.29 1.89 2.6 3.92 3.92 5.9.71 1 1.38 2.07 2.06 3.1l.12.19c2.57 3.92 5.07 7.92 7.22 11.92z" fill="url(#an)" id="reuse-94"/><path d="M639.47 1046.52H633.49l-114.12-1.2-.8-1-2-2.58-61.08-1.53 59.34-.7 26.89-.33 83.57-.94 11-.14q1.65 4 3.06 8.08a2.26 2.26 0 01.12.34z" fill="url(#am)" id="reuse-93"/><path d="M593.07 960.38l-17.15-.45-28.53-.65-13.78-.3-48.77-1.13h106.47c.61.84 1.19 1.68 1.76 2.53z" fill="url(#al)" id="reuse-92"/><path d="M539.9 908.65l-92.33-.14 91.5-.4a6.56 6.56 0 01.83.54z" fill="url(#ak)" id="reuse-91"/><path d="M569.78 932.13l-109.88-.61h-.06l-36.5-.19h-1.92l5.52-1.06h140.91c.68.64 1.29 1.25 1.93 1.86z" fill="url(#aj)" id="reuse-90"/><path fill="url(#ai)" d="M293.02 907.06l-336.12 1.45 329.2.43-36.02 9.72-114.08 1.2h109.68l-5.52 1.49v8.93h-499.59l499.59 2.73v1l-20.5 9.88-1.45 13.96H-2.8l220.51 5.13-7.62 74.25-442.92 5.29 441.86 4.59-.94 9.67h-19.43l-18.13 12.24h-32.57l-86.2 19.08h-534.48V860.89H104.8l230.68 34.7-42.46 11.47z" id="reuse-89"/><path d="M1488.14 893.33l-10.71-4.77-105.49-4.76-599.71 9.53-40.7 7.97h756.61v-7.97zM1509.55 917.11l30.26-4.07v-3.84l-575.62-.23 545.36 8.14zM1555.07 943.89l-986.32 6.12 792.89-1.7 193.43-4.42zM254.8 1005.11l347.15 2.91 643.09-2.91H254.8zM1837.8 954.09l-4.29-3.4-682.44 3.4h686.73zM1100.47 977.54H590.71l226.23 1.94 283.53-1.94zM1237.01 1043.88l665.3 7.57 5.36-7.57h-670.66z" id="reuse-88"/><path d="M1245.06 838c-.48 53.32-222.51 95.09-495.92 93.29S254.49 884.8 255 831.48s222.53-95.09 495.93-93.28 494.63 46.48 494.13 99.8z" fill="url(#ah)" id="reuse-87"/><path fill="url(#af)" d="M2324.9 882.45v218.51h-411.01l-27.15-31.94h-25.54l-27.27-32.51 363.65-7.6h-370.01l-6.27-7.48-73.64-16.32-.06-.19 449.98-3.21-453.42-6.39-22.23-62.05 293.13-6.39h-295.44l-9.16-25.57h-12.85l-36.69-15.87-76.01-11.62 739.99 8.63z" id="reuse-86"/><path d="M1252 860.89l-575.76 8.72-3.69-2.84L964 852.88l160 5.33-16.13 2.72zM860.31 852.84H707.29l-1.55-2.83 160.81-1.58-1.68 1.12-4.56 3.29z" fill="#fff5c7" id="reuse-85"/><path d="M965.7 852.93c-.83 2.4-1.54 3.91-1.54 3.91l-163-4 53-7.13H700.8l6-1.82h166.62l-6.87 4.54-1.68 1.12 27.34.94h.17l71.57 2.4z" fill="#fff5e0" id="reuse-84"/><path d="M1932.57 860.89V1101H4.91V860.89H656l9.7-17h207.72l-6.87 4.53-1.68 1.12 27.34 1h.17l71.62 2.35h1.75L1124 858.2l-16.13 2.72z" fill="url(#ae)" id="reuse-83"/><path d="M1317.62 792.19l-38.85 19.5-39.94 11.79 2.46-7.82s-10.17 3.28-12.31 3.28-21.46-.45-21.46-.45h-52.44l30.52-23.58-14.45 2.27-70.68 18.48-12.32-3.06-9.1 3.06h-60l52.47-17.58-4.82-6.79-110.3 24.37-19.11-8.28-23.73 4.74h-30l49.27-15-10.13-1.79-83.53 9.07-26.24 11.22-19.53-8.28-21.17 4.31-25.7 4 12.31-8.28-5.89-2-47.2 24.53 7.78 9.9 84.13-2.84H827l45.78-.52 3.21 4.74 86.35 7.26 66.26-3.26 111.24 5.18L1131 855l84.73-2.16 49.88 7.93 63-34.74z" fill="#c2a863" id="reuse-82"/><path d="M1542.77 282.7l126.68-6.53 63.93-305.7h-108.3l-3.38 50.28-100.18 22.73-34.7 15.08 147.92-16.3-13 31L1343 120l275.49-28.41-8.79 29.41-435.34 31.75-1.61 73.86 429.52-31.94v20.63l-87.57 7-27.79 30.7-246.64 41.2-14.46 7.58L1462 283.14l-24.48 41.09-292 27.21-28.27 62.25 330.27-6.47-18.47 44-257.82 18.13h276.29l24.1 14.53L1073.19 497l-7 43.56 381.25-4.86-27.3 25.78-310.29 26.42 347.39-20.19-9.8 20.19-34.53 19.48-441.21 55.11 355.24-20-9.35 38.18-458.08 28.54v17.69l15.68 19 409.91-22.67-24.7 8.52-150.55 24.3-224.45 76.63 231.13-52.84 223.1-6.8L1548 856.81l59.09-282.51-30.75-17.17-97.83-19h136.19l20-95.58-66.18 4.08-19.28 64.62-426.24 5.23L1521.61 497l41-92.05 81.38-6.81 21.43-102.44-86.2 6.06-27.86 18 99.6-6.63-16.13 10-97.69 14.66-45.78 37.35-331 20.25 331-40.49zm-140.14 423.78l-497.08 16.79 497.08-33.57z" fill="#bd8054" opacity=".36" style="isolation:isolate" id="reuse-81"/><path fill="url(#ad)" d="M1830.03-29.53h102.54l-2.42 903.35H679.99v-28.27l37.58-24.08 52.37-30.64 99.6-20.41 7.65-24.48-15.68-19.05v-17.68l20.78-40.82 25.64-23.13 154.5-69.38 12.73-78.9h18.02l22.14-74.84 32.12-70.73V282.7l27.31-56.03-1.87-6.39.13-4.93.23-10.83.48-22.03 2.64-29.72 36.95-8.16 36.94-12.24v-20.68l30.52-22.43 77.11-15.39h83.53l36.95-29.93 86.2-32.65 2.92-40.82h262.55z" id="reuse-80"/><path d="M1260.4 146.53h.09c-3.27 0-210.27-15.45-277.87-20.51 1.13-4.3 2.22-8.52 3.31-12.63L1173 107v-5.89L990.78 94.6c1.29-4.88 2.48-9.62 3.6-14.07l396.32-14.14L1517.06 120s-263.8 25.67-256.66 26.53zM1224.7 185.42l-20 80.58-227.38-15.6 129.57-7.83 8.58-13.61-158.94-6.29c.26-.94.55-1.89.81-2.84a1917.22 1917.22 0 006.17-22.31c.35-1.25.7-2.48 1-3.78 2.54-9.2 5.08-18.61 7.58-28zM875.19 325.51l317.39 43.11 23.54-46.69-332.2-16.78-8.73 20.36zM775.98 426.86l252.49 4.35-20.83 8.02-197.39 11.93h319.13l66.46-43.53-419.86-7.69v26.92zM1078.59 365l-245.46-7.97 21.59-16.18L1078.59 365zM1170.09 483.83l-47.13 51.88-389.81-8.26 23.93-25.2-10.02-14.8 423.03-3.62zM1101.53 595.61l-124.21 42.25-250.6-4.84 179.21-10.43 10.22-5-262.26 1.91-9.93-6.73 11.51-17.73 11.27-17.4 28.98-10.77 290.18 13.91H716.54l-15.74 7.13 400.73 7.7zM649.49 686.9l23.1 62.66 202.6 42.63 13.23-45.34-215.83-53.51 234.04 22.67 30.69-35.37-272.18-5.79-15.65 12.05z" id="reuse-79"/><path d="M1805.25-29.53l-2.51 77.65-5.1 156.67L1549 864.41l-3.57 9.41H695.7l-5.94-9.4L678 845.89l-51.5-81.21-40.07-63.15L644 612.79l11.51-17.73 11.22-17.42 29-10.76 37.43-39.43 23.94-25.2-10-14.8v-28.28l28.9-32.35V400l57.13-43 21.57-16.18 20.49-15.35 8.73-20.35 1.48-3.41s10.6-3.71 22.11-7.29l2.7-.81 1.63-.5 2.41-.67c8.94-2.54 17.16-4.38 20-3.57.74.22 2-2.15 3.79-6.58.36-.84.71-1.83 1.09-2.84 4.21-11.36 10.41-32.11 17.35-56.76.26-.94.55-1.89.81-2.84a1917.22 1917.22 0 006.17-22.31c.35-1.25.7-2.48 1-3.78 2.54-9.2 5.08-18.61 7.58-28l2.8-10.58 2-7.43c2-7.37 3.86-14.67 5.72-21.78 1.13-4.3 2.22-8.52 3.31-12.63s2.19-8.41 3.21-12.44l1.64-6.33c1.3-4.82 2.49-9.56 3.61-14 2-7.57 3.69-14.31 5.14-19.88 1.51-6 2.67-10.61 3.44-13.6.61-2.51 1-3.86 1-3.86l5-14.29 10.59-30.19c-.35-.84-6.58-14.21-13.4-28.24z" fill="url(#ac)" id="reuse-78"/><path d="M1040.48 18.55v12L632.17-.49v-29H1021l12.59 29H733.15zM1003 69.33l10.18-5.44-118.33-19.5-276.3-38.55-7.25 67.63 378.28 44.38 23.61-10.85-44.49-13.18-302.76-38.55 2.41-8 43.35 4 252.76 18.06L695.7 34.86l9.57-4.35zM980.52 151l9.06-10.41v-13.31l-331.4-33.46zm-380.19-41.58l-4.53 14.21 338.5 32.76zm72.84 161.93l238 64.15-25.77-33.76-322.53-74.61-50.34 15.44 35.34 3.62L678 308.68l-130.68-51.13-8.54 3.45 248.44 114.4-15.52 1.35L568.21 292v2.17L776 400s79.25 2.68 81.92 2.68 88.9-20.4 88.9-20.4l-21.91-28.7zm-32.93-108.14L911 213.09l9 14-199.18-38.04 238.28 66.22 21.42-53-333.59-41.79zm-63.11 19.12l-4 12.41 324.34 62.8zM437.58 324.19l5.33 8.52v7.79l232.41 105.67-12.32 5.9-177.23-74.36 269.87 126.06L776 426.82l-327.73-137.1zM388.29 365l-11.76 10.89-26.83 17.23a100 100 0 01-6.65 16.29c-1.58 2.85-3.34 5.31-5.11 6.4s-7.94 4.05-15.71 7.69l-.35 1.37 235.63 148.72-191.16-151.51 71.74 28.57L692.44 633 754 587.91c2.12-1.61 14.46-31.08 14.46-31.08l-57.76-16.32zm235.62-145.06l330.91 79.77-3.75-17zm-32.09-83.82l-3 9.39 299 23.59zM582 167.06l-3.66 11.54 181 36.29zm425.65-77.8l5.55-5.41-198.13-17.46z" fill="#c78f99" opacity=".36" style="isolation:isolate" id="reuse-77"/><path d="M1831.37-29.53l-5.14 14.07-23.49 64.39-299 819.45-311.09 5.44-1056.06-6-345.86-321.11-54.68-101.9s567.65-12.59 586.22-21.31c7.77-3.64 13.91-6.62 15.71-7.69s3.53-3.52 5.11-6.4a98.92 98.92 0 006.61-16.29l26.79-17.23L388.25 365 429 345.74l13.91-5.22v-7.79l-5.33-8.52 10.69-34.48 13.92-7v-15.67l33.22-10.89 17.12-13.6 50.34-15.44 10.32-32.4 4-12.4 1.19-3.73 3.62-11.54 6.84-21.55 3-9.39 4-12.46 4.53-14.21 10.69-33.77.23-2.19 7.26-67.65 13.62-6.33v-29z" fill="url(#ab)" id="reuse-76"/><path d="M199.29 31.01l35.34 50.34L658.18 45.3l-5.09-32.21-453.8 17.92zM249.62 106.96l382.55-33.09 8.07-7.48-390.62 31.96v8.61zM478.8 136.45l135.74 4.08L627.39 114l-258.63 15.64 191.16-2.38v3.29l-81.12 5.9zM242.12 176.36l184.92-16.91 29.35-6.45-223.1 10.88 8.83 12.48zM279.96 250.39l296.83-30.27 22.48-13.5-248.99 9.19 268.27-21.07 21.69-30.06-398.65 41.94 38.37 43.77zM323.78 284.74l80.32-9.52-7.23-2.39-131.32 11.91 16.1 30.81 127.67-14.15 4.69 2.77-60.91 10.68h122.88l17.27-39.29-173.49 15.64 4.02-6.46zM303.16 346.87l157.97-22.68 8.03-2.26-200.8 14.51 34.8 10.43z" id="reuse-75"/><path d="M731.28-29.53c-11.54 34.21-29.95 68.41-34.5 95.23-3.37 25.74-9.14 51.29-16.24 76.7a814.6 814.6 0 01-3.29 11.27q-1.69 6-3.67 12l-2.63 8.32a1110.2 1110.2 0 01-7.15 21.56q-2.58 7.54-5.24 15.15c-5.56 15.8-11.41 31.58-17.18 47.3l-7 19.36-2.79 7.8c-29.36 74.42-65.24 152.41-163.15 210.44-41.64 23.48-90.48 41.5-143.59 52.95l-14.62 3C236.54 565.46 159 565.6 95 546.71c-35.59-10.46-66-26.66-88-46.91q-6.12-5.48-11.62-11.45c-48.95-54.42-22.85-108.84-55.45-163.26a886.35 886.35 0 00-8.33-15c-40.66-72-86.53-137.31-89.56-215.31 0-36.82 9.93-71 26-104.35a385.11 385.11 0 0110.33-19.89z" fill="url(#aa)" id="reuse-74"/><path fill="url(#Z)" d="M4.91-29.53h1927.66v1130.5H4.91z" id="reuse-73"/><path fill="#ffcca6" d="M1648.97 144.42l40.96-62.5h-7.08l-33.88 62.5zM1728.08 65.51l-12.05-78.52 5.84 82.83 41.89 6.22-35.68-10.53zM1630.35 335.13l10.52 28.41 6.73.87-3.4-27.58-13.85-1.7zM1632.73 428.5l12.49-50.41-6.12-1.26-6.37 51.67zM1407.21 721.09l48.99-45.41-4.64-11.56-44.35 56.97zM1310.52 871.79l72.79-52.73-96.19 50.38 23.4 2.35z" id="reuse-72"/><path fill="#ffcca6" d="M1412.83 651.76l-47.79 93.61 63.78-92.27-15.99-1.34zM1428.82 642.69l52.36-33.01-59.25 33.01h6.89zM1515.86 606.87l15.57-36.84-22.49 35.93 6.92.91zM1596.56 509.02l32.53-61.34h-5.82l-26.71 61.34zM1673.32 81.11l-3.47-.29-27.31-2.32-3.21 39.05-2.02 36 21.3 8.9-8.04 58.5-17.12 62.11-18.22 34.02-27.85 12.7v21.77l12.85 6.34-12.85 4.54v33.55l22.49 45.36 26.92 5.23h3.6l-24.35-8.41-18.22-43.53 2.57-1.58 6.01 11.56-4.44-40.07 4.15-5.89-16.03-8 5.36-19.89 32.07-12.59 9.41-33.96 17.73-62.58 3.96-7.95-10.45 63.51 2.41-2.15 18.25-80.24v-30.21l-29.23-11.67 33.73-71.81zM1686.72-40.26l-15.87 114 28.32 7.08-6.43-121.08h-6.02z" id="reuse-71"/><path fill="#ffcca6" d="M1587.35 528.44l.03-13.63 28.66-67.13h-9.16l-31.26 66.23v13.49l-56.77 18.23-2.99 9.31-40.38 51.02h-33.74l-89.95 31.29-54.72 174.8-34.18 7.5-31.04 18.15 19.28 8.16-29.32-1.59-14.35 8.28-20.58 10.54 60.43 3.03 51-25.77-17.61-1.41-8.69-4.21 26.77-10.19 31.03-16.5 17.41-73.98-2.12-3.16-21.17 59.4-2.66.47 44.78-149 16.42 5.22L1463.4 608l24.38-.79 39.04-50.99 10.22 1.2 5.1-3.38 55.42 2.73 2.83-2.73-58.5-6.36 45.46-19.24z" id="reuse-70"/><path d="M1825.67 146.12l-5.67 60.4-8.38 13.39 16.48-11.83zM1693.46 201l6.94 74v-72.15zm78.81 246.6l-40.54 60.1h12.08l30.46-60.1zm-102.42 88.1l-3.21 58.91 6.68 9.76zm-140.56 137.24l-24.9 94.23 35-97.6c.61-1.76-10.1 3.37-10.1 3.37zm52 119.4l-7.29 22 50.06-55.1zm244.43-832.6h-29.3l37.33 79.94 4.82-6.94zm-47.41 160.75l-37.14-4.74 24.52 75.92 15 4.08zm68.24-160.75l8.84 74.81L1842 87.68l6.71 4.73-45.29 15.34 1.67 16.1 28.62 12.15 4.82 74.1-23.23 22.06 3.15 38.44-9.35 11.9-24.38 31-19-8.62-3.7-46.26 3.7-39.07-53.72-13.74-3.6 74.32 6.43 5.44-17.09 57.71 47.77 81.72-.58-2.17 9-16.87V363.8l21.94 10.41 27 43.38.29 1.31-18.73 28.78-27.31 60.71 18.73.84 6.91 77.08-14.88 16.93-46.52 29.08-9.76-5.62-5.6-27 12.46-20.92-9.35-51.35-4-21.65-43.29-1.6 13.52 23.29 7.55 78.6-21.07 26.51-100.59 31.63-52 121.35-36.14 33.61-69.49 1.09-59.83 44.89-31.83 8.52 34.89 1.58 9.92 1-5.33 7.57 36.11 1.72 6-1.72 23.71.71 42.91-14.88 74-56.93 11.76 3.79 52-149.25 35.64 3 9.6 87.61-79.68 86.85 31.46 1.36-70.43 20.42-57 12.25-16 11.56h26.67l35.34 2.2 7.22 1.89-1.41 2.84-15.45 9.19h81.92l63.74 3.43h-24.64l47.81 4.95 5.94 2.49-23.23 4.81-5.88 4.51h98l19.28 2.73 8-1.36h30l26.37 5-5.49 4.51-14.46 5.9h38l21.72-1.74 26.76-.46 3.31 1.72-18.57 11.36v3.18h44.43V-40.26zM1705.19 406l-16 60.71 42.54-19z" fill="url(#t)" id="reuse-69"/><path fill="#fff5e0" d="M1846.3 1015h70.29l-25.09 1.8-45.2-1.8z" id="reuse-68"/><path fill="#ff9c7d" d="M334.95 433.18l31.54 86.43 31.91 10.16-22.89-11.22-40.56-85.37zM687.95 682.6l-1.21 5.67 8.36-6.12-8.36-12.25v-59.86l-27.3-25.17 17.26 26.98-4.41 60.16 6.42-24.78 2.01 6.34-2.37 17.56 9.6 11.47zM642.17 595.41l5.22-3.06-19.28-7.48 14.06 10.54zM703.08 775.34l-5.09-80.95-8.76-4.77 4.38 5.67-7.4 91.16 24.63 48.53-7.76-59.64zM561.7 631.74l7.51-1.31-57.29-44.65 49.78 45.96z" id="reuse-67"/><path fill="#ff9c7d" d="M458.64 524.98l-69.85-8.27-49.02-110.74-25.71-100.21-19.63-30.18-31.03-104.67 10.86-211.17h-21.24l-3.92 211.88 1.96-.11 7.58-162.47 4.02-.66-4.43 163.24 29.07 103.15 12.34 30.63 3.98.09 32.45 100.62 46.65 111.39 47 16.35 27.57 7.03 130.82 86.24 5.46-.94-117.81-88.35-17.12-12.85zM277.91 304.86l7.99-.75-19.9-31.75 11.91 32.5zM243.92 80.82V-40.26h-8.03l8.03 121.08z" id="reuse-66"/><path d="M1784.44 447.68h-177.56l-14.65 31.03 334.64 27.03v-65.31h-104.54l-37.89 7.25zM1710.81 178.09l96.39 15.65-148.59-31.29-3.95 28.74 272.21 69.43v-33.55l-226.5-43.54 10.44-5.44zM1676.28 107.57l250.59 31.75v-25.85l-254.88-11.79 4.29 5.89zM1926.87 159.05v-11.34l-176.7-22.22 176.7 33.56zM1587.38 329.78l339.49 41.5v-26.53l-311.64-27.67-27.85 12.7zM1587.38 362.43l339.49 48.98v-10.88l-326.64-42.64-12.85 4.54zM1581.94 500.52l317.62 14.29-310.87-28.59-6.75 14.3zM1518.85 545.63l-2.99 9.31 411.01 48.3v-44.9l-351.25-30.94-56.77 18.23zM1475.48 605.96h-33.74l440.15 41.49-406.41-41.49zM1633.44 725.22l28.38-52.6-248.99-20.86-31.59 63.04 2.67-67.35-32.12-10.2-30.53 97.51 177.78 43.07 55.15-19.05 7.03 16.78 299.25 29.37h66.4v-18.02L1691.8 767.4l202.94 7.71 10.71-9.97-125.3-12.25h146.72v-59.41l-254.21-20.86-39.22 52.6zM1890.46 94.87l-218.05-32.4-1.56 11.27 37.86 10.37 181.75 10.76z" id="reuse-65"/><path fill="#29361f" d="M1583.11 836.9l56.22-7.83 14.05-6.11-23.29 2.37-46.98 11.57zM1362.23 817.85l41.36 2.39 19.68-4.77-22.89-2.72-38.15 5.1zM1530.5 843.02l30.72-1.87-15.36-2.55-15.36 4.42zM1242.75 852.55l44.18-6.47 9.24 3.24-18.88 3.23h-34.54zM1669.85 883.83h-17.27l-35.54 9.19 33.53-1.7 32.33-7.49h-13.05zM1741.67 842.4l74-9.24 49.8 1.7 31.32-11.86 21.69-2 8.43-8.16v33.67s-134.53 17.35-136.54 16.66-36.55-12.92-39.76-13.59-8.94-7.18-8.94-7.18zM1759.01 833.16l49.79-6.81-21.68-3.39-28.11 10.2zM1280.7 838.94l-16.19-7.82-31.38 5.88 29.76-17.39h39.91s11.24-1.82 12.85 2.26 20.61 3.17 1.6 8.62-36.55 8.45-36.55 8.45zM1251.13 845.86l-20.62 3.97-28.69 5.97 19.99-11.53 29.32 1.59z" id="reuse-64"/><path d="M1297.07 812.05l58.33-7.12-8.4 5.07-17.27 4.42-.8 4.43h14l58.63 8.84 40.16-8.52H1459l-24.09 8.52-4.42 1.69 20.48 3.79 26.91-4.73 25.3 1 34.8-5.09 37.35-2.5-41.23 9.64-28.91 9.51-30.93 3.4-3.21 4.42s91.16-3.06 92.37-4.08 47.79-6.47 49-6.47 29.52-1.35 29.52-1.35l27.31-7 73.09-2.37-56.43 11.45 32.94.68 94.77 11.56 41.77-7.82 17.67.68 31.72-3.79 22.09-12.31v88.06l-32.13-13.84-22.49 6-11.78-2-87.41 9.77h-23.29l38.55-13.84h-60.24l-26.9 4.07-28.52-8.14-19.27-1.48 108.83-23.6-76.31 7.05-35.34-1.35-36.94 7.82-13.26-2H1555l44.18-9.85-32.18-1.6-28.11 4.3-30.12-1.7-41.36 3.07 32.93-8.17-31.73-2.38-11.61 2-10-4.08-56.63 3.4 26.51-5.44-12.45-7.07-15.67 3.57-6.42-3.91-66.34 5.75 44.18-12.25-32.93-7.48-9.24 4.08-24-7.82h-13.3l20.08-16.33-37.89-3.05z" fill="#42401f" id="reuse-63"/><path fill="url(#Y)" d="M1794.54 975.11h-33.93l7.84-3.03 3.21.89 6.62-1.37 5.62-.81 10.64 4.32z" id="reuse-62"/><path fill="url(#X)" d="M1926.87 966.49v8.62h-91.56l8.83-6.37h67.73l15-2.25z" id="reuse-61"/><path fill="url(#W)" d="M1926.87 1015v3.18l-35.37-1.38-45.2-1.8h80.57z" id="reuse-60"/><path fill="url(#V)" d="M1837.18 1057.6l-159.24 15.99-80.05 16.64h328.98v-63.89l-83.79 22.54-5.9 8.72z" id="reuse-59"/><path fill="url(#U)" d="M1926.87 978.73v29.92h-104.54l14.04-9.98h12.85l11.24-6.8h5.92l7.48-7.24 53.01-5.9z" id="reuse-58"/><path fill="url(#T)" d="M1721.64 957.43v4.65h-48.96l9.22-4.65.42-1.56 12.43-6.17 14.04 3.86 12.85 3.87z" id="reuse-57"/><path d="M1595.57 923.28h-24.93l3-3.38 7.65 1.52z" fill="url(#S)" id="reuse-56"/><path fill="url(#l)" d="M1860.46 957.43h-32.64l11.76-7.73h13.69l7.19 7.73z" id="reuse-55"/><path d="M1926.87-40.26v997.69h-44.43v-3.19l18.56-11.36-3.31-1.71-26.76.45-21.72 1.74h-38l14.46-5.9 5.49-4.51-26.37-5h-30l-8 1.36-19.28-2.72h-98l5.88-4.52 23.23-4.81-5.94-2.48-47.81-4.95h24.64l-63.74-3.43h-81.92l15.45-9.2 1.41-2.84-7.22-1.89-35.34-2.2h-30.78l1.6-4.49-4.82-.49-26.89-.79-23.71-.71-6 1.72-36.16-1.64 5.33-7.58-9.92-1-34.89-1.58-38-1.71H1312l-25.8-2.59c-12.94-1.28-26-2.58-26.56-2.61l-72.77-3.65 26.5-12.92 8.84-4.3h28.91l-19.28-8.16 31-18.15 34.18-7.51 54.72-174.8 90-31.24h33.74l40.38-51 3-9.31 56.77-18.23v-13.62l31.26-66.23h35.66l-5.75-1.11-26.92-5.23-22.49-45.34v-33.57l12.85-4.54-12.85-6.34v-21.78l27.85-12.7 18.22-34 17.12-62.11 8-58.5-21.3-8.9 2-36 3.21-39 27.31 2.32 3.47.3 39.36 3.32-41.78-10.69 15.87-114z" fill="url(#s)" id="reuse-54"/><path fill="url(#R)" d="M643.37 611.85h-3.82v70.75l12.93-3.63-9.11-67.12z" id="reuse-53"/><path fill="url(#Q)" d="M243.38 322l8.03 5.07 18.73 81.68 33.48 87.01 10.44 3.41-22.49-91.28-13.66-103.03-30.54-.75h-18.44L249 411.41 243.38 322z" id="reuse-52"/><path d="M669.4 891.2l-113.7-25.75-12.6-16.38.68.42 5.2-5.61h26.12l61.65 10.82-32.54-10.82 6.23-4.6 44.18 7.48 5.68-2.84 41.29 4.92-20.5-8.68-15.26-26.72-8.55-92.7 3-3.65 5.59 40.39V690l-26.28 2.18 4 131.12-29.14-13.06v-45.1l5.53-6.81-11.15-129.25s-11.24-5.11-15.26-2.9l-6.42 33.74 12.56 143.28-13.43-1.8-11.44-118.79-2.6 4 2.25 113.22-5 3.4-34.06-17.37-11-55L480.19 646v-19.58l-35.4-38.09h-9.19l-21.43-49.69-62.17 19.1 20.4 102.8 103.1 63.78v52.6l-8.28-20.84-16.55 85.6-48-10.85-53.1-153.4-8.23 7.48-6.34 17.14-.78 98.95-40.28-31.84-14-68.37L306 728.86l8 5.44-43.85-149.43-30.53 7.34L248 544.5l-105.41 4.65 107.11-14.34v-41.2l-35.21-6L190 411.87l-35.76 1.23 34.64-8.1-6-39 18.8-63-38.2-50.08 7.26 92.52-2.83-3.07L152.2 225l13.53-14 14.46-10.89-1.38-11.51L20.1 198.85l-2.83-2.72 160.64-14.94-.07-.73H79.53l97.67-5.25-5.3-44.14-13.43-13.55L51 115.91l4.82-2.45 96.18-2.55-44.61-45.06 8.54-14.06 9.64 9.47 14.91-58.94h-83l84.11-4.13 9.73-38.5H-.79V994.37l43.37-12.92h160.64l-20.88-11.56h-15.26l-37.75-14.21 64.32-8.52H347l-18.47-10.56-42.09-9.83 4.08-1.06 66.67-1.13-10.19-5.49h-43.38l8.58-3.84 132.8-8.66h53.21l20.66-2.75-16.23-2.21 42.76-2.31 120.45-3.4 6.46-4.11h-.1zM176.46 420l22.43 76.9c-1.58-3.78-26.77-64.73-28.28-63.86zm-51.95-79.37l12.31 34.48 8 23.57-8 15.37-16.58.52zm-36.95 570l-32.93-66.75 21.69-4.6 21.43 10.88 3.47 58.15zM126.12 503L94 469.45v-10.89l14.46-5 26.76 48.09zm18.73 280.46l-13.91-163.89 9.63-7.49 18.22 36.74zm38 52.54l11.54-128-14.2 91.85 10.18-147.61 24.1-3.4 9.64 16.3 10.44 139.45zm77-228l23.71 72.46-26.92-44.9-2-23.48zm-5.2 211.09l25.28-15 64.13 39.77z" fill="url(#k)" id="reuse-51"/><path fill="url(#P)" d="M624.1 908.31l19.69 1.67-4.69 2.99H600l7.23-4.66h16.87z" id="reuse-50"/><path fill="url(#M)" d="M434.54 933.16l18.06 12.24h-45.37l7.65-11.24h10.41l9.25-1z" id="reuse-49"/><path fill="url(#L)" d="M406.43 979.76l8.45 4.41h-34.95l9.12-4.41h17.38z" id="reuse-48"/><path fill="url(#K)" d="M315.28 966.81l18.86 14.64v2.72h-80.32l16.49-7.83 3.21-7.13 41.76-2.4z" id="reuse-47"/><path fill="url(#N)" d="M233.2 1014.56l12.85 9.96H97.75l40.16-7.24 14.97-9.98 11.79-10.43h48.19l20.34 17.69z" id="reuse-46"/><path fill="url(#j)" d="M209.1 1075.32l31.07 14.91H-.79v-88.37l35.34 27.21h16.07l7.48 9.98 42.86 8.16 41.77 28.11h66.37z" id="reuse-45"/><path fill="#29361f" d="M648.19 829.58l44.78 9.7-25.5-8.85-19.28-.85zM569.48 823.98l9.64-2.05 4.62 2.05 7.22-1.02 28.92 7.47-50.4-6.45zM475.5 830.43l9.64 4.6 27.51 1.02-9.03-5.62H475.5zM321.02 859.24l-50.88-7.26-6.41 2.73-8.3-5.91h-4.82l-35.07-10.65v4.07l9.1 8.85-4.82 3.86-28.91-14.06-3.75 15.87-6.96-.45 7.49 9.75 91.57 5.66 100.39-3.84-58.63-8.62zM334.95 843.87l29.31-7.14-20.08-2.73-9.23 4.15v5.72zM509.18 876.61l31.14 4.45-23.4-7.75-8.48.65.74 2.65zM640.7 814.57l16.06-4.31 6.42 2.15 31.6 11.91-34.54-7.04-9.37 1.82 6.42 2.83-31.59-1.92 15-5.44z" id="reuse-44"/><path d="M509.76 563.33l-16.77-12.58-228.32 52.82 245.09-40.24zM628.11 584.87l-2.41 18.7 21.69-11.22-19.28-7.48zM686.74 669.9l-292.36 42.63 292.36-24.26 8.36-6.12-8.36-12.25zM135.22 758.33l42.84-20.41 101.73-17.22-39.62-8.17L-.79 733.84v91.83l184.74-42.84h27.3l401.6-66.68-450.32 44-27.31-1.82z" id="reuse-43"/><path d="M266 120.28L-.79 113.42v70.59l264.19-13.1 2.6-50.63zM20.09 104.4L266 110.3l1.24-14.07-247.15 3.18v4.99zM42.59 293.51l-3.22 5.89 79.25 14.06 28.91-11.79 166.53 4.08-19.62-30.18L-.79 242.26v42.09l207.76 14.59-164.38-5.43zM65.88 229.79l220.02 17.02-3.43-11.57-214.99-7.15-1.6 1.7zM-.79 196.91v8.17l208.3-18.37-208.3 10.2zM262.66 255.24l-161.04-15.58 146.98 18.7 14.06-3.12zM291.57 486.7l-225.69 2.71-8.84-7.7 234.53-26.31 74.92 10.94-26.72-60.37L-.79 419.58v91.6l297.18-20.86-4.82-3.62zM193.65 628.18l-74.49-14.51 33.19-12.7h58.9l247.39-75.99-69.85-8.27-389.58 50.7v92.51l201.33-21.77-6.89-9.97zM140.57 690.77l327.17-42.63 125.83-21.96-39.37-29.53-98.77 39.7-314.86 54.42z" id="reuse-42"/><path d="M760.09 864.92l-19.27-11.36-30.53-7.27-2.57-.54L717 844l8.4-.2-3.61-2.18-10.91-6.63v3.3l-5.42.83v3.79l-10.66.09-69.1-14.62v4.73l-72.29-7.49-22.48 7.49 49.79 6.8-98.79-1.36-23.29-8.16H404l-78.71 21.81 36.14 2 42.57 8.88-211 6.36-21.1 2.49-17.07-4.74S107 882 107.09 882.91-.79 878.74-.79 878.74v81.62l9.64-7.48 41.77 2.77 47.12 2 13.12 4.06h7.22l30.78 1.29-19.52-7.36-73.5-39.5 18.07.67 64.66-8.52 37.34 3.06 10-3.79 53.82 8.52h14l16.42 2.81-52.87-21.43 14.86-6.12 12.05 1.7 9.63-4.09 87.55-4.08 35.74 1.37-.8-4.08 79.12 6.11 20.88 4.73 6.83-3.06 17.67 3.06-20.08-10-21.29-14.8 13.25-2.38 24.9 2.38-2-5.11 22.09 3.41L545 876l51.81-3 8.43-2-76.7-20.75 96 21.78 50.2-2 1.2-4.42-42.17-11.14 43.38 5.36 36.94 6.8-3.61-4.73 32.52-2.56z" fill="#29361f" id="reuse-41"/><path fill="url(#O)" d="M679.1 912.97H600l7.23-4.66h16.87l19.69 1.67 35.31 2.99z" id="reuse-40"/><path fill="url(#N)" d="M246.05 1024.52H97.75l40.16-7.24 14.97-9.98 11.79-10.43h48.19l20.34 17.69 12.85 9.96z" id="reuse-39"/><path fill="url(#M)" d="M452.6 945.4h-45.37l7.65-11.24h10.41l9.25-1 18.06 12.24z" id="reuse-38"/><path fill="url(#L)" d="M414.88 984.17h-34.95l9.12-4.41h17.38l8.45 4.41z" id="reuse-37"/><path fill="url(#K)" d="M334.14 981.45v2.72h-80.32l16.49-7.83 3.21-7.13 41.76-2.4 18.86 14.64z" id="reuse-36"/><path fill="url(#j)" d="M240.17 1090.23H-.79v-88.37l35.34 27.21h16.07l7.48 9.98 42.86 8.16 41.77 28.11h66.37l31.07 14.91z" id="reuse-35"/><path d="M728.51 891.2h-63.19l6.87.62h.1l32.71 3-39.13 1.18-120.45 3.4-42.76 2.31 16.23 2.21-20.7 2.71H445l-132.8 8.66-8.58 3.84H347l10.18 5.49-66.67 1.13-4.08 1.06 42.09 9.83L347 947.11H193.65l-64.32 8.53 37.75 14.2h15.26l20.88 11.56H42.58l-43.37 13V-40.26h275.05L263.4 170.9l31 104.67 19.6 30.18L339.74 406l49 110.79 69.9 8.23 17.12 12.85 117.81 88.35c4-2.21 15.26 2.9 15.26 2.9l8.84-37.41 10.44-6.8 19.28 7.48 2.38-1.46 9.67-6 27.3 25.07v59.87l8.36 12.26-8.36 6.11 11.26 6.15 5 82.09.39 3 1.06 7.86 6.39 47.66 18.73 11.36h-19.28l30.53 7.22 19.27 11.36 5.91-2.28 12.92 4.81 22.42 8.35H811l6.43 9.06z" fill="url(#r)" id="reuse-34"/><path d="M534.62 897.91l-.29.06a.16.16 0 00-.13-.06z" fill="url(#J)" id="reuse-33"/><path d="M722.08 914.38v.25l-31 .21c5.27-.08 17.61-.24 31-.46z" fill="url(#I)" id="reuse-32"/><path fill="url(#H)" d="M712.45 922.22l9.64.05v1.01l-2.38 1.17h-.04l-7.22-2.23z" id="reuse-31"/><path fill="url(#G)" d="M1488.71 1058.29h-25.54l-.99-1.2 26.53 1.2z" id="reuse-30"/><path fill="#bd8054" opacity=".36" style="isolation:isolate" d="M1138.27 954.95l199.54 6.44 3.41 9.5-188.5-12.84-14.45-3.1zM1073.31 876.42l-69.4-.92-18.25-.25-6.01-15.35-.96-2.44 381.26 1.96-17.83-6.89h123.11l-74.21 5.91h136.15l4.43 8.68-344.72-4.03 33.41 5.12-167.16-.84-17.67-.09 18.31.35.06.03 187.37 3.73h.03l21.66 3.31 10.22 4.42-199.68-2.7h-.12zM1299.58 890.57h12.85l.93 2.56-229.71-6.59h206.61l9.32 4.03zM1326.34 929.4l5.66 15.73-215.49-8.22h-.03l-58.53-2.24-4.63-4.16-20.27-18.22-3.34-3.02 71.64.56 218.6 1.75 1.64 4.57h235.17l.64 1.31-233.5 5.08.16.47-251.21-6.29 253.49 12.68zM1427.16 987.4l-3.86-1.74 170.25 2.4 2.25 4.35-81 .6v-2.77l-87.64-2.84zM1449.94 1042.51l-69.66-4.8h-.03l-124.72-8.54 139.98 5.91 49.96 2.09 4.47 5.34zM1488.71 1058.29l6.59 7.78-61.2-5.66-34.73-6.15 62.81 2.83 26.53 1.2zM1436.25 1026.21l-263.29-7.87h-.12l-85.98-2.56-.61-11.69-.03-.44-.71-13.41-.25-4.62 42.5 1.3h.03l235.82 7.15-14.04.11.06.19 73.64 16.33 6.27 7.48h179.43l2.02 3.95-175.09 3.64.35.44z" id="reuse-29"/><path fill="url(#F)" d="M1718.53 1019.87l-6.37.14-30.49.62-70.68 1.5-175.09 3.64.35.44 9.22 10.96 4.47 5.34 12.24 14.58 26.53 1.2 6.59 7.78.03.02 20.53 24.14h-37.84l-2.93-16.65-20.75-3.22-65.48-10.11-36.95-12.24h-83.53l-77.1-6.29-30.52-9.15v-8.45l-33-4.44h-.25l-3.7-.54-36.95-3.36-.61-11.69-.03-.44-.45-8.97-.26-4.44-.25-4.62-17.51-14.67-9.8-8.22v-28.06l-4.63-4.16-20.27-18.22-3.34-3.02-3.89-3.49-8.58-11.83-9.83-13.61-3.5-4.84-.19-.25h-18.06l-6.04-15.35-2.89-7.37h689.36l5.08 16.19-77.98-.9-48.57-.57-13.02-.13-344.72-4.03 33.41 5.12h.03l20.88 3.18h.03l21.66 3.31 10.22 4.42 17.15 7.42 9.32 4.03h12.85l.93 2.56 6.59 18.45 1.64 4.57h295.44l-28.17.62-31.43.69h-.03l-233.5 5.08.16.47 2.28 6.39 5.66 15.73 5.81 16.26 3.41 9.5 4.91 13.69 77.17 1.08 170.25 2.4 59.75.84 52.34.74 3.44.06.57 1.93h-2.21l-51.37.38-60.27.4-81 .6-151 1.06h-.19l-14.04.11.06.19 73.64 16.33 6.27 7.48h288.44l.55 1.69z" id="reuse-28"/><path d="M1497.05 1090.23v-20.53l-565 9c-.36.35-6.59 5.79-13.4 11.53zM1268.94 1060.93l-353.46-2c.61 1 1 1.57 1 1.57l5 5.84zM1172.92 1018.32h.09c-3.27 0-210.27 6.31-277.87 8.37q1.68 2.64 3.31 5.16l187.08 2.63v2.39l-182.23 2.65c1.28 2 2.47 3.94 3.6 5.74l396.29 5.78 126.39-21.89s-263.8-10.46-256.66-10.83zM1137.22 1002.46l-20-32.89-227.43 6.36 129.57 3.2 8.58 5.55L869 987.25c.26.37.55.76.81 1.16 1.6 2.3 3.24 4.73 4.88 7.18.45.62.87 1.27 1.28 1.89s.71 1 1 1.53c2.54 3.79 5.08 7.58 7.58 11.45zM787.71 945.26l317.38-17.62 23.55 19.08-332.2 6.85-8.73-8.31zM1108.36 911.71l-75.31.58-257 1.89H776l-53.85.41-31 .22c5.24-.09 17.58-.25 31-.47v-3.79l5.53-1.49h-39.2v-.73l43.53-.47 16.55-4.48h.06l192.38-1.3-20.82-3.27-141.36-3.48 5-1.39h258.08l59.47 15.89zM991.11 929.12l-245.46 3.26 21.59 6.61 223.87-9.87zM1082.59 880.61l-75.18-.27-225.28-.79-112.48-16.98 309.97-2.67h.03l55.81-.48 17.67 7.95.64.26.06.03 19.48 8.76h.09l9.19 4.19z" id="reuse-27"/><path d="M1712.16 1020l-30.49.62-70.67 1.48-175.09 3.64.35.44 9.22 11 4.47 5.33 12.24 14.58 26.54 1.2 6.58 7.78 20.53 24.12H918.58c3.4-2.84 6.65-5.68 9.12-7.78s4.08-3.59 4.27-3.79l-.28-.33-6-7.07-4-4.6-.25-.33-5-5.82s-.39-.54-1-1.57l-3.47-5.56-.25-.41a53.33 53.33 0 00-1.8-2.84l-3-4.87-.42-.66c-.45-.7-.9-1.44-1.39-2.18-.57-.94-1.18-1.89-1.79-2.9-.45-.71-.93-1.44-1.42-2.18-.09-.13-.16-.28-.26-.41-1-1.64-2.08-3.35-3.21-5.08-.35-.52-.7-1.07-1-1.61a84.99 84.99 0 01-2.25-3.54c0-.08-.1-.14-.13-.22l-5.62-8.68c-.23-.33-.42-.68-.65-1l-1.35-2-2.79-4.32c-2.51-3.84-5-7.7-7.55-11.46-.36-.51-.68-1-1-1.53-.23-.32-.42-.65-.67-1l-.65-.95c-1.64-2.44-3.24-4.86-4.85-7.15-.26-.4-.54-.79-.8-1.17a535.28 535.28 0 00-8.55-12c-3.44-4.65-6.42-8.53-8.83-11.13a6.3 6.3 0 00-.35-.38c-.26-.27-.49-.55-.74-.79-1.74-1.79-3.06-2.78-3.76-2.67-2.38.27-8.23-.18-15.14-.94-1.6-.16-3.24-.35-4.94-.54-.81-.09-1.61-.17-2.41-.28-.52-.05-1.06-.14-1.61-.19-.93-.14-1.83-.24-2.7-.36-11.47-1.41-22.13-3-22.13-3l-1.48-1.38-8.74-8.31-.26-.07-10.7-3.3-9.45-2.84-21.59-6.63-25.92-7.94-7.23-2.23-8.71-2.67h18.34v-4.92l-31 .22c5.24-.09 17.58-.25 31-.47v-3.86l5.53-1.5h-39.27v-.73l43.53-.46 16.55-4.49h.06l19.38-5.1-83.28-.11h-8.93l-2.89-1.33 10.92-.06 91.12-.38 3.76-1h.06l5-1.39 33.61-9.09-35.28-5.3-112.44-17h-.32l-37-5.55h-.07l-1.09-.49-9.28-4h957.24l14.1 15.29-48.57-.57-13-.13-344.72-4 33.41 5.13 20.88 3.18 21.66 3.31 10.22 4.42 17.15 7.42 9.32 4h12.85l.93 2.57 6.59 18.45 1.64 4.57H1617l-28.17.62-31.42.69-233.5 5.08.16.47 2.28 6.39 5.65 15.73 5.81 16.26 3.41 9.47 4.91 13.69 77.17 1.08 170.25 2.36 59.75.84 52.34.74 1.8 2-51.37.38-60.27.41-81 .59-151 1.06h-.19l-14 .12.06.19 73.6 16.41 6.27 7.48H1712z" fill="url(#E)" id="reuse-26"/><path fill="#c78f99" opacity=".36" style="isolation:isolate" d="M823.67 941.18l-4.3 2.32-.07.02-18.63 9.96-2.76 1.47-99.53 9.41.99-9.52 88.03-9.66h.03l36.24-4zM550.27 947.11l-8.58 1.47-13.79-.33 5.47-1.14h16.9zM859.3 922.11l-16.48 9h-.35l-5.08 2.7-23.58 3.13h-.13l-37 4.92-77.59 10.42-111.71-2.62-17.16-.43 11.27-2.12h118.65l1.45-14 18.09-8.71-7.23-2.23-57.8-.3 11.35-2.36h56.12v-4.92l-31 .22c5.24-.09 17.58-.25 31-.47 21.95-.27 46.85-.62 48.32-.62.39 0 2.41.16 5.53.46h.1c19.59 1.75 83.23 7.93 83.23 7.93zM596.75 919.55l-11.56 1.99h-.06l-21.05-.14-109.88-.6 6.75-1.25h135.8zM660.3 908.69l-2.57.43h-39.8l42.37-.43zM423.84 919.55l-6.2 1.06h-1.92l5.52-1.06h2.6zM553.77 897.29l-3.66.62h-15.49l2.96-.57h.06l16.13-.05zM684.75 898.11h-8.93l-98.66-.14 4.21-.79h.09l91.47-.4 10.92-.06.9 1.39zM665.83 852.53l-34.7 4-1.15.13-27.51-4.13h63.36zM893.04 995.6l-17.67.9-181.24 9.25.52-4.87 128.89-9.72 9-5.73-137.41 10.74.23-2.23 165.16-18.75 11.09-1.25L884.52 987l8.52 8.6zM902.1 1020.79v5.42l-7.07.29-232.57 9.59h-.07l-28.63-.31-5.91-.05 5.76-.4 255.15-18.5 4.28-.31 9.06 4.27zM867.33 955.79l-3.75 6.94-12.24.94-154.12 12.09.32-3.26 134.17-13.2 35.62-3.51zM619.6 1027.37l-106.73 6.13-2.02-2.58-1.74-2.23 26.89-.33h.03l83.57-.99zM846.84 1014.32l-154.47 8.87.25-2.78 154.22-6.09zM881.25 1039.86l-218.31 11.35 7.65-5.16h19.43l.58-5.88 206.81-9.91 4.69-.22 10.73 2.02h.06l12.82 2.44-23.81 2.86-20.65 2.5zM925.71 1052.09l-13.94.92-104.42 7.04-159.93 9.12-103.23 5.85 10.8-2.37h.22l11.44-2.58 53.24-11.78h32.57l2.74-1.9.03-.03h.06l221.68-6.51-233.92 12.28-34.79 1.81 9.54 1.77 26.54-1.41 265.63-14.14 5.55-.31 10.19 2.24zM925.71 1043.94l-5.55-2.22-192.57 9.35 198.12-7.13zM953.02 1065.71v4.9l-27.37.68-272.25 6.89-7.75.19h300.43l-.1.11-12.5 11.75H544.71v-11.86l106.63-3.29 270.35-8.38 20.98-.65 10.35-.34zM800.41 1009.12l-107.11 4.87.13-1.42 106.98-3.45zM810.05 973.01l-113.67 10.92.2-1.94 113.47-8.98z" id="reuse-25"/><path d="M851.69 964.06l-.35-.38c-.12-.13-.49-.54-.74-.79-1.74-1.79-3.06-2.78-3.76-2.66-2.38.26-8.23-.19-15.14-1-1.6-.16-3.24-.35-4.94-.54a93.4 93.4 0 01-2.41-.27c-.52-.06-1.06-.14-1.61-.19-.93-.14-1.83-.25-2.7-.36-11.47-1.41-22.13-3-22.13-3l-99.54 9.42-.83 8.14-.32 3.27-.64 6.23-.2 1.89-1 10 165.16-18.75a182.76 182.76 0 00-8.85-11.01zm-156.56 32.11l-.48 4.74 128.89-9.72 9-5.74zm156.56-32.11l-.35-.38c-.12-.13-.49-.54-.74-.79-1.74-1.79-3.06-2.78-3.76-2.66-2.38.26-8.23-.19-15.14-1-1.6-.16-3.24-.35-4.94-.54a93.4 93.4 0 01-2.41-.27c-.52-.06-1.06-.14-1.61-.19-.93-.14-1.83-.25-2.7-.36-11.47-1.41-22.13-3-22.13-3l-99.54 9.42-.83 8.14-.32 3.27-.64 6.23-.2 1.89-1 10 165.16-18.75a182.76 182.76 0 00-8.85-11.01zm-156.56 32.11l-.48 4.74 128.89-9.72 9-5.74zm156.56-32.11l-.35-.38c-.12-.13-.49-.54-.74-.79-1.74-1.79-3.06-2.78-3.76-2.66-2.38.26-8.23-.19-15.14-1-1.6-.16-3.24-.35-4.94-.54a93.4 93.4 0 01-2.41-.27c-.52-.06-1.06-.14-1.61-.19-.93-.14-1.83-.25-2.7-.36-11.47-1.41-22.13-3-22.13-3l-99.54 9.42-.83 8.14-.32 3.27-.64 6.23-.2 1.89-1 10 165.16-18.75a182.76 182.76 0 00-8.85-11.01zm-156.56 32.11l-.48 4.74 128.89-9.72 9-5.74zm156.56-32.11l-.35-.38c-.12-.13-.49-.54-.74-.79-1.74-1.79-3.06-2.78-3.76-2.66-2.38.26-8.23-.19-15.14-1-1.6-.16-3.24-.35-4.94-.54a93.4 93.4 0 01-2.41-.27c-.52-.06-1.06-.14-1.61-.19-.93-.14-1.83-.25-2.7-.36-11.47-1.41-22.13-3-22.13-3l-99.54 9.42-.83 8.14-.32 3.27-.64 6.23-.2 1.89-1 10 165.16-18.75a182.76 182.76 0 00-8.85-11.01zm-156.56 32.11l-.48 4.74 128.89-9.72 9-5.74zm156.56-32.11l-.35-.38c-.12-.13-.49-.54-.74-.79-1.74-1.79-3.06-2.78-3.76-2.66-2.38.26-8.23-.19-15.14-1-1.6-.16-3.24-.35-4.94-.54a93.4 93.4 0 01-2.41-.27c-.52-.06-1.06-.14-1.61-.19-.93-.14-1.83-.25-2.7-.36-11.47-1.41-22.13-3-22.13-3l-99.54 9.42-.83 8.14-.32 3.27-.64 6.23-.2 1.89-1 10 165.16-18.75a182.76 182.76 0 00-8.85-11.01zm-156.56 32.11l-.48 4.74 128.89-9.72 9-5.74zm-22.2-99.42l-91.47.4h-.09l-27.6.11-16.13.06h-4.27l-91.5.4 92.33.14a.15.15 0 01.13 0h42.78l98.66.14zm178.76 67.31l-.35-.38c-.12-.13-.49-.54-.74-.79-1.74-1.79-3.06-2.78-3.76-2.66-2.38.26-8.23-.19-15.14-1-1.6-.16-3.24-.35-4.94-.54a93.4 93.4 0 01-2.41-.27c-.52-.06-1.06-.14-1.61-.19-.93-.14-1.83-.25-2.7-.36-11.47-1.41-22.13-3-22.13-3l-99.54 9.42-.83 8.14-.32 3.27-.64 6.23-.2 1.89-1 10 165.16-18.75a182.76 182.76 0 00-8.85-11.01zm-156.56 32.11l-.48 4.74 128.89-9.72 9-5.74zm-98.37-76.62l-11.57 2 69.46.38 11.35-2.38zm254.93 44.5l-.35-.37c-.26-.28-.49-.55-.74-.8-1.74-1.79-3.06-2.77-3.76-2.66-2.38.26-8.23-.19-15.14-1-1.6-.16-3.24-.35-4.94-.54a93.4 93.4 0 01-2.41-.27c-.52-.06-1.06-.14-1.61-.19-.93-.14-1.83-.25-2.7-.36-11.47-1.41-22.13-3-22.13-3l-99.54 9.43-.83 8.14-.32 3.27-.64 6.23-.2 1.89-1 10 165.16-18.75c-3.46-4.6-6.44-8.43-8.85-11.08zm-156.56 32.12l-.48 4.74 128.89-9.72 9-5.74zm-98.37-76.62l-11.57 2 69.46.38 11.35-2.38zm254.93 44.5l-.35-.37c-.26-.28-.49-.55-.74-.8-1.74-1.79-3.06-2.77-3.76-2.66-2.38.26-8.23-.19-15.14-1-1.6-.16-3.24-.35-4.94-.54a93.4 93.4 0 01-2.41-.27c-.52-.06-1.06-.14-1.61-.19-.93-.14-1.83-.25-2.7-.36-11.47-1.41-22.13-3-22.13-3l-99.54 9.43-.83 8.14-.32 3.27-.64 6.23-.2 1.89-1 10 165.16-18.75c-3.46-4.6-6.44-8.43-8.85-11.08zm-156.56 32.12l-.48 4.74 128.89-9.72 9-5.74zm-98.37-76.62l-11.57 2 69.46.38 11.35-2.38zm254.93 44.5l-.35-.37c-.26-.28-.49-.55-.74-.8-1.74-1.79-3.06-2.77-3.76-2.66-2.38.26-8.23-.19-15.14-1-1.6-.16-3.24-.35-4.94-.54a93.4 93.4 0 01-2.41-.27c-.52-.06-1.06-.14-1.61-.19-.93-.14-1.83-.25-2.7-.36-11.47-1.41-22.13-3-22.13-3l-99.54 9.43-.83 8.14-.32 3.27-.64 6.23-.2 1.89-1 10 165.16-18.75c-3.46-4.6-6.44-8.43-8.85-11.08zm-156.56 32.12l-.48 4.74 128.89-9.72 9-5.74zm-98.37-76.62l-11.57 2 69.46.38 11.35-2.38zm254.93 44.5l-.35-.37c-.26-.28-.49-.55-.74-.8-1.74-1.79-3.06-2.77-3.76-2.66-2.38.26-8.23-.19-15.14-1-1.6-.16-3.24-.35-4.94-.54a93.4 93.4 0 01-2.41-.27c-.52-.06-1.06-.14-1.61-.19-.93-.14-1.83-.25-2.7-.36-11.47-1.41-22.13-3-22.13-3l-99.54 9.43-.83 8.14-.32 3.27-.64 6.23-.2 1.89-1 10 165.16-18.75c-3.46-4.6-6.44-8.43-8.85-11.08zm-156.56 32.12l-.48 4.74 128.89-9.72 9-5.74zm-98.37-76.62l-11.57 2 69.46.38 11.35-2.38zm0 0l-11.57 2 69.46.38 11.35-2.38zm1084.91 101.08l-2.18-2.45h-250l-6.27-7.48-73.64-16.33-.06-.19 14-.11h.19l151-1.06 81-.6L1656 992l-2.77-3.11-59.75-.84-170.25-2.4-77.23-1.07-4.91-13.69-3.41-9.47-5.68-16.29-5.66-15.73-2.28-6.39-.16-.47 233.5-5.08 31.42-.69-.55-.62h-266.68l-1.64-4.57-6.59-18.45-.93-2.57h-12.85l-9.32-4-17.15-7.41-10.22-4.42-21.66-3.31-20.88-3.18-33.41-5.13 344.72 4 13 .13-13.18-14.72h-929l27.52 4.14 2.24.36h.07l37 5.55h.32l112.48 17 35.28 5.3-33.61 9.09-5 1.39h-.06l-3.72 1-91.12.38-10.92.06-91.47.4h-.09l-27.6.11-16.13.05h-4.27l-91.5.41 92.33.13a.16.16 0 01.13.06l.29-.06h15.49l27 .06 98.66.14h8.93l83.28.11-19.41 5.22h-.06L732 907.93l-43.53.46-28.11.3h-.07l-42.37.43h109.69l-5.53 1.5v3.79c-13.39.22-25.73.38-31 .46l31-.22v4.93H421.24l-5.52 1.06h1.92l36.5.19h.06l109.88.59 21 .15h.07l69.46.38 57.8.3 7.23 2.22-18.09 8.71-1.45 14h-221l48.77 1.14 13.78.33 28.53.65 17.15.41L699 952.28h.55l-.26 2.59-1 9.47-.83 8.14-.32 3.27-.64 6.23-.2 1.89-1 10-.23 2.24-.48 4.73-.52 4.87-.7 6.83-.13 1.42-.68 6.42-.25 2.77-.36 3.31-61.46.74-10.95.14-83.57.94-26.89.33 1.74 2.23 2 2.58.8 1 114.12 1.2H633.72l28.62.3h.07l28.49.3-.35 3.79-.55 5.99h-19.42l-7.64 5.17-7.65 5.14h-.06l-2.74 1.9h-32.6L566.65 1070l-11.44 2.58H555l-10.8 2.37h-.09l-7.78 1.74 8.39 1.57v11.87h971.15l-20.53-24.13-6.58-7.77-26.54-1.21-12.22-14.6-4.47-5.33-9.22-11-.35-.43 175.06-3.58zM596.76 919.55l-11.57 2 69.46.38 11.35-2.38zm98.37 76.62l-.48 4.74 128.89-9.72 9-5.74zm156.56-32.11l-.35-.38c-.12-.13-.49-.54-.74-.79-1.74-1.79-3.06-2.78-3.76-2.66-2.38.26-8.23-.19-15.14-1-1.6-.16-3.24-.35-4.94-.54a93.4 93.4 0 01-2.41-.27c-.52-.06-1.06-.14-1.61-.19-.93-.14-1.83-.25-2.7-.36-11.47-1.41-22.13-3-22.13-3l-99.54 9.42-.83 8.14-.32 3.27-.64 6.23-.2 1.89-1 10 165.16-18.75a182.76 182.76 0 00-8.85-11.01zm-254.93-44.5l-11.57 2 69.46.38 11.35-2.38zm98.37 76.62l-.48 4.74 128.89-9.72 9-5.74zm156.56-32.12l-.35-.38c-.12-.13-.49-.54-.74-.79-1.74-1.79-3.06-2.78-3.76-2.66-2.38.26-8.23-.19-15.14-1-1.6-.16-3.24-.35-4.94-.54a93.4 93.4 0 01-2.41-.27c-.52-.06-1.06-.14-1.61-.19-.93-.14-1.83-.25-2.7-.36-11.47-1.41-22.13-3-22.13-3l-99.54 9.42-.83 8.14-.32 3.27-.64 6.23-.2 1.89-1 10 165.16-18.75a182.76 182.76 0 00-8.85-11.01zm-254.93-44.5l-11.57 2 69.46.38 11.35-2.38zm98.37 76.62l-.48 4.74 128.89-9.72 9-5.74zm156.56-32.12l-.35-.38c-.12-.13-.49-.54-.74-.79-1.74-1.79-3.06-2.78-3.76-2.66-2.38.26-8.23-.19-15.14-1-1.6-.16-3.24-.35-4.94-.54a93.4 93.4 0 01-2.41-.27c-.52-.06-1.06-.14-1.61-.19-.93-.14-1.83-.25-2.7-.36-11.47-1.41-22.13-3-22.13-3l-99.54 9.42-.83 8.14-.32 3.27-.64 6.23-.2 1.89-1 10 165.16-18.75a182.76 182.76 0 00-8.85-11.01zm-254.93-44.5l-11.57 2 69.46.38 11.35-2.38zm98.37 76.62l-.48 4.74 128.89-9.72 9-5.74zm156.56-32.12l-.35-.38c-.12-.13-.49-.54-.74-.79-1.74-1.79-3.06-2.78-3.76-2.66-2.38.26-8.23-.19-15.14-1-1.6-.16-3.24-.35-4.94-.54a93.4 93.4 0 01-2.41-.27c-.52-.06-1.06-.14-1.61-.19-.93-.14-1.83-.25-2.7-.36-11.47-1.41-22.13-3-22.13-3l-99.54 9.42-.83 8.14-.32 3.27-.64 6.23-.2 1.89-1 10 165.16-18.75a182.76 182.76 0 00-8.85-11.01zm-254.93-44.5l-11.57 2 69.46.38 11.35-2.38zm98.37 76.62l-.48 4.74 128.89-9.72 9-5.74zm156.56-32.12l-.35-.38c-.12-.13-.49-.54-.74-.79-1.74-1.79-3.06-2.78-3.76-2.66-2.38.26-8.23-.19-15.14-1-1.6-.16-3.24-.35-4.94-.54a93.4 93.4 0 01-2.41-.27c-.52-.06-1.06-.14-1.61-.19-.93-.14-1.83-.25-2.7-.36-11.47-1.41-22.13-3-22.13-3l-99.54 9.42-.83 8.14-.32 3.27-.64 6.23-.2 1.89-1 10 165.16-18.75a182.76 182.76 0 00-8.85-11.01zm-289.54-44.5c.68.62 1.29 1.22 1.93 1.85l21 .14h.07l69.46.38 11.31-2.37zm133 76.62l-.48 4.74 128.89-9.72 9-5.74zM673 896.76l-91.47.4h-.09l-27.6.11-16.13.06h-4.27l-91.5.4 92.33.13a.16.16 0 01.13.06l.29-.06h15.49l27 .06 98.66.14zm22.2 99.42l-.48 4.74 128.89-9.72 9-5.74zm156.54-32.12l-.35-.38c-.12-.13-.49-.54-.74-.79-1.74-1.79-3.06-2.78-3.76-2.66-2.38.26-8.23-.19-15.14-1-1.6-.16-3.24-.35-4.94-.54a93.4 93.4 0 01-2.41-.27c-.52-.06-1.06-.14-1.61-.19-.93-.14-1.83-.25-2.7-.36-11.47-1.41-22.13-3-22.13-3l-99.54 9.42-.83 8.14-.32 3.27-.64 6.23-.2 1.89-1 10 165.16-18.75a202.08 202.08 0 00-8.9-11.01zm-156.61 32.11l-.48 4.74 128.89-9.72 9-5.74zm156.56-32.11l-.35-.38c-.12-.13-.49-.54-.74-.79-1.74-1.79-3.06-2.78-3.76-2.66-2.38.26-8.23-.19-15.14-1-1.6-.16-3.24-.35-4.94-.54a93.4 93.4 0 01-2.41-.27c-.52-.06-1.06-.14-1.61-.19-.93-.14-1.83-.25-2.7-.36-11.47-1.41-22.13-3-22.13-3l-99.54 9.42-.83 8.14-.32 3.27-.64 6.23-.2 1.89-1 10 165.16-18.75a182.76 182.76 0 00-8.85-11.01zm-156.56 32.11l-.48 4.74 128.89-9.72 9-5.74zm156.56-32.11l-.35-.38c-.12-.13-.49-.54-.74-.79-1.74-1.79-3.06-2.78-3.76-2.66-2.38.26-8.23-.19-15.14-1-1.6-.16-3.24-.35-4.94-.54a93.4 93.4 0 01-2.41-.27c-.52-.06-1.06-.14-1.61-.19-.93-.14-1.83-.25-2.7-.36-11.47-1.41-22.13-3-22.13-3l-99.54 9.42-.83 8.14-.32 3.27-.64 6.23-.2 1.89-1 10 165.16-18.75a182.76 182.76 0 00-8.85-11.01zm-156.56 32.11l-.48 4.74 128.89-9.72 9-5.74zm156.56-32.11l-.35-.38c-.12-.13-.49-.54-.74-.79-1.74-1.79-3.06-2.78-3.76-2.66-2.38.26-8.23-.19-15.14-1-1.6-.16-3.24-.35-4.94-.54a93.4 93.4 0 01-2.41-.27c-.52-.06-1.06-.14-1.61-.19-.93-.14-1.83-.25-2.7-.36-11.47-1.41-22.13-3-22.13-3l-99.54 9.42-.83 8.14-.32 3.27-.64 6.23-.2 1.89-1 10 165.16-18.75a182.76 182.76 0 00-8.85-11.01z" fill="url(#D)" id="reuse-24"/><path d="M566.65 1070.07l-1.06 2.75-10.38-.17 11.44-2.58zM539.89 1031.63l-29.04-.71-61.08-1.53 59.34-.7 26.89-.33h.03l3.86 3.27z" id="reuse-23"/><path d="M660.78 1090.23H544.71v-11.86l-8.39-1.58 7.78-1.74h.09l10.8-2.37h.22l11.44-2.58 53.24-11.78H641a46.17 46.17 0 002.09 3.79c.39.71.84 1.44 1.29 2.17 1 1.61 2 3.21 3.08 4.87 1.29 1.9 2.6 3.92 3.92 5.91.71 1 1.38 2.07 2.06 3.1a1.77 1.77 0 01.12.19c2.57 3.94 5.07 7.91 7.22 11.88z" fill="url(#C)" id="reuse-22"/><path d="M633.77 1035.78H627.79l-114.12-1.21-.8-1-2-2.58-61.08-1.53 59.34-.7 26.89-.33 83.57-.95 10.95-.13q1.65 4 3.06 8.08a3.07 3.07 0 01.17.35z" fill="url(#B)" id="reuse-21"/><path d="M587.37 949.64l-17.15-.44-28.53-.66-13.78-.29-48.77-1.14h106.47c.61.89 1.19 1.69 1.76 2.53z" fill="url(#A)" id="reuse-20"/><path d="M534.2 897.91l-92.33-.13 91.5-.41a9.87 9.87 0 01.83.54z" fill="url(#z)" id="reuse-19"/><path d="M564.08 921.4l-109.88-.61h-.06l-36.5-.19h-1.92l5.52-1.06h140.91c.68.63 1.29 1.25 1.93 1.86z" fill="url(#y)" id="reuse-18"/><path fill="url(#x)" d="M774.95 896.33l-336.12 1.45 329.2.43-36.02 9.72-114.08 1.19h109.68l-5.52 1.5v8.93H222.5l499.59 2.73v1l-20.5 9.88-1.45 13.95H479.13l220.51 5.14-7.62 74.24-442.92 5.3 441.86 4.59-.94 9.67h-19.43l-18.13 12.24h-32.57l-86.2 19.07H-.79v-227.2h587.52l230.68 34.69-42.46 11.48z" id="reuse-17"/><path d="M1482.44 882.59l-10.71-4.76-105.49-4.76-599.71 9.52-40.7 7.97h756.61v-7.97zM1503.85 906.38l30.26-4.07v-3.85l-575.62-.23 545.36 8.15zM1549.37 933.16l-986.32 6.11 792.89-1.69 193.43-4.42zM249.1 994.37l347.15 2.92 643.09-2.92H249.1zM1832.1 943.36l-4.29-3.4-682.44 3.4h686.73zM1094.77 966.81H585.01l226.23 1.94 283.53-1.94zM1231.31 1033.15l665.3 7.57 5.36-7.57h-670.66z" id="reuse-16"/><path d="M1239.36 827.26c-.48 53.32-222.51 95.1-495.92 93.29s-494.65-46.48-494.16-99.8 222.53-95.09 495.93-93.28 494.65 46.47 494.15 99.79z" fill="url(#q)" id="reuse-15"/><path fill="url(#e)" d="M1926.87 871.71v218.52h-411.01l-27.15-31.94h-25.54l-27.27-32.52 363.65-7.59h-370.01l-6.27-7.48-73.64-16.33-.06-.19 449.98-3.2-453.42-6.4-22.23-62.04 293.13-6.39h-295.44l-9.16-25.58h-12.85l-36.69-15.87-76.01-11.61 739.99 8.62z" id="reuse-14"/><path d="M1246.34 850.16l-575.76 8.72-3.69-2.88 291.36-13.89 160.07 5.33-16.13 2.72zM854.61 842.11H701.59l-1.55-2.83 160.81-1.58-1.68 1.12-4.56 3.29z" fill="#fff5c7" id="reuse-13"/><path d="M960 842.2c-.83 2.39-1.54 3.91-1.54 3.91l-163.05-4 53-7.13H695.1l6-1.82h166.62l-6.87 4.54-1.68 1.11 27.34.95h.17l71.57 2.4z" fill="#fff5e0" id="reuse-12"/><path d="M1926.87 850.16v240.07H-.79V850.16h651.07l9.7-17h207.74l-6.87 4.54-1.68 1.12 27.34.94h.17l71.57 2.4H960l158.3 5.27-16.13 2.72z" fill="url(#n)" id="reuse-11"/><path fill="url(#v)" d="M-.79-40.26h1927.66v1130.5H-.79z" id="reuse-10"/><path d="M1311.92 781.46L1273.07 801l-39.94 11.79 2.46-7.82s-10.17 3.28-12.31 3.28-21.46-.45-21.46-.45h-52.44l30.52-23.58-14.45 2.27-70.68 18.48-12.32-3.06-9.1 3.06h-60l52.47-17.58-4.82-6.8-110.3 24.34-19.11-8.28-23.73 4.73h-30l49.27-15-10.13-1.75-83.53 9.07-26.24 11.23-19.53-8.28-21.17 4.35-25.7 4 12.31-8.28-5.89-2-47.2 24.54 7.78 9.89L792 826.2h29.32l45.78-.51 3.21 4.74 86.35 7.26 66.26-3.27 111.24 5.19-8.83 4.65 84.67-2.16 49.9 7.9 63-34.75z" fill="#c2a863" id="reuse-9"/><path d="M1537.07 272l126.68-6.54 63.93-305.69h-108.3L1616 10l-100.18 22.75-34.7 15.07L1629 31.53l-13 31-278.71 46.8 275.49-28.41-8.78 29.37L1168.66 142l-1.61 73.86L1596.57 184v20.62l-87.57 7-27.79 30.72-246.64 41.2-14.46 7.58 236.14-18.64-24.48 41.09-292 27.2L1111.5 403l330.27-6.48-18.47 44-257.82 18.08h276.29l24.1 14.54-398.38 13.14-7 43.56 381.25-4.84-27.3 25.78-310.29 26.41L1451.54 557l-9.8 20.18-34.53 19.48L966 651.75l355.24-20-9.35 38.18-458.08 28.54v17.69l15.68 19 409.91-22.66-24.7 8.52-150.55 24.3L879.7 822l231.13-52.85 223.1-6.79 208.37 83.77 59.09-282.51-30.75-17.17-97.83-19H1609l20-95.58-66.18 4.08-19.28 64.62-426.24 5.23 398.61-19.51 41-92.05 81.38-6.81L1659.72 285l-86.2 6.06-27.86 18 99.6-6.63-16.13 10.05-97.69 14.66-45.78 37.35-331 20.25 331-40.49zm-140.14 423.75l-497.08 16.79L1396.93 679z" fill="#bd8054" opacity=".36" style="isolation:isolate" id="reuse-8"/><path fill="url(#i)" d="M1822.33-40.26l-1.8 14.06-113.73 889.29H672.29v-28.27l39.58-24.08 50.37-30.64 99.6-20.41 7.65-24.49-15.68-19.05v-17.68l20.78-40.81 25.64-23.13 154.5-69.38 12.73-78.91h18.02l22.14-74.83 32.12-70.74v-68.7l27.31-56.03.13-6.4.13-4.92.23-10.83.48-22.04.64-29.71 36.95-8.16 36.94-12.25v-20.68l30.52-22.42 77.11-15.4h83.53l36.95-29.93 86.2-32.65 2.92-40.81h262.55z" id="reuse-7"/><path d="M1254.7 135.8a.14.14 0 01.09 0c-3.27 0-210.27-15.45-277.87-20.51 1.13-4.3 2.22-8.52 3.31-12.63l187.08-6.42v-5.89l-182.23-6.48c1.29-4.89 2.48-9.62 3.6-14.07L1385 55.65l126.36 53.64s-263.8 25.65-256.66 26.51zM1219 174.69l-20 80.57-227.38-15.59 129.57-7.83 8.58-13.61-158.94-6.29c.26-.95.55-1.89.81-2.84a1917.22 1917.22 0 006.17-22.31c.35-1.25.7-2.48 1-3.79 2.54-9.19 5.08-18.6 7.58-28zM869.49 314.77l317.39 43.12 23.54-46.69-332.2-16.78-8.73 20.35zM770.28 416.12l252.49 4.36-20.83 8.02-197.39 11.93h319.13l66.46-43.53-419.86-7.7v26.92zM1072.89 354.27l-245.46-7.97 21.59-16.18 223.87 24.15zM1164.39 473.1l-47.13 51.88-389.81-8.27 23.93-25.19-10.02-14.8 423.03-3.62zM1095.83 584.87l-124.21 42.25-250.6-4.84 179.21-10.42 10.22-5-262.26 1.9-9.93-6.72 11.51-17.74 11.27-17.39 28.98-10.78 290.18 13.91H710.84l-15.74 7.13 400.73 7.7zM643.79 676.16l23.1 62.67 202.6 42.63 13.23-45.35-215.83-53.51 234.04 22.67 30.69-35.37-272.18-5.78-15.65 12.04z" id="reuse-6"/><path d="M1799.55-40.26L1797 37.39l-5.1 156.66-248.6 659.62-3.57 9.41H690l-5.94-9.39-11.76-18.53-51.5-81.22-40.07-63.15 57.54-88.73 11.51-17.74L661 566.91l29-10.77 37.43-39.43 23.94-25.19-10-14.8v-28.28l28.91-32.35v-26.88l57.15-42.91L849 330.12l20.49-15.35 8.73-20.35 1.48-3.42s10.64-3.79 22.11-7.32l2.7-.82 1.63-.49c.81-.24 1.61-.45 2.41-.67 8.94-2.54 17.16-4.38 20.05-3.57.74.22 2-2.15 3.79-6.58.36-.84.71-1.83 1.09-2.84 4.21-11.37 10.41-32.11 17.35-56.76.26-1 .55-1.89.81-2.84a1835.93 1835.93 0 006.17-22.31c.35-1.25.7-2.48 1-3.79 2.54-9.19 5.08-18.6 7.58-28l2.8-10.57 2-7.44c2-7.36 3.86-14.66 5.72-21.78 1.13-4.29 2.22-8.52 3.31-12.63s2.19-8.41 3.21-12.43l1.64-6.34c1.3-4.82 2.49-9.55 3.61-14 2-7.58 3.69-14.32 5.14-19.89 1.51-5.95 2.67-10.6 3.44-13.59.61-2.51 1-3.87 1-3.87l5-14.29L1013.8-12c-.35-.85-6.58-14.21-13.4-28.24z" fill="url(#h)" id="reuse-5"/><path d="M1034.78 7.81v12l-408.31-31v-29h388.81l12.59 29H727.45zM997.31 58.6l10.18-5.45-118.34-19.49-276.3-38.55-7.25 67.63 378.28 44.38 23.61-10.89L963 83.09 660.24 44.54l2.41-8 43.35 4L958.76 58.6 690 24.13l9.57-4.36zm-22.49 81.62l9.06-10.41v-13.26l-331.4-33.46zM594.63 98.69l-4.53 14.2 338.5 32.77zm72.84 161.92l238 64.16L879.7 291l-322.53-74.6-50.34 15.44 35.34 3.61L672.29 298l-130.67-51.18-8.54 3.48 248.44 114.4-15.52 1.35-203.49-84.78v2.18l207.77 105.76s79.25 2.69 81.92 2.69 88.9-20.4 88.9-20.4l-21.91-28.71zm-32.93-108.14l270.8 49.89 9 14-199.22-38.04 238.28 66.21 21.42-53-333.59-41.78zm-63.11 19.12L567.48 184l324.34 62.8zM431.88 313.46l5.33 8.52v7.79l232.41 105.67-12.34 5.9L480.07 367l269.87 126 20.34-77-327.71-137zm-49.29 40.81l-11.76 10.89L344 382.38a100.09 100.09 0 01-6.65 16.3c-1.58 2.84-3.34 5.3-5.11 6.39s-7.94 4.06-15.71 7.7l-.35 1.36 235.63 148.73-191.16-151.51 71.74 28.57 254.35 182.37 61.59-45.12c2.12-1.61 14.46-31.07 14.46-31.07L705 529.77zM618.21 209.2L949.12 289l-3.75-17zm-32.09-83.82l-3 9.4 299 23.58zm-9.83 31l-3.66 11.53 181 36.3zm425.65-77.8l5.55-5.42-198.12-17.51z" fill="#c78f99" opacity=".36" style="isolation:isolate" id="reuse-4"/><path d="M1825.67-40.26l-5.14 14.06L1797 38.19l-299 819.46-311.09 5.43H500.4L324.83 536l-54.68-101.92s27.85-12.6 46.42-21.31c7.77-3.64 13.91-6.63 15.71-7.7s3.53-3.51 5.11-6.39a101.18 101.18 0 006.61-16.3l26.79-17.22 11.76-10.89L423.26 335l13.91-5.23V322l-5.33-8.52L442.53 279l13.92-7v-15.68l33.22-10.89 17.12-13.59 50.34-15.44 10.32-32.4 4-12.41 1.19-3.73 3.66-11.53 6.84-21.55 3-9.4 4-12.46 4.53-14.2L605.36 65l.23-2.2 7.26-67.64 13.62-6.34v-29z" fill="url(#g)" id="reuse-3"/><path d="M193.59 20.28l35.34 50.33 423.55-36.05-5.09-32.2-453.8 17.92zM243.92 96.23l382.55-33.1 8.07-7.48-390.62 31.97v8.61zM473.1 125.72l135.74 4.08 12.85-26.54-258.63 15.65 191.16-2.38v3.29l-81.12 5.9zM236.42 165.63l184.92-16.91 29.35-6.45-223.1 10.88 8.83 12.48zM274.26 239.66l296.83-30.28 22.48-13.49-248.99 9.19 268.27-21.07 21.69-30.07-398.65 41.95 38.37 43.77zM318.08 274l80.32-9.51-7.23-2.39L259.85 274l16.1 30.81 127.67-14.14 4.69 2.76-60.91 10.68h122.88l17.27-39.28-173.49 15.64 4.02-6.47zM297.46 336.14l157.97-22.68 8.03-2.26-200.8 14.5 34.8 10.44z" id="reuse-2"/><path d="M742.58-40.26C735-6.06 722.92 28.15 719.93 55c-2.21 25.74-6 51.29-10.66 76.7-.71 3.79-1.42 7.51-2.16 11.27q-1.11 6-2.41 12l-1.73 8.32c-1.51 7.22-3.09 14.4-4.69 21.55q-1.69 7.56-3.44 15.15c-3.66 15.84-7.49 31.62-11.28 47.35l-4.62 19.35-1.83 7.81C657.83 348.85 634.28 426.84 570 484.88a277.56 277.56 0 01-94.26 53l-9.6 3c-48.35 13.93-99.24 14.08-141.29-4.82a142.47 142.47 0 01-57.77-46.91q-4-5.46-7.61-11.44c-32.13-54.42-15-108.84-36.4-163.26-1.8-5.07-3.63-10.07-5.47-15.05C190.91 227.35 160.8 162 158.81 84c0-36.81 6.52-71 17.06-104.35a541.77 541.77 0 016.78-19.88z" fill="url(#f)" id="reuse-1"/><path fill="url(#m)" d="M-.79-40.26h1927.66v1130.5H-.79z" id="reuse-0"/></defs><defs><linearGradient id="m" x1="963.04" y1="-11.24" x2="963.04" y2="1119.26" gradientTransform="matrix(1 0 0 -1 0 1079)" gradientUnits="userSpaceOnUse"><stop offset="0" stop-color="#a1ffed"/><stop offset="1" stop-color="#00b8cf"/></linearGradient><linearGradient id="f" x1="158.81" y1="823.75" x2="742.58" y2="823.75" gradientTransform="matrix(1 0 0 -1 0 1079)" gradientUnits="userSpaceOnUse"><stop offset=".01" stop-color="#d69ea1"/><stop offset="1" stop-color="#a37063"/></linearGradient><linearGradient id="g" x1="270.15" y1="667.59" x2="1825.67" y2="667.59" gradientTransform="matrix(1 0 0 -1 0 1079)" gradientUnits="userSpaceOnUse"><stop offset=".01" stop-color="#de9996"/><stop offset="1" stop-color="#b0632b"/></linearGradient><linearGradient id="h" x1="580.73" y1="667.59" x2="1799.55" y2="667.59" gradientTransform="matrix(1 0 0 -1 0 1079)" gradientUnits="userSpaceOnUse"><stop offset=".01" stop-color="#ffb080"/><stop offset="1" stop-color="#ab5c40"/></linearGradient><linearGradient id="i" x1="672.29" y1="667.59" x2="1822.33" y2="667.59" gradientTransform="matrix(1 0 0 -1 0 1079)" gradientUnits="userSpaceOnUse"><stop offset=".01" stop-color="#ffd18f"/><stop offset="1" stop-color="#c4613b"/></linearGradient><linearGradient id="b" x1="5.34" y1="1129.46" x2="1920.74" y2="-21.44" gradientTransform="matrix(1 0 0 -1 0 1079)" gradientUnits="userSpaceOnUse"><stop offset=".1" stop-color="#fff"/><stop offset=".16" stop-color="#f6f6f6"/><stop offset=".27" stop-color="#ddd"/><stop offset=".4" stop-color="#b4b4b4"/><stop offset=".55" stop-color="#7c7c7c"/><stop offset=".72" stop-color="#343434"/><stop offset=".83"/></linearGradient><linearGradient id="v" x1="5.34" y1="1129.46" x2="1920.74" y2="-21.44" gradientTransform="matrix(1 0 0 -1 0 1079)" gradientUnits="userSpaceOnUse"><stop offset=".1" stop-color="#ffeb94"/><stop offset=".2" stop-color="#f8e293"/><stop offset=".36" stop-color="#e4c991"/><stop offset=".56" stop-color="#c4a08d"/><stop offset=".79" stop-color="#976888"/><stop offset=".83" stop-color="#8f5e87"/></linearGradient><linearGradient id="n" x1="963.04" y1="-11.23" x2="963.04" y2="245.84" gradientTransform="matrix(1 0 0 -1 0 1079)" gradientUnits="userSpaceOnUse"><stop offset="0" stop-color="#8575bd"/><stop offset=".84" stop-color="#f5d4a3"/></linearGradient><linearGradient id="e" x1="1186.88" y1="102.34" x2="1926.87" y2="102.34" gradientTransform="matrix(1 0 0 -1 0 1079)" gradientUnits="userSpaceOnUse"><stop offset=".01" stop-color="#ccab4f"/><stop offset="1" stop-color="#962b1a"/></linearGradient><linearGradient id="x" x1="-.79" y1="115.24" x2="817.41" y2="115.24" xlink:href="#e"/><linearGradient id="y" x1="415.72" y1="158.53" x2="564.08" y2="158.53" xlink:href="#f"/><linearGradient id="z" x1="441.87" y1="181.36" x2="534.2" y2="181.36" xlink:href="#f"/><linearGradient id="A" x1="479.14" y1="130.62" x2="587.37" y2="130.62" xlink:href="#f"/><linearGradient id="B" x1="449.79" y1="47.47" x2="633.77" y2="47.47" xlink:href="#f"/><linearGradient id="C" x1="536.32" y1="4.73" x2="660.78" y2="4.73" xlink:href="#f"/><linearGradient id="D" x1="415.72" y1="107.68" x2="1681.67" y2="107.68" xlink:href="#g"/><linearGradient id="E" x1="499.58" y1="107.65" x2="1712.16" y2="107.65" xlink:href="#h"/><linearGradient id="F" x1="601.66" y1="107.62" x2="1718.52" y2="107.62" xlink:href="#i"/><linearGradient id="G" x1="1462.18" y1="21.31" x2="1488.71" y2="21.31" xlink:href="#e"/><linearGradient id="H" x1="712.45" y1="155.67" x2="722.08" y2="155.67" xlink:href="#e"/><linearGradient id="I" x1="691.08" y1="164.39" x2="722.08" y2="164.39" xlink:href="#e"/><linearGradient id="J" x1="534.2" y1="181.06" x2="534.62" y2="181.06" xlink:href="#e"/><linearGradient id="r" x1="408.32" y1="84.63" x2="408.32" y2="1119.26" gradientTransform="matrix(1 0 0 -1 0 1079)" gradientUnits="userSpaceOnUse"><stop offset="0" stop-color="#6b3326"/><stop offset=".99" stop-color="#402e54"/></linearGradient><linearGradient id="j" x1="119.69" y1="-11.23" x2="119.69" y2="77.15" gradientTransform="matrix(1 0 0 -1 0 1079)" gradientUnits="userSpaceOnUse"><stop offset="0" stop-color="#4f2e1f"/><stop offset="1" stop-color="#402e52"/></linearGradient><linearGradient id="K" x1="293.98" y1="94.83" x2="293.98" y2="112.19" xlink:href="#j"/><linearGradient id="L" x1="397.4" y1="94.83" x2="397.4" y2="99.24" xlink:href="#j"/><linearGradient id="M" x1="429.92" y1="133.6" x2="429.92" y2="145.84" xlink:href="#j"/><linearGradient id="N" x1="171.9" y1="54.48" x2="171.9" y2="82.13" xlink:href="#j"/><linearGradient id="O" x1="639.55" y1="166.04" x2="639.55" y2="170.69" xlink:href="#j"/><linearGradient id="P" x1="621.89" y1="166.04" x2="621.89" y2="170.69" xlink:href="#j"/><linearGradient id="k" x1="-.79" y1="601.97" x2="701.59" y2="601.97" gradientTransform="matrix(1 0 0 -1 0 1079)" gradientUnits="userSpaceOnUse"><stop offset="0" stop-color="#4f2e87"/><stop offset="1" stop-color="#d4a8c9"/></linearGradient><linearGradient id="Q" x1="228.93" y1="677.36" x2="314.06" y2="677.36" xlink:href="#k"/><linearGradient id="R" x1="639.55" y1="431.77" x2="652.48" y2="431.77" xlink:href="#k"/><linearGradient id="s" x1="1556.87" y1="121.57" x2="1556.87" y2="1119.26" gradientTransform="matrix(1 0 0 -1 0 1079)" gradientUnits="userSpaceOnUse"><stop offset="0" stop-color="#7d3326"/><stop offset=".99" stop-color="#402e5c"/></linearGradient><linearGradient id="l" x1="1844.14" y1="121.57" x2="1844.14" y2="129.3" gradientTransform="matrix(1 0 0 -1 0 1079)" gradientUnits="userSpaceOnUse"><stop offset="0" stop-color="#6b3326"/><stop offset=".99" stop-color="#402e40"/></linearGradient><linearGradient id="S" x1="1583.1" y1="155.72" x2="1583.1" y2="159.1" xlink:href="#l"/><linearGradient id="T" x1="1697.16" y1="116.92" x2="1697.16" y2="129.3" xlink:href="#l"/><linearGradient id="U" x1="1874.6" y1="70.35" x2="1874.6" y2="100.27" xlink:href="#l"/><linearGradient id="V" x1="1762.38" y1="-11.23" x2="1762.38" y2="52.66" xlink:href="#l"/><linearGradient id="W" x1="1886.59" y1="60.82" x2="1886.59" y2="64" xlink:href="#l"/><linearGradient id="X" x1="1881.09" y1="103.9" x2="1881.09" y2="112.51" xlink:href="#l"/><linearGradient id="Y" x1="1777.58" y1="103.9" x2="1777.58" y2="108.21" xlink:href="#l"/><linearGradient id="t" x1="1619.41" y1="121.53" x2="1619.41" y2="1119.26" gradientTransform="matrix(1 0 0 -1 0 1079)" gradientUnits="userSpaceOnUse"><stop offset="0" stop-color="#d4a8c9"/><stop offset="1" stop-color="#4f2e99"/></linearGradient><linearGradient id="Z" x1="968.74" y1="-21.97" x2="968.74" y2="1108.53" xlink:href="#m"/><linearGradient id="aa" x1="-157.96" y1="813.02" x2="731.28" y2="813.02" xlink:href="#f"/><linearGradient id="ab" x1="-263.95" y1="656.85" x2="1831.37" y2="656.85" xlink:href="#g"/><linearGradient id="ac" x1="586.43" y1="656.85" x2="1805.25" y2="656.85" xlink:href="#h"/><linearGradient id="ad" x1="679.99" y1="656.85" x2="1932.57" y2="656.85" xlink:href="#i"/><linearGradient id="ae" x1="968.74" y1="-21.96" x2="968.74" y2="235.1" xlink:href="#n"/><linearGradient id="af" x1="1584.91" y1="91.61" x2="2324.9" y2="91.61" xlink:href="#e"/><linearGradient id="ai" x1="-482.72" y1="104.51" x2="335.48" y2="104.51" xlink:href="#e"/><linearGradient id="aj" x1="421.42" y1="147.8" x2="569.78" y2="147.8" xlink:href="#f"/><linearGradient id="ak" x1="447.57" y1="170.62" x2="539.9" y2="170.62" xlink:href="#f"/><linearGradient id="al" x1="484.84" y1="119.89" x2="593.07" y2="119.89" xlink:href="#f"/><linearGradient id="am" x1="455.49" y1="36.74" x2="639.47" y2="36.74" xlink:href="#f"/><linearGradient id="an" x1="542.02" y1="-6.01" x2="666.48" y2="-6.01" xlink:href="#f"/><linearGradient id="ao" x1="421.42" y1="96.94" x2="1687.37" y2="96.94" xlink:href="#g"/><linearGradient id="ap" x1="505.28" y1="96.92" x2="1717.86" y2="96.92" xlink:href="#h"/><linearGradient id="aq" x1="607.36" y1="96.89" x2="1724.22" y2="96.89" xlink:href="#i"/><linearGradient id="ar" x1="1467.88" y1="10.58" x2="1494.41" y2="10.58" xlink:href="#e"/><linearGradient id="as" x1="718.15" y1="144.93" x2="727.78" y2="144.93" xlink:href="#e"/><linearGradient id="at" x1="696.78" y1="153.66" x2="727.78" y2="153.66" xlink:href="#e"/><linearGradient id="au" x1="539.9" y1="170.33" x2="540.32" y2="170.33" xlink:href="#e"/><linearGradient id="av" x1="125.39" y1="-21.96" x2="125.39" y2="66.41" xlink:href="#j"/><linearGradient id="aw" x1="299.68" y1="84.1" x2="299.68" y2="101.46" xlink:href="#j"/><linearGradient id="ax" x1="403.11" y1="84.1" x2="403.11" y2="88.5" xlink:href="#j"/><linearGradient id="ay" x1="435.62" y1="122.87" x2="435.62" y2="135.11" xlink:href="#j"/><linearGradient id="az" x1="177.6" y1="43.74" x2="177.6" y2="71.39" xlink:href="#j"/><linearGradient id="aA" x1="645.25" y1="155.31" x2="645.25" y2="159.96" xlink:href="#j"/><linearGradient id="aB" x1="121.39" y1="-21.96" x2="121.39" y2="66.41" xlink:href="#j"/><linearGradient id="aC" x1="627.6" y1="155.31" x2="627.6" y2="159.96" xlink:href="#j"/><linearGradient id="aD" x1="1849.84" y1="110.84" x2="1849.84" y2="118.57" xlink:href="#l"/><linearGradient id="aE" x1="1588.81" y1="144.99" x2="1588.81" y2="148.37" xlink:href="#l"/><linearGradient id="aF" x1="1702.86" y1="106.19" x2="1702.86" y2="118.57" xlink:href="#l"/><linearGradient id="aG" x1="1880.3" y1="59.61" x2="1880.3" y2="89.54" xlink:href="#l"/><linearGradient id="aH" x1="1768.08" y1="-21.96" x2="1768.08" y2="41.92" xlink:href="#l"/><linearGradient id="aI" x1="1892.29" y1="50.09" x2="1892.29" y2="53.27" xlink:href="#l"/><linearGradient id="aJ" x1="1886.79" y1="93.16" x2="1886.79" y2="101.78" xlink:href="#l"/><linearGradient id="aK" x1="1783.28" y1="93.16" x2="1783.28" y2="97.48" xlink:href="#l"/><linearGradient id="aL" x1="119.94" y1="73.89" x2="119.94" y2="1108.53" xlink:href="#r"/><linearGradient id="aM" x1="-105.53" y1="591.23" x2="281.57" y2="591.23" xlink:href="#k"/><linearGradient id="aN" x1="21.08" y1="666.63" x2="67.99" y2="666.63" xlink:href="#k"/><linearGradient id="aO" x1="247.38" y1="421.04" x2="254.5" y2="421.04" xlink:href="#k"/><linearGradient id="aP" x1="1818.79" y1="110.84" x2="1818.79" y2="1108.53" xlink:href="#s"/><linearGradient id="aQ" x1="1858.33" y1="110.79" x2="1858.33" y2="1108.53" xlink:href="#t"/><radialGradient id="d" cx="687.07" cy="605.54" r="536.5" gradientTransform="matrix(.92 .01 0 -.18 112.22 928.94)" gradientUnits="userSpaceOnUse"><stop offset="0" stop-color="#fff"/><stop offset=".05" stop-color="#f0f0f0"/><stop offset=".32" stop-color="#9c9c9c"/><stop offset=".56" stop-color="#595959"/><stop offset=".76" stop-color="#292929"/><stop offset=".91" stop-color="#0b0b0b"/><stop offset="1"/></radialGradient><radialGradient id="q" cx="687.07" cy="605.54" r="536.5" gradientTransform="matrix(.92 .01 0 -.18 112.22 928.94)" gradientUnits="userSpaceOnUse"><stop offset="0" stop-color="#ffffe3"/><stop offset=".52" stop-color="#fffff4"/><stop offset="1" stop-color="#fff"/></radialGradient><radialGradient id="p" cx="693.26" cy="546.21" r="536.5" xlink:href="#d"/><radialGradient id="ah" cx="693.26" cy="546.21" r="536.5" xlink:href="#q"/><mask id="u" x="-.79" y="-40.26" width="1927.66" height="1130.5" maskUnits="userSpaceOnUse"><g mask="url(#a)" data-name="mask-2"><path fill="url(#b)" d="M-.79-40.26h1927.66v1130.5H-.79z"/></g></mask><mask id="w" x="249.28" y="727.41" width="990.08" height="193.2" maskUnits="userSpaceOnUse"><g mask="url(#c)" data-name="mask-4"><path d="M1239.36 827.26c-.48 53.32-222.51 95.1-495.92 93.29s-494.65-46.48-494.16-99.8 222.53-95.09 495.93-93.28 494.65 46.47 494.15 99.79z" fill="url(#d)"/></g></mask><mask id="ag" x="254.98" y="738.14" width="990.08" height="193.2" maskUnits="userSpaceOnUse"><g mask="url(#o)" data-name="mask-4"><path d="M1245.06 838c-.48 53.32-222.51 95.09-495.92 93.29S254.49 884.8 255 831.48s222.53-95.09 495.93-93.28 494.63 46.48 494.13 99.8z" fill="url(#p)"/></g></mask><mask id="aR" x="-482.72" y="-40.31" width="2807.61" height="1141.28" maskUnits="userSpaceOnUse"><use xlink:href="#reuse-0"/><use xlink:href="#reuse-1"/><g opacity=".36" fill="#c78f99"><use xlink:href="#reuse-2"/></g><use xlink:href="#reuse-3"/><use opacity=".36" style="isolation:isolate" xlink:href="#reuse-4"/><use xlink:href="#reuse-5"/><g opacity=".36" fill="#cc8f66"><use xlink:href="#reuse-6"/></g><use xlink:href="#reuse-7"/><use opacity=".36" style="isolation:isolate" xlink:href="#reuse-8"/><use xlink:href="#reuse-9"/><g mask="url(#u)"><use xlink:href="#reuse-10"/></g><use xlink:href="#reuse-11"/><use xlink:href="#reuse-12"/><use xlink:href="#reuse-13"/><use xlink:href="#reuse-14"/><g mask="url(#w)"><use xlink:href="#reuse-15"/></g><g opacity=".77" fill="#ffe0b0"><use xlink:href="#reuse-16"/></g><use xlink:href="#reuse-17"/><g opacity=".28"><use xlink:href="#reuse-18"/><use xlink:href="#reuse-19"/><use xlink:href="#reuse-20"/><use xlink:href="#reuse-21"/><use xlink:href="#reuse-22"/><g opacity=".36" fill="#c78f99"><use xlink:href="#reuse-23"/></g><use xlink:href="#reuse-24"/><use opacity=".36" style="isolation:isolate" xlink:href="#reuse-25"/><use xlink:href="#reuse-26"/><g opacity=".36" fill="#cc8f66"><use xlink:href="#reuse-27"/></g><use xlink:href="#reuse-28"/><use opacity=".36" style="isolation:isolate" xlink:href="#reuse-29"/><use xlink:href="#reuse-30"/><use xlink:href="#reuse-31"/><use xlink:href="#reuse-32"/><use xlink:href="#reuse-33"/></g><use xlink:href="#reuse-34"/><use xlink:href="#reuse-35"/><use xlink:href="#reuse-36"/><use xlink:href="#reuse-37"/><use xlink:href="#reuse-38"/><use xlink:href="#reuse-39"/><use xlink:href="#reuse-40"/><use xlink:href="#reuse-41"/><g opacity=".65" fill="#bda8ab"><use xlink:href="#reuse-42"/><use xlink:href="#reuse-43"/></g><use xlink:href="#reuse-44"/><use xlink:href="#reuse-45"/><use xlink:href="#reuse-46"/><use xlink:href="#reuse-47"/><use xlink:href="#reuse-48"/><use xlink:href="#reuse-49"/><use xlink:href="#reuse-50"/><use xlink:href="#reuse-51"/><use xlink:href="#reuse-52"/><use xlink:href="#reuse-53"/><use xlink:href="#reuse-54"/><use xlink:href="#reuse-55"/><use xlink:href="#reuse-56"/><use xlink:href="#reuse-57"/><use xlink:href="#reuse-58"/><use xlink:href="#reuse-59"/><use xlink:href="#reuse-60"/><use xlink:href="#reuse-61"/><use xlink:href="#reuse-62"/><use xlink:href="#reuse-63"/><use xlink:href="#reuse-64"/><g opacity=".25" fill="#bda8ab"><use xlink:href="#reuse-65"/></g><use xlink:href="#reuse-66"/><use xlink:href="#reuse-67"/><use xlink:href="#reuse-68"/><use xlink:href="#reuse-69"/><use xlink:href="#reuse-70"/><use xlink:href="#reuse-71"/><use xlink:href="#reuse-72"/><g data-name="mask-7"><use xlink:href="#reuse-73"/><use xlink:href="#reuse-74"/><g opacity=".36" fill="#c78f99"><use xlink:href="#reuse-75"/></g><use xlink:href="#reuse-76"/><use opacity=".36" style="isolation:isolate" xlink:href="#reuse-77"/><use xlink:href="#reuse-78"/><g opacity=".36" fill="#cc8f66"><use xlink:href="#reuse-79"/></g><use xlink:href="#reuse-80"/><use opacity=".36" style="isolation:isolate" xlink:href="#reuse-81"/><use xlink:href="#reuse-82"/><use xlink:href="#reuse-83"/><use xlink:href="#reuse-84"/><use xlink:href="#reuse-85"/><use xlink:href="#reuse-86"/><g mask="url(#ag)"><use xlink:href="#reuse-87"/></g><g opacity=".77" fill="#ffe0b0"><use xlink:href="#reuse-88"/></g><use xlink:href="#reuse-89"/><g opacity=".28"><use xlink:href="#reuse-90"/><use xlink:href="#reuse-91"/><use xlink:href="#reuse-92"/><use xlink:href="#reuse-93"/><use xlink:href="#reuse-94"/><use opacity=".36" xlink:href="#reuse-95"/><use xlink:href="#reuse-96"/><use opacity=".36" style="isolation:isolate" xlink:href="#reuse-97"/><use xlink:href="#reuse-98"/><g opacity=".36" fill="#cc8f66"><use xlink:href="#reuse-99"/></g><use xlink:href="#reuse-100"/><use opacity=".36" style="isolation:isolate" xlink:href="#reuse-101"/><use xlink:href="#reuse-102"/><use xlink:href="#reuse-103"/><use xlink:href="#reuse-104"/><use xlink:href="#reuse-105"/></g><use xlink:href="#reuse-106"/><use xlink:href="#reuse-107"/><use xlink:href="#reuse-108"/><use xlink:href="#reuse-109"/><use xlink:href="#reuse-110"/><use xlink:href="#reuse-111"/><use xlink:href="#reuse-112"/><path fill="url(#aB)" d="M210.8 1086.05l31.07 14.91H.91v-88.37l35.34 27.21h16.07l7.48 9.98 42.86 8.16 41.77 28.11h66.37z"/><use xlink:href="#reuse-113"/><use xlink:href="#reuse-114"/><use xlink:href="#reuse-115"/><use xlink:href="#reuse-116"/><use xlink:href="#reuse-117"/><use xlink:href="#reuse-118"/><use xlink:href="#reuse-119"/><use xlink:href="#reuse-120"/><use xlink:href="#reuse-121"/><use xlink:href="#reuse-122"/><use xlink:href="#reuse-123"/><use xlink:href="#reuse-124"/><use xlink:href="#reuse-125"/><use xlink:href="#reuse-126"/><use xlink:href="#reuse-127"/><use xlink:href="#reuse-128"/><use xlink:href="#reuse-129"/><use xlink:href="#reuse-130"/><g opacity=".65" fill="#bda8ab"><use xlink:href="#reuse-131"/><use xlink:href="#reuse-132"/></g><use xlink:href="#reuse-133"/><use xlink:href="#reuse-134"/><use xlink:href="#reuse-135"/><use xlink:href="#reuse-136"/><use xlink:href="#reuse-137"/><use xlink:href="#reuse-138"/><use xlink:href="#reuse-139"/><g opacity=".25" fill="#bda8ab"><use xlink:href="#reuse-140"/></g><use xlink:href="#reuse-141"/><use xlink:href="#reuse-142"/><use xlink:href="#reuse-143"/><use xlink:href="#reuse-144"/></g></mask></defs><g mask="url(#aR)"><use xlink:href="#reuse-0"/><use xlink:href="#reuse-1"/><g opacity=".36" fill="#c78f99"><use xlink:href="#reuse-2"/></g><use xlink:href="#reuse-3"/><use opacity=".36" style="isolation:isolate" xlink:href="#reuse-4"/><use xlink:href="#reuse-5"/><g opacity=".36" fill="#cc8f66"><use xlink:href="#reuse-6"/></g><use xlink:href="#reuse-7"/><use opacity=".36" style="isolation:isolate" xlink:href="#reuse-8"/><use xlink:href="#reuse-9"/><g mask="url(#u)"><use xlink:href="#reuse-10"/></g><use xlink:href="#reuse-11"/><use xlink:href="#reuse-12"/><use xlink:href="#reuse-13"/><use xlink:href="#reuse-14"/><g mask="url(#w)"><use xlink:href="#reuse-15"/></g><g opacity=".77" fill="#ffe0b0"><use xlink:href="#reuse-16"/></g><use xlink:href="#reuse-17"/><g opacity=".28"><use xlink:href="#reuse-18"/><use xlink:href="#reuse-19"/><use xlink:href="#reuse-20"/><use xlink:href="#reuse-21"/><use xlink:href="#reuse-22"/><g opacity=".36" fill="#c78f99"><use xlink:href="#reuse-23"/></g><use xlink:href="#reuse-24"/><use opacity=".36" style="isolation:isolate" xlink:href="#reuse-25"/><use xlink:href="#reuse-26"/><g opacity=".36" fill="#cc8f66"><use xlink:href="#reuse-27"/></g><use xlink:href="#reuse-28"/><use opacity=".36" style="isolation:isolate" xlink:href="#reuse-29"/><use xlink:href="#reuse-30"/><use xlink:href="#reuse-31"/><use xlink:href="#reuse-32"/><use xlink:href="#reuse-33"/></g><use xlink:href="#reuse-34"/><use xlink:href="#reuse-35"/><use xlink:href="#reuse-36"/><use xlink:href="#reuse-37"/><use xlink:href="#reuse-38"/><use xlink:href="#reuse-39"/><use xlink:href="#reuse-40"/><use xlink:href="#reuse-41"/><g opacity=".65" fill="#bda8ab"><use xlink:href="#reuse-42"/><use xlink:href="#reuse-43"/></g><use xlink:href="#reuse-44"/><use xlink:href="#reuse-45"/><use xlink:href="#reuse-46"/><use xlink:href="#reuse-47"/><use xlink:href="#reuse-48"/><use xlink:href="#reuse-49"/><use xlink:href="#reuse-50"/><use xlink:href="#reuse-51"/><use xlink:href="#reuse-52"/><use xlink:href="#reuse-53"/><use xlink:href="#reuse-54"/><use xlink:href="#reuse-55"/><use xlink:href="#reuse-56"/><use xlink:href="#reuse-57"/><use xlink:href="#reuse-58"/><use xlink:href="#reuse-59"/><use xlink:href="#reuse-60"/><use xlink:href="#reuse-61"/><use xlink:href="#reuse-62"/><use xlink:href="#reuse-63"/><use xlink:href="#reuse-64"/><g opacity=".25" fill="#bda8ab"><use xlink:href="#reuse-65"/></g><use xlink:href="#reuse-66"/><use xlink:href="#reuse-67"/><use xlink:href="#reuse-68"/><use xlink:href="#reuse-69"/><use xlink:href="#reuse-70"/><use xlink:href="#reuse-71"/><use xlink:href="#reuse-72"/><g data-name="mask-7"><use xlink:href="#reuse-73"/><use xlink:href="#reuse-74"/><g opacity=".36" fill="#c78f99"><use xlink:href="#reuse-75"/></g><use xlink:href="#reuse-76"/><use opacity=".36" style="isolation:isolate" xlink:href="#reuse-77"/><use xlink:href="#reuse-78"/><g opacity=".36" fill="#cc8f66"><use xlink:href="#reuse-79"/></g><use xlink:href="#reuse-80"/><use opacity=".36" style="isolation:isolate" xlink:href="#reuse-81"/><use xlink:href="#reuse-82"/><use xlink:href="#reuse-83"/><use xlink:href="#reuse-84"/><use xlink:href="#reuse-85"/><use xlink:href="#reuse-86"/><g mask="url(#ag)"><use xlink:href="#reuse-87"/></g><g opacity=".77" fill="#ffe0b0"><use xlink:href="#reuse-88"/></g><use xlink:href="#reuse-89"/><g opacity=".28"><use xlink:href="#reuse-90"/><use xlink:href="#reuse-91"/><use xlink:href="#reuse-92"/><use xlink:href="#reuse-93"/><use xlink:href="#reuse-94"/><use opacity=".36" xlink:href="#reuse-95"/><use xlink:href="#reuse-96"/><use opacity=".36" style="isolation:isolate" xlink:href="#reuse-97"/><use xlink:href="#reuse-98"/><g opacity=".36" fill="#cc8f66"><use xlink:href="#reuse-99"/></g><use xlink:href="#reuse-100"/><use opacity=".36" style="isolation:isolate" xlink:href="#reuse-101"/><use xlink:href="#reuse-102"/><use xlink:href="#reuse-103"/><use xlink:href="#reuse-104"/><use xlink:href="#reuse-105"/></g><use xlink:href="#reuse-106"/><use xlink:href="#reuse-107"/><use xlink:href="#reuse-108"/><use xlink:href="#reuse-109"/><use xlink:href="#reuse-110"/><use xlink:href="#reuse-111"/><use xlink:href="#reuse-112"/><path fill="url(#av)" d="M214.8 1086.05l31.07 14.91H4.91v-88.37l35.34 27.21h16.07l7.48 9.98 42.86 8.16 41.77 28.11h66.37z"/><use xlink:href="#reuse-113"/><use xlink:href="#reuse-114"/><use xlink:href="#reuse-115"/><use xlink:href="#reuse-116"/><use xlink:href="#reuse-117"/><use xlink:href="#reuse-118"/><use xlink:href="#reuse-119"/><use xlink:href="#reuse-120"/><use xlink:href="#reuse-121"/><use xlink:href="#reuse-122"/><use xlink:href="#reuse-123"/><use xlink:href="#reuse-124"/><use xlink:href="#reuse-125"/><use xlink:href="#reuse-126"/><use xlink:href="#reuse-127"/><use xlink:href="#reuse-128"/><use xlink:href="#reuse-129"/><use xlink:href="#reuse-130"/><g opacity=".65" fill="#bda8ab"><use xlink:href="#reuse-131"/><use xlink:href="#reuse-132"/></g><use xlink:href="#reuse-133"/><use xlink:href="#reuse-134"/><use xlink:href="#reuse-135"/><use xlink:href="#reuse-136"/><use xlink:href="#reuse-137"/><use xlink:href="#reuse-138"/><use xlink:href="#reuse-139"/><g opacity=".25" fill="#bda8ab"><use xlink:href="#reuse-140"/></g><use xlink:href="#reuse-141"/><use xlink:href="#reuse-142"/><use xlink:href="#reuse-143"/><use xlink:href="#reuse-144"/></g><path fill="#fff" d="M-3.27-10.25h1930.14v1095.26H-3.27z"/></g></svg>