<svg id="art" xmlns="http://www.w3.org/2000/svg" viewBox="0 0 1920 1080"><defs><style>.cls-1,.cls-4{opacity:0.3;}.cls-11,.cls-12,.cls-2,.cls-3,.cls-4,.cls-5,.cls-6,.cls-8{fill:#fff;}.cls-2{opacity:0.1;}.cls-3,.cls-9{opacity:0.6;}.cls-5{opacity:0.5;}.cls-6{opacity:0.7;}.cls-7{opacity:0.4;}.cls-10,.cls-12{opacity:0.8;}.cls-11{opacity:0.9;}.cls-13{opacity:0.3;}</style></defs><title>haley_pedCircus</title><g class="cls-1"><path class="cls-2" d="M960-51.34,554.11,1153.85l-253.1-3.2Q630.5,549.65,960-51.34Z"/><path class="cls-2" d="M960-51.34,29.48,1207.05q-55.62-126.1-111.23-252.2Z"/><path class="cls-2" d="M-111.77,687.92,960-51.34-113.61,388.91"/><path class="cls-2" d="M-113.61,113.75,960-51.34-159.46-91.7"/><polygon class="cls-2" points="960 1164.86 960 -51.34 746.14 1148.35 960 1164.86"/><polygon class="cls-2" points="960.44 -51.34 960.44 1164.86 1174.31 1148.35 960.44 -51.34"/><path class="cls-2" d="M960.44-51.34l405.89,1205.19,253.1-3.2Q1289.94,549.65,960.44-51.34Z"/><path class="cls-2" d="M960.44-51.34Q1425.71,577.85,1891,1207.05q55.62-126.1,111.23-252.2Z"/><path class="cls-2" d="M2032.21,687.92,960.44-51.34,2034.05,388.91"/><path class="cls-2" d="M2034.05,113.75,960.44-51.34,2079.91-91.7"/></g><path class="cls-3" d="M131.41,351.64c-39.73-5.35-76,20.81-81.1,58.43-4.68,34.76,19,67.13,54,76.06l-9.68,10.15,18.3,8.93L114.64,488c39.11,4.47,74.53-21.48,79.53-58.6C199.24,391.82,171.13,357,131.41,351.64ZM88.87,398.81a10.62,10.62,0,1,1,10.62-10.62A10.62,10.62,0,0,1,88.87,398.81Zm14.88,10.64a4.26,4.26,0,1,1,4.25-4.26A4.25,4.25,0,0,1,103.75,409.45Z"/><path class="cls-3" d="M82.15,706.42c-36.93-15.18-78.52.86-92.9,35.83-14.18,34.52,3.45,74.55,39.41,90.19l-7,15.69,20.24,1.41L38.55,836c34.62,9.73,71.17-6.41,84.45-38.73C137.37,762.26,119.09,721.6,82.15,706.42Zm2.47,66.15a3.58,3.58,0,1,1,4-3.05A3.57,3.57,0,0,1,84.62,772.57Zm14.45-12a8.72,8.72,0,1,1,9.82-7.44A8.72,8.72,0,0,1,99.07,760.53Z"/><path class="cls-4" d="M142.7,153c-26.76-11.17-57,.32-67.6,25.67-10.44,25,2.21,54.15,28.27,65.64l-5.18,11.37,14.69,1.1-2.34-9.87c25.11,7.2,51.71-4.38,61.48-27.8C182.59,193.71,169.47,164.12,142.7,153Zm-36.54,25.46a6.67,6.67,0,1,1,7.55-5.65A6.67,6.67,0,0,1,106.16,178.41Zm7.55,14.23a2.83,2.83,0,1,1,3.2-2.4A2.83,2.83,0,0,1,113.71,192.64Z"/><path class="cls-4" d="M78.88,966C43.9,940.66-3.95,946.94-28,980.08c-23.71,32.69-15.35,79.29,18.5,104.9l-11.42,14.71L0,1106.33v-15.12c33.94,19,76.49,11.38,98.7-19.24C122.75,1038.84,113.87,991.41,78.88,966Zm-61.73,24.4A9.94,9.94,0,1,1,30,984.82,9.93,9.93,0,0,1,17.15,990.43Zm6.06,23.22a4.21,4.21,0,1,1,5.47-2.37A4.2,4.2,0,0,1,23.21,1013.65Z"/><path class="cls-4" d="M71.2,584.55c15.72-44.83-7.57-92.85-52-107.27s-93.24,10.22-109,55c-15,42.8,5.56,88.48,46.13,105.08l-8.72,13.76,20.78,4.18.61-13.88C11.56,651.43,56.28,627.11,71.2,584.55ZM31.29,556.11a3,3,0,1,1,4-1.38A3,3,0,0,1,31.29,556.11Zm14.77-6.41a7.28,7.28,0,1,1,9.73-3.34A7.27,7.27,0,0,1,46.06,549.7Z"/><path class="cls-5" d="M272.26,1124.13l.54,12.32,18.46-3.71-7.75-12.21c36-14.74,54.28-55.3,41-93.3-14-39.79-57.28-61.66-96.74-48.86s-60.15,55.44-46.2,95.24C194.79,1111.4,234.49,1133,272.26,1124.13Zm-58.87-77a2.68,2.68,0,1,1,3.58,1.23A2.67,2.67,0,0,1,213.39,1047.13Zm-18.17-7.43a6.46,6.46,0,1,1,8.64,3A6.45,6.45,0,0,1,195.22,1039.7Z"/><path class="cls-4" d="M226.58,873.27c-9.15-23.83-35.39-35.41-58.63-25.86S133.29,884,142.44,907.87c8.73,22.75,33.05,34.32,55.45,27l1.22,8.67,10-5.51-4.58-5.91C225.41,921.43,235.27,895.91,226.58,873.27Zm-70.85,13.27a6.47,6.47,0,1,1,6.47-6.46A6.46,6.46,0,0,1,155.73,886.54Zm15.1,7.27a3.2,3.2,0,1,1,3.2-3.2A3.19,3.19,0,0,1,170.83,893.81Z"/><path class="cls-5" d="M1722.84,641.24c5,37.12,40.43,63.07,79.54,58.6l1.75,17.18,18.3-8.93-9.68-10.15c35-8.93,58.64-41.3,54-76.06-5.07-37.62-41.38-63.78-81.11-58.43S1717.78,603.63,1722.84,641.24ZM1817.53,600a10.62,10.62,0,1,1,10.62,10.62A10.61,10.61,0,0,1,1817.53,600ZM1809,617a4.26,4.26,0,1,1,4.26,4.26A4.25,4.25,0,0,1,1809,617Z"/><path class="cls-4" d="M1744.62,415.59c6.77,26.23,33.11,42.5,60.72,38.71l-4,10.07,15.69,1.06-3.75-12.79c29.27-8.19,47.06-37.05,39.83-65.05-7.32-28.38-37.55-45.11-67.52-37.38S1737.3,387.22,1744.62,415.59ZM1773.93,398a2.78,2.78,0,1,1,2.78,2.78A2.78,2.78,0,0,1,1773.93,398Zm-13.79-14.76a6.76,6.76,0,1,1,6.75,6.76A6.75,6.75,0,0,1,1760.14,383.2Z"/><path class="cls-5" d="M1861.85,290.15c6.34,24.57,31,39.82,56.89,36.26l-3.72,9.44,14.71,1-3.51-12c27.42-7.67,44.09-34.72,37.32-60.95-6.86-26.6-35.19-42.28-63.27-35S1855,263.56,1861.85,290.15Zm64.3-37.54a6.67,6.67,0,1,1,6.67,6.67A6.67,6.67,0,0,1,1926.15,252.61Zm-5.65,16.85a2.83,2.83,0,1,1,2.83,2.83A2.82,2.82,0,0,1,1920.5,269.46Z"/><path class="cls-5" d="M1906.72,990c-36.44-9.41-73.2,10.94-82.11,45.45-8.78,34,12.85,69.14,48.44,79.1l-4.56,15.56,19.08-1.3-4.82-12.25c33.57,4.61,65.6-15.17,73.83-47.06C1965.48,1035,1943.16,999.35,1906.72,990Zm-42.24,39.45a8.66,8.66,0,1,1,8.65-8.65A8.65,8.65,0,0,1,1864.48,1029.4Zm12.32,16.88a3.67,3.67,0,1,1,3.67-3.67A3.67,3.67,0,0,1,1876.8,1046.28Z"/><path class="cls-6" d="M1867.59,521.72c6.35,31.06,35.18,52.27,65.76,49.36l-.89,9.73,14.87-.93-4.76-10.41c29.84-7.7,48.52-37.56,42.14-68.8C1978,468,1946.39,446.14,1914.05,452S1860.91,489,1867.59,521.72Zm31.16-8.62a2.81,2.81,0,1,1,2.81,2.81A2.81,2.81,0,0,1,1898.75,513.1Zm-21.49-18.44a9.92,9.92,0,1,1,9.92,9.92A9.92,9.92,0,0,1,1877.26,494.66Z"/><path class="cls-4" d="M1915.86,865.32l-5.54,12.75,20.51,5.37-1.8-16.19c43.74,2.89,82.27-29.13,87.58-74.16,5.54-47.17-27.48-90.73-73.75-97.28s-88.27,26.36-93.83,73.54C1843.76,814.14,1873.26,855.63,1915.86,865.32Zm-21.5-107a3,3,0,1,1,3,3A3,3,0,0,1,1894.36,758.3Zm-14.71-16.5a7.28,7.28,0,1,1,7.28,7.28A7.28,7.28,0,0,1,1879.65,741.8Z"/><path class="cls-6" d="M1759.11,910.15c11.12,21.79,34.16,32.93,54.56,27.74l-.15,11,11.7-4.21-5-9.07c.59-.27,1.19-.54,1.78-.84,22.08-11.27,29.7-40.55,17-65.39s-40.86-35.84-62.94-24.57S1746.44,885.31,1759.11,910.15Zm46.56-45.44a5.15,5.15,0,1,1,5.14,5.14A5.14,5.14,0,0,1,1805.67,864.71Zm-6.58,13a1.57,1.57,0,1,1,1.57,1.57A1.56,1.56,0,0,1,1799.09,877.67Z"/><path class="cls-6" d="M1779.55,238.73l-3.82,4.93,8.32,4.6,1-7.23c18.69,6.1,39-3.56,46.28-22.55,7.63-19.89-1.9-42.49-21.29-50.46s-41.3,1.69-48.94,21.59C1753.87,208.5,1762.1,229.8,1779.55,238.73Zm35.31-43.45a5.4,5.4,0,1,1,5.39,5.4A5.39,5.39,0,0,1,1814.86,195.28Zm-9.87,8.8a2.67,2.67,0,1,1,2.66,2.66A2.67,2.67,0,0,1,1805,204.08Z"/><polygon class="cls-4" points="144.77 294.91 143.84 302.5 149.57 307.61 142.04 309.02 138.97 316.01 135.26 309.29 127.63 308.5 132.87 302.95 131.22 295.47 138.16 298.74 144.77 294.91"/><polygon class="cls-4" points="1822.13 504.73 1821.2 512.31 1826.93 517.42 1819.4 518.83 1816.33 525.82 1812.62 519.11 1804.99 518.32 1810.22 512.76 1808.58 505.28 1815.52 508.56 1822.13 504.73"/><polygon class="cls-4" points="47.42 659.26 46.48 666.84 52.21 671.95 44.68 673.36 41.62 680.35 37.91 673.63 30.27 672.85 35.51 667.29 33.86 659.81 40.81 663.09 47.42 659.26"/><polygon class="cls-4" points="1906.57 645.07 1905.64 652.65 1911.37 657.76 1903.84 659.17 1900.77 666.16 1897.06 659.45 1889.43 658.66 1894.66 653.11 1893.02 645.63 1899.96 648.9 1906.57 645.07"/><polygon class="cls-4" points="29.49 154.98 33.57 161.43 41.24 161.76 36.31 167.62 38.37 174.97 31.24 172.13 24.84 176.35 25.37 168.74 19.36 164 26.8 162.13 29.49 154.98"/><polygon class="cls-4" points="1743.16 294.02 1747.24 300.48 1754.91 300.81 1749.98 306.67 1752.04 314.02 1744.91 311.17 1738.51 315.4 1739.04 307.79 1733.03 303.05 1740.47 301.17 1743.16 294.02"/><polygon class="cls-4" points="163.06 535.3 169.58 539.27 176.6 536.16 174.79 543.6 179.89 549.27 172.25 549.89 168.38 556.52 165.48 549.46 157.99 547.88 163.83 542.9 163.06 535.3"/><polygon class="cls-4" points="180.39 807.88 186.91 811.85 193.93 808.74 192.12 816.18 197.22 821.85 189.58 822.46 185.72 829.1 182.81 822.04 175.32 820.46 181.16 815.48 180.39 807.88"/><polygon class="cls-4" points="162.59 974.82 162.33 982.45 168.49 987.04 161.12 989.11 158.68 996.34 154.39 989.98 146.72 989.87 151.44 983.88 149.14 976.57 156.35 979.22 162.59 974.82"/><polygon class="cls-4" points="1772.68 758.61 1779.21 762.58 1786.22 759.47 1784.41 766.91 1789.51 772.58 1781.87 773.2 1778.01 779.83 1775.1 772.77 1767.61 771.19 1773.45 766.21 1772.68 758.61"/><circle class="cls-5" cx="143.14" cy="769.08" r="6.03"/><circle class="cls-5" cx="170.93" cy="691.12" r="4.28"/><circle class="cls-5" cx="72.19" cy="862.01" r="4.28"/><circle class="cls-5" cx="93.56" cy="566.94" r="6.24"/><circle class="cls-5" cx="138.79" cy="505.61" r="4.35"/><circle class="cls-5" cx="21.19" cy="452.41" r="8.91"/><circle class="cls-5" cx="156.4" cy="333.46" r="3.79"/><circle class="cls-5" cx="218.3" cy="497.48" r="3.79"/><circle class="cls-5" cx="45.65" cy="222.69" r="4.41"/><circle class="cls-5" cx="231.68" cy="277.64" r="4.41"/><g class="cls-7"><polygon class="cls-8" points="8.33 8.35 24.85 109.44 76.37 30.2 8.33 8.35"/></g><g class="cls-9"><polygon class="cls-8" points="102.2 40.4 130.82 139.06 172.35 54.31 102.2 40.4"/></g><g class="cls-10"><polygon class="cls-8" points="198.36 58.39 226.97 157.03 268.48 72.29 198.36 58.39"/></g><g class="cls-7"><polygon class="cls-8" points="288.18 72.94 316.55 171.64 359.66 84.05 288.18 72.94"/></g><g class="cls-10"><polygon class="cls-8" points="380.24 85.95 422.65 179.87 451.49 90.13 380.24 85.95"/></g><g class="cls-9"><polygon class="cls-8" points="477.92 90.61 531.33 179.11 549.1 86.53 477.92 90.61"/></g><g class="cls-10"><polygon class="cls-8" points="748.58 64.99 805.69 144.74 817.63 48.35 748.58 64.99"/></g><g class="cls-9"><polygon class="cls-8" points="848.67 43.53 897.69 109.11 913.43 19.62 848.67 43.53"/></g><g class="cls-10"><polygon class="cls-8" points="574.72 87.76 619.79 171.35 645.38 79.02 574.72 87.76"/></g><g class="cls-7"><polygon class="cls-8" points="662.72 77.01 713.32 160.55 733.33 68.1 662.72 77.01"/></g><g class="cls-10"><polygon class="cls-8" points="999.67 17.68 1016.2 118.78 1067.71 39.53 999.67 17.68"/></g><g class="cls-9"><polygon class="cls-8" points="1093.55 46.74 1122.16 145.4 1163.7 60.65 1093.55 46.74"/></g><g class="cls-10"><polygon class="cls-8" points="1189.7 65.73 1218.31 164.37 1259.83 79.63 1189.7 65.73"/></g><g class="cls-7"><polygon class="cls-8" points="1279.52 80.28 1307.89 178.98 1351 91.39 1279.52 80.28"/></g><g class="cls-10"><polygon class="cls-8" points="1371.58 91.29 1413.99 185.21 1442.83 95.47 1371.58 91.29"/></g><g class="cls-9"><polygon class="cls-8" points="1469.26 95.95 1522.67 184.45 1540.44 91.87 1469.26 95.95"/></g><g class="cls-10"><polygon class="cls-8" points="1739.92 67.33 1797.03 147.08 1808.97 50.69 1739.92 67.33"/></g><g class="cls-7"><polygon class="cls-8" points="1839.02 43.87 1888.04 109.45 1903.78 19.96 1839.02 43.87"/></g><g class="cls-10"><polygon class="cls-8" points="1566.07 93.1 1611.13 176.69 1636.72 84.36 1566.07 93.1"/></g><g class="cls-7"><polygon class="cls-8" points="1654.07 82.35 1704.66 165.89 1724.67 73.44 1654.07 82.35"/></g><path class="cls-11" d="M1933.52,6.49C1431.4,196.85,969.62,5.21,960.21,1.24l0-.09C455.4,192.52-8.63-2.18-13.26-4.16l-2.53,5.87C-14.43,2.31,25.94,19.26,95,38.3,263.15,84.62,601.15,143.23,960,8.06c9.76,4,48.16,19,108.4,35.58,168.48,46.43,507.64,105.21,867.4-31.16Z"/><circle class="cls-5" cx="86.06" cy="122.42" r="4.99"/><circle class="cls-5" cx="186.53" cy="199.58" r="3.65"/><circle class="cls-5" cx="205.93" cy="740.54" r="5.56"/><circle class="cls-5" cx="1760.23" cy="487.24" r="4.35"/><circle class="cls-5" cx="1885.51" cy="423.14" r="5.08"/><circle class="cls-5" cx="1641.37" cy="374.31" r="5.08"/><circle class="cls-5" cx="1848.75" cy="328.3" r="6"/><circle class="cls-5" cx="1875.51" cy="212.84" r="3.92"/><circle class="cls-5" cx="1698.78" cy="830.66" r="3.92"/><circle class="cls-5" cx="1883.8" cy="584.19" r="3.37"/><circle class="cls-5" cx="1721.92" cy="551.46" r="3.37"/><circle class="cls-5" cx="1860.55" cy="702.67" r="5.8"/><circle class="cls-5" cx="1834.93" cy="823.39" r="3.62"/><circle class="cls-5" cx="1743.19" cy="758.3" r="3.02"/><circle class="cls-5" cx="1863.8" cy="942.63" r="3.37"/><circle class="cls-5" cx="1790.97" cy="983.4" r="3.56"/><path class="cls-5" d="M31.29,556.11a3,3,0,1,1,4-1.38A3,3,0,0,1,31.29,556.11Z"/><circle class="cls-5" cx="49.25" cy="543.16" r="7.28" transform="translate(-402.15 237.07) rotate(-50.68)"/><circle class="cls-12" cx="88.87" cy="388.19" r="10.62"/><path class="cls-12" d="M103.75,409.45a4.26,4.26,0,1,1,4.25-4.26A4.25,4.25,0,0,1,103.75,409.45Z"/><path class="cls-6" d="M12.1,240.75c-32.34-5.81-64,16-70.66,48.72-6.38,31.24,12.3,61.1,42.14,68.8l-4.76,10.41,14.88.93-.9-9.72c30.58,2.9,59.42-18.31,65.76-49.37C65.24,277.79,44.44,246.56,12.1,240.75Zm12.49,64a2.81,2.81,0,1,1,2.81-2.81A2.81,2.81,0,0,1,24.59,304.71ZM39,293.38a9.92,9.92,0,1,1,9.91-9.92A9.92,9.92,0,0,1,39,293.38Z"/><path class="cls-11" d="M24.59,304.71a2.81,2.81,0,1,1,2.81-2.81A2.81,2.81,0,0,1,24.59,304.71Z"/><circle class="cls-11" cx="38.98" cy="283.46" r="9.92" transform="translate(-189.02 110.58) rotate(-45)"/><path class="cls-4" d="M190.27,540c4.49,22,24.88,37,46.51,34.92l-.64,6.88,10.52-.66-3.37-7.37c21.11-5.44,34.32-26.56,29.81-48.65-4.73-23.14-27.11-38.56-50-34.45S185.55,516.84,190.27,540Zm22-6.09a2,2,0,1,1,2,2A2,2,0,0,1,212.31,533.89Zm-15.2-13a7,7,0,1,1,7,7A7,7,0,0,1,197.11,520.85Z"/><path class="cls-5" d="M212.31,533.89a2,2,0,1,1,2,2A2,2,0,0,1,212.31,533.89Z"/><circle class="cls-5" cx="204.12" cy="520.85" r="7.01" transform="translate(-308.51 296.89) rotate(-45)"/><path class="cls-5" d="M1643.26,307.3c4,19.81,22.44,33.33,41.94,31.48l-.57,6.21,9.49-.6-3-6.64c19-4.91,30.94-23.95,26.87-43.88-4.26-20.86-24.44-34.77-45.06-31.06S1639,286.43,1643.26,307.3Zm19.87-5.5a1.8,1.8,0,1,1,1.8,1.8A1.8,1.8,0,0,1,1663.13,301.8ZM1649.43,290a6.33,6.33,0,1,1,6.32,6.33A6.32,6.32,0,0,1,1649.43,290Z"/><path class="cls-6" d="M1663.13,301.8a1.8,1.8,0,1,1,1.8,1.8A1.8,1.8,0,0,1,1663.13,301.8Z"/><circle class="cls-6" cx="1655.75" cy="290.04" r="6.33" transform="translate(279.87 1255.75) rotate(-45)"/><path class="cls-6" d="M145.2,594c-22.08-11.27-50.26-.27-62.94,24.57s-5.05,54.12,17,65.39c.59.3,1.19.57,1.78.84l-5,9.07,11.7,4.21-.15-11c20.4,5.19,43.44-5.95,54.56-27.73C174.9,634.56,167.28,605.29,145.2,594Zm-34.68,25.09a5.15,5.15,0,1,1,5.14-5.15A5.15,5.15,0,0,1,110.52,619.11Zm10.16,9.38a1.57,1.57,0,1,1,1.56-1.56A1.56,1.56,0,0,1,120.68,628.49Z"/><circle class="cls-11" cx="110.52" cy="613.96" r="5.14"/><circle class="cls-11" cx="120.68" cy="626.93" r="1.57"/><path class="cls-6" d="M203.92,311.61c8.94,17.54,27.5,26.51,43.91,22.32l-.12,8.83,9.42-3.39-4-7.3c.47-.22.95-.44,1.43-.68,17.77-9.07,23.91-32.64,13.7-52.63S235.39,249.91,217.62,259,193.71,291.61,203.92,311.61ZM241.4,275a4.14,4.14,0,1,1,4.13,4.14A4.14,4.14,0,0,1,241.4,275Zm-5.3,10.44a1.26,1.26,0,1,1,1.26,1.26A1.26,1.26,0,0,1,236.1,285.47Z"/><circle class="cls-11" cx="245.53" cy="275.03" r="4.14" transform="translate(-65.28 473.34) rotate(-80.78)"/><circle class="cls-11" cx="237.36" cy="285.47" r="1.26"/><circle class="cls-12" cx="85.11" cy="769.03" r="3.58"/><circle class="cls-12" cx="100.26" cy="751.89" r="8.71"/><circle class="cls-5" cx="155.73" cy="880.08" r="6.46" transform="translate(-736.58 829.44) rotate(-76.72)"/><path class="cls-5" d="M170.83,893.81a3.2,3.2,0,1,1,3.2-3.2A3.19,3.19,0,0,1,170.83,893.81Z"/><circle class="cls-12" cx="1810.81" cy="864.71" r="5.14" transform="translate(667.21 2513.63) rotate(-80.78)"/><circle class="cls-12" cx="1800.66" cy="877.67" r="1.57"/><path class="cls-4" d="M1678.3,745.68c-19.28-9.84-43.9-.23-55,21.47s-4.42,47.26,14.87,57.11c.51.26,1,.5,1.55.73l-4.32,7.92,10.21,3.68-.13-9.58c17.82,4.54,38-5.19,47.66-24.22C1704.24,781.09,1697.59,755.52,1678.3,745.68Z"/><circle class="cls-5" cx="1648.01" cy="763.1" r="4.49"/><circle class="cls-5" cx="1656.88" cy="774.42" r="1.37"/><path class="cls-5" d="M1894.36,758.3a3,3,0,1,1,3,3A3,3,0,0,1,1894.36,758.3Z"/><circle class="cls-5" cx="1886.93" cy="741.8" r="7.28" transform="translate(731.45 2407.82) rotate(-76.72)"/><circle class="cls-12" cx="1828.15" cy="600" r="10.62"/><path class="cls-12" d="M1809,617a4.26,4.26,0,1,1,4.26,4.26A4.25,4.25,0,0,1,1809,617Z"/><path class="cls-12" d="M1898.75,513.1a2.81,2.81,0,1,1,2.81,2.81A2.81,2.81,0,0,1,1898.75,513.1Z"/><circle class="cls-12" cx="1887.18" cy="494.66" r="9.92" transform="translate(202.96 1479.32) rotate(-45)"/><path class="cls-4" d="M1672,971.56c-45.14-8.11-89.31,22.34-98.64,68-8.9,43.61,17.17,85.3,58.83,96l-6.65,14.54,20.77,1.3-1.25-13.58c42.69,4,82.94-25.55,91.8-68.92C1746.21,1023.27,1717.18,979.67,1672,971.56Zm17.44,89.29a3.93,3.93,0,1,1,3.92-3.92A3.92,3.92,0,0,1,1689.47,1060.85Zm20.08-15.82a13.85,13.85,0,1,1,13.85-13.84A13.85,13.85,0,0,1,1709.55,1045Z"/><path class="cls-5" d="M1689.47,1060.85a3.93,3.93,0,1,1,3.92-3.92A3.92,3.92,0,0,1,1689.47,1060.85Z"/><circle class="cls-5" cx="1709.55" cy="1031.19" r="13.85" transform="translate(-228.44 1510.86) rotate(-45)"/><circle class="cls-5" cx="1776.71" cy="397.96" r="2.77"/><circle class="cls-5" cx="1766.89" cy="383.2" r="6.75"/><circle class="cls-12" cx="1820.25" cy="195.28" r="5.39" transform="translate(1211.98 1921.98) rotate(-76.72)"/><path class="cls-12" d="M1805,204.08a2.67,2.67,0,1,1,2.66,2.66A2.67,2.67,0,0,1,1805,204.08Z"/><circle class="cls-5" cx="20.79" cy="981.18" r="9.94"/><circle class="cls-5" cx="24.76" cy="1009.73" r="4.21"/><circle class="cls-6" cx="1864.48" cy="1020.75" r="8.65"/><circle class="cls-6" cx="1876.8" cy="1042.61" r="3.67"/><circle class="cls-5" cx="107.11" cy="171.81" r="6.67"/><circle class="cls-5" cx="114.11" cy="189.84" r="2.83"/><path class="cls-6" d="M213.39,1047.13a2.68,2.68,0,1,1,3.58,1.23A2.67,2.67,0,0,1,213.39,1047.13Z"/><circle class="cls-6" cx="201.03" cy="1036.86" r="6.46" transform="translate(-223.99 69.98) rotate(-12.76)"/><path class="cls-5" d="M110.23,277.6c-1.7-7-3.56-14.06-3.13-21.3l-3-.23c-.77,11.54,3.94,22.63,5.59,33.91a85.62,85.62,0,0,1-1.63,34.33A56.53,56.53,0,0,1,102,338.87c-2.59,4.31-5.88,8.53-10.39,11-9.23,5-22.47.79-26.72-8.88-1.9-4.31-2.4-11.6,2.21-14.52a5,5,0,0,1,6.5,7.59c-1.25,1.46.86,3.59,2.12,2.12,3.49-4.09,2.38-10.6-2.72-12.77-5.33-2.27-10.19,1.47-11.79,6.53-1.69,5.37-.18,11.54,3.09,16a22.5,22.5,0,0,0,14.54,8.63,22,22,0,0,0,17.22-4c4.61-3.56,8-8.66,10.58-13.83,5.57-11.24,7.39-24.12,7-36.56A110.32,110.32,0,0,0,110.23,277.6Z"/><path class="cls-5" d="M102.81,500.29C97.4,523,84.88,544.11,65.52,557.54A78.48,78.48,0,0,1,38,569.84a16.64,16.64,0,0,0,2-2.72,26.77,26.77,0,0,0,3.45-12.93A20.58,20.58,0,0,0,39.26,541a18.77,18.77,0,0,0-12.84-6.66c-10-1-21.07,5.39-22.19,16-.64,6,2,12.08,5.7,16.68,3.48,4.32,8.73,6.33,14.11,6.94,1,.1,1.93.15,2.89.18l-2.05,1c-11.53,5.82-24,9.57-35.44,15.54C-20.77,596-30.4,603.2-36,613.46c-5.88,10.74-7,23.29-7.06,35.32,0,3,0,6,.1,9.05,0,1.93,3,1.93,3,0-.26-12.71-.45-26,4.27-38,4.62-11.78,14.38-20,25.26-25.85,12-6.48,25.14-10.32,37.26-16.49a64.19,64.19,0,0,0,6.76-3.83,64.08,64.08,0,0,0,7.56-1.54,80.49,80.49,0,0,0,17.27-6.74c22.68-12,38.45-33.81,45.69-58.13.55-1.86,1-3.73,1.49-5.62ZM18,569.36c-5-2.13-8.38-7-10-12s-.95-10.61,2.86-14.59a18.54,18.54,0,0,1,12-5.48,16.69,16.69,0,0,1,12.84,4.32,16.67,16.67,0,0,1,4.69,11.7,23.77,23.77,0,0,1-2.91,12.11,17.13,17.13,0,0,1-5,5.42C27.68,571.4,22.5,571.28,18,569.36Z"/><path class="cls-5" d="M129.34,981.49A50.41,50.41,0,0,0,118.9,964.2c-6.52-6.77-15.55-10.3-22.34-16.73A39.52,39.52,0,0,1,86.45,932q-.56-1.59-1-3.24a30.27,30.27,0,0,0,9.26.07,21.24,21.24,0,0,0,12.48-6.89,14.44,14.44,0,0,0,3.8-7.5,11,11,0,0,0-2.22-8.07,13.32,13.32,0,0,0-15.52-4.81,18.86,18.86,0,0,0-11.19,13.43,28.1,28.1,0,0,0-.42,9.93c-7-1.83-13.7-5.26-19.85-9A79.33,79.33,0,0,1,45.64,903a54.61,54.61,0,0,1-11.08-16.83C33.41,883.4,27.67,869,32,852.25c.37-1.42.74-2.57,1-3.33l-3.28-.23a57,57,0,0,0,11.56,54,72.38,72.38,0,0,0,15.76,13.7c7.29,4.85,15.27,9.15,23.78,11.4l1.37.34A41.64,41.64,0,0,0,84.43,935a42.46,42.46,0,0,0,11.21,15.67c5.16,4.5,11.32,7.59,16.75,11.72.14.1.72.57,1.08.86.52.43,1,.87,1.53,1.33a37.16,37.16,0,0,1,2.85,2.9,42.38,42.38,0,0,1,5.47,7.93c4.77,8.81,7,18.89,8.35,28.74.47,3.49.81,7,1.06,10.51.14,1.91,3.14,1.93,3,0C134.92,1003.46,133.34,992.05,129.34,981.49ZM85.88,912.82c2-5,7.05-9.52,12.71-9.22,5.08.27,10.38,5.39,9.41,10.69-.88,4.79-5.63,8.83-10,10.52a23.65,23.65,0,0,1-12.32.92l-.9-.16A23.45,23.45,0,0,1,85.88,912.82Z"/><path class="cls-5" d="M1906,951.37c-2-.81-4-1.52-6.06-2.13-.06-22.27,5.42-45,18.2-63.47,1.12-1.62,2.32-3.18,3.55-4.72l-3.17-.83c-13.33,17.29-20,38.89-21.35,60.57-.15,2.52-.26,5.07-.28,7.62a70.43,70.43,0,0,0-7.23-1.4,73.19,73.19,0,0,0-33.68,3.17c-10.87,3.74-22,10.1-28.15,20.08-3.18,5.12-5.22,10.83-7.95,16.18a53.36,53.36,0,0,1-23.24,23.38c-5.59,2.87-11.88,4.94-18.22,4.62-5.24-.26-10.62-2.47-13.9-6.68-3-3.79-4.36-10.92.75-13.65a5.3,5.3,0,0,1,5.83.28c1.46,1.25,3.59-.86,2.12-2.12-3.69-3.15-9.44-2.08-12.31,1.69-3.31,4.35-2.28,10.66.7,14.88a20.89,20.89,0,0,0,13,8.15c6.18,1.21,12.58,0,18.37-2.28a56.36,56.36,0,0,0,25.55-20.24c6.68-9.58,8.94-21.82,17.83-29.86,8.37-7.57,19.59-12.19,30.59-14.2a69.36,69.36,0,0,1,29.9,1.1c0,2.23.17,4.45.4,6.66.53,5.14,1.93,10.89,6.16,14.29,3.42,2.74,8.48,3.77,12.51,1.82,5-2.4,5.6-8.57,3.36-13.09C1916.83,956.06,1911.07,953.42,1906,951.37Zm7.47,20.66c-4.45,1.2-8.77-1.51-10.85-5.34-2.32-4.29-2.58-9.46-2.66-14.31l.37.11a62.4,62.4,0,0,1,7.81,3.08,21.43,21.43,0,0,1,7.1,4.89C1918.33,963.93,1918.92,970.58,1913.51,972Z"/><path class="cls-5" d="M1814.86,711.78l-2.69,1.32a161.37,161.37,0,0,1,15.08,63.65,106.63,106.63,0,0,1-.57,16.76c-.68,5.14-2.17,10.31-5.34,14.5-5.66,7.46-15.43,10.42-24.39,11.24-8.14.74-17.78.45-24.86-4.22a44.91,44.91,0,0,0,4.81-1.29,21.37,21.37,0,0,0,5.86-2.7c8.11-5.84,2.76-18.18-5.79-20.27-4.49-1.1-9.85.14-12.79,3.89-3.24,4.13-3,10-1,14.63a17.47,17.47,0,0,0,2.35,3.84c-4.88.67-9.8,1-14.67,1.78-7.64,1.18-14.81,3.79-20.89,8.6s-10.39,11.55-13.47,18.61c-1.11,2.54-2.09,5.13-3,7.77-.6,1.84,2.29,2.62,2.9.8,2.88-8.73,7-17.43,14-23.65,5.95-5.33,13.42-8,21.23-9.24,5.46-.84,11-1.18,16.44-2,5.3,4.5,13,6.29,19.76,6.66,9.69.53,20.41-.89,28.75-6.17a26.48,26.48,0,0,0,10-11.25c2.38-5.17,3.21-10.87,3.53-16.51,1.36-24.53-3.52-49.57-13.19-72.09C1816.27,714.85,1815.57,713.32,1814.86,711.78Zm-50.16,90a8.57,8.57,0,0,1,8.41-8.39,10.11,10.11,0,0,1,9.83,6.09c1.59,3.55,1,7.33-2.42,9.46s-7.48,3-11.43,3.66A14.42,14.42,0,0,1,1764.7,801.78Z"/><path class="cls-5" d="M1931.65,410.42c-13.17-2.43-29.18-6.93-34.57-20.78-2.47-6.37-1.49-13.3,1.45-19.33,3.08-6.31,7.82-11.19,12.94-15.88s10.48-10,11.15-17.33a1.33,1.33,0,0,0-.12-.74l-2.48-.17a1.56,1.56,0,0,0-.4.91c-.6,6.61-6.11,11.4-10.69,15.6-5.25,4.79-10.08,10-13.17,16.47-3,6.34-4.2,13.61-1.89,20.38,2.18,6.41,6.92,11.65,12.52,15.33,7.29,4.79,16,6.87,24.46,8.43C1932.74,413.66,1933.55,410.77,1931.65,410.42Z"/><path class="cls-5" d="M1808.05,308.84a21,21,0,0,0-7.83-1.58c-2.67,0-5.32.49-8,.32a21.82,21.82,0,0,1-12.82-5.31,15,15,0,0,1-4.36-14.9,19.67,19.67,0,0,1,1.06-2.73,14.17,14.17,0,0,0,9.87,2.74,14.56,14.56,0,0,0,8.38-3.44,6,6,0,0,0,1-7.71,8.78,8.78,0,0,0-7.6-4.33,13.52,13.52,0,0,0-7.67,3.18,24.23,24.23,0,0,0-4.71,4.92,20.72,20.72,0,0,1-5.32-16.11c.84-7,5.28-13.14,10.82-17.25l.11-.09-2.82-1.57a29.72,29.72,0,0,0-10.52,15.58,23.33,23.33,0,0,0,3,18.12,22.32,22.32,0,0,0,3.11,3.93,18.26,18.26,0,0,0-2.22,7.68,18.54,18.54,0,0,0,9.34,16.74,26.4,26.4,0,0,0,15.61,3.45,22.71,22.71,0,0,1,9.49.77,24.79,24.79,0,0,1,7.06,3.82,27.23,27.23,0,0,1,9.81,16.11c.16.76.35,1.88.42,2.39.24,1.89,3.24,1.92,3,0C1824.86,322.7,1818.42,313,1808.05,308.84Zm-22.12-33.62a5.72,5.72,0,0,1,6.51,2.09c1.61,2.17.77,4.07-1.36,5.37a12.06,12.06,0,0,1-13.5-.65C1779.63,278.91,1782.54,276.24,1785.93,275.22Z"/><g class="cls-13"><path class="cls-8" d="M620.58,206.83c.08,5.51-5,9.31-4.91,14.82l-3.84-1.26c-.08-5.51,5-9.31,4.91-14.82Z"/><path class="cls-8" d="M1504.45,307.48c.07,5.51-5,9.31-4.92,14.82l-3.84-1.26c-.07-5.51,5-9.31,4.91-14.82Z"/><path class="cls-8" d="M315.5,229.57c-1.34,6.49-8.24,9.64-9.59,16.12l-4.18-2.47c1.33-6.48,8.23-9.64,9.59-16.11Z"/><path class="cls-8" d="M1666.69,599.28c3.85,5.39,1.46,12.59,5.29,18l-4.66,1.38c-3.84-5.39-1.46-12.59-5.29-18Z"/><path class="cls-8" d="M832.78,117.69c3.8,5.23,1.54,12.28,5.33,17.52l-4.53,1.4c-3.81-5.23-1.55-12.29-5.34-17.52Z"/><rect class="cls-8" x="1060.31" y="105.15" width="5.52" height="5.52" transform="matrix(0.93, -0.36, 0.36, 0.93, 32.57, 390.44)"/><rect class="cls-8" x="1607.23" y="253.07" width="5.85" height="5.85" transform="translate(16.04 597.93) rotate(-21.14)"/><rect class="cls-8" x="597.65" y="870.19" width="5.85" height="5.85" transform="translate(-274.47 275.35) rotate(-21.14)"/><rect class="cls-8" x="1453.28" y="1012.17" width="7.71" height="7.71" transform="translate(246.08 2315.62) rotate(-81.91)"/><rect class="cls-8" x="1476.97" y="314.12" width="5.85" height="5.85" transform="translate(-14.82 554.59) rotate(-21.12)"/><rect class="cls-8" x="1659.11" y="479.96" width="5.85" height="5.85" transform="translate(-62.35 631.38) rotate(-21.12)"/><rect class="cls-8" x="1289.48" y="42.95" width="5.85" height="5.85" transform="translate(70.33 468.89) rotate(-21.13)"/><rect class="cls-8" x="1593.67" y="287.62" width="6.18" height="6.18" transform="translate(2.53 594.99) rotate(-21.12)"/><rect class="cls-8" x="1188.61" y="171.25" width="6.18" height="6.18" transform="translate(17.25 441.19) rotate(-21.12)"/><rect class="cls-8" x="1562.85" y="713.34" width="6.18" height="6.18" transform="translate(-152.98 612.72) rotate(-21.13)"/><rect class="cls-8" x="1137.21" y="237.34" width="5.73" height="5.73" transform="translate(250.48 992.6) rotate(-52.12)"/><rect class="cls-8" x="1116.61" y="247.35" width="9.26" height="9.26" transform="translate(-15.44 421.16) rotate(-21.13)"/><rect class="cls-8" x="232.32" y="618.39" width="5.73" height="5.73" transform="translate(-399.58 425.44) rotate(-52.12)"/><rect class="cls-8" x="211.72" y="628.39" width="9.26" height="9.26" transform="translate(-213.66 120.56) rotate(-21.13)"/><rect class="cls-8" x="809.46" y="219.7" width="5.73" height="5.73" transform="translate(137.88 727.09) rotate(-52.12)"/><rect class="cls-8" x="254.93" y="380.34" width="5.73" height="5.73" transform="matrix(0.61, -0.79, 0.79, 0.61, -202.96, 351.4)"/><rect class="cls-8" x="788.86" y="229.71" width="9.26" height="9.26" transform="translate(-31.12 301.82) rotate(-21.13)"/><path class="cls-8" d="M1391.55,901c3.81,5.23,1.55,12.29,5.34,17.52l-4.53,1.4c-3.81-5.23-1.55-12.29-5.34-17.52Z"/><rect class="cls-8" x="1368.23" y="1003.04" width="5.73" height="5.73" transform="translate(-264.72 1470.51) rotate(-52.12)"/><rect class="cls-8" x="1347.63" y="1013.05" width="9.26" height="9.26" transform="translate(-275.95 555.93) rotate(-21.13)"/><rect class="cls-8" x="1658.29" y="905.12" width="5.73" height="5.73" transform="translate(-75.47 1661.66) rotate(-52.12)"/><rect class="cls-8" x="1637.69" y="915.13" width="9.26" height="9.26" transform="translate(-221.15 653.92) rotate(-21.13)"/><rect class="cls-8" x="1277.05" y="218.28" width="7.41" height="7.41" transform="translate(6.16 476.97) rotate(-21.15)"/><rect class="cls-8" x="669.58" y="301.01" width="7.41" height="7.41" transform="translate(-64.58 263.17) rotate(-21.13)"/><rect class="cls-8" x="1415.7" y="752.24" width="7.41" height="7.41" transform="translate(-177.07 562.45) rotate(-21.13)"/><rect class="cls-8" x="1480.83" y="785.75" width="6.56" height="6.56" transform="translate(-184.69 588.37) rotate(-21.14)"/><rect class="cls-8" x="636.56" y="45.62" width="6.56" height="6.56" transform="translate(25.43 234.06) rotate(-21.14)"/><rect class="cls-8" x="336.11" y="391.92" width="5.73" height="5.73" transform="translate(-180.76 419.95) rotate(-52.12)"/><rect class="cls-8" x="315.51" y="401.93" width="9.26" height="9.26" transform="translate(-125.04 142.75) rotate(-21.13)"/><rect class="cls-8" x="230.14" y="440.22" width="6.56" height="6.56" transform="translate(-144.24 114.03) rotate(-21.14)"/><path class="cls-8" d="M591.26,229.5c6,2.9,7.31,10.36,13.25,13.28l-3.43,3.44c-6-2.9-7.3-10.37-13.25-13.28Z"/><path class="cls-8" d="M1641.75,170.86c5.32,2.59,6.53,9.27,11.84,11.88l-3.06,3.08c-5.33-2.6-6.53-9.28-11.85-11.88Z"/><path class="cls-8" d="M735.23,766.62c5.33,2.6,6.54,9.27,11.85,11.88L744,781.58c-5.33-2.59-6.54-9.27-11.85-11.88Z"/><path class="cls-8" d="M1413.15,222.6c-3.1,6.9-11,9.78-14.08,16.67l-3.58-3c3.1-6.91,11-9.78,14.08-16.68Z"/><path class="cls-8" d="M1477.68,625.48c-3.1,6.91-11,9.79-14.08,16.68l-3.58-3c3.1-6.91,11-9.78,14.07-16.68Z"/><path class="cls-8" d="M644.43,701.62c-3.11,6.91-11,9.79-14.08,16.68l-3.58-3c3.1-6.91,11-9.78,14.07-16.68Z"/><path class="cls-8" d="M1472.34,353.12c4.33,4,3.52,10.78,7.83,14.84l-3.84,2c-4.33-4.05-3.51-10.79-7.82-14.84Z"/><path class="cls-8" d="M1311.87,820.56c.07,5.51-5,9.31-4.92,14.82l-3.84-1.26c-.07-5.51,5-9.31,4.91-14.82Z"/><rect class="cls-8" x="1284.39" y="827.2" width="5.85" height="5.85" transform="translate(-212.65 519.66) rotate(-21.12)"/><path class="cls-8" d="M1262,685.59c-3.1,6.91-11,9.78-14.08,16.68l-3.58-3c3.1-6.91,11-9.79,14.07-16.68Z"/><path class="cls-8" d="M1279.76,866.2c4.33,4,3.52,10.78,7.83,14.83l-3.84,2c-4.33-4-3.51-10.78-7.82-14.83Z"/><path class="cls-8" d="M782.08,881.59c.07,5.52-5,9.32-4.91,14.83l-3.85-1.26c-.07-5.52,5-9.32,4.91-14.82Z"/><rect class="cls-8" x="754.6" y="888.23" width="5.85" height="5.85" transform="translate(-270.24 332.85) rotate(-21.12)"/><path class="cls-8" d="M750,927.23c4.33,4,3.52,10.78,7.83,14.84l-3.83,2c-4.33-4.05-3.52-10.78-7.83-14.84Z"/><path class="cls-8" d="M692,273.54c4.33,4,3.51,10.78,7.83,14.84l-3.84,2c-4.33-4.05-3.51-10.78-7.83-14.84Z"/><path class="cls-8" d="M154.4-7c4.33,4,3.52,10.78,7.83,14.83l-3.84,2c-4.33-4-3.51-10.78-7.82-14.83Z"/><path class="cls-8" d="M934.48,171.32c4.67,2.28,5.73,8.14,10.4,10.42l-2.69,2.7c-4.68-2.27-5.74-8.13-10.4-10.42Z"/><rect class="cls-8" x="617.59" y="860.86" width="5.73" height="5.73" transform="translate(-442.25 823.13) rotate(-52.12)"/><rect class="cls-8" x="596.99" y="870.87" width="9.26" height="9.26" transform="translate(-275.17 275.76) rotate(-21.13)"/><path class="cls-8" d="M517.12,729.73c4.67,2.28,5.73,8.14,10.39,10.42l-2.69,2.7c-4.67-2.27-5.73-8.13-10.39-10.42Z"/><path class="cls-8" d="M1422.09,730.81c4.68,2.27,5.74,8.13,10.4,10.42l-2.69,2.7c-4.68-2.27-5.73-8.14-10.4-10.42Z"/><rect class="cls-8" x="1184.61" y="613.91" width="6.18" height="6.18" transform="translate(226.59 1548.45) rotate(-71.55)"/><rect class="cls-8" x="1067.33" y="580.3" width="7.41" height="7.41" transform="translate(178.09 1415.18) rotate(-71.55)"/><rect class="cls-8" x="1135.06" y="705.19" width="6.56" height="6.56" transform="translate(106.22 1564.32) rotate(-71.56)"/><path class="cls-8" d="M1089.13,566.35c2.15,4.73-.77,9.92,1.37,14.66l-3.8.36c-2.15-4.73.77-9.92-1.37-14.65Z"/><rect class="cls-8" x="1188.98" y="989.42" width="7.41" height="7.41" transform="translate(-277.8 496.68) rotate(-21.13)"/><rect class="cls-8" x="1254.11" y="1022.94" width="6.56" height="6.56" transform="translate(-285.49 522.56) rotate(-21.14)"/><path class="cls-8" d="M1195.38,968c4.67,2.28,5.73,8.14,10.39,10.43l-2.69,2.7c-4.67-2.28-5.73-8.14-10.4-10.42Z"/><rect class="cls-8" x="551.46" y="1025.64" width="7.41" height="7.41" transform="translate(-522.69 575.51) rotate(-38.83)"/><rect class="cls-8" x="623.59" y="1037.92" width="6.56" height="6.56" transform="translate(-514.38 623.33) rotate(-38.84)"/><path class="cls-8" d="M550.09,1004.58c5.14.74,7.93,6,13.07,6.77l-1.74,3.39c-5.15-.75-7.94-6-13.07-6.77Z"/><rect class="cls-8" x="1512.32" y="949.1" width="7.41" height="7.41" transform="translate(-241.53 610.52) rotate(-21.13)"/><path class="cls-8" d="M1518.72,927.67c4.67,2.28,5.73,8.14,10.39,10.42l-2.69,2.7c-4.67-2.27-5.73-8.13-10.39-10.42Z"/><rect class="cls-8" x="1317.89" y="428.75" width="7.71" height="7.71" transform="translate(707.36 1680.29) rotate(-81.91)"/><rect class="cls-8" x="1381.32" y="583.22" width="7.41" height="7.41" transform="translate(-118.46 538.7) rotate(-21.13)"/><path class="cls-8" d="M1387.72,561.79c4.67,2.28,5.73,8.14,10.39,10.43l-2.69,2.7c-4.67-2.28-5.73-8.14-10.39-10.42C1385.92,563.59,1386.82,562.69,1387.72,561.79Z"/><rect class="cls-8" x="566.87" y="602.38" width="7.41" height="7.41" transform="translate(-180.11 246.41) rotate(-21.13)"/><path class="cls-8" d="M573.26,581c4.68,2.28,5.74,8.14,10.4,10.42L581,594.08c-4.68-2.28-5.74-8.14-10.4-10.42Z"/><rect class="cls-8" x="418.53" y="470.04" width="7.41" height="7.41" transform="translate(-142.38 184.05) rotate(-21.13)"/><path class="cls-8" d="M424.93,448.61c4.67,2.27,5.73,8.13,10.39,10.42l-2.69,2.7c-4.67-2.28-5.73-8.14-10.39-10.42Z"/><rect class="cls-8" x="346.12" y="718.25" width="7.41" height="7.41" transform="translate(-236.72 174.63) rotate(-21.13)"/><path class="cls-8" d="M352.51,696.82c4.68,2.28,5.74,8.14,10.4,10.42l-2.69,2.7c-4.68-2.27-5.74-8.13-10.4-10.42Z"/><path class="cls-8" d="M1301.42,316.79c-2,5.47-8.37,7.34-10.37,12.81l-3.32-2.68c2-5.47,8.37-7.34,10.36-12.8Z"/><rect class="cls-8" x="590.02" y="254.92" width="7.14" height="7.14" transform="translate(-53.27 231.37) rotate(-21.13)"/><rect class="cls-8" x="1642.57" y="615.83" width="7.14" height="7.14" transform="translate(-112.61 635.02) rotate(-21.13)"/><rect class="cls-8" x="1454.09" y="482.74" width="7.14" height="7.14" transform="translate(-77.3 558.13) rotate(-21.13)"/><path class="cls-8" d="M1616.6,29.72c3.84,5.39,1.46,12.59,5.29,18l-4.66,1.39c-3.85-5.4-1.46-12.6-5.29-18Z"/><rect class="cls-8" x="1592.48" y="46.27" width="7.14" height="7.14" transform="translate(89.33 578.67) rotate(-21.13)"/><path class="cls-8" d="M570.2,466.16c3.84,5.39,1.46,12.6,5.28,18l-4.65,1.38c-3.85-5.39-1.46-12.6-5.29-18Z"/><rect class="cls-8" x="546.08" y="482.72" width="7.14" height="7.14" transform="translate(-138.34 230.82) rotate(-21.13)"/><rect class="cls-8" x="425.26" y="330.53" width="5.85" height="5.85" transform="translate(-91.4 176.71) rotate(-21.12)"/><path class="cls-8" d="M487.15,292.25c-3.1,6.91-11,9.78-14.08,16.67l-3.58-3c3.1-6.91,11-9.78,14.07-16.68Z"/><path class="cls-8" d="M479.43,193.54c3.85,5.39,1.46,12.59,5.29,18l-4.66,1.39c-3.84-5.4-1.46-12.6-5.29-18Z"/><rect class="cls-8" x="455.31" y="210.09" width="7.14" height="7.14" transform="translate(-46.17 179.77) rotate(-21.13)"/><rect class="cls-8" x="1578.78" y="436.84" width="7.14" height="7.14" transform="translate(-52.39 599.8) rotate(-21.12)"/><rect class="cls-8" x="1313.82" y="328.55" width="7.14" height="7.14" transform="translate(-31.13 497.42) rotate(-21.14)"/><rect class="cls-8" x="692.93" y="404.8" width="7.41" height="7.41" transform="translate(273.16 1096.15) rotate(-88.76)"/><rect class="cls-8" x="1856.64" y="135.36" width="7.41" height="7.41" transform="translate(1681.09 1995.96) rotate(-88.76)"/><rect class="cls-8" x="698.88" y="602.51" width="7.71" height="7.71" transform="matrix(0.51, -0.86, 0.86, 0.51, -176.28, 904.45)"/><path class="cls-8" d="M728,491.54c-3.91,4.31-10.53,3.6-14.46,7.89l-2.05-3.74c3.91-4.3,10.54-3.6,14.46-7.89Z"/><rect class="cls-8" x="733.4" y="508.23" width="7.14" height="7.14" transform="translate(209.26 1237.46) rotate(-88.75)"/><path class="cls-8" d="M574,348.21c-2,5.47-8.38,7.35-10.37,12.81l-3.32-2.68c2-5.47,8.37-7.34,10.36-12.8Z"/><rect class="cls-8" x="586.35" y="359.98" width="7.14" height="7.14" transform="translate(-91.41 237.2) rotate(-21.14)"/><path class="cls-8" d="M1179.34,359.92c-4,3.77-10.23,2.59-14.27,6.34l-1.65-3.69c4-3.77,10.23-2.59,14.27-6.34Z"/><rect class="cls-8" x="1138.67" y="461.06" width="7.41" height="7.41" transform="translate(215.41 1278.25) rotate(-63.41)"/><path class="cls-8" d="M1142.85,353.48c1.86,6.35-2.76,12.37-.92,18.73l-4.85-.22c-1.86-6.36,2.76-12.38.91-18.73Z"/><path class="cls-8" d="M1178,457.65c-.08,5.92-5.62,9.85-5.71,15.77l-4.09-1.46c.08-5.93,5.61-9.86,5.71-15.78Z"/><rect class="cls-8" x="1119.39" y="371.14" width="7.14" height="7.14" transform="translate(285.25 1211.18) rotate(-63.41)"/><path class="cls-8" d="M1043.36,420.53c-5.37,2.22-11.06-1.25-16.44.94-.09-1.41-.18-2.83-.26-4.25,5.38-2.22,11.07,1.25,16.45-1C1043.19,417.69,1043.28,419.11,1043.36,420.53Z"/><rect class="cls-8" x="1039.19" y="439.09" width="7.14" height="7.14" transform="translate(180.27 1177.11) rotate(-63.42)"/><path class="cls-8" d="M395.46,823.55c.08,5.51-5,9.31-4.91,14.82l-3.84-1.26c-.08-5.51,5-9.31,4.91-14.82Z"/><rect class="cls-8" x="464.46" y="937.72" width="7.41" height="7.41" transform="translate(-307.87 232.04) rotate(-21.13)"/><path class="cls-8" d="M366.14,846.21c6,2.9,7.31,10.37,13.25,13.28L376,862.93c-6-2.89-7.31-10.36-13.25-13.27Z"/><path class="cls-8" d="M486.89,910.26c4.33,4,3.51,10.78,7.83,14.84l-3.84,2c-4.33-4-3.52-10.79-7.83-14.84Z"/><rect class="cls-8" x="364.9" y="871.64" width="7.14" height="7.14" transform="translate(-290.74 191.69) rotate(-21.13)"/><path class="cls-8" d="M1299.91,529.65c.07,5.52-5,9.32-4.92,14.83l-3.84-1.26c-.07-5.52,5-9.32,4.91-14.82Z"/><path class="cls-8" d="M1270.59,552.32c6,2.9,7.3,10.37,13.24,13.28l-3.42,3.44c-6-2.9-7.31-10.36-13.25-13.27Z"/><rect class="cls-8" x="1269.35" y="577.75" width="7.14" height="7.14" transform="translate(-123.97 497.98) rotate(-21.13)"/><path class="cls-8" d="M832.12,331.32c4,3.79,3.22,10.05,7.22,13.85l-3.58,1.88c-4-3.79-3.23-10.05-7.22-13.85Z"/><rect class="cls-8" x="965.36" y="317.96" width="7.41" height="7.41" transform="translate(294.18 1087.89) rotate(-66.99)"/><path class="cls-8" d="M828,368.15c6.23-2.26,12.52,2,18.75-.26l.09,4.86c-6.23,2.25-12.53-2-18.76.26C828,371.39,828,369.77,828,368.15Z"/><path class="cls-8" d="M959.74,286.52c5.92-.29,10.18,5,16.1,4.71-.4,1.4-.81,2.79-1.21,4.18-5.92.29-10.19-5-16.1-4.72C958.93,289.3,959.34,287.91,959.74,286.52Z"/><rect class="cls-8" x="846.83" y="383.1" width="7.14" height="7.14" transform="translate(162.1 1018.29) rotate(-66.99)"/><rect class="cls-8" x="361.22" y="976.69" width="7.14" height="7.14" transform="translate(-328.95 197.51) rotate(-21.14)"/><path class="cls-8" d="M305.17,26.37c-2,5.47-8.38,7.34-10.37,12.8l-3.32-2.67c2-5.47,8.37-7.34,10.36-12.8Z"/><rect class="cls-8" x="317.57" y="38.13" width="7.14" height="7.14" transform="translate(6.57 118.61) rotate(-21.14)"/><rect class="cls-8" x="363.95" y="548.52" width="5.73" height="5.73" transform="translate(-293.62 502.37) rotate(-52.12)"/><rect class="cls-8" x="343.35" y="558.52" width="9.26" height="9.26" transform="translate(-179.62 163.32) rotate(-21.13)"/><path class="cls-8" d="M446.87,585.2c-2,5.47-8.37,7.34-10.36,12.8l-3.33-2.67c2-5.47,8.38-7.35,10.37-12.8Z"/><rect class="cls-8" x="459.27" y="596.96" width="7.14" height="7.14" transform="matrix(0.93, -0.36, 0.36, 0.93, -185.42, 207.32)"/><rect class="cls-8" x="1134.64" y="827.96" width="7.41" height="7.41" transform="translate(-249.42 583.44) rotate(-26.01)"/><path class="cls-8" d="M1163.62,832.21c-1.87,4.85-7.62,6.4-9.5,11.24-1-.81-1.95-1.63-2.92-2.45,1.87-4.85,7.62-6.4,9.5-11.24Z"/><rect class="cls-8" x="881.16" y="776.93" width="7.41" height="7.41" transform="translate(-252.71 467.11) rotate(-26.01)"/><path class="cls-8" d="M910.14,781.18c-1.87,4.85-7.62,6.41-9.5,11.25L897.72,790c1.87-4.86,7.62-6.41,9.5-11.25Z"/><rect class="cls-8" x="1053.4" y="780.19" width="5.73" height="5.73" transform="translate(-175.72 1242.5) rotate(-57)"/><rect class="cls-8" x="1038.31" y="760.66" width="9.26" height="9.26" transform="translate(-229.98 534.94) rotate(-26.01)"/><path class="cls-8" d="M1029.38,865.7c-5.61-1.5-8-7.72-13.63-9.24l2.38-3.54c5.62,1.5,8,7.72,13.64,9.24Z"/><rect class="cls-8" x="1011.9" y="879.34" width="7.14" height="7.14" transform="translate(-284.39 534.96) rotate(-26.02)"/><rect class="cls-8" x="318.63" y="257.38" width="7.14" height="7.14" transform="translate(-14.21 503.31) rotate(-74.77)"/><rect class="cls-8" x="1059.66" y="125.6" width="7.53" height="7.53" transform="translate(24.87 392.08) rotate(-21.13)"/><rect class="cls-8" x="669.51" y="35.41" width="7.53" height="7.53" transform="translate(31.15 245.36) rotate(-21.13)"/><rect class="cls-8" x="1583.61" y="277.37" width="6.38" height="6.39" transform="translate(1253.39 1857.11) rotate(-88.09)"/><rect class="cls-8" x="805.21" y="697.44" width="6.18" height="6.18" transform="translate(-198.15 338.38) rotate(-21.12)"/><rect class="cls-8" x="795.15" y="687.19" width="6.38" height="6.39" transform="translate(81.68 1465.22) rotate(-88.09)"/><rect class="cls-8" x="1473.11" y="38.62" width="5.73" height="5.73" transform="translate(536.99 1181.01) rotate(-52.12)"/><rect class="cls-8" x="1452.51" y="48.63" width="9.26" height="9.26" transform="translate(78.78 528.89) rotate(-21.13)"/><rect class="cls-8" x="487.77" y="38.23" width="7.71" height="7.71" transform="translate(380.74 522.89) rotate(-81.91)"/><rect class="cls-8" x="254.09" y="835.56" width="7.41" height="7.41" transform="translate(-285.19 149.34) rotate(-21.13)"/><path class="cls-8" d="M260.48,814.13c4.68,2.28,5.74,8.14,10.4,10.43l-2.69,2.7c-4.68-2.28-5.74-8.14-10.4-10.42Z"/><rect class="cls-8" x="1572.73" y="544.81" width="7.41" height="7.41" transform="translate(-91.74 605.11) rotate(-21.13)"/><path class="cls-8" d="M1579.12,523.38c4.68,2.28,5.74,8.14,10.4,10.42l-2.69,2.7c-4.68-2.27-5.74-8.13-10.4-10.42Z"/><path class="cls-8" d="M989.76,640.49c3.84,5.39,1.46,12.59,5.28,18l-4.65,1.39c-3.85-5.4-1.46-12.6-5.29-18Z"/><rect class="cls-8" x="982.17" y="521.17" width="5.85" height="5.85" transform="translate(-122.68 390.21) rotate(-21.12)"/><rect class="cls-8" x="965.64" y="657.04" width="7.14" height="7.14" transform="translate(-172.97 393.78) rotate(-21.13)"/><rect class="cls-8" x="901.85" y="478.05" width="7.14" height="7.14" transform="translate(-112.73 358.63) rotate(-21.12)"/><rect class="cls-8" x="865.79" y="596.02" width="7.41" height="7.41" transform="translate(-157.72 353.74) rotate(-21.13)"/><path class="cls-8" d="M872.19,574.59c4.67,2.28,5.73,8.14,10.4,10.42l-2.69,2.7c-4.68-2.27-5.74-8.13-10.4-10.42Z"/><rect class="cls-8" x="1603.88" y="837.42" width="5.85" height="5.85" transform="matrix(0.93, -0.36, 0.36, 0.93, -194.87, 635.5)"/><rect class="cls-8" x="914.55" y="924.3" width="6.18" height="6.18" transform="translate(-276.89 1452.01) rotate(-69.01)"/><rect class="cls-8" x="900.04" y="1027.8" width="7.41" height="7.41" transform="translate(-383.04 1505.78) rotate(-69.01)"/><rect class="cls-8" x="968.41" y="1002.42" width="6.56" height="6.56" transform="translate(-315.23 1552.93) rotate(-69.02)"/><path class="cls-8" d="M886.9,1012.65c4.83-1.94,9.88,1.2,14.71-.72.06,1.27.13,2.53.2,3.8-4.83,1.95-9.88-1.2-14.71.73C887,1015.19,887,1013.92,886.9,1012.65Z"/><rect class="cls-8" x="1089.11" y="946.18" width="5.85" height="5.85" transform="translate(-185.34 1628.56) rotate(-69)"/><rect class="cls-8" x="1157.63" y="20.15" width="7.41" height="7.41" transform="translate(69.47 420.22) rotate(-21.13)"/><path class="cls-8" d="M1164-1.28c4.67,2.28,5.73,8.14,10.39,10.42l-2.69,2.7c-4.67-2.27-5.73-8.13-10.4-10.42Z"/></g></svg>