<svg id="Layer_1" data-name="Layer 1" xmlns="http://www.w3.org/2000/svg" width="1920" height="1080" viewBox="0 0 1920 1080">
  <defs>
    <style>
      .cls-1, .cls-2, .cls-3, .cls-4, .cls-5 {
        fill: #fff;
      }

      .cls-1 {
        opacity: 0.32;
      }

      .cls-2 {
        opacity: 0.14;
      }

      .cls-3 {
        opacity: 0.15;
      }

      .cls-4 {
        opacity: 0.2;
      }

      .cls-5 {
        opacity: 0.07;
      }
    </style>
  </defs>
  <title>headerart_invertedidea</title>
  <circle class="cls-1" cx="105" cy="1016" r="145"/>
  <circle class="cls-1" cx="265" cy="1131" r="145"/>
  <circle class="cls-2" cx="237.5" cy="828.5" r="117.5"/>
  <circle class="cls-1" cx="135.5" cy="711.5" r="83.5"/>
  <circle class="cls-1" cx="282.5" cy="621.5" r="41.5"/>
  <circle class="cls-1" cx="153" cy="484" r="31"/>
  <circle class="cls-2" cx="184" cy="453" r="23"/>
  <circle class="cls-1" cx="75" cy="271" r="23"/>
  <circle class="cls-1" cx="177" cy="169" r="16"/>
  <circle class="cls-1" cx="1840.34" cy="1103.61" r="143.39"/>
  <circle class="cls-3" cx="1514.61" cy="1203.58" r="143.39"/>
  <circle class="cls-1" cx="1705.58" cy="954.23" r="116.19"/>
  <circle class="cls-1" cx="1806.45" cy="838.53" r="82.57"/>
  <circle class="cls-1" cx="1661.08" cy="749.53" r="41.04"/>
  <circle class="cls-2" cx="1789.14" cy="613.56" r="30.66"/>
  <circle class="cls-1" cx="1758.49" cy="582.91" r="22.74"/>
  <circle class="cls-1" cx="1866.28" cy="402.93" r="22.74"/>
  <circle class="cls-1" cx="1765.41" cy="302.06" r="15.82"/>
  <circle class="cls-4" cx="1686.41" cy="153.06" r="15.82"/>
  <circle class="cls-5" cx="574.5" cy="1104.5" r="192.5"/>
  <circle class="cls-5" cx="1439.5" cy="954.5" r="192.5"/>
  <circle class="cls-5" cx="516.26" cy="523.12" r="143.39"/>
  <circle class="cls-5" cx="1195.89" cy="1015.79" r="143.39"/>
  <circle class="cls-5" cx="1582.15" cy="403.16" r="80.15"/>
  <circle class="cls-5" cx="1531.15" cy="535.16" r="80.15"/>
  <circle class="cls-5" cx="393.65" cy="391.65" r="54.65"/>
  <circle class="cls-5" cx="652.65" cy="794.65" r="54.65"/>
  <circle class="cls-4" cx="1611.41" cy="669.06" r="15.82"/>
  <circle class="cls-3" cx="859.29" cy="1014.93" r="143.39"/>
  <circle class="cls-3" cx="1263.06" cy="749.16" r="116.16"/>
  <circle class="cls-5" cx="497.65" cy="650.65" r="54.65"/>
</svg>
