<svg xmlns="http://www.w3.org/2000/svg" width="1920" height="1080" viewBox="0 0 1920 1080"><defs/><defs><style>.cls-1{opacity:.46}.cls-10,.cls-11,.cls-2,.cls-5,.cls-6,.cls-9{fill:#fff}.cls-2{opacity:.1}.cls-3{fill:none}.cls-10,.cls-6,.cls-9{fill-rule:evenodd}.cls-6{opacity:.33}.cls-10,.cls-11{opacity:.15}.cls-13{opacity:.31}</style></defs><g class="cls-1"><path class="cls-2" d="M1672 190.87c-87.3-6.4-107.47 132.11-34.88 143 59.35 8.93 146.55-134.82 34.88-143zM167.65 215.58c-42.26 69.08 41.68 232.11 139.35 87.63 69.11-102.27-75.68-191.71-139.35-87.63z"/><path class="cls-3" d="M-247.8-202.5h1920v1080h-1920z"/><g opacity=".2"><path class="cls-3" d="M1105-3.33a9 9 0 00-6.38 15.4A9 9 0 001114 5.69a9 9 0 00-9-9zM767.69 133.68a9 9 0 106.38 2.64 9 9 0 00-6.38-2.64zM278.27 40.83a9 9 0 106.38 2.64 9 9 0 00-6.38-2.64zM1273.17 303.79a9 9 0 106.38 2.64 9 9 0 00-6.38-2.64zM64.1 278.06a9 9 0 106.38 2.64 9 9 0 00-6.38-2.64z"/><path class="cls-5" d="M1153.67 225.16H1149v-4.62a1.5 1.5 0 10-3 0v4.62h-4.62a1.5 1.5 0 000 3h4.62v4.63a1.5 1.5 0 003 0v-4.63h4.63a1.5 1.5 0 000-3zM427.79 176.83h-4.62v-4.62a1.5 1.5 0 10-3 0v4.62h-4.63a1.5 1.5 0 000 3h4.63v4.63a1.5 1.5 0 003 0v-4.63h4.62a1.5 1.5 0 000-3zM1790.42 445.57h-4.63v-4.63a1.5 1.5 0 00-3 0v4.63h-4.62a1.5 1.5 0 000 3h4.62v4.62a1.5 1.5 0 103 0v-4.62h4.63a1.5 1.5 0 000-3zM1878.21 351.56h-4.62v-4.62a1.5 1.5 0 10-3 0v4.62H1866a1.5 1.5 0 000 3h4.63v4.63a1.5 1.5 0 003 0v-4.63h4.62a1.5 1.5 0 000-3zM1486.79 70.83h-4.62v-4.62a1.5 1.5 0 00-3 0v4.62h-4.63a1.5 1.5 0 000 3h4.63v4.63a1.5 1.5 0 103 0v-4.63h4.62a1.5 1.5 0 000-3zM1318.32 133.16h-4.63v-4.62a1.5 1.5 0 10-3 0v4.62h-4.62a1.5 1.5 0 000 3h4.62v4.63a1.5 1.5 0 003 0v-4.63h4.63a1.5 1.5 0 000-3zM1559.64 373.47H1555v-4.62a1.5 1.5 0 00-3 0v4.62h-4.62a1.5 1.5 0 000 3h4.62v4.63a1.5 1.5 0 103 0v-4.63h4.63a1.5 1.5 0 000-3zM1735 133h-4.62v-4.62a1.5 1.5 0 00-3 0V133h-4.63a1.5 1.5 0 000 3h4.63v4.63a1.5 1.5 0 103 0V136h4.62a1.5 1.5 0 000-3zM276.8 407.83h-7.63v-7.63a1.5 1.5 0 00-3 0v7.63h-7.64a1.5 1.5 0 000 3h7.64v7.64a1.5 1.5 0 003 0v-7.64h7.63a1.5 1.5 0 000-3zM1708.8 100.83h-7.63V93.2a1.5 1.5 0 00-3 0v7.63h-7.64a1.5 1.5 0 000 3h7.64v7.64a1.5 1.5 0 103 0v-7.64h7.63a1.5 1.5 0 000-3zM1330.48 102.83a2.83 2.83 0 102.82 2.83 2.83 2.83 0 00-2.82-2.83zM1579.91 331.12a2.83 2.83 0 102.83 2.83 2.83 2.83 0 00-2.83-2.83z"/><circle class="cls-5" cx="1609.28" cy="374.97" r="11.92" transform="translate(-39.61 482.44) rotate(-16.85)"/><path class="cls-5" d="M1518.29 113.34a2.83 2.83 0 102.83 2.82 2.83 2.83 0 00-2.83-2.82zM390.3 385.33a2.83 2.83 0 10-2.83-2.82 2.83 2.83 0 002.83 2.82zM382.75 393.68a2.83 2.83 0 102.83-2.83 2.83 2.83 0 00-2.83 2.83z"/><circle class="cls-5" cx="1785.42" cy="199.2" r="11.02"/><circle class="cls-5" cx="590.6" cy="287.08" r="11.02" transform="translate(99.36 722.86) rotate(-67.5)"/><circle class="cls-5" cx="118.15" cy="208.01" r="11.02" transform="translate(-119.25 237.56) rotate(-67.5)"/><path class="cls-5" d="M278.27 36.83a13 13 0 1013 13 13 13 0 00-13-13zm6.38 19.41a9 9 0 112.64-6.39 9 9 0 01-2.64 6.39zM64.1 208.06a13 13 0 1013 13 13 13 0 00-13-13zm6.38 19.4a9 9 0 112.64-6.38 9 9 0 01-2.64 6.38zM383.54 133.62a13 13 0 1013 13 13 13 0 00-13-13zm6.38 19.4a9 9 0 112.64-6.38 9 9 0 01-2.64 6.36zM762.47 268.51h-4.62v-4.63a1.5 1.5 0 00-3 0v4.63h-4.63a1.5 1.5 0 000 3h4.63v4.62a1.5 1.5 0 003 0v-4.62h4.62a1.5 1.5 0 000-3zM740.56 352.15h-4.63v-4.62a1.5 1.5 0 00-3 0v4.62h-4.62a1.5 1.5 0 000 3h4.62v4.63a1.5 1.5 0 103 0v-4.63h4.63a1.5 1.5 0 000-3zM800.18 229.56a2.83 2.83 0 102.83 2.82 2.83 2.83 0 00-2.83-2.82zM95.55 89.11a2.83 2.83 0 102.83 2.83 2.83 2.83 0 00-2.83-2.83zM112.73 93.84a2.83 2.83 0 102.82 2.83 2.82 2.82 0 00-2.82-2.83z"/><circle class="cls-5" cx="441.11" cy="119.51" r="11.02"/><path class="cls-5" d="M1782.9 52.62a11 11 0 1011 11 11 11 0 00-11-11zM1862 104.67a13 13 0 1013 13 13 13 0 00-13-13zm6.38 19.4a9 9 0 112.65-6.38 9 9 0 01-2.69 6.38zM1273.17 299.79a13 13 0 1013 13 13 13 0 00-13-13zm6.38 19.4a9 9 0 112.65-6.38 9 9 0 01-2.65 6.38z"/></g></g><g class="cls-1"><path class="cls-6" d="M250.7 477.93a46.38 46.38 0 00-88.19-11.79V436.6h-14.57a46.39 46.39 0 00-92.22 7.12l-.34 372.75 86.75-13.59 6.35 15h116.79v-340z"/><path d="M1333.45 527.3q-.85-8.52-1.29-17.06c8.31-1.1 16-4.76 20.08-11 23.91-.56 31.67-24.49 23.59-32.08 2.3-11.16-1.95-20.74-10.2-24.64-1.31-12.4-4.94-21.8-14.87-26.36-1.6-7-6.2-11.78-13.57-14.36-2.64-16.42-21.39-12.55-22.33 1.44-6.21 2.12-10.2 8.83-10.94 15.42-8.08 4-14.13 12.2-13.48 22.28-8.16 3.4-11.46 15.25-10.57 27-6.12 6.41-2.43 26.74 21 31.15 4.6 7 13.65 10.76 23.06 11.37q-.39 7.4-1 14.66-45.59-9.07-91.32-15.4a265.8 265.8 0 01-1.3-21.29 20.17 20.17 0 008.6-2.83c9-.25 13.84-10.65 12.36-16.09 3.17-8 2.72-19-3.89-25.87.38-7.53-5.08-16.51-10.93-18.2-3.77-9.54-14.88-9.19-18.77.25-7.36 4.93-11.59 12-10.69 21-6.43 6.72-5.15 14.13-2.31 21.88-1 8.55 3.92 16.17 13.38 17a15.23 15.23 0 007.18 2.77c-.22 6.89-.59 13.66-1.23 20.31a1549.86 1549.86 0 00-198.84-13.62l-7-101h17v-9.8h-62.91v9.8h17l-7 101.44a1609.43 1609.43 0 00-238.34 23.59c-.6-6-1-12-1.18-18a14.92 14.92 0 007.48-3.55c3.92 2 10.73-2 10.8-7.18 2.78-2 4.79-7.17 3.88-12 2.83-5.23 3.21-11.14.5-17.66 1.29-5.95 1.16-12.15-3.33-17.07a20.75 20.75 0 00-6.83-17.08c-.57-6-3.75-10.49-8.83-12.21-3.1-7-10.59-6.13-13.21.14-5.46 2.35-7.26 7.42-7.83 13.39a19.61 19.61 0 00-6.83 16.49c-4.48 4.92-5.12 10.53-3.83 16.49-2.72 6.51-2.84 12.42 0 17.65a14.83 14.83 0 002.86 12c.07 5.19 7.47 8.88 11.31 7.18a14.74 14.74 0 008.24 3.57c-.26 6.51-.67 12.92-1.32 19.23q-27.49 4.92-55 10.79-.56-6.84-.8-13.67a15 15 0 004.61-2.17c8.28-1.09 10.93-8.32 10.81-15.13 4-2.17 6.09-9.54 5.76-16.94 2.59-8.7 4.15-17.7-1.44-27.38 1.55-5.66.15-11.38-4.32-17.29-.46-6-3.51-9.95-9-11.89-4.76-8.89-13.56-7.65-18.38 0-4.23 1.66-6.34 5.43-7.2 10.45-5.46 5-6.79 10.77-6.49 16.93l-.09.14c-.37-.45-.74-.89-1.16-1.32-.73-4.59-2.38-8-5.64-9.55-1.85-3.52-4.45-5.56-7-5.7s-5.2 1.63-7.08 5.7c-4.26 1.81-6.71 5.42-7.27 11-3.81 5.46-5.26 10.74-4.38 15.94a29.91 29.91 0 00-4.18 13 43.34 43.34 0 001 12.27c-.76 6.82.69 13.59 4.24 15.49-.32 6.27 2 12.84 9.6 13.58a13.46 13.46 0 005 2c-.2 4.93-.49 9.8-.91 14.61q-257.85 62-520.27 206.85V1072h1775.11V748.24q-276.06-162.97-557.87-220.94zM673 533q-14.79 3.22-29.62 6.72c-.36-4.28-.59-8.56-.74-12.85a12.58 12.58 0 005.57-2.32c6-.55 10.64-6.31 10.46-12.52a9.29 9.29 0 00.65-.74 12.17 12.17 0 007.95 4.2 13.74 13.74 0 006.67 2.61c-.21 5.03-.51 10-.94 14.9z" opacity=".11" fill-rule="evenodd" fill="#fff"/><g opacity=".22"><path class="cls-9" d="M1013.15 421h-19.92v32h21v-32zm-17.81 2.12h16.75v27.73h-16.75z"/><path class="cls-5" d="M1002.66 422.02h2.12v29.85h-2.12z"/><path class="cls-5" d="M994.29 435.88h18.87V438h-18.87z"/></g><path class="cls-10" d="M1022.26 366.28l4.39-4.39a34.02 34.02 0 00-2.16-2.17l-4.4 4.4z"/><path class="cls-11" transform="translate(9.93 846.17) rotate(-45)" d="M1024.85 405.9h3.06v10.39h-3.06z"/><path class="cls-10" d="M1019.11 364.62l-13 13a2.78 2.78 0 01.37 1.37 2.69 2.69 0 01-.36 1.32l13 13 5.65-5.65.38-.38 7.1 7.11v-.32h3v-9.8a33.48 33.48 0 00-5.35-18.26l-4.66 4.66z"/><path class="cls-10" d="M1025.17 369.19l4-4.06a31.81 31.81 0 00-1.88-2.45L1023 367zM1035.48 418.03l-3.6-3.6-2.16 2.16 6.44 6.45-.68-5.01zM1035.25 416.31l-.63-4.62-1.99 2 2.62 2.62z"/><path class="cls-11" transform="translate(13.28 838.07) rotate(-45)" d="M1016.76 397.81h3.06v10.39h-3.06z"/><path class="cls-11" transform="translate(12.84 847.38) rotate(-45)" d="M1027.76 402.99h3.06v10.39h-3.06z"/><path class="cls-11" transform="translate(16.19 839.28) rotate(-45)" d="M1019.67 394.9h3.06v10.39h-3.06z"/><path class="cls-11" transform="translate(7.4 810.75) rotate(-44.99)" d="M977.43 394.92h10.39v3.06h-10.39z"/><path class="cls-10" d="M1001.34 380.38a2.68 2.68 0 010-2.75l-13-13-5.65 5.66-.37.37-4.69-4.66a33.51 33.51 0 00-5.37 18.29v9.8h3l-.05.37 7.16-7.16 6 6.06zM995.43 357.56l-6 6.05 13 13a2.71 2.71 0 011.36-.37 2.8 2.8 0 011.35.36l13-13-5.65-5.66-.37-.37 3.57-3.57a30.34 30.34 0 00-23.77 0z"/><path class="cls-10" d="M991 360.47l-4-4c-.87.57-1.7 1.17-2.51 1.82l4.3 4.3zM1639.23 621.83c-4.5-3.67-11.1-9-14.71-11.77-4.35-3.35-6.89-8.17-7.94-9.32-1.53-1.66-7.86-2.12-14.54-4.76-3.47-1.37-6.23-5.09-10.17-6.13-3.48-.92-8.12.64-11.23-.33-6.89-2.14-11.16-6.58-12.94-6.58-2.69 0-6.86-2.33-12-3.85-3-.88-7.49.19-10.49-.93a50.55 50.55 0 01-12.86-7.34c-15.31-11.5-16.58-5-20.22-7.9-13.86-10.94-14.74-3.18-20.82-7.16-17.31-11.34-22.83-3.58-31.09-9.34-13.12-9.17-20.13-.76-29-7.42-15-11.27-20.45-2.52-23.18-7-8.45-14-15.13-1.66-26.44-11.26-10.89-9.24-14.75-1.82-19.84-5.44-8.14-5.8-15.32-1.09-17.79-3-12.08-9.15-14.14-4.38-16.32-5.93-9.86-7-18.19 3.64-25.58-2.59-6.84-5.78-12.24-3.16-14.59-3.26-2-.08-3.27-2.71-12.3-3.6-4.27-.42-15.46.1-18.6-2.41-2.1-1.69-9.63-4.95-18.49-5.93-4.88-.54-10.55 1.22-15 .53-6.64-1-10.55-4.46-13.13-4.11-4.92.65-10.1-1.65-14.86-2s-11.07 3-15.15 2.22c-7.56-1.41-11.47-4.7-13.13-4.44-15.72 2.5-20.75-5.65-23.73-4.7-20.13 6.38-12.11-5.07-21.32-2-13.87 4.65-13.75-2.42-20.83-2.42-2 0-8.37 3.13-15.59 2.86-3.79-.14-7.4-4.17-11.6-3.7-5.73.64-11.57 5.12-16.38 5.42a30.76 30.76 0 01-12-1.36c-.81-.33-1.54-.61-2.22-.85l-6.71-49.32-24.35-24.35 6.05-6.05-13-13a2.65 2.65 0 01-2.72 0l-13 13 5.65 5.65.37.37L971 424.81l-6.56 48.28c-11.87-3.92-11.89 1.05-21.23 1.6-7.74.46-15.08-1.16-18.79-1.43-16.41-1.21-20 5.51-25 3.51-19.79-7.83-14.22 7.32-25.41 3.65-17.54-5.76-17.22 3.59-25.95 0-1-.41-5.6-3.08-11.27-2.53-3.61.35-7.83 3.94-11.3 4a30.12 30.12 0 01-10-1.54c-3 1.39-8.57-.52-13.26.77-4 1.11-7 5.52-11.22 5.83-3.55.26-7.23-2.07-10.12-1.72-4.88.61-5.62 3.24-8.67 3.46-2.71.2-4.45-1.08-9-.07-3.63.8-7.39 4-12.14 4.6-2.51.33-6.15-1.06-8.55-.66-3.14.53-5.66 3.22-8.2 3.55-4.36.57-5.69-2.14-8.59-1.24-7.58 2.36-7.76 4.11-16.56 4.62-4.71.28-9.09-1.34-13.35-.71a32 32 0 00-11.62 4.26c-1.62.66-5.69-.54-9.59.59-3.41 1-6.46 4.32-10.8 5.07-3.55.6-7.46-.46-11.12.35s-6.91 3.93-10.19 4.55c-3.08.58-6.74-1.34-9.14-.77a19.2 19.2 0 00-7.75 4.11c-3.64 3.06-6.34-1.17-11.77.46-5 1.49-9.39 6.12-9.73 6.21-19 4.93-21.2-.32-26.06 4.27-10.6 10-15.75 4.17-19.18 6.85-11.74 9.22-15 1.49-18.35 5.38-12.32 14.52-19.64 5.82-22 9.2-10.27 15.1-5.69.35-19 10.51-8.47 6.47-7.14 3.69-14.47 6.67-5.78 2.35-18.43 19.4-18.56 24.59q249.5-85.86 494.83-94.91l-.52 3.83h85.82l-.63-4.65q299.8 5.27 593.23 126.48zM994 357.56l-3.13-3.12a29.22 29.22 0 00-2.82 1.5l3.78 3.79z"/><path class="cls-10" d="M977.13 399.78l-3.12 3.12-.68 5.01 5.97-5.97-2.17-2.16zM976.39 399.04l-1.63-1.63-.51 3.77 2.14-2.14z"/><path class="cls-11" transform="translate(8.63 807.91) rotate(-44.99)" d="M974.53 392.01h10.39v3.06h-10.39z"/><path d="M1760.86 569.47a32 32 0 00-3.21-11.46l2.68-9.37-10.68-19-7.47-36.13a3.27 3.27 0 00-1.61-6.25l-57 5a3.28 3.28 0 00.58 6.54l1-.08-6.54 37.15-24.34 2.13-2-23.25a7.71 7.71 0 00-8.31-7l-2.1.19.47 5.44 2.11-.18a2.18 2.18 0 012.38 2l2 23.25-6.26.55-.83-9.44 1.64-.14-.3-3.42-7.31.64.3 3.42 1.64-.14.82 9.43-14.7 1.29a8.4 8.4 0 00-7.61 9.08l1.92 21.93a21.6 21.6 0 1028.73 18.6l52.49-4.6a32.27 32.27 0 0061.51-16.22zm-25.47-75.15l7.43 35.93-18.82 1.65-3.18-36.3zm-43.11 3.78l22-1.93 3.18 36.3-31.75 2.79z" opacity=".58" fill-rule="evenodd" fill="#fff"/><path class="cls-6" d="M1554.8 619.84a35.46 35.46 0 1135.46-35.46 35.47 35.47 0 01-35.46 35.46z"/><path class="cls-9" d="M1553.4 587.66a1.4 1.4 0 112.8 0 5.63 5.63 0 001.33 3.71 3.86 3.86 0 006 0 5.63 5.63 0 001.33-3.71 12.64 12.64 0 00-3-8.35 9.1 9.1 0 00-14.12 0 12.64 12.64 0 00-3 8.35 19.67 19.67 0 004.69 13 14.34 14.34 0 0022.23 0 19.67 19.67 0 004.69-13A26.72 26.72 0 001570 570a19.6 19.6 0 00-30.34 0 26.72 26.72 0 00-6.37 17.63 1.41 1.41 0 01-2.81 0 29.61 29.61 0 017.07-19.47 22.38 22.38 0 0134.56 0 29.61 29.61 0 017.07 19.47 22.49 22.49 0 01-5.39 14.82 17.12 17.12 0 01-26.44 0 22.54 22.54 0 01-5.4-14.83 15.43 15.43 0 013.72-10.19 11.85 11.85 0 0118.32 0 15.48 15.48 0 013.72 10.19 8.41 8.41 0 01-2 5.55 6.63 6.63 0 01-10.21 0 8.4 8.4 0 01-2.1-5.51z"/><path class="cls-5" transform="translate(-36.05 120.65) rotate(-4.18)" d="M1635.36 546.11h2.75v17.3h-2.75z"/><path class="cls-5" transform="translate(-35.99 121.04) rotate(-4.17)" d="M1641.26 545.67h2.75v17.3h-2.75z"/><path class="cls-5" transform="matrix(1, -0.07, 0.07, 1, -35.94, 121.47)" d="M1647.16 545.24h2.75v17.3h-2.75z"/><path class="cls-5" transform="translate(-35.89 121.88) rotate(-4.17)" d="M1653.06 544.81h2.75v17.3h-2.75z"/><g class="cls-13"><path class="cls-9" d="M1876.07 580.93c.26 0 .52.05.78.08a216.94 216.94 0 01-1.88 26.8h9.74a255.53 255.53 0 01-2-26.75h.46c38.86-5 12-102-3.13-117.38-15.18 17.72-41.72 111.22-3.97 117.25zM1937.72 573.85l1 .1a276.54 276.54 0 01-2.38 33.86h12.3a322.91 322.91 0 01-2.47-33.8h.58c49.1-6.38 15.22-129-4-148.33-19.21 22.39-52.75 140.54-5.03 148.17z"/></g><g class="cls-13"><path class="cls-9" d="M1184.45 572.81c-14.37 16.75-39.41 105-3.78 110.68l.73.07a206.14 206.14 0 01-1.77 25.29h9.18a246.4 246.4 0 01-1.81-25.25h.43c36.64-4.79 11.34-96.32-2.98-110.79z"/><path class="cls-9" d="M1136.57 697.37l.63.06a175.61 175.61 0 01-1.52 21.71h7.88a209 209 0 01-1.58-21.67h.37c31.47-4.09 9.76-82.65-2.53-95.07-12.34 14.36-33.82 90.08-3.25 94.97z"/><path class="cls-9" d="M1096.17 714.14l.57.05a157.38 157.38 0 01-1.37 19.5h7.08a189.28 189.28 0 01-1.42-19.46h.34c28.27-3.67 8.76-74.24-2.28-85.4-11.09 12.88-30.39 80.91-2.92 85.31z"/></g><path d="M518 1093h1592.17V603.63C1551.85 569.37 885.9 681.45 518 1093z" opacity=".31" fill-rule="evenodd" fill="#fff"/><g opacity=".14"><path class="cls-9" d="M1879.25 1093h42.25a1257.4 1257.4 0 0164-259.35c31.62-86.62 71.41-164.25 116.12-230.5q-23.87-1.39-48-2.45c-41.23 64.38-78 138.25-107.72 219.73a1297.25 1297.25 0 00-66.65 272.57zM1769.14 1093h42.25a1258 1258 0 0163.95-259.35c32.32-88.54 73.18-167.7 119.11-234.91q-24.51-.57-49.21-.78c-41.94 65-79.31 139.83-109.48 222.47a1297.87 1297.87 0 00-66.62 272.57zM1659 1093h42.24a1258 1258 0 0164-259.35c32.42-88.83 73.44-168.21 119.55-235.55q-25.14.3-50.4 1c-41.64 64.75-78.75 139.16-108.73 221.31A1297.25 1297.25 0 001659 1093zM1548.93 1093h42.25a1257.4 1257.4 0 0164-259.35c31.87-87.31 72-165.5 117.2-232.1q-25.72 1.28-51.52 3c-40.23 63.46-76.11 136-105.26 215.86a1297.87 1297.87 0 00-66.67 272.59zM1438.82 1093h42.25a1258 1258 0 0164-259.35c30.6-83.82 68.85-159.24 111.81-224.06q-26.28 2.37-52.55 5.24c-37.63 61-71.24 130-98.83 205.6a1297.25 1297.25 0 00-66.68 272.57zM1328.72 1093H1371a1258 1258 0 0164-259.35c28.53-78.16 63.71-149 103.17-210.77q-26.77 3.6-53.47 7.75c-33.77 57-64 120.67-89.28 189.8a1297.25 1297.25 0 00-66.7 272.57zM1218.61 1093h42.25a1257.4 1257.4 0 0164-259.35c25.58-70.07 56.5-134.26 91-191.29q-27.19 5-54.23 10.65a1153 1153 0 00-76.4 167.42 1297.87 1297.87 0 00-66.62 272.57zM1108.5 1093h42.25a1258 1258 0 0164-259.35 1110.21 1110.21 0 0175.4-164.54q-27.55 6.69-54.83 14.06a1170.05 1170.05 0 00-60.15 137.26A1297.87 1297.87 0 001108.5 1093zM998.4 1093h42.25a1257.4 1257.4 0 0163.95-259.35 1129.15 1129.15 0 0156.2-128.87q-27.83 8.65-55.23 18.11-21.91 46.67-40.55 97.54A1297.25 1297.25 0 00998.4 1093zM888.29 1093h42.25a1258 1258 0 0164-259.35q15.54-42.54 33.58-82.11-28 11.07-55.36 23-9.26 22.5-17.79 45.85A1297.25 1297.25 0 00888.29 1093zM778.19 1093h42.24a1258 1258 0 0164-259.35q3.93-10.78 8-21.37-28 14.1-55.12 29.3A1302.1 1302.1 0 00778.19 1093zM668.08 1093h42.25a1271.15 1271.15 0 0144.53-201.66q-27.65 18.06-54.2 37.45A1320.79 1320.79 0 00668.08 1093zM558 1093h42.25q6.91-50.17 17.37-98.07-26.75 23.3-52 48.19-4.26 24.65-7.62 49.88z"/></g><g><path d="M1783.1 588.34a35.46 35.46 0 1150.14 0 35.45 35.45 0 01-50.14 0z" opacity=".3" fill-rule="evenodd" fill="#fff"/><path class="cls-9" d="M1804.86 564.59a1.4 1.4 0 112 2 5.62 5.62 0 00-1.69 3.57 3.86 3.86 0 004.25 4.25 5.62 5.62 0 003.57-1.69 12.62 12.62 0 003.77-8 9.09 9.09 0 00-10-10 12.66 12.66 0 00-8 3.77 19.71 19.71 0 00-5.86 12.5 14.34 14.34 0 0015.72 15.72 19.68 19.68 0 0012.5-5.87 26.76 26.76 0 008-17 19.59 19.59 0 00-21.46-21.46 26.78 26.78 0 00-17 8 1.4 1.4 0 01-2-2 29.55 29.55 0 0118.76-8.77 22.37 22.37 0 0124.41 24.39 29.53 29.53 0 01-8.76 18.76 22.53 22.53 0 01-14.29 6.67 17.11 17.11 0 01-18.7-18.69 22.53 22.53 0 016.67-14.3 15.43 15.43 0 019.83-4.58 11.87 11.87 0 0113 13 15.5 15.5 0 01-4.58 9.83 8.45 8.45 0 01-5.36 2.49 6.64 6.64 0 01-7.23-7.22 8.48 8.48 0 012.45-5.37z"/></g><g><g opacity=".26"><path class="cls-9" d="M866.63 635h.57a259.37 259.37 0 01-1.83 30.46h8.21A209 209 0 01872 635l.69-.07c31.81-5.09 9.45-83.87-3.38-98.82-12.82 12.89-35.42 94.65-2.68 98.89z"/><path class="cls-9" d="M914.68 642.25c28.57-4.57 8.49-75.35-3-88.78-11.49 11.61-31.79 85-2.38 88.85h.54a244.74 244.74 0 01-1.67 29.33h7.37a195.12 195.12 0 01-1.43-29.38z"/></g><g opacity=".21"><path d="M1489.47 1048.53H-102.69V539.88c558.32-35.62 1224.27 80.89 1592.16 508.65z" opacity=".19" fill-rule="evenodd" fill="#fff"/><path class="cls-9" d="M128.23 1048.53H86A1349.43 1349.43 0 0022 779C-9.62 689-49.41 608.27-94.12 539.41q23.86-1.46 48-2.54c41.23 66.91 78 143.69 107.72 228.39 30.47 86.74 53.59 181.87 66.63 283.27zM238.34 1048.53h-42.25a1349.43 1349.43 0 00-64-269.57C99.82 686.93 59 604.64 13 534.79q24.53-.6 49.21-.81c42 67.58 79.32 145.34 109.48 231.24 30.49 86.78 53.61 181.91 66.65 283.31zM348.44 1048.53h-42.25A1349.43 1349.43 0 00242.24 779c-32.42-92.33-73.44-174.85-119.55-244.84q25.14.32 50.4 1.06c41.64 67.3 78.74 144.65 108.73 230 30.47 86.78 53.58 181.91 66.62 283.31zM458.55 1048.53H416.3a1349.43 1349.43 0 00-64-269.57c-31.86-90.76-72-172-117.19-241.25q25.72 1.34 51.52 3.13c40.23 66 76.11 141.37 105.25 224.38 30.51 86.78 53.63 181.91 66.67 283.31zM568.65 1048.53h-42.24a1350.12 1350.12 0 00-64-269.57c-30.59-87.13-68.85-165.52-111.81-232.89q26.3 2.46 52.56 5.45c37.63 63.38 71.24 135.14 98.83 213.7 30.51 86.78 53.62 181.91 66.66 283.31zM678.76 1048.53h-42.25a1349.43 1349.43 0 00-64-269.57C544 697.72 508.85 624.08 469.39 559.88q26.78 3.74 53.46 8c33.78 59.27 64 125.43 89.29 197.29 30.46 86.83 53.58 181.96 66.62 283.36zM788.87 1048.53h-42.25a1349.43 1349.43 0 00-64-269.57c-25.57-72.83-56.49-139.55-91-198.84q27.2 5.22 54.22 11.08a1220.45 1220.45 0 0176.4 174c30.47 86.8 53.59 181.93 66.63 283.33zM899 1048.53h-42.27a1350.12 1350.12 0 00-64-269.57 1175.69 1175.69 0 00-75.4-171q27.55 6.93 54.83 14.6a1241.46 1241.46 0 0160.15 142.68C862.82 852 885.93 947.13 899 1048.53zM1009.08 1048.53h-42.25a1349.43 1349.43 0 00-64-269.57 1198.28 1198.28 0 00-56.2-134q27.81 9 55.23 18.83 21.9 48.49 40.55 101.39c30.51 86.82 53.59 181.95 66.67 283.35zM1119.18 1048.53h-42.24A1350.12 1350.12 0 001013 779q-15.53-44.22-33.57-85.35 28 11.5 55.35 23.95 9.27 23.38 17.8 47.66c30.42 86.74 53.56 181.87 66.6 283.27zM1229.29 1048.53H1187a1349.43 1349.43 0 00-64-269.57q-3.93-11.21-8-22.22 27.95 14.67 55.12 30.46a1399.07 1399.07 0 0159.17 261.33zM1339.4 1048.53h-42.25a1364.78 1364.78 0 00-44.54-209.6q27.66 18.77 54.21 38.92a1421.08 1421.08 0 0132.58 170.68zM1449.5 1048.53h-42.24q-6.91-52.15-17.37-101.93 26.74 24.21 52 50.09 4.24 25.62 7.61 51.84zM18.12 1048.53h-42.25A1349.43 1349.43 0 00-88.08 779q-7-20-14.61-39.46V634.67A1247.57 1247.57 0 01-48.5 765.22C-18 852 5.08 947.13 18.12 1048.53z"/></g></g><g opacity=".45"><path class="cls-9" d="M800.81 803.9H780c4.55-40.58 4.48-81.34 3.78-122.15h12.12c.45 42.34.68 83.08 4.91 122.15z"/><path class="cls-9" d="M729.72 695.41c-3.83 14.05 8.56 40.91 31.92 41.55 16.44 10.27 40.73 10.07 53.85 0 24.42-2.12 37.1-21.81 34.54-43.88 7.34-20 10.64-39.14-6-56.51 2.33-23.38-8.6-41.6-27.61-54.35-10-24.38-38.74-25.27-48.48-.63-15.1 4.37-29.2 27.55-28.23 47-17.03 17.8-18.17 46.25-9.99 66.82zM573.24 803.9h-24.07c5.27-47 5.19-94.28 4.38-141.58h14c.52 49.08.79 96.29 5.69 141.58z"/><path class="cls-9" d="M589.26 534.11c13.17 4.5 21.65 18.72 23.21 32.69 17.13 8.45 30 25.88 28.59 47.27 17.3 7.22 24.31 32.34 22.43 57.35 13 13.6 5.14 56.74-44.64 66.08-21.3 32.27-87.58 32.52-108.88.24-50.71-1.19-67.17-52-50-68-4.87-23.68 4.15-44 21.64-52.28 2.79-26.3 10.48-46.22 31.55-55.89 3.4-14.84 13.15-25 28.78-30.48 5.56-34.86 45.32-26.67 47.32 3.02z"/><g><path class="cls-9" d="M689.63 803.9H671.3c4-35.82 4-71.8 3.34-107.82h10.66c.4 37.37.6 73.33 4.33 107.82z"/><path class="cls-9" d="M651.86 749.57c-10.92 4.75-29.87-4.76-30.07-17.15-7.73-4.77-13.31-17.13-10.77-28.74-7.89-12.48-9-26.6-1.4-42.18-3.59-14.23-3.22-29 9.26-40.79-1-14.89 4.5-29.63 19-40.8 1.59-14.27 10.44-25.07 24.59-29.18 8.61-16.73 29.44-14.64 36.74.34 15.19 5.61 20.19 17.71 21.78 32 14.5 11.17 20 24.52 19 39.4 12.48 11.76 14.26 25.17 10.66 39.4 7.56 15.57 7.9 29.69 0 42.17a31.81 31.81 0 01-8 28.74c-.19 12.39-20.77 21.22-31.47 17.15-14.9 11.95-44.18 11.81-59.32-.36z"/></g></g><g><path class="cls-5" d="M162.54 505.71h36.57v2.28h-36.57zM162.54 526.37h19.84v2.28h-19.84z"/></g><g><path class="cls-5" d="M59.78 464.38h84.65v2.28H59.78zM59.78 485.04h84.65v2.28H59.78zM59.78 505.71h84.65v2.28H59.78zM59.78 526.37h84.65v2.28H59.78zM59.78 547.03h84.65v2.28H59.78zM59.78 567.69h84.65v2.28H59.78zM59.78 588.36h75.24v2.28H59.78zM59.78 609.02h59.56v2.28H59.78zM59.78 629.68h73.15v2.28H59.78zM59.78 650.35h73.15v2.28H59.78zM59.78 671.01h73.15v2.28H59.78zM59.78 691.67h73.15v2.28H59.78zM59.78 712.33h73.15v2.28H59.78zM59.78 733h73.15v2.28H59.78zM59.78 753.66H133v2.28H59.78zM59.78 774.32H133v2.28H59.78zM59.78 794.98H133v2.28H59.78z"/></g><g opacity=".86"><path class="cls-9" d="M1085.78 756.87c-.38-2.84-.36-7.57-1.08-11.66s-2.56-7.6-6.08-7.94a14.71 14.71 0 00-4.81-5c-3.91-2.63-9.62-3.35-15-2.69-6.5.8-9.27 1.55-16.92 1.66-10.86.16-20.07-2.9-28.86-2.25a25.7 25.7 0 00-16.16 6.52 6.88 6.88 0 00-3.31 2.08 1.43 1.43 0 00-.05-.51 13.28 13.28 0 01-1.8 2 .94.94 0 00-.14-.37 7.8 7.8 0 01-1.36 2 1.44 1.44 0 00-.21-.5 9.8 9.8 0 01-1.28 2.23l-.18-.36a8.61 8.61 0 01-1.14 2 .82.82 0 00-.15-.36 7.75 7.75 0 01-1.14 2.12 1.2 1.2 0 00-.27-.42 7.47 7.47 0 01-1.08 2.41 1.5 1.5 0 00-.27-.45 11.1 11.1 0 01-1.11 2.73 1.63 1.63 0 00-.33-.59 8.62 8.62 0 01-.83 2.73 1.38 1.38 0 00-.32-.68 8.59 8.59 0 01-.75 2.93 1.49 1.49 0 00-.33-.57 12.93 12.93 0 01-.86 3.49 2.07 2.07 0 00-.37-.6 11.44 11.44 0 01-.62 3.49 1.87 1.87 0 00-.45-.48 20.21 20.21 0 01-.46 3.81 1.63 1.63 0 00-.41-.49 29.23 29.23 0 01-.28 3.81 2.19 2.19 0 00-.35-.56 22 22 0 01-.09 3.45 2.71 2.71 0 00-.35-.41c0 1.19 0 2.37-.05 3.55a11.55 11.55 0 01-3.07 4.05c-2.07-.34-4.1.14-6.21-.29a19.74 19.74 0 003.18 2 15.55 15.55 0 01-3.66-.14 18.89 18.89 0 003.54 2.26 4.45 4.45 0 00-.13 2.07c.17 1.13.88 3.12.62 4.15a1.52 1.52 0 00.43-.58 2.22 2.22 0 010 .93 2.87 2.87 0 00.68-1.11c.26.53.54 1.05.8 1.6a36.21 36.21 0 012.44 11.62 3.11 3.11 0 002.62 3.89c1.36 1 2.94 1.54 4.09-.08a2.62 2.62 0 00.61-.27c1.14-.74 1.15-2.16.87-3.5.23-2.64 1.45-5.16 2.35-7.62 2-1.72 3.63-5.71 2.17-8.18 2.63-14.24 14-22.27 19.13-23.45a10 10 0 003.65 3.88 54 54 0 00.78 5.68c1.23 5.92.25 17.2 1.6 22 .05 1.1-.45 9.68-.73 10.71a3.58 3.58 0 00-1.05 3.21 5.2 5.2 0 01-1.4 2.19 1.56 1.56 0 00-1.44 1.19 8.24 8.24 0 00-1.62 2.92c0 .82 1.19.92 2.3 1 1.58 0 3.21-.6 3.46-1.78a1.66 1.66 0 00.5-1.81 11.32 11.32 0 01.74-2.66 2.58 2.58 0 001.61-3.47c.12-3.24.47-8.35.91-11.63.63-1.3.75-3.79.85-6.92a20.26 20.26 0 00.81 3.12c.14 1.1 1 11.81.79 12.84a3.26 3.26 0 00-.79 3.13 6.57 6.57 0 01-1.2 2.3 1.65 1.65 0 00-1.34 1.19 7 7 0 00-1.49 2.84c0 .9 1.23 1 2.38 1 1.58 0 3.26-.6 3.41-1.78a1.75 1.75 0 00.36-1.91 23.29 23.29 0 01.49-3 2.47 2.47 0 001.11-3.66c-.15-3.25-.31-10.21-.14-13.5 1.42-3.6-.62-13.37.41-21.08a35.49 35.49 0 006.68-1.14 72.53 72.53 0 0029.09-2.43c2.9 7.46 5.86 12.71 8.71 22.26.74 4.42-.71 11.32-2.12 15.5a4.6 4.6 0 00-.95 3.85 13.13 13.13 0 01-2.24 3.15 2.34 2.34 0 00-1.51 1.58A7.64 7.64 0 001058 812c.11 1 2.62 1.06 3.49 1 2-.22 2.37-1.1 3-2.31a1.45 1.45 0 00.36-2 16.1 16.1 0 011.54-3.36c1.72-.84 2.07-2.86 1.88-4.35a107.49 107.49 0 013.21-16.68 8.08 8.08 0 00.52-2.71 74.64 74.64 0 013.32 6.24 35.45 35.45 0 011.64 14.51 6 6 0 00-.18 4.35 10.55 10.55 0 01-1.47 3.3 2.18 2.18 0 00-1.18 1.7 8.09 8.09 0 00-1.64 2.45c-.37 1.46 2.28 1.54 3.24 1.51a3.53 3.53 0 003.43-2.49 1.92 1.92 0 000-2.3 9.6 9.6 0 01.67-3.46 4.51 4.51 0 001-5c-.45-4.13-1.1-11.52-.69-15.34s-.45-5-1.79-8.31c-3.6-8.83.29-18.33 1.8-26.63a24 24 0 01-.54 4.75 1 1 0 00.35-.28c.12 1.62.16 3.11.18 5.09a27.87 27.87 0 001 7 20 20 0 003.67 6.75 8.61 8.61 0 01-.73-3.15 1 1 0 00.32.29 9.37 9.37 0 01-.26-3.06 1 1 0 00.35.34c0-2.1.55-3.84.36-6.11a1.24 1.24 0 00.31.34c-.26-2.62.7-4.63.24-7.7a2.3 2.3 0 00.38.49z"/><path class="cls-9" d="M982.29 687.23a14 14 0 006.37.8c3.17 3.23 7.69 3.36 10.59 6.05 1.25 1.91 2.72 2.57 4.14 2.23l.18-.05.17-.06a4.34 4.34 0 00.54-.25c2.38.15 4.44-1.07 4.13-4 1.63-1.81.76-3.91-1.36-6.8a119.22 119.22 0 01-9.75-14.2 4.31 4.31 0 001.2.14 3.82 3.82 0 01-1.21-1.07 2.74 2.74 0 001.24.17c-1.6-.92-3.23-4.2-4.43-5.77a7.54 7.54 0 00-3.47-2.64 18 18 0 00.36-6.56 25.4 25.4 0 01-2.48 4.35 24.87 24.87 0 00-.06-5.25c-1 2.61-2.85 4.53-3.92 7a12.22 12.22 0 00-3.8 1.27l-.5.18c-2.14.56-4.86 1-6.93 1.4a3 3 0 00.42.27 21.08 21.08 0 01-3.19.75 1.86 1.86 0 00.56.24 26.51 26.51 0 01-3.54.94 1.55 1.55 0 00.5.31 19.37 19.37 0 01-3.55 1.06 1.9 1.9 0 00.49.35 11.23 11.23 0 01-3.27 1.08 2 2 0 00.6.26 13 13 0 01-3.29 1.24 1.45 1.45 0 00.57.24 8.76 8.76 0 01-2.8 1 1.32 1.32 0 00.68.23 8.9 8.9 0 01-2.62 1 1.45 1.45 0 00.6.25 11.09 11.09 0 01-2.63 1.22 1.28 1.28 0 00.46.21 8 8 0 01-2.29 1.08 1 1 0 00.43.22 7.26 7.26 0 01-2.07 1.12.87.87 0 00.37.13 8.5 8.5 0 01-2 1.09l.37.16a9.66 9.66 0 01-2.2 1.18 1.54 1.54 0 00.52.18 7.17 7.17 0 01-2 1.23 1.2 1.2 0 00.39.13 10.54 10.54 0 01-2.08 1.33 2 2 0 00.54.05c-1.27 1.09-2.59 2.44-3.77 3.63-1 .73-1.89 1.42-2.67 2-12.81 3.31-20.55 10.54-44.19 7.75-10.19-3.29-25-4.3-34.14-.38-13 .12-19.19 14.92-21.19 25.12-.87 4.46-.48 9.4-1.14 13.87a2.72 2.72 0 00.73-.78c-1.32 6.13.71 10.22-.1 15.66a2 2 0 00.67-.77c-.3 4.55 1.56 8.56 1.57 12.9a2.83 2.83 0 00.54-1.15 18.47 18.47 0 01.25 6.61 1.87 1.87 0 00.59-.74 17.8 17.8 0 01-.34 6.41 34.32 34.32 0 002.27-3.92c-.44 3.58-1.26 7.37-1.91 11.07-.42 2.34-.71 4.8-1.15 6.82-1.07 2.41-1.57 4.82.75 7.54a13.32 13.32 0 01.55 5.2 2.76 2.76 0 00-.25 3.44c.4 2 2.1 3.73 5 4 1.52.15 5.73.28 5.35-1.92-.22-1.26-1.61-3-2.23-3.8a3.11 3.11 0 00-1.6-2.64 14.41 14.41 0 01-1.85-5.06c1-1.38 1.07-4.49.36-6.48a46.82 46.82 0 011.63-12.34 49 49 0 013.19-9 95 95 0 0111.4-14.76c-.32 1.26-.63 2.3-.93 3.21-1.46 4.43-3.51 6-1.87 11.3s1.86 15.65 2 21.75c-.46 2.17-.1 5.17 2.53 6.58a23.27 23.27 0 012.12 5.09 2 2 0 00.36 2.89c.88 1.85 1.46 3.18 4.52 3.69 1.36.23 5.35.33 5.62-1.07.15-.77-1.74-3.89-2.32-4.43a3.5 3.5 0 00-2.22-2.46 19 19 0 01-3.24-4.85 6.38 6.38 0 00-1.13-5.75 40.51 40.51 0 01-1.41-11.54 36.54 36.54 0 011-8.37c4.31-10.87 8.93-18.59 13.47-26.42 14.08 2.44 35.46 7.36 52 7.6a50 50 0 01.31 7.15c.1 12.48-1.54 16.91-.19 21.21a121.77 121.77 0 01-.94 13.42c-1.24 1.87-1.14 4.77 1.32 5.82a37.18 37.18 0 01.42 4.67 2.73 2.73 0 00.34 3c.1 1.86 2.66 3 5.12 3.12 1.79.07 3.67 0 3.81-1.39.1-1-1.35-3.82-2-4.57a2.54 2.54 0 00-1.94-2 10.42 10.42 0 01-1.62-3.7 5 5 0 00-.87-4.94c-.17-1.62 1.06-11.14 1.42-12.84a29.84 29.84 0 001.94-6.91c.08 4.17.09 6.73 1.11 9.24a137 137 0 010 14.33c-.89 1.83-.33 4.78 2.17 5.55a18.2 18.2 0 01.88 4.23 2.58 2.58 0 00.6 2.87c.28 1.87 2.75 3 5.22 3.12 1.73.07 3.53 0 3.66-1.25.09-.88-1.65-4.12-2.23-4.72a2.42 2.42 0 00-2.12-2 8.08 8.08 0 01-2-3.56 5.56 5.56 0 00-1.33-5.1c-.32-1.63 0-11.16.22-12.87a29.09 29.09 0 001.35-8.1c.24-6.9.55-11.82 2.4-18.52a99.9 99.9 0 002.26-9.66c6.09-5 9.66-14.6 10-24.81 11.23-13.91 12.9-29.82 20.89-31.78zm-132.6 58.64a64.99 64.99 0 01-2.92 6c.14-1.41.24-2.82.32-4.22a1.55 1.55 0 00.8.68c-.69-2.21.13-6.73.2-13.2a2.06 2.06 0 00.68.62c-.59-2.42.14-10.19.13-13.21 0-2.68 0-5.49.17-8.2.44 10.58 4.86 21.66.62 31.53z"/></g><path d="M1492.27 798.26c-203.36 20.9-395 16.63-597.73 5.44q-53.47-3-106-5.75l5.46-75.82-8.39-7.27-9.49 5.47-.42 11.06q-18-.93-36-1.79l.51-8.21-8.44-7.21-9.45 5.52-.24 9.07q-17.4-.81-34.78-1.53l.37-7.54-8.35-8.2-9.57 6.75-.11 8.26q-15.51-.62-31-1.18l-2.67-.09.33-7.55-9.17-7.28-8.8 7.71v6.53q-15.69-.49-31.37-.9l.13-8-9.11-7.24-8.92 6.9.17 7.86q-7.81-.18-15.61-.32V617.47h19.08l-94.46-123.68-134.78-70.72-134.76 70.72-94.47 123.68h19.14V806a2578.19 2578.19 0 00-236.06 37.61V1093h2212.86V747.62c-208.17-2.38-412.1 29.5-617.9 50.64zm-922.9-64.46l.51 24.49c-5.44-.13-10.89-.23-16.33-.34v-24.48q7.91.15 15.82.33zm-15.82 55.09v-20.47l16.55.35.42 20.48-16.97-.36zm64.15 1.65q-15.91-.51-31.83-.92l.32-20.46q15.82.4 31.68.91zm.3-30.94q-15.81-.51-31.61-.91l.38-24.47q15.71.4 31.44.91zm50.84 32.78q-17.89-.72-35.75-1.33l.9-20.44 4.3.14q15.38.54 30.82 1.18zm.4-30.93q-15.29-.62-30.58-1.17l-4.21-.14 1.08-24.43 2.76.09q15.6.54 31.27 1.19zm51.18 33.15q-18.17-.84-36.27-1.6l1-20.42q17.86.75 35.8 1.58zm.8-30.92q-17.79-.82-35.57-1.56l1.19-24.42q17.48.74 35 1.55zm52 33.48q-18.81-.95-37.53-1.85l1.26-20.39q18.48.89 37.05 1.83zm1.19-30.89q-18.43-.93-36.82-1.81l1.51-24.39q18.07.87 36.24 1.79z" opacity=".54" fill-rule="evenodd" fill="#fff"/><path class="cls-9" d="M115.07 619.18h-4.29q48.41-63.34 96.79-126.72l135.89-71.31q68 35.57 135.91 71.31 48.52 63.24 96.78 126.72h-4.29l-14.4-18.85-80.35-105.21L343.46 425l-133.63 70.12z"/><path class="cls-5" d="M133.37 738.09h420.18v3.42H133.37z"/><path class="cls-9" d="M258.74 647.05V779h169.44V647.05zm160.32 122.82h-151.2v-113.7h151.2z"/><g><path class="cls-9" d="M258.74 647.05h7.39l162.05 126.18v5.76h-7.39L258.74 652.81v-5.76z"/><path class="cls-9" d="M420.79 647.05h7.39v5.76L266.13 778.99h-7.39v-5.76l162.05-126.18z"/></g><g><path class="cls-9" d="M517.67 664.5v53.61h-53.61V664.5zm-5.6 5.6h-42.41v42.41h42.41z"/><path class="cls-9" d="M468.02 664.5l49.65 49.65v3.96h-3.96l-49.65-49.64v-3.97h3.96z"/><path class="cls-9" d="M464.06 714.15l49.65-49.65h3.96v3.97l-49.65 49.64h-3.96v-3.96z"/></g><g><path class="cls-9" d="M222.86 664.5v53.61h-53.61V664.5zm-5.6 5.6h-42.41v42.41h42.41z"/><path class="cls-9" d="M173.21 664.5l49.65 49.65v3.96h-3.96l-49.65-49.64v-3.97h3.96z"/><path class="cls-9" d="M169.25 714.15l49.65-49.65h3.96v3.97l-49.65 49.64h-3.96v-3.96z"/></g><g><path class="cls-9" d="M370.73 492.75v54.54H316.2v-54.54zm-5.69 5.7h-43.15v43.14H365z"/><path class="cls-9" d="M320.22 492.75l50.51 50.51v4.03h-4.03l-50.5-50.51v-4.03h4.02z"/><path class="cls-9" d="M316.2 543.26l50.5-50.51h4.03v4.03l-50.51 50.51h-4.02v-4.03z"/><g><path class="cls-9" d="M320.22 547.29l50.51 50.51v4.03h-4.03l-50.5-50.51v-4.03h4.02z"/><path class="cls-9" d="M316.2 597.8l50.5-50.51h4.03v4.03l-50.51 50.51h-4.02v-4.03z"/></g></g><path class="cls-5" d="M252.35 596.13h182.23v5.7H252.35zM252.35 547.29h182.23v5.7H252.35z"/><path class="cls-5" d="M252.35 547.29h5.7v54.54h-5.7zM428.88 547.29h5.7v54.54h-5.7zM307.49 547.29h5.7v54.54h-5.7zM373.74 547.29h5.7v54.54h-5.7zM133.37 617.47h420.18v3.42H133.37z"/><g><path d="M-102.69 992.85v-125c10.47-3.91 6.43-11.79 24.85-4.17 9.59 4 7-8.71 24.81-5.06 9.31 1.9 5.26-11.33 23.39-4.58 12.68 4.72 17.85-10.64 40-4.32 10.73 3.06 13.31-10.45 27.51-4.58 9.59 4 12.7-9.61 30.31-.47 13.22 6.87 12.61-7.47 27.43 6.06 8.56 7.82 19.29-4.56 34.21 9.37 5.06 4.72 10.66-6.85 20.3 13.07 3.68 7.61 14.27 0 17.52 14.71 2.4 10.79 19.66 2 19.66 15.2 0 14.3 14.46 9.7 15.91 27.81.13 1.61 2.85 4 3 4.82z" opacity=".49" fill-rule="evenodd" fill="#fff"/><path d="M2110.17 944.83L1642.43 950c1.87-6.69 11.93-11.74 20.41-20 4.34-4.21 7-12 10.64-16.39 4.4-5.2 12.06-7.38 16.41-8.89 4.61-1.59 4.17-14.26 21.57-16.25 8.27-.94 3.07-20.09 37.76-18.6 7.6.32 14.64-23.75 49.68-22.25 12.25.52 10.89-14.83 40.79-14.83 19.08 0 5.67-10.11 38.56-9.64 17.45.25 20.66-15.83 44-9.09 16.39 4.75 31.34-6.06 46.53-4.2 14.88 1.83 4.06-9.43 38.56-5.19 10.16 1.25 12.73-10.38 31.89-2.48 8.37 3.46 18.43-5 30.68-4.87a28.61 28.61 0 019.36 1.91c11.58 4.09 23.33-4.39 31-3.52z" opacity=".36" fill-rule="evenodd" fill="#fff"/><path class="cls-9" d="M2073.89 771.84c-2.35 30.23-25.71 50.66-48 52.06-20.93 23.34-72.93 22.38-89.64-5.43-27.57-3.64-48.91-34.86-42.1-66.56-17.46-11.45-23.6-39.32-15-62.92-8-28.3-1.32-54 13.59-65.2-1.57-31.11 12.49-53.56 31.46-61.79 3.61-53.41 57.69-72.05 88-47.77 25.1-2.43 54 26.89 51.62 62.48 17.54 8.54 25.32 35.53 19.46 59.31 18.89 12.86 24 40.93 13.59 64.74 7.58 26.35-2.87 56.5-22.98 71.08z"/><path class="cls-9" d="M1873.19 949h27.39c-6-53.53-5.9-107.3-5-161.13h-15.94c-.57 55.88-.87 109.62-6.45 161.13z"/><path class="cls-9" d="M1949.65 801.84c.42 25.56-13.69 43.06-32.09 45.44-24.38 16.8-51.25 11.74-66-7.76-25.9-7.12-39.36-33.43-36.73-54.3-9.38-23.19-9.61-44.59-.05-60.4-8.52-23.85-3.33-43.74 11.71-58.73-1.86-30.29 6.28-53.38 30.83-66.49 7.28-41.32 33.22-57.21 47.87-22.71 17.33 8.74 27.44 31.6 27.23 53.19 18.77 10.15 24.84 41.29 21.06 59.84 15.54 21.19 15.49 46 5.8 62.05 7.99 19.91 2.16 40.78-9.63 49.87zM1870.66 947.48c-3-3-15.69-8.88-20.08-10 5.26-.38 9.78.56 16 2.06-1.75-2.37-9.33-6.54-12.32-7.53 1.17.07 8.86 1.66 8.63 1.36-.27-1.11-2.61-3.88-3.84-4.24 3.39-.18 9.89 2.77 12.65 4.55-2.3-2.8-7.28-8.89-11.39-10.71 3.37 1.25 9.35 3.65 12.07 5.73-1.17-2.27-4.83-8.39-7.52-10.38 2.65 1.38 7.58 4.43 9.36 6.22 0-1.83-2.9-8.86-4.08-11.11a61.76 61.76 0 016.24 8 55.58 55.58 0 00-.15-8.93 75.07 75.07 0 015.54 10.59c-.1-3.15.43-11.58 1.26-12.63.15 1.57 1.39 6.75 2.34 8.39.43-2 4.12-8.23 5.45-8.78a37.78 37.78 0 00-1.57 12.58c1.78-3.07 4.89-7.22 6.72-8.27a20.5 20.5 0 00-1 6.45c2.34-3.63 11.87-9 11.1-7.95-5.19 5.46-5.51 6.21-9 12.23-.08.14 7.35-4.07 10.54-4.26-2.49 2-7.15 5.63-8.44 7.81 7-2.45 8.09-2.24 16.5-2.32.26 0-6.22 2.42-7.77 3.47.34.06 8.07 1.52 8.41 1.82-.16 0-9.44 2.64-10.5 3.17a15.65 15.65 0 014.63 1.38 16.53 16.53 0 00-7.92 2.39c2.36 0 12.64.9 16 3.91-2.31-.74-11.42 1.09-13.3 2.29a26.86 26.86 0 018.19 2.07c-2-.4-8.32-.83-12.09.56a43.52 43.52 0 017.15.58s-3 .61-3.51.81c-10.39 3.77-23.8 9.01-34.3-1.31zM-5.43 964.47h29.06c-6.35-56.79-6.26-113.83-5.28-170.94H1.44C.81 852.78.49 909.79-5.43 964.47z"/><path class="cls-9" d="M89.69 752.17c-3.22 26.8-20.71 46.44-40.8 51-28.45 24.57-62.9 22.78-87.44 0C-65 792.4-82.08 764.87-76.7 732.8c-16.81-17.18-21.36-47.55-10.07-66.15-7.08-27.95-3.7-56 15.36-70.41.74-23.18 10.57-40.78 33.92-50.09 12.7-33.89 52.83-51.55 79-14.18 17.22 9.87 28 24.77 33.91 43.48 18 14.87 26.31 34.43 26 58.12 14.23 24.16 11.92 45.14 0 64.26 5.49 20.43 1.26 41.95-11.73 54.34zM40.13 931.29c-2.06.89-9.32 7.38-10.5 11.81 2.32-1.37 8.77-3.55 11.19-3.5-2.65 1.06-9.36 6.58-10.79 8.57 3.65-1 11.95-2 15.71-.65-4.56.86-14.44 4-17.25 6.8 4.17-1 10.31-1.4 13.48-.69-1.72 0-12.18 4.18-14.72 6.72 3.58-1.48 9-2.47 11.12-1.82-2.88 1.3-6.55 4-10.07 5.57a40.1 40.1 0 01-24.34 3C-9 964.94-7.59 956.84-22 953.56c1.24-1.48 6.18-2.55 7.39-2.85-2.18-1.57-9.12-1.54-13-.77 2.86-2.14 8-4.6 11.63-4.9a31.68 31.68 0 00-13.33-2c5.13-2.72 14.56-4.27 21.48-4.33-1.59-3.27-13.16-5.86-15.77-5.66 5.66-2 13.49-.87 18.35 1.28-.71-1.44-4.17-6.58-5.87-7.83 3.59.37 7.25 3.34 10.36 5.19-.34-2.49-4.38-13.64-5.33-15.32 3.79 3.21 8.81 11.18 9.88 14.82 1-1.69 1.61-5.5 1.84-7.82a16.9 16.9 0 012.85 7c1-4.23 3.67-11.81 6.32-14.38-1.41 3.77-2.86 13.43-2 15.35 2.8-6.35 7.16-12.76 12.1-15.67-1.62 2.28-4.73 10.52-4.48 14.11 2.86-3.32 6.15-6.73 10-7.42-2.57 2.28-6.8 11.43-6.76 15 2.99-2.45 11.15-5.08 16.47-6.07z"/><g><path class="cls-9" d="M268.41 882.49a436.87 436.87 0 00-5.27-10.3c-1.61-3.05-4-6.75-5-9.92a15.27 15.27 0 01-.55-7.5c.94-5.32 2.43-9.18 3-15.23 1.36-14.06-.57-26-5.89-35.83l60.9-21.41c-6.31 27.7-23.8 45.44-31.55 71a60.85 60.85 0 00-1.21 20.56c1.34 13 7.46 29.59 14.13 41.59 2.86 2.2 7 5.17 9.54 9 1.13 1.75-.17 2.75-3.12 3.44a22.83 22.83 0 01-6.47.67 12.24 12.24 0 01-7.81-2.86c-1.28-1-2.47-2.34-2.61-3.34a3.74 3.74 0 00-3.16-3.7 4.05 4.05 0 00-.34 1.41c0 .27-.3.37-.59.21a4.55 4.55 0 01-1.94-5.09c-.66-1 .14-2.92-1-5.93a249.49 249.49 0 00-11.06-26.77z"/><path class="cls-9" d="M244.63 842.73c19 .58 48.16.11 56.68 2.94-2.31 6.82-9.55 15.71-16.81 19.1.28 3.83.51 9.61-1.1 9.73-.84.06-1.41-1.4-1.8-3.37-.07 2.24-.4 4-1.28 4.1-1.47.11-2.1-4.42-2.42-8.17a36 36 0 01-4.83.78c.22 3.71.24 8.28-1.19 8.39-1 .07-1.58-1.91-2-4.36 0 2.68-.29 5-1.3 5.08-1.6.12-2.21-5.24-2.5-9.14-13.66-1.53-20.89-17.47-21.45-25.08zM512.7 840.59a7 7 0 012.62-.85c7.47-1.12 12.44 6.83 19.22 7.84-4.81 1.46-9.95-1.2-14.24-2-2.68-.51-3.45.13-5.82.29-3.63.23-4.06-3.87-1.78-5.28zM243.23 744.82c-20.85 1.41-21.56 16.89-25.38 33.88.76 9.09 1.46 18.25 2.51 27.41 2.27 19.7 4.14 39.25 3.67 60.35l-4.43.68c.47-20.77-1-40.61-3.28-60.15-1-9.14-2.87-18.12-3.64-27.4-2.85-23.26-2.14-43.68 31.2-42z"/><path class="cls-9" d="M218.73 832.86c.56 6.77-2.47 10.53-1.86 17.35 1.28 7.7-5 15.08-.08 22.93 2.32 3.74 5 4.88 3.88 10.25 1.14-1.33 1.28-2.91 2.43-4.24-.1 3.39 1.55 7.5 1.45 10.9 1.48-2.68.49-6.19 1.26-9a24.65 24.65 0 001.58 3.21c.33-2.25-.31-4.44-.49-6.62.68 1.14 1.66.34 3.13 1-2.86-6.54-3.74-12.57-2.78-18.14 1.57-9.17-2.2-11.6-4.23-27.58-.38-.15-.64 1.77-1.05 1.8s-.76-1.88-1.07-1.84-.18 1.93-.54 1.94-1.28-1.82-1.63-1.96zM410 908.67c2.22 2.14 5.49 5.06 7.08 8.64.72 1.61-.66 2.39-3.51 2.77a22.78 22.78 0 01-6.07.11c-2.94-.46-4.72-1.12-6.65-3.1-1-1-1.83-2.23-1.77-3.11a2.89 2.89 0 00-2.21-3.49 3.62 3.62 0 00-.58 1.22.36.36 0 01-.58.13 3.61 3.61 0 01-.83-4.61c-.42-1 .67-2.55.23-5.26-1.56-9.59-.91-19.08-1.22-28.69-3.47-6-2.72-25.09-4.08-37.63-2.88-4.52-4-8.54-3.65-12.18l30.84-4.65c-.64 13.75-4.61 22.28-6.74 34.28-1.56 8.83-1.68 14.64-5.06 23.68.85 12.3.95 21.03 4.8 31.89z"/><path class="cls-9" d="M502.23 836.77c-3 16.88-13.27 32.24-28.7 40-4.08-8.16-10.52-17.31-16.36-19.71-14.3-7.7-42 15.13-68.9-10.3-16.46 4.57-64.64 11.79-91.93 6-10.86-2.32-41.55-1.94-50.63-1.48-1.35-.92-22.48-52.28-24.36-57.76-20.27-58.88 33.91-64.59 82.35-59.6 57.25-1.27 77.15-2.43 98.85 1 24.46 3.83 40.24 15.5 52.56 30.34 15.22 18.22 29.64 50.22 47.12 71.51z"/><path class="cls-9" d="M224.49 886.15a429.7 429.7 0 00-3.6-11.7c-1.11-3.47-2.89-7.73-3.4-11.26a18.29 18.29 0 01.61-8.17c1.76-5.66 3.83-9.68 5.34-16.16 3.52-15.07-1.8-43.34-4.66-54.86 21.1-5.6 55.52 20.11 76.62 14.52-10.33 28.83-52.89 45.29-54.61 80.47-.69 14.22 2 32.14 6.72 45.83 2.48 2.68 6.12 6.33 8 10.78.85 2-.59 2.95-3.6 3.39a21.05 21.05 0 01-6.48 0c-3.16-.6-5.1-1.44-7.25-3.92-1.1-1.26-2.07-2.79-2.06-3.88a3.84 3.84 0 00-2.53-4.34 4.8 4.8 0 00-.56 1.5c-.06.28-.35.36-.61.16a5.08 5.08 0 01-1.12-5.71c-.5-1.2.58-3.15 0-6.51a278.07 278.07 0 00-6.81-30.14zM476.56 861.07l25.67-24.3c8.65-3 19 6.78 18.84 14.68 2.6 8.78 1.61 16.06-1.71 22.36 1.11 10.26-1.39 19.2 1.62 27.62 5.2 9.14-8.34 17.14-12.43 13.54-6.75 2.83-12.74-11-20.81-15.54a22.2 22.2 0 01-11.08-10.56c-4.32-8.43-4.1-19.31-.1-27.8zM439.72 913.46c2.62 2.06 6.43 4.86 8.66 8.35 1 1.58-.24 2.38-3.05 2.81a23.27 23.27 0 01-6.12.24A12.28 12.28 0 01432 922c-1.17-1-2.25-2.16-2.34-3a3.4 3.4 0 00-2.85-3.39 3.23 3.23 0 00-.37 1.21c0 .23-.3.31-.56.15a3.87 3.87 0 01-1.65-4.52c-.59-.94.23-2.53-.69-5.2-3.26-9.41-4.26-18.78-6.26-28.24-4.57-5.88-7.14-24.67-10.71-37a27 27 0 01-4.92-8c-2.66-7.24-.78-16.86-5.38-24 9.23-1.61 24.88 8.69 34.11 7.09 1.76 13.57 0 29.72-.06 41.6 0 8.74.86 14.47-1 23.45 3 12.09 4.68 20.69 10.4 31.31z"/><path class="cls-9" d="M512.69 834.3c7.5-.16 17.83 7.79 24.92 8-6.58 2.57-13.94-.5-19.85-.85-3-.18-4.16.59-6.88 1.1-6.82 1.26-6.28-8.07 1.81-8.25z"/><path class="cls-9" d="M501.67 846.3c1.91-1.47 7.68 1.52 9.59 0-4.13-7.58-1.93-14-5.05-20.31-3.71-7.54-10.87-4-10.77 3.6.07 5.49 4.99 10.75 6.23 16.71zM508.54 915a5.22 5.22 0 01-1.62.41 13.3 13.3 0 01-3.66-6 19.89 19.89 0 005.28 5.59zM519.81 906.15c-.15-.5-.25-.3-.38 0a3.25 3.25 0 01-1 1.31c-.91-1-2.74.61-3.15 1.62a1.3 1.3 0 00.08 1.4c1.39 1.44 4.8-2.48 4.45-4.33zM508.13 866.7a4.44 4.44 0 00-1.84-.74 5.2 5.2 0 015.38-.57 5.91 5.91 0 013.66 3.54 4.36 4.36 0 00-2.19-.46 2.36 2.36 0 01-2.84.86 3.49 3.49 0 01-2.17-2.63zM517.31 866.9c-3.52-.17-3-3.37-8-5.17 5.36.44 6.11 3.44 8 5.17z"/><g><path class="cls-9" d="M175 918.87a237.67 237.67 0 017.87-23.65c1.38-3.36 2.31-5.35 2.5-7.57.29-3.42-1.51-6.34-2.46-9.23-2.14-6.48-.76-12.78-.33-19.57l-30.25-5.44c.88 19.44 18 38.45 16.95 48.21-.86 8-4.69 17.34-7.81 25.59-2.08 1.69-5.1 4-6.86 6.81-.79 1.27.21 1.87 2.45 2.14a18.57 18.57 0 004.88 0 10.07 10.07 0 005.76-2.48 5.08 5.08 0 001.85-2.45 2.77 2.77 0 012.25-2.74 2.42 2.42 0 01.3.94c0 .18.24.23.45.1a3.1 3.1 0 001.29-3.6 22.1 22.1 0 011.16-7.06zM116.18 918.65c-.58-13.71 1.93-37.69 1.91-44.6 2.18-5.66.74-12.51 2.13-18.92l-21.75 7c4.53 12.58 11.45 52.73 8.56 65.14-1.44 1.65-3.56 3.92-4.42 6.58-.38 1.2.68 1.7 2.77 1.84a16.4 16.4 0 004.4-.2 7 7 0 004.56-2.54 3.59 3.59 0 001-2.34 2 2 0 011.31-2.63 2.79 2.79 0 01.52.86.27.27 0 00.43.07 2.58 2.58 0 00.22-3.37c.12-.38-.33-.88-.77-1.55-.91-1.43-.8-3.67-.87-5.34zM193.55 818.35a1.3 1.3 0 00-1.59.86 1.24 1.24 0 00.89 1.54c10.06 2.78 8.78 13 7.31 24.64-1.12 8.9-2.81 18.6.53 27a1.29 1.29 0 001.66.71 1.22 1.22 0 00.73-1.61c-3.1-7.78-1.45-17.15-.37-25.77 1.61-12.81 3.02-24-9.16-27.37z"/><path class="cls-9" d="M199.75 871.19c-1.51 4.08 4.71 11.83 6.64 12.43a2.7 2.7 0 01-.38-.76 3.81 3.81 0 003.16 1.11 4.29 4.29 0 01-1.86-1.05 1.81 1.81 0 00.92 0c-3.47-1.76-2.76-6-3.36-9-.36-1.8-.84-3.34-1.94-4a2.09 2.09 0 00-3.18 1.27zM104.34 887.71c11 .18 15.73-7.26 31.1-5.8 9.8.93 13.06 0 24.76-2.94 13.4-3.34 27.09-9.13 36.05-9.43-.46-10.52 4-19.95 5.7-27 7-37.67-41.46-29.13-62.51-26.14-14.42 2-30.83-1.11-43.44 2.2a30.06 30.06 0 00-10.15 4.68C70 833.43 60 865.43 46.41 885.32c.46 8.87 14.77 17 23.15 18.61a39.06 39.06 0 018.74-14.51c3-2.94 4.18-5.14 8.44-4.84 5.83.42 12.36 3.05 17.6 3.13z"/><path class="cls-9" d="M100 924.16c1.25-13.66 7-37.46 7.85-44.34 2.94-5.58 2.41-12.43 4.65-18.78l-23.92-2.23c2.86 12.66 5.66 61.45 1.11 73.72-1.65 1.6-4.08 3.8-5.29 6.42-.55 1.19.45 1.72 2.52 1.92a16.8 16.8 0 004.43-.08 7.92 7.92 0 004.9-2.4 4 4 0 001.34-2.3 2.22 2.22 0 011.67-2.58 2.9 2.9 0 01.41.87c0 .16.24.21.42.08a2.66 2.66 0 00.67-3.35c.17-.38-.23-.88-.57-1.57-.78-1.48-.37-3.71-.19-5.38zM197.94 923.69a224 224 0 014-24.05c.83-3.42 1.43-5.47 1.26-7.69-.26-3.44-2.51-6.26-3.93-9.11-3.16-6.36-2.81-12.73-3.47-19.55l-41.19-2.87c7.67 11.88 31.92 32.73 33.58 41 1.9 9.45.7 22.87-2.32 31.33-1.78 1.8-4.41 4.26-5.7 7.17-.59 1.31.51 1.85 2.77 2a18.88 18.88 0 004.84-.22 8.87 8.87 0 005.32-2.78 4.46 4.46 0 001.44-2.54 2.44 2.44 0 011.79-2.86 2.68 2.68 0 01.45.93c0 .17.27.21.46.07a2.91 2.91 0 00.7-3.67 21.65 21.65 0 010-7.16zM46.54 894c-1.58 2.36-2.82 3.71-4.4 6.07a14.63 14.63 0 00-5.33-6.39c-2.44-1.9-6.16-8.41-.71-9.38 2.56-.46 5.64 1.27 7.19 2.93s2.25 3.77 3.25 6.77z"/><path class="cls-9" d="M51.78 934.14c-2.28 2-8-.17-8.83-3-.59-2.08-.34-2.83-1.17-5-.89-2.29-1.92-5.13-2.83-7.5-9.95-12.22-5.1-26.44 7.85-33.54 7.62 2.77 17 6.74 21 13.82 5.25 9.36-.84 18.92-7.57 25.66-2.06 2-3.9 4-4.55 6.28-1 2.48-2.46 3.14-3.9 3.28z"/><path class="cls-9" d="M43 892l5.35-4.19a16.64 16.64 0 00-3.6-6.43c-1.55-1.66-4.27-3.73-6.84-3.27-5.45 1-1.73 7.48.71 9.38A16 16 0 0143 892zM53.41 933.67a4.46 4.46 0 01-1.63.47 12.69 12.69 0 001.37-4.75 6.45 6.45 0 01.26 4.28zM44.88 931.61c-.24.23-.1.23.11.21a2.25 2.25 0 011 .17c-.31.82 1.16 1.38 1.86 1.32a.84.84 0 00.77-.47c.46-1.2-2.77-2-3.74-1.23zM43.07 911.65a2.77 2.77 0 01.69-1.07 3.35 3.35 0 00-3 1.68 3.77 3.77 0 00-.62 3.21 2.85 2.85 0 011-1.05 1.5 1.5 0 001.81-.59 2.23 2.23 0 00.12-2.18zM38.31 915.13c1.79-1.38.32-2.86 2.3-5.66-2.61 2.2-1.95 4.06-2.3 5.66z"/></g></g><g><path class="cls-9" d="M1473.5 930.32c-2.31 2.2-5.7 5.21-7.33 8.73-.74 1.59.71 2.24 3.69 2.4a26.58 26.58 0 006.35-.33c3.07-.64 4.93-1.4 6.93-3.42 1-1 1.89-2.26 1.83-3.1a2.9 2.9 0 012.28-3.47 3.4 3.4 0 01.62 1.12c.07.21.36.26.6.08a3.32 3.32 0 00.83-4.45c.43-.94-.72-2.38-.28-5 1.55-9.25.78-18.24 1-27.42 3.57-6 2.62-24.1 3.93-36.14 3-4.51 4.08-8.42 3.72-11.86l-32.32-2.26c.8 13.06 5 20.9 7.35 32.19 1.7 8.3 1.88 13.82 5.5 22.2-.76 11.8-.8 20.12-4.7 30.73zM1629.5 896c1.29-3.46 2.62-6.81 3.88-9.9s3.1-6.57 3.68-9.53a12 12 0 00-.55-6.72c-8.46-22-8.75-39.49 1-62.65-21.9-3.34-49.47 10.31-71.37 7 8.79 19.6 50.29 53.94 49.5 72-.52 11.83-5.52 29.95-10.58 41.56-2.61 2.37-6.69 7.23-8.44 11.09-1.34 3.47 7.1 2.72 9.48 2.47 3.23-.34 6.45-1.28 8.71-3.46a6.89 6.89 0 002-3.8 3.41 3.41 0 012.69-3.75 3.31 3.31 0 01.56 1.2c.06.23.36.28.63.1a3.78 3.78 0 001.24-4.8c.53-1-.57-2.57.1-5.39a205.26 205.26 0 017.47-25.42z"/><path class="cls-9" d="M1408.5 801.89c12.78 5 20.22 36.38 30.56 43.68 5.3 13.58 15.36 21.37 25.29 23 11.35 1.82 24.44-1.1 36.32-1.63 7.27.71 22 3.31 38.28 4.47 4.31.73 7.62 2.94 10.21 3.66-.39 5 3.28 9.62 6.83 11.41a9 9 0 01-.43-3.29 3.13 3.13 0 00.72.87 6.32 6.32 0 01.33-4.4 4.2 4.2 0 00.37 1c.94-9.15 16.13-10.19 23-11.58 15.14-3.07 31.3-8.28 49.92-14.33 9.61-7.66 13.59-11.76 23.21-19.42 3.1-8.17 7.31-18 9.36-25.67 6.12-23 2.39-38.76-9.65-46.9-15.53-10.49-44-9.27-73.77-4.17-55.19 2.86-82.65-8.08-110.91-12.24-8.38-1.23-22.65-2-33.85 1.2-6.81 20.87-18.95 33.45-25.79 54.34z"/><path class="cls-9" d="M1639.24 765.55c20-.13 20.84 15.82 25.69 31.76-.08 8.73.83 17.69.47 26.51-.77 19-1.18 37.76.76 57.87l4.28.33a418.42 418.42 0 01-1.12-57.64c.21-5.14.67-10.24 1-15.36.92-13.09 3.33-37-8.35-46.11-8.76-6.83-29.9-5.07-38.1-1.76zM1403.27 737.13a7.08 7.08 0 00-1.65-2.44c-5.6-5.82-15.17-2.1-21.62-5.6 3.11 4.39 9.27 5.39 13.47 7.45 2.62 1.29 2.85 2.35 4.75 4 2.92 2.59 6.02-.67 5.05-3.41z"/><path class="cls-9" d="M1418.89 796.44a33.46 33.46 0 007.44-12.46c3.69-10.3 5.43-23.62 8-36.48-8.18-5.88-16.88-9.69-23.49-10.3-4.73-6.88-17.12-6.21-19.67 2.95a23.37 23.37 0 00-13 18.43c-3.61 6.33-7 12.87-13.19 18.2-8.85 3.73-4.1 18.29 1.14 18.22 2.39 5.15 8.14 3.34 14 3.35 12.1.03 25.29 11.65 38.77-1.91z"/><path class="cls-9" d="M1366.16 795a6.62 6.62 0 00.9 1.45 17.76 17.76 0 006.2-1.94 52.64 52.64 0 01-7.1.49zM1410.83 744.31l-1.3-6.86a32.73 32.73 0 006.61-3c2.74-1.47 7.23-4.06 10-1.39 2.07 2 1.49 6-1.2 9a12.11 12.11 0 01-9.46 3.66 11.69 11.69 0 01-4.65-1.41zM1668.84 844.73c-.11 6.5 3.23 9.55 3.07 16.11-.74 7.43 5 12.55.84 20.39-2 3.73-3.37 6.34-2.4 11.54a8.73 8.73 0 01-2.6-2.95c.31 3.24-1.28 7.28-1 10.51-1.57-2.44-.58-5.87-1.48-8.51-.26 1.23-1.09 2.12-1.32 3.18-.45-2.12 0-4.26.06-6.36-.58 1.15-1.38 1.17-2.74 1.9 1.45-4-1.17-8.25-.51-13 .4-2.85 2.52-11.51 2.23-17.41s1.38-10.28 1.77-14.36c.28-.13.53 1.3.83 1.23s.85-1.76 1.25-1.82.6 1.58.93 1.5.76-1.8 1.07-1.95z"/><path class="cls-9" d="M1667.23 899.23c.81-3.68 1.67-7.26 2.51-10.55.79-3.13 2.18-7 2.34-10.16a14.34 14.34 0 00-1.47-7.16c-11.53-23.42-12.81-41.82-6.91-66.76-22.36-3.6-31.7 26.4-54.09 22.88 8.83 20.81 39.61 46.47 40.94 61.3 1.12 12.61.79 32.05-2.65 44.43-2.29 2.52-6.1 7.63-7.57 11.67-.67 1.83.91 2.57 4.06 2.76a25.27 25.27 0 006.7-.38c3.2-.74 5.11-1.6 7.08-3.93 1-1.19 1.84-2.6 1.72-3.55a3.17 3.17 0 012.17-4 4.41 4.41 0 01.73 1.29.39.39 0 00.64.1 4 4 0 00.57-5.12c.39-1.08-.93-2.73-.65-5.74a213 213 0 013.88-27.08zM1457.61 935.55c-2.4 2.38-5.93 5.66-7.71 9.48-.8 1.73.62 2.44 3.59 2.61a23.83 23.83 0 006.36-.36c3.1-.69 5-1.51 7.08-3.71 1.06-1.13 2-2.46 2-3.37a3.34 3.34 0 012.44-3.78 3.8 3.8 0 01.57 1.22c.06.23.34.28.6.09a3.88 3.88 0 001-4.83c.47-1-.62-2.59-.07-5.44 2-10.05 1.58-19.83 2.22-29.81 3.84-6.53 3.68-26.2 5.51-39.29 3.17-4.9 4.45-9.15 4.23-12.9L1453.2 843c.22 14.2 4.11 22.72 5.94 35 1.34 9 1.28 15 4.54 24.13-1.31 12.87-1.68 21.87-6.07 33.42zM1392.79 761.35a4.42 4.42 0 012 .19 5.06 5.06 0 00-4.42-3 5.93 5.93 0 00-4.86 1.43 4.26 4.26 0 012.13.61 2.29 2.29 0 002.06 2 3.49 3.49 0 003.09-1.23zM1384.75 757.83c2.89 1.35 3.84-1.48 8.65-.81-4.49-1.9-6.4.2-8.65.81zM1364.94 787.49a3.61 3.61 0 00-.08-1.71c-1.38.37-2-2.11-1.79-3.22a1.42 1.42 0 01.89-1.18c1.91-.45 2.5 3.81 1.51 6-.16.29-.67.79-.53.11zM1409.43 731.05c-6.26-5-20.39-4.75-26.55-9.18 3.87 6.51 12.19 8.59 17.46 12.12 2.7 1.81 3.13 3.21 5.11 5.41 4.93 5.53 10.74-2.96 3.98-8.35z"/><g><path class="cls-9" d="M1113.44 927.06c8-.24 8.7-15.7 8.57-27.41-.17-16.43-.28-38 10.7-51.09 5.51-6.54 13.84-10 26.52-7.66l-.59 3.22c-23.32.44-31.4 23.39-32.52 44.73-.54 10.25 1.68 41-12.59 41.46z"/><path class="cls-9" d="M1115.86 930a26.4 26.4 0 01-12 2.51c-5.45-.43-10.23 4.37-16 1.43-2.75-1.4-3.71-3.17-7.39-2.09.86-.88 2-1.07 2.82-1.95-2.37.27-5.33-.63-7.7-.36 1.78-1.19 4.29-.72 6.21-1.42a18.5 18.5 0 01-2.34-.91 20.19 20.19 0 014.66-.06c-.85-.4-.34-1.13-.89-2.12a21.94 21.94 0 0012.82.85c5.08-1.32 7.31 0 13.88.85 1.58.19 3.23.67 5.56-.05.12.26-1.13 1.05-1.13 1.34s1.38.17 1.36.39-1.35.49-1.33.74 1.35.58 1.47.85zM1334.74 934.33c-1.13 3.65-3.85 7.52-12.1 6-10.67-2-29.25-8.55-40-8.63a31.8 31.8 0 01-9.5-.23c-5-1 4.31-14.35 10.95-12.08a2.75 2.75 0 003.83-.78 3.42 3.42 0 00-.82-.92.3.3 0 010-.41c-8.93-1-14.67-4.81-12.47-15.68a43.92 43.92 0 00-1.69-16.66l32 5.72c-4.01 17.03 36.72 21.34 29.8 43.67z"/><path class="cls-9" d="M1340.14 832c6.53 14.94 11.31 30.27 12.83 46.37-21.1 11-21.43 34.31-35.83 46.6-12.11 10.34-36.21 11.09-70.86 8.28-39.76 2.52-110.32 6.9-118.87-43.76-3-17.86 2.9-35 17.72-44.81 15-10 36.81-10.17 53.87-6.45 68.14 4 71.79-7.16 104.06.65 15.39 1.12 25.42-1.27 37.08-6.88z"/><path class="cls-9" d="M1322.38 940.2c-.79 3.75-3.15 7.87-11.5 7.14-10.82-.94-29.92-5.59-40.64-4.58a32.22 32.22 0 01-9.48.72c-5-.56 3-14.71 9.81-13.12a2.73 2.73 0 003.73-1.16 3.41 3.41 0 00-.9-.83.29.29 0 01-.08-.41c-9-.09-15-3.31-13.86-14.34a43.54 43.54 0 00-3.2-16.41l32.38 2.49c-2.36 17.38 38.6 17.63 33.74 40.5zM1129 865.85c12.36 1.2 24.59 3.88 37 5.08 10.49 10.51 10 25.74 5.38 43.17-1.87 7.09 2 10.48 7.63 11.09 11.49 1.24 20.95 2.43 23.8 7.59 1.72 1.29 8.91 6.78 7.81 9.24s-10.93 1.26-13.12.71a22 22 0 01-7.51-3.85c-.49-.35-3-1.29-4.15-1a5 5 0 00.87 1.45c.2.23.07.53-.28.63a5.26 5.26 0 01-5.58-2.66c-1.59.79-9.17-.34-11.94-.38-6.37-.08-17.62 1.71-23.47.15-5-1.33-.47-8-1.1-11.67-1.88-5.18-29.34-14.8-15.34-59.55zM1374.7 814.9c-4.43 8.11-7.79 8.45-13.76 9.42-4.71.94-4.29 6.7.2 6.58 8.21-.21 13.49-7.55 13.56-16zM1322.66 811.77c3.43 8.59 6.73 9.33 12.53 11 4.56 1.49 3.46 7.15-1 6.5-8.11-1.18-12.47-9.1-11.53-17.5z"/><path class="cls-9" d="M1359.33 831.64a61.67 61.67 0 00.74 9.07c2.62 1.56 10.57 4.06 16.9 2a20.39 20.39 0 007.84-4.8c1.74-1.76 2.67-3 2.77-4.36.18-2.38-5.2-4.26-9.68-4.8-6-.72-6.15 1.15-10.59 3.35a8.78 8.78 0 01-7.98-.46zM1335.91 830.23a60.87 60.87 0 01-1.81 8.92c-2.79 1.23-11 2.76-17 0a20.25 20.25 0 01-7.21-5.71c-1.52-1.95-2.3-3.25-2.23-4.66.11-2.38 5.68-3.6 10.18-3.6 6 0 6 1.88 10.12 4.59a8.75 8.75 0 007.95.46z"/><path class="cls-9" d="M1362 830.5c.9-9.27-8.06-8.35-13.81-8.7s-14.54-2.33-14.75 7c-.25 10.47 27.56 12.14 28.56 1.7z"/><path class="cls-9" d="M1348 825.44c10 .6 19.34 3.38 16.79 15.9 1.63 3.57 1.61 5.5 0 5.89a4.82 4.82 0 01-.59 5c.09 2.35-1.74 3.85-1.76 5.49-.13 8.42-4.52 14.93-6.57 25l-11.28-1-11.32-.38c-.82-10.28-4.41-17.27-3.52-25.65.17-1.63-1.47-3.33-1.1-5.65a4.89 4.89 0 010-5.07c-1.54-.57-1.34-2.49.72-5.83-1.05-12.69 8.63-14.3 18.63-13.7z"/><path class="cls-9" d="M1360.56 849.42c.66 1.1 2.4 2.68 3.62 2.83a4.82 4.82 0 00.59-5 5 5 0 00-4.21 2.17zM1332.57 847.74c-.79 1-2.7 2.37-3.94 2.37a4.85 4.85 0 010-5.05 4.94 4.94 0 013.94 2.68zM1344.51 882.69c-8.72-.52-12 9.79-5.79 11 1.56.3 3.36 0 5.13.09s3.51.64 5.1.52c6.31-.45 4.28-11.08-4.44-11.61z"/><path class="cls-9" d="M1333.67 878.51c-1.64 1.68-3 8.38-1.58 11.23 1.21 2.49 8.35.71 12 .74 3.58.4 10.45 3 12 .69 1.71-2.66 1.2-9.47-.22-11.33-1.97-8.35-19.34-9.39-22.2-1.33z"/><path class="cls-9" d="M1353.25 875.9c-4.14-3.43-12.07-3.91-16.59-1 4.06-1.1 5.31.86 8.26 1s4.43-1.62 8.33 0zM1353.21 880.74c-.26-.4-.29-.2-.33.1a3.14 3.14 0 01-.52 1.41c-1.06-.66-2.25 1.24-2.35 2.23a1.2 1.2 0 00.43 1.21c1.56.91 3.56-3.39 2.77-4.95zM1336.11 879.71c.31-.36.32-.16.32.14a3.11 3.11 0 00.35 1.46c1.13-.52 2.08 1.51 2.07 2.5a1.21 1.21 0 01-.58 1.15c-1.67.72-3.14-3.79-2.16-5.25z"/></g><g><path class="cls-9" d="M1830.2 937.39c-.41 2.31-4.75 5.59-9.89 5.31-6.65-.36-19.15-4.32-25.7-3.49a19.88 19.88 0 01-5.8.64c-3.11-.24 1.53-9.09 5.75-8.24a1.69 1.69 0 002.27-.79 2.28 2.28 0 00-.57-.5.17.17 0 01-.06-.24c-5.51.12-9.3-1.73-8.78-8.52a26.69 26.69 0 00-2.3-10l22.48 1c-1.09 10.65 25.12 10.71 22.6 24.83zM1718 934.94c-16.17.52-26.63-7.14-27-17.56-.46-12 8.36-24.25 23.23-26.11z"/><path class="cls-9" d="M1837 932.91c-.42 2.31-4.75 5.58-9.89 5.31-6.65-.36-19.15-4.32-25.71-3.5a19.51 19.51 0 01-5.79.64c-3.11-.24 1.53-9.08 5.75-8.24a1.68 1.68 0 002.26-.79 2 2 0 00-.57-.49.18.18 0 010-.25c-5.51.13-9.3-1.73-8.79-8.52a26.87 26.87 0 00-2.29-10l22.48.95c-1.12 10.71 25.1 10.77 22.55 24.89z"/><path class="cls-9" d="M1823.17 871.08c4.55 8.91 9 21.41 10.5 31.22-6.57 6.75-6.1 20-14.47 28-7 6.77-34.55 3.81-55.87 3.36-24.26 3-64.68 5.78-68.71-16.28-2.46-13.43 14.49-29.69 37.62-31.36 21.2-2.72 44.48.29 66.16-1.89 8.29-1.72 19.2-8.13 24.77-13.05z"/><path class="cls-9" d="M1807.6 912.51l-22.48-1a26.69 26.69 0 012.3 10c-.52 6.79 3.27 8.64 8.78 8.52a.17.17 0 00.06.24 2.28 2.28 0 01.57.5 1.69 1.69 0 01-2.27.79c-4.22-.85-8.86 8-5.75 8.24a19.88 19.88 0 005.8-.64c6.55-.83 19.05 3.13 25.7 3.49 5.14.28 9.48-3 9.89-5.31 2.52-14.07-23.69-14.13-22.6-24.83zM1719.29 914.29l30.47-3.65c7.29 8.06 2.87 17.51-4.77 20.56 5.52-.07 10.92.72 13.06 3.18 1.16.63 6 3.3 5.58 4.89s-6.52 1.77-7.89 1.63a13.59 13.59 0 01-4.91-1.65 4.9 4.9 0 00-2.61-.23 3.27 3.27 0 00.66.8c.14.12.09.32-.11.4a3.22 3.22 0 01-3.63-1.1c-.89.63-12.94 1.29-14.62 1.52-3.87.53-14.32 2.46-17.9 1.45s-.78-6.42.6-10c.47-1.2 2.81-9.18-2.44-11.67zM1822.55 860.17c-.29 2.66-1.25 9.66-3.27 11.8-2.21-3.43-6.48-2.89-10.72-4.72a15.2 15.2 0 01-5.51-4.1c-1.18-1.43-1.79-2.39-1.78-3.44 0-1.79 4.17-2.82 7.54-2.92 4.49-.13 4.51 1.27 7.67 3.21a6.76 6.76 0 006.07.17zM1841.39 860.17c.29 2.66 1.26 9.66 3.27 11.8 2.21-3.43 6.48-2.89 10.72-4.72a15.24 15.24 0 005.52-4.1c1.18-1.43 1.79-2.39 1.77-3.44 0-1.79-4.17-2.82-7.54-2.92-4.49-.13-4.51 1.27-7.67 3.21a6.76 6.76 0 01-6.07.17z"/><path class="cls-9" d="M1832 857.31c-10.76 0-14.07 6.21-12.78 15-1.33 2.39-1.4 3.73-.26 4.06a3.27 3.27 0 00.21 3.5c-.17 1.61 1.09 2.72 1 3.85-.27 5.83 2.61 9.46 3.65 16.52l8.17-.2 8.17.2c1-7.06 3.92-10.69 3.65-16.52 0-1.13 1.2-2.24 1-3.85a3.23 3.23 0 00.21-3.5c1.14-.33 1.07-1.67-.26-4.06 1.31-8.82-2.05-15-12.76-15z"/><path class="cls-9" d="M1842.09 878a4.83 4.83 0 002.73 1.81 3.23 3.23 0 00.21-3.5 3.62 3.62 0 00-2.94 1.69zM1821.86 878a4.89 4.89 0 01-2.74 1.81 3.27 3.27 0 01-.21-3.5 3.63 3.63 0 012.95 1.69zM1832 899c6.31 0 8.22 8.56 3.7 9.13a45.71 45.71 0 00-7.4 0c-4.55-.53-2.63-9.13 3.7-9.13z"/><path class="cls-9" d="M1840 898.17c1.11 1.22.68 5.9-.43 7.81-1 1.67-5 .14-7.56 0-2.6.12-6.58 1.65-7.56 0-1.11-1.91-1.54-6.59-.43-7.81 1.67-5.69 14.23-5.69 15.98 0z"/><path class="cls-9" d="M1826.33 898.89c.21-.26.22-.12.24.09a2.06 2.06 0 00.31 1c.79-.41 1.57.95 1.6 1.64a.85.85 0 01-.36.82c-1.18.56-2.43-2.5-1.79-3.55zM1837.61 898.89c-.2-.26-.22-.12-.23.09a2.08 2.08 0 01-.32 1c-.79-.41-1.57.95-1.6 1.64a.83.83 0 00.37.82c1.17.56 2.43-2.5 1.78-3.55zM1825.86 895.63c2.24-1.12 4 .37 6.11.37s3.87-1.49 6.11-.37c-3.14-2.3-9.08-2.3-12.22 0z"/></g></g><path d="M1008.43 929.28c.35-5.14-9-7.4-9.3-11.21-.93-12.79-13.19-8-13-13.22.65-13.85-12.12-9.58-11.86-17.56.39-12.23-12.45-9.44-13.35-13.62-3.77-17.6-12.14-4.65-15.48-14.46-5.33-15.67-17.52-7.39-18.3-13.72-1.13-9.22-12.78-1.07-17.15-5.44-7.91-7.91-10.94 3.48-19.52-1.11-13.69-7.32-10.66 4.71-22.62 3.24-18-2.22-11.33 8-21.88 6.68-19.84-2.44-15 8-22.24 7.75-13.89-.55-14.91 13.63-21.51 13.35a14.87 14.87 0 00-9.35 2.65c-3.42 2.33-5.8 5.69-8 8-5-4.14-1.35-7.93-7.38-8.68-12.35-1.51-5.19-12.7-11.5-12.2-11.39.9-8.3-10.5-17-9.3-12.76 1.75-9.61-8.29-17-5.43-9.07 3.51-12.66-3.23-16.79-2.73-16.56 2-9-2.39-18.94-2.19-13.73.27-10.13-8.68-22.21-3.61s-12.55-1.86-21.14 5.43c-9.78 8.3-13.6.89-17.55 7.42-10.88 18-14.06 6.58-17.21 12.64-8.31 16-15.41 7.42-16.41 12.2-1.87 9-11.55 9.52-12.23 11.9-3.43 11.92-9.82 6-10.79 10.72-2.77 13.61-16.63 7.75-12.57 20.79l168.28 2z" opacity=".79" fill-rule="evenodd" fill="#fff"/><path class="cls-9" d="M-102.69 973.61c601.17-139.41 1512.31 19.28 2212.86-53.39V1093H-102.69z"/></g><circle class="cls-5" cx="1625.44" cy="593.33" r="7.32"/><circle class="cls-5" cx="1730.61" cy="577.8" r="13"/><g><path class="cls-6" d="M703.62 528.88a17.58 17.58 0 1117.57-17.57 17.58 17.58 0 01-17.57 17.57z"/><path class="cls-9" d="M702.92 512.93a.7.7 0 011.39 0 2.81 2.81 0 00.66 1.84 1.92 1.92 0 003 0 2.75 2.75 0 00.66-1.84 6.31 6.31 0 00-1.49-4.14 4.52 4.52 0 00-7 0 6.31 6.31 0 00-1.49 4.14 9.8 9.8 0 002.32 6.44 7.12 7.12 0 0011 0 9.75 9.75 0 002.33-6.44 13.24 13.24 0 00-3.16-8.73 9.71 9.71 0 00-15 0 13.24 13.24 0 00-3.16 8.73.7.7 0 11-1.39 0 14.64 14.64 0 013.51-9.65 11.09 11.09 0 0117.12 0 14.64 14.64 0 013.51 9.65 11.18 11.18 0 01-2.68 7.35 8.47 8.47 0 01-13.1 0 11.17 11.17 0 01-2.67-7.35 7.66 7.66 0 011.84-5 5.89 5.89 0 019.08 0 7.66 7.66 0 011.84 5 4.17 4.17 0 01-1 2.76 3.28 3.28 0 01-5.06 0 4.23 4.23 0 01-1.06-2.76z"/></g><g><path class="cls-6" d="M622.2 545.49a17.58 17.58 0 1117.58-17.57 17.57 17.57 0 01-17.58 17.57z"/><path class="cls-9" d="M621.51 529.54a.7.7 0 011.39 0 2.75 2.75 0 00.66 1.84 1.89 1.89 0 003 0 2.75 2.75 0 00.66-1.84 6.31 6.31 0 00-1.49-4.14 4.52 4.52 0 00-7 0 6.31 6.31 0 00-1.49 4.14 9.75 9.75 0 002.33 6.44 7.1 7.1 0 0011 0 9.8 9.8 0 002.32-6.44 13.24 13.24 0 00-3.16-8.73 9.71 9.71 0 00-15 0 13.24 13.24 0 00-3.16 8.73.69.69 0 01-.69.7.7.7 0 01-.7-.7 14.64 14.64 0 013.51-9.65 11.1 11.1 0 0117.13 0 14.68 14.68 0 013.5 9.65 11.13 11.13 0 01-2.67 7.35 8.48 8.48 0 01-13.11 0 11.13 11.13 0 01-2.67-7.35 7.66 7.66 0 011.84-5 5.89 5.89 0 019.08 0 7.66 7.66 0 011.84 5 4.2 4.2 0 01-1 2.76 3.3 3.3 0 01-5.07 0 4.2 4.2 0 01-1.05-2.76z"/></g><path d="M1024.68 387.73l-5.66 5.66-13-13a2.69 2.69 0 00.35-1.33 2.74 2.74 0 00-.37-1.36l13-13 6 6.06 49.29-49.3-6.56-6.55-6.56-6.56-49.29 49.29.37.37 5.66 5.65-13 13a2.84 2.84 0 00-1.36-.36 2.71 2.71 0 00-1.36.37l-13-13 6-6.05L946 308.34l-6.56 6.56-6.55 6.55 49.29 49.3.37-.38 5.65-5.65 13 13a2.7 2.7 0 00-.37 1.35 2.74 2.74 0 00.39 1.39l-13 13-6-6.06-49.29 49.3 6.55 6.55 6.56 6.56 49.29-49.29-.37-.37-5.65-5.65 13-13a2.72 2.72 0 002.72 0l13 13-6.05 6.05 49.29 49.29 6.56-6.56 6.56-6.55-49.29-49.3zm1.9 15.77l7.35 7.35-2.16 2.16-7.35-7.35zm-2.91 1.42l-7.34-7.35 2.16-2.16 7.35 7.35zm19.09 14.76l7.35 7.35-2.16 2.16-7.35-7.34zm-2.9 1.42l-7.35-7.35 2.16-2.16 7.35 7.35zm-8.84-7.35l-2.16 2.17-7.35-7.35 2.16-2.16zm.75.75l7.34 7.35L1037 424l-7.35-7.35zm8.09 8.09l7.35 7.35-2.21 2.16-7.35-7.35zm8.09 8.09l7.35 7.35-2.17 2.17-7.35-7.35zm.74-.74l2.16-2.17 7.35 7.35-2.16 2.17zm-4.44-90l7.35-7.35 2.16 2.17-7.35 7.35zm1.42 2.91l-7.35 7.35-2.16-2.17 7.35-7.34zm-10.25 5.93l2.16 2.16-7.35 7.35-2.16-2.16zm2.9 2.9l2.17 2.17-7.35 7.35-2.14-2.2zm.74-.74l7.35-7.35 2.17 2.17-7.35 7.35zm8.1-8.09l7.34-7.35 2.17 2.17-7.35 7.35zm8.09-8.09l7.35-7.35 2.16 2.17-7.35 7.34zm-.75-.74l-2.16-2.17 7.35-7.35 2.16 2.17zm-27.18 22.85l2.17 2.16-7.35 7.35-2.17-2.16zm-4.44 10.25l7.35-7.35 2.17 2.17-7.35 7.35zm42.63-38.29l-2.17-2.16 7.35-7.35 2.16 2.16zm4.44-10.25l-7.35 7.34-2.17-2.16 7.35-7.35zm-89.29 36.06l-7.34-7.35 2.16-2.16 7.35 7.35zm2.91-1.42l7.35 7.35-2.16 2.16-7.35-7.35zm-19.09-14.76l-7.35-7.35 2.17-2.16 7.35 7.34zm2.91-1.42l7.35 7.35-2.17 2.16-7.35-7.35zm8.83 7.35l2.17-2.17 7.35 7.35-2.17 2.16zm-.74-.75l-7.35-7.35 2.17-2.16 7.35 7.35zm-8.09-8.09l-7.39-7.38 2.2-2.17 7.35 7.35zm-8.09-8.09l-7.3-7.38 2.16-2.17 7.35 7.35zm-.75.74l-2.16 2.17L949 323l2.16-2.17zm33.11 31.63l-7.35-7.35 2.17-2.17 7.35 7.35zm-38.29-42.63l-2.17 2.17-7.34-7.37 2.16-2.17zm-10.26-4.44l7.35 7.35-2.16 2.17-7.3-7.38zM963 418.2l-7.35 7.35-2.17-2.17 7.35-7.35zm-1.43-2.91l7.35-7.35 2.17 2.17-7.35 7.34zm10.26-5.93l-2.16-2.16 7.34-7.35 2.17 2.16zm-2.91-2.9l-2.16-2.17 7.35-7.35 2.16 2.17zm-.74.74l-7.35 7.35-2.16-2.17L966 405zm-8.09 8.09l-7.35 7.35-2.17-2.17 7.35-7.35zm-8.09 8.09l-7.35 7.35-2.17-2.17 7.35-7.34zm.74.74l2.16 2.17-7.34 7.35-2.17-2.17zm27.18-22.85l-2.16-2.16 7.35-7.35 2.16 2.16zm4.44-10.27l-7.36 7.36-2.16-2.16 7.35-7.35zm-42.62 38.29l2.17 2.16-7.35 7.35-2.17-2.16zm-4.44 10.25l7.35-7.34 2.16 2.16-7.35 7.35zm78.28-41.25l7.35 7.35-2.17 2.17-7.34-7.35zm38.29 42.63l2.17-2.17 7.35 7.35-2.17 2.17zm10.26 4.44l-7.35-7.35 2.17-2.17 7.35 7.35z" opacity=".25" fill-rule="evenodd" fill="#fff"/></g></svg>