<svg id="Layer_1" data-name="Layer 1" xmlns="http://www.w3.org/2000/svg" width="1920" height="1080" viewBox="0 0 1920 1080">
  <defs>
    <style>
      .cls-1, .cls-2, .cls-3, .cls-4, .cls-5, .cls-6, .cls-7 {
        fill: #fff;
      }

      .cls-1 {
        opacity: 0.21;
      }

      .cls-2 {
        opacity: 0.28;
      }

      .cls-3 {
        opacity: 0.15;
      }

      .cls-4 {
        opacity: 0.33;
      }

      .cls-5 {
        opacity: 0.05;
      }

      .cls-6 {
        opacity: 0.16;
      }

      .cls-7 {
        opacity: 0.41;
      }
    </style>
  </defs>
  <title>Artboard 4 copy</title>
  <polygon class="cls-1" points="0 514 90 454 230 552 382 485 508 540 656 485 816 552 948 454 1116 592 1339 474 1464 540 1674 418 1804 505 1920 406 1920 698 1800 640 1644 732 1523 649 1371 748 1178 706 1120 746 946 680 810 732 586 640 434 686 152 562 0 686 0 514"/>
  <polygon class="cls-2" points="-1 406 101 320 156.68 370.84 314.36 514.82 231 552 90 454 0 514 -1 406"/>
  <polygon class="cls-3" points="-1 406 101 320 114 368 92 400 120 475 90 454 0 514 -1 406"/>
  <polygon class="cls-4" points="101 320 82.97 335.2 120 337.35 101 320"/>
  <polygon class="cls-2" points="301 238 147 362 314 514 383 485 509 540 615.21 500.16 301 238"/>
  <polygon class="cls-3" points="301 238 147 362 314 514 383 485 410 498 314 359 331 299 301 238"/>
  <polygon class="cls-4" points="302 237.5 321.97 255 279 254.5 302 237.5"/>
  <polygon class="cls-2" points="1640 438 1469 288 1116 592 1339 474 1464 540 1640 438"/>
  <polygon class="cls-2" points="1525.26 337.35 1742 207 1920 304 1920 406 1804 505 1674 418 1640 438 1525.26 337.35"/>
  <polygon class="cls-3" points="1503 403 1469 288 1116 592 1339 474 1445 530 1503 403"/>
  <polygon class="cls-4" points="1469 288 1490 307 1447 307 1469 288"/>
  <polygon class="cls-3" points="1525.26 337.35 1742 207 1773 273 1735 312 1746 466 1674 418 1640 438 1525.26 337.35"/>
  <polygon class="cls-4" points="1742 207 1763.87 218.91 1722.63 218.91 1742 207"/>
  <polygon class="cls-2" points="475.21 383.35 596 320 767 406 852 337 981 426 1179 356 1305.51 428.8 1116 592 948 454 816 552 655 485 615 500 475.21 383.35"/>
  <polyline class="cls-5" points="767 406 596 320 475.21 383.35 615 500 637 492 578 401 601 376 596 320"/>
  <g>
    <polygon class="cls-6" points="1501.89 870.02 1521.29 859.7 1501.89 859.7 1501.89 870.02"/>
    <path class="cls-6" d="M1886.83,682V664.62h13.82l-9.75-16.89h5.45l-8.4-14.54h4.62l-9.24-16-9.25,16h4.62l-8.39,14.54h5.44L1866,664.62h13.82v14l-46-22.23V645.62h13.82l-9.75-16.89h5.45l-8.4-14.54h4.62l-9.24-16-9.25,16h4.62l-8.39,14.54h5.44L1813,645.62h13.82V653L1800,640l-43.8,25.83-9.3-16.1h5.45l-8.4-14.54h4.62l-9.24-16-9.25,16h4.62l-8.39,14.54h5.44L1722,666.62h13.82v11.23l-33.06,19.5V683.16h21.89l-15.44-26.76h8.62l-13.3-23h7.32L1697.21,608l-14.65,25.37h7.33l-13.3,23h8.63l-15.45,26.76h21.89v20.73l-25.81,15.22-8.09-14h4.64l-7.16-12.41h3.94L1651.29,679l-7.89,13.67h3.95l-7.17,12.41h4.65l-8.33,14.42h11.8v10L1644,732l-32.72-22.44V699.5h11.8l-8.32-14.42h4.64l-7.16-12.41h3.94L1608.29,659l-7.89,13.67h3.95l-7.17,12.41h4.65L1594.39,698l-23.06-15.82V667.69h14.47L1575.59,650h5.7l-8.79-15.23h4.84L1567.66,618,1558,634.77h4.84L1554,650h5.71l-10,17.33L1523,649l-76.24,49.66v-23.5h21.89l-15.44-26.76h8.62l-13.3-23h7.32L1441.21,600l-14.65,25.37h7.33l-13.3,23h8.63l-15.45,26.76h21.89v30.72l-44.33,28.88V721.69h14.47L1395.59,704h5.7l-8.79-15.23h4.84L1387.66,672,1378,688.77h4.84L1374,704h5.71l-10.22,17.69H1384v17.85L1371,748l-47.72-10.38V728.5h11.8l-8.32-14.42h4.64l-7.16-12.41h3.94L1320.29,688l-7.89,13.67h3.95l-7.17,12.41h4.65l-8.33,14.42h11.8v7.81l-54.12-11.77V711.45h21.69l-15.3-26.5h8.54l-13.17-22.82h7.25L1257.69,637l-14.51,25.13h7.25L1237.26,685h8.55l-5.12,8.86-16.81-29.12h9.92l-15.3-26.5h8.43L1210.08,609l-16.85,29.19h8.42l-15.3,26.5h9.93l-17.78,30.78h25.2v16.12L1178,706l-58,40-38-14.4V715h20.61l-14.54-25.18h8.12l-12.51-21.68h6.89l-13.78-23.87L1063,668.13h6.89l-12.51,21.68h8.12L1051,715h20.61v12.65L1036,714.15V698.49h14.62l-10.31-17.87h5.76l-8.88-15.38h4.88l-9.77-16.94-9.78,16.94h4.89l-8.88,15.38h5.76L1014,698.49h14.62v12.85l-42.37-16.07V671.85h21.4l-15.1-26.15H1001l-13-22.52h7.16l-14.31-24.8-14.32,24.8h7.16l-13,22.52h8.43L954,671.85h21.4v19.3L946,680l-44.46,17V686.73H916l-10.2-17.67h5.7l-8.78-15.2h4.83l-9.67-16.75-9.66,16.75h4.83l-8.78,15.2H890l-10.2,17.67h14.45V699.8l-37.58,14.37V700.25h19L862.24,677h7.49l-11.55-20h6.36l-12.71-22-12.72,22h6.36l-11.55,20h7.49L828,700.25h19v17.6L810,732l-61.24-25.15V683.16h21.89L755.21,656.4h8.62l-13.3-23h7.32L743.21,608l-14.65,25.37h7.33l-13.3,23h8.63l-15.45,26.76h21.89v19.13l-61.12-25.1V664.73H691l-10.2-17.67h5.7l-8.78-15.2h4.83l-9.67-16.75-9.66,16.75h4.83l-8.78,15.2H665l-10.2,17.67h14.45v9.45l-33.28-13.67V645.29H650l-9.92-17.17h5.54l-8.53-14.79h4.69l-9.4-16.28L623,613.33h4.7l-8.53,14.79h5.53l-9.91,17.17h14.05v12.3L586,640l-18.22,5.51v-3.67h10.15l-7.16-12.4h4l-6.16-10.68H572L565.21,607l-6.79,11.76h3.4l-6.17,10.68h4l-7.16,12.4h10.15v5.23l-81.88,24.78V657.16h21.89L487.21,630.4h8.62l-13.3-23h7.32L475.21,582l-14.65,25.37h7.33l-13.3,23h8.63l-15.45,26.76h21.89v18.05L434,686l-19.85-8.73V662.16H429L418.52,644h5.85l-9-15.63h5l-9.94-17.2-9.93,17.2h5l-9,15.63h5.85l-10.48,18.15h14.85V674l-46.28-20.35v-9.23H380l-13.85-24h7.74l-11.93-20.65h6.57L355.37,577l-13.13,22.74h6.56l-11.92,20.65h7.74l-12.12,21-45.35-19.94V610.16H302L291.52,592h5.85l-9-15.63h5l-9.94-17.2-9.93,17.2h5l-9,15.63h5.85l-10.48,18.15h14.85v8l-29.46-13V595H263l-9.05-15.68H259l-7.79-13.5h4.29L246.91,551l-8.58,14.86h4.29l-7.79,13.5h5l-9,15.68h12.83v7.27l-54.88-24.14v-8.33h10.15l-7.16-12.4h4l-6.16-10.68H193L186.21,535l-6.79,11.76h3.4l-6.17,10.68h4l-7.16,12.4h10.15v6.07L152,562l-33.59,27.4L109.52,574h5.85l-9-15.63h5l-9.94-17.2-9.93,17.2h5L87.4,574h5.85L82.77,592.16H97.62v14.2L82.55,618.65,69.12,595.39h7.74L64.93,574.74H71.5L58.37,552,45.24,574.74H51.8L39.88,595.39h7.74l-13.85,24H53.4v23.06L32.81,659.23l-8.73-15.11h5.54l-8.53-14.79h4.69l-9.4-16.28L7,629.33h4.7L3.15,644.12H8.68l-9.91,17.17H12.82v14.25L0,686V820l32.74,12.49v-7H16L27.81,805H21.22L31.39,787.4h-5.6L37,768l11.19,19.4H42.59L52.75,805H46.16L58,825.47H41.23v10.26l62.34,23.79V828.06H70.34l23.44-40.61H80.69l20.18-35H89.76L112,714l22.22,38.5H123.1l20.18,35H130.19l23.44,40.61H120.4v37.88L152,878l29.76-5.54v-5.94H164.34l12.29-21.29h-6.86l10.57-18.32h-5.82l11.65-20.18,11.65,20.18H192l10.57,18.32h-6.86L208,866.52H190.58v4.3l72.63-13.51V814.86h-39l27.51-47.65H236.37l23.68-41H247L273.09,681l26.09,45.18h-13l23.68,41H294.46L322,814.86H283v38.77l66.36-12.34V828.86H327l15.75-27H334l13.56-23.25h-7.47L355,753l14.93,25.61h-7.47L376,801.86h-8.79l15.75,27H360.64v10.32L410,830l43.74,5.88V825.47H437L448.81,805h-6.59l10.17-17.61h-5.6L458,768l11.19,19.4h-5.59L473.75,805h-6.59L479,825.47H462.23V837l68.26,9.18V825.79H502L522.1,791H510.88l17.3-30h-9.53l19.06-33,19,33h-9.53l17.31,30H553.31l20.1,34.81H544.92v22.35l64.58,8.68V844.29H587l15.88-27.5H594l13.67-23.67h-7.53L615.21,767l15,26.08h-7.53l13.67,23.67h-8.87l15.88,27.5h-22.5v14.07l67.21,9v-16.5H659l20.55-35.59H668.07l17.69-30.63H676l19.48-33.75L715,784.67h-9.74l17.69,30.63H711.45L732,850.89H702.88v18.49L767,878l18.48-4.45v-9.86H771L781.21,846h-5.7l8.79-15.23h-4.84L789.14,814l9.69,16.77H794L802.78,846h-5.7l10.21,17.69H792.81v8.09l54.73-13.18V846.66H826l15.2-26.33h-8.49l13.08-22.66h-7.2l14.41-25,14.41,25h-7.2l13.08,22.66H864.8L880,846.66H858.46V856L916.35,842V813.77h-25L909,783.23h-9.85L914.33,757H906l16.71-29,16.72,29H931l15.18,26.28h-9.85L954,813.77H929V839l29-7,68.35,27.58V837.77h-25L1019,807.23h-9.85L1024.33,781H1016l16.71-29,16.72,29H1041l15.18,26.28h-9.85L1064,837.77h-25v26.92L1072,878l26-5.63V861.86h-13.65l9.63-16.68h-5.38l8.29-14.36h-4.56l9.13-15.82,9.13,15.82h-4.56l8.29,14.36H1109l9.63,16.68h-13.65v9l51.12-11.06V833H1131l17.68-30.63h-9.87L1154,776h-8.39l16.77-29,16.76,29h-8.38L1186,802.39h-9.88L1193.81,833h-25.06v24L1206,849l44.07,15.49v-17H1231l13.46-23.31h-7.52l11.59-20.07h-6.38l12.76-22.1,12.75,22.1h-6.37l11.58,20.07h-7.51l13.45,23.31h-19.07v20.37l54.8,19.26v-15H1291l16.61-28.77h-9.28l14.3-24.76h-7.87l15.74-27.27,15.74,27.27h-7.87l14.3,24.76h-9.28L1350,872.18h-23.54v19.16L1408,920l12.38-6.59V877.77h-32.27l22.77-39.43h-12.72l19.6-34H1407L1428.55,767l21.59,37.39h-10.79l19.6,34h-12.72L1469,877.77h-32.27v26.94l54.14-28.82V859.7h-21.76l15.35-26.59h-8.57l13.22-22.9h-7.28L1496.38,785l14.56,25.21h-7.28l13.22,22.9h-8.57l14.79,25.63L1532,854l45.94-1.79V825.33h-28.36l20-34.65h-11.18l17.23-29.83h-9.49l19-32.85,19,32.85h-9.48l17.22,29.83h-11.17l20,34.65H1592.3v26.32l60.92-2.37V832.16H1636l12.15-21h-6.79L1651.82,793h-5.76l11.52-20,11.51,20h-5.76l10.46,18.11H1667l12.14,21h-17.21v16.78L1686,848l51.22,6.79v-9.63H1720l12.15-21h-6.79L1735.82,806h-5.76l11.52-20,11.51,20h-5.76l10.46,18.11H1751l12.14,21h-17.21v10.78l58.18,7.71v-31.1h-34.54l24.37-42.2h-13.61l21-36.33h-11.56l23.11-40,23.1,40h-11.55l21,36.33h-13.6l24.36,42.2h-34.54V866l30.39,4,31.22-16.53V839.16H1866l12.15-21h-6.79L1881.82,800h-5.76l11.52-20,11.51,20h-5.76l10.46,18.11H1897l12.14,21h-17.21v9.7L1920,834V698ZM19.94,669.73v-8.44H30.29Zm43.4-35.4v-15H81.67Zm41.81-34.11v-8.06H115Zm245.25,49-11.06-4.86H350.4Zm901.79,72.91-35.73-7.78v-18.9h23.27l-9.23,16h21.69Zm311.8-45-13.74-9.43H1564Zm41.31,28.34-8.68-6h8.68Zm49,20.48V719.5h10.92Zm88.55-52.22v-7.1h12Z"/>
  </g>
  <path class="cls-7" d="M-26,77S94-22,182,86c0,0,106-44,157,44,0,0,105-8,107,64,0,0,76-20,84,25,0,0,175-33,118,127l-52-26L475,383,300,238,147,362l-46-42L-1,406Z"/>
  <path class="cls-7" d="M1944,88s-86-121-145-20c0,0-83-48-95,24,0,0-78-108-154,26,0,0-122-40-114,56,0,0-118,4-65,96,0,0-87,70.74,7,96.37L1468,288l57,49,218-130,187,100Z"/>
</svg>
