<svg xmlns="http://www.w3.org/2000/svg" width="1920" height="1080" viewBox="0 0 1920 1080"><defs/><defs><style>.cls-2,.cls-4,.cls-7,.cls-8{fill:#fff}.cls-2{opacity:.1}.cls-3,.cls-7{opacity:.57}.cls-5{fill:none}.cls-8{opacity:.64}</style></defs><path d="M-8 717s298 72 498-71 424-144 638-10c289.94 181.55 602-25 807-232s110 797 110 797l-2099-30z" opacity=".08" fill="#fff"/><path class="cls-2" d="M1691 701.23c-235 61.77-203.82-270.42-504-296.44-261.68-22.67-458.18 303.85-615.09 342.92-152.79 38-330.82-207.84-576.91-99V1099h1940V699c-62.27-21.75-143-24.34-244 2.23z"/><path class="cls-2" d="M1669.79 408.37c-87.31-6.4-107.48 132.11-34.88 143 59.36 8.93 146.55-134.81 34.88-143zM421.44 419.08c-42.25 69.08 41.69 232.11 139.34 87.64C629.9 404.44 485.11 315 421.44 419.08z"/><g class="cls-3"><path class="cls-4" d="M1894.18 489.83h-34.91a.93.93 0 01-.86-.56 30.68 30.68 0 00-39.41-16.58.93.93 0 01-1.26-.8 28.41 28.41 0 00-55.14-7.55.91.91 0 01-.59.57.92.92 0 01-.82-.13 29.52 29.52 0 00-46.78 24 .93.93 0 01-.93.93H1684a.93.93 0 010-1.86h28.57a31.45 31.45 0 0131.4-30.48 31.06 31.06 0 0117.31 5.23 30.27 30.27 0 0158.2 8 32.19 32.19 0 0110.66-1.82 32.55 32.55 0 0129.73 19.22h34.31a.93.93 0 110 1.85zM1924.05 489.83h-17.31a.93.93 0 110-1.85h17.31a.93.93 0 110 1.85zM1670.74 489.83h-17.31a.93.93 0 010-1.85h17.31a.93.93 0 110 1.85z"/></g><g class="cls-3"><path class="cls-4" d="M680.29 187.57h-46.41a1.24 1.24 0 01-1.14-.76 40.73 40.73 0 00-52.4-22 1.24 1.24 0 01-1.68-1.07 37.77 37.77 0 00-73.29-10 1.24 1.24 0 01-1.88.59 38.91 38.91 0 00-22.89-7.4 39.33 39.33 0 00-39.29 39.29 1.23 1.23 0 01-1.23 1.23h-39.19a1.23 1.23 0 110-2.46h38a41.81 41.81 0 0141.74-40.53 41.36 41.36 0 0123 7A40.22 40.22 0 01581 161.91a43.24 43.24 0 0153.71 23.19h45.61a1.24 1.24 0 110 2.47zM720 187.57h-23a1.24 1.24 0 010-2.47h23a1.24 1.24 0 010 2.47zM383.27 187.57h-23a1.24 1.24 0 010-2.47h23a1.24 1.24 0 010 2.47z"/></g><g class="cls-3"><path class="cls-4" d="M595.94 516.12h-35a1.1 1.1 0 01-1.1-1.1 35.06 35.06 0 00-55.55-28.49 1.11 1.11 0 01-1 .16 1.14 1.14 0 01-.71-.68 33.73 33.73 0 00-65.45 9 1.07 1.07 0 01-1.18 1 1.1 1.1 0 01-1-1.17 35.93 35.93 0 0169.22-10.9 37.26 37.26 0 0157.84 30h33.92a1.1 1.1 0 010 2.2zM632.22 516.28h-20.55a1.1 1.1 0 110-2.2h20.55a1.1 1.1 0 110 2.2z"/><g><path class="cls-4" d="M325.31 489.65h-35a1.1 1.1 0 010-2.2h33.92a37.26 37.26 0 0157.84-30 35.93 35.93 0 0169.22 10.89 1.1 1.1 0 01-1 1.17 1.08 1.08 0 01-1.18-1 33.73 33.73 0 00-65.46-9 1.06 1.06 0 01-.7.68 1.08 1.08 0 01-1-.15 35.06 35.06 0 00-55.55 28.48 1.1 1.1 0 01-1.09 1.13zM274.57 489.82H254a1.1 1.1 0 010-2.2h20.55a1.1 1.1 0 110 2.2z"/></g></g><g class="cls-3"><path class="cls-4" d="M1765.76 116.35h-35a1.1 1.1 0 01-1.1-1.1 35.06 35.06 0 00-55.55-28.49 1.11 1.11 0 01-1 .16 1.14 1.14 0 01-.71-.68 33.73 33.73 0 00-65.45 9 1.08 1.08 0 01-1.18 1 1.1 1.1 0 01-1-1.17A35.93 35.93 0 011674 84.16a37.26 37.26 0 0157.84 30h33.92a1.1 1.1 0 010 2.2zM1802 116.51h-20.55a1.1 1.1 0 110-2.2H1802a1.1 1.1 0 010 2.2z"/><g><path class="cls-4" d="M1495.13 89.88h-35a1.1 1.1 0 110-2.2h33.92a37.33 37.33 0 0137.28-36.19 36.93 36.93 0 0120.55 6.21 35.93 35.93 0 0169.23 10.89 1.1 1.1 0 01-1 1.17 1.08 1.08 0 01-1.18-1 33.73 33.73 0 00-65.46-9 1.06 1.06 0 01-.7.68 1.08 1.08 0 01-1-.15 35.06 35.06 0 00-55.55 28.48 1.1 1.1 0 01-1.09 1.11zM1444.39 90.05h-20.55a1.1 1.1 0 110-2.2h20.55a1.1 1.1 0 110 2.2z"/></g></g><path class="cls-5" d="M6 1h1920v1080H6z"/><g opacity=".2"><path class="cls-5" d="M1358.76 200.17a9 9 0 106.38 2.65 9 9 0 00-6.38-2.65zM1021.48 337.18a9 9 0 106.39 2.65 9 9 0 00-6.39-2.65zM532.06 244.33a9 9 0 106.38 2.65 9 9 0 00-6.38-2.65zM1527 507.29a9 9 0 106.38 2.64 9 9 0 00-6.38-2.64zM317.89 481.56a9 9 0 106.38 2.64 9 9 0 00-6.38-2.64zM1121.53 4.05a9 9 0 006.38-2.64l.37-.41h-13.5l.37.41a9 9 0 006.38 2.64zM1693.55 104a9 9 0 106.38 2.64 8.94 8.94 0 00-6.38-2.64zM1824.32 91a9 9 0 106.38 2.64 9 9 0 00-6.38-2.64zM180.88 144.28a9 9 0 106.38 2.65 9 9 0 00-6.38-2.65z"/><path class="cls-4" d="M1407.46 428.67h-4.62V424a1.5 1.5 0 10-3 0v4.63h-4.62a1.5 1.5 0 000 3h4.62v4.62a1.5 1.5 0 003 0v-4.62h4.62a1.5 1.5 0 000-3zM225.13 183.5h-4.62v-4.62a1.5 1.5 0 00-3 0v4.62h-4.63a1.5 1.5 0 000 3h4.63v4.62a1.5 1.5 0 003 0v-4.62h4.62a1.5 1.5 0 000-3zM59.7 140.47h-4.62v-4.62a1.5 1.5 0 00-3 0v4.62h-4.63a1.5 1.5 0 000 3h4.63v4.63a1.5 1.5 0 003 0v-4.63h4.62a1.5 1.5 0 100-3zM201.94 531.31h-4.63v-4.62a1.5 1.5 0 00-3 0v4.62h-4.62a1.5 1.5 0 000 3h4.62v4.63a1.5 1.5 0 003 0v-4.63h4.63a1.5 1.5 0 100-3zM91.2 112a1.5 1.5 0 00-1.5-1.5h-4.62v-4.62a1.5 1.5 0 00-3 0v4.62h-4.63a1.5 1.5 0 000 3h4.63v4.63a1.5 1.5 0 003 0v-4.63h4.62a1.5 1.5 0 001.5-1.5zM1572.11 336.67h-4.62V332a1.5 1.5 0 10-3 0v4.63h-4.63a1.5 1.5 0 000 3h4.63v4.62a1.5 1.5 0 003 0v-4.62h4.62a1.5 1.5 0 000-3zM1813.43 577h-4.62v-4.62a1.5 1.5 0 10-3 0V577h-4.63a1.5 1.5 0 000 3h4.63v4.63a1.5 1.5 0 003 0V580h4.62a1.5 1.5 0 000-3zM1584.27 306.33a2.83 2.83 0 102.83 2.83 2.83 2.83 0 00-2.83-2.83zM1833.71 534.62a2.83 2.83 0 102.83 2.83 2.83 2.83 0 00-2.83-2.83z"/><circle class="cls-4" cx="1863.08" cy="578.47" r="11.92" transform="rotate(-16.85 1862.5 578.38)"/><path class="cls-4" d="M91.2 183a2.83 2.83 0 102.8 2.8 2.83 2.83 0 00-2.8-2.8zM187.64 392a2.83 2.83 0 10-2.83-2.83 2.83 2.83 0 002.83 2.83zM36.85 592.15a2.83 2.83 0 102.83 2.85 2.83 2.83 0 00-2.83-2.85zM180.09 400.35a2.83 2.83 0 102.83-2.83 2.83 2.83 0 00-2.83 2.83z"/><circle class="cls-4" cx="1623.22" cy="198.7" r="11.02"/><circle class="cls-4" cx="371.94" cy="411.52" r="11.02" transform="rotate(-67.5 371.94 411.52)"/><path class="cls-4" d="M532.06 240.33a13 13 0 1013 13 13 13 0 00-13-13zm6.38 19.41a9 9 0 112.65-6.38 9 9 0 01-2.65 6.38zM317.89 411.56a13 13 0 1013 13 13 13 0 00-13-13zm6.38 19.4a9 9 0 112.65-6.38 9 9 0 01-2.65 6.42zM180.88 140.28a13 13 0 1013 13 13 13 0 00-13-13zm6.38 19.41a9 9 0 112.64-6.38 9 9 0 01-2.64 6.38zM784.3 97.58h-4.62V93a1.5 1.5 0 00-3 0v4.62h-4.63a1.5 1.5 0 000 3h4.63v4.62a1.5 1.5 0 103 0v-4.62h4.62a1.5 1.5 0 000-3zM1306.35 336.62a2.83 2.83 0 102.83 2.83 2.83 2.83 0 00-2.83-2.83zM1323.52 341.34a2.83 2.83 0 102.83 2.83 2.83 2.83 0 00-2.83-2.83z"/><circle class="cls-4" cx="694.9" cy="323.01" r="11.02"/><path class="cls-4" d="M1279.69 144.12a11 11 0 1011 11 11 11 0 00-11-11zM1358.76 196.17a13 13 0 1013 13 13 13 0 00-13-13zm6.38 19.41a9 9 0 112.64-6.38 9 9 0 01-2.64 6.38zM746.48 124.18a13 13 0 1013 13 13 13 0 00-13-13zm6.39 19.41a9 9 0 112.64-6.38 9 9 0 01-2.64 6.38zM1693.55 100a13 13 0 1013 13 13 13 0 00-13-13zm6.38 19.4a9 9 0 112.64-6.38 9 9 0 01-2.64 6.36zM1824.32 87a13 13 0 1013 13 13 13 0 00-13-13zm6.38 19.41a9 9 0 112.65-6.38 9 9 0 01-2.65 6.33zM1527 503.29a13 13 0 1013 13 13 13 0 00-13-13zm6.38 19.41a9 9 0 112.64-6.39 9 9 0 01-2.67 6.39z"/></g><path class="cls-7" d="M88.59 345.54a.74.74 0 01-.8-.62 25.2 25.2 0 00-9.94 18.36.77.77 0 00.72.82.74.74 0 00.82-.72 23.66 23.66 0 0145.91-6.29.76.76 0 00.49.48.77.77 0 00.69-.11 24.59 24.59 0 0139 20 .78.78 0 00.77.77h24.55a.77.77 0 100-1.54H167a26.19 26.19 0 00-26.15-25.39 25.88 25.88 0 00-14.41 4.36A25.28 25.28 0 00103 339.78a25 25 0 00-13.76 4.12c0 .27 0 .54.07.82a.77.77 0 01-.72.82zM216.2 376.78h-14.42a.78.78 0 000 1.55h14.42a.78.78 0 000-1.55z"/><path class="cls-7" d="M26.34 334.27a24.46 24.46 0 0114.34 4.63.72.72 0 00.68.11.76.76 0 00.49-.48 23.66 23.66 0 0145.91 6.29v.1a.74.74 0 00.8.62.77.77 0 00.71-.82c0-.28 0-.55-.07-.82a25.2 25.2 0 00-48.48-6.82A26.06 26.06 0 006 342.46V345a24.62 24.62 0 0120.34-10.73z"/><path class="cls-8" d="M157.75 1033.09a15.49 15.49 0 002.51 2.88 6.58 6.58 0 008.51 0 15.49 15.49 0 002.51-2.88 11.53 11.53 0 011.81-2.12 3.42 3.42 0 014.25 0 11.54 11.54 0 011.8 2.12 15.21 15.21 0 002.52 2.88 6.49 6.49 0 004.25 1.56h.53a6.38 6.38 0 003.85-1.28q3.24-5.85 6.71-11.52a6.81 6.81 0 00-4.28 1.59 15.74 15.74 0 00-2.62 3 10.83 10.83 0 01-1.72 2 2.8 2.8 0 01-1.78.68h-.85a2.81 2.81 0 01-1.79-.68 10.83 10.83 0 01-1.71-2 15.74 15.74 0 00-2.62-3 6.89 6.89 0 00-8.83 0 15.74 15.74 0 00-2.62 3 11.22 11.22 0 01-1.72 2 3.09 3.09 0 01-3.89 0 10.83 10.83 0 01-1.71-2 16.18 16.18 0 00-2.63-3 6.89 6.89 0 00-8.83 0 15.74 15.74 0 00-2.62 3 10.83 10.83 0 01-1.71 2 3.1 3.1 0 01-3.9 0 10.83 10.83 0 01-1.71-2 15.74 15.74 0 00-2.62-3 6.89 6.89 0 00-8.83 0 15.74 15.74 0 00-2.62 3 10.83 10.83 0 01-1.72 2 3.09 3.09 0 01-3.89 0 10.83 10.83 0 01-1.71-2 16.48 16.48 0 00-2.62-3 6.89 6.89 0 00-8.83 0 15.74 15.74 0 00-2.62 3 11.22 11.22 0 01-1.72 2 3.09 3.09 0 01-3.89 0 10.83 10.83 0 01-1.71-2 15.74 15.74 0 00-2.62-3 6.89 6.89 0 00-8.83 0 15.74 15.74 0 00-2.62 3 10.83 10.83 0 01-1.71 2 2.84 2.84 0 01-1.65.67h-2.3a2.9 2.9 0 01-1.66-.67 10.83 10.83 0 01-1.71-2 15.74 15.74 0 00-2.62-3 7.12 7.12 0 00-2-1.15v6.12a13.87 13.87 0 011.46 1.8A15.57 15.57 0 0073 1036a6.49 6.49 0 004.25 1.56h1.71a6.49 6.49 0 004.25-1.56 15.21 15.21 0 002.52-2.88 11.54 11.54 0 011.8-2.12 3.42 3.42 0 014.25 0 11.53 11.53 0 011.81 2.12 15.21 15.21 0 002.52 2.88 6.56 6.56 0 008.49 0 15.21 15.21 0 002.52-2.88 11.53 11.53 0 011.81-2.12 3.1 3.1 0 012.12-.74 3.15 3.15 0 012.13.74 11.94 11.94 0 011.8 2.12 15.21 15.21 0 002.52 2.88 6.57 6.57 0 008.5 0 16 16 0 002.52-2.88 11.54 11.54 0 011.8-2.12 3.42 3.42 0 014.25 0 11.54 11.54 0 011.8 2.12 15.57 15.57 0 002.52 2.88 6.57 6.57 0 008.5 0 15.21 15.21 0 002.52-2.88 11.54 11.54 0 011.8-2.12 3.42 3.42 0 014.25 0 11.53 11.53 0 011.79 2.09zM1951.38 988.35a9 9 0 00-8.83.37 15.27 15.27 0 00-2.82 2.5 10.13 10.13 0 01-1.84 1.7 3.61 3.61 0 01-2.1.58 3.56 3.56 0 01-2.09-.58 9.83 9.83 0 01-1.85-1.7 14.64 14.64 0 00-2.82-2.5 9 9 0 00-9.51 0 14.86 14.86 0 00-2.81 2.5 10.4 10.4 0 01-1.84 1.69 4.07 4.07 0 01-4.19 0 10.13 10.13 0 01-1.84-1.7 15 15 0 00-2.83-2.5 9 9 0 00-9.5 0 14.33 14.33 0 00-2.82 2.51 10.13 10.13 0 01-1.84 1.7 4.07 4.07 0 01-4.19 0 10.06 10.06 0 01-1.84-1.69 14.64 14.64 0 00-2.82-2.5 9 9 0 00-9.5 0 14.64 14.64 0 00-2.82 2.5 10.47 10.47 0 01-1.84 1.7 4.09 4.09 0 01-4.2 0 10.13 10.13 0 01-1.84-1.7 15 15 0 00-2.82-2.5 9 9 0 00-9.5 0 14.64 14.64 0 00-2.82 2.5 10.48 10.48 0 01-1.85 1.7 3.47 3.47 0 01-1.78.56h-2.47a3.47 3.47 0 01-1.78-.56 10.48 10.48 0 01-1.85-1.7 14.64 14.64 0 00-2.82-2.5 9 9 0 00-9.5 0 14.64 14.64 0 00-2.82 2.5 10.13 10.13 0 01-1.84 1.7 4.09 4.09 0 01-4.2 0 10.13 10.13 0 01-1.84-1.7 15 15 0 00-2.82-2.5 9 9 0 00-9.51 0 15.27 15.27 0 00-2.82 2.5 10.13 10.13 0 01-1.84 1.7 4.07 4.07 0 01-4.19 0 10.48 10.48 0 01-1.85-1.7 14.64 14.64 0 00-2.82-2.5 9 9 0 00-9.5 0 14.64 14.64 0 00-2.82 2.5 9.83 9.83 0 01-1.85 1.7 4.07 4.07 0 01-4.19 0 10.47 10.47 0 01-1.84-1.7 14.64 14.64 0 00-2.82-2.5 9 9 0 00-9.5 0 14.64 14.64 0 00-2.82 2.5 10.14 10.14 0 01-1.85 1.7 4.07 4.07 0 01-4.19 0 10.13 10.13 0 01-1.84-1.7 15.27 15.27 0 00-2.82-2.5 9 9 0 00-9.51 0 15 15 0 00-2.82 2.5 10.13 10.13 0 01-1.84 1.7 4.07 4.07 0 01-4.19 0 10.14 10.14 0 01-1.85-1.7 14.54 14.54 0 00-2.81-2.51 9 9 0 00-9.51 0 14.64 14.64 0 00-2.82 2.5 9.83 9.83 0 01-1.85 1.7 4.06 4.06 0 01-4.18 0 9.83 9.83 0 01-1.85-1.7 14.64 14.64 0 00-2.82-2.5 9 9 0 00-9.5 0 15 15 0 00-2.83 2.5 10.13 10.13 0 01-1.84 1.7 4.07 4.07 0 01-4.19 0 10.13 10.13 0 01-1.84-1.7 15.27 15.27 0 00-2.82-2.5 9 9 0 00-9.51 0 14.64 14.64 0 00-2.82 2.5 10.13 10.13 0 01-1.84 1.7 4.09 4.09 0 01-4.2 0 10.4 10.4 0 01-1.84-1.69 14.64 14.64 0 00-2.82-2.5 9 9 0 00-9.5 0 14.64 14.64 0 00-2.82 2.5 10.14 10.14 0 01-1.85 1.7 4 4 0 01-4.36-.13l-1.4-1-.56-.57a15 15 0 00-2.76-2.46 8.58 8.58 0 00-4.62-1.38h-.09a8.56 8.56 0 00-4.62 1.38 15 15 0 00-2.76 2.46 13.62 13.62 0 01-1.35 1.32l-.36.25-1 .43a3.82 3.82 0 01-1.5.28 3.61 3.61 0 01-2.1-.58 10.13 10.13 0 01-1.84-1.7 15.27 15.27 0 00-2.82-2.5 9 9 0 00-9.51 0 15 15 0 00-2.82 2.5 10.13 10.13 0 01-1.84 1.7 3.61 3.61 0 01-2.1.58 3.56 3.56 0 01-2.09-.58 9.83 9.83 0 01-1.85-1.7 14.64 14.64 0 00-2.82-2.5 9 9 0 00-9.5 0 14.64 14.64 0 00-2.82 2.5 10.14 10.14 0 01-1.85 1.7 4.07 4.07 0 01-4.19 0 10.13 10.13 0 01-1.84-1.7 15.27 15.27 0 00-2.82-2.5 9 9 0 00-9.5 0 15 15 0 00-2.83 2.5 10.13 10.13 0 01-1.84 1.7 4.07 4.07 0 01-4.19 0 10.4 10.4 0 01-1.84-1.69 15.27 15.27 0 00-2.82-2.5 9 9 0 00-9.51 0 14.64 14.64 0 00-2.82 2.5 10.13 10.13 0 01-1.84 1.7 3.57 3.57 0 01-1.7.56h-3a3.56 3.56 0 01-1.69-.56 10.13 10.13 0 01-1.84-1.7 15.27 15.27 0 00-2.82-2.5 9 9 0 00-9.51 0 15 15 0 00-2.82 2.5 10.13 10.13 0 01-1.84 1.7 4.07 4.07 0 01-4.19 0 10.77 10.77 0 01-1.85-1.69 14.61 14.61 0 00-2.82-2.5 9 9 0 00-9.5 0 14.64 14.64 0 00-2.82 2.5 10.14 10.14 0 01-1.85 1.7 4.07 4.07 0 01-4.19 0 10.13 10.13 0 01-1.84-1.7 15.27 15.27 0 00-2.82-2.5 9 9 0 00-9.51 0 15.27 15.27 0 00-2.82 2.5 10.13 10.13 0 01-1.84 1.7 4.07 4.07 0 01-4.19 0 10.48 10.48 0 01-1.85-1.7 14.64 14.64 0 00-2.82-2.5 9 9 0 00-9.5 0 14.64 14.64 0 00-2.82 2.5 10.13 10.13 0 01-1.84 1.7 4.09 4.09 0 01-4.2 0 10.13 10.13 0 01-1.84-1.7 14.64 14.64 0 00-2.82-2.5 9 9 0 00-9.5 0 14.64 14.64 0 00-2.82 2.5 10.48 10.48 0 01-1.85 1.7 3.5 3.5 0 01-1.93.57H1401a3.53 3.53 0 01-1.93-.57 10.13 10.13 0 01-1.84-1.7 14.64 14.64 0 00-2.82-2.5 9 9 0 00-9.5 0 14.64 14.64 0 00-2.82 2.5 10.14 10.14 0 01-1.85 1.7 4.07 4.07 0 01-4.19 0 10.4 10.4 0 01-1.84-1.69 15.27 15.27 0 00-2.82-2.5 9 9 0 00-9.51 0 14.64 14.64 0 00-2.82 2.5 10.4 10.4 0 01-1.84 1.69 3.61 3.61 0 01-2.1.58 3.56 3.56 0 01-2.09-.58 9.83 9.83 0 01-1.85-1.7 14.64 14.64 0 00-2.82-2.5 9 9 0 00-9.5 0 14.33 14.33 0 00-2.82 2.51 10.14 10.14 0 01-1.85 1.7 4.07 4.07 0 01-4.19 0 10.4 10.4 0 01-1.84-1.69 15.27 15.27 0 00-2.82-2.5 9 9 0 00-9.51 0 15.27 15.27 0 00-2.82 2.5 10.13 10.13 0 01-1.84 1.7 4.07 4.07 0 01-4.19 0 10.48 10.48 0 01-1.85-1.7 14.64 14.64 0 00-2.82-2.5 9 9 0 00-9.5 0 14.64 14.64 0 00-2.82 2.5 9.83 9.83 0 01-1.85 1.7 3.55 3.55 0 01-1.92.57l-.45-.09-.46.09a3.55 3.55 0 01-1.92-.57 10.14 10.14 0 01-1.85-1.7 14.64 14.64 0 00-2.82-2.5 9 9 0 00-9.5 0 14.64 14.64 0 00-2.82 2.5 10.14 10.14 0 01-1.85 1.7 4.07 4.07 0 01-4.19 0 10.4 10.4 0 01-1.84-1.69 15 15 0 00-2.82-2.5 9 9 0 00-9.51 0 14.63 14.63 0 00-2.82 2.51 10.13 10.13 0 01-1.84 1.7 3.61 3.61 0 01-2.1.58 3.56 3.56 0 01-2.09-.58 10.48 10.48 0 01-1.85-1.7 14.64 14.64 0 00-2.82-2.5 9 9 0 00-9.5 0 14.64 14.64 0 00-2.82 2.5 10.14 10.14 0 01-1.85 1.7 4.07 4.07 0 01-4.19 0 10.4 10.4 0 01-1.84-1.69 15.27 15.27 0 00-2.82-2.5 9 9 0 00-9.5 0 15 15 0 00-2.83 2.5 10.13 10.13 0 01-1.84 1.7 4.07 4.07 0 01-4.19 0 10.13 10.13 0 01-1.84-1.7 15.27 15.27 0 00-2.82-2.5 9 9 0 00-9.51 0 14.64 14.64 0 00-2.82 2.5 10.13 10.13 0 01-1.84 1.7 3.51 3.51 0 01-1.78.56h-2.48a3.51 3.51 0 01-1.78-.56 10.13 10.13 0 01-1.84-1.7 14.64 14.64 0 00-2.82-2.5 9 9 0 00-9.5 0 14.64 14.64 0 00-2.82 2.5 10.48 10.48 0 01-1.85 1.7 4.07 4.07 0 01-4.19 0 10.4 10.4 0 01-1.84-1.69 15 15 0 00-2.83-2.5 9 9 0 00-9.5 0 14.64 14.64 0 00-2.82 2.5 10.26 10.26 0 01-1.82 1.68 4.09 4.09 0 01-4.2 0 10.13 10.13 0 01-1.84-1.7 14.64 14.64 0 00-2.82-2.5 9 9 0 00-9.51 0 14.86 14.86 0 00-2.81 2.5 10.48 10.48 0 01-1.85 1.7 4.07 4.07 0 01-4.19 0 10.4 10.4 0 01-1.84-1.69 15.27 15.27 0 00-2.82-2.5 9 9 0 00-9.51 0 15.27 15.27 0 00-2.82 2.5 10.13 10.13 0 01-1.84 1.7 4.07 4.07 0 01-4.19 0 10.48 10.48 0 01-1.85-1.7 14.64 14.64 0 00-2.82-2.5 9 9 0 00-9.5 0 14.64 14.64 0 00-2.82 2.5 9.83 9.83 0 01-1.85 1.7 3.56 3.56 0 01-2.09.58 3.61 3.61 0 01-2.1-.58 10.13 10.13 0 01-1.84-1.7 14.64 14.64 0 00-2.82-2.5 9 9 0 00-9.5 0 15 15 0 00-2.83 2.5 10.13 10.13 0 01-1.84 1.7 4.07 4.07 0 01-4.19 0 10.13 10.13 0 01-1.84-1.7 15.27 15.27 0 00-2.82-2.5 9 9 0 00-9.51 0 14.64 14.64 0 00-2.82 2.5 10.13 10.13 0 01-1.84 1.7 3.61 3.61 0 01-2.1.58 3.56 3.56 0 01-2.09-.58 9.83 9.83 0 01-1.85-1.7 14.64 14.64 0 00-2.82-2.5 9 9 0 00-9.5 0 14.64 14.64 0 00-2.82 2.5 10.48 10.48 0 01-1.85 1.7 4.07 4.07 0 01-4.19 0 10.13 10.13 0 01-1.84-1.7 15.27 15.27 0 00-2.82-2.5 9 9 0 00-9.51 0 15.27 15.27 0 00-2.82 2.5 10.13 10.13 0 01-1.84 1.7 3.61 3.61 0 01-2.1.58 3.57 3.57 0 01-1.72-.37 5.94 5.94 0 01-1.38-1l-3.9-2.5a12.2 12.2 0 00-.86-.67 8.49 8.49 0 00-4.13-1.49h-.43a8.45 8.45 0 00-4.12 1.49 10.12 10.12 0 00-1.26 1 11.43 11.43 0 01-2 1.51l-2.4 1.41a3.57 3.57 0 01-2.19.65 3.61 3.61 0 01-2.1-.58 10.13 10.13 0 01-1.84-1.7 15.27 15.27 0 00-2.82-2.5 9 9 0 00-9.51 0 14.64 14.64 0 00-2.82 2.5 10.13 10.13 0 01-1.84 1.7 3.61 3.61 0 01-2.1.58 3.56 3.56 0 01-2.09-.58 9.83 9.83 0 01-1.85-1.7 14.64 14.64 0 00-2.82-2.5 9 9 0 00-9.5 0 14.64 14.64 0 00-2.82 2.5 10.14 10.14 0 01-1.85 1.7 4.07 4.07 0 01-4.19 0 10.13 10.13 0 01-1.84-1.7 15.27 15.27 0 00-2.82-2.5 9 9 0 00-9.5 0 15 15 0 00-2.83 2.5 10.13 10.13 0 01-1.84 1.7 4.07 4.07 0 01-4.19 0 10.13 10.13 0 01-1.84-1.7 15 15 0 00-2.83-2.5 9 9 0 00-9.5 0 14.64 14.64 0 00-2.82 2.5 10.13 10.13 0 01-1.84 1.7 3.57 3.57 0 01-1.7.56h-3a3.56 3.56 0 01-1.69-.56 10.13 10.13 0 01-1.84-1.7 15.27 15.27 0 00-2.82-2.5 9 9 0 00-9.51 0 15 15 0 00-2.82 2.5 10.13 10.13 0 01-1.84 1.7 3.61 3.61 0 01-2.1.58 3.56 3.56 0 01-2.09-.58 10.41 10.41 0 01-1.85-1.69 14.64 14.64 0 00-2.82-2.5 9 9 0 00-9.5 0 15 15 0 00-2.83 2.5 10.4 10.4 0 01-1.84 1.69 4.07 4.07 0 01-4.19 0 10.13 10.13 0 01-1.84-1.7 15.27 15.27 0 00-2.82-2.5 9 9 0 00-9.51 0 14.64 14.64 0 00-2.82 2.5 10.13 10.13 0 01-1.84 1.7 3.61 3.61 0 01-2.1.58 3.56 3.56 0 01-2.09-.58 10.41 10.41 0 01-1.85-1.69 14.64 14.64 0 00-2.82-2.5 9 9 0 00-9.5 0 14.64 14.64 0 00-2.82 2.5 9.83 9.83 0 01-1.85 1.7 3.56 3.56 0 01-2.09.58 3.61 3.61 0 01-2.1-.58 10.13 10.13 0 01-1.84-1.7 14.64 14.64 0 00-2.82-2.5 9 9 0 00-9.51 0 15.27 15.27 0 00-2.82 2.5 10.13 10.13 0 01-1.84 1.7 3.5 3.5 0 01-1.93.57h-1.13a3.53 3.53 0 01-1.93-.57 10.4 10.4 0 01-1.84-1.69 14.64 14.64 0 00-2.82-2.5 9 9 0 00-9.51 0 14.86 14.86 0 00-2.81 2.5 10.48 10.48 0 01-1.85 1.7 4.07 4.07 0 01-4.19 0 10.13 10.13 0 01-1.84-1.7l-.11-.12.11.12a14.32 14.32 0 00-2.82-2.5 9 9 0 00-9.5 0 14.64 14.64 0 00-2.82 2.5 10.4 10.4 0 01-1.84 1.69 4.09 4.09 0 01-4.2 0 10.13 10.13 0 01-1.84-1.7l-.11-.12.11.12a14.92 14.92 0 00-2.82-2.5 9 9 0 00-9.51 0 15.27 15.27 0 00-2.82 2.5 10.13 10.13 0 01-1.84 1.7 4.07 4.07 0 01-4.19 0 10.13 10.13 0 01-1.84-1.7 15.27 15.27 0 00-2.82-2.5 9 9 0 00-9.51 0 15.27 15.27 0 00-2.82 2.5 10.13 10.13 0 01-1.84 1.7 4.07 4.07 0 01-4.19 0 10.4 10.4 0 01-1.84-1.69 14.64 14.64 0 00-2.82-2.5 9 9 0 00-9.5 0 14.64 14.64 0 00-2.82 2.5 9.83 9.83 0 01-1.85 1.7 3.55 3.55 0 01-1.92.57h-.91a3.55 3.55 0 01-1.92-.57 10.08 10.08 0 01-1.85-1.69 14.64 14.64 0 00-2.82-2.5 9 9 0 00-9.5 0 14.64 14.64 0 00-2.82 2.5 10.14 10.14 0 01-1.85 1.7 4.07 4.07 0 01-4.19 0 10.13 10.13 0 01-1.84-1.7 15.27 15.27 0 00-2.82-2.5 9 9 0 00-9.51 0 14.64 14.64 0 00-2.82 2.5 10.4 10.4 0 01-1.84 1.69 3.61 3.61 0 01-2.1.58 3.56 3.56 0 01-2.09-.58 9.83 9.83 0 01-1.85-1.7 14.64 14.64 0 00-2.82-2.5 9 9 0 00-9.5 0 14.64 14.64 0 00-2.82 2.5 10.14 10.14 0 01-1.85 1.7 4.07 4.07 0 01-4.19 0 10.4 10.4 0 01-1.84-1.69 15.27 15.27 0 00-2.82-2.5 9 9 0 00-9.51 0 15.27 15.27 0 00-2.82 2.5 10.13 10.13 0 01-1.84 1.7 4.07 4.07 0 01-4.19 0 10.4 10.4 0 01-1.84-1.69 15 15 0 00-2.83-2.5 9 9 0 00-9.5 0 14.64 14.64 0 00-2.82 2.5 10.13 10.13 0 01-1.84 1.7 3.51 3.51 0 01-1.78.56h-2.48a3.51 3.51 0 01-1.78-.56 10.13 10.13 0 01-1.84-1.7 14.64 14.64 0 00-2.82-2.5 9 9 0 00-9.51 0 15.27 15.27 0 00-2.82 2.5 10.13 10.13 0 01-1.84 1.7 4.07 4.07 0 01-4.19 0 10.4 10.4 0 01-1.84-1.69 15 15 0 00-2.83-2.5 9 9 0 00-9.5 0 14.64 14.64 0 00-2.82 2.5 10.13 10.13 0 01-1.84 1.7 4.09 4.09 0 01-4.2 0 10.13 10.13 0 01-1.84-1.7 14.64 14.64 0 00-2.82-2.5 9 9 0 00-9.51 0 15.27 15.27 0 00-2.82 2.5 10.13 10.13 0 01-1.84 1.7 4.07 4.07 0 01-4.19 0 10.13 10.13 0 01-1.84-1.7 15.27 15.27 0 00-2.82-2.5 9 9 0 00-9.51 0 15 15 0 00-2.82 2.5 10.13 10.13 0 01-1.84 1.7 4.07 4.07 0 01-4.19 0 10.48 10.48 0 01-1.85-1.7 14.64 14.64 0 00-2.82-2.5 9 9 0 00-9.5 0 14.64 14.64 0 00-2.82 2.5 9.83 9.83 0 01-1.85 1.7 4.07 4.07 0 01-4.19 0 10.13 10.13 0 01-1.84-1.7 14.64 14.64 0 00-2.82-2.5 9 9 0 00-9.51 0 15.27 15.27 0 00-2.82 2.5 10.13 10.13 0 01-1.84 1.7 4.07 4.07 0 01-4.19 0 10.13 10.13 0 01-1.84-1.7 15.27 15.27 0 00-2.82-2.5 9 9 0 00-9.51 0 14.64 14.64 0 00-2.82 2.5 9.83 9.83 0 01-1.85 1.7 3.56 3.56 0 01-2.09.58 3.61 3.61 0 01-2.1-.58 10.13 10.13 0 01-1.84-1.7 14.64 14.64 0 00-2.82-2.5 9 9 0 00-9.5 0 14.64 14.64 0 00-2.82 2.5 10.48 10.48 0 01-1.85 1.7 4.07 4.07 0 01-4.19 0 10.13 10.13 0 01-1.84-1.7 15.27 15.27 0 00-2.82-2.5 9 9 0 00-9.51 0 14.64 14.64 0 00-2.82 2.5 10.13 10.13 0 01-1.84 1.7 3.61 3.61 0 01-2.1.58 3.55 3.55 0 01-2.26-.71l-1.41-1-.55-.56a15.07 15.07 0 00-2.77-2.46 8.56 8.56 0 00-4.62-1.38h-.09a8.58 8.58 0 00-4.62 1.38 15 15 0 00-2.76 2.46 16 16 0 01-1.34 1.31l-.36.25-1 .43a3.87 3.87 0 01-1.51.28 3.58 3.58 0 01-2.09-.58 10.14 10.14 0 01-1.85-1.7 14.64 14.64 0 00-2.82-2.5 9 9 0 00-9.5 0 14.64 14.64 0 00-2.82 2.5 10.14 10.14 0 01-1.85 1.7 3.56 3.56 0 01-2.09.58 3.61 3.61 0 01-2.1-.58 10.4 10.4 0 01-1.84-1.69 15.27 15.27 0 00-2.82-2.5 9 9 0 00-9.51 0 15.27 15.27 0 00-2.82 2.5 10.13 10.13 0 01-1.84 1.7 4.07 4.07 0 01-4.19 0 10.13 10.13 0 01-1.84-1.7 14.64 14.64 0 00-2.82-2.5 9 9 0 00-9.5 0 14.64 14.64 0 00-2.82 2.5 10.13 10.13 0 01-1.84 1.7 3.61 3.61 0 01-2.1.58 3.56 3.56 0 01-2.09-.58 9.83 9.83 0 01-1.85-1.7 14.64 14.64 0 00-2.82-2.5 9 9 0 00-9.5 0 14.64 14.64 0 00-2.82 2.5 10.14 10.14 0 01-1.85 1.7 3.53 3.53 0 01-1.69.56h-3a3.53 3.53 0 01-1.69-.56 10.14 10.14 0 01-1.85-1.7 14.64 14.64 0 00-2.82-2.5 9 9 0 00-9.5 0 14.64 14.64 0 00-2.82 2.5 10.14 10.14 0 01-1.85 1.7 4.07 4.07 0 01-4.19 0 10.4 10.4 0 01-1.84-1.69 15.27 15.27 0 00-2.82-2.5 9 9 0 00-9.51 0 15 15 0 00-2.82 2.5 10.13 10.13 0 01-1.84 1.7 3.61 3.61 0 01-2.1.58 3.56 3.56 0 01-2.09-.58 9.83 9.83 0 01-1.85-1.7 14.64 14.64 0 00-2.82-2.5 9 9 0 00-9.5 0 14.64 14.64 0 00-2.82 2.5 10.14 10.14 0 01-1.85 1.7 4.07 4.07 0 01-4.19 0 10.13 10.13 0 01-1.84-1.7 15 15 0 00-2.82-2.5 9 9 0 00-9.5 0 15 15 0 00-2.83 2.5 10.13 10.13 0 01-1.84 1.7 4.07 4.07 0 01-4.19 0 10.13 10.13 0 01-1.84-1.7 15 15 0 00-2.83-2.5 9 9 0 00-9.5 0 14.64 14.64 0 00-2.82 2.5 10.13 10.13 0 01-1.84 1.7 3.53 3.53 0 01-1.93.57l-.57-.16-.56.16a3.5 3.5 0 01-1.93-.57 10.13 10.13 0 01-1.84-1.7 15.27 15.27 0 00-2.82-2.5 9 9 0 00-9.51 0 15 15 0 00-2.82 2.5 10.13 10.13 0 01-1.84 1.7 3.61 3.61 0 01-2.1.58 3.56 3.56 0 01-2.09-.58 10.41 10.41 0 01-1.85-1.69 14.64 14.64 0 00-2.82-2.5 8.62 8.62 0 00-4.75-1.35 8.62 8.62 0 00-4.85 1.16 15 15 0 00-2.83 2.5 10.4 10.4 0 01-1.84 1.69 3.58 3.58 0 01-2.09.58 3.59 3.59 0 01-2.1-.58 10.13 10.13 0 01-1.84-1.7 15 15 0 00-2.83-2.5 6 6 0 00-.66-.37Q-2 990.18-3.73 992a4 4 0 011.73.59 11.17 11.17 0 011.94 1.81 14.47 14.47 0 002.71 2.42 8.31 8.31 0 004.58 1.31 8.3 8.3 0 004.57-1.31 14.47 14.47 0 002.71-2.42 11.17 11.17 0 011.94-1.78 4 4 0 012.29-.62 4 4 0 012.29.62A11.17 11.17 0 0123 994.4a14.47 14.47 0 002.71 2.42 8.64 8.64 0 009.15 0 14.8 14.8 0 002.71-2.42 10.82 10.82 0 011.94-1.78 4.52 4.52 0 014.57 0A11.17 11.17 0 0146 994.4a14.47 14.47 0 002.71 2.42 8.3 8.3 0 004.57 1.31 2.41 2.41 0 00.4 0 2.41 2.41 0 00.4 0 8.34 8.34 0 004.58-1.31 14.8 14.8 0 002.71-2.42 10.82 10.82 0 011.94-1.78 4.52 4.52 0 014.57 0 11.17 11.17 0 011.94 1.78 14.47 14.47 0 002.71 2.42 8.64 8.64 0 009.15 0 14.47 14.47 0 002.71-2.42 11.17 11.17 0 011.94-1.78 4.52 4.52 0 014.57 0 11.17 11.17 0 011.94 1.78 14.8 14.8 0 002.71 2.42 8.64 8.64 0 009.15 0 14.47 14.47 0 002.71-2.42 11.17 11.17 0 011.94-1.78 4.54 4.54 0 014.58 0 11.17 11.17 0 011.94 1.78 14.47 14.47 0 002.71 2.42 8.64 8.64 0 009.15 0 14.8 14.8 0 002.71-2.42 11.17 11.17 0 011.94-1.78 4.52 4.52 0 014.57 0 11.17 11.17 0 011.94 1.78 14.8 14.8 0 002.71 2.42 8.64 8.64 0 009.15 0 14.47 14.47 0 002.71-2.42 11.17 11.17 0 011.94-1.78 4.54 4.54 0 014.58 0 11.17 11.17 0 011.94 1.78 14.47 14.47 0 002.71 2.42 8.3 8.3 0 004.57 1.31 3.51 3.51 0 001.09-.19 3.63 3.63 0 001.1.19 8.3 8.3 0 004.57-1.31 14.47 14.47 0 002.71-2.42 11.17 11.17 0 011.94-1.78 4.54 4.54 0 014.58 0 11.17 11.17 0 011.94 1.78 14.47 14.47 0 002.71 2.42 8.63 8.63 0 009.14 0 14.47 14.47 0 002.71-2.42 11.17 11.17 0 011.94-1.78 4.54 4.54 0 014.58 0 11.17 11.17 0 011.94 1.78 14.47 14.47 0 002.71 2.42 8.64 8.64 0 009.15 0 14.8 14.8 0 002.71-2.42 11.17 11.17 0 011.94-1.78 4.52 4.52 0 014.57 0 11.17 11.17 0 011.94 1.78 14.8 14.8 0 002.71 2.42 8.64 8.64 0 009.15 0 14.47 14.47 0 002.71-2.42 11.17 11.17 0 011.94-1.78 4.54 4.54 0 014.58 0 11.17 11.17 0 011.94 1.78 14.47 14.47 0 002.71 2.42 8.3 8.3 0 004.57 1.31h.08l3.06-.48a8.57 8.57 0 002.65-1.52 18.77 18.77 0 001.79-1.73 11.2 11.2 0 011.91-1.75 4 4 0 014.36 0 10.82 10.82 0 011.9 1.75l.12.12a11.5 11.5 0 004.7 3l.57.19a6.46 6.46 0 002.17.4 8.34 8.34 0 004.58-1.31 14.8 14.8 0 002.71-2.42 10.82 10.82 0 011.94-1.78 4.52 4.52 0 014.57 0 11.17 11.17 0 011.94 1.78 14.47 14.47 0 002.71 2.42 8.64 8.64 0 009.15 0 14.47 14.47 0 002.71-2.42 11.17 11.17 0 011.94-1.78 4.54 4.54 0 014.58 0 11.16 11.16 0 011.93 1.78 14.89 14.89 0 002.72 2.42 8.63 8.63 0 009.14 0 14.47 14.47 0 002.71-2.42 11.17 11.17 0 011.94-1.78 4.54 4.54 0 014.58 0 11.17 11.17 0 011.94 1.78 14.47 14.47 0 002.71 2.42 8.64 8.64 0 009.15 0 14.47 14.47 0 002.71-2.42 11.17 11.17 0 011.94-1.78 4.52 4.52 0 014.57 0 10.82 10.82 0 011.94 1.78 15.14 15.14 0 002.71 2.42 8.64 8.64 0 009.15 0 14.47 14.47 0 002.71-2.42 11.17 11.17 0 011.94-1.78 4.54 4.54 0 014.58 0 11.17 11.17 0 011.94 1.78 14.47 14.47 0 002.71 2.42 8.64 8.64 0 009.15 0 14.8 14.8 0 002.71-2.42 11.17 11.17 0 011.94-1.78 4.52 4.52 0 014.57 0 11.17 11.17 0 011.94 1.78 14.47 14.47 0 002.71 2.42 8.64 8.64 0 009.15 0 14.47 14.47 0 002.71-2.42 11.17 11.17 0 011.94-1.78 4.52 4.52 0 014.57 0 10.82 10.82 0 011.94 1.78 14.8 14.8 0 002.71 2.42 8.64 8.64 0 009.15 0 14.47 14.47 0 002.71-2.42 11.54 11.54 0 011.94-1.78 4.54 4.54 0 014.58 0 11.17 11.17 0 011.94 1.78 14.36 14.36 0 002.7 2.41 8.64 8.64 0 009.15 0 14.47 14.47 0 002.71-2.42 11.17 11.17 0 011.94-1.78 4.54 4.54 0 014.58 0 11.16 11.16 0 011.93 1.78 14.8 14.8 0 002.71 2.42 8.34 8.34 0 004.58 1.31 3.93 3.93 0 00.92-.13 3.85 3.85 0 00.92.13 8.3 8.3 0 004.57-1.31 14.89 14.89 0 002.72-2.42 11.16 11.16 0 011.93-1.78 4.54 4.54 0 014.58 0 11.17 11.17 0 011.94 1.78 14.47 14.47 0 002.71 2.42 8.64 8.64 0 009.15 0 14.8 14.8 0 002.71-2.42 11.17 11.17 0 011.94-1.78 4.52 4.52 0 014.57 0 11.17 11.17 0 011.94 1.78 14.8 14.8 0 002.71 2.42 8.64 8.64 0 009.15 0 14.47 14.47 0 002.71-2.42 10.78 10.78 0 011.94-1.78 4.54 4.54 0 014.58 0 11.17 11.17 0 011.94 1.78 14.47 14.47 0 002.71 2.42 8.64 8.64 0 009.15 0 14.8 14.8 0 002.71-2.42 10.46 10.46 0 011.94-1.78 4.52 4.52 0 014.57 0 11.17 11.17 0 011.94 1.78 14.8 14.8 0 002.71 2.42 8.64 8.64 0 009.15 0 14.47 14.47 0 002.71-2.42 11.17 11.17 0 011.94-1.78 4.54 4.54 0 014.58 0 11.17 11.17 0 011.94 1.78 14.47 14.47 0 002.71 2.42 8.3 8.3 0 004.57 1.31h.57a8.3 8.3 0 004.57-1.31 14.47 14.47 0 002.71-2.42 11.17 11.17 0 011.94-1.78 4.54 4.54 0 014.58 0 11.17 11.17 0 011.94 1.78 14.47 14.47 0 002.71 2.42 8.64 8.64 0 009.15 0 14.8 14.8 0 002.71-2.42 11.17 11.17 0 011.94-1.78 4.52 4.52 0 014.57 0 11.17 11.17 0 011.94 1.78 14.47 14.47 0 002.71 2.42 8.64 8.64 0 009.15 0 14.47 14.47 0 002.71-2.42 10.78 10.78 0 011.94-1.78 4.54 4.54 0 014.58 0 11.54 11.54 0 011.94 1.78 14.45 14.45 0 002.68 2.38 8.64 8.64 0 009.15 0 15.14 15.14 0 002.71-2.42 10.77 10.77 0 011.93-1.78 4.54 4.54 0 014.58 0 11.17 11.17 0 011.94 1.78 14.47 14.47 0 002.71 2.42 8.64 8.64 0 009.15 0 14.47 14.47 0 002.71-2.42 11.17 11.17 0 011.94-1.78 4.54 4.54 0 014.58 0 11.16 11.16 0 011.93 1.78 14.8 14.8 0 002.71 2.42 8.34 8.34 0 004.58 1.31 2.41 2.41 0 00.4 0 2.33 2.33 0 00.4 0 8.3 8.3 0 004.57-1.31 14.47 14.47 0 002.71-2.42 11.17 11.17 0 011.94-1.78 4.52 4.52 0 014.57 0 10.84 10.84 0 012 1.78 14.47 14.47 0 002.71 2.42 8.63 8.63 0 009.14 0 14.47 14.47 0 002.71-2.42 11.17 11.17 0 011.94-1.78 4.54 4.54 0 014.58 0 11.17 11.17 0 011.94 1.78 14.47 14.47 0 002.71 2.42 8.63 8.63 0 009.14 0 14.89 14.89 0 002.72-2.42 10.82 10.82 0 011.94-1.78 4.52 4.52 0 014.57 0 11.17 11.17 0 011.94 1.78 14.47 14.47 0 002.71 2.42 8.64 8.64 0 009.15 0 14.47 14.47 0 002.71-2.42 11.17 11.17 0 011.94-1.78 4.54 4.54 0 014.58 0 11.17 11.17 0 011.94 1.78 14.47 14.47 0 002.71 2.42 8.64 8.64 0 009.15 0 14.8 14.8 0 002.71-2.42 11.17 11.17 0 011.94-1.78 4.52 4.52 0 014.57 0 11.17 11.17 0 011.94 1.78 14.47 14.47 0 002.71 2.42 8.27 8.27 0 004.56 1.31h2.21a8.27 8.27 0 004.56-1.31 14.89 14.89 0 002.66-2.35 10.82 10.82 0 011.94-1.78 4.52 4.52 0 014.57 0 11.17 11.17 0 011.94 1.78v.05a14.67 14.67 0 002.67 2.37 8.64 8.64 0 009.15 0 14.8 14.8 0 002.71-2.42 11.17 11.17 0 011.94-1.78 4.52 4.52 0 014.57 0 11.17 11.17 0 011.94 1.78 14.36 14.36 0 002.67 2.38 8.64 8.64 0 009.15 0 14.47 14.47 0 002.71-2.42 11.17 11.17 0 011.94-1.78 4.54 4.54 0 014.58 0 11.17 11.17 0 011.94 1.78 14.47 14.47 0 002.71 2.42 8.64 8.64 0 009.15 0 14.8 14.8 0 002.71-2.42 10.82 10.82 0 011.94-1.78 4.52 4.52 0 014.57 0 11.17 11.17 0 011.94 1.78 14.8 14.8 0 002.71 2.42 8.31 8.31 0 004.58 1.31A7.53 7.53 0 00938 998l1.8-.23a7.64 7.64 0 003.91-1.68 18.77 18.77 0 001.79-1.73 11.86 11.86 0 011.79-1.66 2.61 2.61 0 013.49 0 11.4 11.4 0 011.79 1.66 14.85 14.85 0 002.75 2.44l3.53.95a8.75 8.75 0 002.4.34 8.34 8.34 0 004.58-1.31 14.8 14.8 0 002.71-2.42 11.17 11.17 0 011.94-1.78 4.52 4.52 0 014.57 0 11.17 11.17 0 011.95 1.82 14.8 14.8 0 002.71 2.42 8.64 8.64 0 009.15 0 14.47 14.47 0 002.71-2.42 11.17 11.17 0 011.94-1.78 4.54 4.54 0 014.58 0 11.17 11.17 0 011.94 1.78 14.47 14.47 0 002.71 2.42 8.64 8.64 0 009.15 0 14.8 14.8 0 002.71-2.42 11.54 11.54 0 011.94-1.78 4.54 4.54 0 014.58 0 11.17 11.17 0 011.94 1.78 14.8 14.8 0 002.71 2.42 8.64 8.64 0 009.15 0 14.47 14.47 0 002.71-2.42 11.17 11.17 0 011.94-1.78 4.54 4.54 0 014.58 0 11.16 11.16 0 011.93 1.78 14.89 14.89 0 002.72 2.42 8.63 8.63 0 009.14 0 14.47 14.47 0 002.71-2.42 11.16 11.16 0 011.93-1.78 4.54 4.54 0 014.58 0 11.17 11.17 0 011.94 1.78 14.32 14.32 0 002.67 2.38 8.64 8.64 0 009.15 0 14.8 14.8 0 002.71-2.42 11.17 11.17 0 011.94-1.78 4.52 4.52 0 014.57 0 11.17 11.17 0 011.94 1.78 14.47 14.47 0 002.71 2.42 8.64 8.64 0 009.15 0 14.47 14.47 0 002.71-2.42 10.78 10.78 0 011.94-1.78 4.54 4.54 0 014.58 0 11.54 11.54 0 011.94 1.78 14.89 14.89 0 002.72 2.42 8.64 8.64 0 009.15 0 14.8 14.8 0 002.71-2.42 11.16 11.16 0 011.93-1.78 4.54 4.54 0 014.58 0 11.17 11.17 0 011.94 1.78 14.8 14.8 0 002.71 2.42 8.64 8.64 0 009.15 0 14.47 14.47 0 002.71-2.42 11.17 11.17 0 011.94-1.78 4.54 4.54 0 014.58 0 10.81 10.81 0 011.93 1.78 14.8 14.8 0 002.71 2.42 8.33 8.33 0 004.57 1.31h1.86a8.33 8.33 0 004.57-1.31 14.8 14.8 0 002.71-2.42 10.82 10.82 0 011.94-1.78 4.52 4.52 0 014.57 0 11.17 11.17 0 011.94 1.78 14.47 14.47 0 002.71 2.42 8.64 8.64 0 009.15 0 14.47 14.47 0 002.71-2.42 11.17 11.17 0 011.94-1.78 4.52 4.52 0 014.57 0 11.19 11.19 0 011.95 1.78 14.8 14.8 0 002.71 2.42 8.64 8.64 0 009.15 0 14.47 14.47 0 002.71-2.42 11.17 11.17 0 011.94-1.78 4.54 4.54 0 014.58 0 11.17 11.17 0 011.94 1.78 14.47 14.47 0 002.71 2.42 8.64 8.64 0 009.15 0 14.8 14.8 0 002.71-2.42 10.82 10.82 0 011.94-1.78 4.52 4.52 0 014.57 0 11.17 11.17 0 011.94 1.78 14.8 14.8 0 002.71 2.42 8.64 8.64 0 009.15 0 14.47 14.47 0 002.71-2.42 11.17 11.17 0 011.94-1.78 4.54 4.54 0 014.58 0 11.17 11.17 0 011.94 1.78 14.47 14.47 0 002.71 2.42 8.3 8.3 0 004.57 1.31h.57a8.3 8.3 0 004.57-1.31 14.47 14.47 0 002.71-2.42 11.17 11.17 0 011.94-1.78 4.54 4.54 0 014.58 0 11.17 11.17 0 011.94 1.78 14.47 14.47 0 002.71 2.42 8.64 8.64 0 009.15 0 14.8 14.8 0 002.71-2.42 11.17 11.17 0 011.94-1.78 4.52 4.52 0 014.57 0 11.17 11.17 0 011.94 1.78 14.47 14.47 0 002.71 2.42 8.64 8.64 0 009.15 0 14.47 14.47 0 002.71-2.42 11.17 11.17 0 011.94-1.78 4.54 4.54 0 014.58 0 11.17 11.17 0 011.94 1.78 14.47 14.47 0 002.71 2.42 8.64 8.64 0 009.15 0 14.8 14.8 0 002.71-2.42 11.54 11.54 0 011.94-1.78 4.54 4.54 0 014.58 0 11.17 11.17 0 011.94 1.78 14.8 14.8 0 002.71 2.42 8.64 8.64 0 009.15 0 14.47 14.47 0 002.71-2.42 11.17 11.17 0 011.94-1.78 4.54 4.54 0 014.58 0 11.17 11.17 0 011.94 1.78 14.47 14.47 0 002.71 2.42 8.3 8.3 0 004.57 1.31 2.68 2.68 0 01.8 0 8.3 8.3 0 004.57-1.31 14.47 14.47 0 002.71-2.42 11.17 11.17 0 011.94-1.78 4.54 4.54 0 014.58 0 11.17 11.17 0 011.94 1.78 14.47 14.47 0 002.71 2.42 8.63 8.63 0 009.14 0 14.47 14.47 0 002.71-2.42 11.17 11.17 0 011.94-1.78 4.54 4.54 0 014.58 0 11.17 11.17 0 011.94 1.78 14.47 14.47 0 002.71 2.42 8.64 8.64 0 009.15 0 15.14 15.14 0 002.71-2.42 11.17 11.17 0 011.94-1.78 4.52 4.52 0 014.57 0 11.17 11.17 0 011.94 1.78 14.8 14.8 0 002.71 2.42 8.64 8.64 0 009.15 0 14.47 14.47 0 002.71-2.42 11.17 11.17 0 011.94-1.78 4.54 4.54 0 014.58 0 11.17 11.17 0 011.94 1.78 14.47 14.47 0 002.71 2.42 8.64 8.64 0 009.15 0 14.8 14.8 0 002.71-2.42 11.17 11.17 0 011.94-1.78 4.52 4.52 0 014.57 0 11.17 11.17 0 011.94 1.78 14.8 14.8 0 002.71 2.42 8.3 8.3 0 004.57 1.31h2.2a8.33 8.33 0 004.57-1.31 14.8 14.8 0 002.71-2.42 10.82 10.82 0 011.94-1.78 3.94 3.94 0 012.28-.62 4 4 0 012.29.62 11.17 11.17 0 011.94 1.78 14.47 14.47 0 002.71 2.42 8.64 8.64 0 009.15 0 14.47 14.47 0 002.71-2.42 11.17 11.17 0 011.94-1.78 4.52 4.52 0 014.57 0 11.19 11.19 0 012 1.78 14.8 14.8 0 002.71 2.42 8.64 8.64 0 009.15 0 14.47 14.47 0 002.71-2.42 11.17 11.17 0 011.94-1.78 4.54 4.54 0 014.58 0 11.17 11.17 0 011.94 1.78 14.47 14.47 0 002.71 2.42 8.64 8.64 0 009.15 0 14.8 14.8 0 002.71-2.42 11.17 11.17 0 011.94-1.78 4.52 4.52 0 014.57 0 10.82 10.82 0 011.94 1.78 14.8 14.8 0 002.71 2.42 8.34 8.34 0 004.58 1.31h.08l1.89-.3a8 8 0 003.82-1.7 19.83 19.83 0 001.78-1.73 10.5 10.5 0 011.91-1.75 4 4 0 014.35 0 11.2 11.2 0 011.91 1.75 14.43 14.43 0 002.74 2.44l2.65.89a6.45 6.45 0 002.16.4 8.3 8.3 0 004.57-1.31 14.47 14.47 0 002.71-2.42 11.17 11.17 0 011.94-1.78 4.54 4.54 0 014.58 0 11.17 11.17 0 011.94 1.78 14.89 14.89 0 002.72 2.42 8.63 8.63 0 009.14 0 14.89 14.89 0 002.72-2.42 10.81 10.81 0 011.93-1.78 4.54 4.54 0 014.58 0 11.17 11.17 0 011.94 1.78 14.47 14.47 0 002.71 2.42 8.64 8.64 0 009.15 0 14.8 14.8 0 002.71-2.42 11.17 11.17 0 011.94-1.78 4.52 4.52 0 014.57 0 10.82 10.82 0 011.94 1.78l.22.23-.16-.17a14.09 14.09 0 002.65 2.35 8.63 8.63 0 009.14 0 14.47 14.47 0 002.71-2.42 11.17 11.17 0 011.94-1.78 4.54 4.54 0 014.58 0 10.78 10.78 0 011.94 1.78 14.47 14.47 0 002.71 2.42 8.64 8.64 0 009.15 0 14.8 14.8 0 002.71-2.42 11.17 11.17 0 011.94-1.78 4.52 4.52 0 014.57 0 11.17 11.17 0 011.94 1.78 14.8 14.8 0 002.71 2.42 8.64 8.64 0 009.15 0 14.47 14.47 0 002.71-2.42 11.17 11.17 0 011.94-1.78 4.54 4.54 0 014.58 0 11.17 11.17 0 011.94 1.78 14.69 14.69 0 002.7 2.41 8.64 8.64 0 009.15 0 14.47 14.47 0 002.71-2.42 10.77 10.77 0 011.93-1.78 4.54 4.54 0 014.58 0 11.17 11.17 0 011.94 1.78 14.47 14.47 0 002.71 2.42 8.64 8.64 0 009.15 0 14.47 14.47 0 002.71-2.42 11.17 11.17 0 011.94-1.78 4.54 4.54 0 014.58 0 11.17 11.17 0 011.94 1.78 14.89 14.89 0 002.72 2.42 8.63 8.63 0 009.14 0 14.47 14.47 0 002.71-2.42 11.17 11.17 0 011.94-1.78 4.54 4.54 0 014.58 0 11.17 11.17 0 011.94 1.78 14.47 14.47 0 002.71 2.42 8.3 8.3 0 004.57 1.31h1.84a8.31 8.31 0 004.58-1.31 14.47 14.47 0 002.71-2.42 10.78 10.78 0 011.94-1.78 4.54 4.54 0 014.58 0 11.54 11.54 0 011.94 1.78 14.57 14.57 0 002.72 2.42 8.63 8.63 0 009.14 0 14.89 14.89 0 002.72-2.42 10.81 10.81 0 011.93-1.78 4.54 4.54 0 014.58 0 11.17 11.17 0 011.94 1.78 14.47 14.47 0 002.71 2.42 8.63 8.63 0 009.14 0 14.57 14.57 0 002.72-2.42 10.6 10.6 0 011.93-1.76 4.52 4.52 0 014.57 0 11.17 11.17 0 011.94 1.78 14.8 14.8 0 002.71 2.42 8.64 8.64 0 009.15 0 14.47 14.47 0 002.71-2.42 11.17 11.17 0 011.94-1.78 4.54 4.54 0 014.58 0 11.17 11.17 0 011.94 1.78 14.47 14.47 0 002.71 2.42 8.64 8.64 0 009.15 0 14.8 14.8 0 002.71-2.42 10.82 10.82 0 011.94-1.78 4.52 4.52 0 014.57 0 11.17 11.17 0 011.94 1.78 14.47 14.47 0 002.71 2.42 8.07 8.07 0 002.76 1.11q-2.71-4.83-5.65-9.54zM389.75 1065.09a15.49 15.49 0 002.51 2.88 6.58 6.58 0 008.51 0 15.49 15.49 0 002.51-2.88 11.53 11.53 0 011.81-2.12 3.42 3.42 0 014.25 0 11.54 11.54 0 011.8 2.12 15.21 15.21 0 002.52 2.88 6.49 6.49 0 004.25 1.56h.53a6.38 6.38 0 003.85-1.28q3.24-5.85 6.71-11.52a6.81 6.81 0 00-4.28 1.59 15.74 15.74 0 00-2.62 3 10.83 10.83 0 01-1.72 2 2.8 2.8 0 01-1.78.68h-.85a2.81 2.81 0 01-1.79-.68 10.83 10.83 0 01-1.71-2 15.74 15.74 0 00-2.62-3 6.89 6.89 0 00-8.83 0 15.74 15.74 0 00-2.62 3 11.22 11.22 0 01-1.72 2 3.09 3.09 0 01-3.89 0 10.83 10.83 0 01-1.71-2 16.18 16.18 0 00-2.63-3 6.89 6.89 0 00-8.83 0 15.74 15.74 0 00-2.62 3 10.83 10.83 0 01-1.71 2 3.1 3.1 0 01-3.9 0 10.83 10.83 0 01-1.71-2 15.74 15.74 0 00-2.62-3 6.89 6.89 0 00-8.83 0 15.74 15.74 0 00-2.62 3 10.83 10.83 0 01-1.72 2 3.09 3.09 0 01-3.89 0 10.83 10.83 0 01-1.71-2 16.48 16.48 0 00-2.62-3 6.89 6.89 0 00-8.83 0 15.74 15.74 0 00-2.62 3 11.22 11.22 0 01-1.72 2 3.09 3.09 0 01-3.89 0 10.83 10.83 0 01-1.71-2 15.74 15.74 0 00-2.62-3 6.89 6.89 0 00-8.83 0 15.74 15.74 0 00-2.62 3 10.83 10.83 0 01-1.71 2 2.84 2.84 0 01-1.65.67h-2.3a2.9 2.9 0 01-1.66-.67 10.83 10.83 0 01-1.71-2 15.74 15.74 0 00-2.62-3 7.12 7.12 0 00-1.95-1.15v6.12a13.87 13.87 0 011.46 1.8A15.57 15.57 0 00305 1068a6.49 6.49 0 004.25 1.56h1.71a6.49 6.49 0 004.25-1.56 15.21 15.21 0 002.52-2.88 11.54 11.54 0 011.8-2.12 3.42 3.42 0 014.25 0 11.53 11.53 0 011.81 2.12 15.21 15.21 0 002.52 2.88 6.56 6.56 0 008.49 0 15.21 15.21 0 002.52-2.88 11.53 11.53 0 011.81-2.12 3.1 3.1 0 012.12-.74 3.15 3.15 0 012.13.74 11.94 11.94 0 011.8 2.12 15.21 15.21 0 002.52 2.88 6.57 6.57 0 008.5 0 16 16 0 002.52-2.88 11.54 11.54 0 011.8-2.12 3.42 3.42 0 014.25 0 11.54 11.54 0 011.8 2.12 15.57 15.57 0 002.52 2.88 6.57 6.57 0 008.5 0 15.21 15.21 0 002.52-2.88 11.54 11.54 0 011.8-2.12 3.42 3.42 0 014.25 0 11.53 11.53 0 011.79 2.09zM803.75 1027.09a15.49 15.49 0 002.51 2.88 6.58 6.58 0 008.51 0 15.49 15.49 0 002.51-2.88 11.53 11.53 0 011.81-2.12 3.42 3.42 0 014.25 0 11.54 11.54 0 011.8 2.12 15.21 15.21 0 002.52 2.88 6.49 6.49 0 004.25 1.56h.53a6.38 6.38 0 003.85-1.28q3.24-5.85 6.71-11.52a6.81 6.81 0 00-4.28 1.59 15.74 15.74 0 00-2.62 3 10.83 10.83 0 01-1.72 2 2.8 2.8 0 01-1.78.68h-.85a2.81 2.81 0 01-1.79-.68 10.83 10.83 0 01-1.71-2 15.74 15.74 0 00-2.62-3 6.89 6.89 0 00-8.83 0 15.74 15.74 0 00-2.62 3 11.22 11.22 0 01-1.72 2 3.09 3.09 0 01-3.89 0 10.83 10.83 0 01-1.71-2 16.18 16.18 0 00-2.63-3 6.89 6.89 0 00-8.83 0 15.74 15.74 0 00-2.62 3 10.83 10.83 0 01-1.71 2 3.1 3.1 0 01-3.9 0 10.83 10.83 0 01-1.71-2 15.74 15.74 0 00-2.62-3 6.89 6.89 0 00-8.83 0 15.74 15.74 0 00-2.62 3 10.83 10.83 0 01-1.72 2 3.09 3.09 0 01-3.89 0 10.83 10.83 0 01-1.71-2 16.48 16.48 0 00-2.62-3 6.89 6.89 0 00-8.83 0 15.74 15.74 0 00-2.62 3 11.22 11.22 0 01-1.72 2 3.09 3.09 0 01-3.89 0 10.83 10.83 0 01-1.71-2 15.74 15.74 0 00-2.62-3 6.89 6.89 0 00-8.83 0 15.74 15.74 0 00-2.62 3 10.83 10.83 0 01-1.71 2 2.84 2.84 0 01-1.65.67h-2.3a2.9 2.9 0 01-1.66-.67 10.83 10.83 0 01-1.71-2 15.74 15.74 0 00-2.62-3 7.12 7.12 0 00-2-1.15v6.12a13.87 13.87 0 011.46 1.8A15.57 15.57 0 00719 1030a6.49 6.49 0 004.25 1.56h1.71a6.49 6.49 0 004.25-1.56 15.21 15.21 0 002.52-2.88 11.54 11.54 0 011.8-2.12 3.42 3.42 0 014.25 0 11.53 11.53 0 011.81 2.12 15.21 15.21 0 002.52 2.88 6.56 6.56 0 008.49 0 15.21 15.21 0 002.52-2.88 11.53 11.53 0 011.81-2.12 3.1 3.1 0 012.12-.74 3.15 3.15 0 012.13.74 11.94 11.94 0 011.8 2.12 15.21 15.21 0 002.52 2.88 6.57 6.57 0 008.5 0 16 16 0 002.52-2.88 11.54 11.54 0 011.8-2.12 3.42 3.42 0 014.25 0 11.54 11.54 0 011.8 2.12 15.57 15.57 0 002.52 2.88 6.57 6.57 0 008.5 0 15.21 15.21 0 002.52-2.88 11.54 11.54 0 011.8-2.12 3.42 3.42 0 014.25 0 11.53 11.53 0 011.79 2.09zM893.75 1052.09a15.49 15.49 0 002.51 2.88 6.58 6.58 0 008.51 0 15.49 15.49 0 002.51-2.88 11.53 11.53 0 011.81-2.12 3.42 3.42 0 014.25 0 11.54 11.54 0 011.8 2.12 15.21 15.21 0 002.52 2.88 6.49 6.49 0 004.25 1.56h.53a6.38 6.38 0 003.85-1.28q3.24-5.85 6.71-11.52a6.81 6.81 0 00-4.28 1.59 15.74 15.74 0 00-2.62 3 10.83 10.83 0 01-1.72 2 2.8 2.8 0 01-1.78.68h-.85a2.81 2.81 0 01-1.79-.68 10.83 10.83 0 01-1.71-2 15.74 15.74 0 00-2.62-3 6.89 6.89 0 00-8.83 0 15.74 15.74 0 00-2.62 3 11.22 11.22 0 01-1.72 2 3.09 3.09 0 01-3.89 0 10.83 10.83 0 01-1.71-2 16.18 16.18 0 00-2.63-3 6.89 6.89 0 00-8.83 0 15.74 15.74 0 00-2.62 3 10.83 10.83 0 01-1.71 2 3.1 3.1 0 01-3.9 0 10.83 10.83 0 01-1.71-2 15.74 15.74 0 00-2.62-3 6.89 6.89 0 00-8.83 0 15.74 15.74 0 00-2.62 3 10.83 10.83 0 01-1.72 2 3.09 3.09 0 01-3.89 0 10.83 10.83 0 01-1.71-2 16.48 16.48 0 00-2.62-3 6.89 6.89 0 00-8.83 0 15.74 15.74 0 00-2.62 3 11.22 11.22 0 01-1.72 2 3.09 3.09 0 01-3.89 0 10.83 10.83 0 01-1.71-2 15.74 15.74 0 00-2.62-3 6.89 6.89 0 00-8.83 0 15.74 15.74 0 00-2.62 3 10.83 10.83 0 01-1.71 2 2.84 2.84 0 01-1.65.67h-2.3a2.9 2.9 0 01-1.66-.67 10.83 10.83 0 01-1.71-2 15.74 15.74 0 00-2.62-3 7.12 7.12 0 00-2-1.15v6.12a13.87 13.87 0 011.46 1.8A15.57 15.57 0 00809 1055a6.49 6.49 0 004.25 1.56h1.71a6.49 6.49 0 004.25-1.56 15.21 15.21 0 002.52-2.88 11.54 11.54 0 011.8-2.12 3.42 3.42 0 014.25 0 11.53 11.53 0 011.81 2.12 15.21 15.21 0 002.52 2.88 6.56 6.56 0 008.49 0 15.21 15.21 0 002.52-2.88 11.53 11.53 0 011.81-2.12 3.1 3.1 0 012.12-.74 3.15 3.15 0 012.13.74 11.94 11.94 0 011.8 2.12 15.21 15.21 0 002.52 2.88 6.57 6.57 0 008.5 0 16 16 0 002.52-2.88 11.54 11.54 0 011.8-2.12 3.42 3.42 0 014.25 0 11.54 11.54 0 011.8 2.12 15.57 15.57 0 002.52 2.88 6.57 6.57 0 008.5 0 15.21 15.21 0 002.52-2.88 11.54 11.54 0 011.8-2.12 3.42 3.42 0 014.25 0 11.53 11.53 0 011.79 2.09zM1848.75 1027.09a15.49 15.49 0 002.51 2.88 6.58 6.58 0 008.51 0 15.49 15.49 0 002.51-2.88 11.53 11.53 0 011.81-2.12 3.42 3.42 0 014.25 0 11.54 11.54 0 011.8 2.12 15.21 15.21 0 002.52 2.88 6.49 6.49 0 004.25 1.56h.53a6.38 6.38 0 003.85-1.28q3.24-5.85 6.71-11.52a6.81 6.81 0 00-4.28 1.59 15.74 15.74 0 00-2.62 3 10.83 10.83 0 01-1.72 2 2.8 2.8 0 01-1.78.68h-.85a2.81 2.81 0 01-1.79-.68 10.83 10.83 0 01-1.71-2 15.74 15.74 0 00-2.62-3 6.89 6.89 0 00-8.83 0 15.74 15.74 0 00-2.62 3 11.22 11.22 0 01-1.72 2 3.09 3.09 0 01-3.89 0 10.83 10.83 0 01-1.71-2 16.18 16.18 0 00-2.63-3 6.89 6.89 0 00-8.83 0 15.74 15.74 0 00-2.62 3 10.83 10.83 0 01-1.71 2 3.1 3.1 0 01-3.9 0 10.83 10.83 0 01-1.71-2 15.74 15.74 0 00-2.62-3 6.89 6.89 0 00-8.83 0 15.74 15.74 0 00-2.62 3 10.83 10.83 0 01-1.72 2 3.09 3.09 0 01-3.89 0 10.83 10.83 0 01-1.71-2 16.48 16.48 0 00-2.62-3 6.89 6.89 0 00-8.83 0 15.74 15.74 0 00-2.62 3 11.22 11.22 0 01-1.72 2 3.09 3.09 0 01-3.89 0 10.83 10.83 0 01-1.71-2 15.74 15.74 0 00-2.62-3 6.89 6.89 0 00-8.83 0 15.74 15.74 0 00-2.62 3 10.83 10.83 0 01-1.71 2 2.84 2.84 0 01-1.65.67h-2.3a2.9 2.9 0 01-1.66-.67 10.83 10.83 0 01-1.71-2 15.74 15.74 0 00-2.62-3 7.12 7.12 0 00-2-1.15v6.12a13.87 13.87 0 011.46 1.8 15.57 15.57 0 002.58 2.91 6.49 6.49 0 004.25 1.56h1.71a6.49 6.49 0 004.25-1.56 15.21 15.21 0 002.52-2.88 11.54 11.54 0 011.8-2.12 3.42 3.42 0 014.25 0 11.53 11.53 0 011.81 2.12 15.21 15.21 0 002.52 2.88 6.56 6.56 0 008.49 0 15.21 15.21 0 002.52-2.88 11.53 11.53 0 011.81-2.12 3.1 3.1 0 012.12-.74 3.15 3.15 0 012.13.74 11.94 11.94 0 011.8 2.12 15.21 15.21 0 002.52 2.88 6.57 6.57 0 008.5 0 16 16 0 002.52-2.88 11.54 11.54 0 011.8-2.12 3.42 3.42 0 014.25 0 11.54 11.54 0 011.8 2.12 15.57 15.57 0 002.52 2.88 6.57 6.57 0 008.5 0 15.21 15.21 0 002.52-2.88 11.54 11.54 0 011.8-2.12 3.42 3.42 0 014.25 0 11.53 11.53 0 011.79 2.09zM1751.75 1056.09a15.49 15.49 0 002.51 2.88 6.58 6.58 0 008.51 0 15.49 15.49 0 002.51-2.88 11.53 11.53 0 011.81-2.12 3.42 3.42 0 014.25 0 11.54 11.54 0 011.8 2.12 15.21 15.21 0 002.52 2.88 6.49 6.49 0 004.25 1.56h.53a6.38 6.38 0 003.85-1.28q3.24-5.85 6.71-11.52a6.81 6.81 0 00-4.28 1.59 15.74 15.74 0 00-2.62 3 10.83 10.83 0 01-1.72 2 2.8 2.8 0 01-1.78.68h-.85a2.81 2.81 0 01-1.79-.68 10.83 10.83 0 01-1.71-2 15.74 15.74 0 00-2.62-3 6.89 6.89 0 00-8.83 0 15.74 15.74 0 00-2.62 3 11.22 11.22 0 01-1.72 2 3.09 3.09 0 01-3.89 0 10.83 10.83 0 01-1.71-2 16.18 16.18 0 00-2.63-3 6.89 6.89 0 00-8.83 0 15.74 15.74 0 00-2.62 3 10.83 10.83 0 01-1.71 2 3.1 3.1 0 01-3.9 0 10.83 10.83 0 01-1.71-2 15.74 15.74 0 00-2.62-3 6.89 6.89 0 00-8.83 0 15.74 15.74 0 00-2.62 3 10.83 10.83 0 01-1.72 2 3.09 3.09 0 01-3.89 0 10.83 10.83 0 01-1.71-2 16.48 16.48 0 00-2.62-3 6.89 6.89 0 00-8.83 0 15.74 15.74 0 00-2.62 3 11.22 11.22 0 01-1.72 2 3.09 3.09 0 01-3.89 0 10.83 10.83 0 01-1.71-2 15.74 15.74 0 00-2.62-3 6.89 6.89 0 00-8.83 0 15.74 15.74 0 00-2.62 3 10.83 10.83 0 01-1.71 2 2.84 2.84 0 01-1.65.67h-2.3a2.9 2.9 0 01-1.66-.67 10.83 10.83 0 01-1.71-2 15.74 15.74 0 00-2.62-3 7.12 7.12 0 00-2-1.15v6.12a13.87 13.87 0 011.46 1.8 15.57 15.57 0 002.58 2.91 6.49 6.49 0 004.25 1.56h1.71a6.49 6.49 0 004.25-1.56 15.21 15.21 0 002.52-2.88 11.54 11.54 0 011.8-2.12 3.42 3.42 0 014.25 0 11.53 11.53 0 011.81 2.12 15.21 15.21 0 002.52 2.88 6.56 6.56 0 008.49 0 15.21 15.21 0 002.52-2.88 11.53 11.53 0 011.81-2.12 3.1 3.1 0 012.12-.74 3.15 3.15 0 012.13.74 11.94 11.94 0 011.8 2.12 15.21 15.21 0 002.52 2.88 6.57 6.57 0 008.5 0 16 16 0 002.52-2.88 11.54 11.54 0 011.8-2.12 3.42 3.42 0 014.25 0 11.54 11.54 0 011.8 2.12 15.57 15.57 0 002.52 2.88 6.57 6.57 0 008.5 0 15.21 15.21 0 002.52-2.88 11.54 11.54 0 011.8-2.12 3.42 3.42 0 014.25 0 11.53 11.53 0 011.79 2.09z"/><g opacity=".64"><path class="cls-4" d="M-377.17 919.24h-6.38V903h320.77l264.89-25.15v19.25h1129.1v-19.27l195.12 19.29 39.67-.02v19.84h-6.39v-13.45h-33.59l-188.42-18.61v18.61H195.72v-18.62l-258.2 24.5-314.69.02v9.85zM1369.54 873.37h-6.4v-28.74h-28.38v-12.42h-56.6v12.42h-181.5v-6.39h175.11v-12.42h69.38v12.42h28.39v35.13zM1552.55 799.39h-259.31v16.32h-6.39V793h264.09l1.61 6.39zM1070.58 796.26l-6.38-.13c.89-41.26 1.79-107.26.61-118.78a3.4 3.4 0 01-.8-1.89l-.58-2.78 3-1a3.34 3.34 0 012.29.08c2.19-.05 7.27-.42 12.38-.86v-14.33l80.19-4.61h108.94v16.86h23.06v115.84h-6.39V675.2h-23.06v-16.86h-102.42l-74 4.26v14.09l-2.91.27c-6.27.56-10.56.95-13.52 1.1.95 9.99 1.34 37.84-.41 118.2z"/><path class="cls-4" d="M1140.48 669.34h6.39v159.68h-6.39zM1161.77 669.34h6.39v159.68h-6.39zM1417.44 783.77h-6.39v-54.9h-10.65v-22.63h-98.82v-6.39h105.21v22.63h10.65v61.29zM1491.95 783.77h-6.38v-19.86h-60.68v-6.39h67.06v26.25z"/><path class="cls-4" d="M1384.62 703.05h-6.39v-19.87h-60.15v19.87h-6.39v-26.26h72.93v26.26zM31.79 832.57H25.4V699.84l206.69.89v-14H14.04v10.64H-92.72l-29.85 4.03v41.57h-6.39v-47.15l36.02-4.84H7.66v-10.64h230.82v26.8l-206.69-.88v126.31z"/><path class="cls-4" d="M68.87 703.24h6.39v115.14h-6.39zM272.19 832.57h-6.39V723.99H126.71v14.86h-23.07v92.3h-6.39v-98.69h23.07V717.6h151.87v114.97zM251.79 707.49h-6.39v-60.86h9.76v-10.65h10.64v-15.97h75.59v19.17H335V626.4h-62.81v15.97h-10.64v10.65h-9.76v54.47z"/><path class="cls-4" d="M307.68 832.57h-6.39V637.76h89.77v161.98h-6.39V644.15h-76.99v188.42zM364.45 887.57h-6.39v-35.84H167.33v-8.87h-63.69v7.98H75.26v30.52h-6.39v-36.91h28.38v-7.98h76.47v8.87h190.73v42.23z"/><path class="cls-4" d="M360.9 832.57h-6.39v-25.38h36.55v11.09h14.55v6.39h-20.94v-11.09H360.9v18.99zM420.34 892h-6.39v-91.02h83.39V785.9h56.06v15.08h34.63V785.9h52.31v25.73h307.64V785.9h58.73v13.84h-6.39v-7.45h-45.95v25.73H633.95v-25.73h-39.53v15.08h-47.41v-15.08h-43.28v15.08h-83.39V892zM1092.76 887.57h-6.39v-73.99h-84.98v73.99H995v-80.38h97.76v80.38zM953.49 776.68h-6.39v-77.53h-14.2v-40.81h-54.11v-14.19h-51.27v18.63h-86.05v11.53h-9.76v76.64h-6.39v-83.03h9.76v-11.53h86.05v-18.63h64.05v14.19h54.11v40.81h14.2v83.92zM447.84 789.1h-6.39v-65.29h92.44v52.87h-6.39V730.2h-79.66v58.9z"/><path class="cls-4" d="M683.81 794.42h-6.39v-33.18H548.97v15.44h-6.39v-21.83h141.23v39.57zM749.45 794.42h-6.39v-22.46l-15.01-4.51h-36.79v-6.39l38.17.14 20.02 6.01v27.21zM598.64 730.2h-52.87v-6.39h46.48v-43.47h121.18v6.39H598.64v43.47z"/><path class="cls-4" d="M577.36 707.49h-6.39V655.5h54.29v13.31h48.25v6.39h-54.64v-13.31h-41.51v45.6zM427.44 789.1h-6.39v-87.03h50.56v-11.09h56.95v15.32l21.11 5.11v-11.37h13.84v6.39h-7.45v13.1l-33.89-8.2v-13.96H478v11.09h-50.56v80.64z"/><path class="cls-4" d="M397.63 717.6h26.61v6.39h-26.61zM201.22 683.09h-6.39V660l-8.83-8.85v-20.28l-7.09-6.21v-1.45c0-48.64-30.78-53.22-34.07-53.57-3.24.34-34.06 4.89-34.06 53.57v1.45l-7.1 6.21v20.28L94.77 660v23.07h-6.39v-25.7l8.87-8.87V628l7.11-6.22c.68-55 39.82-58.47 40.21-58.5h.46c.4 0 39.54 3.46 40.22 58.5l7.1 6.22v20.5l8.87 8.87z"/><path class="cls-4" d="M147.47 534.2L144.8 507l-2.66 27.2-4.73 6.51-3.55 28.39h21.88l-3.54-28.39-4.73-6.51zM100.45 626.22h88.71v6.39h-88.71zM91.58 655.5h106.45v6.39H91.58zM-6.66 864.08h-6.38V710.21h20.7v-16.03h6.38v22.42h-20.7v147.48zM166.39 754.5h11.24v7.54h-11.24zM189.16 754.5h11.24v7.54h-11.24zM211.93 754.5h11.24v7.54h-11.24zM166.39 821.78h11.24v7.54h-11.24zM189.16 821.78h11.24v7.54h-11.24zM211.93 821.78h11.24v7.54h-11.24zM166.39 772.98h11.24v35.98h-11.24zM189.16 772.98h11.24v35.98h-11.24zM211.93 772.98h11.24v35.98h-11.24z"/><path class="cls-4" d="M234.05 832.57h-6.39v-93.72h-66.95v92.3h-6.39v-98.69h79.73v100.11zM242.09 735.65h5.99v5.99h-5.99zM254.47 735.65h5.99v5.99h-5.99zM242.09 755.28h5.99v5.99h-5.99zM254.47 755.28h5.99v5.99h-5.99zM242.09 774.9h5.99v5.99h-5.99zM254.47 774.9h5.99v5.99h-5.99zM242.09 794.53h5.99v5.99h-5.99zM254.47 794.53h5.99v5.99h-5.99zM242.09 814.16h5.99v5.99h-5.99zM254.47 814.16h5.99v5.99h-5.99zM131.61 735.65h5.99v5.99h-5.99zM143.99 735.65h5.99v5.99h-5.99zM131.61 755.28h5.99v5.99h-5.99zM143.99 755.28h5.99v5.99h-5.99zM131.61 774.9h5.99v5.99h-5.99zM143.99 774.9h5.99v5.99h-5.99zM131.61 794.53h5.99v5.99h-5.99zM143.99 794.53h5.99v5.99h-5.99zM131.61 814.16h5.99v5.99h-5.99zM143.99 814.16h5.99v5.99h-5.99zM55.56 683.09h6.39v11.09h-6.39zM102.28 683.09h6.39v11.09h-6.39zM149 683.09h6.39v11.09H149zM195.72 683.09h6.39v11.09h-6.39zM8.72 862.39H2.34v-15.57h7.68v-4.18l9.19-9.18 8.93 8.92h23.43v-16.26h33.21v6.39H57.96v16.26H25.5l-6.29-6.28-2.8 2.8v7.92H8.72v9.18zM5.24 871.65h8.48v12.36H5.24zM20.18 871.65h8.48v12.36h-8.48zM35.11 871.65h8.48v12.36h-8.48zM50.05 871.65h8.48v12.36h-8.48zM211.34 860.33h23.06v5.61h-23.06zM246.52 860.33h23.06v5.61h-23.06zM281.71 860.33h23.06v5.61h-23.06zM316.9 860.33h23.06v5.61H316.9zM211.34 880.3h23.06v10.69h-23.06zM246.52 880.3h23.06v10.69h-23.06zM281.71 880.3h23.06v10.69h-23.06zM316.9 880.3h23.06v10.69H316.9zM316.9 651.89h3.25v10.79h-3.25zM323.26 651.89h3.25v10.79h-3.25zM338.19 651.89h3.25v10.79h-3.25zM344.55 651.89h3.25v10.79h-3.25zM368.21 651.89h3.25v10.79h-3.25zM374.56 651.89h3.25v10.79h-3.25zM351.79 651.89h3.25v10.79h-3.25zM316.9 669.71h3.25v10.79h-3.25zM323.26 669.71h3.25v10.79h-3.25zM338.19 669.71h3.25v10.79h-3.25zM344.55 669.71h3.25v10.79h-3.25zM368.21 669.71h3.25v10.79h-3.25zM374.56 669.71h3.25v10.79h-3.25zM351.79 669.71h3.25v10.79h-3.25zM316.9 687.52h3.25v10.79h-3.25zM323.26 687.52h3.25v10.79h-3.25zM338.19 687.52h3.25v10.79h-3.25zM344.55 687.52h3.25v10.79h-3.25zM368.21 687.52h3.25v10.79h-3.25zM374.56 687.52h3.25v10.79h-3.25zM351.79 687.52h3.25v10.79h-3.25zM316.9 705.34h3.25v24.32h-3.25zM323.26 705.34h3.25v24.32h-3.25zM338.19 705.34h3.25v24.32h-3.25zM344.55 705.34h3.25v24.32h-3.25zM368.21 705.34h3.25v24.32h-3.25zM374.56 705.34h3.25v24.32h-3.25zM351.79 705.34h3.25v24.32h-3.25zM316.9 738.64h3.25v93.92h-3.25zM323.26 738.64h3.25v93.92h-3.25zM338.19 738.64h3.25v93.92h-3.25zM344.55 738.64h3.25v93.92h-3.25zM368.21 738.64h3.25v61.88h-3.25zM374.56 738.64h3.25v61.88h-3.25zM351.79 738.64h3.25v61.88h-3.25zM371.46 832.57h12.86v4.44h-12.86zM371.46 845.87h12.86v4.44h-12.86zM371.46 859.18h12.86v4.44h-12.86zM371.46 872.49h12.86v4.44h-12.86zM401.18 741.64h11.98v6.21h-11.98zM401.18 758.16h11.98v6.21h-11.98zM401.18 774.68h11.98v6.21h-11.98zM401.18 791.2h11.98v6.21h-11.98zM475.25 738.64h10.65v6.1h-10.65zM493.88 738.64h10.65v6.1h-10.65zM512.51 738.64h10.65v6.1h-10.65zM475.25 752.23h10.65v6.1h-10.65zM493.88 752.23h10.65v6.1h-10.65zM512.51 752.23h10.65v6.1h-10.65zM475.25 765.81h10.65v6.1h-10.65zM493.88 765.81h10.65v6.1h-10.65zM512.51 765.81h10.65v6.1h-10.65zM461.41 727h6.39v41.86h-6.39zM606.1 696.47h3.99v8.35h-3.99zM616.74 696.47h3.99v8.35h-3.99zM627.39 696.47h3.99v8.35h-3.99zM638.03 696.47h3.99v8.35h-3.99zM648.68 696.47h3.99v8.35h-3.99zM659.32 696.47h3.99v8.35h-3.99zM669.97 696.47h3.99v8.35h-3.99zM680.61 696.47h3.99v8.35h-3.99zM691.26 696.47h3.99v8.35h-3.99zM701.9 696.47h3.99v8.35h-3.99zM712.55 696.47h3.99v8.35h-3.99zM606.1 709.78h3.99v8.35h-3.99zM616.74 709.78h3.99v8.35h-3.99zM627.39 709.78h3.99v8.35h-3.99zM638.03 709.78h3.99v8.35h-3.99zM648.68 709.78h3.99v8.35h-3.99zM659.32 709.78h3.99v8.35h-3.99zM669.97 709.78h3.99v8.35h-3.99zM680.61 709.78h3.99v8.35h-3.99zM691.26 709.78h3.99v8.35h-3.99zM701.9 709.78h3.99v8.35h-3.99zM712.55 709.78h3.99v8.35h-3.99zM606.1 723.08h3.99v8.35h-3.99zM616.74 723.08h3.99v8.35h-3.99zM627.39 723.08h3.99v8.35h-3.99zM638.03 723.08h3.99v8.35h-3.99zM648.68 723.08h3.99v8.35h-3.99zM659.32 723.08h3.99v8.35h-3.99zM669.97 723.08h3.99v8.35h-3.99zM680.61 723.08h3.99v8.35h-3.99zM691.26 723.08h3.99v8.35h-3.99zM701.9 723.08h3.99v8.35h-3.99zM712.55 723.08h3.99v8.35h-3.99zM606.1 738.02h3.99v8.35h-3.99zM616.74 738.02h3.99v8.35h-3.99zM627.39 738.02h3.99v8.35h-3.99zM638.03 738.02h3.99v8.35h-3.99zM648.68 738.02h3.99v8.35h-3.99zM659.32 738.02h3.99v8.35h-3.99zM553.98 738.02h3.99v8.35h-3.99zM564.62 738.02h3.99v8.35h-3.99zM575.27 738.02h3.99v8.35h-3.99zM585.91 738.02h3.99v8.35h-3.99zM596.56 738.02h3.99v8.35h-3.99zM669.97 738.02h3.99v8.35h-3.99zM680.61 738.02h3.99v8.35h-3.99zM691.26 738.02h3.99v8.35h-3.99zM701.9 738.02h3.99v8.35h-3.99zM712.55 738.02h3.99v8.35h-3.99zM620.64 758.05h6.39v18.63h-6.39zM525.37 801.07h5.32v5.32h-5.32zM534.68 801.07H540v5.32h-5.32zM642.02 881.71h310.93v6.39H642.02zM697.51 873.11h-6.39V852.9c0-9.62-9.67-17.43-21.55-17.43S648 843.28 648 852.9v20.21h-6.39V852.9c0-13.14 12.53-23.82 27.93-23.82s27.94 10.68 27.94 23.82z"/><path class="cls-4" d="M748.31 873.11h-6.39V852.9c0-9.62-9.66-17.43-21.54-17.43s-21.55 7.81-21.55 17.43v20.21h-6.39V852.9c0-13.14 12.53-23.82 27.94-23.82s27.93 10.68 27.93 23.82z"/><path class="cls-4" d="M799.12 873.11h-6.39V852.9c0-9.62-9.67-17.43-21.55-17.43s-21.54 7.81-21.54 17.43v20.21h-6.39V852.9c0-13.14 12.53-23.82 27.93-23.82s27.94 10.68 27.94 23.82z"/><path class="cls-4" d="M849.92 873.11h-6.39V852.9c0-9.62-9.66-17.43-21.55-17.43s-21.54 7.81-21.54 17.43v20.21h-6.39V852.9c0-13.14 12.53-23.82 27.93-23.82s27.94 10.68 27.94 23.82z"/><path class="cls-4" d="M900.72 873.11h-6.39V852.9c0-9.62-9.66-17.43-21.54-17.43s-21.55 7.81-21.55 17.43v20.21h-6.39V852.9c0-13.14 12.53-23.82 27.94-23.82s27.93 10.68 27.93 23.82z"/><path class="cls-4" d="M951.53 873.11h-6.39V852.9c0-9.62-9.67-17.43-21.55-17.43S902 843.28 902 852.9v20.21h-6.39V852.9c0-13.14 12.54-23.82 27.94-23.82s27.94 10.68 27.94 23.82zM839.05 801.07h-6.39V651.95h6.5v-11h6.39v17.39h-6.5v142.73zM762.17 764.26h-6.39v-96.05h30.99v6.39h-24.6v89.66z"/><path class="cls-4" d="M768.43 683.09h10.65v4.29h-10.65zM786.77 683.09h10.65v4.29h-10.65zM805.1 683.09h10.65v4.29H805.1zM768.43 694.33h10.65v4.29h-10.65zM786.77 694.33h10.65v4.29h-10.65zM805.1 694.33h10.65v4.29H805.1zM768.43 705.56h10.65v4.29h-10.65zM786.77 705.56h10.65v4.29h-10.65zM805.1 705.56h10.65v4.29H805.1zM768.43 716.8h10.65v4.29h-10.65zM786.77 716.8h10.65v4.29h-10.65zM805.1 716.8h10.65v4.29H805.1zM768.43 728.04h10.65v4.29h-10.65zM786.77 728.04h10.65v4.29h-10.65zM805.1 728.04h10.65v4.29H805.1zM768.43 739.27h10.65v4.29h-10.65zM786.77 739.27h10.65v4.29h-10.65zM805.1 739.27h10.65v4.29H805.1zM768.43 750.51h10.65v4.29h-10.65zM786.77 750.51h10.65v4.29h-10.65zM805.1 750.51h10.65v4.29H805.1zM768.43 761.75h10.65v4.29h-10.65zM786.77 761.75h10.65v4.29h-10.65zM805.1 761.75h10.65v4.29H805.1zM768.43 772.98h10.65v4.29h-10.65zM786.77 772.98h10.65v4.29h-10.65zM805.1 772.98h10.65v4.29H805.1zM768.43 784.22h10.65v4.29h-10.65zM786.77 784.22h10.65v4.29h-10.65zM805.1 784.22h10.65v4.29H805.1zM846.67 683.09h10.65v4.29h-10.65zM865 683.09h10.65v4.29H865zM883.34 683.09h10.65v4.29h-10.65zM846.67 694.33h10.65v4.29h-10.65zM865 694.33h10.65v4.29H865zM883.34 694.33h10.65v4.29h-10.65zM846.67 705.56h10.65v4.29h-10.65zM865 705.56h10.65v4.29H865zM883.34 705.56h10.65v4.29h-10.65zM846.67 716.8h10.65v4.29h-10.65zM865 716.8h10.65v4.29H865zM883.34 716.8h10.65v4.29h-10.65zM846.67 728.04h10.65v4.29h-10.65zM865 728.04h10.65v4.29H865zM883.34 728.04h10.65v4.29h-10.65zM846.67 739.27h10.65v4.29h-10.65zM865 739.27h10.65v4.29H865zM883.34 739.27h10.65v4.29h-10.65zM846.67 750.51h10.65v4.29h-10.65zM865 750.51h10.65v4.29H865zM883.34 750.51h10.65v4.29h-10.65zM846.67 761.75h10.65v4.29h-10.65zM865 761.75h10.65v4.29H865zM883.34 761.75h10.65v4.29h-10.65zM846.67 772.98h10.65v4.29h-10.65zM865 772.98h10.65v4.29H865zM883.34 772.98h10.65v4.29h-10.65zM846.67 784.22h10.65v4.29h-10.65zM865 784.22h10.65v4.29H865zM883.34 784.22h10.65v4.29h-10.65zM903.3 683.09h10.65v4.29H903.3zM903.3 694.33h10.65v4.29H903.3zM939.96 694.33h10.65v4.29h-10.65zM903.3 705.56h10.65v4.29H903.3zM921.63 705.56h10.65v4.29h-10.65zM903.3 716.8h10.65v4.29H903.3zM921.63 716.8h10.65v4.29h-10.65zM903.3 728.04h10.65v4.29H903.3zM921.63 728.04h10.65v4.29h-10.65zM903.3 739.27h10.65v4.29H903.3zM921.63 739.27h10.65v4.29h-10.65zM903.3 750.51h10.65v4.29H903.3zM921.63 750.51h10.65v4.29h-10.65zM903.3 761.75h10.65v4.29H903.3zM921.63 761.75h10.65v4.29h-10.65zM903.3 772.98h10.65v4.29H903.3zM921.63 772.98h10.65v4.29h-10.65zM903.3 784.22h10.65v4.29H903.3zM921.63 784.22h10.65v4.29h-10.65zM1178.59 679.98h18.01v18.63h-18.01zM1207.71 679.98h23.79v18.63h-23.79zM1240.83 679.98h23.79v18.63h-23.79zM1178.59 711.77h18.01v7.39h-18.01zM1207.71 711.77h23.79v7.39h-23.79zM1240.83 711.77h23.79v7.39h-23.79zM1178.59 726.48h18.01v7.39h-18.01zM1207.71 726.48h23.79v7.39h-23.79zM1240.83 726.48h23.79v7.39h-23.79zM1178.59 741.19h18.01v7.39h-18.01zM1207.71 741.19h23.79v7.39h-23.79zM1240.83 741.19h23.79v7.39h-23.79zM1178.59 755.91h18.01v7.39h-18.01zM1207.71 755.91h23.79v7.39h-23.79zM1240.83 755.91h23.79v7.39h-23.79zM1178.59 770.62h18.01v7.39h-18.01zM1207.71 770.62h23.79v7.39h-23.79zM1240.83 770.62h23.79v7.39h-23.79zM1178.59 785.33h18.01v7.39h-18.01zM1207.71 785.33h23.79v7.39h-23.79zM1240.83 785.33h23.79v7.39h-23.79zM1178.59 800.04h18.01v7.39h-18.01zM1207.71 800.04h23.79v7.39h-23.79zM1240.83 800.04h23.79v7.39h-23.79zM1348.15 810.39h187.33v5.91h-187.33zM1348.15 826.06h187.33v5.91h-187.33zM1378.76 841.73h156.72v5.91h-156.72zM1378.76 857.4h156.72v5.91h-156.72zM1414.24 873.37h121.24v5.62h-121.24zM1337.36 719.16h24.25v4.43h-24.25zM1337.36 734.6h24.25v4.43h-24.25zM1337.36 750.03h24.25v4.43h-24.25zM1337.36 765.46h24.25v4.43h-24.25zM1337.36 780.89h24.25v4.43h-24.25zM1366.64 719.16h12.12v4.43h-12.12zM1366.64 734.6h12.12v4.43h-12.12zM1366.64 750.03h12.12v4.43h-12.12zM1366.64 765.46h12.12v4.43h-12.12zM1366.64 780.89h12.12v4.43h-12.12zM1429.03 770.62H1445v3.7h-15.97zM1456.82 770.62h15.97v3.7h-15.97zM1429.03 779.04H1445v3.7h-15.97zM1456.82 779.04h15.97v3.7h-15.97zM114.35 640.95h4.73v9.17h-4.73zM129.24 640.95h4.73v9.17h-4.73zM144.13 640.95h4.73v9.17h-4.73zM159.03 640.95h4.73v9.17h-4.73zM173.92 640.95h4.73v9.17h-4.73z"/><g><path class="cls-4" d="M1743.91 915.24h-6.38V704.9h-30.17v-17.74h-116.03v23.07h-21.29v14.19h-14.19v162.82h-6.39V718.03h14.19v-14.19h21.29v-23.07h128.81v17.74h30.16v216.73zM1853.91 838.32h-6.38V808.7h-93.5v-6.39h99.88v36.01z"/><path class="cls-4" d="M2148.43 915.24h-6.39v-74.71l-14.98-14.98h-154.82l-11.97 11.98h-49.24l-11.97 11.97h-98.47l-14.1 14.1v51.64h-6.38v-54.29l17.83-17.84h98.47l11.98-11.97h49.23l11.98-11.98h160.1l18.73 18.73v77.35zM1754.02 703.84h86.05v6.39h-86.05zM1853.91 793.08h-6.38V655.05h80.01v13.84h-6.39v-7.45h-67.24v131.64z"/><path class="cls-4" d="M1948.83 822.36h-6.39V680.95h-63.69v141.41h-6.39v-147.8h76.47v147.8z"/><path class="cls-4" d="M1902.53 677.76h6.39v144.15h-6.39zM1656.15 711.76h68.01v6.51h-68.01zM1656.15 725.66h21.88v6.51h-21.88zM1656.15 739.86h68.01v6.51h-68.01zM1656.15 753.75h21.88v6.51h-21.88zM1656.15 767.95h68.01v6.51h-68.01zM1656.15 781.84h21.88v6.51h-21.88zM1656.15 796.04h68.01v6.51h-68.01zM1656.15 809.94h21.88v6.51h-21.88zM1656.15 824.13h68.01v6.51h-68.01zM1656.15 838.03h21.88v6.51h-21.88zM1656.15 852.22h68.01v6.51h-68.01zM1656.15 866.12h21.88v6.51h-21.88zM1656.15 880.31h68.01v6.51h-68.01zM1656.15 894.21h21.88v6.51h-21.88z"/><path class="cls-4" transform="rotate(180 1603.99 728.92)" d="M1596.19 725.66h15.6v6.51h-15.6z"/><path class="cls-4" transform="rotate(180 1587.55 743.11)" d="M1563.3 739.86h48.49v6.51h-48.49z"/><path class="cls-4" transform="rotate(180 1603.99 757)" d="M1596.19 753.75h15.6v6.51h-15.6z"/><path class="cls-4" transform="rotate(180 1587.55 771.2)" d="M1563.3 767.95h48.49v6.51h-48.49z"/><path class="cls-4" transform="rotate(180 1603.99 785.1)" d="M1596.19 781.84h15.6v6.51h-15.6z"/><path class="cls-4" transform="rotate(180 1587.55 799.29)" d="M1563.3 796.04h48.49v6.51h-48.49z"/><path class="cls-4" transform="rotate(180 1603.99 813.19)" d="M1596.19 809.94h15.6v6.51h-15.6z"/><path class="cls-4" transform="rotate(180 1587.55 827.39)" d="M1563.3 824.13h48.49v6.51h-48.49z"/><path class="cls-4" transform="rotate(180 1603.99 841.28)" d="M1596.19 838.03h15.6v6.51h-15.6z"/><path class="cls-4" transform="rotate(180 1587.55 855.48)" d="M1563.3 852.22h48.49v6.51h-48.49z"/><path class="cls-4" transform="rotate(180 1603.99 869.37)" d="M1596.19 866.12h15.6v6.51h-15.6z"/><path class="cls-4" transform="rotate(180 1587.55 883.57)" d="M1563.3 880.31h48.49v6.51h-48.49z"/><path class="cls-4" transform="rotate(180 1603.99 897.47)" d="M1596.19 894.21h15.6v6.51h-15.6z"/><path class="cls-4" d="M1625.99 721.23h7.1v18.63h-7.1zM1637.22 744.44h7.1v18.63h-7.1zM1625.99 772.16h7.1v18.63h-7.1zM1637.22 795.37h7.1V814h-7.1zM1625.99 823.1h7.1v18.63h-7.1zM1637.22 846.31h7.1v18.63h-7.1zM1625.99 874.03h7.1v18.63h-7.1zM1647.51 715.02h-6.38v-13.66h-7.1v-17.39h6.39v11h7.09v20.05zM1762.6 718.27h13.6v6.9h-13.6zM1790.25 718.27h13.6v6.9h-13.6zM1817.9 718.27h13.6v6.9h-13.6zM1762.6 734.97h13.6v6.9h-13.6zM1790.25 734.97h13.6v6.9h-13.6zM1817.9 734.97h13.6v6.9h-13.6zM1762.6 751.67h13.6v6.9h-13.6zM1790.25 751.67h13.6v6.9h-13.6zM1817.9 751.67h13.6v6.9h-13.6zM1762.6 768.37h13.6v6.9h-13.6zM1790.25 768.37h13.6v6.9h-13.6zM1817.9 768.37h13.6v6.9h-13.6zM1762.6 785.07h13.6v6.9h-13.6zM1790.25 785.07h13.6v6.9h-13.6zM1817.9 785.07h13.6v6.9h-13.6zM1883.98 686.63h4.88v7.54h-4.88zM1883.98 703.26h4.88v7.54h-4.88zM1883.98 719.9h4.88v7.54h-4.88zM1883.98 736.53h4.88v7.54h-4.88zM1883.98 753.16h4.88v7.54h-4.88zM1883.98 769.8h4.88v7.54h-4.88zM1859.59 669.66h4.88v7.54h-4.88zM1859.59 686.3h4.88v7.54h-4.88zM1859.59 702.93h4.88v7.54h-4.88zM1859.59 719.56h4.88v7.54h-4.88zM1859.59 736.2h4.88v7.54h-4.88zM1859.59 752.83h4.88v7.54h-4.88zM1935.12 912.84h-6.39v-51.53l-6.51-6.51-5.88 5.89v52.15h-6.38v-54.8l12.26-12.27 12.9 12.89v54.18zM1796.61 869.42h11.09v3.2h-11.09zM1815.6 869.42h11.09v3.2h-11.09zM1834.6 869.42h11.09v3.2h-11.09zM1853.6 869.42h11.09v3.2h-11.09zM1872.6 869.42h11.09v3.2h-11.09zM1891.6 869.42h11.09v3.2h-11.09zM1796.61 878.71h11.09v3.2h-11.09zM1815.6 878.71h11.09v3.2h-11.09zM1834.6 878.71h11.09v3.2h-11.09zM1853.6 878.71h11.09v3.2h-11.09zM1872.6 878.71h11.09v3.2h-11.09zM1891.6 878.71h11.09v3.2h-11.09zM1796.61 888h11.09v3.2h-11.09zM1815.6 888h11.09v3.2h-11.09zM1834.6 888h11.09v3.2h-11.09zM1853.6 888h11.09v3.2h-11.09zM1872.6 888h11.09v3.2h-11.09zM1891.6 888h11.09v3.2h-11.09zM1796.61 897.29h11.09v3.2h-11.09zM1815.6 897.29h11.09v3.2h-11.09zM1834.6 897.29h11.09v3.2h-11.09zM1853.6 897.29h11.09v3.2h-11.09zM1872.6 897.29h11.09v3.2h-11.09zM1891.6 897.29h11.09v3.2h-11.09zM1796.61 906.58h11.09v3.2h-11.09z"/><path class="cls-4" d="M1919.76 869.42h5.54v3.2h-5.54zM1919.76 878.71h5.54v3.2h-5.54zM1919.76 888h5.54v3.2h-5.54zM1919.76 897.29h5.54v3.2h-5.54zM1919.76 906.58h5.54v3.2h-5.54zM1815.6 906.58h11.09v3.2h-11.09zM1834.6 906.58h11.09v3.2h-11.09zM1853.6 906.58h11.09v3.2h-11.09zM1872.6 906.58h11.09v3.2h-11.09zM1891.6 906.58h11.09v3.2h-11.09zM1760.23 815.26h74.37v4.29h-74.37zM1760.23 825.24h74.37v4.29h-74.37z"/></g></g><path class="cls-8" d="M13 929h1893v6H13zM1933.38 958.35a9 9 0 00-8.83.37 15.27 15.27 0 00-2.82 2.5 10.13 10.13 0 01-1.84 1.7 3.61 3.61 0 01-2.1.58 3.56 3.56 0 01-2.09-.58 9.83 9.83 0 01-1.85-1.7 14.64 14.64 0 00-2.82-2.5 9 9 0 00-9.51 0 14.86 14.86 0 00-2.81 2.5 10.4 10.4 0 01-1.84 1.69 4.07 4.07 0 01-4.19 0 10.13 10.13 0 01-1.84-1.7 15 15 0 00-2.83-2.5 9 9 0 00-9.5 0 14.33 14.33 0 00-2.82 2.51 10.13 10.13 0 01-1.84 1.7 4.07 4.07 0 01-4.19 0 10.06 10.06 0 01-1.84-1.69 14.64 14.64 0 00-2.82-2.5 9 9 0 00-9.5 0 14.64 14.64 0 00-2.82 2.5 10.47 10.47 0 01-1.84 1.7 4.09 4.09 0 01-4.2 0 10.13 10.13 0 01-1.84-1.7 15 15 0 00-2.82-2.5 9 9 0 00-9.5 0 14.64 14.64 0 00-2.82 2.5 10.48 10.48 0 01-1.85 1.7 3.47 3.47 0 01-1.78.56h-2.47a3.47 3.47 0 01-1.78-.56 10.48 10.48 0 01-1.85-1.7 14.64 14.64 0 00-2.82-2.5 9 9 0 00-9.5 0 14.64 14.64 0 00-2.82 2.5 10.13 10.13 0 01-1.84 1.7 4.09 4.09 0 01-4.2 0 10.13 10.13 0 01-1.84-1.7 15 15 0 00-2.82-2.5 9 9 0 00-9.51 0 15.27 15.27 0 00-2.82 2.5 10.13 10.13 0 01-1.84 1.7 4.07 4.07 0 01-4.19 0 10.48 10.48 0 01-1.85-1.7 14.64 14.64 0 00-2.82-2.5 9 9 0 00-9.5 0 14.64 14.64 0 00-2.82 2.5 9.83 9.83 0 01-1.85 1.7 4.07 4.07 0 01-4.19 0 10.47 10.47 0 01-1.84-1.7 14.64 14.64 0 00-2.82-2.5 9 9 0 00-9.5 0 14.64 14.64 0 00-2.82 2.5 10.14 10.14 0 01-1.85 1.7 4.07 4.07 0 01-4.19 0 10.13 10.13 0 01-1.84-1.7 15.27 15.27 0 00-2.82-2.5 9 9 0 00-9.51 0 15 15 0 00-2.82 2.5 10.13 10.13 0 01-1.84 1.7 4.07 4.07 0 01-4.19 0 10.14 10.14 0 01-1.85-1.7 14.54 14.54 0 00-2.81-2.51 9 9 0 00-9.51 0 14.64 14.64 0 00-2.82 2.5 9.83 9.83 0 01-1.85 1.7 4.06 4.06 0 01-4.18 0 9.83 9.83 0 01-1.85-1.7 14.64 14.64 0 00-2.82-2.5 9 9 0 00-9.5 0 15 15 0 00-2.83 2.5 10.13 10.13 0 01-1.84 1.7 4.07 4.07 0 01-4.19 0 10.13 10.13 0 01-1.84-1.7 15.27 15.27 0 00-2.82-2.5 9 9 0 00-9.51 0 14.64 14.64 0 00-2.82 2.5 10.13 10.13 0 01-1.84 1.7 4.09 4.09 0 01-4.2 0 10.4 10.4 0 01-1.84-1.69 14.64 14.64 0 00-2.82-2.5 9 9 0 00-9.5 0 14.64 14.64 0 00-2.82 2.5 10.14 10.14 0 01-1.85 1.7 4 4 0 01-4.36-.13l-1.4-1-.56-.57a15 15 0 00-2.76-2.46 8.58 8.58 0 00-4.62-1.38h-.09a8.56 8.56 0 00-4.62 1.38 15 15 0 00-2.76 2.46 13.62 13.62 0 01-1.35 1.32l-.36.25-1 .43a3.82 3.82 0 01-1.5.28 3.61 3.61 0 01-2.1-.58 10.13 10.13 0 01-1.84-1.7 15.27 15.27 0 00-2.82-2.5 9 9 0 00-9.51 0 15 15 0 00-2.82 2.5 10.13 10.13 0 01-1.84 1.7 3.61 3.61 0 01-2.1.58 3.56 3.56 0 01-2.09-.58 9.83 9.83 0 01-1.85-1.7 14.64 14.64 0 00-2.82-2.5 9 9 0 00-9.5 0 14.64 14.64 0 00-2.82 2.5 10.14 10.14 0 01-1.85 1.7 4.07 4.07 0 01-4.19 0 10.13 10.13 0 01-1.84-1.7 15.27 15.27 0 00-2.82-2.5 9 9 0 00-9.5 0 15 15 0 00-2.83 2.5 10.13 10.13 0 01-1.84 1.7 4.07 4.07 0 01-4.19 0 10.4 10.4 0 01-1.84-1.69 15.27 15.27 0 00-2.82-2.5 9 9 0 00-9.51 0 14.64 14.64 0 00-2.82 2.5 10.13 10.13 0 01-1.84 1.7 3.57 3.57 0 01-1.7.56h-3a3.56 3.56 0 01-1.69-.56 10.13 10.13 0 01-1.84-1.7 15.27 15.27 0 00-2.82-2.5 9 9 0 00-9.51 0 15 15 0 00-2.82 2.5 10.13 10.13 0 01-1.84 1.7 4.07 4.07 0 01-4.19 0 10.77 10.77 0 01-1.85-1.69 14.61 14.61 0 00-2.82-2.5 9 9 0 00-9.5 0 14.64 14.64 0 00-2.82 2.5 10.14 10.14 0 01-1.85 1.7 4.07 4.07 0 01-4.19 0 10.13 10.13 0 01-1.84-1.7 15.27 15.27 0 00-2.82-2.5 9 9 0 00-9.51 0 15.27 15.27 0 00-2.82 2.5 10.13 10.13 0 01-1.84 1.7 4.07 4.07 0 01-4.19 0 10.48 10.48 0 01-1.85-1.7 14.64 14.64 0 00-2.82-2.5 9 9 0 00-9.5 0 14.64 14.64 0 00-2.82 2.5 10.13 10.13 0 01-1.84 1.7 4.09 4.09 0 01-4.2 0 10.13 10.13 0 01-1.84-1.7 14.64 14.64 0 00-2.82-2.5 9 9 0 00-9.5 0 14.64 14.64 0 00-2.82 2.5 10.48 10.48 0 01-1.85 1.7 3.5 3.5 0 01-1.93.57H1383a3.53 3.53 0 01-1.93-.57 10.13 10.13 0 01-1.84-1.7 14.64 14.64 0 00-2.82-2.5 9 9 0 00-9.5 0 14.64 14.64 0 00-2.82 2.5 10.14 10.14 0 01-1.85 1.7 4.07 4.07 0 01-4.19 0 10.4 10.4 0 01-1.84-1.69 15.27 15.27 0 00-2.82-2.5 9 9 0 00-9.51 0 14.64 14.64 0 00-2.82 2.5 10.4 10.4 0 01-1.84 1.69 3.61 3.61 0 01-2.1.58 3.56 3.56 0 01-2.09-.58 9.83 9.83 0 01-1.85-1.7 14.64 14.64 0 00-2.82-2.5 9 9 0 00-9.5 0 14.33 14.33 0 00-2.82 2.51 10.14 10.14 0 01-1.85 1.7 4.07 4.07 0 01-4.19 0 10.4 10.4 0 01-1.84-1.69 15.27 15.27 0 00-2.82-2.5 9 9 0 00-9.51 0 15.27 15.27 0 00-2.82 2.5 10.13 10.13 0 01-1.84 1.7 4.07 4.07 0 01-4.19 0 10.48 10.48 0 01-1.85-1.7 14.64 14.64 0 00-2.82-2.5 9 9 0 00-9.5 0 14.64 14.64 0 00-2.82 2.5 9.83 9.83 0 01-1.85 1.7 3.55 3.55 0 01-1.92.57l-.45-.09-.46.09a3.55 3.55 0 01-1.92-.57 10.14 10.14 0 01-1.85-1.7 14.64 14.64 0 00-2.82-2.5 9 9 0 00-9.5 0 14.64 14.64 0 00-2.82 2.5 10.14 10.14 0 01-1.85 1.7 4.07 4.07 0 01-4.19 0 10.4 10.4 0 01-1.84-1.69 15 15 0 00-2.82-2.5 9 9 0 00-9.51 0 14.63 14.63 0 00-2.82 2.51 10.13 10.13 0 01-1.84 1.7 3.61 3.61 0 01-2.1.58 3.56 3.56 0 01-2.09-.58 10.48 10.48 0 01-1.85-1.7 14.64 14.64 0 00-2.82-2.5 9 9 0 00-9.5 0 14.64 14.64 0 00-2.82 2.5 10.14 10.14 0 01-1.85 1.7 4.07 4.07 0 01-4.19 0 10.4 10.4 0 01-1.84-1.69 15.27 15.27 0 00-2.82-2.5 9 9 0 00-9.5 0 15 15 0 00-2.83 2.5 10.13 10.13 0 01-1.84 1.7 4.07 4.07 0 01-4.19 0 10.13 10.13 0 01-1.84-1.7 15.27 15.27 0 00-2.82-2.5 9 9 0 00-9.51 0 14.64 14.64 0 00-2.82 2.5 10.13 10.13 0 01-1.84 1.7 3.51 3.51 0 01-1.78.56h-2.48a3.51 3.51 0 01-1.78-.56 10.13 10.13 0 01-1.84-1.7 14.64 14.64 0 00-2.82-2.5 9 9 0 00-9.5 0 14.64 14.64 0 00-2.82 2.5 10.48 10.48 0 01-1.85 1.7 4.07 4.07 0 01-4.19 0 10.4 10.4 0 01-1.84-1.69 15 15 0 00-2.83-2.5 9 9 0 00-9.5 0 14.64 14.64 0 00-2.82 2.5 10.26 10.26 0 01-1.82 1.68 4.09 4.09 0 01-4.2 0 10.13 10.13 0 01-1.84-1.7 14.64 14.64 0 00-2.82-2.5 9 9 0 00-9.51 0 14.86 14.86 0 00-2.81 2.5 10.48 10.48 0 01-1.85 1.7 4.07 4.07 0 01-4.19 0 10.4 10.4 0 01-1.84-1.69 15.27 15.27 0 00-2.82-2.5 9 9 0 00-9.51 0 15.27 15.27 0 00-2.82 2.5 10.13 10.13 0 01-1.84 1.7 4.07 4.07 0 01-4.19 0 10.48 10.48 0 01-1.85-1.7 14.64 14.64 0 00-2.82-2.5 9 9 0 00-9.5 0 14.64 14.64 0 00-2.82 2.5 9.83 9.83 0 01-1.85 1.7 3.56 3.56 0 01-2.09.58 3.61 3.61 0 01-2.1-.58 10.13 10.13 0 01-1.84-1.7 14.64 14.64 0 00-2.82-2.5 9 9 0 00-9.5 0 15 15 0 00-2.83 2.5 10.13 10.13 0 01-1.84 1.7 4.07 4.07 0 01-4.19 0 10.13 10.13 0 01-1.84-1.7 15.27 15.27 0 00-2.82-2.5 9 9 0 00-9.51 0 14.64 14.64 0 00-2.82 2.5 10.13 10.13 0 01-1.84 1.7 3.61 3.61 0 01-2.1.58 3.56 3.56 0 01-2.09-.58 9.83 9.83 0 01-1.85-1.7 14.64 14.64 0 00-2.82-2.5 9 9 0 00-9.5 0 14.64 14.64 0 00-2.82 2.5 10.48 10.48 0 01-1.85 1.7 4.07 4.07 0 01-4.19 0 10.13 10.13 0 01-1.84-1.7 15.27 15.27 0 00-2.82-2.5 9 9 0 00-9.51 0 15.27 15.27 0 00-2.82 2.5 10.13 10.13 0 01-1.84 1.7 3.61 3.61 0 01-2.1.58 3.57 3.57 0 01-1.72-.37 5.94 5.94 0 01-1.38-1l-3.9-2.5a12.2 12.2 0 00-.86-.67 8.49 8.49 0 00-4.13-1.49h-.43a8.45 8.45 0 00-4.12 1.49 10.12 10.12 0 00-1.26 1 11.43 11.43 0 01-2 1.51l-2.4 1.41a3.57 3.57 0 01-2.19.65 3.61 3.61 0 01-2.1-.58 10.13 10.13 0 01-1.84-1.7 15.27 15.27 0 00-2.82-2.5 9 9 0 00-9.51 0 14.64 14.64 0 00-2.82 2.5 10.13 10.13 0 01-1.84 1.7 3.61 3.61 0 01-2.1.58 3.56 3.56 0 01-2.09-.58 9.83 9.83 0 01-1.85-1.7 14.64 14.64 0 00-2.82-2.5 9 9 0 00-9.5 0 14.64 14.64 0 00-2.82 2.5 10.14 10.14 0 01-1.85 1.7 4.07 4.07 0 01-4.19 0 10.13 10.13 0 01-1.84-1.7 15.27 15.27 0 00-2.82-2.5 9 9 0 00-9.5 0 15 15 0 00-2.83 2.5 10.13 10.13 0 01-1.84 1.7 4.07 4.07 0 01-4.19 0 10.13 10.13 0 01-1.84-1.7 15 15 0 00-2.83-2.5 9 9 0 00-9.5 0 14.64 14.64 0 00-2.82 2.5 10.13 10.13 0 01-1.84 1.7 3.57 3.57 0 01-1.7.56h-3a3.56 3.56 0 01-1.69-.56 10.13 10.13 0 01-1.84-1.7 15.27 15.27 0 00-2.82-2.5 9 9 0 00-9.51 0 15 15 0 00-2.82 2.5 10.13 10.13 0 01-1.84 1.7 3.61 3.61 0 01-2.1.58 3.56 3.56 0 01-2.09-.58 10.41 10.41 0 01-1.85-1.69 14.64 14.64 0 00-2.82-2.5 9 9 0 00-9.5 0 15 15 0 00-2.83 2.5 10.4 10.4 0 01-1.84 1.69 4.07 4.07 0 01-4.19 0 10.13 10.13 0 01-1.84-1.7 15.27 15.27 0 00-2.82-2.5 9 9 0 00-9.51 0 14.64 14.64 0 00-2.82 2.5 10.13 10.13 0 01-1.84 1.7 3.61 3.61 0 01-2.1.58 3.56 3.56 0 01-2.09-.58 10.41 10.41 0 01-1.85-1.69 14.64 14.64 0 00-2.82-2.5 9 9 0 00-9.5 0 14.64 14.64 0 00-2.82 2.5 9.83 9.83 0 01-1.85 1.7 3.56 3.56 0 01-2.09.58 3.61 3.61 0 01-2.1-.58 10.13 10.13 0 01-1.84-1.7 14.64 14.64 0 00-2.82-2.5 9 9 0 00-9.51 0 15.27 15.27 0 00-2.82 2.5 10.13 10.13 0 01-1.84 1.7 3.5 3.5 0 01-1.93.57h-1.13a3.53 3.53 0 01-1.93-.57 10.4 10.4 0 01-1.84-1.69 14.64 14.64 0 00-2.82-2.5 9 9 0 00-9.51 0 14.86 14.86 0 00-2.81 2.5 10.48 10.48 0 01-1.85 1.7 4.07 4.07 0 01-4.19 0 10.13 10.13 0 01-1.84-1.7l-.11-.12.11.12a14.32 14.32 0 00-2.82-2.5 9 9 0 00-9.5 0 14.64 14.64 0 00-2.82 2.5 10.4 10.4 0 01-1.84 1.69 4.09 4.09 0 01-4.2 0 10.13 10.13 0 01-1.84-1.7l-.11-.12.11.12a14.92 14.92 0 00-2.82-2.5 9 9 0 00-9.51 0 15.27 15.27 0 00-2.82 2.5 10.13 10.13 0 01-1.84 1.7 4.07 4.07 0 01-4.19 0 10.13 10.13 0 01-1.84-1.7 15.27 15.27 0 00-2.82-2.5 9 9 0 00-9.51 0 15.27 15.27 0 00-2.82 2.5 10.13 10.13 0 01-1.84 1.7 4.07 4.07 0 01-4.19 0 10.4 10.4 0 01-1.84-1.69 14.64 14.64 0 00-2.82-2.5 9 9 0 00-9.5 0 14.64 14.64 0 00-2.82 2.5 9.83 9.83 0 01-1.85 1.7 3.55 3.55 0 01-1.92.57h-.91a3.55 3.55 0 01-1.92-.57 10.08 10.08 0 01-1.85-1.69 14.64 14.64 0 00-2.82-2.5 9 9 0 00-9.5 0 14.64 14.64 0 00-2.82 2.5 10.14 10.14 0 01-1.85 1.7 4.07 4.07 0 01-4.19 0 10.13 10.13 0 01-1.84-1.7 15.27 15.27 0 00-2.82-2.5 9 9 0 00-9.51 0 14.64 14.64 0 00-2.82 2.5 10.4 10.4 0 01-1.84 1.69 3.61 3.61 0 01-2.1.58 3.56 3.56 0 01-2.09-.58 9.83 9.83 0 01-1.85-1.7 14.64 14.64 0 00-2.82-2.5 9 9 0 00-9.5 0 14.64 14.64 0 00-2.82 2.5 10.14 10.14 0 01-1.85 1.7 4.07 4.07 0 01-4.19 0 10.4 10.4 0 01-1.84-1.69 15.27 15.27 0 00-2.82-2.5 9 9 0 00-9.51 0 15.27 15.27 0 00-2.82 2.5 10.13 10.13 0 01-1.84 1.7 4.07 4.07 0 01-4.19 0 10.4 10.4 0 01-1.84-1.69 15 15 0 00-2.83-2.5 9 9 0 00-9.5 0 14.64 14.64 0 00-2.82 2.5 10.13 10.13 0 01-1.84 1.7 3.51 3.51 0 01-1.78.56h-2.48a3.51 3.51 0 01-1.78-.56 10.13 10.13 0 01-1.84-1.7 14.64 14.64 0 00-2.82-2.5 9 9 0 00-9.51 0 15.27 15.27 0 00-2.82 2.5 10.13 10.13 0 01-1.84 1.7 4.07 4.07 0 01-4.19 0 10.4 10.4 0 01-1.84-1.69 15 15 0 00-2.83-2.5 9 9 0 00-9.5 0 14.64 14.64 0 00-2.82 2.5 10.13 10.13 0 01-1.84 1.7 4.09 4.09 0 01-4.2 0 10.13 10.13 0 01-1.84-1.7 14.64 14.64 0 00-2.82-2.5 9 9 0 00-9.51 0 15.27 15.27 0 00-2.82 2.5 10.13 10.13 0 01-1.84 1.7 4.07 4.07 0 01-4.19 0 10.13 10.13 0 01-1.84-1.7 15.27 15.27 0 00-2.82-2.5 9 9 0 00-9.51 0 15 15 0 00-2.82 2.5 10.13 10.13 0 01-1.84 1.7 4.07 4.07 0 01-4.19 0 10.48 10.48 0 01-1.85-1.7 14.64 14.64 0 00-2.82-2.5 9 9 0 00-9.5 0 14.64 14.64 0 00-2.82 2.5 9.83 9.83 0 01-1.85 1.7 4.07 4.07 0 01-4.19 0 10.13 10.13 0 01-1.84-1.7 14.64 14.64 0 00-2.82-2.5 9 9 0 00-9.51 0 15.27 15.27 0 00-2.82 2.5 10.13 10.13 0 01-1.84 1.7 4.07 4.07 0 01-4.19 0 10.13 10.13 0 01-1.84-1.7 15.27 15.27 0 00-2.82-2.5 9 9 0 00-9.51 0 14.64 14.64 0 00-2.82 2.5 9.83 9.83 0 01-1.85 1.7 3.56 3.56 0 01-2.09.58 3.61 3.61 0 01-2.1-.58 10.13 10.13 0 01-1.84-1.7 14.64 14.64 0 00-2.82-2.5 9 9 0 00-9.5 0 14.64 14.64 0 00-2.82 2.5 10.48 10.48 0 01-1.85 1.7 4.07 4.07 0 01-4.19 0 10.13 10.13 0 01-1.84-1.7 15.27 15.27 0 00-2.82-2.5 9 9 0 00-9.51 0 14.64 14.64 0 00-2.82 2.5 10.13 10.13 0 01-1.84 1.7 3.61 3.61 0 01-2.1.58 3.55 3.55 0 01-2.26-.71l-1.41-1-.55-.56a15.07 15.07 0 00-2.77-2.46 8.56 8.56 0 00-4.62-1.38h-.09a8.58 8.58 0 00-4.62 1.38 15 15 0 00-2.76 2.46 16 16 0 01-1.34 1.31l-.36.25-1 .43a3.87 3.87 0 01-1.51.28 3.58 3.58 0 01-2.09-.58 10.14 10.14 0 01-1.85-1.7 14.64 14.64 0 00-2.82-2.5 9 9 0 00-9.5 0 14.64 14.64 0 00-2.82 2.5 10.14 10.14 0 01-1.85 1.7 3.56 3.56 0 01-2.09.58 3.61 3.61 0 01-2.1-.58 10.4 10.4 0 01-1.84-1.69 15.27 15.27 0 00-2.82-2.5 9 9 0 00-9.51 0 15.27 15.27 0 00-2.82 2.5 10.13 10.13 0 01-1.84 1.7 4.07 4.07 0 01-4.19 0 10.13 10.13 0 01-1.84-1.7 14.64 14.64 0 00-2.82-2.5 9 9 0 00-9.5 0 14.64 14.64 0 00-2.82 2.5 10.13 10.13 0 01-1.84 1.7 3.61 3.61 0 01-2.1.58 3.56 3.56 0 01-2.09-.58 9.83 9.83 0 01-1.85-1.7 14.64 14.64 0 00-2.82-2.5 9 9 0 00-9.5 0 14.64 14.64 0 00-2.82 2.5 10.14 10.14 0 01-1.85 1.7 3.53 3.53 0 01-1.69.56h-3a3.53 3.53 0 01-1.69-.56 10.14 10.14 0 01-1.85-1.7 14.64 14.64 0 00-2.82-2.5 9 9 0 00-9.5 0 14.64 14.64 0 00-2.82 2.5 10.14 10.14 0 01-1.85 1.7 4.07 4.07 0 01-4.19 0 10.4 10.4 0 01-1.84-1.69 15.27 15.27 0 00-2.82-2.5 9 9 0 00-9.51 0 15 15 0 00-2.82 2.5 10.13 10.13 0 01-1.84 1.7 3.61 3.61 0 01-2.1.58 3.56 3.56 0 01-2.09-.58 9.83 9.83 0 01-1.85-1.7 14.64 14.64 0 00-2.82-2.5 9 9 0 00-9.5 0 14.64 14.64 0 00-2.82 2.5 10.14 10.14 0 01-1.85 1.7 4.07 4.07 0 01-4.19 0 10.13 10.13 0 01-1.84-1.7 15 15 0 00-2.82-2.5 9 9 0 00-9.5 0 15 15 0 00-2.83 2.5 10.13 10.13 0 01-1.84 1.7 4.07 4.07 0 01-4.19 0 10.13 10.13 0 01-1.84-1.7 15 15 0 00-2.83-2.5 9 9 0 00-9.5 0 14.64 14.64 0 00-2.82 2.5 10.13 10.13 0 01-1.84 1.7 3.53 3.53 0 01-1.93.57l-.57-.16-.56.16a3.5 3.5 0 01-1.93-.57 10.13 10.13 0 01-1.84-1.7 15.27 15.27 0 00-2.82-2.5 9 9 0 00-9.51 0 15 15 0 00-2.82 2.5 10.13 10.13 0 01-1.84 1.7 3.61 3.61 0 01-2.1.58 3.56 3.56 0 01-2.09-.58 10.41 10.41 0 01-1.85-1.69 14.64 14.64 0 00-2.82-2.5 8.62 8.62 0 00-4.75-1.35A8.62 8.62 0 00-4 958.72a15 15 0 00-2.83 2.5 10.4 10.4 0 01-1.84 1.69 3.58 3.58 0 01-2.09.58 3.59 3.59 0 01-2.1-.58 10.13 10.13 0 01-1.84-1.7 15 15 0 00-2.83-2.5 6 6 0 00-.66-.37q-1.81 1.84-3.54 3.66a4 4 0 011.73.59 11.17 11.17 0 011.94 1.78 14.47 14.47 0 002.71 2.42 8.31 8.31 0 004.58 1.31 8.3 8.3 0 004.57-1.31 14.47 14.47 0 002.71-2.42 11.17 11.17 0 011.94-1.78A4 4 0 01.74 962a4 4 0 012.29.62A11.17 11.17 0 015 964.4a14.47 14.47 0 002.71 2.42 8.3 8.3 0 004.57 1.31 8.34 8.34 0 004.58-1.31 14.8 14.8 0 002.71-2.42 10.82 10.82 0 011.94-1.78 3.94 3.94 0 012.28-.62 4 4 0 012.29.62A11.17 11.17 0 0128 964.4a14.47 14.47 0 002.71 2.42 8.3 8.3 0 004.57 1.31 2.41 2.41 0 00.4 0 2.41 2.41 0 00.4 0 8.34 8.34 0 004.58-1.31 14.8 14.8 0 002.71-2.42 10.82 10.82 0 011.94-1.78 4.52 4.52 0 014.57 0 11.17 11.17 0 011.94 1.78 14.47 14.47 0 002.71 2.42 8.64 8.64 0 009.15 0 14.47 14.47 0 002.71-2.42 11.17 11.17 0 011.94-1.78 4.52 4.52 0 014.57 0 11.17 11.17 0 011.94 1.78 14.8 14.8 0 002.71 2.42 8.64 8.64 0 009.15 0 14.47 14.47 0 002.71-2.42 11.17 11.17 0 011.94-1.78 4.54 4.54 0 014.58 0 11.17 11.17 0 011.94 1.78 14.47 14.47 0 002.71 2.42 8.64 8.64 0 009.15 0 14.8 14.8 0 002.71-2.42 11.17 11.17 0 011.94-1.78 4.52 4.52 0 014.57 0 11.17 11.17 0 011.94 1.78 14.8 14.8 0 002.71 2.42 8.64 8.64 0 009.15 0 14.47 14.47 0 002.71-2.42 11.17 11.17 0 011.94-1.78 4.54 4.54 0 014.58 0 11.17 11.17 0 011.94 1.78 14.47 14.47 0 002.71 2.42 8.3 8.3 0 004.57 1.31 3.51 3.51 0 001.09-.19 3.63 3.63 0 001.1.19 8.3 8.3 0 004.57-1.31 14.47 14.47 0 002.71-2.42 11.17 11.17 0 011.94-1.78 4.54 4.54 0 014.58 0 11.17 11.17 0 011.94 1.78 14.47 14.47 0 002.71 2.42 8.63 8.63 0 009.14 0 14.47 14.47 0 002.71-2.42 11.17 11.17 0 011.94-1.78 4.54 4.54 0 014.58 0 11.17 11.17 0 011.94 1.78 14.47 14.47 0 002.71 2.42 8.64 8.64 0 009.15 0 14.8 14.8 0 002.71-2.42 11.17 11.17 0 011.94-1.78 4.52 4.52 0 014.57 0 11.17 11.17 0 011.94 1.78 14.8 14.8 0 002.71 2.42 8.64 8.64 0 009.15 0 14.47 14.47 0 002.71-2.42 11.17 11.17 0 011.94-1.78 4.54 4.54 0 014.58 0 11.17 11.17 0 011.94 1.78 14.47 14.47 0 002.71 2.42 8.3 8.3 0 004.57 1.31h.08l3.06-.48a8.57 8.57 0 002.65-1.52 18.77 18.77 0 001.79-1.73 11.2 11.2 0 011.91-1.75 4 4 0 014.36 0 10.82 10.82 0 011.9 1.75l.12.12a11.5 11.5 0 004.7 3l.57.19a6.46 6.46 0 002.17.4 8.34 8.34 0 004.58-1.31 14.8 14.8 0 002.71-2.42 10.82 10.82 0 011.94-1.78 4.52 4.52 0 014.57 0 11.17 11.17 0 011.94 1.78 14.47 14.47 0 002.71 2.42 8.64 8.64 0 009.15 0 14.47 14.47 0 002.71-2.42 11.17 11.17 0 011.94-1.78 4.54 4.54 0 014.58 0 11.16 11.16 0 011.93 1.78 14.89 14.89 0 002.72 2.42 8.63 8.63 0 009.14 0 14.47 14.47 0 002.71-2.42 11.17 11.17 0 011.94-1.78 4.54 4.54 0 014.58 0 11.17 11.17 0 011.94 1.78 14.47 14.47 0 002.71 2.42 8.64 8.64 0 009.15 0 14.47 14.47 0 002.71-2.42 11.17 11.17 0 011.94-1.78 4.52 4.52 0 014.57 0 10.82 10.82 0 011.94 1.78 15.14 15.14 0 002.71 2.42 8.64 8.64 0 009.15 0 14.47 14.47 0 002.71-2.42 11.17 11.17 0 011.94-1.78 4.54 4.54 0 014.58 0 11.17 11.17 0 011.94 1.78 14.47 14.47 0 002.71 2.42 8.64 8.64 0 009.15 0 14.8 14.8 0 002.71-2.42 11.17 11.17 0 011.94-1.78 4.52 4.52 0 014.57 0 11.17 11.17 0 011.94 1.78 14.47 14.47 0 002.71 2.42 8.64 8.64 0 009.15 0 14.47 14.47 0 002.71-2.42 11.17 11.17 0 011.94-1.78 4.52 4.52 0 014.57 0 10.82 10.82 0 011.94 1.78 14.8 14.8 0 002.71 2.42 8.64 8.64 0 009.15 0 14.47 14.47 0 002.71-2.42 11.54 11.54 0 011.94-1.78 4.54 4.54 0 014.58 0 11.17 11.17 0 011.94 1.78 14.36 14.36 0 002.7 2.41 8.64 8.64 0 009.15 0 14.47 14.47 0 002.71-2.42 11.17 11.17 0 011.94-1.78 4.54 4.54 0 014.58 0 11.16 11.16 0 011.93 1.78 14.8 14.8 0 002.71 2.42 8.34 8.34 0 004.58 1.31 3.93 3.93 0 00.92-.13 3.85 3.85 0 00.92.13 8.3 8.3 0 004.57-1.31 14.89 14.89 0 002.72-2.42 11.16 11.16 0 011.93-1.78 4.54 4.54 0 014.58 0 11.17 11.17 0 011.94 1.78 14.47 14.47 0 002.71 2.42 8.64 8.64 0 009.15 0 14.8 14.8 0 002.71-2.42 11.17 11.17 0 011.94-1.78 4.52 4.52 0 014.57 0 11.17 11.17 0 011.94 1.78 14.8 14.8 0 002.71 2.42 8.64 8.64 0 009.15 0 14.47 14.47 0 002.71-2.42 10.78 10.78 0 011.94-1.78 4.54 4.54 0 014.58 0 11.17 11.17 0 011.94 1.78 14.47 14.47 0 002.71 2.42 8.64 8.64 0 009.15 0 14.8 14.8 0 002.71-2.42 10.46 10.46 0 011.94-1.78 4.52 4.52 0 014.57 0 11.17 11.17 0 011.94 1.78 14.8 14.8 0 002.71 2.42 8.64 8.64 0 009.15 0 14.47 14.47 0 002.71-2.42 11.17 11.17 0 011.94-1.78 4.54 4.54 0 014.58 0 11.17 11.17 0 011.94 1.78 14.47 14.47 0 002.71 2.42 8.3 8.3 0 004.57 1.31h.57a8.3 8.3 0 004.57-1.31 14.47 14.47 0 002.71-2.42 11.17 11.17 0 011.94-1.78 4.54 4.54 0 014.58 0 11.17 11.17 0 011.94 1.78 14.47 14.47 0 002.71 2.42 8.64 8.64 0 009.15 0 14.8 14.8 0 002.71-2.42 11.17 11.17 0 011.94-1.78 4.52 4.52 0 014.57 0 11.17 11.17 0 011.94 1.78 14.47 14.47 0 002.71 2.42 8.64 8.64 0 009.15 0 14.47 14.47 0 002.71-2.42 10.78 10.78 0 011.94-1.78 4.54 4.54 0 014.58 0 11.54 11.54 0 011.94 1.78 14.45 14.45 0 002.68 2.38 8.64 8.64 0 009.15 0 15.14 15.14 0 002.71-2.42 10.77 10.77 0 011.93-1.78 4.54 4.54 0 014.58 0 11.17 11.17 0 011.94 1.78 14.47 14.47 0 002.71 2.42 8.64 8.64 0 009.15 0 14.47 14.47 0 002.71-2.42 11.17 11.17 0 011.94-1.78 4.54 4.54 0 014.58 0 11.16 11.16 0 011.93 1.78 14.8 14.8 0 002.71 2.42 8.34 8.34 0 004.58 1.31 2.41 2.41 0 00.4 0 2.33 2.33 0 00.4 0 8.3 8.3 0 004.57-1.31 14.47 14.47 0 002.71-2.42 11.17 11.17 0 011.94-1.78 4.52 4.52 0 014.57 0 10.84 10.84 0 012 1.78 14.47 14.47 0 002.71 2.42 8.63 8.63 0 009.14 0 14.47 14.47 0 002.71-2.42 11.17 11.17 0 011.94-1.78 4.54 4.54 0 014.58 0 11.17 11.17 0 011.94 1.78 14.47 14.47 0 002.71 2.42 8.63 8.63 0 009.14 0 14.89 14.89 0 002.72-2.42 10.82 10.82 0 011.94-1.78 4.52 4.52 0 014.57 0 11.17 11.17 0 011.94 1.78 14.47 14.47 0 002.71 2.42 8.64 8.64 0 009.15 0 14.47 14.47 0 002.71-2.42 11.17 11.17 0 011.94-1.78 4.54 4.54 0 014.58 0 11.17 11.17 0 011.94 1.78 14.47 14.47 0 002.71 2.42 8.64 8.64 0 009.15 0 14.8 14.8 0 002.71-2.42 11.17 11.17 0 011.94-1.78 4.52 4.52 0 014.57 0 11.17 11.17 0 011.94 1.78 14.47 14.47 0 002.71 2.42 8.27 8.27 0 004.56 1.31h2.21a8.27 8.27 0 004.56-1.31 14.89 14.89 0 002.66-2.35 10.82 10.82 0 011.94-1.78 4.52 4.52 0 014.57 0 11.17 11.17 0 011.94 1.78v.05a14.67 14.67 0 002.67 2.37 8.64 8.64 0 009.15 0 14.8 14.8 0 002.71-2.42 11.17 11.17 0 011.94-1.78 4.52 4.52 0 014.57 0 11.17 11.17 0 011.94 1.78 14.36 14.36 0 002.67 2.38 8.64 8.64 0 009.15 0 14.47 14.47 0 002.71-2.42 11.17 11.17 0 011.94-1.78 4.54 4.54 0 014.58 0 11.17 11.17 0 011.94 1.78 14.47 14.47 0 002.71 2.42 8.64 8.64 0 009.15 0 14.8 14.8 0 002.71-2.42 10.82 10.82 0 011.94-1.78 4.52 4.52 0 014.57 0 11.17 11.17 0 011.94 1.78 14.8 14.8 0 002.71 2.42 8.31 8.31 0 004.58 1.31A7.53 7.53 0 00920 968l1.8-.23a7.64 7.64 0 003.91-1.68 18.77 18.77 0 001.79-1.73 11.86 11.86 0 011.79-1.66 2.61 2.61 0 013.49 0 11.4 11.4 0 011.79 1.66 14.85 14.85 0 002.75 2.44l3.53.95a8.75 8.75 0 002.4.34 8.34 8.34 0 004.58-1.31 14.8 14.8 0 002.71-2.42 11.17 11.17 0 011.94-1.78 4.52 4.52 0 014.57 0 11.17 11.17 0 011.95 1.82 14.8 14.8 0 002.71 2.42 8.64 8.64 0 009.15 0 14.47 14.47 0 002.71-2.42 11.17 11.17 0 011.94-1.78 4.54 4.54 0 014.58 0 11.17 11.17 0 011.91 1.78 14.47 14.47 0 002.71 2.42 8.64 8.64 0 009.15 0 14.8 14.8 0 002.71-2.42 11.54 11.54 0 011.94-1.78 4.54 4.54 0 014.58 0 11.17 11.17 0 011.94 1.78 14.8 14.8 0 002.71 2.42 8.64 8.64 0 009.15 0 14.47 14.47 0 002.71-2.42 11.17 11.17 0 011.94-1.78 4.54 4.54 0 014.58 0 11.16 11.16 0 011.93 1.78 14.89 14.89 0 002.72 2.42 8.63 8.63 0 009.14 0 14.47 14.47 0 002.71-2.42 11.16 11.16 0 011.93-1.78 4.54 4.54 0 014.58 0 11.17 11.17 0 011.94 1.78 14.32 14.32 0 002.67 2.38 8.64 8.64 0 009.15 0 14.8 14.8 0 002.71-2.42 11.17 11.17 0 011.94-1.78 4.52 4.52 0 014.57 0 11.17 11.17 0 011.94 1.78 14.47 14.47 0 002.71 2.42 8.64 8.64 0 009.15 0 14.47 14.47 0 002.71-2.42 10.78 10.78 0 011.94-1.78 4.54 4.54 0 014.58 0 11.54 11.54 0 011.94 1.78 14.89 14.89 0 002.72 2.42 8.64 8.64 0 009.15 0 14.8 14.8 0 002.71-2.42 11.16 11.16 0 011.93-1.78 4.54 4.54 0 014.58 0 11.17 11.17 0 011.94 1.78 14.8 14.8 0 002.71 2.42 8.64 8.64 0 009.15 0 14.47 14.47 0 002.71-2.42 11.17 11.17 0 011.94-1.78 4.54 4.54 0 014.58 0 10.81 10.81 0 011.93 1.78 14.8 14.8 0 002.71 2.42 8.33 8.33 0 004.57 1.31h1.86a8.33 8.33 0 004.57-1.31 14.8 14.8 0 002.71-2.42 10.82 10.82 0 011.94-1.78 4.52 4.52 0 014.57 0 11.17 11.17 0 011.94 1.78 14.47 14.47 0 002.71 2.42 8.64 8.64 0 009.15 0 14.47 14.47 0 002.71-2.42 11.17 11.17 0 011.94-1.78 4.52 4.52 0 014.57 0 11.19 11.19 0 011.95 1.78 14.8 14.8 0 002.71 2.42 8.64 8.64 0 009.15 0 14.47 14.47 0 002.71-2.42 11.17 11.17 0 011.94-1.78 4.54 4.54 0 014.58 0 11.17 11.17 0 011.94 1.78 14.47 14.47 0 002.71 2.42 8.64 8.64 0 009.15 0 14.8 14.8 0 002.71-2.42 10.82 10.82 0 011.94-1.78 4.52 4.52 0 014.57 0 11.17 11.17 0 011.94 1.78 14.8 14.8 0 002.71 2.42 8.64 8.64 0 009.15 0 14.47 14.47 0 002.71-2.42 11.17 11.17 0 011.94-1.78 4.54 4.54 0 014.58 0 11.17 11.17 0 011.94 1.78 14.47 14.47 0 002.71 2.42 8.3 8.3 0 004.57 1.31h.57a8.3 8.3 0 004.57-1.31 14.47 14.47 0 002.71-2.42 11.17 11.17 0 011.94-1.78 4.54 4.54 0 014.58 0 11.17 11.17 0 011.94 1.78 14.47 14.47 0 002.71 2.42 8.64 8.64 0 009.15 0 14.8 14.8 0 002.71-2.42 11.17 11.17 0 011.94-1.78 4.52 4.52 0 014.57 0 11.17 11.17 0 011.94 1.78 14.47 14.47 0 002.71 2.42 8.64 8.64 0 009.15 0 14.47 14.47 0 002.71-2.42 11.17 11.17 0 011.94-1.78 4.54 4.54 0 014.58 0 11.17 11.17 0 011.94 1.78 14.47 14.47 0 002.71 2.42 8.64 8.64 0 009.15 0 14.8 14.8 0 002.71-2.42 11.54 11.54 0 011.94-1.78 4.54 4.54 0 014.58 0 11.17 11.17 0 011.94 1.78 14.8 14.8 0 002.71 2.42 8.64 8.64 0 009.15 0 14.47 14.47 0 002.71-2.42 11.17 11.17 0 011.94-1.78 4.54 4.54 0 014.58 0 11.17 11.17 0 011.94 1.78 14.47 14.47 0 002.71 2.42 8.3 8.3 0 004.57 1.31 2.68 2.68 0 01.8 0 8.3 8.3 0 004.57-1.31 14.47 14.47 0 002.71-2.42 11.17 11.17 0 011.94-1.78 4.54 4.54 0 014.58 0 11.17 11.17 0 011.94 1.78 14.47 14.47 0 002.71 2.42 8.63 8.63 0 009.14 0 14.47 14.47 0 002.71-2.42 11.17 11.17 0 011.94-1.78 4.54 4.54 0 014.58 0 11.17 11.17 0 011.94 1.78 14.47 14.47 0 002.71 2.42 8.64 8.64 0 009.15 0 15.14 15.14 0 002.71-2.42 11.17 11.17 0 011.94-1.78 4.52 4.52 0 014.57 0 11.17 11.17 0 011.94 1.78 14.8 14.8 0 002.71 2.42 8.64 8.64 0 009.15 0 14.47 14.47 0 002.71-2.42 11.17 11.17 0 011.94-1.78 4.54 4.54 0 014.58 0 11.17 11.17 0 011.94 1.78 14.47 14.47 0 002.71 2.42 8.64 8.64 0 009.15 0 14.8 14.8 0 002.71-2.42 11.17 11.17 0 011.94-1.78 4.52 4.52 0 014.57 0 11.17 11.17 0 011.94 1.78 14.8 14.8 0 002.71 2.42 8.3 8.3 0 004.57 1.31h2.2a8.33 8.33 0 004.57-1.31 14.8 14.8 0 002.71-2.42 10.82 10.82 0 011.94-1.78 3.94 3.94 0 012.28-.62 4 4 0 012.29.62 11.17 11.17 0 011.94 1.78 14.47 14.47 0 002.71 2.42 8.64 8.64 0 009.15 0 14.47 14.47 0 002.71-2.42 11.17 11.17 0 011.94-1.78 4.52 4.52 0 014.57 0 11.19 11.19 0 012 1.78 14.8 14.8 0 002.71 2.42 8.64 8.64 0 009.15 0 14.47 14.47 0 002.71-2.42 11.17 11.17 0 011.94-1.78 4.54 4.54 0 014.58 0 11.17 11.17 0 011.94 1.78 14.47 14.47 0 002.71 2.42 8.64 8.64 0 009.15 0 14.8 14.8 0 002.71-2.42 11.17 11.17 0 011.94-1.78 4.52 4.52 0 014.57 0 10.82 10.82 0 011.94 1.78 14.8 14.8 0 002.71 2.42 8.34 8.34 0 004.58 1.31h.08l1.89-.3a8 8 0 003.82-1.7 19.83 19.83 0 001.78-1.73 10.5 10.5 0 011.91-1.75 4 4 0 014.35 0 11.2 11.2 0 011.91 1.75 14.43 14.43 0 002.74 2.44l2.65.89a6.45 6.45 0 002.16.4 8.3 8.3 0 004.57-1.31 14.47 14.47 0 002.71-2.42 11.17 11.17 0 011.94-1.78 4.54 4.54 0 014.58 0 11.17 11.17 0 011.94 1.78 14.89 14.89 0 002.72 2.42 8.63 8.63 0 009.14 0 14.89 14.89 0 002.72-2.42 10.81 10.81 0 011.93-1.78 4.54 4.54 0 014.58 0 11.17 11.17 0 011.94 1.78 14.47 14.47 0 002.71 2.42 8.64 8.64 0 009.15 0 14.8 14.8 0 002.71-2.42 11.17 11.17 0 011.94-1.78 4.52 4.52 0 014.57 0 10.82 10.82 0 011.94 1.78l.22.23-.16-.17a14.09 14.09 0 002.65 2.35 8.63 8.63 0 009.14 0 14.47 14.47 0 002.71-2.42 11.17 11.17 0 011.94-1.78 4.54 4.54 0 014.58 0 10.78 10.78 0 011.94 1.78 14.47 14.47 0 002.71 2.42 8.64 8.64 0 009.15 0 14.8 14.8 0 002.71-2.42 11.17 11.17 0 011.94-1.78 4.52 4.52 0 014.57 0 11.17 11.17 0 011.94 1.78 14.8 14.8 0 002.71 2.42 8.64 8.64 0 009.15 0 14.47 14.47 0 002.71-2.42 11.17 11.17 0 011.94-1.78 4.54 4.54 0 014.58 0 11.17 11.17 0 011.94 1.78 14.69 14.69 0 002.7 2.41 8.64 8.64 0 009.15 0 14.47 14.47 0 002.71-2.42 10.77 10.77 0 011.93-1.78 4.54 4.54 0 014.58 0 11.17 11.17 0 011.94 1.78 14.47 14.47 0 002.71 2.42 8.64 8.64 0 009.15 0 14.47 14.47 0 002.71-2.42 11.17 11.17 0 011.94-1.78 4.54 4.54 0 014.58 0 11.17 11.17 0 011.94 1.78 14.89 14.89 0 002.72 2.42 8.63 8.63 0 009.14 0 14.47 14.47 0 002.71-2.42 11.17 11.17 0 011.94-1.78 4.54 4.54 0 014.58 0 11.17 11.17 0 011.94 1.78 14.47 14.47 0 002.71 2.42 8.3 8.3 0 004.57 1.31h1.84a8.31 8.31 0 004.58-1.31 14.47 14.47 0 002.71-2.42 10.78 10.78 0 011.94-1.78 4.54 4.54 0 014.58 0 11.54 11.54 0 011.94 1.78 14.57 14.57 0 002.72 2.42 8.63 8.63 0 009.14 0 14.89 14.89 0 002.72-2.42 10.81 10.81 0 011.93-1.78 4.54 4.54 0 014.58 0 11.17 11.17 0 011.94 1.78 14.47 14.47 0 002.71 2.42 8.63 8.63 0 009.14 0 14.57 14.57 0 002.72-2.42 10.6 10.6 0 011.93-1.76 4.52 4.52 0 014.57 0 11.17 11.17 0 011.94 1.78 14.8 14.8 0 002.71 2.42 8.64 8.64 0 009.15 0 14.47 14.47 0 002.71-2.42 11.17 11.17 0 011.94-1.78 4.54 4.54 0 014.58 0 11.17 11.17 0 011.94 1.78 14.47 14.47 0 002.71 2.42 8.64 8.64 0 009.15 0 14.8 14.8 0 002.71-2.42 10.82 10.82 0 011.94-1.78 4.52 4.52 0 014.57 0 11.17 11.17 0 011.94 1.78 14.47 14.47 0 002.71 2.42 8.07 8.07 0 002.76 1.11q-2.68-4.83-5.62-9.54z"/></svg>