<svg xmlns="http://www.w3.org/2000/svg" width="1920" height="1080" viewBox="0 0 1920 1080"><defs/><defs><style>.cls-1,.cls-7{opacity:.7}.cls-2,.cls-6{opacity:.5}.cls-3,.cls-4,.cls-5,.cls-6,.cls-7{fill:#fff}.cls-4{opacity:.6}.cls-5{opacity:.3}</style></defs><g class="cls-1"><g class="cls-2"><path class="cls-3" d="M85.07 384a56.78 56.78 0 01-1.8 3.14c16.34 5.5 28.13 16.67 35.41 26.54 13-.54 23.81-2.71 24.55-4.36s-4.3-10.31-12-19.78A74.44 74.44 0 0185.07 384zM52.6 293a65.93 65.93 0 019.4 4.8c.45-.82.91-1.67 1.39-2.61a70.47 70.47 0 0126.24-27.39c.53-15.47-1.55-29.51-3.41-30.42S73 242.8 61.69 252a74.35 74.35 0 01-9.09 41zM81.52 316.51a69.23 69.23 0 012.21 3.44c14.2-9.12 29.82-11.34 42.35-10.77 7.5-12.19 12.2-23.85 11.14-25.48s-11.17-2-23.43-.63a74.4 74.4 0 01-32.27 33.44zM92.59 347.54a62.69 62.69 0 01.21 8.12c16.14-1.46 30.58 3.31 41.18 9.07 12.78-9.28 22.86-19.91 22.41-22-.4-1.83-10-6-22.23-9.11a74.24 74.24 0 01-41.57 13.92zM15.55 289.22a64.35 64.35 0 0110.5-1.11c-.07-.94-.16-1.91-.27-3-1.61-16.06 3-30.39 8.85-41.15-8-12.5-17-22.27-19-22-2.29.31-9.15 14.3-13.41 30.11a74.59 74.59 0 0113.33 37.15zM62.37 408.25c-.28.18-.56.37-.85.54 1.14 2.33 2.78 5.57 5.4 10a69.36 69.36 0 019.28 31.94c13.11 7.32 25.88 11.76 27.51 10.57s1.33-14.49-1.66-29a74.53 74.53 0 01-39.68-24.05zM39.26 422.86c.15-2.19.23-4.07.27-5.7-1.8.33-3.62.6-5.46.78v.32c1.83 18.62-4.71 34.92-11.81 46 7 11.32 14.45 19.85 16.28 19.67s6.3-7.92 10.54-18.38a74.42 74.42 0 01-9.82-42.69zM5.3 414.26c-1-.39-2.09-.8-3.11-1.23v.11C-4.26 429.07-16 440-26.73 446.75c1.16 12.35 3.67 22.28 5.29 22.92s10.61-5 20.05-13.5a74.06 74.06 0 016.69-41.91z"/></g><path class="cls-4" d="M43.6 290.07a65.07 65.07 0 1047.27 79 65.11 65.11 0 00-47.27-79zm29.8 74.61a47.12 47.12 0 11-34.19-57.15 47.1 47.1 0 0134.19 57.15z"/><path class="cls-3" d="M-9.34 299.64a65.35 65.35 0 0124.89-10.41c-3.29-40-34.84-59-38.2-57.65-3.56 1.45-10.74 38.3 11.45 65.73.67.82 1.28 1.59 1.86 2.33zM57 295.05l.94.49zM59.51 296.39l.91.53zM54.43 293.85l.86.39zM92.81 351.09v0zM92.6 347.54c37.74-1 58.42-28.63 57.44-32C149 311.86 113.22 301 83.7 320a65.18 65.18 0 018.9 27.54zM82.41 317.9zM81.5 316.52c35.4-19 40.2-55.46 37.6-58-2.76-2.68-39.44 5.46-55.73 36.73a97.3 97.3 0 01-1.39 2.61 65.23 65.23 0 0119.52 18.66zM26.05 288.12a65.29 65.29 0 0117.55 1.95 66.36 66.36 0 019 3c19.2-35.27 3.21-68.42-.35-69.12-3.78-.73-30 26.15-26.47 61.23.11 1.03.22 2 .27 2.94zM61.52 408.79l.58-.36a65.43 65.43 0 01-22.57 8.73c0 1.63-.12 3.51-.27 5.7-2.65 40.06 25.74 63.49 29.28 62.64 3.74-.91 16.28-36.3-1.62-66.69a141.26 141.26 0 01-5.4-10.02zM83.27 387.18a64.94 64.94 0 01-20.9 21.07c26.35 30.35 63 27 64.92 23.94s-12.73-34.48-44.02-45.01zM36.85 417.6h-.21zM92.8 355.66v-2.21A65.12 65.12 0 0185.07 384c35.14 16.21 66.45-.31 67-3.82.59-3.65-25.7-27.55-59.27-24.52zM2.19 413a64.77 64.77 0 01-23.43-17c-30.18 22.48-31.23 56.86-28.49 59.05 3 2.41 38.72-9.26 51.88-42zM34.07 417.94a65 65 0 01-22.27-1.68 66.19 66.19 0 01-6.5-2c-16.09 33.72-1.23 64.5 2.2 65.17 3.78.75 30.05-26.08 26.6-61.17z"/></g><path class="cls-5" d="M251.18 128.35c.07-1 .13-2 .13-2.95 16-2.32 27-14.39 26.56-16.23-.41-1.69-14.43-7.81-30.55-2.19a44 44 0 00-2.09-4c-.15-.26-.32-.51-.48-.76 12.56-9 17-23.7 15.85-25.12s-16.89-.9-29.18 11.63c-.7-.45-1.42-.88-2.15-1.29 7.69-13 6.18-27.77 4.59-28.62s-16.68 6-23 23.19c-.88 0-1.76-.09-2.64-.09-.12-19.59-16-33-18-32.44-1.85.55-8.38 17.92 1.57 35.65-.85.35-1.7.74-2.54 1.14-9.38-13.59-25.57-17.89-27-16.62S162 86.25 174.54 98c-.53.65-1 1.33-1.52 2-14.63-7.78-31.05-4.11-31.75-2.32s7.53 15 24.39 19.51c-.16.87-.3 1.75-.41 2.63-17-1.4-30.92 9.23-30.8 11.19s14.21 11.16 32.41 7a43.92 43.92 0 002 5.13c-15.61 7.57-22.09 24.21-20.95 25.83s18.32 2.13 31.77-11.33a43.32 43.32 0 004.05 3.13c-10.74 13.94-8.84 32-7.07 32.95s18.15-6.93 23.5-26.16c1.34.25 2.7.44 4.06.56-.48 17.42 11.44 30.86 13.41 30.59 1.82-.26 10.08-15 4.64-32.78a44.08 44.08 0 006.09-2.66c9.17 14.67 26.37 19.33 27.86 18s.24-17.88-13.9-29.78a42.64 42.64 0 003.68-5.61c15.66 7.08 32.45 1.61 33-.29s-9.59-14.96-27.82-17.24z"/><g class="cls-2"><path class="cls-3" d="M187.11 57.26c.88-4.58 2.37-7.51 3.12-7.73s3.2 1.35 6.08 4.32A61.93 61.93 0 01198 38.67c-5.92-7.39-11.46-12.52-12.88-12.24s-5.43 8.92-8.35 19.7a67.41 67.41 0 0110.34 11.13zM164.51 83.55c-3-7.19-3.07-13.15-2.26-13.85a.75.75 0 01.37-.15 62.27 62.27 0 01-2.89-11.26c-9.6-4.53-18.09-7-19.33-6s-.78 9.47 1.25 19.67a63.61 63.61 0 0122.86 11.59zM155.59 114.16c4.68 2.34 7.81 3.58 9.86 4.41.07-.47.13-.93.21-1.39a41.28 41.28 0 01-19.9-12 61.85 61.85 0 01-15.26-13.87c-11.53.53-21.27 2.62-21.92 4.16-.51 1.2 3 7.1 8.43 14 10.71-2.08 24.99-2.11 38.58 4.69zM224.93 63.09c4.42-3.31 8.18-4.63 8.93-4.22.48.26.95 1.77 1.16 4.1a62.21 62.21 0 0113.46-10.34c-1.08-12.36-3.95-23.07-5.62-23.67S232.07 35 223.3 44.05a60.07 60.07 0 011.63 19.04zM277.83 109.08v.09c.37 1.51-7 9.92-18.49 14.16v.15a62.3 62.3 0 0138.49.65c9.07-5.44 15.8-11.08 15.68-12.64-.14-1.76-10.78-7.88-23.27-12.26a66.79 66.79 0 01-12.41 9.85zM259.82 76.8a1.45 1.45 0 01.78.35c.61.75-.34 5.16-3.2 10.49a62 62 0 0124.76-7.7c3.9-9.45 5.88-17.59 4.88-18.75s-10.15-.31-20.75 2.39a67.41 67.41 0 01-6.47 13.22zM256.54 177.41c.2 2.14 0 3.57-.36 3.89-.83.74-6.6-.41-13.12-4.13A62.33 62.33 0 01259.32 207c11.31 4.69 21.92 7.06 23.21 5.87s-.43-12.94-4.56-25.23a61.36 61.36 0 01-21.43-10.23zM222.58 189.1c-1.62 5.82-4.09 9.49-5 9.62-.5.07-1.62-.73-3-2.24a62.11 62.11 0 01-3 24.7c7.21 11.67 16.08 21.25 18 21 1.66-.26 6.52-10.26 9.95-22.21-7.25-7.26-14.39-17.63-16.95-30.87zM152.33 145.1c7.94-.68 11.5-1.64 13.29-1.73a46.45 46.45 0 01-1-4.91 41.62 41.62 0 01-16.41-.47 62.11 62.11 0 01-32.35-7.12c-11.52 7.22-20.92 16-20.63 17.87.28 1.74 11.35 7 24.12 10.35 7.97-6.6 19.24-12.82 32.98-13.99zM297.27 145.7a62.79 62.79 0 01-27.86 3.3 44.8 44.8 0 01-12.9 0c-.1.25-.19.51-.3.76 1.07.25 2.24.51 3.57.78a62.29 62.29 0 0133.89 19.11c10.17-1.85 18.22-4.65 18.66-6.13s-6.11-9.83-15.06-17.82zM165.87 173.16c9.38-5.9 11-8.42 12.47-8a46.65 46.65 0 01-3.29-3.59 41.62 41.62 0 01-16.17 7.43 62.19 62.19 0 01-32.55 11.11c-4.38 10.14-6.66 19.2-5.61 20.43s12 .14 23.79-3.18a59.31 59.31 0 0121.36-24.2zM190 188.15c.76-1.84 1.37-3.44 1.88-4.84a39.64 39.64 0 01-9.2 8.08 62.24 62.24 0 01-19.6 22.1c1.92 10.71 4.94 19.33 6.48 19.78s9.24-5.77 16.92-14.35a58.83 58.83 0 013.52-30.77z"/></g><g class="cls-1"><path class="cls-3" d="M148.18 138c-8.31-1.92-13.65-5.87-13.73-7-.12-2 13.78-12.59 30.8-11.19.05-.42.13-.83.2-1.24-2-.83-5.18-2.07-9.86-4.41-26.44-13.2-55.33-.69-55.88 2.48-.49 2.83 18.34 22.87 48.47 21.36zM208.27 82c.88 0 1.76 0 2.64.09a41.53 41.53 0 0114-19c2-24.88-13.22-45.25-16.1-45.1-2.31.12-12.76 14.93-12.52 35.86 5.27 5.4 11.9 15.48 11.98 28.15zM145.76 105.15c-3.27-3.62-4.77-6.74-4.49-7.48.7-1.79 17.12-5.46 31.75 2.32.49-.68 1-1.36 1.52-2a41.53 41.53 0 01-10-14.43c-18.26-14.82-41.75-15.1-43.33-12.82-1.44 2.02 4.79 21.78 24.55 34.41zM189.26 86.32c.84-.4 1.69-.79 2.54-1.14a41.34 41.34 0 01-4.69-27.92c-10.17-13.89-23.86-20.81-25.82-19.77s-4.65 15.44 1.33 32.06c2.83-.61 17.78 3.93 26.64 16.77zM229.27 87.49c.73.41 1.45.84 2.15 1.29 11-11.27 24.9-12.79 28.4-12 8.95-14.08 10.57-28.67 8.95-30.12S249.51 48.26 235 63a43.18 43.18 0 01-5.73 24.49zM244.75 102.27c.16.25.33.5.48.76a44 44 0 012.09 4c15.85-5.53 29.65.29 30.51 2.1 15.92-9.67 24.31-24.51 23.3-26.62-1.1-2.29-22.4-6.81-43.73 5.18a43.28 43.28 0 01-12.65 14.58zM259.78 150.5c-1.33-.27-2.5-.53-3.57-.78.11-.25.2-.51.3-.76a39.5 39.5 0 01-10.51-3.05 42.64 42.64 0 01-3.68 5.61c10.37 8.72 13.74 20 14.26 25.89 20.14 15.26 45.91 13.17 47.33 10.62s-11.16-30.77-44.13-37.53zM147.87 169c-1.14-1.62 5.34-18.26 20.95-25.83a43.92 43.92 0 01-2-5.13c-.77.17-1.52.31-2.27.44a46.45 46.45 0 001 4.91c-1.79.09-5.35 1-13.29 1.73-29.46 2.51-47.6 28.23-46.41 31.23 1.06 2.68 27.89 10 53-7.35-5.98 1.25-10.46.73-10.98 0zM228.32 163.28a44.08 44.08 0 01-6.09 2.66 41.49 41.49 0 01.35 23.16c5.61 29 33.06 44.22 35.91 42.73 2.66-1.4 7.43-31.09-15.43-54.66a41.79 41.79 0 01-14.74-13.89zM259.41 123.48v-.15a40.24 40.24 0 01-8.07 2.07c0 1-.06 2-.13 2.95 18.23 2.28 28.26 15.51 27.76 17.27-.24.88-4 2.53-9.53 3.34 24.64 2.94 45.56-11.23 45.56-14.11s-24.17-20.8-55.59-11.37zM176.62 193.73c-1.77-.93-3.67-19 7.07-32.95a43.32 43.32 0 01-4.05-3.13 41.48 41.48 0 01-4.59 4 46.65 46.65 0 003.29 3.59c-1.48-.46-3.09 2.06-12.47 8-25 15.74-29.35 46.9-26.92 49 2.17 1.89 29.39-3.89 43.69-30.79-3.06 1.84-5.43 2.55-6.02 2.28zM204.18 168.13a42.6 42.6 0 01-4.06-.56 41.67 41.67 0 01-8.28 15.74c-.51 1.4-1.12 3-1.88 4.84-11.23 27.33 3.37 55.18 6.58 55.49 2.76.27 20.34-18.76 18-47.16a42.63 42.63 0 01-10.36-28.35z"/></g><g class="cls-2"><path class="cls-3" d="M161.29 37.49c1-.51 4.77.91 9.59 4.13A551.43 551.43 0 00136-6.71c-27.26-33.62-62.11-68-105.32-95.22s-94.78-47.15-155.15-51.7c-40.24-3-84.35.75-132.41 13.67a6.29 6.29 0 00-4.44 7.71 6.28 6.28 0 007.71 4.44c46.79-12.57 89.43-16.2 128.19-13.27a319.19 319.19 0 01105 26.19C42.26-87.35 90.72-42.54 126.18 1.22a532.23 532.23 0 0132.89 45.31c.29-5.19 1.36-8.59 2.22-9.04z"/></g><path class="cls-6" d="M71.11 1047.57l-1-2c-1.17-2.41-3.31-6.82-5.88-12.23a.74.74 0 00-.15-.34l2.66-14.71a.67.67 0 00-.54-.79.69.69 0 00-.8.55l-2.33 12.86c-1.79-3.77-3.73-7.92-5.69-12.18a.66.66 0 00.27-.43l2.81-15.48a.68.68 0 10-1.34-.24l-2.58 14.2h-.08a746.12 746.12 0 01-5.66-12.64.66.66 0 00.18-.34l2.81-15.48a.68.68 0 00-1.34-.25l-2.54 14c-2.84-6.59-5.18-12.47-6.37-16.36a.68.68 0 00-1.31.39c1.17 3.82 3.39 9.4 6.07 15.67l-11.59-7a.68.68 0 00-.7 1.17l13.21 7.92c1.62 3.75 3.38 7.69 5.18 11.62l-11-6.61a.68.68 0 00-.93.23.69.69 0 00.23.94l12.73 7.63c.82 1.8 1.65 3.59 2.47 5.35 1.39 3 2.76 5.91 4 8.62l-11.5-6.9a.68.68 0 10-.7 1.16l12.89 7.74a.68.68 0 00.55.67c3.87 8.13 6.7 13.88 6.7 13.88a.68.68 0 001.22-.6zM142.45 966.45a84.58 84.58 0 01-13-3.47l-3.21-1.15-.18-.07-3.15-1.19-.54-.21-5.31-2.07-1.18-.47c-1.37-.53-2.74-1.08-4.09-1.64l-1.45-.61c-1.09-.46-2.17-.93-3.24-1.4q-4.78-2.11-9.47-4.43l-.1-.05q-4.69-2.31-9.33-4.76h-.09c-2.53-1.33-5-2.76-7.33-4.27a121.34 121.34 0 01-7.2-4.99 136.9 136.9 0 01-6.85-5.48c-1-.86-2-1.72-3-2.61a87.2 87.2 0 01-5.21-5l-1.67-.87h-1.22c-18.63.06-18 11.87-16.22 13.23 1.14.9 9.49 2.77 17.18 2.16-1.62 4.63.64 9.67 1.8 10.41s6.62 1.28 12 .24c1.12 4 3.5 7.26 4.45 7.76 1.23.65 6.65.39 11-2 .7 5.06 4 9.68 5.12 10.29s6.57.33 10.8-2.06c4.1 6.31 9.91 11.28 11.12 11.65s4-1.43 5.12-5.11c5 5.34 10.32 9.06 11.34 9.27s2.74-2 2.73-5.89c8 6.94 16.21 11.4 17.26 11.41 1.34 0 .87-7.23-6.88-16.62z"/><g class="cls-2"><path class="cls-3" d="M205 944.56c-.51-1.56-8-4.35-18.54-5 9.33-12.74 11.57-25.15 10.29-26.68s-15.19-.7-29.63 6.79c6.42-14.29 6.07-26.79 4.5-28S160.5 893 150 899.93c.93-10.37-.94-17.82-2.29-18.53-1.74-.91-11.8 3.87-21.43 13.75 2.49-13.72 0-24.3-1.63-25.14s-11.69 4-21.19 13.89c-2.73-14.71-9.58-24.36-11.5-24.51s-8.24 7-13.14 18.24c-5.17-11.27-12-17.81-13.68-17.65s-6.46 7.59-9.39 18.64c-9.31-13.57-20.94-20-22.84-19.21-3.27 1.31-10.06 35 10.08 60.24 1.06 1.33 2 2.52 2.79 3.61A22.5 22.5 0 0150.5 922c-5.56-15-2.21-29.82-.4-30.54 1.18-.47 7.67 3 13.68 10.32 2.07-6.69 5-11.06 6-11.16 1.57-.15 9.31 7.79 12.55 20.71 3.42-10.66 9.56-17.8 11.08-17.68s7.29 8.5 8.63 20.86c7.43-9.23 16.46-13.86 17.87-13.14s3.44 10.42.11 22.17c9.37-8.64 20.08-11.87 21.4-10.86 1.1.84 1.42 9.47-2.87 19.43 11.06-7.28 22.79-8.59 23.93-7.32s-1 13.85-11.33 24.74c13.65-5.36 27.05-3.33 27.87-1.68 1 2-8.63 21-31.41 26.41.22.44.42.87.6 1.28h1.55c36.83-.32 56.24-27.83 55.24-30.98z"/></g><path class="cls-7" d="M179.07 947.89c-.82-1.65-14.22-3.68-27.87 1.68 10.29-10.89 12.46-23.47 11.33-24.74s-12.87 0-23.93 7.32c4.29-10 4-18.59 2.87-19.43-1.32-1-12 2.22-21.4 10.86 3.33-11.75 1.22-21.49-.11-22.17s-10.44 3.91-17.87 13.14c-1.34-12.36-7.13-20.74-8.63-20.86s-7.66 7-11.08 17.68c-3.24-12.92-11-20.86-12.55-20.71-1.1.1-4 4.47-6 11.16-6-7.35-12.5-10.79-13.68-10.32-1.81.72-5.16 15.57.4 30.54a35.68 35.68 0 015.13-.37h1.24l1.67.87a94 94 0 005.21 5 136.9 136.9 0 009.85 8.09 121.5 121.5 0 007.2 4.99 99.53 99.53 0 007.33 4.27h.09q4.64 2.45 9.33 4.76l.1.05q4.69 2.31 9.47 4.43c1.07.47 2.15.94 3.24 1.4l1.45.61c1.35.56 2.72 1.11 4.09 1.64l1.18.47 5.31 2.07.54.21c1 .4 2.09.8 3.15 1.19l.18.07 3.21 1.15a84.58 84.58 0 0013 3.47 42.33 42.33 0 015.21 7.85c22.71-5.33 32.32-24.38 31.34-26.37z"/><path class="cls-5" d="M132 971.65c0 3.93-1.69 6.11-2.73 5.89s-6.3-3.93-11.34-9.27c-1.17 3.68-4 5.47-5.12 5.11s-7-5.34-11.12-11.65c-4.23 2.39-9.58 2.7-10.8 2.06s-4.42-5.23-5.12-10.29c-4.33 2.36-9.75 2.62-11 2-.95-.5-3.33-3.78-4.45-7.76a32.1 32.1 0 01-9.65.35c-2.85 8.13 12.38 21 34.06 28.81 21 7.53 40.27 7.55 44.23.25a120 120 0 01-6.96-5.5z"/><path class="cls-6" d="M59.13 1081.15c19.94-50 31.62-83 38.28-103.38l-2.63-.9q-3.54-1.27-6.84-2.72c-3.5 10.7-8.44 25-15.26 43.59-2.26-15.07-10.58-32.18-34.26-42.13 0 0-27.32 48.87 24 69.45-16.19 42.14-39.79 100.13-73.96 177.94a5 5 0 002.59 6.62 5 5 0 002 .43 5 5 0 004.6-3 4839.6 4839.6 0 0055.59-131.26c34.94 32.3 64-6.87 64-6.87-22.24-20.69-44.76-14.74-58.11-7.77zM223.08 816.92s-65.24-28.49-42.27-94.55c0 0 78.7 17.82 42.27 94.55z"/><path class="cls-6" d="M223.91 816.58s-3.12-7.79-7.64-18.68a.87.87 0 00-.18-1.12l3.77-19.33a.89.89 0 10-1.75-.34l-3.36 17.25c-1.51-3.62-3.15-7.49-4.85-11.48-1-2.34-2-4.72-3.05-7.1l3.72-19.08a.89.89 0 00-1.75-.34l-3.22 16.53a946.57 946.57 0 00-6.78-15.22l3.85-19.8a.89.89 0 10-1.75-.34l-3.38 17.36c-3.76-8.1-7.26-15.14-9.95-19.62a.88.88 0 00-1.22-.31.91.91 0 00-.31 1.23c2.75 4.57 6.42 12 10.36 20.54l-15.87-9.79a.89.89 0 00-1.23.29.88.88 0 00.29 1.22l17.54 10.83a.84.84 0 00.49.11c2.43 5.32 4.92 11 7.36 16.59v.13l-16.09-9.93a.89.89 0 00-1.23.29.91.91 0 00.29 1.23l17.54 10.82a.87.87 0 00.66.11c2.43 5.64 4.77 11.17 6.88 16.21l-14.58-9a.88.88 0 00-1.22.29.89.89 0 00.29 1.23l16.66 10.28a.84.84 0 00.2.45c3 7.25 5.44 13.19 6.75 16.45l1.11 2.73a.89.89 0 101.65-.67zM746.93 746.91c-3.55 50.28 42.87 61.19 50.24 62.6l.45.6a.7.7 0 001 .14.71.71 0 00.13-1l-.4-.53c11.03-64.39-51.42-61.81-51.42-61.81zM414.72 622.56c-49.24 10.74-46.66 58.36-45.94 65.83l-.45.6a.71.71 0 00.14 1 .7.7 0 001-.15l.4-.53c64.89-7.54 44.85-66.75 44.85-66.75zM547.09 191.75c-49.24 10.74-46.65 58.36-45.94 65.82l-.45.61a.7.7 0 001.12.83l.4-.53c64.91-7.48 44.87-66.73 44.87-66.73z"/><path class="cls-7" d="M250.19 561.81l-.66.3a.67.67 0 10.56 1.22l.58-.26c58.18 23.77 68.75-35.41 68.75-35.41-46.42-13.79-66.37 27.53-69.23 34.15zM879.09 704.77l-.66.3a.67.67 0 10.56 1.22l.58-.26c58.18 23.77 68.75-35.41 68.75-35.41-46.47-13.79-66.32 27.53-69.23 34.15zM1820.63 756.6l-.43.58a.66.66 0 00.13.94.67.67 0 00.94-.13l.38-.51c62.49-6.78 43.63-63.86 43.63-63.86-47.44 9.99-45.28 55.8-44.65 62.98z"/><path class="cls-6" d="M1381.64 698.64c-3.55 50.28 42.87 61.19 50.24 62.6l.45.6a.7.7 0 101.12-.84l-.4-.53c11.04-64.41-51.41-61.83-51.41-61.83zM1726.17 687.45c48 15.26 69.55-27.29 72.65-34.12l.69-.3a.7.7 0 00-.55-1.28l-.61.26c-60.01-25.87-72.18 35.44-72.18 35.44zM1078.62 228.75c13.92 41.9 55.16 35.23 61.59 33.91l.57.33a.61.61 0 00.84-.21.62.62 0 00-.22-.84l-.5-.29c-12.57-55.85-62.28-32.9-62.28-32.9zM1473.29 426.1c50.25 3.93 61.51-42.41 63-49.76l.6-.45a.7.7 0 10-.83-1.12l-.53.4c-64.34-11.54-62.24 50.93-62.24 50.93zM560.11 986.2c-49.25 10.74-46.66 58.36-45.94 65.82l-.45.61a.69.69 0 00.14 1 .7.7 0 001-.14l.39-.53c64.9-7.55 44.86-66.76 44.86-66.76z"/><path class="cls-7" d="M1712.48 458.56l-.23-.69a.67.67 0 10-1.27.42l.19.6c-30.33 55.05 27.23 72.39 27.23 72.39 19.07-44.57-19.68-69.11-25.92-72.72zM1139.08 619.69l-.22-.69a.68.68 0 00-.85-.44.68.68 0 00-.43.85l.2.61c-30.34 55 27.22 72.38 27.22 72.38 19.07-44.56-19.67-69.11-25.92-72.71zM416 238.69l.52.5a.67.67 0 10.93-1l-.46-.45c1-62.84-58-51.15-58-51.15 4.06 48.34 49.79 51.85 57.01 52.1zM191 1100.87v.72a.68.68 0 001.35 0v-.64c44.55-44.33-5.84-77.12-5.84-77.12-30.77 37.4-.46 71.83 4.49 77.04zM466.64 439.34l.66.3a.67.67 0 00.89-.32.68.68 0 00-.33-.9l-.58-.26c-19.91-59.62-71.68-29.05-71.68-29.05 19.85 44.23 64.15 32.38 71.04 30.23zM1696 67.45l.7.21a.67.67 0 00.39-1.28l-.61-.19c-27.9-56.32-75-18.95-75-18.95 25.7 41.09 67.97 23.28 74.52 20.21z"/><path class="cls-6" d="M-4 754.88a740.94 740.94 0 0156.9-68.3c2.7-2.89 5.35-5.68 8-8.4.19-1.57.43-3.23.73-4.95a48.86 48.86 0 01-10.39 2 833.1 833.1 0 00-38.09 42.95l-2.45 3c5.51-14.78 8-37.37-14.21-57.65 0 0-41.82 36.59 3 71.81-17.07 22.07-33.57 46.23-47.38 71.56 1-18.27-4.34-42.77-34.13-58.11 0 0-35.35 53.09 23.17 79.72-13 27.74-22.15 56.55-24.8 85.33a4.5 4.5 0 004.07 4.9 4.5 4.5 0 004.89-4.07c3.08-33.54 15.6-67.73 33-100.29a470.82 470.82 0 0122-36.86c47.78 31.65 72.2-20.29 72.2-20.29C29.42 743 9.81 747.22-4 754.88z"/><g class="cls-1"><g class="cls-2"><path class="cls-3" d="M145.85 652.12q-.85.9-1.74 1.74c9.7 6.49 15.42 15.89 18.43 23.64 8.62 2 16.05 2.46 16.82 1.51s-1-7.5-4.32-15.06a50.36 50.36 0 01-29.19-11.83zM76.93 596.79l.34.26a43.78 43.78 0 013.87-4.95q-.92-.57-2-1.2a48.06 48.06 0 01-17.75-19.13c-9.64-2.45-18.45-3.14-19.3-2.1s1.2 8.29 5 16.4a50.47 50.47 0 0129.84 10.72zM94.24 579.48c.38.81.74 1.55 1.08 2.23a43.6 43.6 0 013.82-1.55l-.8-1.86a47.65 47.65 0 01-3.47-24.81c-6.38-6.78-12.74-11.65-14-11.27s-3.51 7.42-4.84 16.11a50.65 50.65 0 0118.21 21.15zM140.8 586.86a43.3 43.3 0 015.29 4.81l1.38-1.46a47.7 47.7 0 0122-13.28c3.09-10 4.23-19.56 3.18-20.49s-9.6 1.2-18.64 5.21a50.43 50.43 0 01-13.21 25.21zM155.53 607.34c.3.87.59 1.75.83 2.64a48.93 48.93 0 0129.6.49c7.08-6.64 12.22-13.42 11.81-14.68s-6.94-3.29-15.2-4.58a50.38 50.38 0 01-27.04 16.13zM157.25 629.6a43.71 43.71 0 01-1.3 5.34 49.65 49.65 0 0125.3 13.25c10-3.79 18.48-9 18.56-10.37s-5.49-5.69-12.92-9.91a50.33 50.33 0 01-29.64 1.69zM117.26 577.77a45.13 45.13 0 017.06 1.14c.12-.62.23-1.27.35-2a48.41 48.41 0 0113.11-25.33c-3-9.59-7.14-17.58-8.49-17.76-1.55-.2-8.52 7.73-14.12 17.3a50.47 50.47 0 012.09 26.65zM126.7 663.91l-.65.2c.33 1.73.82 4.14 1.75 7.51a47 47 0 01.38 22.53c7.27 7.12 14.83 12.29 16.11 11.8s3.44-9.23 4.07-19.24a50.57 50.57 0 01-21.66-22.8zM109 669.35c.48-1.4.87-2.62 1.19-3.68-1.24-.1-2.48-.25-3.71-.46a1.43 1.43 0 000 .22c-2.11 12.5-9.29 22-15.9 28 2.58 8.65 5.91 15.55 7.14 15.76s5.53-4.06 10.16-10.14a50.38 50.38 0 011.12-29.7zM74.21 641.07c-.44-.9-.85-1.83-1.23-2.76l-1 .5c-10.87 5.77-22.4 6-31.1 4.58-4.28 5.67-7 10.51-6.53 11.46.56 1.24 8.47 2.73 17.8 2.93a50.29 50.29 0 0122.06-16.71zM88.32 657.69c-.62-.44-1.22-.89-1.81-1.36l-.05.07c-7 9.27-16.64 14.32-24.85 16.83-1.44 8.28-1.57 15.22-.62 15.93s7.84-1.41 15.51-5.26a50.19 50.19 0 0111.82-26.21zM69.75 620a43.36 43.36 0 01.65-6l-1.62-.11a48.82 48.82 0 01-27-10.66c-10.26 3-19.1 7.44-19.29 8.85s7.57 8.43 17 14A50.43 50.43 0 0169.75 620z"/></g><path class="cls-4" d="M135.45 583.32a44.08 44.08 0 1016.85 60.06 44.11 44.11 0 00-16.85-60.06zm6.2 54.07A31.92 31.92 0 11129.47 594a31.9 31.9 0 0112.18 43.39z"/><path class="cls-3" d="M99.14 580.16a44.27 44.27 0 0118.12-2.38C122.23 551 105 533 102.54 533.3s-13.83 23.12-4.2 45c.29.7.55 1.27.8 1.86zM143.3 589l.53.49zM144.72 590.28l.5.5zM141.85 587.71l.5.41zM79.16 590.9q1.07.63 2 1.2a43.57 43.57 0 0114.18-10.4c-.34-.68-.7-1.42-1.08-2.23-11.51-24.67-36-29.34-37.83-27.68s2.18 26.88 22.73 39.11zM156.76 632l-.12.51zM157.25 629.6c24.85 6 43.28-8.33 43.24-10.71-.05-2.59-21.48-16-44.15-8.9a44 44 0 01.91 19.61zM155.86 608.41l.29.94c-.09-.35-.15-.63-.29-.94zM155.51 607.35c26.52-6.12 36.14-29.1 34.9-31.22s-26.76-3.45-43 14.1l-1.38 1.46a44 44 0 019.48 15.66zM124.32 578.92a44.57 44.57 0 0111.13 4.4 46 46 0 015.35 3.55c18.82-19.64 14.27-44.16 12.06-45.24s-24.26 11.75-28.19 35.32l-.35 1.97zM73 638.31A44.23 44.23 0 0169.75 620c-26.87-2.81-43.42 15.55-42.94 17.95.51 2.56 24.11 12.1 45.22.9zM126.05 664.11l.44-.13a44.32 44.32 0 01-16.3 1.69c-.32 1.06-.71 2.28-1.19 3.68-8.86 25.72 5.54 46.09 8 46.15s17.09-20.83 10.8-43.88a90.81 90.81 0 01-1.75-7.51zM144.11 653.86a44 44 0 01-17.41 10c11.83 24.52 36.39 28.88 38.18 27.2s-2.19-24.76-20.77-37.2zM108.36 665.48h-.15zM156 634.94l.42-1.43a44 44 0 01-10.53 18.61c20.08 16.84 43.49 11.61 44.47 9.42s-11.93-22.61-34.36-26.6zM86.51 656.33a43.83 43.83 0 01-12.3-15.26c-23.72 9.33-30.52 31.62-29.12 33.54 1.53 2.11 27 .83 41.37-18.21zM70.15 615.54v-.12.12zM68.78 613.86l1.62.11a43.7 43.7 0 015-13.87 42.33 42.33 0 011.9-3.05l-.34-.26c-21.55-16.65-45.45-9.56-46.3-7.26s14.25 22.88 38.12 24.33zM106.48 665.21a44.68 44.68 0 01-18.16-7.52c-16.51 19.18-12.27 41.94-10.15 43 2.34 1.15 24.29-11.71 28.27-35.26a1.43 1.43 0 01.04-.22z"/></g><path class="cls-6" d="M2.72 737.25l-.24-2.09c-.28-2.5-.78-7-1.35-12.63a.59.59 0 000-.35l7-12.14a.63.63 0 10-1.1-.63L.88 720c-.4-3.89-.81-8.16-1.2-12.53a.64.64 0 00.38-.29l7.34-12.75a.63.63 0 00-.23-.87.65.65 0 00-.88.23l-6.73 11.72-.06-.07a487.6 487.6 0 01-1-12.93.68.68 0 00.27-.24l7.32-12.77a.64.64 0 00-1.09-.64l-6.64 11.56c-.43-6.71-.65-12.62-.48-16.43a.65.65 0 00-.61-.67.64.64 0 00-.67.61c-.16 3.73 0 9.34.43 15.72l-8-9.77a.64.64 0 00-.9-.08.62.62 0 00-.08.89l9.16 11.13c.25 3.82.57 7.85.92 11.88l-7.65-9.29a.65.65 0 00-.9-.09.65.65 0 00-.09.9l8.83 10.72.5 5.5.86 8.87-8-9.7a.65.65 0 00-.9-.09.65.65 0 00-.09.9l9 10.87a.63.63 0 00.27.76c.86 8.38 1.55 14.34 1.55 14.34a.64.64 0 101.27-.15zM42.12 759.35a.69.69 0 00-.87-.44c-3.89 1.31-10.08 2.84-17.14 4.39l10-10.3a.69.69 0 000-1 .68.68 0 00-1 0l-11 11.38a.8.8 0 00-.17.36c-4.39.94-9 1.88-13.67 2.78h-.09l10.12-10.45a.69.69 0 10-1-1l-11 11.38a.68.68 0 00-.19.48c-4.64.89-9.18 1.73-13.32 2.48L1.9 760a.69.69 0 00-1-1l-10.47 10.86a.69.69 0 00-.37.08c-6 1.07-10.8 1.9-13.47 2.36l-2.23.37a.69.69 0 00-.57.79.69.69 0 00.79.56s6.37-1 15.3-2.65a.68.68 0 00.87.05l13.9 6a.69.69 0 10.54-1.26l-12.4-5.38a1099.43 1099.43 0 0015.26-2.86l13.72 5.95a.69.69 0 00.54-1.26l-11.88-5.15c4.27-.84 8.54-1.71 12.56-2.58l14.23 6.17a.69.69 0 00.91-.36.69.69 0 00-.36-.9l-12.47-5.35c6.71-1.48 12.58-3 16.39-4.23a.67.67 0 00.43-.86zM310.38 1139.42a1097.3 1097.3 0 0036.32-126.09q1.94-8.54 3.66-16.69c1.76-1.53 3.59-3.19 5.45-5a72.2 72.2 0 006.12 14.38 1204.79 1204.79 0 01-20.9 82.07l-1.64 5.46c13.5-19 39-40.74 82.22-30.38 0 0-10.07 81.39-90.2 55.85-12.82 39.14-28.67 79.3-48.19 117.16 21.53-16.31 55.85-30.12 99.28-6.43 0 0-35.59 87.16-116.6 37.72-23.16 38.82-50.75 73.9-83.72 101a6.64 6.64 0 01-8.43-10.27c38.42-31.54 69.83-75.16 95.22-123.36a686.16 686.16 0 0026.79-57.44c-78.24-32.16-35-105-35-105 36.41 16.41 47.55 43.84 49.62 67.02z"/><g class="cls-1"><g class="cls-2"><path class="cls-3" d="M311.83 871.25c-.26 1.18-.5 2.37-.69 3.56-16-6.47-32.19-5.68-44.14-2.94-9.55-8.9-16.31-17.56-15.79-19.3s10-5 22-7.19a74.44 74.44 0 0038.62 25.87zM436.51 909.62l-.59-.2a65.48 65.48 0 002.83-8.82c1 .43 2 .89 3.12 1.42a71 71 0 0038.06 5.84c11 9.74 19.12 19.94 18.55 21.84s-11.12 5.4-24.13 7.54a74.46 74.46 0 00-37.84-27.62zM443.32 874.13c-1.31.21-2.5.38-3.61.53-.33-2-.76-4-1.27-5.95.92-.18 1.88-.37 2.93-.56a70.35 70.35 0 0033.19-16.32c13.56 2.18 24.78 5.92 25.32 7.73s-6.16 10.43-15.66 19.26a74.66 74.66 0 00-40.9-4.69zM395.74 823.35a64.12 64.12 0 00-10.26-2.48l.65-2.9a70.55 70.55 0 00-2-37.91c9.67-12.08 20.39-21.38 22.4-20.86s6.48 12.71 9.08 27.09a74.37 74.37 0 00-19.87 37.06zM358.51 822.33c-1.31.35-2.62.74-3.91 1.17-4.83-16.17-15.25-28-25.12-35.76 2.25-14.14 6.28-26 8.15-26.58s9.77 5.76 18.19 14.78a74.38 74.38 0 002.69 46.39zM329.89 838.65a65.2 65.2 0 00-5.44 6c-11.3-11.62-25.36-17.41-37.15-19.94-3.65-15.37-4.38-30-2.7-31.27 1.5-1.13 11.49 2 22.8 7.57a74.24 74.24 0 0022.49 37.64zM426.34 844.59a64 64 0 00-7.24-7.69c.66-.65 1.36-1.34 2.13-2.07 11.69-11.13 17.52-25 20.09-37 14.22-4.27 27.4-5.84 28.73-4.34 1.52 1.73-2.38 16.81-9.44 31.59a74.52 74.52 0 00-34.27 19.51zM313.27 904.41l.29 1c-2.38 1-5.74 2.42-10.62 4.08a69.52 69.52 0 00-27.85 18.19c-14.72-3-27.3-7.93-27.76-9.9s8.43-11.86 20.15-20.91a74.51 74.51 0 0045.79 7.54zM321.3 930.54c1.31-1.75 2.47-3.23 3.5-4.5a62.09 62.09 0 003.64 4.15l-.23.23C314.69 943.35 309 960 307.21 973c-12.71 4-23.9 5.65-25.17 4.32s.38-10.12 4-20.81a74.51 74.51 0 0035.26-25.97zM384.66 949.62c1.47-.21 2.94-.47 4.39-.78l.18 1.57c2 18.06 11.18 32.36 20.16 41.79-3.37 9.93-7.07 17.21-8.59 17.48-2 .33-10.35-8.1-18.33-19.33a74.22 74.22 0 002.19-40.73zM352.67 946.14c1.05.39 2.1.76 3.15 1.09v.11c-5.51 16.26-3.71 32.2 0 44.31-8.94 8.62-17.3 14.52-18.95 14s-4.77-10.74-6.42-23.31a74 74 0 0022.22-36.2zM414.15 937.58a63.81 63.81 0 006.78-5.75c.48.6 1 1.22 1.48 1.89 10 13 23.56 20.34 35.36 24.12 4.85 15 6.73 29.5 5.16 30.9s-16.57-2.27-31.26-9.18a74.42 74.42 0 00-17.52-41.98z"/></g><path class="cls-4" d="M317.16 856.12A65.15 65.15 0 10404.5 827a65.11 65.11 0 00-87.34 29.12zm79.3-13a47.06 47.06 0 11-63.17 21.1 47.1 47.1 0 0163.17-21.15z"/><path class="cls-3" d="M438.44 868.71a65.53 65.53 0 00-12.11-24.11c28.57-28.22 64.87-22.08 66.53-18.86 1.76 3.42-16.79 36.06-51.5 42.42-1.04.18-2 .37-2.92.55zM391.12 822l-1-.25zM388.32 821.4l-1-.19zM393.82 822.78l-.9-.27zM441.87 902c-1.12-.53-2.15-1-3.12-1.42a64.78 64.78 0 001-25.94c1.11-.15 2.3-.32 3.61-.53 39.67-6.37 65.68 19.7 65.15 23.29-.59 3.82-34.68 19.6-66.64 4.6zM327.42 841.21l-.52.57zM329.89 838.66c-28-25.35-25.67-59.77-22.73-61.69 3.21-2.09 37.4 12.94 47.45 46.56a65.06 65.06 0 00-24.72 15.13zM356.93 822.8l-1.39.43zM358.52 822.35c-14.49-37.48 5.63-68.28 9.25-68.5 3.84-.24 26.37 29.83 18.36 64.16-.24 1-.45 2-.65 2.9a65 65 0 00-26.96 1.44zM419.09 836.91a64.64 64.64 0 00-23.36-13.55c8.41-39.26 42.13-54 45.29-52.21 3.35 1.9 5.73 39.38-19.81 63.7-.76.72-1.46 1.41-2.12 2.06zM389.05 948.84a65.3 65.3 0 0025.11-11.27c25.68 30.5 17 65.94 13.63 67.34-3.54 1.5-34.75-19.45-38.55-54.51l-.19-1.56zM313.57 905.37l-.2-.65A65.22 65.22 0 00324.8 926c-1 1.27-2.19 2.75-3.5 4.5-24.09 32.13-60.9 31.4-63 28.46-2.25-3.13 11.28-38.15 44.67-49.55 4.86-1.62 8.22-3.01 10.6-4.04zM311.14 874.81a65 65 0 002.14 29.6c-39.75 5.86-65.42-20.55-64.85-24.13s32.11-17.87 62.71-5.47zM326.55 928.12l.14.16zM324.45 844.68c.46-.58.93-1.15 1.4-1.7a64.89 64.89 0 00-14 28.27c-37.22-10.59-50.22-43.52-48.35-46.55s37.5-4.19 60.95 19.98zM355.82 947.23a64.81 64.81 0 0028.84 2.39c8.25 36.72-13.35 63.49-16.85 63.36-3.85-.13-23.35-32.25-12-65.64zM419.22 933.44l.14-.12zM422.41 933.72c-.51-.67-1-1.29-1.48-1.89a64.66 64.66 0 0012.83-17.57c.8-1.6 1.5-3.22 2.16-4.84l.59.2c38.19 12.53 49.33 47.61 47.22 50.56-2.24 3.12-39.79 1.5-61.32-26.46zM328.44 930.19a65.57 65.57 0 0024.23 15.95c-9.76 36.07-41.09 49.74-44.13 48-3.35-1.9-5.81-39.37 19.67-63.74z"/></g><path class="cls-6" d="M326.36 1116.64l2.75-1.45c3.29-1.72 9.26-4.88 16.56-8.81a.85.85 0 01.45-.26l9-18.58a.94.94 0 111.69.83l-7.91 16.25c5.07-2.75 10.64-5.78 16.3-8.92a.93.93 0 01.05-.71l9.52-19.55a.94.94 0 011.69.83l-8.74 17.94h.14a989.74 989.74 0 0016.64-9.46 1 1 0 01.07-.53l9.52-19.55a.94.94 0 111.69.83l-8.61 17.69c8.55-5 16-9.66 20.48-13a.94.94 0 011.12 1.51c-4.42 3.3-11.44 7.7-19.56 12.5l18.59 1.74a.94.94 0 11-.17 1.87l-21.19-2a955.8 955.8 0 01-15.27 8.72l17.69 1.65a.94.94 0 11-.17 1.87l-20.42-1.9-7.13 3.94c-4 2.21-7.91 4.33-11.55 6.29l18.47 1.73a.94.94 0 11-.18 1.87l-20.69-1.93a.92.92 0 01-1.15.3c-11 5.89-18.81 10-18.81 10a.94.94 0 01-.87-1.67zM641.29 927a978.34 978.34 0 00-18.41-115.55q-1.67-7.61-3.36-14.86c.84-1.89 1.69-3.93 2.51-6.08a64.46 64.46 0 0010.38 9.29c5.12 22.5 10.1 47.58 14.19 74.16l.75 5c3.72-20.43 16.1-47.66 54.88-55.65 0 0 22.68 69.52-51.68 79.23C655 939 657.42 977.45 656 1015.4c11.21-21.31 33.69-45.46 77.72-42.77 0 0 4.26 83.84-79.86 74.59-4 40.11-13 78.87-29.36 113.22a5.92 5.92 0 11-10.69-5.1c19.08-40 27.93-87.11 30.17-135.63.87-18.75.76-37.69-.11-56.51-75.34 3.64-68-71.54-68-71.54 35.6-.52 54.97 17.41 65.42 35.34z"/><g class="cls-1"><g class="cls-2"><path class="cls-3" d="M540.94 710c.24 1 .51 2.1.8 3.13-15.35.82-28.14 7.6-36.75 14.34-11.08-3.57-19.82-8-20.05-9.6s6.15-7.83 15-14.13a66.31 66.31 0 0041 6.26zM656.13 693.73l-.56.06a56.77 56.77 0 00-1.05-8.19h3.06a63.21 63.21 0 0032.94-9.69c12.55 3.71 23 8.87 23.24 10.61s-6.94 8.57-16.63 15.23a66.34 66.34 0 00-41-8.02zM648.19 662.5c-1 .67-1.87 1.26-2.71 1.8q-1.54-2.24-3.28-4.32c.67-.5 1.38-1 2.16-1.57A62.75 62.75 0 00665 632.67c11.78-3.37 22.25-4.59 23.37-3.34s-1 10.75-5.36 21.48a66.58 66.58 0 00-34.82 11.69zM590.56 639.52a58.39 58.39 0 00-9.22 1.88l-.58-2.58a62.8 62.8 0 00-16-29.83c3.24-13.42 8.37-25 10.19-25.32s10 7.8 17.59 18.43a66.22 66.22 0 00-1.98 37.42zM560.12 652.78a56.6 56.6 0 00-2.71 2.43c-10-11.23-22.92-16.86-33.81-19.37-3.54-12.26-4.8-23.4-3.49-24.54s10.07.95 20.28 5a66.23 66.23 0 0019.73 36.48zM543.19 676.8a57.12 57.12 0 00-2.11 6.92c-13.52-5.1-27.06-4.45-37.54-2-8.77-11-14.89-22.56-14-24.22.77-1.47 10-2.74 21.27-2.51a66.24 66.24 0 0032.38 21.81zM623.3 645.08a57.4 57.4 0 00-8.76-3.46l.94-2.48c5.22-13.41 4.67-26.83 2.22-37.47 9.86-8.83 19.91-15.08 21.54-14.38 1.89.82 4.45 14.48 4.34 29.08a66.42 66.42 0 00-20.28 28.71zM554.66 736.17l.6.67a134.45 134.45 0 01-7 7.31 62 62 0 00-15.6 25.23c-13 3.16-25 3.93-26.15 2.51s2.31-12.76 8.34-24.5a66.52 66.52 0 0039.81-11.22zM571 754.23c.4-1.91.78-3.54 1.13-5q2.21 1.08 4.51 2a2.15 2.15 0 00-.1.27c-6 15.56-4.29 31.12-.83 42.33-8.75 8-17.16 13.61-18.69 13s-3.52-8.31-4.67-18.31A66.32 66.32 0 00571 754.23zM629.41 745.65c1.11-.72 2.2-1.49 3.25-2.29l.74 1.2c8.42 13.84 21.28 21.89 32.09 26.11 1 9.29.81 16.57-.32 17.36-1.46 1-11.42-2.62-22.11-8.67a66.14 66.14 0 00-13.65-33.71zM602.27 755c1-.08 2-.18 3-.31v.1c1.7 15.22 9.19 27.41 16.79 35.77-3.95 10.34-8.47 18.27-10 18.43s-7.91-6.86-14-16.39a66.13 66.13 0 004.21-37.6zM648.66 724.76a57.22 57.22 0 003.3-7.2l1.91 1c13 6.73 26.72 7.51 37.67 6.09 9.6 10.28 16.61 21.27 15.87 23s-14.24 4.44-28.71 4.42a66.49 66.49 0 00-30.04-27.31z"/></g><path class="cls-4" d="M539.53 695.72a58.09 58.09 0 1059.47-56.6 58.05 58.05 0 00-59.47 56.6zm59.08-40.55a42 42 0 11-43 40.94 42 42 0 0143-40.94z"/><path class="cls-3" d="M642.2 660a58.24 58.24 0 00-18.9-14.89c12.38-33.6 44-42.38 46.58-40.41 2.71 2.1.09 35.47-25.52 53.74-.78.56-1.49 1.04-2.16 1.56zM586.33 640.21l-.93.19zM583.83 640.75l-.91.24zM588.8 639.78l-.84.13zM657.58 685.56h-3.06a57.75 57.75 0 00-9-21.3c.84-.54 1.73-1.13 2.71-1.8 29.62-20.16 60.48-9 61.42-5.86.95 3.32-20.6 28.96-52.07 28.96zM542.16 679.8l-.2.65c.04-.21.13-.45.2-.65zM543.19 676.8c-32.17-9.89-43.35-38.54-41.7-41.2 1.8-2.9 35.09-3.72 55.93 19.63a57.94 57.94 0 00-14.23 21.57zM559 653.76l-1 .87zM560.13 652.8c-25.9-24.8-21.32-57.26-18.48-58.8 3-1.65 32.59 14.1 39.11 44.85l.58 2.58a58.11 58.11 0 00-21.21 11.37zM614.54 641.63a58.12 58.12 0 00-15.54-2.51 58.93 58.93 0 00-8.44.41c-8.07-34.88 13.57-59.55 16.8-59.29 3.42.26 19.53 29.62 8.12 58.92-.34.84-.65 1.69-.94 2.47zM632.66 743.36a58.25 58.25 0 0016-18.6c32.28 14.91 38.65 46.82 36.5 49.21-2.3 2.55-35.42-2.54-51.76-29.41l-.74-1.2zM555.27 736.84l-.41-.46a58.06 58.06 0 0017.3 12.89c-.35 1.42-.73 3.05-1.13 5-7.28 35.06-37.27 48.41-40.1 46.83-3-1.67-5.33-35.07 17.31-56.91 3.31-3.19 5.49-5.62 7.03-7.35zM541.74 713.08a57.92 57.92 0 0012.93 23.09c-29.87 19.78-60.59 8.18-61.48 5.07s19.16-26.58 48.55-28.16zM574.36 750.29l.17.07zM541.08 683.72c.15-.64.31-1.27.49-1.9a58.12 58.12 0 00-.63 28.13c-34.05 5.54-57-16.13-56.65-19.27.38-3.31 28.71-17.57 56.79-6.96zM605.23 754.64a57.77 57.77 0 0024.18-9c20.59 26.53 13.25 56.36 10.38 57.55-3.15 1.34-31.06-17.2-34.55-48.45zM651.19 719.51l.06-.16zM653.87 718.52l-1.91-1a57.75 57.75 0 003.71-19c0-1.59 0-3.17-.1-4.73l.56-.06c35.58-4.34 57.85 19.76 57.26 22.94-.63 3.33-31.55 16.33-59.52 1.85zM576.67 751.25a58.32 58.32 0 0025.6 3.7c5.77 32.81-14.35 55.71-17.45 55.47-3.42-.26-19.6-29.58-8.25-58.9a2.15 2.15 0 01.1-.27z"/></g><path class="cls-6" d="M645.56 902.56l1.68-2.21c2-2.64 5.62-7.45 10-13.38a.84.84 0 01.26-.38l.27-18.42a.84.84 0 111.68 0l-.23 16.11c3-4.13 6.4-8.69 9.78-13.36a.8.8 0 01-.23-.59l.28-19.39a.84.84 0 01.86-.82.82.82 0 01.82.85l-.26 17.78h.12c3.36-4.67 6.73-9.41 9.85-13.93a.83.83 0 01-.14-.46l.28-19.38a.84.84 0 011.68 0l-.26 17.55c5-7.3 9.24-13.85 11.6-18.27a.84.84 0 011.14-.34.83.83 0 01.34 1.13c-2.32 4.33-6.32 10.55-11.05 17.5l15.66-5.64a.83.83 0 011.07.5.85.85 0 01-.5 1.08l-17.86 6.42a964.05 964.05 0 01-9 12.82l14.9-5.36a.84.84 0 11.57 1.57l-17.2 6.19c-1.43 2-2.86 4-4.27 5.89-2.4 3.3-4.75 6.48-6.94 9.45l15.56-5.6a.84.84 0 11.57 1.58l-17.43 6.27a.83.83 0 01-.82.68h-.05c-6.61 8.91-11.4 15.18-11.4 15.18a.84.84 0 01-1.18.16.83.83 0 01-.15-1.18zM644.88 1045.26l2.59-2c3.08-2.38 8.69-6.73 15.52-12.12a1 1 0 01.42-.36l6-20.85a1 1 0 011.23-.68 1 1 0 01.67 1.22l-5.23 18.24c4.75-3.75 10-7.9 15.24-12.18a1 1 0 01-.08-.74l6.3-21.95a1 1 0 111.9.54l-5.78 20.14h.15c5.26-4.27 10.55-8.63 15.49-12.81a.89.89 0 010-.56l6.29-21.95a1 1 0 011.91.54l-5.7 19.87c7.93-6.76 14.76-12.9 18.81-17.2a1 1 0 011.4 0 1 1 0 010 1.39c-4 4.22-10.44 10-18 16.49l19.54-1.59a1 1 0 11.16 2l-22.27 1.81a961.24 961.24 0 01-14.22 11.8l18.6-1.52a1 1 0 01.16 2l-21.46 1.75q-3.36 2.73-6.67 5.38c-3.74 3-7.39 5.91-10.8 8.61l19.42-1.58a1 1 0 01.16 2l-21.76 1.77a1 1 0 01-1.14.52c-10.27 8.09-17.64 13.75-17.64 13.75a1 1 0 11-1.21-1.56zM586.13 901a.9.9 0 011.27.1c3.52 4.1 9.5 10 16.45 16.5l-4.36-18.38a.89.89 0 01.67-1.08.9.9 0 011.09.67l4.81 20.3a.81.81 0 010 .51c4.33 4 9 8.22 13.6 12.35h.13l-4.42-18.62a.9.9 0 01.67-1.09.92.92 0 011.09.67l4.81 20.3a.86.86 0 01-.1.67c4.64 4.13 9.22 8.14 13.39 11.77l-4-16.87a.9.9 0 111.75-.42l4.58 19.29a.87.87 0 01.37.34c6 5.21 10.94 9.42 13.65 11.72l2.28 1.93a.9.9 0 01-1.17 1.38s-6.49-5.48-15.52-13.29a.9.9 0 01-1-.53l-19.77-2.54a.9.9 0 01-.79-1 .92.92 0 011-.78l17.65 2.27c-3-2.61-6.2-5.41-9.5-8.31-1.93-1.71-3.89-3.44-5.85-5.2l-19.51-2.5a.9.9 0 11.23-1.79l16.9 2.17c-4.26-3.82-8.5-7.68-12.47-11.37l-20.25-2.6a.9.9 0 01.23-1.79l17.77 2.28c-6.6-6.19-12.25-11.79-15.7-15.8a.91.91 0 01.02-1.26zM854.88 1054.71A779.78 779.78 0 01871.65 963q1.47-6 3-11.77a91.93 91.93 0 01-1.89-4.9 51.53 51.53 0 01-8.44 7.21 853 853 0 00-12.66 58.83l-.69 4C848.34 1000 839 978.1 808.23 971c0 0-19.34 55 39.72 64-4.22 29-6.83 59.53-6.39 89.78-8.54-17.18-26-36.82-61.13-35.48 0 0-4.92 66.7 62.26 60.87 2.45 32 8.92 63.06 21.32 90.72a4.72 4.72 0 008.62-3.87c-14.48-32.22-20.67-69.9-21.57-108.59-.36-15 .08-30 1.12-45 59.94 4.27 55.49-55.75 55.49-55.75-28.38-.99-44.14 12.93-52.79 27.03z"/><g class="cls-1"><g class="cls-2"><path class="cls-3" d="M938.76 883.64c-.2.83-.43 1.66-.69 2.48 12.21.93 22.28 6.56 29 12.09 8.89-2.65 15.93-6 16.15-7.29s-4.76-6.34-11.71-11.52a52.92 52.92 0 01-32.75 4.24zM847.31 868.62l.44.06a45 45 0 011-6.51l-2.43-.08a50.38 50.38 0 01-26.06-8.32c-10.07 2.73-18.47 6.64-18.71 8s5.37 7 13 12.43a52.94 52.94 0 0132.76-5.58zM854.2 843.89l2.12 1.48q1.27-1.75 2.7-3.38l-1.69-1.29a50 50 0 01-16-20.88c-9.32-2.9-17.64-4.07-18.55-3.09s.62 8.58 3.87 17.21a53.07 53.07 0 0127.55 9.95zM900.52 826.63a45.75 45.75 0 017.32 1.67l.5-2a50.05 50.05 0 0113.28-23.47c-2.34-10.75-6.21-20.06-7.66-20.36s-8.14 6-14.34 14.36a52.76 52.76 0 01.9 29.8zM924.53 837.75c.72.64 1.43 1.3 2.12 2 8.18-8.76 18.56-13 27.28-14.8 3.05-9.71 4.25-18.56 3.23-19.49s-8 .57-16.25 3.65a52.81 52.81 0 01-16.38 28.64zM937.58 857.19a46.43 46.43 0 011.56 5.55 52 52 0 0129.94-.94c7.18-8.62 12.27-17.7 11.6-19-.59-1.19-7.94-2.37-16.9-2.39a52.82 52.82 0 01-26.2 16.78zM874.34 830.46a46.32 46.32 0 017-2.6l-.7-2a50.79 50.79 0 01-1.05-29.86c-7.69-7.21-15.58-12.37-16.9-11.84-1.52.62-3.8 11.45-4 23.08a53 53 0 0115.65 23.22zM927.36 904.27l-.5.52c1.2 1.41 2.89 3.35 5.47 6a49.31 49.31 0 0112 20.38c10.3 2.76 19.87 3.58 20.79 2.48s-1.61-10.21-6.21-19.68a52.9 52.9 0 01-31.55-9.7zM914 918.36c-.28-1.53-.55-2.84-.81-4a41.23 41.23 0 01-3.63 1.49l.08.22c4.51 12.5 2.85 24.87-.11 33.74 6.82 6.57 13.42 11.15 14.65 10.71s3-6.56 4.05-14.5A52.89 52.89 0 01914 918.36zM867.64 910.47q-1.3-.9-2.55-1.89l-.61.94c-7 10.87-17.34 17.05-26 20.22-1 7.38-1 13.18-.06 13.83 1.14.84 9.14-1.88 17.77-6.5a52.65 52.65 0 0111.45-26.6zM889.1 918.37c-.79-.08-1.58-.19-2.35-.3v.08c-1.63 12.09-7.82 21.66-14 28.18 3 8.31 6.41 14.71 7.64 14.87s6.43-5.33 11.46-12.8a52.5 52.5 0 01-2.75-30.03zM852.69 893.48a45.87 45.87 0 01-2.5-5.8l-1.54.73a51.12 51.12 0 01-30.12 4.16c-7.83 8-13.61 16.65-13 18s11.26 3.8 22.79 4a52.87 52.87 0 0124.37-21.09z"/></g><path class="cls-4" d="M893.81 826.16a46.23 46.23 0 1046.34 46.17 46.24 46.24 0 00-46.34-46.17zm33.54 46.18A33.48 33.48 0 11893.83 839a33.46 33.46 0 0133.52 33.34z"/><path class="cls-3" d="M859 842a46.3 46.3 0 0115.32-11.52c-9.25-27-34.29-34.56-36.37-33s-.71 28.25 19.36 43.27zM903.88 827.26l.74.16zM905.86 827.74l.72.2zM901.92 826.87l.66.12zM846.3 862.09l2.43.08a45.93 45.93 0 017.59-16.81l-2.12-1.48c-23.23-16.6-48-8.24-48.82-5.79s15.85 23.42 40.92 24zM938.34 859.6l.15.52zM937.58 857.19c25.81-7.29 35.23-29.92 34-32.06-1.38-2.35-27.89-3.6-44.91 14.61a46.26 46.26 0 0110.91 17.45zM925.39 838.55l.75.71zM924.52 837.76c21.07-19.26 18-45.21 15.78-46.5s-26.21 10.63-32 35c-.17.73-.34 1.4-.5 2a46.19 46.19 0 0116.72 9.5zM881.38 827.87a46.41 46.41 0 0119.14-1.23c7.07-27.64-9.73-47.68-12.3-47.54-2.73.15-16.1 23.24-7.54 46.79.26.7.48 1.35.7 1.98zM865.09 908.58a46.31 46.31 0 01-12.41-15.1c-26 11.29-31.64 36.59-30 38.53s28.26-1.38 41.76-22.49zM926.86 904.79l.34-.35a46.47 46.47 0 01-14 9.95c.26 1.13.53 2.44.81 4 5.17 28.06 28.81 39.24 31.09 38s4.89-27.84-12.75-45.65a95.67 95.67 0 01-5.49-5.95zM938.07 886.12a46.13 46.13 0 01-10.71 18.15c23.44 16.31 48.12 7.62 48.89 5.16s-14.79-21.52-38.18-23.31zM911.41 915.16l-.14.06zM939.14 862.74l-.36-1.53a46.26 46.26 0 010 22.43c27 5 45.71-11.81 45.48-14.33s-22.54-14.51-45.12-6.57zM886.75 918.07a46.21 46.21 0 01-19.11-7.6c-16.85 20.75-11.58 44.61-9.31 45.64 2.49 1.13 25-13.14 28.4-38zM850.77 889.24v-.12zM848.65 888.41l1.54-.73a46 46 0 01-2.6-15.24c0-1.27.06-2.52.16-3.76l-.44-.06c-28.27-4.1-46.45 14.69-46 17.23.4 2.7 24.8 13.54 47.34 2.56zM909.55 915.88a46 46 0 01-15.62 2.73 48.06 48.06 0 01-4.83-.24c-5.2 26 10.41 44.63 12.89 44.5 2.73-.14 16.14-23.21 7.64-46.77z"/></g><path class="cls-6" d="M851.92 1035.16l-1.3-1.79c-1.54-2.14-4.34-6-7.74-10.84a.64.64 0 00-.2-.31l.12-14.68a.67.67 0 00-.67-.67.66.66 0 00-.67.66l-.11 12.84c-2.36-3.35-4.94-7-7.55-10.83a.65.65 0 00.2-.46l.12-15.45a.67.67 0 10-1.33 0l-.12 14.18h-.09c-2.6-3.78-5.19-7.62-7.6-11.28a.63.63 0 00.13-.36l.12-15.45a.66.66 0 00-.66-.67.68.68 0 00-.68.66l-.11 14c-3.85-5.9-7.1-11.19-8.91-14.76a.67.67 0 00-.9-.29.65.65 0 00-.29.89c1.77 3.5 4.84 8.52 8.49 14.14l-12.37-4.77a.67.67 0 10-.49 1.24l14.11 5.45c2.2 3.35 4.57 6.87 7 10.37l-11.78-4.54a.66.66 0 00-.86.38.65.65 0 00.38.86l13.59 5.25 3.29 4.76c1.85 2.67 3.66 5.26 5.36 7.66l-12.3-4.75a.67.67 0 00-.48 1.25l13.78 5.32a.65.65 0 00.64.55c5.11 7.21 8.81 12.29 8.81 12.3a.67.67 0 00.93.14.66.66 0 00.14-1zM899.29 1035a.71.71 0 00-1 0c-2.88 3.2-7.75 7.79-13.4 12.84l3.8-14.55a.72.72 0 10-1.39-.36l-4.21 16.08a.77.77 0 000 .4c-3.53 3.13-7.3 6.39-11.06 9.59H872l3.86-14.75a.72.72 0 10-1.39-.36l-4.21 16.08a.69.69 0 00.07.53c-3.77 3.21-7.49 6.32-10.88 9.13l3.5-13.36a.72.72 0 00-1.4-.37l-4 15.28a.66.66 0 00-.3.27c-4.88 4-8.89 7.3-11.09 9.09-1.19 1-1.85 1.49-1.85 1.5a.73.73 0 00-.11 1 .72.72 0 001 .1s5.28-4.24 12.61-10.3a.7.7 0 00.82-.4l15.8-1.66a.72.72 0 00-.15-1.43l-14.1 1.49c2.43-2 5-4.2 7.71-6.45l4.76-4 15.59-1.64a.73.73 0 00.64-.79.71.71 0 00-.79-.64l-13.51 1.42c3.47-3 6.92-6 10.14-8.83l16.18-1.7a.72.72 0 10-.15-1.43l-14.19 1.49c5.36-4.81 10-9.17 12.79-12.31a.71.71 0 00-.06-.96zM1316.8 1187.18a1104.93 1104.93 0 0116.86-130.91q1.63-8.64 3.29-16.87c-1-2.11-2-4.38-3-6.78a73 73 0 01-11.4 10.83c-5 25.54-9.78 54-13.5 84.11l-.67 5.69c-4.88-22.91-19.76-53.2-63.76-60.9 0 0-23.23 79.16 61 87.6-3.8 41.25-5.22 84.66-2.33 127.4-13.36-23.65-39.52-50.12-89.07-45.6 0 0-2 94.68 92.56 81.41 5.86 45.09 17.32 88.5 36.93 126.67a6.68 6.68 0 1011.88-6.1c-22.86-44.47-34.43-97.29-38.6-151.92a687.04 687.04 0 01-1.78-63.73c85.07 1.57 74.29-83 74.29-83-40.28.66-61.5 21.52-72.7 42.1z"/><g class="cls-1"><g class="cls-2"><path class="cls-3" d="M1422.62 939.05a61 61 0 01-.79 3.56c17.33.41 32 7.62 41.93 14.93 12.37-4.41 22.07-9.7 22.28-11.51s-7.2-8.62-17.41-15.42a74.86 74.86 0 01-46.01 8.44zM1292.2 924.65l.62.05a67.38 67.38 0 01.91-9.27c-1.07 0-2.2 0-3.44.06a71.2 71.2 0 01-37.47-9.82c-14 4.61-25.62 10.78-25.85 12.75s8.11 9.43 19.26 16.61a74.9 74.9 0 0145.97-10.38zM1300.09 889.17c1.13.71 2.16 1.35 3.12 1.93q1.66-2.58 3.55-5c-.77-.54-1.59-1.1-2.48-1.7a70.66 70.66 0 01-24.11-28.32c-13.4-3.41-25.25-4.43-26.47-3s1.52 12.09 6.77 24a75.05 75.05 0 0139.62 12.09zM1364.3 861.31a64.59 64.59 0 0110.46 1.81c.19-.92.38-1.88.57-2.93a70.94 70.94 0 0117-34.18c-4.11-15-10.29-27.89-12.35-28.2s-11.06 9.13-19.2 21.37a74.76 74.76 0 013.52 42.13zM1399.08 875.23c1.07.86 2.12 1.73 3.14 2.65 10.92-13 25.27-19.78 37.47-23 3.58-13.95 4.62-26.55 3.11-27.79s-11.32 1.41-22.7 6.37a74.81 74.81 0 01-21.02 41.77zM1419 901.74a65.19 65.19 0 012.62 7.74c15.07-6.21 30.36-5.93 42.26-3.57 9.51-12.72 16-25.94 15-27.78-.93-1.64-11.4-2.75-24.07-2.12a74.6 74.6 0 01-35.81 25.73zM1327.57 868.68a64.53 64.53 0 019.75-4.2c-.35-.88-.73-1.79-1.14-2.77-6.34-15-6.18-30.09-3.77-42.17-11.41-9.62-23-16.34-24.78-15.49-2.1 1-4.52 16.47-3.9 32.93a75 75 0 0123.84 31.7zM1408 969.08l-.66.77c1.79 1.9 4.33 4.52 8.17 8a69.8 69.8 0 0118.44 27.92c14.78 3.13 28.37 3.58 29.58 2s-3-14.31-10.24-27.35a75 75 0 01-45.29-11.34zM1390.19 990c-.51-2.14-1-4-1.44-5.56-1.63.86-3.3 1.66-5 2.38 0 .1.09.2.13.3 7.31 17.34 5.89 35 2.37 47.71 10.12 8.78 19.8 14.77 21.5 14.05s3.7-9.5 4.65-20.8a74.91 74.91 0 01-22.21-38.08zM1324.07 982.3q-1.9-1.18-3.74-2.48l-.79 1.37c-9 15.89-23.25 25.41-35.31 30.53-.85 10.51-.35 18.71 1 19.56 1.69 1.1 12.79-3.33 24.64-10.52a74.6 74.6 0 0114.2-38.46zM1355 991.86a61.35 61.35 0 01-3.35-.25v.12c-1.41 17.21-9.44 31.21-17.72 40.89 4.8 11.53 10.16 20.32 11.91 20.45s8.7-8 15.24-19a74.51 74.51 0 01-6.08-42.21zM1301.66 959.39a65.5 65.5 0 01-4-8l-2.12 1.15c-14.48 8-29.88 9.36-42.28 8.13-10.47 11.92-18 24.55-17.11 26.47 1 2.08 16.21 4.52 32.53 4a74.92 74.92 0 0132.98-31.75z"/></g><path class="cls-4" d="M1354.77 861.14a65.45 65.45 0 1069 61.82 65.49 65.49 0 00-69-61.82zm50.87 62.79a47.4 47.4 0 11-49.89-44.71 47.39 47.39 0 0149.89 44.71z"/><path class="cls-3" d="M1306.76 886.12a65.67 65.67 0 0120.82-17.42c-15.09-37.46-51.06-46.3-53.89-44-3 2.46 1.1 40 30.6 59.73.88.57 1.71 1.15 2.47 1.69zM1369.09 861.94l1.06.18zM1371.93 862.47l1 .24zM1366.3 861.54l.94.12zM1290.29 915.49c1.24 0 2.37-.06 3.44-.06a65.25 65.25 0 019.48-24.33c-1-.58-2-1.22-3.12-1.93-34.08-21.74-68.5-8.06-69.45-4.54-1 3.74 24.16 31.92 59.65 30.86zM1420.23 905.09zM1419 901.74c36-12.23 47.59-44.92 45.63-47.86-2.12-3.21-39.69-3-62.4 24a65.47 65.47 0 0116.77 23.86zM1400.34 876.3zM1399.06 875.25c28.35-28.8 22.08-65.26 18.83-66.92-3.45-1.76-36.27 17-42.58 51.89l-.57 2.93a65.45 65.45 0 0124.32 12.1zM1337.33 864.5a65.52 65.52 0 0117.44-3.36 67.08 67.08 0 019.53.18c7.93-39.61-17.31-66.69-21-66.29-3.84.41-21 34.06-7.16 66.71.46.97.86 1.88 1.19 2.76zM1320.33 979.82a65.78 65.78 0 01-18.67-20.43c-35.89 17.9-42 54.09-39.49 56.72 2.67 2.8 39.85-4.07 57.37-34.92l.79-1.37zM1407.38 969.85l.45-.52a65.61 65.61 0 01-19.08 15.11c.45 1.58.93 3.42 1.44 5.56 9.4 39.28 43.67 53.32 46.8 51.45 3.32-2 4.82-39.72-21.44-63.59a141.46 141.46 0 01-8.17-8.01zM1421.83 942.61a65.33 65.33 0 01-13.83 26.47c34.36 21.3 68.6 7.18 69.5 3.64s-22.5-29.33-55.67-30.11zM1386.31 985.67l-.2.08zM1421.59 909.48a47.7 47.7 0 00-.62-2.13 65.4 65.4 0 011.65 31.7c38.59 5.09 63.75-20.11 63.23-23.65-.54-3.71-32.92-18.84-64.26-5.92zM1351.65 991.61a65.28 65.28 0 01-27.58-9.31c-22.28 30.59-13 63.93-9.75 65.22 3.6 1.41 34.43-20.44 37.32-55.79l.01-.12zM1298.64 953.55c0-.06-.05-.12-.08-.17l.08.17zM1295.58 952.53l2.12-1.15a65.41 65.41 0 01-4.82-21.35c-.1-1.79-.1-3.57-.06-5.33l-.62-.05c-40.27-3.69-64.57 24.24-63.79 27.8.82 3.78 36.12 17.28 67.17.08zM1383.73 986.82a65.4 65.4 0 01-21.89 5 67.87 67.87 0 01-6.84 0c-5.4 37.2 18 62.33 21.55 62 3.84-.41 21.09-34 7.31-66.7-.04-.12-.08-.2-.13-.3z"/></g><path class="cls-6" d="M1600.85 880.45c-4.86-53.59-13.69-105-23.23-149.45q-2.11-9.86-4.27-19.23c1.1-2.44 2.2-5.07 3.27-7.85A83.11 83.11 0 001590 716c6.5 29.12 12.82 61.56 18 95.95.33 2.16.63 4.34 1 6.51 4.9-26.4 21-61.54 71.2-71.67 0 0 29 90-67.19 102.16 5.59 47.15 8.52 96.83 6.49 145.88 14.59-27.49 43.77-58.6 100.67-54.9 0 0 5.09 108.39-103.6 96-5.37 51.82-17.19 101.88-38.51 146.2a7.66 7.66 0 11-13.8-6.64c24.87-51.62 36.54-112.47 39.68-175.18a789.88 789.88 0 00.13-73c-97.41 4.34-87.59-92.81-87.59-92.81 46-.5 70.95 22.72 84.37 45.95z"/><g class="cls-1"><g class="cls-2"><path class="cls-3" d="M1472.2 599.38c.31 1.37.64 2.72 1 4.06-19.85 1-36.42 9.68-47.58 18.36-14.31-4.68-25.58-10.45-25.88-12.52s8-10.09 19.49-18.19a85.74 85.74 0 0052.97 8.29zM1621.17 579l-.71.08a74.17 74.17 0 00-1.32-10.6h3.95c16.75.06 31.34-5.5 42.63-12.37 16.21 4.86 29.67 11.58 30 13.84s-9 11-21.56 19.59a86 86 0 00-52.99-10.54zM1611.07 538.57a156.4 156.4 0 01-3.51 2.31q-2-2.89-4.22-5.6c.87-.64 1.79-1.31 2.79-2a80.94 80.94 0 0026.78-33.16c15.24-4.31 28.79-5.84 30.23-4.21s-1.38 13.89-7 27.74a86.06 86.06 0 00-45.07 14.92zM1536.68 508.58a74.9 74.9 0 00-11.94 2.39c-.24-1.05-.48-2.15-.73-3.34-3.35-16.13-11.62-29.08-20.52-38.65 4.25-17.33 10.94-32.25 13.29-32.68s13 10.14 22.64 23.91a85.8 85.8 0 00-2.74 48.37zM1497.27 525.58c-1.21 1-2.39 2-3.52 3.12-12.9-14.56-29.55-21.9-43.62-25.19-4.51-15.88-6.08-30.28-4.39-31.75s13 1.28 26.2 6.62a85.7 85.7 0 0025.33 47.2zM1475.27 556.54a74.71 74.71 0 00-2.77 8.94c-17.44-6.66-35-5.89-48.51-2.82-11.28-14.29-19.14-29.24-18-31.38 1-1.9 13-3.49 27.51-3.15a85.61 85.61 0 0041.77 28.41zM1579 515.93a75 75 0 00-11.3-4.52c.37-1 .77-2.07 1.22-3.21 6.82-17.31 6.17-34.65 3-48.42 12.79-11.36 25.81-19.4 27.92-18.48 2.44 1.07 5.68 18.73 5.47 37.6a86 86 0 00-26.31 37.03zM1489.81 633.35l.78.86a165 165 0 01-9.12 9.42 79.87 79.87 0 00-20.29 32.54c-16.83 4-32.39 5-33.82 3.12s3.05-16.49 10.9-31.64a85.9 85.9 0 0051.55-14.3zM1510.88 656.78c.52-2.47 1-4.59 1.48-6.41 1.9.93 3.84 1.8 5.82 2.57 0 .12-.08.23-.13.35-7.86 20.09-5.7 40.21-1.28 54.72-11.34 10.36-22.25 17.51-24.22 16.74s-4.52-10.76-6-23.69a85.78 85.78 0 0024.33-44.28zM1586.39 646a54.75 54.75 0 004.21-3c.31.5.63 1 1 1.55 10.81 17.93 27.4 28.41 41.36 33.91 1.3 12 1 21.43-.51 22.44-1.89 1.31-14.74-3.44-28.53-11.31a85.51 85.51 0 00-17.53-43.59zM1551.25 657.86c1.29-.1 2.56-.23 3.83-.39v.13c2.13 19.68 11.75 35.47 21.53 46.32-5.15 13.34-11 23.57-13 23.77s-10.19-8.9-18-21.25a85.36 85.36 0 005.64-48.58zM1611.37 619.06a74.14 74.14 0 004.31-9.3l2.46 1.26c16.82 8.76 34.5 9.83 48.67 8.05 12.36 13.34 21.36 27.58 20.39 29.81-1 2.41-18.42 5.67-37.13 5.57a85.86 85.86 0 00-38.7-35.39z"/></g><path class="cls-4" d="M1470.44 581a75.09 75.09 0 1077.15-72.87 75 75 0 00-77.15 72.87zm76.56-52.15a54.25 54.25 0 11-55.8 52.71 54.27 54.27 0 0155.8-52.71z"/><path class="cls-3" d="M1603.34 535.28A75.41 75.41 0 001579 516c16.17-43.37 57.11-54.57 60.41-52 3.5 2.72-.06 45.84-33.26 69.33a64.01 64.01 0 00-2.81 1.95zM1531.21 509.45l-1.2.24zM1528 510.15l-1.18.29zM1534.4 508.91l-1.07.16zM1623.09 568.43h-3.95a74.71 74.71 0 00-11.58-27.59 156.4 156.4 0 003.51-2.31c38.39-25.92 78.23-11.28 79.42-7.27 1.27 4.29-26.71 37.32-67.4 37.17zM1473.93 560.42l-.27.84zM1475.27 556.54c-41.55-12.93-55.85-50-53.71-53.46 2.35-3.75 45.39-4.63 72.21 25.64a74.94 74.94 0 00-18.5 27.82zM1495.85 526.84l-1.25 1.12c.4-.38.82-.75 1.25-1.12zM1497.29 525.6c-33.34-32.15-27.26-74.11-23.58-76.1 3.89-2.12 42 18.38 50.33 58.17.25 1.19.49 2.29.73 3.34a74.88 74.88 0 00-27.48 14.59zM1567.68 511.43a75.15 75.15 0 00-20.09-3.32 74.17 74.17 0 00-10.9.49c-10.26-45.13 17.84-76.9 22-76.56 4.42.36 25.1 38.39 10.21 76.2-.45 1.12-.85 2.18-1.22 3.19zM1590.6 643a75.2 75.2 0 0020.78-24c41.66 19.43 49.74 60.71 46.94 63.79-3 3.29-45.77-3.46-66.76-38.28-.33-.51-.65-.99-.96-1.51zM1490.59 634.21l-.53-.59a75.29 75.29 0 0022.31 16.75c-.46 1.82-1 3.94-1.48 6.41-9.59 45.28-48.43 62.39-52.07 60.33-3.86-2.17-6.71-45.35 22.66-73.48 4.28-4.11 7.11-7.19 9.11-9.42zM1473.22 603.44a74.91 74.91 0 0016.59 29.91c-38.72 25.42-78.37 10.27-79.51 6.25s24.91-34.27 62.92-36.16zM1515.2 651.7l.22.09zM1472.5 565.48c.2-.83.42-1.65.64-2.46a75.1 75.1 0 00-.94 36.36c-44 7-73.62-21.12-73.14-25.19.51-4.27 37.15-22.57 73.44-8.71zM1555.08 657.47a74.68 74.68 0 0031.31-11.5c26.44 34.38 16.85 72.85 13.13 74.42-4.08 1.73-40.06-22.38-44.43-62.79l-.01-.13zM1614.66 612.28l.09-.2zM1618.14 611l-2.46-1.26a74.83 74.83 0 004.88-24.6c.06-2.06 0-4.09-.1-6.11l.71-.08c46-5.43 74.7 25.83 73.92 29.94-.83 4.38-40.87 20.91-76.95 2.11zM1518.18 652.94a75.79 75.79 0 0033.07 4.92c7.3 42.44-18.81 71.94-22.83 71.62-4.42-.36-25.18-38.34-10.37-76.19l.13-.35z"/></g><path class="cls-6" d="M1606.5 848.88l2.18-2.85c2.59-3.4 7.3-9.6 13-17.25a1 1 0 01.34-.49l.44-23.81a1.09 1.09 0 012.17 0l-.38 20.83c4-5.33 8.31-11.2 12.71-17.23a1.11 1.11 0 01-.3-.77l.47-25.05a1.09 1.09 0 112.17 0l-.43 23 .15-.05c4.37-6 8.75-12.14 12.81-18a1.09 1.09 0 01-.19-.59l.47-25.06a1.09 1.09 0 012.17 0l-.42 22.68c6.49-9.41 12-17.85 15.08-23.55a1.09 1.09 0 011.91 1c-3 5.59-8.22 13.6-14.38 22.56l20.28-7.21a1.08 1.08 0 11.72 2l-23.11 8.22c-3.71 5.34-7.7 10.95-11.73 16.52l19.29-6.86a1.09 1.09 0 01.73 2l-22.27 7.91c-1.85 2.56-3.71 5.1-5.54 7.59-3.12 4.25-6.17 8.36-9 12.18l20.16-6.9a1.08 1.08 0 11.73 2l-22.56 8a1.08 1.08 0 01-1.07.87c-8.6 11.48-14.82 19.56-14.82 19.57a1.09 1.09 0 01-1.52.2 1.08 1.08 0 01-.26-1.46zM1604.92 1033.34l3.35-2.56c4-3.07 11.26-8.67 20.13-15.6a1.22 1.22 0 01.54-.46l7.84-26.93a1.28 1.28 0 112.45.72l-6.85 23.55a2320.3 2320.3 0 0019.76-15.68 1.31 1.31 0 01-.11-1l8.25-28.34a1.3 1.3 0 011.59-.87 1.28 1.28 0 01.87 1.59l-7.57 26h.19a1296.1 1296.1 0 0020.09-16.49 1.26 1.26 0 010-.72l8.25-28.35a1.28 1.28 0 011.59-.86 1.27 1.27 0 01.87 1.58l-7.47 25.65c10.29-8.7 19.15-16.6 24.41-22.14a1.28 1.28 0 011.86 1.76c-5.16 5.42-13.55 12.94-23.31 21.22l25.27-2a1.28 1.28 0 11.2 2.55l-28.8 2.23a1399.1 1399.1 0 01-18.43 15.18l24-1.87a1.28 1.28 0 11.2 2.55l-27.75 2.15a2514.4 2514.4 0 01-22.64 18l25.11-1.95a1.28 1.28 0 11.19 2.55l-28.12 2.18a1.27 1.27 0 01-1.48.67h-.06c-13.31 10.4-22.87 17.68-22.87 17.68a1.28 1.28 0 01-1.55-2zM1529.68 846.62a1.16 1.16 0 011.64.13c4.53 5.31 12.22 13 21.18 21.4l-5.5-23.77a1.17 1.17 0 012.28-.53l6.13 26.27a1.14 1.14 0 01-.07.66c5.59 5.22 11.57 10.67 17.52 16h.17l-5.62-24.1a1.17 1.17 0 112.27-.53l6.13 26.26a1.1 1.1 0 01-.14.87c6 5.36 11.88 10.56 17.26 15.28l-5.1-21.83a1.17 1.17 0 012.28-.53l5.82 25a1.2 1.2 0 01.47.45c7.75 6.76 14.1 12.23 17.59 15.22l2.94 2.51a1.16 1.16 0 01.07 1.62 1.17 1.17 0 01-1.65.13s-8.36-7.11-20-17.26a1.15 1.15 0 01-1.32-.68l-25.55-3.38a1.16 1.16 0 11.3-2.31l22.81 3c-3.86-3.39-8-7-12.23-10.8q-3.74-3.32-7.54-6.74l-25.21-3.33a1.16 1.16 0 11.3-2.31l21.85 2.89c-5.5-5-11-10-16.07-14.76l-26.17-3.46a1.17 1.17 0 11.31-2.31l23 3c-8.5-8-15.78-15.3-20.21-20.51a1.16 1.16 0 01.06-1.55zM2048.08 332a1120 1120 0 01-127.89-39.17q-8.37-3.1-16.29-6.16c-2.28.65-4.73 1.29-7.29 1.87a74.35 74.35 0 018.87 13.24c24.66 9.35 52.26 19 81.72 27.82 1.84.56 3.71 1.1 5.57 1.65-23.72 1-56.51 10.66-71.7 53.3 0 0 75.1 36.7 97.89-45.94 40.56 10.83 83.69 19.65 126.87 24.05-25.9 9.31-56.8 30.93-60.74 81.2 0 0 94.24 18.12 97.11-78.58 46 1.83 91.35-2.21 132.83-15.29a6.77 6.77 0 10-4.07-12.91c-48.33 15.25-103.06 17.81-158.35 12.65-21.35-2-42.78-5.12-64-9.09 16.08-84.71-70.2-88.35-70.2-88.35-6.2 40.23 11.03 65 29.67 79.71z"/><g class="cls-1"><g class="cls-2"><path class="cls-3" d="M1818.26 183.94c1.16.44 2.3.9 3.42 1.4 3.37-17.24 13.07-30.66 22.07-39.33-2.29-13.12-5.93-23.71-7.7-24.23s-9.84 5.73-18.37 14.77a75.84 75.84 0 01.58 47.39zM1781.63 311.77l.16-.61a66.8 66.8 0 01-9.11-2.49c-.17 1.07-.35 2.21-.52 3.45a72.27 72.27 0 01-16.2 35.76c2.21 14.79 6.4 27.42 8.33 28s10.8-6.49 19.87-16.41a76 76 0 01-2.53-47.7zM1747.54 297.83c.9-1 1.72-1.92 2.46-2.78-1.52-1.4-3-2.86-4.37-4.4l-2.12 2.2a71.66 71.66 0 01-32.4 19.25c-5.69 12.8-8.74 24.47-7.5 25.93s12.34.55 25.17-2.66a76.17 76.17 0 0118.76-37.54zM1730.66 228.94a66.69 66.69 0 013.59-10.15c-.88-.34-1.81-.69-2.83-1.05a71.89 71.89 0 01-31.24-22.84c-15.7 1.54-29.61 5.52-30.28 7.52s7.24 12.62 18.07 22.83a75.9 75.9 0 0142.69 3.69zM1750.5 196.58c1-.92 2.09-1.82 3.17-2.68-11.12-13.13-15.45-28.62-16.56-41.35-13.32-6-25.73-9.14-27.23-7.85s-.52 11.55 2.5 23.77a75.76 75.76 0 0138.12 28.11zM1780.37 181.23a65.13 65.13 0 018.18-1.3c-3.64-16.11-.75-31.34 3.64-42.82-11.08-11.67-23.18-20.43-25.2-19.7-1.79.64-4.69 10.92-6.22 23.68a75.6 75.6 0 0119.6 40.14zM1731.76 266.9a66.51 66.51 0 01-2.54-10.46l-3 .67c-16 3.79-31.11 1-42.77-3.43-11.55 9.76-20.23 20.15-19.69 22.11.63 2.27 15.68 7.33 32.23 9.52a76 76 0 0135.77-18.41zM1845.77 203.63l.66.8c2.2-1.47 5.26-3.56 9.4-6.8a70.7 70.7 0 0131-13.66c5.65-14.23 8.42-27.73 7-29.22s-14.82.6-29.07 5.56a76 76 0 01-18.99 43.32zM1863.63 225c-2.23.15-4.14.32-5.8.49a65.79 65.79 0 011.52 5.42l.32-.08c18.57-4.34 35.91.08 48.06 5.78 10.5-8.62 18.13-17.27 17.71-19.09s-8.86-5.31-20-8.19a75.94 75.94 0 01-41.81 15.67zM1844.66 289.76c-1 1.15-2 2.25-3.12 3.32l1.24 1c14.34 11.72 21.41 27.55 24.47 40.47 10.36 2.65 18.64 3.54 19.71 2.38 1.38-1.49-1.15-13.34-6.31-26.4a75.6 75.6 0 01-35.99-20.77zM1859.48 260.51a58.54 58.54 0 01-.82 3.29h.12c17 4.33 29.57 14.74 37.83 24.67 12.33-2.83 22-6.69 22.45-8.41s-6.51-10.05-16.33-18.46a75.47 75.47 0 01-43.25-1.09zM1818 308.24a65.31 65.31 0 01-8.68 2.6l.79 2.31c5.55 15.83 4.26 31.44.92 43.62 10.11 12.49 21.45 22.17 23.52 21.6 2.25-.61 7.28-15.41 9.55-31.8a75.92 75.92 0 01-26.1-38.33z"/></g><path class="cls-4" d="M1728.87 238.43a66.32 66.32 0 1073.51-58.35 66.35 66.35 0 00-73.51 58.35zm71.4-40.1a48 48 0 11-53.17 42.21 48 48 0 0153.17-42.21z"/><path class="cls-3" d="M1745.63 290.65a66.57 66.57 0 01-13.86-23.76c-40 8.68-55 43.11-53.13 46.32 1.94 3.41 40.14 5.73 64.88-20.37.74-.78 1.48-1.5 2.11-2.19zM1732.11 224.27q.18-.53.36-1zM1733.12 221.52l.41-1-.41 1zM1731.23 227l.28-.92c-.1.29-.18.6-.28.92zM1772.16 312.12c.17-1.24.35-2.38.52-3.45a66 66 0 01-22.68-13.62c-.74.86-1.56 1.78-2.46 2.78-27.53 30.34-19.73 67.06-16.37 68.61 3.55 1.64 36-18.69 40.99-54.32zM1783.94 180.54c.25 0 .51-.09.77-.12zM1780.37 181.23c-6.08-38-36.76-55.19-40-53.75-3.57 1.58-9.77 39.14 13.35 66.44a66.33 66.33 0 0126.65-12.69zM1751.78 195.5l1.14-.95zM1750.52 196.6c-23.94-33.23-61.43-33.19-63.64-30.22-2.34 3.14 10.79 39.12 44.57 51.39 1 .36 2 .71 2.83 1.05a66.35 66.35 0 0116.24-22.22zM1729.24 256.43a66.57 66.57 0 011.43-27.48c-38.22-14.67-69.57 5.93-69.79 9.63-.24 3.91 30.44 26.8 65.41 18.53 1.05-.26 2.02-.47 2.95-.68zM1841.54 293.08a66.61 66.61 0 01-23.54 15.16c11.76 38.91 46.88 51.19 49.93 49.13 3.25-2.2 2.73-40.51-25.1-63.26zM1846.43 204.43l-.45-.54a66.44 66.44 0 0111.85 21.63c1.66-.17 3.57-.34 5.8-.49 40.84-2.69 60.71-34.53 59.37-38-1.42-3.65-38.86-11.59-67.17 10.58a127.7 127.7 0 01-9.4 6.82zM1821.68 185.34a66.26 66.26 0 0124.09 18.29c27.14-30.69 18.87-67.3 15.49-68.8s-33.13 17.48-39.58 50.51zM1858.64 228.17v.21c0 .07.02-.14 0-.21zM1788.55 179.93c-.75.07-1.5.16-2.24.26a66.24 66.24 0 0132 3.75c11.67-37.68-9.21-67.1-12.84-67.19-3.85-.1-24.47 29.67-16.92 63.18zM1858.66 263.8a66.1 66.1 0 01-14 26c26.76 27.48 61.64 23.93 63.49 20.87 2-3.35-14.55-37.88-49.37-46.79zM1811.6 310.27h-.18zM1810.06 313.15l-.79-2.31a66.2 66.2 0 01-22.15 1.17 71.56 71.56 0 01-5.34-.85c0 .21-.1.4-.16.61-10.55 39.6 13.21 68.63 16.9 68.47 3.92-.18 23.48-33.14 11.54-67.09zM1859.35 230.94a66.42 66.42 0 01.13 29.57c36.24 11.73 65.35-7.41 65.57-11 .25-3.91-30.38-26.87-65.38-18.68zM1747.77 292.9z"/></g><path class="cls-6" d="M1423.55-4.57a779.51 779.51 0 0140.13 84.26q2.34 5.78 4.51 11.29c1.41.87 2.88 1.82 4.4 2.87a50.64 50.64 0 012.63-10.8 867.09 867.09 0 00-24.2-55.17l-1.78-3.64c11.67 11.76 32.12 24.05 61.22 11.76 0 0-16.52-55.94-69.78-28.71-13.55-26-29.34-52.33-47.43-76.62 17 8.94 42.7 14.65 70.42-7 0 0-35.1-57-86.21-12.93-20.76-24.56-44.19-46-70.47-61.15a4.74 4.74 0 00-6.46 1.73 4.74 4.74 0 001.73 6.46c30.63 17.67 57.74 44.63 81.15 75.51 9 11.92 17.53 24.43 25.47 37.19-51.17 31.66-12.38 77.77-12.38 77.77 23.66-15.78 28.29-36.31 27.05-52.82z"/><g class="cls-1"><g class="cls-2"><path class="cls-3" d="M1455.71 183.45c-.32-.8-.62-1.61-.9-2.42-10.46 6.4-21.93 7.73-30.64 7.18-5.66 7.36-9.4 14.23-8.83 15.38s7.58 2.37 16.25 2.5a52.94 52.94 0 0124.12-22.64zM1538.75 142.05l-.4.2a47.11 47.11 0 013 5.86c.63-.41 1.3-.86 2-1.35a50.29 50.29 0 0126-8.52c6.57-8.12 11.1-16.22 10.48-17.49s-8.43-2.49-17.81-2.48a53 53 0 01-23.27 23.78zM1547.64 166.16h-2.59c0 1.45-.07 2.89-.2 4.32.67 0 1.37 0 2.12.06a50.09 50.09 0 0125.19 7.6c9.26-3.11 16.7-7 16.87-8.37s-5.53-6.6-13.23-11.69a53.24 53.24 0 01-28.16 8.08zM1520.15 207.31a46.9 46.9 0 01-6.92 2.93l.79 1.95a50.17 50.17 0 013 26.84c8.19 7.36 16.8 12.64 18.14 12s3.08-9.67 3.23-20.06a52.92 52.92 0 01-18.24-23.66zM1494.15 212.36c-1-.1-1.92-.21-2.88-.37-1.51 11.91-7.44 21.44-13.47 28 3.22 9.66 7.43 17.55 8.8 17.71s6.19-5.17 11.05-12.48a52.91 52.91 0 01-3.5-32.86zM1472.17 204.22a45.32 45.32 0 01-4.52-3.59 52.14 52.14 0 01-23.75 18.31c-.78 11.2.41 21.55 1.73 22.25s7.84-2.73 15.12-8a52.88 52.88 0 0111.42-28.97zM1539.16 188.86a45.66 45.66 0 01-4.19 6.24l1.74 1.2a50.88 50.88 0 0118.4 23.63c10.47 1.34 19.9.91 20.66-.29.87-1.39-3.62-11.52-10.3-21.07a53.1 53.1 0 01-26.31-9.71zM1452.87 160c0-.24.06-.47.1-.71-1.79-.44-4.31-1-7.93-1.63a49.28 49.28 0 01-21.65-9.53c-10 3.8-18.24 8.74-18.33 10.17s7.29 7.34 16.56 12.34a52.94 52.94 0 0131.25-10.64zM1455.47 140.74c1.12 1.08 2.11 2 3 2.75a46.05 46.05 0 012.07-3.33l-.19-.14c-11-7.5-16.89-18.51-19.68-27.45-9.39-1.34-17.43-1.19-18.17-.11s1.44 7.06 5.21 14.15a52.94 52.94 0 0127.76 14.13zM1497.71 120h3.18c0-.37 0-.73-.06-1.12-.72-12.9 4.09-24 9.29-31.67-3.51-6.58-6.95-11.26-8.06-11.26-1.42 0-6.32 6.88-10.61 15.69a52.67 52.67 0 016.26 28.36zM1475.67 126.15c.69-.4 1.39-.77 2.09-1.13v-.08c-5.76-10.76-6.35-22.16-5.13-31.09-7.27-5-13.83-8.18-14.92-7.59s-2.1 8.09-1.8 17.1a52.67 52.67 0 0119.76 22.79zM1519.81 125a46.86 46.86 0 015.43 3.24c.26-.47.53-1 .81-1.49a51.18 51.18 0 0122-21c1.66-11.1 1.29-21.49 0-22.29s-11.37 3.52-20.87 10.07a53 53 0 01-7.37 31.47z"/></g><path class="cls-4" d="M1525.88 203.76a46.28 46.28 0 10-64.67-10.32 46.31 46.31 0 0064.67 10.32zm-54.29-17.84a33.51 33.51 0 1146.78 7.47 33.5 33.5 0 01-46.78-7.47z"/><path class="cls-3" d="M1544.85 170.52a46.33 46.33 0 01-5.7 18.33c23.32 16.49 48.09 8 48.88 5.5s-16-23.35-41.07-23.78c-.74 0-1.44-.02-2.11-.05zM1517.06 208.77l-.69.3zM1515.17 209.55l-.7.25zM1518.88 207.94l-.61.29zM1543.39 146.76l-2 1.35a46.1 46.1 0 013.69 18.09h2.59c28.59-.14 43.81-21.46 43-23.91-.84-2.65-26.59-9.76-47.28 4.47zM1470.13 202.71l-.42-.33zM1472.17 204.22c-16.68 21-11.08 44.93-8.79 45.93 2.5 1.1 24.75-13.42 27.89-38.18a46.18 46.18 0 01-19.1-7.75zM1493 212.21l-1-.14zM1494.15 212.34c-5.82 28 11.87 47.25 14.44 47 2.72-.27 15.05-24 5.43-47.16l-.79-1.95a46.32 46.32 0 01-19.08 2.11zM1535 195.09a46.53 46.53 0 01-9.08 8.67 47.17 47.17 0 01-5.73 3.55c10.47 26.58 35.84 33 37.85 31.38s-.56-28.3-21.3-42.4zM1500.89 120a46.44 46.44 0 0118.92 5c14.48-24.39 4.24-48.24 1.75-48.84-2.66-.64-22.13 17.68-20.73 42.73l.06 1.11zM1453 159.3c0 .16 0 .32-.07.48a46.52 46.52 0 015.55-16.29c-.87-.77-1.86-1.67-3-2.75-20.64-19.75-46.39-15-47.53-12.65s12.35 25.46 37.1 29.58c3.61.6 6.13 1.19 7.95 1.63zM1454.81 181a46.32 46.32 0 01-1.94-21c-28.58.5-43.52 22-42.71 24.46s24.62 8.82 44.65-3.46zM1459.43 141.83l.08-.13zM1467.65 200.63l1.18 1a46.4 46.4 0 01-13.12-18.21c-24.89 11.75-30.19 36.37-28.53 38.27s26.82-1.38 40.47-21.06zM1477.76 125a46 46 0 0120-5c1.53-26.72-16.74-43-19.18-42.51-2.68.54-12.64 25.35-.81 47.46zM1523.85 127.34l.11.07zM1526.05 126.77l-.81 1.49a46.16 46.16 0 0111 10.84c.74 1 1.43 2.09 2.07 3.15l.4-.2c25.34-13.24 29.09-39.15 27.26-41s-28.05 3.6-39.92 25.72zM1460.52 140.16a46.19 46.19 0 0111.09-11.38 46.76 46.76 0 014.06-2.63c-11-24.18-34.61-30.13-36.54-28.57-2.13 1.72.49 28.3 21.2 42.44zM1545 168.36z"/></g><path class="cls-6" d="M1437.41 9.56l2.1.69c2.5.83 7.06 2.36 12.64 4.26a.64.64 0 00.34.14l8.51 12a.67.67 0 00.93.16.66.66 0 00.16-.93l-7.44-10.49c3.88 1.34 8.14 2.82 12.48 4.37a.63.63 0 00.11.49l9 12.61a.67.67 0 00.93.16.66.66 0 00.16-.93l-8.21-11.58h.1c4.32 1.55 8.67 3.14 12.77 4.7a.62.62 0 00.11.37l9 12.61a.67.67 0 101.09-.78L1484 26c6.59 2.54 12.33 4.92 15.89 6.76a.67.67 0 10.61-1.19c-3.48-1.8-8.92-4.07-15.18-6.5l12.85-3.37a.68.68 0 00.48-.82.68.68 0 00-.82-.48l-14.64 3.85c-3.75-1.43-7.74-2.9-11.73-4.34l12.22-3.22a.67.67 0 10-.34-1.29l-14.1 3.71-5.47-1.94c-3.07-1.09-6-2.12-8.83-3.08l12.76-3.35a.67.67 0 10-.34-1.3l-14.3 3.76a.65.65 0 00-.84-.07c-8.37-2.86-14.35-4.82-14.35-4.82a.67.67 0 00-.85.42.68.68 0 00.39.83zM1399 37.43a.72.72 0 00.79-.64c.47-4.29 1.73-10.86 3.36-18.28l5.44 14.05A.72.72 0 001410 32l-6-15.52a.69.69 0 00-.26-.32c1-4.6 2.18-9.46 3.36-14.26l.08-.07 5.51 14.24a.72.72 0 001.34-.52L1408 .07a.7.7 0 00-.37-.4c1.19-4.81 2.38-9.51 3.48-13.78l5 12.89a.71.71 0 00.93.41.72.72 0 00.41-.93l-5.71-14.74a.68.68 0 00.09-.39c1.59-6.14 2.93-11.14 3.67-13.88l.63-2.3a.72.72 0 00-.51-.88.71.71 0 00-.88.5s-1.79 6.54-4.19 15.76a.71.71 0 00-.43.81L1398.2-6.25a.7.7 0 00-.06 1 .73.73 0 001 .06l10.57-9.47c-.79 3.07-1.63 6.36-2.48 9.76l-1.5 6.05-11.69 10.47a.72.72 0 101 1.07l10.13-9.07a788.63 788.63 0 00-3.06 13.11L1390 27.61a.71.71 0 000 1 .73.73 0 001 .06l10.64-9.53c-1.53 7.05-2.71 13.29-3.17 17.48a.73.73 0 00.53.81zM585.44-3.08a789.08 789.08 0 0161.08 71.88q3.79 5 7.34 9.85c1.6.48 3.29 1 5 1.66a52.21 52.21 0 01-.24-11.23 843.11 843.11 0 00-38-47.59c-.88-1-1.78-2.07-2.68-3.1 14.46 8.44 37.62 15.15 62.85-4.41 0 0-30.66-50.35-75.61-9.91C585.27-17.78 563-39.41 539-58.44c19 4.31 45.53 3.21 67-25.15 0 0-49.09-46.58-87.55 9.77-26.65-18.59-55.11-33.41-84.72-41.41a4.77 4.77 0 00-5.85 3.37 4.77 4.77 0 003.37 5.85c34.5 9.31 68 28.59 98.86 52.67a523.06 523.06 0 0134.51 29.71c-41.75 44.21 8.12 79.16 8.12 79.16 19.01-21.53 18.2-42.8 12.7-58.61z"/><g class="cls-1"><g class="cls-2"><path class="cls-3" d="M665.7 172.2c-.52-.7-1-1.41-1.5-2.13-8.56 9-19.42 13.25-28.06 15-3.62 8.66-5.49 16.33-4.64 17.31s8 .34 16.53-1.78a53.48 53.48 0 0117.67-28.4zM736 110.19l-.33.3a46.15 46.15 0 014.46 5c.52-.57 1.05-1.18 1.63-1.86A50.88 50.88 0 01765 98.5c4.31-9.63 6.63-18.72 5.69-19.8s-8.88-.25-18 2.2A53.57 53.57 0 01736 110.19zM751 131.43l-2.53.71c.38 1.41.69 2.84.93 4.28a75.8 75.8 0 002.09-.5 50.51 50.51 0 0126.57.88c8.24-5.44 14.49-11.21 14.31-12.56s-7.12-5-16-8A53.74 53.74 0 01751 131.43zM734.84 178.77a46.55 46.55 0 01-6 4.66l1.28 1.7a50.79 50.79 0 019.88 25.43c9.91 5.05 19.69 8 20.85 7s.49-10.24-2.06-20.43a53.42 53.42 0 01-23.95-18.36zM710.75 190.45q-1.46.24-2.91.39c1.62 12-1.7 22.87-5.88 30.85 5.65 8.6 11.82 15.21 13.2 15s4.7-6.67 7.55-15.07a53.47 53.47 0 01-11.96-31.17zM687.17 188.21a46.56 46.56 0 01-5.35-2.33 52.61 52.61 0 01-18.44 24.05c2.15 11.15 6 20.95 7.48 21.28 1.31.3 6.94-4.7 12.7-11.7a53.41 53.41 0 013.61-31.3zM748.61 155.8a47.12 47.12 0 01-2.47 7.17l2 .73a51.46 51.46 0 0124.1 18.3c10.58-1.4 19.68-4.27 20.1-5.65.49-1.58-6.53-10.31-15.52-17.9a53.58 53.58 0 01-28.21-2.65zM656.84 150.05c0-.24-.07-.48-.09-.72-1.87 0-4.48.11-8.17.46a49.81 49.81 0 01-23.58-3.68c-8.77 6.31-15.54 13.28-15.26 14.7s9 5.28 19.38 7.74a53.61 53.61 0 0127.72-18.5zM654.36 130.55c1.38.76 2.58 1.39 3.63 1.91.34-1.27.72-2.54 1.16-3.79l-.22-.08c-12.68-4.48-21.3-13.69-26.36-21.7-9.51 1.13-17.33 3.37-17.77 4.62s3.25 6.51 8.77 12.46a53.47 53.47 0 0130.79 6.58zM690.24 99.31c1-.3 2.06-.56 3.11-.79l-.35-1.08c-4.06-12.41-2.24-24.51.85-33.34-5.15-5.51-9.72-9.19-10.8-8.91-1.39.36-4.39 8.37-6.29 18.09a53.31 53.31 0 0113.48 26.03zM670.31 111.05c.57-.56 1.15-1.11 1.74-1.64l-.06-.07c-8.42-9-12-20-13.09-29-8.4-3-15.63-4.4-16.54-3.54s0 8.45 2.69 17.17a53.27 53.27 0 0125.26 17.08zM713.12 98.48a46.24 46.24 0 016.15 1.76l.41-1.67a51.68 51.68 0 0116-26.26C734.45 61 731.39 51 730 50.53s-10.19 6.39-17.77 15.26a53.5 53.5 0 01.89 32.69z"/></g><path class="cls-4" d="M739.51 173.81a46.77 46.77 0 10-65.84 6.72 46.79 46.79 0 0065.84-6.72zm-57.66-3.32a33.87 33.87 0 1147.63-4.86 33.85 33.85 0 01-47.63 4.86z"/><path class="cls-3" d="M749.4 136.42a47.14 47.14 0 01-.8 19.38c27.06 10 49-4.72 49.17-7.32.14-2.76-21.67-18.66-46.29-12.56-.73.19-1.42.35-2.08.5zM732.2 181l-.6.47zM730.55 182.24l-.62.43.62-.43zM733.75 179.71l-.51.44zM741.8 113.58c-.58.68-1.11 1.29-1.63 1.86a46.3 46.3 0 018.3 16.71l2.53-.71c27.88-7.56 37.2-32.34 35.8-34.53s-28.49-2.59-45 16.67zM684.79 187.27l-.5-.22zM687.17 188.21c-10.82 24.89.86 46.76 3.35 47.15 2.72.41 20.68-19.54 17.32-44.54a46.71 46.71 0 01-20.67-2.61zM709.58 190.6l-1 .14zM710.75 190.43c1.59 28.84 23.88 43.06 26.32 42.14s8.46-27.34-7-47.47l-1.28-1.7a46.82 46.82 0 01-18.04 7.03zM746.13 163a47.14 47.14 0 01-6.62 10.84 47.87 47.87 0 01-4.68 4.95C752 202 778.42 201.69 780 199.58s-7.89-27.5-31.81-35.88c-.77-.25-1.43-.49-2.06-.7zM693.35 98.52a46.89 46.89 0 0119.77 0c7.8-27.58-8.39-48.22-11-48.15-2.77.06-17 23-9.14 47.11.14.34.26.69.37 1.04zM656.75 149.33l.06.49a47.13 47.13 0 011.19-17.36c-1-.52-2.25-1.15-3.63-1.91-25.28-13.92-49.18-2.56-49.7 0s18.68 21.65 43.92 19.24c3.68-.35 6.29-.43 8.16-.46zM664.2 170.07a46.65 46.65 0 01-7.36-20c-27.78 7.92-36.79 32.81-35.36 35s26.33 2.17 42.72-15zM658.52 130.58s0-.09.05-.14-.03.1-.05.14zM681.82 185.88l1.43.7a46.92 46.92 0 01-17.55-14.38c-21.26 18-20 43.37-17.92 44.8s25.8-8.34 34.04-31.12zM672.05 109.41a46.62 46.62 0 0118.19-10.1c-5.46-26.49-27.53-37.65-29.79-36.53C658 64 654.7 90.82 672 109.34zM717.66 99.69h.13zM719.68 98.57l-.41 1.67a46.33 46.33 0 0113.6 7.72c1 .81 1.94 1.66 2.85 2.54l.33-.3c21.32-19.51 18.24-45.79 16-47.09s-26.54 10.77-32.37 35.46zM659.15 128.67a46.7 46.7 0 017.87-14 47.62 47.62 0 013.29-3.63c-17.07-20.74-41.63-20.43-43.12-18.41-1.63 2.24 7.84 27.52 31.74 36z"/></g><path class="cls-6" d="M602.64 7.13l2.23.13c2.66.16 7.51.46 13.45.88a.77.77 0 00.37 0l11.42 9.49a.67.67 0 001-.09.68.68 0 00-.08-.95L621 8.32c4.13.3 8.67.64 13.31 1a.72.72 0 00.24.45l12 10a.67.67 0 10.86-1l-11-9.17.08-.05c4.63.39 9.3.82 13.7 1.27a.65.65 0 00.21.33l12 10a.69.69 0 001-.08.68.68 0 00-.09-1L652.4 11c7.09.77 13.32 1.61 17.27 2.48a.68.68 0 10.33-1.28c-3.87-.85-9.77-1.67-16.51-2.41l11.67-6.63a.68.68 0 00-.71-1.16l-13.3 7.56c-4-.42-8.31-.82-12.58-1.19L649.67 2A.68.68 0 00649 .86l-12.81 7.28-5.84-.47c-3.28-.26-6.46-.5-9.43-.71L632.51.37a.68.68 0 00.26-.92.67.67 0 00-.92-.25l-13 7.38a.67.67 0 00-.85.15c-8.92-.62-15.27-1-15.28-1a.66.66 0 00-.71.63.67.67 0 00.63.77zM572.4 44.31a.73.73 0 00.61-.83c-.66-4.3-1.13-11-1.47-18.72l9 12.31a.73.73 0 101.18-.86l-9.9-13.59a.76.76 0 00-.34-.25c-.19-4.76-.33-9.8-.43-14.8l.06-.09L580.15 20a.74.74 0 001 .16.73.73 0 00.16-1l-9.9-13.6a.68.68 0 00-.47-.28c-.09-5-.14-9.91-.18-14.37L579 2.15a.73.73 0 001 .15.72.72 0 00.16-1l-9.41-12.92a.61.61 0 000-.4v-14.51-2.41a.73.73 0 00-.72-.73.74.74 0 00-.74.72v16.48a.72.72 0 00-.21.9l-8.84 13.44a.73.73 0 00.21 1 .74.74 0 001-.21l7.87-12c0 3.2.06 6.64.11 10.18 0 2.07.06 4.18.11 6.3l-8.7 13.26a.73.73 0 101.21.8l7.55-11.48c.1 4.62.24 9.23.42 13.6l-9 13.76a.73.73 0 00.21 1 .72.72 0 001-.21l7.93-12.07c.33 7.28.8 13.68 1.44 17.9a.72.72 0 00.8.61z"/><path class="cls-5" d="M1846.18 543.83c.08 1 .19 2.07.33 3.1-16.35 5-25.87 19.33-25.11 21.17s16.3 5.85 32.23-2.59q1.29 1.93 2.8 3.78l.63.72c-11.66 11.43-14 27.44-12.52 28.73s17.77-1.76 28.58-16.79c.81.36 1.62.69 2.44 1-5.93 14.8-2 30-.21 30.6s16.44-8.92 20.23-27.87c.93-.08 1.86-.18 2.78-.32 3.25 20.41 22 31.92 24 30.95 1.85-.86 5.88-20-7.33-36.93.83-.5 1.65-1 2.46-1.6 12 12.68 29.53 14.57 30.84 13s-2.33-17.3-17.33-27.52c.45-.77.87-1.55 1.27-2.34 16.5 5.78 33-.68 33.48-2.66.41-1.82-10.25-14.47-28.56-16.45v-2.8c18-1.27 30.78-14.58 30.34-16.6s-16.61-9.37-34.93-2.14a44.35 44.35 0 00-2.87-5c15.08-10.4 19.18-28.79 17.73-30.3s-19.45.71-31.32 16.9a46.7 46.7 0 00-4.73-2.62c9-16.26 4.1-34.81 2.1-35.49s-17.82 10.12-20.33 31c-1.44-.05-2.88 0-4.33.06-2.27-18.25-16.86-30.37-18.87-29.76s-8.12 17.23.4 34.93a46 46 0 00-5.93 3.75c-11.91-13.84-30.6-15.95-31.94-14.35s2.61 18.7 19.26 28.85a44.93 44.93 0 00-2.94 6.44c-17.47-4.89-34.11 3.51-34.36 5.57s12.33 14.11 31.71 13.58z"/><g class="cls-2"><path class="cls-3" d="M1924.38 607.74c-.19 4.92-1.28 8.22-2 8.56s-3.55-.89-7-3.53a65.13 65.13 0 01.65 16.11c7.34 6.76 14 11.22 15.39 10.71s4.23-10.18 5.56-21.88a70.6 70.6 0 01-12.6-9.97zM1884 607.71c-4.07 4.16-7.78 6.13-8.64 5.83-.53-.19-1.26-1.7-1.86-4.1a65.51 65.51 0 01-12.38 12.94c3.09 12.72 7.8 23.44 9.64 23.79s10.29-8 18-18.86a63.54 63.54 0 01-4.76-19.6zM1821.46 568.19l-.06-.09c-.62-1.51 5.69-11.46 17-17.72a.88.88 0 010-.15 65.74 65.74 0 01-40.26 5.47c-8.59 7.13-14.71 14.08-14.33 15.7.42 1.81 12.5 6.49 26.23 9.06a70.46 70.46 0 0111.42-12.27zM1845.41 599a1.53 1.53 0 01-.87-.24c-.75-.68-.47-5.44 1.66-11.46a65.3 65.3 0 01-24.6 12c-2.56 10.48-3.31 19.29-2.09 20.34s10.64-1.3 21.26-5.81a71 71 0 014.64-14.83zM1832.74 493.51c-.54-2.2-.58-3.72-.24-4.12.75-.89 7-.62 14.35 2.22a65.72 65.72 0 01-21.73-28.54c-12.55-3.07-24-3.85-25.15-2.4s2.51 13.43 8.79 25.59a64.29 64.29 0 0123.98 7.25zM1866.31 475.89c.75-6.34 2.74-10.56 3.66-10.83.51-.15 1.81.5 3.51 1.85a65.46 65.46 0 01-.85-26.24c-9.39-11-20.17-19.6-22.12-19-1.69.53-5.16 11.74-6.82 24.76 8.72 6.38 17.82 16.05 22.62 29.46zM1795.33 533.1a66.35 66.35 0 0128.54-7.86 47.46 47.46 0 0113.45-2.06l.2-.84a132.3 132.3 0 00-3.85-.24 65.77 65.77 0 01-38.41-14.51c-10.31 3.55-18.26 7.76-18.48 9.37s7.93 9.24 18.55 16.14zM1928 483.45c-8.85 7.66-10.12 10.53-11.73 10.29a51.05 51.05 0 014 3.22A43.88 43.88 0 011936 486.7a65.56 65.56 0 0132.17-16.8c2.95-11.28 3.89-21.09 2.59-22.21s-12.49 1.76-24.31 7.12a62.62 62.62 0 01-18.45 28.64zM1900.48 471.67c-.5 2-.88 3.8-1.19 5.34a41.87 41.87 0 018.31-9.9 65.84 65.84 0 0116.91-26.19c-3.71-10.86-8.25-19.37-9.92-19.59s-8.71 7.5-15.35 17.67a62.23 62.23 0 011.24 32.67z"/></g><g class="cls-1"><path class="cls-3" d="M1898.36 585.35c-.92.14-1.85.24-2.78.32a43.76 43.76 0 01-11.59 22c1.93 26.26 21 45.09 24 44.47 2.39-.49 10.93-17.62 7.32-39.41-6.31-4.73-14.85-14.21-16.95-27.38zM1917.49 577.77c-.81.56-1.63 1.1-2.46 1.6a43.73 43.73 0 019.35 28.37c12.83 12.87 28.21 17.9 30.09 16.5s2.39-16.85-6.51-33.23c-2.85 1.09-19.17-1.26-30.47-13.24zM1875.56 582.94c-.82-.3-1.63-.63-2.44-1-9.72 13.51-23.93 17.31-27.71 17-7.08 16.12-6.44 31.6-4.52 32.85s19.83-4.73 32.6-22.39a45.66 45.66 0 012.07-26.46zM1857.06 570l-.63-.72q-1.52-1.85-2.8-3.78c-15.66 8.29-31 4.43-32.17 2.68-15.06 12.63-21.44 29.45-20 31.5 1.51 2.21 24.46 3.51 44.79-12.41a45.87 45.87 0 0110.81-17.27zM1833.67 522.1c1.43.07 2.7.15 3.85.24l-.2.84a41.8 41.8 0 0111.5 1.5 44.93 44.93 0 012.94-6.44c-12.21-7.44-17.53-18.67-19-24.73-23.44-12.69-50-6.39-51.06-3.51s16.5 30.32 51.97 32.1zM1864.44 503.74a46 46 0 015.93-3.75 43.74 43.74 0 01-4.06-24.1c-10.49-29.31-41.56-40.85-44.29-38.83-2.56 1.88-2.79 33.62 24.83 54.55a44.07 44.07 0 0117.59 12.13zM1838.38 550.23a.88.88 0 000 .15 41.46 41.46 0 018.08-3.45c-.14-1-.25-2.06-.33-3.1-19.38.53-32-11.67-31.72-13.58.12-1 3.77-3.28 9.41-5-26.21.88-45.78 19-45.3 22s28.59 17.84 59.86 2.98zM1913.5 463.72c2 .68 6.87 19.23-2.1 35.49a46.7 46.7 0 014.73 2.62 45.63 45.63 0 014.14-4.87 51.05 51.05 0 00-4-3.22c1.61.24 2.88-2.63 11.73-10.29 23.6-20.42 23.11-53.62 20.24-55.44-2.57-1.62-30 8.76-40.65 39.1 2.9-2.47 5.25-3.62 5.91-3.39zM1888.84 494.82c1.45-.09 2.89-.11 4.33-.06a44 44 0 016.12-17.75c.31-1.54.69-3.31 1.19-5.34 7.35-30.31-12.34-57-15.73-56.84-2.93.16-18.22 22.82-11.27 52.08a44.91 44.91 0 0115.36 27.91z"/></g><path class="cls-6" d="M1149.17 1095.66l-2.19-1.05c-2.62-1.26-7.38-3.56-13.19-6.42a.72.72 0 00-.36-.2l-7.6-14.25a.73.73 0 00-1-.31.74.74 0 00-.31 1l6.65 12.47c-4-2-8.48-4.22-13-6.51a.71.71 0 00-.06-.55l-8-15a.74.74 0 00-1-.3.73.73 0 00-.3 1l7.33 13.77h-.1c-4.5-2.3-9-4.65-13.28-6.93a.65.65 0 00-.07-.41l-8-15a.75.75 0 00-1-.3.74.74 0 00-.3 1l7.23 13.58c-6.82-3.69-12.75-7.1-16.37-9.61a.74.74 0 00-1 .19.73.73 0 00.18 1c3.55 2.45 9.17 5.7 15.65 9.22l-14.48 1.87a.75.75 0 00-.64.83.73.73 0 00.82.63l16.51-2.13c3.89 2.09 8 4.25 12.18 6.38l-13.78 1.78a.74.74 0 00.19 1.46l15.9-2.06 5.69 2.89c3.2 1.61 6.3 3.15 9.2 4.59l-14.38 1.86a.74.74 0 10.19 1.46l16.11-2.09a.72.72 0 00.91.21c8.73 4.3 15 7.28 15 7.28a.75.75 0 001-.35.73.73 0 00-.33-1zM1059.74 1001.14a91.57 91.57 0 0014.49-.86c1.22-.16 2.43-.33 3.64-.51h.21l3.6-.58.62-.11 6.06-1 1.36-.23c1.57-.27 3.13-.56 4.69-.86l1.67-.33a283.41 283.41 0 0014.73-3.42h.13q5.47-1.42 10.9-3h.11c3-.86 5.86-1.84 8.69-2.93q2.28-.87 4.5-1.82t4.21-1.9q4.28-2 8.45-4.32c1.25-.68 2.49-1.38 3.74-2.1a97.84 97.84 0 006.6-4.16l2-.56c.4.1.83.19 1.3.29 19.72 4.11 16.44 16.46 14.31 17.53-1.42.7-10.66.87-18.67-1.45.71 5.26-2.77 10.1-4.17 10.63s-7.29-.08-12.73-2.34c-2.06 4-5.28 6.92-6.4 7.24-1.44.42-7.13-1-11.19-4.47-1.85 5.21-6.32 9.39-7.67 9.78s-7-1.08-11-4.53c-5.71 5.79-12.94 9.79-14.31 9.92s-3.86-2.37-4.31-6.52c-6.49 4.55-12.89 7.35-14 7.35s-2.47-2.68-1.61-6.83c-10 5.61-19.63 8.55-20.75 8.33-1.52-.38.54-7.98 10.8-16.24z"/><g class="cls-2"><path class="cls-3" d="M998.31 964.38c.88-1.54 9.41-2.87 20.71-1.28-7.1-15.52-6.78-29.15-5.09-30.48 1.86-1.47 16.23 2.55 29.9 13.62-3.7-16.53-.61-29.68 1.31-30.63s11.44 3.83 21.07 13.47c1.27-11.18 4.87-18.67 6.46-19.13 2-.58 11.65 6.67 19.7 19.23.34-15.08 5.27-25.74 7.19-26.27s11.51 6.75 19.41 19.31c6.09-15 15.44-23.71 17.5-23.46s7.21 9.2 10 22.18c7.93-10.81 16.55-16.26 18.32-15.72s5.19 9.44 5.9 21.78c12.8-12.35 26.5-16.59 28.35-15.37 3.17 2.09 3 39.22-23.76 61.58a126.94 126.94 0 00-3.74 3.22 23.46 23.46 0 00-4.76-2.33c9.14-14.63 8.83-31.08 7.07-32.24-1.15-.75-8.77 1.47-16.73 7.95-.74-7.53-2.84-12.78-4-13.13-1.63-.5-11.54 6.22-17.78 19.2-1.31-12-6.26-20.93-7.89-21.13s-9.56 7.41-13.67 20.21c-5.85-11.39-14.42-18.25-16.07-17.79s-5.9 10.28-4.93 23.45c-8-11.18-18.68-16.94-20.3-16.15-1.34.65-3.55 9.71-1.17 21.2-10.14-10.12-22.27-14.06-23.75-12.95s-1.91 14.89 6.62 28.65c-13.29-8.64-27.92-9.4-29.14-7.84-1.47 1.89 4.56 24.15 27.51 34.79-.33.42-.63.82-.92 1.23l-1.63-.36c-38.9-8.36-53.47-41.7-51.69-44.81z"/></g><path class="cls-7" d="M1025 973.53c1.22-1.56 15.85-.8 29.14 7.84-8.53-13.76-8.1-27.56-6.62-28.65s13.61 2.83 23.75 12.95c-2.38-11.49-.17-20.55 1.17-21.2 1.62-.79 12.26 5 20.3 16.15-1-13.17 3.38-23 4.93-23.45s10.22 6.4 16.07 17.79c4.11-12.8 12-20.41 13.67-20.21s6.58 9.1 7.89 21.13c6.24-13 16.15-19.7 17.78-19.2 1.15.35 3.25 5.6 4 13.13 8-6.48 15.58-8.7 16.73-7.95 1.76 1.16 2.07 17.61-7.07 32.24a38.25 38.25 0 00-5.35-1.5c-.47-.1-.9-.19-1.3-.29l-2 .56a97.84 97.84 0 01-6.6 4.16c-1.25.72-2.49 1.42-3.74 2.1q-4.18 2.31-8.45 4.32-2.08 1-4.21 1.9t-4.5 1.82a106.77 106.77 0 01-8.69 2.93h-.11q-5.43 1.57-10.9 3h-.13c-3.64 1-7.3 1.84-11 2.64-1.24.27-2.49.53-3.73.78l-1.67.33c-1.56.3-3.12.59-4.69.86l-1.36.23q-3 .53-6.06 1l-.62.11-3.6.58h-.21c-1.21.18-2.42.35-3.64.51a91.57 91.57 0 01-14.49.86 45.35 45.35 0 00-7.23 7.18c-22.9-10.5-28.93-32.76-27.46-34.65z"/><path class="cls-5" d="M1069.63 1008.91c-.86 4.15.47 6.84 1.61 6.83s7.53-2.8 14-7.35c.45 4.15 3 6.65 4.31 6.52s8.6-4.13 14.31-9.92c4 3.45 9.55 4.94 11 4.53s5.82-4.57 7.67-9.78c4.06 3.44 9.75 4.89 11.19 4.47 1.12-.32 4.34-3.28 6.4-7.24a34.73 34.73 0 0010.14 2.46c1.25 9.23-17.67 19.56-42.32 23.1-23.82 3.42-44.27-.76-46.88-9.35a94.66 94.66 0 008.57-4.27z"/><path class="cls-6" d="M1161.52 1132.16q-9.81-33.84-21.65-69.41-7.5-22.47-15.3-43.86a108.28 108.28 0 01-11.29 2.75q4.15 9.92 8.16 20.75a488.26 488.26 0 019.06 26.93c-12-11.26-30.53-20.2-57.29-12.76 0 0 9.6 59.74 66.89 42.81 14.54 46.57 33.39 111.55 56.57 200.4a5.44 5.44 0 1010.52-2.74 5263.21 5263.21 0 00-40.86-148.55c51.28 4 49.65-48.71 49.65-48.71-32.69-2.63-47.81 17.53-54.46 32.39zM1904.67 1004.69l-2.43-1.21c-2.9-1.44-8.19-4.07-14.63-7.35a.76.76 0 00-.4-.22l-8.27-16a.83.83 0 00-1.11-.35.82.82 0 00-.35 1.1l7.24 14c-4.49-2.29-9.4-4.83-14.41-7.45a.84.84 0 000-.62l-8.71-16.86a.82.82 0 00-1.46.76l8 15.47h-.14c-5-2.63-10-5.32-14.72-7.92a.75.75 0 00-.07-.46l-8.71-16.86a.82.82 0 10-1.46.76l7.88 15.26c-7.56-4.22-14.13-8.11-18.14-11a.82.82 0 00-1.14.2.81.81 0 00.19 1.14c3.93 2.79 10.15 6.49 17.33 10.51l-16.19 1.89a.82.82 0 00.19 1.63l18.46-2.15c4.31 2.39 8.89 4.86 13.5 7.3l-15.4 1.79a.82.82 0 10.19 1.63l17.77-2.07a999.6 999.6 0 006.31 3.3c3.54 1.84 7 3.61 10.2 5.25l-16.07 1.88a.82.82 0 10.18 1.63l18-2.1a.81.81 0 001 .24c9.68 4.92 16.61 8.33 16.61 8.33a.82.82 0 001.1-.37.81.81 0 00-.34-1.08zM1969.26 1017.12c-3.1 3.08-8.28 7.44-14.29 12.24l4.68-14.51a.73.73 0 10-1.39-.45l-5.17 16a.75.75 0 000 .42c-3.74 3-7.75 6.05-11.73 9.08h-.11l4.74-14.72a.72.72 0 00-.47-.92.73.73 0 00-.91.47l-5.17 16a.74.74 0 000 .55c-4 3-7.94 6-11.53 8.63l4.29-13.33a.72.72 0 00-.47-.92.73.73 0 00-.91.47l-4.92 15.24a.69.69 0 00-.31.25c-5.17 3.81-9.41 6.9-11.74 8.58-1.25.91-2 1.41-2 1.41a.73.73 0 00.86 1.19s5.57-4 13.33-9.73a.71.71 0 00.85-.36l16.09-.79a.73.73 0 00-.08-1.46l-14.35.71c2.58-1.91 5.34-4 8.17-6.1 1.66-1.24 3.35-2.52 5-3.81l15.87-.78a.73.73 0 10-.07-1.46l-13.75.68c3.68-2.81 7.33-5.64 10.76-8.36l16.48-.82a.73.73 0 10-.07-1.45l-14.46.71c5.7-4.57 10.61-8.72 13.65-11.74a.73.73 0 10-1-1zM1806.2 897.94a102.33 102.33 0 0016.19-.76c1.36-.16 2.72-.33 4.07-.52h.23c1.35-.19 2.69-.39 4-.6l.69-.1 6.78-1.08 1.52-.24c1.75-.27 3.5-.58 5.24-.89l1.87-.35a321.51 321.51 0 0016.47-3.59h.14c4.09-1 8.16-2.08 12.21-3.2h.13c3.32-.91 6.56-2 9.74-3.14 1.7-.63 3.38-1.28 5-2s3.17-1.35 4.73-2.06c3.2-1.45 6.35-3 9.49-4.7q2.1-1.12 4.2-2.29c2.48-1.4 5-2.91 7.43-4.55l2.19-.6 1.45.34c22 4.87 18.12 18.61 15.72 19.77-1.59.76-11.91.82-20.81-1.89.72 5.89-3.24 11.24-4.81 11.81s-8.13-.19-14.17-2.8c-2.35 4.4-6 7.65-7.25 8-1.61.45-7.94-1.25-12.43-5.15-2.13 5.78-7.17 10.39-8.69 10.81s-7.82-1.3-12.19-5.21c-6.46 6.38-14.59 10.74-16.11 10.87s-4.28-2.71-4.71-7.35c-7.32 5-14.5 8-15.76 8s-2.72-3-1.7-7.66c-11.18 6.13-22 9.26-23.27 9-1.57-.4.85-8.81 12.41-17.87z"/><g class="cls-2"><path class="cls-3" d="M1738.16 856c1-1.7 10.55-3.06 23.14-1.13-7.71-17.42-7.16-32.63-5.25-34.09 2.1-1.61 18.07 3.08 33.17 15.63-3.89-18.5-.25-33.13 1.9-34.17s12.71 4.44 23.33 15.33c1.57-12.45 5.69-20.76 7.48-21.25 2.28-.62 12.9 7.61 21.71 21.73.59-16.82 6.24-28.65 8.39-29.21s12.75 7.69 21.39 21.82c7-16.63 17.57-26.24 19.87-25.93s7.92 10.37 10.79 24.89c9-11.95 18.7-17.9 20.67-17.28s5.66 10.61 6.27 24.39c14.46-13.6 29.81-18.14 31.86-16.76 3.51 2.38 2.85 43.83-27.39 68.4-1.6 1.29-3 2.46-4.23 3.54a26.35 26.35 0 00-5.27-2.67c10.41-16.2 10.29-34.56 8.34-35.88-1.26-.86-9.8 1.52-18.78 8.63-.71-8.4-3-14.3-4.26-14.71-1.81-.57-13 6.78-20.12 21.18-1.29-13.44-6.69-23.44-8.5-23.69s-10.78 8.14-15.55 22.36c-6.37-12.79-15.83-20.57-17.68-20.08s-6.73 11.39-5.84 26.1c-8.81-12.6-20.6-19.17-22.42-18.31-1.51.71-4.11 10.79-1.61 23.64-11.17-11.43-24.65-16-26.32-14.79s-2.34 16.59 7 32.07c-14.71-9.83-31-10.89-32.41-9.16-1.67 2.09 4.75 27 30.21 39.21-.37.47-.72.92-1 1.36l-1.81-.42c-43.32-9.85-59.11-47.26-57.08-50.75z"/></g><path class="cls-7" d="M1767.82 866.63c1.38-1.73 17.7-.67 32.41 9.16-9.32-15.48-8.65-30.87-7-32.07s15.15 3.36 26.32 14.79c-2.5-12.85.1-22.93 1.61-23.64 1.82-.86 13.61 5.71 22.42 18.31-.89-14.71 4.1-25.65 5.84-26.1s11.31 7.29 17.68 20.08c4.77-14.22 13.74-22.6 15.55-22.36s7.21 10.25 8.5 23.69c7.15-14.4 18.31-21.75 20.12-21.18 1.28.41 3.55 6.31 4.26 14.71 9-7.11 17.52-9.49 18.78-8.63 2 1.32 2.07 19.68-8.34 35.88a43 43 0 00-6-1.75l-1.45-.34-2.19.6c-2.44 1.64-5 3.15-7.43 4.55q-2.1 1.17-4.2 2.29a167.1 167.1 0 01-9.49 4.7q-2.34 1.06-4.73 2.06c-1.66.69-3.34 1.34-5 2a120.26 120.26 0 01-9.74 3.14h-.13c-4.05 1.12-8.12 2.2-12.21 3.2h-.14a279.25 279.25 0 01-16.47 3.59l-1.87.35c-1.74.31-3.49.62-5.24.89l-1.52.24-6.78 1.08-.69.1-4 .6h-.23c-1.35.19-2.71.36-4.07.52a102.33 102.33 0 01-16.19.76 50.58 50.58 0 00-8.17 7.9c-25.46-12.1-31.88-37.03-30.21-39.12z"/><path class="cls-5" d="M1817.13 906.74c-1 4.63.42 7.65 1.7 7.66s8.44-3 15.76-8c.43 4.64 3.28 7.47 4.71 7.35s9.65-4.49 16.11-10.87c4.37 3.91 10.59 5.64 12.19 5.21s6.56-5 8.69-10.81c4.49 3.9 10.82 5.6 12.43 5.15 1.25-.35 4.9-3.6 7.25-8a38.46 38.46 0 0011.28 2.9c1.26 10.32-20 21.58-47.56 25.18-26.63 3.48-49.4-1.47-52.19-11.1 3.02-1.3 6.31-2.85 9.63-4.67z"/><path class="cls-6" d="M1917.93 1045.6q-10.46-37.9-23.17-77.77-8.05-25.19-16.45-49.16l-3.58 1c-3.15.8-6.18 1.43-9.07 1.94q4.5 11.11 8.82 23.26a557.78 557.78 0 019.73 30.19c-13.25-12.74-33.79-23-63.76-15.06 0 0 9.87 66.82 74 48.73 15.56 52.18 35.69 125 60.29 224.47a6.08 6.08 0 007.35 4.43 6.22 6.22 0 002.24-1.08 6.09 6.09 0 002.19-6.27c-16.57-67-31.06-121.78-43.49-166.36 57.17 5.15 56.09-53.67 56.09-53.67-36.39-3.42-53.55 18.86-61.19 35.35zM1014.76 2.64l2.19.7c2.61.85 7.37 2.4 13.19 4.35a.71.71 0 00.36.13l8.94 12.4a.68.68 0 001 .16.7.7 0 00.16-1l-7.82-10.85c4 1.36 8.48 2.87 13 4.45a.71.71 0 00.12.51l9.41 13.06a.7.7 0 001 .15.69.69 0 00.15-1l-8.63-12h.1c4.51 1.58 9.06 3.21 13.33 4.8a.77.77 0 00.12.38l9.41 13a.7.7 0 101.13-.81l-8.52-11.82c6.87 2.59 12.87 5 16.58 6.92a.7.7 0 10.63-1.24c-3.64-1.84-9.32-4.17-15.84-6.65l13.34-3.6a.7.7 0 00.49-.86.69.69 0 00-.85-.49l-15.21 4.11c-3.92-1.46-8.07-3-12.24-4.44l12.7-3.31a.7.7 0 10-.37-1.35l-14.65 4-5.7-2c-3.2-1.1-6.31-2.16-9.21-3.13l13.25-3.58a.7.7 0 00.49-.86.69.69 0 00-.85-.49l-14.85 4a.68.68 0 00-.88-.07c-8.73-2.92-15-4.92-15-4.92a.7.7 0 00-.88.45.7.7 0 00.41.9zM959 .27c2.21-3 6-7.28 10.45-12L967.38 1a.63.63 0 00.51.71.62.62 0 00.71-.51l2.34-14.1a.61.61 0 00-.06-.35c2.77-2.95 5.74-6 8.71-9.08h.09l-2.14 12.9a.62.62 0 00.51.71.63.63 0 00.71-.51l2.33-14.1a.58.58 0 00-.1-.45c3-3 5.91-6 8.59-8.68l-1.94 11.72a.63.63 0 00.51.71.62.62 0 00.71-.51l2.22-13.4a.56.56 0 00.23-.25c3.86-3.84 7-7 8.78-8.66l1.46-1.43a.62.62 0 000-.87.62.62 0 00-.88 0s-4.17 4-10 9.82a.61.61 0 00-.67.4l-13.4 2.68a.62.62 0 00-.48.73.62.62 0 00.73.48l12-2.39c-1.93 1.93-4 4-6.1 6.14l-3.75 3.8-13.21 2.64a.62.62 0 00-.49.73.62.62 0 00.73.48l11.45-2.28a594.6 594.6 0 00-8 8.36l-13.72 2.74a.61.61 0 00-.49.72.63.63 0 00.73.49L968-12A171.32 171.32 0 00958-.45a.62.62 0 00.12.87.63.63 0 00.88-.15zM1110.68 79.89a87 87 0 00-13.49 2.65c-1.12.3-2.24.62-3.35.94l-.19.06-3.3 1-.57.18-5.55 1.75-1.24.39c-1.44.45-2.87.92-4.29 1.4l-1.53.52-3.39 1.21a298.38 298.38 0 00-10 3.87h-.11a373.51 373.51 0 00-9.85 4.21h-.1a102.24 102.24 0 00-7.78 3.85q-2 1.11-4 2.28c-1.25.75-2.48 1.52-3.71 2.32q-3.75 2.43-7.37 5.12c-1.08.8-2.17 1.62-3.24 2.45a99.34 99.34 0 00-5.66 4.74l-1.76.78-1.27-.1c-19-1.35-17.51-13.35-15.64-14.62 1.23-.84 9.88-2.18 17.69-1-1.34-4.84 1.31-9.83 2.55-10.51s6.85-.85 12.24.58c1.42-4 4.08-7.16 5.08-7.61 1.29-.58 6.82.06 11.07 2.77 1.07-5.12 4.72-9.61 5.94-10.15s6.72.12 10.88 2.85c4.62-6.16 10.89-10.83 12.15-11.13s3.93 1.74 4.87 5.58c5.51-5.11 11.16-8.54 12.22-8.69s2.66 2.2 2.38 6.2c8.61-6.53 17.32-10.51 18.39-10.45 1.47.16.49 7.51-8.07 16.56z"/><g class="cls-2"><path class="cls-3" d="M1173 106.54c-.63 1.56-8.46 3.89-19.26 3.84 8.64 13.65 10.07 26.47 8.65 27.94s-15.54-.33-29.77-9c5.57 15 4.35 27.76 2.67 28.9s-11.22-2.15-21.48-9.95c.24 10.64-2.18 18.13-3.62 18.76-1.83.8-11.77-4.78-20.92-15.52 1.6 14.18-1.66 24.8-3.39 25.55s-11.66-4.87-20.67-15.64c-3.81 14.83-11.46 24.2-13.43 24.23s-7.93-7.71-12.15-19.53c-6.06 11.15-13.46 17.35-15.18 17.07s-6.07-8.19-8.31-19.67c-10.43 13.21-22.74 18.93-24.63 18-3.24-1.56-7.86-36.4 14.44-60.78a146.4 146.4 0 003.1-3.5 22.29 22.29 0 004.76 1.58c-6.71 14.89-4.32 30.27-2.52 31.14 1.17.56 8-2.5 14.67-9.59 1.65 7 4.29 11.62 5.41 11.81 1.59.26 10-7.31 14.23-20.28 2.76 11.12 8.54 18.83 10.1 18.81s8-8.17 10.24-20.69c6.94 9.93 15.85 15.27 17.34 14.64s4.23-10.4 1.64-22.62c9 9.46 19.67 13.5 21.09 12.56 1.18-.79 2.1-9.57-1.6-20 10.8 8.19 22.68 10.34 23.93 9.12s-.11-14.21-9.87-26c13.57 6.41 27.39 5.26 28.33 3.64 1.14-2-7.35-22.07-30.23-29.12.26-.44.49-.86.7-1.27l1.58.13c37.48 2.9 55.39 32.29 54.15 35.44z"/></g><path class="cls-7" d="M1146.77 101.36c-.94 1.62-14.76 2.77-28.33-3.64 9.76 11.82 11.11 24.81 9.87 26s-13.13-.93-23.93-9.12c3.7 10.46 2.78 19.24 1.6 20-1.42.94-12.13-3.1-21.09-12.56 2.59 12.22-.24 22-1.64 22.62s-10.4-4.71-17.34-14.64c-2.22 12.52-8.7 20.67-10.24 20.69s-7.34-7.69-10.1-18.81c-4.2 13-12.64 20.54-14.23 20.28-1.12-.19-3.76-4.85-5.41-11.81-6.64 7.09-13.5 10.15-14.67 9.59-1.8-.87-4.19-16.25 2.52-31.14a37.65 37.65 0 005.2.73l1.27.1 1.76-.78a99.34 99.34 0 015.66-4.74c1.07-.83 2.16-1.65 3.24-2.45q3.63-2.68 7.37-5.12a120.43 120.43 0 017.71-4.6c2.52-1.38 5.11-2.67 7.78-3.85h.1c3.26-1.44 6.54-2.86 9.85-4.21h.11c3.3-1.35 6.62-2.65 10-3.87l3.39-1.21 1.53-.52c1.42-.48 2.85-1 4.29-1.4l1.24-.39 5.55-1.75.57-.18 3.3-1 .19-.06c1.11-.32 2.23-.64 3.35-.94a87 87 0 0113.49-2.65 43.85 43.85 0 005.86-7.65c22.83 7.01 31.32 27.11 30.18 29.08z"/><path class="cls-5" d="M1100.41 73.86c.28-4-1.31-6.35-2.38-6.2s-6.71 3.58-12.22 8.69c-.94-3.84-3.68-5.86-4.87-5.58s-7.53 5-12.15 11.13c-4.16-2.73-9.59-3.41-10.88-2.85s-4.87 5-5.94 10.15c-4.25-2.71-9.78-3.35-11.07-2.77-1 .45-3.66 3.63-5.08 7.61a33 33 0 00-9.82-1c-2.35-8.49 14.08-20.59 36.74-27 21.9-6.24 41.62-4.93 45.16 2.79a79.21 79.21 0 00-7.49 5.03z"/><path class="cls-6" d="M998.53-30Q1012 .46 1027.67 32.32q9.9 20.1 19.94 39.18 1.4-.65 2.88-1.26c2.54-1.06 5-2 7.36-2.76q-5.16-8.76-10.3-18.41Q1041 36.64 1035.62 25c12.71 9 31.21 15 55.36 4.67 0 0-16.61-54.8-68.19-31.63-19.56-41.82-45.53-100.36-78.58-180.74a5.14 5.14 0 00-6.71-2.8 5.25 5.25 0 00-1.75 1.18 5.14 5.14 0 00-1 5.53c22.25 54.07 41.19 98.23 57.18 134.07-48.59 2.82-40.35 52-40.35 52 30.99-1.69 42.61-22.52 46.95-37.28zM205.33 409.37s7.37-96.63 102.59-96.73c0 0 12.37 109.15-102.59 96.73z"/><path class="cls-6" d="M206.13 410.29s8.62-7.51 20.59-18.2h.05a1.19 1.19 0 001.36-.72l26.54-3.83a1.22 1.22 0 00-.35-2.41l-23.68 3.42c4-3.56 8.22-7.4 12.59-11.38 2.56-2.33 5.16-4.7 7.76-7.1l26.18-3.78a1.21 1.21 0 00-.34-2.4l-22.69 3.27c5.65-5.23 11.27-10.5 16.53-15.54l27.18-3.92a1.22 1.22 0 00-.35-2.41l-23.84 3.44c8.73-8.46 16.21-16.11 20.77-21.58a1.21 1.21 0 00-1.87-1.55c-4.65 5.58-12.55 13.63-21.77 22.52l5.48-24.79a1.21 1.21 0 10-2.37-.52l-6 27.39a1.16 1.16 0 00.07.69 1487.67 1487.67 0 01-18 16.89h-.18l5.55-25.13a1.21 1.21 0 10-2.37-.53l-6.05 27.4a1.22 1.22 0 00.15.9 2190.1 2190.1 0 01-17.76 16.1l5-22.77a1.21 1.21 0 00-2.37-.52l-5.75 26a1.15 1.15 0 00-.48.47c-8 7.12-14.52 12.89-18.12 16.05l-3 2.64a1.22 1.22 0 001.6 1.83zM443.7 88.94s-70.11-13.1-62.59-82.77c0 0 80.89-.35 62.59 82.77z"/><path class="cls-6" d="M444.44 88.42s-4.81-6.9-11.68-16.51a.88.88 0 00-.42-1.05l-.68-19.72a.9.9 0 00-.93-.86.89.89 0 00-.86.92l.61 17.6c-2.29-3.19-4.76-6.6-7.32-10.12-1.5-2-3-4.14-4.58-6.24l-.67-19.46a.9.9 0 00-1.79.07l.59 16.85c-3.38-4.55-6.79-9.08-10.06-13.33L406 16.34a.9.9 0 00-.92-.87.89.89 0 00-.86.93l.61 17.71C399.3 27.05 394.3 21 390.66 17.2a.88.88 0 00-1.26 0 .9.9 0 000 1.26c3.72 3.84 9 10.27 14.75 17.72l-17.71-6a.89.89 0 00-.57 1.69l19.56 6.61a.81.81 0 00.51 0c3.56 4.65 7.28 9.6 10.92 14.54v.13l-17.95-6.07a.9.9 0 00-.57 1.7l19.56 6.61a.91.91 0 00.67 0c3.64 4.95 7.17 9.83 10.37 14.27l-16.26-5.49a.89.89 0 00-.57 1.69l18.59 6.29a.83.83 0 00.3.39 1817.9 1817.9 0 0111.99 16.95.9.9 0 101.47-1zM40.64 150.18S-28.93 119.79-4.42 49.34c0 0 83.92 19.03 45.06 100.84z"/><path class="cls-6" d="M41.52 149.83s-3.33-8.31-8.15-19.92a.93.93 0 00-.18-1.19l4-20.62a1 1 0 00-1.87-.36l-3.59 18.4c-1.61-3.86-3.35-8-5.16-12.25l-3.25-7.57 4-20.34a.94.94 0 00-.75-1.12 1 1 0 00-1.11.75L22 103.2c-2.4-5.53-4.85-11-7.23-16.24l4.12-21.11a1 1 0 00-1.87-.37L13.44 84c-4-8.64-7.73-16.15-10.6-20.93a.94.94 0 00-1.3-.32 1 1 0 00-.33 1.3c2.93 4.88 6.84 12.8 11 21.91L-4.67 75.51a1 1 0 00-1.33.31.94.94 0 00.31 1.31L13 88.68a.87.87 0 00.52.12c2.59 5.67 5.25 11.7 7.84 17.69v.14L4.21 96a1 1 0 10-1 1.62L21.9 109.2a1 1 0 00.71.12c2.59 6 5.08 11.91 7.33 17.29L14.4 117a1 1 0 00-1.31.32.93.93 0 00.31 1.3l17.76 11a1 1 0 00.22.47c3.22 7.73 5.79 14.07 7.2 17.54l1.17 2.92a1 1 0 101.77-.71zM882.4 157s-23.25-50.25 24.21-76.83c0-.05 36.58 50.94-24.21 76.83z"/><path class="cls-6" d="M883.06 157.18s2.2-6.14 5.19-14.81a.67.67 0 00.48-.74l12.17-9.3a.7.7 0 00.13-1 .68.68 0 00-1-.13l-10.86 8.3c1-2.88 2-6 3.11-9.18l1.89-5.71 12-9.18a.68.68 0 00.13-1 .7.7 0 00-1-.13l-10.4 8c1.36-4.19 2.69-8.38 3.91-12.36l12.46-9.53a.69.69 0 00.13-1 .68.68 0 00-1-.13l-10.93 8.36c2-6.66 3.59-12.56 4.34-16.56a.69.69 0 10-1.36-.25c-.76 4.08-2.47 10.3-4.58 17.3l-4.18-13.89a.69.69 0 10-1.33.4L897.1 110a.66.66 0 00.23.32c-1.34 4.34-2.8 8.92-4.29 13.44l-.08.07-4.23-14.09a.7.7 0 00-.87-.46.69.69 0 00-.46.86l4.6 15.38a.71.71 0 00.33.41c-1.5 4.53-3 8.95-4.37 13l-3.84-12.76a.69.69 0 00-1.32.4l4.38 14.58a.72.72 0 00-.11.37c-2 5.77-3.65 10.48-4.56 13.05l-.77 2.16a.7.7 0 101.31.47zM1346.66 593.19s-5.6 55.09-60 53.77c.02.04-5.47-62.52 60-53.77z"/><path class="cls-6" d="M1346.22 592.66s-5 4.16-12 10.1a.69.69 0 00-.79.4l-15.21 1.8a.7.7 0 00-.61.77.71.71 0 00.78.61l13.57-1.61c-2.32 2-4.8 4.1-7.35 6.31l-4.54 4-15 1.78a.69.69 0 10.17 1.37l13-1.54c-3.3 2.91-6.59 5.84-9.66 8.64l-15.58 1.85a.69.69 0 10.16 1.38l13.67-1.62c-5.11 4.71-9.5 9-12.17 12a.69.69 0 00.06 1 .69.69 0 001-.06c2.73-3.12 7.37-7.61 12.75-12.55l-3.48 14.08a.69.69 0 00.51.84.7.7 0 00.84-.51l3.85-15.56a.74.74 0 000-.39c3.36-3.06 7-6.25 10.53-9.39h.11l-3.54 14.28a.69.69 0 001.35.33l3.85-15.56a.65.65 0 00-.08-.51c3.6-3.14 7.14-6.19 10.38-9l-3.2 12.93a.7.7 0 001.35.34l3.66-14.78a.7.7 0 00.28-.26c4.65-4 8.47-7.16 10.57-8.91l1.77-1.47a.69.69 0 10-.89-1.06zM1305.41 126.21s-67.94-24-49.57-92.38c0 0 80.74 12.27 49.57 92.38z"/><path class="cls-6" d="M1306.22 125.81s-3.72-7.64-9.08-18.3a.9.9 0 00-.26-1.12l2.39-19.78a.9.9 0 10-1.79-.22l-2.1 17.61c-1.79-3.54-3.72-7.34-5.73-11.24l-3.6-7 2.36-19.52a.9.9 0 10-1.79-.22l-2 16.92a710.34 710.34 0 00-8-14.88l2.45-20.26a.9.9 0 10-1.79-.22l-2.15 17.78c-4.39-7.91-8.43-14.76-11.47-19.09a.9.9 0 10-1.48 1c3.11 4.42 7.35 11.65 12 20l-16.73-8.74a.91.91 0 00-.84 1.61l18.49 9.64a.93.93 0 00.51.09 941.47 941.47 0 018.63 16.2v.14l-17-8.86a.91.91 0 00-.84 1.61l18.5 9.64a.87.87 0 00.67.07 1626.1 1626.1 0 018.12 15.86l-15.37-8a.89.89 0 00-1.21.39.91.91 0 00.38 1.22l17.57 9.16a.83.83 0 00.24.44 1702.5 1702.5 0 019.31 18.79.91.91 0 101.63-.79zM1312.23 243.55s14-55 68.84-45.46c0 0-3.83 64.16-68.84 45.46z"/><path class="cls-6" d="M1312.6 244.15s5.72-3.46 13.69-8.42a.71.71 0 00.86-.28l15.68.45a.7.7 0 00.73-.68.72.72 0 00-.69-.74l-14-.4c2.64-1.66 5.48-3.44 8.4-5.3l5.18-3.31 15.47.45a.71.71 0 100-1.42l-13.4-.39c3.78-2.45 7.55-4.92 11.09-7.3l16.06.47a.71.71 0 000-1.42l-14.09-.41c5.88-4 11-7.67 14.14-10.36a.71.71 0 00.08-1 .7.7 0 00-1-.08c-3.24 2.75-8.61 6.59-14.81 10.8l5.65-13.74a.71.71 0 10-1.32-.54l-6.24 15.18a.68.68 0 000 .4c-3.87 2.59-8 5.29-12.09 7.93h-.1l5.72-13.93a.71.71 0 00-1.31-.54l-6.24 15.18a.68.68 0 000 .54 1204.9 1204.9 0 01-11.86 7.5l5.19-12.62a.71.71 0 00-1.32-.54l-5.92 14.43a.72.72 0 00-.33.21c-5.31 3.31-9.66 6-12.05 7.44l-2 1.22a.71.71 0 10.74 1.21zM1699.14 385.7s-54.38 16.07-74.24-36c0 .02 57.1-29.44 74.24 36z"/><path class="cls-6" d="M1699.47 385.08s-5.89-3.15-14.23-7.47a.7.7 0 00-.68-.59l-7.56-13.76a.71.71 0 10-1.25.69l6.8 12.24c-2.78-1.43-5.76-3-8.84-4.52l-5.5-2.76-7.51-13.54a.71.71 0 00-1-.27.71.71 0 00-.27 1l6.5 11.73c-4-2-8.08-4-11.93-5.81l-7.8-14a.71.71 0 10-1.24.69l6.84 12.32c-6.45-3-12.19-5.52-16.13-6.87a.71.71 0 00-.9.44.72.72 0 00.44.9c4 1.38 10.07 4 16.85 7.22l-14.7 2.16a.71.71 0 00.21 1.41l16.24-2.39a.69.69 0 00.36-.18c4.2 2 8.62 4.16 13 6.34v.09l-14.9 2.19a.72.72 0 00-.6.81.71.71 0 00.81.6l16.24-2.39a.73.73 0 00.46-.27c4.37 2.19 8.63 4.37 12.5 6.36l-13.5 2a.71.71 0 10.21 1.4l15.43-2.27a.61.61 0 00.35.17c5.56 2.88 10.08 5.26 12.55 6.57l2.07 1.1a.71.71 0 001-.29.7.7 0 00-.32-1.05zM1834.18 68.42s13.67-78.17 91.27-70.71c0 0 1.43 89.94-91.27 70.71z"/><path class="cls-6" d="M1834.76 69.23S1842.37 63.8 1853 56a1 1 0 001.17-.48l21.93-1a1 1 0 00-.09-2l-19.58.91c3.52-2.59 7.29-5.38 11.17-8.27q3.41-2.55 6.88-5.18l21.64-1a1 1 0 00-.09-2l-18.75.87c5-3.81 10-7.66 14.7-11.36l22.46-1a1 1 0 10-.09-2l-19.7.91c7.79-6.21 14.49-11.85 18.64-15.95a1 1 0 00-1.4-1.41c-4.23 4.18-11.31 10.12-19.53 16.63l6.43-19.77a1 1 0 10-1.89-.61l-7.1 21.84a.92.92 0 000 .57c-5.12 4-10.58 8.22-16 12.34h-.14l6.51-20a1 1 0 10-1.89-.62l-7.1 21.85a1 1 0 00.06.74c-5.47 4.12-10.85 8.11-15.75 11.72l5.9-18.15a1 1 0 10-1.89-.62l-6.75 20.76a1 1 0 00-.43.34c-7.06 5.17-12.85 9.36-16 11.65l-2.67 1.91a1 1 0 001.16 1.62zM1734.43 1007.79s53.89-19.32 76.9 32c0 .01-55.89 32.99-76.9-32z"/><path class="cls-6" d="M1734.13 1008.45s6.12 2.83 14.78 6.71a.7.7 0 00.72.56l8.46 13.39a.7.7 0 001 .22.72.72 0 00.22-1l-7.55-11.94c2.88 1.28 6 2.65 9.17 4l5.7 2.48 8.35 13.21a.72.72 0 001.21-.77l-7.23-11.45c4.18 1.79 8.38 3.55 12.37 5.17l8.66 13.71a.72.72 0 001.21-.77l-7.6-12c6.67 2.67 12.6 4.86 16.65 6a.71.71 0 00.88-.49.72.72 0 00-.49-.89c-4.14-1.16-10.38-3.48-17.4-6.3l14.69-3a.71.71 0 10-.29-1.4l-16.23 3.34a.65.65 0 00-.35.2 737.5 737.5 0 01-13.46-5.65v-.09l14.89-3.06a.72.72 0 00-.29-1.41l-16.23 3.34a.72.72 0 00-.45.3c-4.53-2-9-3.9-13-5.69l13.49-2.78a.72.72 0 10-.3-1.4l-15.42 3.17a.71.71 0 00-.37-.15c-5.76-2.58-10.45-4.72-13-5.9l-2.15-1a.72.72 0 00-.6 1.31zM1028.75 765.14s53.89-19.33 76.9 32c0 0-55.88 32.98-76.9-32z"/><path class="cls-6" d="M1028.45 765.79s6.12 2.83 14.78 6.71a.72.72 0 00.72.56l8.46 13.38a.72.72 0 001 .23.72.72 0 00.22-1l-7.55-12 9.17 4.05 5.7 2.47 8.35 13.21a.72.72 0 001 .22.7.7 0 00.22-1l-7.23-11.44c4.18 1.79 8.38 3.54 12.37 5.16l8.66 13.71a.72.72 0 001.22-.76l-7.61-12c6.68 2.67 12.6 4.86 16.65 6a.72.72 0 00.88-.5.71.71 0 00-.49-.88c-4.13-1.16-10.38-3.49-17.4-6.31l14.69-3a.71.71 0 00.56-.84.72.72 0 00-.85-.56l-16.23 3.34a.72.72 0 00-.35.2c-4.35-1.77-8.93-3.7-13.45-5.64l-.06-.09 14.89-3.07a.72.72 0 00.56-.85.73.73 0 00-.85-.56l-16.23 3.35a.68.68 0 00-.45.3c-4.53-2-9-3.91-13-5.7l13.49-2.77a.72.72 0 00-.29-1.41l-15.43 3.17a.67.67 0 00-.36-.14c-5.77-2.58-10.46-4.72-13-5.9l-2.15-1a.72.72 0 00-.6 1.3zM1208.1 827.05s-25-67.21 38.89-96.82c.01 0 42.18 69.49-38.89 96.82z"/><path class="cls-6" d="M1208.92 827.42s3.45-7.72 8.17-18.62h.05a.89.89 0 00.69-.91l16.64-10.81a.9.9 0 00-1-1.5l-14.85 9.64a1858.46 1858.46 0 007.93-18.73l16.45-10.66a.9.9 0 00-1-1.51l-14.23 9.24a822.2 822.2 0 006.28-15.57l17-11.07a.89.89 0 00.27-1.24.9.9 0 00-1.25-.26l-15 9.71c3.25-8.4 5.9-15.86 7.26-21a.9.9 0 00-1.74-.46c-1.38 5.19-4.2 13-7.63 21.88l-4-18.35a.9.9 0 10-1.76.38l4.44 20.28a.89.89 0 00.26.44 891.36 891.36 0 01-6.87 16.94l-.11.07-3.92-18.56a.9.9 0 00-1.76.39l4.44 20.28a.85.85 0 00.38.55 1421.7 1421.7 0 01-6.93 16.33l-3.69-16.85a.9.9 0 10-1.75.39l4.21 19.26a.91.91 0 00-.18.47 1943.8 1943.8 0 01-7.19 16.4l-1.2 2.71a.9.9 0 00.46 1.19.91.91 0 001.13-.45z"/></svg>